<?xml version="1.0" encoding="utf-8"?>
<!-- Generator: Adobe Illustrator 22.0.0, SVG Export Plug-In . SVG Version: 6.00 Build 0)  -->
<svg version="1.1" id="Layer_1" xmlns="http://www.w3.org/2000/svg" xmlns:xlink="http://www.w3.org/1999/xlink" x="0px" y="0px"
	 viewBox="0 0 1080 755" style="enable-background:new 0 0 1080 755;" xml:space="preserve">
<style type="text/css">
	.st0{opacity:0.5;fill:#DDDDDD;enable-background:new    ;}
	.st1{opacity:0.5;fill:#939393;enable-background:new    ;}
	.st2{opacity:0.5;fill:#BABABA;enable-background:new    ;}
	.st3{opacity:0.5;fill:#6E6E6E;enable-background:new    ;}
	.st4{opacity:0.5;fill:#989898;enable-background:new    ;}
	.st5{fill:#989898;}
	.st6{opacity:0.7;}
	.st7{fill:#A37F59;}
	.st8{fill:#B9AEA9;}
	.st9{fill:#855A3D;}
	.st10{fill:#997668;}
	.st11{fill:#8C6C5F;}
	.st12{fill:#BCA080;}
	.st13{fill:#AA8A6B;}
	.st14{fill:#CEA57C;}
	.st15{fill:#B58F6F;}
	.st16{fill:#875A52;}
	.st17{fill:#825336;}
	.st18{fill:#956F51;}
	.st19{fill:#82574F;}
	.st20{fill:#4F2F2C;}
	.st21{fill:#764D46;}
	.st22{opacity:0.5;fill:#BEBEBE;enable-background:new    ;}
	.st23{opacity:0.5;}
	.st24{fill:#4A4A4A;}
	.st25{fill:#AE835B;}
	.st26{fill:#9C754E;}
	.st27{fill:#C99A6B;}
	.st28{fill:#D9AF84;}
	.st29{fill:#F9CC9C;}
	.st30{fill:#E8B687;}
	.st31{opacity:0.5;fill:#EBCBAB;enable-background:new    ;}
	.st32{fill:#87623F;}
	.st33{fill:none;stroke:#3E262D;stroke-width:1.6959;stroke-miterlimit:10;}
	.st34{fill:#717171;}
	.st35{fill:#FFFFFF;}
	.st36{fill:#4D4D4D;}
	.st37{fill:#1A1A1A;}
	.st38{fill:#7C8084;}
	.st39{fill:#9B9FA1;}
	.st40{fill:#4C4E53;}
	.st41{fill:#77797F;}
	.st42{fill:#4A4C50;}
	.st43{fill:#5C5C5C;}
	.st44{fill:#404040;}
	.st45{fill:#808080;}
	.st46{opacity:0.6;fill:#1A1A1A;enable-background:new    ;}
	.st47{fill:url(#SVGID_1_);}
	.st48{fill:#453605;}
	.st49{fill:#C79700;}
	.st50{fill:#ECB712;}
	.st51{fill:#A3800B;}
	.st52{fill:#C49A0E;}
	.st53{fill:#00A7FF;}
	.st54{fill:#024B8F;}
</style>
<g>
	<g>
		<g>
			<polygon class="st0" points="157.4,457.4 157.4,459.9 14.3,461.9 0,429 8.5,429 8.5,430.4 2.6,430.2 15.8,459.9 			"/>
			<polygon class="st1" points="20.6,451.5 134.5,451.8 126.8,451.8 126.8,451.8 106.4,451.8 106.4,451.8 20.6,451.8 			"/>
			<polygon class="st2" points="157.4,455 157.4,457.4 15.8,459.9 2.6,430.2 8.5,430.4 8.5,431.5 17.1,458.1 			"/>
			<polygon class="st3" points="20.6,451.5 134.5,451.8 126.8,451.8 126.8,451.8 106.4,451.8 106.4,451.8 20.6,451.8 			"/>
			<polygon class="st4" points="157.4,451.8 157.4,455 17.1,458.1 5,431.5 8.5,431.5 20.6,451.5 21.2,451.5 106.4,451.8 
				106.4,451.8 126.8,451.8 126.8,451.8 			"/>
		</g>
		<polygon class="st5" points="157.4,451.8 157.4,451.8 134.5,451.8 		"/>
	</g>
	<g class="st6">
		<rect x="148.3" y="137.4" class="st7" width="170.7" height="157.2"/>
		<rect x="262.8" y="150.6" class="st8" width="46.2" height="21.5"/>
		<path class="st9" d="M277,169.6c-0.6,0-0.8-0.3-0.8-0.8v-0.3c0-0.6,0.3-0.8,0.8-0.8h28.2c0.6,0,0.8,0.3,0.8,0.8v0.3
			c0,0.6-0.3,0.8-0.8,0.8H277L277,169.6z M306,164c0-0.6-0.3-0.8-0.8-0.8h-24.8c-0.6,0-0.8,0.3-0.8,0.8v0.3c0,0.6,0.3,0.8,0.8,0.8
			h24.8c0.6,0,0.8-0.3,0.8-0.8V164L306,164z M306,159.9c0-0.6-0.3-0.8-0.8-0.8h-20.1c-0.6,0-0.8,0.3-0.8,0.8v0.3
			c0,0.6,0.3,0.8,0.8,0.8h20.1c0.6,0,0.8-0.3,0.8-0.8V159.9L306,159.9z M306,155.6c0-0.6-0.3-0.8-0.8-0.8h-26.8
			c-0.6,0-0.8,0.3-0.8,0.8v0.3c0,0.6,0.3,0.8,0.8,0.8h26.8c0.6,0,0.8-0.3,0.8-0.8V155.6L306,155.6z"/>
		<rect x="220.8" y="137.4" class="st10" width="25.3" height="157.2"/>
		<rect x="148.3" y="202.9" class="st11" width="170.7" height="26.1"/>
		<polygon class="st12" points="148.3,137.4 180,133.5 296.4,133.5 318.9,137.4 		"/>
		<polygon class="st13" points="27.1,335.6 27.1,201 43.2,204.7 43.2,335.6 		"/>
		<polygon class="st14" points="203.8,201 27.1,201 43.2,204.7 224.4,204.7 		"/>
		<rect x="43.2" y="204.7" class="st15" width="181.2" height="130.9"/>
		<polygon class="st16" points="43,264.6 27.1,257.8 27.1,275.8 43,284.2 		"/>
		<polygon class="st11" points="43,264.6 224.4,264.6 224.4,284.3 43,284.3 		"/>
		<polygon class="st16" points="43,317.8 27.1,312 27.1,329.8 43,337.6 		"/>
		<polygon class="st11" points="43,317.8 224.4,317.8 224.4,338 43,338 		"/>
		<rect x="127.5" y="205" class="st10" width="20.6" height="132.7"/>
		<rect x="199.3" y="213.2" class="st9" width="21.5" height="3.5"/>
		<rect x="199.3" y="218.8" class="st9" width="21.5" height="3.5"/>
		<rect x="199.3" y="224.5" class="st9" width="21.5" height="3.5"/>
		<rect x="199.3" y="230.2" class="st9" width="21.5" height="3.5"/>
		<polygon class="st13" points="20.3,336.4 20.3,451.5 8.1,431.5 8.1,430.4 8.1,429 8.8,392.8 8.9,372.6 9.6,331 		"/>
		<polygon class="st14" points="9.6,331 184.8,331 203.8,337.2 20.3,336.4 		"/>
		<polygon class="st15" points="203.8,337.2 203.8,451.8 20.3,451.5 20.3,336.4 		"/>
		<rect x="20.1" y="381.2" class="st11" width="183.7" height="21.1"/>
		<polygon class="st16" points="20.3,381.2 20.3,402.6 20.3,402.6 8.8,392.8 8.9,372.6 		"/>
		<rect x="106" y="336.8" class="st10" width="20.6" height="115"/>
		<path class="st17" d="M54,343.8H32.4c-0.6,0-1.1-0.6-1.1-1.1v-0.6c0-0.6,0.6-1.1,1.1-1.1h21.5c0.6,0,1.1,0.6,1.1,1.1v0.6
			C55.1,343.2,54.5,343.8,54,343.8L54,343.8z"/>
		<path class="st17" d="M54,349.1H32.4c-0.6,0-1.1-0.6-1.1-1.1v-0.6c0-0.6,0.6-1.1,1.1-1.1h21.5c0.6,0,1.1,0.6,1.1,1.1v0.6
			C55.1,348.5,54.5,349.1,54,349.1L54,349.1z"/>
		<path class="st17" d="M54,354.4H32.4c-0.6,0-1.1-0.6-1.1-1.1v-0.6c0-0.6,0.6-1.1,1.1-1.1h21.5c0.6,0,1.1,0.6,1.1,1.1v0.6
			C55.1,353.8,54.5,354.4,54,354.4L54,354.4z"/>
		<path class="st17" d="M54,359.7H32.4c-0.6,0-1.1-0.6-1.1-1.1V358c0-0.6,0.6-1.1,1.1-1.1h21.5c0.6,0,1.1,0.6,1.1,1.1v0.6
			C55.1,359.1,54.5,359.7,54,359.7L54,359.7z"/>
		<rect x="157.4" y="298.6" class="st13" width="161.1" height="161.1"/>
		<polygon class="st18" points="336.2,292.8 336.2,440.4 318.3,459.7 318.3,298.6 		"/>
		<polygon class="st14" points="157.4,298.6 318.3,298.6 336.2,292.8 181.9,292.8 		"/>
		<rect x="226.3" y="299.1" class="st11" width="22.5" height="160.9"/>
		<rect x="157.4" y="367.2" class="st19" width="161.1" height="23"/>
		<polygon class="st20" points="336.2,359.7 336.2,381.2 318.9,389.8 318.3,390.2 318.3,367.2 318.9,366.7 		"/>
		<path class="st18" d="M177.7,310.2c4.2,0,8,0,12.1,0c1.3,0,2.1,0.3,1.9,1.9c-0.2,1.3,0.2,3.1-1.9,3.1c-8.2,0-16.6,0-24.8,0
			c-1.9,0-1.9-1.1-1.9-2.7c0-1.3,0.3-2.4,1.9-2.4C169.2,310.2,173.5,310.2,177.7,310.2L177.7,310.2z"/>
		<path class="st18" d="M177.7,318.1c4.2,0,8,0,12.1,0c1.3,0,2.1,0.3,1.9,1.9c-0.2,1.3,0.2,3.1-1.9,3.1c-8.2,0-16.6,0-24.8,0
			c-1.9,0-1.9-1.1-1.9-2.7c0-1.3,0.3-2.4,1.9-2.4C169.2,318.1,173.5,318.1,177.7,318.1L177.7,318.1z"/>
		<path class="st18" d="M177.7,326c4.2,0,8,0,12.1,0c1.3,0,2.1,0.3,1.9,1.9c-0.2,1.3,0.2,3.1-1.9,3.1c-8.2,0-16.6,0-24.8,0
			c-1.9,0-1.9-1.1-1.9-2.7c0-1.3,0.3-2.4,1.9-2.4C169.2,326,173.5,326,177.7,326L177.7,326z"/>
		<rect x="163.9" y="430.9" class="st8" width="42.3" height="20.9"/>
		<path class="st9" d="M177.1,449.4c-0.3,0-0.8-0.3-0.8-0.8v-0.3c0-0.3,0.3-0.8,0.8-0.8h25.6c0.3,0,0.8,0.3,0.8,0.8v0.3
			c0,0.3-0.3,0.8-0.8,0.8H177.1L177.1,449.4z M203.3,444.2c0-0.3-0.3-0.8-0.8-0.8H180c-0.3,0-0.8,0.3-0.8,0.8v0.3
			c0,0.3,0.3,0.8,0.8,0.8h22.7c0.3,0,0.8-0.3,0.8-0.8L203.3,444.2L203.3,444.2z M203.3,439.9c0-0.3-0.3-0.8-0.8-0.8h-18.4
			c-0.3,0-0.8,0.3-0.8,0.8v0.3c0,0.3,0.3,0.8,0.8,0.8h18.4c0.3,0,0.8-0.3,0.8-0.8V439.9L203.3,439.9z M203.3,435.9
			c0-0.3-0.3-0.8-0.8-0.8h-24.3c-0.3,0-0.8,0.3-0.8,0.8v0.3c0,0.3,0.3,0.8,0.8,0.8h24.3c0.3,0,0.8-0.3,0.8-0.8V435.9L203.3,435.9z"
			/>
		<rect x="28.1" y="429.1" class="st8" width="35.6" height="16.6"/>
		<path class="st9" d="M39.3,443.9c-0.3,0-0.6-0.2-0.6-0.6V443c0-0.3,0.2-0.6,0.6-0.6h21.6c0.3,0,0.6,0.2,0.6,0.6v0.3
			c0,0.3-0.2,0.6-0.6,0.6H39.3L39.3,443.9z M61.4,439.6c0-0.3-0.2-0.6-0.6-0.6h-19c-0.3,0-0.6,0.2-0.6,0.6v0.3
			c0,0.3,0.2,0.6,0.6,0.6h19c0.3,0,0.6-0.2,0.6-0.6V439.6L61.4,439.6z M61.4,436.2c0-0.3-0.2-0.6-0.6-0.6H45.1
			c-0.3,0-0.6,0.2-0.6,0.6v0.3c0,0.3,0.2,0.6,0.6,0.6h15.7c0.3,0,0.6-0.2,0.6-0.6L61.4,436.2L61.4,436.2z M61.4,433.1
			c0-0.3-0.2-0.6-0.6-0.6H40.3c-0.3,0-0.6,0.2-0.6,0.6v0.3c0,0.3,0.2,0.6,0.6,0.6h20.8c0.3,0,0.6-0.2,0.6-0.6L61.4,433.1L61.4,433.1
			z"/>
		<rect x="50.8" y="213.2" class="st8" width="46.2" height="21.5"/>
		<path class="st9" d="M65.1,232.3c-0.6,0-0.8-0.3-0.8-0.8v-0.6c0-0.6,0.3-0.8,0.8-0.8h28.2c0.6,0,0.8,0.3,0.8,0.8v0.3
			c0,0.6-0.3,0.8-0.8,0.8L65.1,232.3L65.1,232.3z M93.9,226.9c0-0.6-0.3-0.8-0.8-0.8H68.4c-0.6,0-0.8,0.3-0.8,0.8v0.3
			c0,0.6,0.3,0.8,0.8,0.8h24.8c0.6,0,0.8-0.3,0.8-0.8L93.9,226.9L93.9,226.9z M93.9,222.5c0-0.6-0.3-0.8-0.8-0.8H73
			c-0.6,0-0.8,0.3-0.8,0.8v0.3c0,0.6,0.3,0.8,0.8,0.8h20.1c0.6,0,0.8-0.3,0.8-0.8V222.5L93.9,222.5z M93.9,218.2
			c0-0.6-0.3-0.8-0.8-0.8H66.2c-0.6,0-0.8,0.3-0.8,0.8v0.3c0,0.6,0.3,0.8,0.8,0.8H93c0.6,0,0.8-0.3,0.8-0.8L93.9,218.2L93.9,218.2z"
			/>
		<path class="st9" d="M267,439.6h14.2v16h-14.1v-16H267z M267.8,455h12.7v-14.7h-12.7V455L267.8,455z"/>
		<path class="st9" d="M297.2,439.6h14.1v16h-14.1V439.6z M310.6,440.4h-12.7v14.8h12.7V440.4z"/>
		<path class="st9" d="M296.4,455.8h-14.1v-16.1h14.1V455.8z M295.8,440.4h-12.7v14.7h12.7V440.4z"/>
		<path class="st9" d="M278.2,443.4c-0.2,0.6-0.2,1.1-0.3,1.6c-0.2,1-0.8,1.8-1.3,2.6c-0.6,0.6-1.1,0.8-1.8,1v2.9h1.8v1h-4.3v-1h1.8
			v-0.2c0-0.8,0-1.8,0-2.6c0-0.2,0-0.2-0.2-0.2c-0.3-0.2-0.8-0.3-1.1-0.6c-0.2,0-0.2-0.2,0-0.2c0.3-0.8,0.8-1.8,1.1-2.7
			c-0.2-0.2-0.6-0.2-0.8-0.3c0.2-0.3,0.3-0.8,0.6-1.1h0.2C275.2,443.4,276.7,443.4,278.2,443.4C278,443.4,278,443.4,278.2,443.4
			L278.2,443.4z"/>
		<path class="st9" d="M270.2,443.4h2.7c0,0.2-0.2,0.3-0.2,0.6c-0.2,0.2-0.2,0.6-0.3,0.8s0,0.2,0.2,0.3c0.2,0,0.2,0.2,0.3,0.2
			c-0.3,0.8-0.6,1.3-1,2.1C270.6,446.2,270.2,444.9,270.2,443.4L270.2,443.4z"/>
		<path class="st9" d="M305.6,445H305c0.3-0.8,0.8-1.6,1.1-2.1c0.6,0.8,0.8,1.6,1.1,2.1h-0.6v6.3h-1.1V445H305.6z"/>
		<path class="st9" d="M302.3,442.9c0.3,0.8,0.8,1.6,1.1,2.1h-0.8v6.3h-1.1V445c-0.2,0-0.3,0-0.6,0
			C301.3,444.4,301.7,443.6,302.3,442.9L302.3,442.9z"/>
		<rect x="300.1" y="451.8" class="st9" width="8.4" height="1.1"/>
		<path class="st9" d="M294,447c-0.2,0-0.2-0.2-0.2-0.2c-0.6-0.6-1.3-0.6-1.8,0c-0.2,0.2-0.2,0.2-0.3,0c-0.3-0.3-0.8-0.6-1.1-0.3
			c-0.2,0-0.3,0.2-0.2,0.3c0,1.8,0,3.4,0,4.9c0,0.6-0.3,1-0.8,1c-0.8,0.2-1.6-0.6-1.3-1.1h0.8c0,0.2,0,0.2,0,0.3
			c0,0,0.2,0.2,0.3,0.2s0.2-0.2,0.2-0.2s0-0.2,0-0.3c0-1.6,0-3.4,0-4.7c0-0.2-0.2-0.3-0.3-0.3c-0.6-0.2-1,0-1.1,0.3
			c-0.2,0.2-0.2,0.2-0.6,0c-0.6-0.6-1.3-0.6-1.8,0l-0.2,0.2c0-1.3,1.1-3.1,4.2-3.4v-1h0.8v0.8c1.3,0.2,2.6,0.6,3.4,1.8
			C293.9,445.8,293.9,446.5,294,447L294,447z"/>
		<path class="st9" d="M155.5,144.8h14.1v16.1h-14.1V144.8z M156.1,160.5h12.7v-14.7h-12.7V160.5z"/>
		<path class="st9" d="M185.4,144.8h14.1v16.1h-14.1V144.8L185.4,144.8z M198.9,145.6H186v14.8h12.7L198.9,145.6L198.9,145.6z"/>
		<path class="st9" d="M184.6,160.9h-14.1v-16.1h14.1V160.9z M183.8,145.6h-12.7v14.7h12.7V145.6z"/>
		<path class="st9" d="M166.5,148.8c-0.2,0.6-0.2,1.1-0.3,1.6c-0.2,1-0.8,1.8-1.3,2.6c-0.6,0.6-1.1,0.8-1.8,1v2.9h1.8v1h-4.3v-1h1.8
			v-0.2c0-0.8,0-1.8,0-2.6c0-0.2,0-0.2-0.2-0.2c-0.3-0.2-0.8-0.3-1.1-0.6c-0.2,0-0.2-0.2,0-0.2c0.3-0.8,0.8-1.8,1.1-2.7
			c-0.2-0.2-0.6-0.2-0.8-0.3c0.2-0.3,0.3-0.8,0.6-1.1h0.2C163.5,148.8,164.9,148.8,166.5,148.8C166.3,148.5,166.3,148.5,166.5,148.8
			L166.5,148.8z"/>
		<path class="st9" d="M158.4,148.5h2.7c0,0.2-0.2,0.3-0.2,0.6c-0.2,0.2-0.2,0.6-0.3,0.8c0,0.2,0,0.2,0.2,0.3c0.2,0,0.2,0.2,0.3,0.2
			c-0.3,0.8-0.6,1.3-1,2.1C158.9,151.5,158.4,150.1,158.4,148.5L158.4,148.5z"/>
		<path class="st9" d="M193.8,150.6h-0.6c0.3-0.8,0.8-1.6,1.1-2.1c0.6,0.8,0.8,1.6,1.1,2.1H195v6.3h-1.1L193.8,150.6L193.8,150.6z"
			/>
		<path class="st9" d="M190.6,148.2c0.3,0.8,0.8,1.6,1.1,2.1h-0.6v6.3H190v-6.3c-0.2,0-0.3,0-0.6,0
			C189.6,149.8,189.9,149,190.6,148.2L190.6,148.2z"/>
		<rect x="188.3" y="157.4" class="st9" width="8.4" height="1.1"/>
		<path class="st9" d="M182.4,152.5c-0.2,0-0.2-0.2-0.2-0.2c-0.6-0.6-1.3-0.6-1.8,0c-0.2,0.2-0.2,0.2-0.3,0
			c-0.3-0.3-0.8-0.6-1.1-0.3c-0.2,0-0.3,0.2-0.2,0.3c0,1.8,0,3.4,0,4.9c0,0.6-0.3,1-0.8,1c-0.8,0.2-1.6-0.6-1.3-1.1h0.8
			c0,0.2,0,0.2,0,0.3c0,0,0.2,0.2,0.3,0.2c0.2,0,0.2-0.2,0.2-0.2s0-0.2,0-0.3c0-1.6,0-3.4,0-4.7c0-0.2-0.2-0.3-0.3-0.3
			c-0.6-0.2-1,0-1.1,0.3c-0.2,0.2-0.2,0.2-0.6,0c-0.6-0.6-1.3-0.6-1.8,0l-0.2,0.2c0-1.3,1.1-3.1,4.2-3.4v-0.8h0.8v0.8
			c1.3,0.2,2.6,0.6,3.4,1.8C181.9,150.9,182.4,151.7,182.4,152.5L182.4,152.5z"/>
		<path class="st21" d="M51.9,241.7H66v16.1H51.9V241.7z M52.5,257.1h12.8v-14.7H52.5V257.1z"/>
		<path class="st21" d="M82,241.7h14v16.1H82V241.7z M95.2,242.3H82.5v14.8h12.7V242.3z"/>
		<path class="st21" d="M81,257.8H66.9v-16.1H81V257.8z M80.4,242.3H67.7V257h12.7L80.4,242.3L80.4,242.3z"/>
		<path class="st21" d="M62.8,245.4c-0.2,0.6-0.2,1.1-0.3,1.6c-0.2,1-0.8,1.8-1.3,2.6c-0.6,0.6-1.1,0.8-1.8,1v2.9h1.8v1h-4.3v-1h1.8
			v-0.2c0-0.8,0-1.8,0-2.6c0-0.2,0-0.2-0.2-0.2c-0.3-0.2-0.8-0.3-1.1-0.6c-0.2,0-0.2-0.2,0-0.2c0.3-0.8,0.8-1.8,1.1-2.7
			c-0.2-0.2-0.6-0.2-0.8-0.3c0.2-0.3,0.3-0.8,0.6-1.1h0.2C59.6,245.4,61.2,245.4,62.8,245.4L62.8,245.4L62.8,245.4z"/>
		<path class="st21" d="M54.8,245.4h2.7c0,0.2-0.2,0.3-0.2,0.6c-0.2,0.2-0.2,0.6-0.3,0.8c0,0.2,0,0.2,0.2,0.3c0.2,0,0.2,0.2,0.3,0.2
			c-0.3,0.8-0.6,1.3-1,2.1C55.3,248.4,54.9,247,54.8,245.4L54.8,245.4z"/>
		<path class="st21" d="M90.3,247.2h-0.6c0.3-0.8,0.8-1.6,1.1-2.1c0.6,0.8,0.8,1.6,1.1,2.1h-0.6v6.3H90L90.3,247.2L90.3,247.2z"/>
		<path class="st21" d="M86.8,244.9c0.3,0.8,0.8,1.6,1.1,2.1h-0.6v6.3h-1.1V247c-0.2,0-0.3,0-0.6,0
			C85.8,246.5,86.5,245.7,86.8,244.9L86.8,244.9z"/>
		<rect x="84.7" y="253.9" class="st21" width="8.4" height="1.1"/>
		<path class="st21" d="M78.6,248.9c-0.2,0-0.2-0.2-0.2-0.2c-0.6-0.6-1.3-0.6-1.8,0c-0.2,0.2-0.2,0.2-0.3,0
			c-0.3-0.3-0.8-0.6-1.1-0.3c-0.2,0-0.3,0.2-0.2,0.3c0,1.8,0,3.4,0,4.9c0,0.6-0.3,1-0.8,1c-0.8,0.2-1.6-0.6-1.3-1.1h0.8
			c0,0.2,0,0.2,0,0.3c0,0,0.2,0.2,0.3,0.2l0.2-0.2c0,0,0-0.2,0-0.3c0-1.6,0-3.4,0-4.7c0-0.2-0.2-0.3-0.3-0.3c-0.6-0.2-1,0-1.1,0.3
			c-0.2,0.2-0.2,0.2-0.6,0c-0.6-0.6-1.3-0.6-1.8,0l-0.2,0.2c0-1.3,1.1-3.1,4.2-3.4V245H75v0.8c1.3,0.2,2.6,0.6,3.4,1.8
			C78.4,247.8,78.6,248.4,78.6,248.9L78.6,248.9z"/>
	</g>
</g>
<g>
	<g>
		<polygon class="st22" points="107.9,522.3 593.1,595 649.4,541 268,467.2 		"/>
		<polygon class="st1" points="592.5,590.1 646.2,538.5 281.5,467.7 128.3,520.4 		"/>
		<polygon class="st3" points="591.6,585.5 643.1,536 294.3,468.3 147.7,518.8 		"/>
		<g class="st23">
			<polygon class="st24" points="166,517.2 590.8,581 640,533.7 306.3,469 			"/>
		</g>
	</g>
	<g>
		<polygon class="st25" points="412.8,286.4 412.8,551.5 183,516.7 183,270.8 239.6,274.7 242.7,275 261,276.2 279.2,277.3 
			318.3,280.1 322.3,280.2 		"/>
		<polygon class="st26" points="318.3,280.1 318.3,349.8 279.2,345.9 279.2,277.3 		"/>
		<polygon class="st27" points="412.8,286.4 412.8,551.5 453.6,523.5 464.8,515.5 525.8,472.2 525.1,244.8 		"/>
		<polygon class="st28" points="476.9,262.6 476.9,315.5 461.3,322.5 461.3,268.7 		"/>
		<polygon class="st29" points="476.9,455.3 476.9,506.8 464.8,515.5 461.3,518.1 461.3,466 		"/>
		<polygon class="st30" points="525.1,244.8 412.8,286.4 297.7,278.6 291.1,278.1 183,270.8 340.4,239.9 422.6,242 430.1,242.2 		
			"/>
		<polygon class="st31" points="409.1,241.7 279.2,277.3 318.3,280.1 438.2,242.4 		"/>
		<g>
			<polygon class="st32" points="425.7,242 301.9,278.9 296.3,278.5 422.6,242 			"/>
		</g>
		<g>
			<polygon class="st33" points="193.3,506.2 193.3,453.1 251.6,460.2 251.6,514.3 			"/>
			<line class="st33" x1="200.1" y1="462.3" x2="244.3" y2="467.7"/>
			<line class="st33" x1="200.1" y1="472" x2="244.3" y2="477.5"/>
			<line class="st33" x1="200.1" y1="481.9" x2="244.3" y2="487.2"/>
			<line class="st33" x1="200.1" y1="491.6" x2="244.3" y2="496.9"/>
			<line class="st33" x1="200.1" y1="501.3" x2="244.3" y2="506.7"/>
		</g>
		<path class="st34" d="M251.4,350.3l-58.4-9.1c2.3-4.7,5.6-13.6,5.6-25.4c0-11.5-3.4-20.4-5.6-24.9c19.6,0.8,38,2.4,57.6,4.5
			c1.1,8.4,2.8,16.2,2.8,27.2C253.4,332.7,252.6,342.2,251.4,350.3z"/>
		<path class="st35" d="M251.4,350.3c2.3-21.7,1.3-43.4-5.5-51.6c-14.7-2.3-57.9-7.1-57.9-7.1c3.9,8.9,12.3,30.1,5,49.5L251.4,350.3
			z"/>
		<g>
			<path class="st36" d="M231.5,319.1c0,2.8,0,5.8,0,8.7c0,1.8-0.3,3.9-0.7,5.6l4,0.5c0-0.3,0-0.5,0.2-0.8c0.3-3.4,0.5-6.8,0.5-10.2
				c0-5.2-0.7-10.4-1.6-15.5c-0.3-1.3-0.5-2.6-0.8-4l-4-0.5c0.5,2.1,1.1,4.3,1.5,6.6C231.1,313.1,231.5,316,231.5,319.1z"/>
			<path class="st36" d="M225.9,317.1c0.2,2.4,0.3,5.2,0.2,7.6c0,1.3-0.2,2.4-0.3,3.9c-0.1,1.4-0.5,2.8-0.7,4.2l4,0.5
				c0-0.3,0.2-0.7,0.2-1.1c0.7-4.2,0.7-8.3,0.5-12.4c-0.2-4.3-0.8-8.4-1.6-12.8c-0.3-1.3-0.5-2.6-1-4l-4-0.5c0.2,0.7,0.3,1.3,0.5,2
				C224.9,308.7,225.7,312.9,225.9,317.1z"/>
			<path class="st36" d="M237.4,323.1c0.2,3.9,0,7.4-0.5,11l4.2,0.7c0-0.7,0.2-1.5,0.2-2.3c0.2-2.8,0.2-5.6,0-8.6
				c-0.2-5.2-0.7-10.1-1.5-15.1c-0.3-1.6-0.5-3.1-0.8-4.8l-4-0.5c0.5,2.3,0.8,4.5,1.1,6.6C236.9,314.7,237.2,318.9,237.4,323.1z"/>
			<path class="st36" d="M219.5,331.7l4,0.5c0.3-2,0.7-4,0.8-6c0.3-4.3,0.2-8.4-0.5-12.8c-0.5-3.9-1.3-7.6-2.4-11.2l-4.2-0.5
				C220.2,311.9,221.3,321.6,219.5,331.7z"/>
			<path class="st36" d="M202.9,300.3l-4.5-0.5c3.4,9.7,4.2,29.1,0.5,36.1c0.2,0,0.3,0,0.5,0.2c1.1,0.2,2.4,0.5,3.6,0.7
				c0.3,0,0.5,0,0.5-0.3c0.5-2,1-4,1.3-6c0.5-3.4,0.8-6.8,0.8-10.2c0-3.6-0.3-7.4-1-11C204.3,306.3,203.7,303.2,202.9,300.3z"/>
			<path class="st36" d="M213.6,330.9l4.3,0.7c0-0.3,0.2-0.8,0.2-1.1c0.2-1.3,0.5-2.6,0.5-4c0.3-4.3,0.3-8.4-0.3-12.8
				c-0.5-4-1.5-7.9-2.6-12l-4.5-0.5C214,311,215.5,321,213.6,330.9z"/>
			<path class="st36" d="M246.9,324.1c-0.2-2.8-0.3-5.6-0.7-8.4c-0.5-3.6-1.1-7.3-1.6-10.9l-4-0.5c0.3,2.3,0.7,4.5,1.1,6.8
				c1,5.5,1.3,10.7,1.5,16.2c0,2.6,0,5.2-0.3,7.6c-0.3,2.8-0.7,5.6-1.1,8.6c0,0.3,0,0.5,0.3,0.5c1,0.2,2.1,0.5,3.1,0.7
				c0.5,0,0.8,0.2,1.3,0.3c0-0.2,0-0.3,0-0.5c0.2-3.3,0.7-6.5,0.7-9.7C247.3,331.2,247.1,327.8,246.9,324.1z"/>
			<path class="st36" d="M207.7,323.9c0,1.5-0.3,2.9-0.5,4.5c0,0.5-0.2,1-0.2,1.5l4.5,0.7c0.3-1.3,0.5-2.8,0.7-4.2
				c0.3-3.6,0.3-7.4,0-11.2c-0.3-2.8-0.8-5.5-1.3-8.1c-0.5-2-1-4-1.6-6.1l-4.5-0.5c0.8,3.3,1.6,6.6,2.1,9.9
				C207.7,315,208.1,319.5,207.7,323.9z"/>
		</g>
		<g>
			<g>
				<g>
					<path class="st32" d="M304.2,521.9c0.3,0,0.7-0.2,0.7-0.5v-17c0-0.5-0.3-0.7-0.7-0.7c-0.4,0-0.7,0.2-0.7,0.5v17
						C303.5,521.6,303.7,522.1,304.2,521.9"/>
					<path class="st32" d="M293.1,523.5l22,3.4c2.3,0.5,4.2-1.3,4.2-3.9v-23.6c0-2.4-1.8-4.8-4.2-5.3l-22-3.4
						c-2.3-0.5-4.2,1.3-4.2,3.9v23.8C289,520.6,290.8,523.1,293.1,523.5 M315.1,495.5c1.6,0.3,2.9,2,2.9,3.9v23.8
						c0,1.6-1.3,2.9-2.9,2.8l-22-3.4c-1.6-0.3-2.9-2-2.9-3.9v-23.8c0-1.6,1.3-2.9,2.9-2.8L315.1,495.5z"/>
					<path class="st32" d="M295.1,508.4c0.8-3.4,4.5-5.6,9.1-4.8c4.5,0.8,8.1,4.2,9.1,7.8L295.1,508.4z"/>
					<path class="st32" d="M307.1,501.8c0.3,0,0.7-0.2,0.7-0.5v-4.2c0-0.5-0.3-0.7-0.7-0.7c-0.3,0-0.7,0.2-0.7,0.5v4.2
						C306.6,501.5,307,501.8,307.1,501.8"/>
					<path class="st32" d="M304.2,501.3c0.3,0,0.7-0.3,0.7-0.5v-4.2c0-0.5-0.3-0.7-0.7-0.7c-0.4,0-0.7,0.2-0.7,0.5v4.2
						C303.5,501,303.7,501.3,304.2,501.3"/>
					<path class="st32" d="M300.8,500.8c0.3,0,0.7-0.2,0.7-0.5v-4.2c0-0.5-0.3-0.7-0.7-0.7c-0.3,0-0.7,0.2-0.7,0.5v4.2
						C300.3,500.5,300.5,500.6,300.8,500.8"/>
				</g>
				<path class="st32" d="M357.6,534.2l22,3.4c2.3,0.5,4.2-1.3,4.2-3.9V510c0-2.4-1.8-4.8-4.2-5.3l-22.2-3.4
					c-2.3-0.5-4.2,1.3-4.2,3.9l0.2,23.8C353.4,531.6,355.5,533.8,357.6,534.2 M379.6,506.2c1.6,0.3,3.1,2,2.9,3.9v23.8
					c0,1.6-1.5,3.1-3.1,2.8l-22-3.4c-1.6-0.3-2.9-2-2.9-3.9l-0.2-23.8c0-1.6,1.3-2.9,3.1-2.8L379.6,506.2z"/>
				<path class="st32" d="M362.9,508.7v7.9c0,2.1,1.6,4.2,3.6,4.5l4.5,0.7c2,0.3,3.6-1.1,3.6-3.3v-7.9l-2.1-0.3v8.4
					c0,0.5-0.3,0.7-0.7,0.5c-0.3,0-0.7-0.3-0.7-0.7V510L362.9,508.7z"/>
				<g>
					<path class="st32" d="M325.1,523.5l22.3,3.6c0.3,0,0.7-0.2,0.7-0.5s-0.3-0.7-0.7-0.7l-22.3-3.6c-0.3,0-0.7,0.2-0.7,0.5
						C324.6,523.1,324.7,523.6,325.1,523.5"/>
					<path class="st32" d="M325.2,528.7l22,3.4c2.3,0.5,4.2-1.3,4.2-3.9v-23.8c0-2.4-1.8-4.8-4.2-5.3l-22-3.4
						c-2.3-0.5-4.2,1.3-4.2,3.9v23.8C321,526.1,323,528.4,325.2,528.7 M347.2,500.8c1.6,0.3,3.1,2,3.1,3.6v23.8
						c0,1.6-1.3,2.9-3.1,2.8l-22-3.4c-1.6-0.3-2.9-2-2.9-3.9V500c0-1.6,1.3-2.9,2.9-2.8L347.2,500.8z"/>
					<polygon class="st32" points="342.7,506.2 342.7,525.7 341.7,525.6 341.7,506 					"/>
					<polygon class="st32" points="337.4,509.7 338.2,510.7 342.2,506.7 346.3,512 347.2,511.3 342.2,504.7 					"/>
					<polygon class="st32" points="330.8,504.2 330.8,523.9 329.8,523.6 329.8,504.1 					"/>
					<polygon class="st32" points="325.4,507.8 326.4,508.7 330.3,504.7 334.3,510 335.3,509.2 330.3,502.8 					"/>
				</g>
			</g>
		</g>
		<g>
			<g>
				<path class="st32" d="M404.2,337.4l-38.2-2.6v-43.7l38.2,2.3V337.4z M368.5,332.4l33.4,2.1v-38.4l-33.4-2.1V332.4z"/>
			</g>
			<g>
				<polygon class="st32" points="389,331.2 380.8,330.6 380.8,308.1 389,309.4 				"/>
				<polygon class="st32" points="397.4,313.7 372.3,311.9 384.9,297.7 				"/>
			</g>
		</g>
	</g>
	<g>
		<polygon class="st25" points="412.8,286.4 412.8,551.5 183,516.7 183,270.8 239.6,274.7 242.7,275 261,276.2 279.2,277.3 
			318.3,280.1 322.3,280.2 		"/>
		<polygon class="st26" points="318.3,280.1 318.3,349.8 279.2,345.9 279.2,277.3 		"/>
		<polygon class="st27" points="412.8,286.4 412.8,551.5 453.6,523.5 464.8,515.5 525.8,472.2 525.1,244.8 		"/>
		<polygon class="st28" points="476.9,262.6 476.9,315.5 461.3,322.5 461.3,268.7 		"/>
		<polygon class="st29" points="476.9,455.3 476.9,506.8 464.8,515.5 461.3,518.1 461.3,466 		"/>
		<polygon class="st30" points="525.1,244.8 412.8,286.4 297.7,278.6 291.1,278.1 183,270.8 340.4,239.9 422.6,242 430.1,242.2 		
			"/>
		<polygon class="st31" points="409.1,241.7 279.2,277.3 318.3,280.1 438.2,242.4 		"/>
		<g>
			<polygon class="st32" points="425.7,242 301.9,278.9 296.3,278.5 422.6,242 			"/>
		</g>
		<g>
			<polygon class="st33" points="193.3,506.2 193.3,453.1 251.6,460.2 251.6,514.3 			"/>
			<line class="st33" x1="200.1" y1="462.3" x2="244.3" y2="467.7"/>
			<line class="st33" x1="200.1" y1="472" x2="244.3" y2="477.5"/>
			<line class="st33" x1="200.1" y1="481.9" x2="244.3" y2="487.2"/>
			<line class="st33" x1="200.1" y1="491.6" x2="244.3" y2="496.9"/>
			<line class="st33" x1="200.1" y1="501.3" x2="244.3" y2="506.7"/>
		</g>
		<path class="st34" d="M251.4,350.3l-58.4-9.1c2.3-4.7,5.6-13.6,5.6-25.4c0-11.5-3.4-20.4-5.6-24.9c19.6,0.8,38,2.4,57.6,4.5
			c1.1,8.4,2.8,16.2,2.8,27.2C253.4,332.7,252.6,342.2,251.4,350.3z"/>
		<path class="st35" d="M251.4,350.3c2.3-21.7,1.3-43.4-5.5-51.6c-14.7-2.3-57.9-7.1-57.9-7.1c3.9,8.9,12.3,30.1,5,49.5L251.4,350.3
			z"/>
		<g>
			<path class="st36" d="M231.5,319.1c0,2.8,0,5.8,0,8.7c0,1.8-0.3,3.9-0.7,5.6l4,0.5c0-0.3,0-0.5,0.2-0.8c0.3-3.4,0.5-6.8,0.5-10.2
				c0-5.2-0.7-10.4-1.6-15.5c-0.3-1.3-0.5-2.6-0.8-4l-4-0.5c0.5,2.1,1.1,4.3,1.5,6.6C231.1,313.1,231.5,316,231.5,319.1z"/>
			<path class="st36" d="M225.9,317.1c0.2,2.4,0.3,5.2,0.2,7.6c0,1.3-0.2,2.4-0.3,3.9c-0.1,1.4-0.5,2.8-0.7,4.2l4,0.5
				c0-0.3,0.2-0.7,0.2-1.1c0.7-4.2,0.7-8.3,0.5-12.4c-0.2-4.3-0.8-8.4-1.6-12.8c-0.3-1.3-0.5-2.6-1-4l-4-0.5c0.2,0.7,0.3,1.3,0.5,2
				C224.9,308.7,225.7,312.9,225.9,317.1z"/>
			<path class="st36" d="M237.4,323.1c0.2,3.9,0,7.4-0.5,11l4.2,0.7c0-0.7,0.2-1.5,0.2-2.3c0.2-2.8,0.2-5.6,0-8.6
				c-0.2-5.2-0.7-10.1-1.5-15.1c-0.3-1.6-0.5-3.1-0.8-4.8l-4-0.5c0.5,2.3,0.8,4.5,1.1,6.6C236.9,314.7,237.2,318.9,237.4,323.1z"/>
			<path class="st36" d="M219.5,331.7l4,0.5c0.3-2,0.7-4,0.8-6c0.3-4.3,0.2-8.4-0.5-12.8c-0.5-3.9-1.3-7.6-2.4-11.2l-4.2-0.5
				C220.2,311.9,221.3,321.6,219.5,331.7z"/>
			<path class="st36" d="M202.9,300.3l-4.5-0.5c3.4,9.7,4.2,29.1,0.5,36.1c0.2,0,0.3,0,0.5,0.2c1.1,0.2,2.4,0.5,3.6,0.7
				c0.3,0,0.5,0,0.5-0.3c0.5-2,1-4,1.3-6c0.5-3.4,0.8-6.8,0.8-10.2c0-3.6-0.3-7.4-1-11C204.3,306.3,203.7,303.2,202.9,300.3z"/>
			<path class="st36" d="M213.6,330.9l4.3,0.7c0-0.3,0.2-0.8,0.2-1.1c0.2-1.3,0.5-2.6,0.5-4c0.3-4.3,0.3-8.4-0.3-12.8
				c-0.5-4-1.5-7.9-2.6-12l-4.5-0.5C214,311,215.5,321,213.6,330.9z"/>
			<path class="st36" d="M246.9,324.1c-0.2-2.8-0.3-5.6-0.7-8.4c-0.5-3.6-1.1-7.3-1.6-10.9l-4-0.5c0.3,2.3,0.7,4.5,1.1,6.8
				c1,5.5,1.3,10.7,1.5,16.2c0,2.6,0,5.2-0.3,7.6c-0.3,2.8-0.7,5.6-1.1,8.6c0,0.3,0,0.5,0.3,0.5c1,0.2,2.1,0.5,3.1,0.7
				c0.5,0,0.8,0.2,1.3,0.3c0-0.2,0-0.3,0-0.5c0.2-3.3,0.7-6.5,0.7-9.7C247.3,331.2,247.1,327.8,246.9,324.1z"/>
			<path class="st36" d="M207.7,323.9c0,1.5-0.3,2.9-0.5,4.5c0,0.5-0.2,1-0.2,1.5l4.5,0.7c0.3-1.3,0.5-2.8,0.7-4.2
				c0.3-3.6,0.3-7.4,0-11.2c-0.3-2.8-0.8-5.5-1.3-8.1c-0.5-2-1-4-1.6-6.1l-4.5-0.5c0.8,3.3,1.6,6.6,2.1,9.9
				C207.7,315,208.1,319.5,207.7,323.9z"/>
		</g>
		<g>
			<g>
				<g>
					<path class="st32" d="M304.2,521.9c0.3,0,0.7-0.2,0.7-0.5v-17c0-0.5-0.3-0.7-0.7-0.7c-0.4,0-0.7,0.2-0.7,0.5v17
						C303.5,521.6,303.7,522.1,304.2,521.9"/>
					<path class="st32" d="M293.1,523.5l22,3.4c2.3,0.5,4.2-1.3,4.2-3.9v-23.6c0-2.4-1.8-4.8-4.2-5.3l-22-3.4
						c-2.3-0.5-4.2,1.3-4.2,3.9v23.8C289,520.6,290.8,523.1,293.1,523.5 M315.1,495.5c1.6,0.3,2.9,2,2.9,3.9v23.8
						c0,1.6-1.3,2.9-2.9,2.8l-22-3.4c-1.6-0.3-2.9-2-2.9-3.9v-23.8c0-1.6,1.3-2.9,2.9-2.8L315.1,495.5z"/>
					<path class="st32" d="M295.1,508.4c0.8-3.4,4.5-5.6,9.1-4.8c4.5,0.8,8.1,4.2,9.1,7.8L295.1,508.4z"/>
					<path class="st32" d="M307.1,501.8c0.3,0,0.7-0.2,0.7-0.5v-4.2c0-0.5-0.3-0.7-0.7-0.7c-0.3,0-0.7,0.2-0.7,0.5v4.2
						C306.6,501.5,307,501.8,307.1,501.8"/>
					<path class="st32" d="M304.2,501.3c0.3,0,0.7-0.3,0.7-0.5v-4.2c0-0.5-0.3-0.7-0.7-0.7c-0.4,0-0.7,0.2-0.7,0.5v4.2
						C303.5,501,303.7,501.3,304.2,501.3"/>
					<path class="st32" d="M300.8,500.8c0.3,0,0.7-0.2,0.7-0.5v-4.2c0-0.5-0.3-0.7-0.7-0.7c-0.3,0-0.7,0.2-0.7,0.5v4.2
						C300.3,500.5,300.5,500.6,300.8,500.8"/>
				</g>
				<path class="st32" d="M357.6,534.2l22,3.4c2.3,0.5,4.2-1.3,4.2-3.9V510c0-2.4-1.8-4.8-4.2-5.3l-22.2-3.4
					c-2.3-0.5-4.2,1.3-4.2,3.9l0.2,23.8C353.4,531.6,355.5,533.8,357.6,534.2 M379.6,506.2c1.6,0.3,3.1,2,2.9,3.9v23.8
					c0,1.6-1.5,3.1-3.1,2.8l-22-3.4c-1.6-0.3-2.9-2-2.9-3.9l-0.2-23.8c0-1.6,1.3-2.9,3.1-2.8L379.6,506.2z"/>
				<path class="st32" d="M362.9,508.7v7.9c0,2.1,1.6,4.2,3.6,4.5l4.5,0.7c2,0.3,3.6-1.1,3.6-3.3v-7.9l-2.1-0.3v8.4
					c0,0.5-0.3,0.7-0.7,0.5c-0.3,0-0.7-0.3-0.7-0.7V510L362.9,508.7z"/>
				<g>
					<path class="st32" d="M325.1,523.5l22.3,3.6c0.3,0,0.7-0.2,0.7-0.5s-0.3-0.7-0.7-0.7l-22.3-3.6c-0.3,0-0.7,0.2-0.7,0.5
						C324.6,523.1,324.7,523.6,325.1,523.5"/>
					<path class="st32" d="M325.2,528.7l22,3.4c2.3,0.5,4.2-1.3,4.2-3.9v-23.8c0-2.4-1.8-4.8-4.2-5.3l-22-3.4
						c-2.3-0.5-4.2,1.3-4.2,3.9v23.8C321,526.1,323,528.4,325.2,528.7 M347.2,500.8c1.6,0.3,3.1,2,3.1,3.6v23.8
						c0,1.6-1.3,2.9-3.1,2.8l-22-3.4c-1.6-0.3-2.9-2-2.9-3.9V500c0-1.6,1.3-2.9,2.9-2.8L347.2,500.8z"/>
					<polygon class="st32" points="342.7,506.2 342.7,525.7 341.7,525.6 341.7,506 					"/>
					<polygon class="st32" points="337.4,509.7 338.2,510.7 342.2,506.7 346.3,512 347.2,511.3 342.2,504.7 					"/>
					<polygon class="st32" points="330.8,504.2 330.8,523.9 329.8,523.6 329.8,504.1 					"/>
					<polygon class="st32" points="325.4,507.8 326.4,508.7 330.3,504.7 334.3,510 335.3,509.2 330.3,502.8 					"/>
				</g>
			</g>
		</g>
		<g>
			<g>
				<path class="st32" d="M404.2,337.4l-38.2-2.6v-43.7l38.2,2.3V337.4z M368.5,332.4l33.4,2.1v-38.4l-33.4-2.1V332.4z"/>
			</g>
			<g>
				<polygon class="st32" points="389,331.2 380.8,330.6 380.8,308.1 389,309.4 				"/>
				<polygon class="st32" points="397.4,313.7 372.3,311.9 384.9,297.7 				"/>
			</g>
		</g>
	</g>
	<polygon class="st31" points="461.3,268.7 476.9,262.7 282.3,251.3 268.6,254 	"/>
</g>
<g>
	<g>
		<path class="st22" d="M649.9,497.7L380,650.7l335.4,86.9c16.8,4.3,34.7,1.7,49.5-7.4l253.7-155.5L649.9,497.7z"/>
		<path class="st1" d="M762.4,724l239.8-147l-353.1-73.1L393,649.3l320.1,82.3C729.9,736,747.6,733.2,762.4,724z"/>
		<path class="st3" d="M760.1,717.9L986,579.5l-337.4-69.3L406.1,647.8l304.7,77.7C727.5,729.6,745.1,726.9,760.1,717.9z"/>
		<g class="st23">
			<path class="st24" d="M647.7,516.5L419,646.2l289.4,72.9c16.8,4.1,34.4,1.5,49-7.6l211.9-129.8L647.7,516.5z"/>
		</g>
	</g>
	<path class="st37" d="M443.2,628.7L443.2,628.7c0,12.2,8.6,23,20.4,25.7l243,55.5c14.5,3.3,29.5,1.2,42.4-6.4L926.9,597
		L443.2,628.7z"/>
	<g>
		<path class="st38" d="M1003,316c-22.3-38.4-96.8-28.3-148.1-37.4c-29.1-5.2-251.1-41.9-251.1-41.9l34.4-6.9
			c8.4-1.7,16.9-1.8,25.2-0.5c105,16.9,189.4,31.7,294.6,48.4c6.7,1.8,23.2,7.6,36.4,23.8c0.7,0.7,1.2,1.5,1.7,2.2
			C998.7,307.7,1001.2,311.9,1003,316z"/>
		<path class="st39" d="M1006.8,358.5l-13,131.3c-1.3,14.1-4.6,27.8-9.5,41.3c-10.9,27.8-29,50.3-57,65.5l-84.6,46.3
			c0,0-44.1,9.9-59.1,11.9c-12.9,1.8-20.9-3.1-21.1-14.3L757.3,411c-0.7-31.7-21.8-57.3-51.7-62.5l-241.1-43.4l139.2-68.4
			c0,0,222,36.7,251.1,41.9c51.3,9.1,125.9-0.7,148.1,37.4C1008.4,328.9,1009.7,343.9,1006.8,358.5z"/>
	</g>
	<path class="st40" d="M839.1,644.8c0,0-107.6,51.8-108.6,52l-280.6-65.9c-17.8-3.8-30-19.6-30-38.5l-2.3-81.1v-4l-4-135.5
		c0-1.8,0.2-3.6,0.5-5.4l0,0l0.5-2.2c1-4.3,2.8-8.6,5.4-12c7.4-10.9,20.3-17.4,33.4-15.1l216.7,39.4c29.3,5.4,49.8,30.6,50,62
		l0.5,133.1v4l0.2,101.2L839.1,644.8z"/>
	<path class="st37" d="M453.9,630.8l-1.5-0.5c-0.2,0-0.5-0.2-0.8-0.2l-0.7-0.2c-0.5-0.2-1.2-0.3-1.5-0.5l-1.5-0.7
		c-2-1-4-2.2-5.7-3.6l-0.7-0.5l-0.7-0.5c-0.5-0.5-0.8-0.7-1.2-1.2c-0.7-0.8-1.3-1.7-2-2.7c-0.7-0.8-1.3-1.8-1.8-2.8
		c-0.2-0.5-0.5-1-0.7-1.5l-0.3-0.7l-0.2-0.7c-0.8-2-1.3-4.1-1.8-6.7c-0.3-2.2-0.5-4.6-0.5-6.7l-0.5-13.5l-2-53.8L426,426.3
		l-1.8-53.8l-0.2-1.7c0-0.7,0-1.2,0-1.8c0-0.6,0.2-1.2,0.2-1.8l0.3-1.7c0.5-2.3,1.3-4.7,2.7-6.7c2.5-4,6.1-7.6,10.4-9.5
		c2.2-1.2,4.6-1.8,6.9-2c1.2-0.2,2.5-0.2,3.6-0.2c0.7,0,1.2,0,1.8,0.2c0.2,0,0.7,0,0.8,0.2l0.8,0.2l13.3,2.3l106,19.4l53,9.5
		l26.5,4.9l13.3,2.3l3.3,0.7c1.2,0.2,2.2,0.5,3.3,0.7l1.7,0.5c0.5,0.2,1.2,0.3,1.7,0.5c1.2,0.3,2.2,0.7,3.3,1.2
		c4.3,1.7,8.4,4,12,6.7l2.7,2.2c0.8,0.7,1.7,1.5,2.5,2.3c0.5,0.5,0.8,0.7,1.3,1.2l1.2,1.3c0.7,0.8,1.5,1.7,2.2,2.7
		c5.7,7.4,9.2,16.3,10.5,25.3l0.5,3.5c0,1.2,0.2,2.2,0.2,3.5v1.7v1.7v3.3v13.5v26.8l-0.3,107.5l-0.2,54l-0.2,26.8c0,2.2,0,4.6,0,6.7
		c0,2.1,0.3,4.6,1.2,6.7c0.2,0.5,0.5,1.2,0.7,1.5c0.2,0.5,0.5,1,0.8,1.3c0.7,0.8,1.3,1.7,2.2,2.3c1.8,1.3,4,2,6.2,2.7
		c-2.2-0.5-4.3-1.2-6.2-2.5c-0.8-0.7-1.7-1.3-2.3-2.2c-0.3-0.5-0.7-0.8-0.8-1.3c-0.2-0.5-0.5-1-0.7-1.5c-0.8-2-1.2-4.3-1.3-6.7
		c0-2.2,0-4.6-0.2-6.7l-0.5-26.8l-0.5-54l-0.8-107.6l-0.2-26.8v-13.5V442v-1.7v-1.5c0-1.2,0-2.2-0.2-3.1l-0.5-3.1
		c-1.3-8.7-4.7-16.9-10-23.8c-0.7-0.8-1.3-1.7-2-2.5L693,405c-0.3-0.5-0.7-0.7-1.2-1.2c-0.7-0.7-1.5-1.5-2.3-2.2l-2.5-2
		c-3.5-2.5-7.2-4.7-11.4-6.2c-1-0.5-2-0.7-3.1-1.2c-0.5-0.2-1.2-0.3-1.5-0.5l-2-1.3c-1.2-0.2-2-0.5-3.1-0.7l-3.3-0.7l-13.3-2.3
		l-26.5-4.7l-53.3-9.9l-105.8-19.4l-13.3-2.5l-0.8-0.2c-0.2,0-0.5,0-0.7-0.2c-0.5,0-1-0.2-1.5-0.2c-1,0-2,0-3,0.2
		c-2,0.2-4,0.8-5.9,1.7c-3.8,1.8-6.9,4.7-9.1,8.4c-1.2,1.7-1.8,3.8-2.2,5.7l-0.2,1.5c0,0.5-0.2,1-0.2,1.3c0,0.5,0,1.2,0,1.5v1.7
		l1.7,54.1l2.8,107.6l1.3,53.8l0.2,13.5c0,2.2,0,4.6,0.3,6.7c0.3,2.2,0.8,4.3,1.7,6.6l0.2,0.7l0.3,0.7c0.2,0.5,0.5,1,0.7,1.3
		c0.5,1,1.2,2,1.7,2.8c0.7,0.8,1.3,1.7,2,2.7c0.3,0.5,0.7,0.7,1.2,1.2l0.5,0.5l0.7,0.5c1.5,1.3,3.5,2.7,5.6,3.8l1.5,0.7
		c0.5,0.2,1.2,0.5,1.5,0.7l0.7,0.2c0.2,0,0.5,0.2,0.7,0.2L453.9,630.8z"/>
	<path class="st38" d="M842.6,643L742,696.7l-1.3,0.5c-1.3,0.3-2.7,0.5-3.8,0.7c-8.9,0.5-16.8-6.2-16.8-16.3l-0.8-243.5
		c0-31.2-20.4-56.6-50-62l-216.5-39.4c-13-2.3-26,4.1-33.4,15.1c-2.5,3.6-4.1,7.7-5.4,12l0,0c1.3-6.7,4-13,8.2-18.8l8.1-10.9
		c9.1-12.2,20.8-22.3,34.1-29l0,0l241.1,43.4c29.8,5.4,51,30.8,51.7,62.5l5.2,229.4c0.2,11.2,8.2,16.1,21.1,14.3
		C798.3,652.7,842.6,643,842.6,643z"/>
	<polygon class="st41" points="810.5,287.7 736.3,328.4 710.4,342.5 487.1,302.4 515.4,288.7 590.5,251.9 	"/>
	<polygon class="st42" points="810.5,287.7 736.3,328.4 515.4,288.7 590.5,251.9 	"/>
	<g>
		<path class="st35" d="M697.6,301.4l-15.3,8.9l-11-2c-5.2-0.8,1.5-6.9,9.7-8.7c1.7-0.3,3.3-0.5,4.6-0.2L697.6,301.4z"/>
		<polygon class="st35" points="721.1,305.3 705.6,314.4 689.7,311.6 704.9,302.6 		"/>
		<path class="st35" d="M732.8,317.4l-1.3,0.3c-2,0.5-3.8,0.7-4.9,0.5l-13.8-2.3l15.6-9.1l13.8,2.2
			C747.1,309.6,741,315.4,732.8,317.4z"/>
	</g>
	<g>
		<g>
			<g>
				<polygon class="st37" points="1001.4,390.1 759.6,562.1 719.8,575.2 682.6,566.4 682.9,588.7 447.1,538.5 446.5,517.8 
					417.5,511.1 417.3,506.9 450.4,514.5 450.7,535.1 679,583.8 678.7,561.6 719.8,571.3 720,571.3 758,558.3 999.4,387 				"/>
			</g>
		</g>
		<g>
			
				<ellipse transform="matrix(0.2261 -0.9741 0.9741 0.2261 408.1502 1266.9189)" class="st43" cx="1001.4" cy="376.6" rx="26" ry="16.8"/>
			
				<ellipse transform="matrix(0.2062 -0.9785 0.9785 0.2062 428.3122 1280.802)" class="st44" cx="1003.6" cy="376.4" rx="22.5" ry="12.2"/>
			<path class="st45" d="M988,374.8c0-2.7,0.5-5.2,1.2-7.7c0.7-2.7,1.8-5.2,3.3-7.4c1.3-2.2,3.3-4.6,5.7-6.1
				c2.2-1.5,5.2-2.2,7.6-1.5c-2.5,0.3-4.7,1.3-6.7,3.1c-1.8,1.5-3.3,3.5-4.7,5.7c-1.3,2-2.5,4.3-3.5,6.7
				C989.8,370,988.8,372.4,988,374.8z"/>
		</g>
	</g>
	<path class="st46" d="M595.9,747.2c-14.1-4-104-28.3-133.1-34.6c-14.1-2.8-24.5-17.6-35.9-25.8c-8.2-5.9-8.4-15-6.7-25.7
		c2-11.9,6.7-20.1,14.6-29.3c9.2-10.5,14.5-23.8,20.4-36.4c6.2-12.4,13.8-25.3,25.7-32.6c15.8-9.4,34.7-6.7,51.7-3.5
		c0,1.2,36.7,6.9,40.5,7.6c13.8,2.5,27.5,5.2,41.1,7.7c6.9,1.3,13.8,2.5,20.4,3.8c2.7,0.5,7.6,0.5,9.5,1.8c2.7,1.8,0.8,3.5-0.5,6.4
		c-6.6,12.4-12,25.2-16.9,38.4C621.4,640,597.1,701.6,595.9,747.2z"/>
	
		<linearGradient id="SVGID_1_" gradientUnits="userSpaceOnUse" x1="1102.7825" y1="9744.8203" x2="1278.439" y2="9419.8867" gradientTransform="matrix(0.9969 -4.451221e-02 -8.713596e-02 0.9956 160.7417 -8822.4033)">
		<stop  offset="0" style="stop-color:#000000"/>
		<stop  offset="2.071754e-02" style="stop-color:#141414"/>
		<stop  offset="7.571389e-02" style="stop-color:#454545"/>
		<stop  offset="0.1352" style="stop-color:#717171"/>
		<stop  offset="0.1977" style="stop-color:#989898"/>
		<stop  offset="0.2642" style="stop-color:#B8B8B8"/>
		<stop  offset="0.3356" style="stop-color:#D2D2D2"/>
		<stop  offset="0.414" style="stop-color:#E6E6E6"/>
		<stop  offset="0.5029" style="stop-color:#F4F4F4"/>
		<stop  offset="0.6113" style="stop-color:#FDFDFD"/>
		<stop  offset="0.7946" style="stop-color:#FFFFFF"/>
	</linearGradient>
	<path class="st47" d="M476.2,543.4c-32.7,34.4-69.3,131.1-76,165c35.7,10.2,171,47.1,171,47.1c12.4-58.7,43.6-141.4,76.3-175.1
		C616.7,573.8,476.2,543.4,476.2,543.4z"/>
	<path class="st36" d="M466.1,598.6c-14.6,24.7-30.3,60.5-40.6,89.5c2.8,0.8,6.1,1.5,9.2,2.5c10.7-29.5,26-65,40.8-90.2
		C472.3,599.9,469.2,599.3,466.1,598.6z M569.7,621.1c-6.9,11.9-14.1,25.7-20.8,40.1l0,0c-8.4,17.9-16.4,37-23.2,54.8
		c4.6,1.3,9.1,2.5,13.5,3.6c10.2-27.5,23.7-58.1,37-83.1c2.3-4.6,4.7-8.7,7.1-12.7C578.8,623.1,574.5,622.1,569.7,621.1z
		 M548.5,616.4c-13.6,23-27.5,53.7-38.9,82.3l17.4,4.7c5.7-14.3,11.9-29,18.4-43.3l0,0c6.7-14.6,13.8-28.2,20.8-40.1
		C560.3,618.9,554.3,617.5,548.5,616.4z M479,601.2c-12.9,21.8-26.3,51.7-36.7,78.7l13.8,3.8c10.5-27.2,23.7-56.5,36.5-79.6
		C487.8,603.3,483.2,602.2,479,601.2z M512.8,608.6c-13,22.3-27,53-37.5,80.5L489,693c10.7-27.7,24.7-58.9,37.9-81.3
		C522.1,610.6,517.4,609.5,512.8,608.6z M531.4,612.6c-13.5,22.2-27.5,53.3-38.4,81.3l13.8,3.8c10.9-28.2,24.8-58.9,38-82.3
		C540.4,614.5,535.8,613.7,531.4,612.6z M496.2,605c-13,22.2-26.7,52.3-37.2,79.6l13.8,3.8c10.5-27.5,24.3-58.2,37.4-80.5
		C505.4,607,500.6,606,496.2,605z"/>
	<g>
		<g>
			<path class="st48" d="M819.4,441.5c-1.3-0.2-3,0.2-4.7,1.3l-36.5,26c-3.3,2.3-5.9,7.2-5.9,11.5l-0.2,44.6c0,5.4,3.3,7.9,7.4,6.1
				c0.5-0.2,0.8-0.5,1.3-0.7l36.5-26c3.3-2.3,5.9-7.2,5.9-11.5l0.2-44.6C823.6,444.2,822,441.8,819.4,441.5z"/>
			<path class="st49" d="M819.7,442.4c-0.5,0.2-0.8,0.5-1.3,0.7l-34.6,24.7c-3.1,2.2-5.4,6.9-5.6,11l-0.2,42.8
				c0,3.5,1.5,6.1,3.8,6.4c-3.8,1.7-6.9-0.7-6.9-5.9l0.2-42.8c0-4.1,2.2-8.7,5.6-11l34.6-24.7C816.9,442.6,818.6,442.3,819.7,442.4z
				"/>
			<path class="st50" d="M823.6,448.7l-0.2,42.8c0,4.1-2.2,8.7-5.6,11l-34.5,24.7c-0.5,0.2-0.8,0.5-1.3,0.7c-2.2-0.5-4-2.7-3.8-6.4
				l0.2-42.8c0-4.1,2.2-8.7,5.6-11l34.6-24.7c0.5-0.2,0.8-0.5,1.3-0.7C822,442.8,823.6,445.2,823.6,448.7z"/>
			<polygon class="st51" points="781.3,472.9 794.1,472.4 794,513.9 781,526 			"/>
			<polygon class="st52" points="794.1,472.4 818.6,446.5 781.3,472.9 			"/>
		</g>
	</g>
	
		<ellipse transform="matrix(0.9598 -0.2806 0.2806 0.9598 -50.2145 176.7107)" class="st35" cx="592" cy="263.7" rx="9.5" ry="5.1"/>
	<g>
		<path class="st35" d="M647.1,422.5c1.2-0.5,2-0.7,3.1-1.2c0,0,0.3,0.2,0.5,0.2c2,2.7,4,5.4,6.1,7.9c1.2,1.3,2.2,2.8,3.1,4.1
			c0,0,0.2,0.2,0.2,0.3c0.3-4,0.7-7.9,1-11.7c2,0,4.6,2.7,5.2,5.2c0.7,3-0.7,6.7-4.9,6.9c1.2,0.2,2.3,0.5,3.5,0.8
			c0.2,0,0.5,0.2,0.7,0.5c1,1.3,2,2.7,3.1,4c-1.8-0.5-3.5-0.8-5.4-1.3c0.2,0.2,0.2,0.3,0.2,0.5c0.8,1.3,1.8,2.5,2.7,3.8
			c0.2,0.2,0.2,0.5,0.2,0.7c-0.3,4.3-0.7,8.7-1.2,13c0,0,0,0.2,0,0.3c-1.2-0.2-2.3-0.5-3.5-0.8c0.5-5.9,1-11.5,1.3-17.4
			c-1.2-0.2-2.3-0.5-3.6-0.8c0,0.2,0,0.3,0,0.5c-0.5,5.4-0.8,10.5-1.3,15.8c0,0.3,0,0.5,0.2,0.8c1,1.3,1.8,2.5,2.8,3.8
			c0,0.2,0.2,0.3,0.2,0.5c-0.2,1.5-0.2,3.1-0.5,4.9c-0.2-0.2-0.2-0.2-0.3-0.5c-2-2.7-4-5.4-6.2-8.2c-0.2-0.2-0.2-0.5-0.2-0.8
			c0.5-6.6,1.2-12.9,1.7-19.4c0-0.3,0-0.7-0.2-0.8c-2.8-3.8-5.7-7.6-8.7-11.4C647.4,422.9,647.4,422.7,647.1,422.5z"/>
		<path class="st35" d="M640.7,430.9c2.5,3.3,5.2,6.7,7.6,9.9v-0.2c0.2-1.3,0.2-3,0.3-4.6c0-0.2-0.2-0.5-0.2-0.7
			c-2-2.7-4-5.4-6.1-8.1c-0.2-0.2-0.2-0.5,0-0.7c0.7-0.7,1.3-1.5,2-2.3c0.2,0.2,0.2,0.3,0.5,0.5c2.5,3.3,5.2,6.7,7.7,10
			c0.2,0.2,0.2,0.3,0.2,0.5c-0.5,4.9-0.8,9.9-1.3,14.8c0,0,0,0,0,0.2c-0.2-0.2-0.2-0.2-0.2-0.3c-3.6-4.9-7.4-9.5-10.9-14.6
			c-0.2-0.2-0.2-0.3-0.2-0.5C639.8,433.7,640.2,432.2,640.7,430.9z"/>
		<path class="st35" d="M639.5,440.5c0,0.2,0,0.3,0.2,0.5c6.9,9.2,14,18.3,20.8,27.7c0.2,0.3,0.5,0.7,0.3,1.2
			c-0.2,1.3-0.2,2.8-0.3,4.6c-0.2-0.2-0.2-0.2-0.3-0.3c-7.1-9.2-14.1-18.6-20.9-27.8c-0.2-0.2-0.2-0.5-0.2-0.5
			c0.2-1.5,0.2-3,0.3-4.6c0,0,0,0,0-0.2C639.5,440.5,639.5,440.5,639.5,440.5z"/>
		<path class="st35" d="M673.2,458.6c1.2,0.2,2.3,0.5,3.6,0.8c0.2-1.5,0.2-3,0.3-4.6c0.8,0.2,1.5,0.5,2.3,0.5c1,0.2,1.5,0.7,2.2,1.3
			c1.2,1.5,2.2,2.8,3.3,4.6c0,0.2,0.2,0.3,0.2,0.5c-0.5,3.1-3.5,4.9-6.7,4C675,464.8,673.1,461.8,673.2,458.6L673.2,458.6z"/>
		<path class="st35" d="M673.2,458.6c-1.2-0.2-2.3-0.5-3.6-0.8c0.2-3.3,0.5-6.7,0.8-10l0.2,0.2c1,1.3,1.8,2.5,2.8,3.8
			c0,0.2,0.2,0.3,0.2,0.5C673.6,454.4,673.4,456.4,673.2,458.6L673.2,458.6z"/>
		<path class="st35" d="M667,442.9c1.5,0.5,3.3,0.7,4.9,1.2c0,0,0.2,0,0.2,0.2c1.2,1.3,2,2.8,3.1,4.1c-0.2,0-0.2,0-0.2,0
			c-1.5-0.3-3.1-0.7-4.7-1.2c-0.2,0-0.2,0-0.3-0.2c-1.2-1.3-2-2.8-3.1-4C667,443.1,667,443.1,667,442.9z"/>
	</g>
</g>
<g>
	<g>
		<g>
			<polygon class="st53" points="752.3,9.8 732.9,78.8 707.9,78.8 727.4,9.8 			"/>
			<polygon points="993.8,9.8 974.3,78.8 732.9,78.8 752.3,9.8 			"/>
		</g>
	</g>
	<g>
		<path class="st35" d="M765.2,58.5h-3.7l4.9-28.6h3.7L765.2,58.5z"/>
		<path class="st35" d="M781.7,29.9l5,23.3l13.2-23.3h4.9l-4.9,28.6h-3.7l2-11.3l2.4-11.6l-13,22.9h-3.2l-5.2-23.3l-1.8,12.4
			l-1.9,10.9h-3.8l4.9-28.6C776.8,29.9,781.7,29.9,781.7,29.9z"/>
		<path class="st35" d="M811.9,47.3l-2,11.2h-3.8l4.9-28.6h9.5c2.9,0,5.2,0.8,6.8,2.4c1.7,1.5,2.3,3.7,2.1,6.3
			c-0.3,2.8-1.2,4.9-3.2,6.4s-4.6,2.4-7.7,2.4h-6.6V47.3z M812.4,44.2h6.4c2,0,3.7-0.5,4.9-1.5s2-2.4,2.3-4.3c0.3-1.7-0.1-2.9-1-3.9
			s-2.1-1.5-3.9-1.5h-6.8L812.4,44.2z"/>
		<path class="st35" d="M843.5,47h-6.6l-2,11.6h-3.8L836,30h8.6c3,0,5.3,0.8,6.8,2.3c1.5,1.5,2.3,3.5,2,6.1c-0.1,1.8-0.8,3.4-2,4.8
			c-1.1,1.4-2.8,2.4-4.6,3l4.4,12.1v0.3h-3.9L843.5,47z M837.4,43.9h5.4c1.9,0,3.4-0.5,4.8-1.5c1.2-1,2.1-2.4,2.3-4
			c0.3-1.7-0.1-2.9-1-3.9c-0.9-0.9-2.1-1.4-3.9-1.5h-5.9L837.4,43.9z"/>
		<path class="st35" d="M873.4,45.3h-12.1l-1.8,10.2h13.9l-0.5,3h-17.6l4.9-28.6h17.5l-0.5,3h-13.8l-1.5,9.3H874L873.4,45.3z"/>
		<path class="st35" d="M893.7,51.3c0.3-2.1-0.8-3.7-3.2-4.6l-3.4-1.2L886,45c-3.9-1.8-5.7-4.1-5.3-7.3c0.1-1.5,0.6-3,1.7-4.3
			c1-1.2,2.3-2.1,3.8-2.8c1.5-0.6,3.2-1,5-0.9s3.2,0.5,4.6,1.1c1.4,0.8,2.4,1.8,3.2,3s1,2.8,0.9,4.4H896c0.1-1.8-0.3-3.2-1.1-4.1
			c-0.9-1-2.3-1.4-3.9-1.5c-1.8,0-3.2,0.4-4.6,1.2c-1.3,0.9-1.9,2-2.1,3.5c-0.3,2,0.9,3.4,3.5,4.4l2.9,1l1.5,0.6
			c3.8,1.7,5.4,4.3,5.2,7.7c-0.1,1.7-0.8,3-1.7,4.1s-2.3,2.1-3.9,2.8c-1.7,0.6-3.4,0.9-5.2,0.9s-3.4-0.4-4.9-1.1
			c-1.5-0.8-2.6-1.8-3.4-3.2c-0.8-1.2-1.1-2.8-1-4.6h3.8c-0.1,1.7,0.4,3,1.4,4s2.5,1.5,4.4,1.5c1.8,0,3.4-0.4,4.6-1.2
			C892.9,53.7,893.6,52.7,893.7,51.3z"/>
		<path class="st35" d="M905,58.5h-3.7l4.9-28.6h3.7L905,58.5z"/>
		<path class="st35" d="M922.4,58.9c-1.8-0.1-3.4-0.5-4.8-1.2c-1.4-0.9-2.4-2.1-3.2-3.8s-1.1-3.4-1.2-5.4c-0.1-1.5,0.1-3.5,0.5-5.9
			c0.5-2.4,1.1-4.4,2.3-6.3c1-1.9,2.4-3.4,3.9-4.6c2.1-1.5,4.4-2.3,7-2.3c2.8,0.1,5,1,6.6,2.9c1.7,1.9,2.5,4.4,2.6,7.7
			c0.1,1.4-0.1,3.2-0.4,5.3c-0.4,2.1-0.9,4.1-1.8,5.9c-0.9,1.8-2,3.2-3.2,4.6C928.3,57.9,925.5,59.1,922.4,58.9z M932.4,40.9
			c0.1-2.6-0.4-4.6-1.4-6c-1-1.5-2.5-2.1-4.4-2.3c-1.8-0.1-3.2,0.4-4.6,1.4c-1.4,1-2.5,2.5-3.4,4.6c-0.9,2-1.4,4.6-1.7,7.5l-0.1,1.2
			c-0.1,2.5,0.4,4.6,1.4,6s2.5,2.3,4.4,2.3c2.5,0.1,4.6-0.9,6.1-2.6c1.7-1.8,2.8-4.4,3.2-7.8C932.2,43.6,932.4,42.2,932.4,40.9z
			 M930,22.2h4.6l-6,5.8h-3L930,22.2z"/>
		<path class="st35" d="M960.3,58.5h-3.5l-10.2-22.2l-3.9,22.2h-3.8l4.9-28.6h3.5l10.2,22.4l3.9-22.4h3.7L960.3,58.5z"/>
	</g>
</g>
<g>
	<g>
		<g>
			<g>
				<polygon class="st53" points="663.5,89.8 644.2,158.9 619.2,158.9 638.6,89.8 				"/>
				<polygon points="971.9,89.8 952.5,158.9 644.2,158.9 663.5,89.8 				"/>
			</g>
		</g>
	</g>
	<g>
		<path class="st35" d="M672,138.8h-3.4l4.6-27.2h3.5L672,138.8z"/>
		<path class="st35" d="M678.6,138.8l4.6-27.2h7c2.3,0,4.1,0.5,5.8,1.7c1.7,1.1,2.8,2.6,3.4,4.6c0.8,2,0.9,4.1,0.6,6.6l-0.3,1.4
			c-0.5,4-2.1,7-4.6,9.5s-5.7,3.5-9.5,3.5L678.6,138.8L678.6,138.8L678.6,138.8z M686.2,114.6l-3.8,21.3h3.4c2.6,0,4.9-0.9,6.7-2.5
			c1.8-1.7,3-3.9,3.5-6.8c0.5-2.3,0.6-4.3,0.5-5.9c-0.3-2-0.9-3.4-1.9-4.6c-1.1-1.1-2.5-1.7-4.4-1.7L686.2,114.6L686.2,114.6z"/>
		<path class="st35" d="M720.2,126.3h-11.5L707,136h13.3l-0.5,2.9h-16.7l4.6-27.2h16.5l-0.5,2.9h-13.1l-1.5,8.7h11.5L720.2,126.3z"
			/>
		<path class="st35" d="M744.5,138.8h-3.4l-9.7-21l-3.7,21h-3.5l4.6-27.2h3.4l9.7,21.1l3.7-21.1h3.5L744.5,138.8z"/>
		<path class="st35" d="M772.7,114.6h-8.4l-4.1,24.3h-3.5l4.1-24.3h-8.4l0.5-2.9h20.4L772.7,114.6z"/>
		<path class="st35" d="M776.3,138.8h-3.5l4.6-27.2h3.5L776.3,138.8z"/>
		<path class="st35" d="M799.4,126.9h-11l-2.1,11.9h-3.5l4.6-27.2h16.4l-0.5,2.9h-12.8l-1.7,9.3h11L799.4,126.9z"/>
		<path class="st35" d="M807.2,138.8h-3.5l4.6-27.2h3.5L807.2,138.8z"/>
		<path class="st35" d="M834.4,130.2c-0.5,2.8-1.8,5-3.9,6.7c-2.1,1.7-4.4,2.4-7.2,2.4c-1.7-0.1-3.2-0.5-4.4-1.2
			c-1.2-0.8-2.3-2-2.9-3.4c-0.8-1.5-1.1-3.2-1.1-4.9c-0.1-1,0-2,0.1-3l0.4-2.3c0.6-4.1,2-7.3,4.3-9.7c2.3-2.4,5-3.5,8.3-3.4
			c2.5,0.1,4.6,0.9,6,2.5c1.5,1.7,2.3,3.9,2.4,6.7h-3.5c-0.1-3.8-1.7-5.9-4.6-6.1l-0.6-0.1c-2.4-0.1-4.3,0.8-5.9,2.6
			c-1.5,1.8-2.6,4.3-3,7.4l-0.4,2.8l-0.1,1.7c-0.1,2.3,0.4,4.1,1.2,5.4c0.9,1.4,2.3,2,4,2.1c1.9,0.1,3.4-0.4,4.6-1.4
			c1.2-1,2.1-2.5,2.8-4.6L834.4,130.2z"/>
		<path class="st35" d="M853.8,131.8h-10.9l-3.8,7h-3.8l14.7-27.2h3l5.3,27.2H855L853.8,131.8z M844.3,128.7h8.9l-2.3-12.6
			L844.3,128.7z"/>
		<path class="st35" d="M882.7,130.2c-0.5,2.8-1.8,5-3.9,6.7c-2,1.7-4.4,2.4-7.2,2.4c-1.7-0.1-3.2-0.5-4.4-1.2s-2.3-2-2.9-3.4
			c-0.8-1.5-1.1-3.2-1.1-4.9c-0.1-1,0-2,0.1-3l0.4-2.3c0.6-4.1,2-7.3,4.3-9.7c2.3-2.4,5-3.5,8.3-3.4c2.5,0.1,4.6,0.9,6,2.5
			c1.5,1.7,2.3,3.9,2.4,6.7h-3.5c-0.1-3.8-1.7-5.9-4.6-6.1l-0.6-0.1c-2.4-0.1-4.3,0.8-5.9,2.6c-1.5,1.8-2.6,4.3-3,7.4l-0.4,2.8
			l-0.1,1.7c-0.1,2.3,0.4,4.1,1.2,5.4c0.9,1.4,2.3,2,4,2.1c1.9,0.1,3.4-0.4,4.6-1.4c1.2-1,2.1-2.5,2.8-4.6L882.7,130.2z"/>
		<path class="st35" d="M890.1,138.8h-3.5l4.6-27.2h3.5L890.1,138.8z"/>
		<path class="st35" d="M906.6,139.1c-1.8-0.1-3.2-0.5-4.6-1.2c-1.2-0.8-2.3-2-3-3.5c-0.8-1.5-1.1-3.2-1.2-5.2
			c-0.1-1.5,0.1-3.4,0.5-5.7c0.4-2.3,1.1-4.3,2.1-6c1-1.8,2.3-3.2,3.7-4.3c2-1.4,4.1-2.1,6.7-2.1c2.6,0.1,4.8,1,6.3,2.8
			s2.4,4.1,2.5,7.2c0.1,1.2-0.1,3-0.4,4.9c-0.4,2-0.9,3.9-1.7,5.7s-1.8,3.2-3.2,4.4C912.1,138.2,909.6,139.3,906.6,139.1z
			 M916,122.1c0.1-2.5-0.4-4.4-1.2-5.7c-0.9-1.4-2.4-2-4.1-2.1c-1.7-0.1-3.2,0.4-4.6,1.4c-1.2,1-2.4,2.4-3.2,4.3s-1.4,4.3-1.5,7.2
			l-0.1,1.2c-0.1,2.4,0.4,4.4,1.2,5.8c1,1.4,2.4,2.1,4.1,2.1c2.4,0.1,4.3-0.8,5.9-2.5c1.5-1.8,2.6-4.3,3-7.4
			C915.9,124.7,916,123.3,916,122.1z M913.7,104.4h4.3l-5.8,5.4h-3L913.7,104.4z"/>
		<path class="st35" d="M942.5,138.8h-3.4l-9.7-21l-3.7,21h-3.5l4.6-27.2h3.4l9.7,21.3l3.7-21.1h3.5L942.5,138.8z"/>
	</g>
</g>
<g>
	<g>
		<circle class="st54" cx="553.8" cy="126.4" r="11.3"/>
	</g>
	<g>
		<circle class="st54" cx="217.1" cy="320.5" r="8"/>
	</g>
	<g>
		<polygon class="st54" points="218.3,320.5 216,320.5 216,125.3 553.8,125.3 553.8,127.6 218.3,127.6 		"/>
	</g>
</g>
<g>
	<g>
		
			<ellipse transform="matrix(0.2076 -0.9782 0.9782 0.2076 759.1509 1053.7595)" class="st54" cx="1030" cy="58.3" rx="11.3" ry="11.3"/>
	</g>
	<g>
		<circle class="st54" cx="1030" cy="488.9" r="8"/>
	</g>
	<g>
		<rect x="1028.8" y="58.3" class="st54" width="2.2" height="430.7"/>
	</g>
</g>
</svg>
