<svg version="1.1" id="Layer_1" xmlns="http://www.w3.org/2000/svg" x="0" y="0" viewBox="0 0 540 360" style="enable-background:new 0 0 540 360" xml:space="preserve"><style>.st3,.st4,.st5,.st6{opacity:.1;enable-background:new}.st4,.st5,.st6{opacity:.2}.st5,.st6{opacity:.3}.st6{opacity:.4}.st7{fill:#e6e6e6}.st12{fill:#373939}.st13{fill:#595c62}.st17{fill:#1f1f1e}.st19{fill:#b3b7b8}.st29{fill:#fff}.st31{opacity:.15;enable-background:new}.st40{fill:#c7c7c7}.st44{fill:#141414}.st51,.st52,.st53,.st56,.st58,.st59{fill:#4c74a1;stroke:#4c74a1;stroke-width:.8461;stroke-miterlimit:10}.st52,.st53,.st56,.st58,.st59{fill:#486791;stroke:#486791}.st53,.st56,.st58,.st59{fill:#42557a;stroke:#42557a}.st56,.st58,.st59{fill:#4a6e99;stroke:#4a6e99}.st58,.st59{fill:#4e7aa9;stroke:#4e7aa9}.st59{fill:#4e7caa;stroke:#4e7caa}.st62{fill:#16151a}.st70{fill:#252525}.st72{fill:#666}.st75{fill:#585858}.st76{fill:#343434}.st77{fill:#1a1a1a}.st81{fill:#b3b3b3}</style><ellipse class="st3" cx="295" cy="259.7" rx="188.5" ry="66.9"/><ellipse class="st4" cx="295" cy="255.1" rx="182.8" ry="62.6"/><ellipse class="st5" cx="295" cy="250.8" rx="171" ry="54.5"/><ellipse class="st6" cx="295" cy="247" rx="157.3" ry="46.4"/><ellipse transform="matrix(.9962 -.08668 .08668 .9962 -25.836 7.704)" class="st3" cx="75.8" cy="301.3" rx="64.8" ry="26.7"/><ellipse transform="rotate(-4.904 75.78 299.46) scale(.99996)" class="st4" cx="75.8" cy="299.5" rx="62.9" ry="25"/><ellipse transform="matrix(.9965 -.08339 .08339 .9965 -24.565 7.357)" class="st5" cx="75.8" cy="297.8" rx="58.8" ry="21.8"/><ellipse transform="matrix(.9967 -.08148 .08148 .9967 -23.887 7.161)" class="st4" cx="75.8" cy="296.3" rx="54.1" ry="18.5"/><ellipse transform="matrix(.9967 -.08148 .08148 .9967 -23.887 7.161)" class="st4" cx="75.8" cy="296.3" rx="45.5" ry="15.5"/><ellipse transform="rotate(-83.846 218.888 340.645)" class="st7" cx="218.9" cy="340.6" rx="18" ry="69.2"/><ellipse transform="rotate(-83.881 219.005 339.407)" cx="219" cy="339.4" rx="16.8" ry="67.1" style="fill:#bababa"/><ellipse transform="rotate(-83.933 218.904 338.238)" cx="218.9" cy="338.2" rx="14.7" ry="62.9" style="fill:#a1a1a1"/><ellipse transform="rotate(-83.984 219.001 337.111)" cx="219" cy="337.1" rx="12.4" ry="57.8" style="fill:#7a7a7a"/><g style="opacity:.5"><ellipse transform="rotate(-20.053 440.535 288.19)" class="st3" cx="440.5" cy="288.2" rx="91.1" ry="18.9"/><ellipse transform="rotate(-19.999 440.457 286.827)" class="st4" cx="440.5" cy="286.8" rx="88.4" ry="17.6"/><ellipse transform="rotate(-19.898 440.436 285.55)" class="st5" cx="440.4" cy="285.5" rx="82.7" ry="15.3"/><ellipse transform="rotate(-19.803 440.454 284.43)" class="st6" cx="440.5" cy="284.4" rx="76" ry="13"/></g><ellipse transform="rotate(-1.621 401.338 311.18)" class="st3" cx="401.3" cy="311.2" rx="53" ry="19.8"/><ellipse transform="rotate(-1.58 401.288 309.846) scale(.99998)" class="st4" cx="401.3" cy="309.8" rx="51.4" ry="18.5"/><ellipse transform="rotate(-1.494 401.502 308.56) scale(1.00004)" class="st5" cx="401.5" cy="308.6" rx="48.1" ry="16.1"/><ellipse transform="matrix(.9997 -.0248 .0248 .9997 -7.5 10.05)" class="st6" cx="401.5" cy="307.4" rx="44.3" ry="13.7"/><path d="m178 246.5-16.5 12.2c-1.3.9-.9 3 .7 3.3l163.3 26 25.2-19.4L178 246.5z"/><path class="st12" d="M456.1 94.1c0-24.3-4-57.4-8.1-59.8l-.2 8.1.2-8.2-147.1-8.9-129.8 31.3-2.8 4-7.6 124 1.6.2-1.7-.2.9 6.1 10.1 64.4 56.9 9.6 1.8.3 77 13 32.7 5.6 34.4-24.8v.1l2.5-1.8v-.1c.1-1.3.2-2.5.4-3.8l23.1-16.8 16.7-12.1c.1 1.2.1 2.3.2 3.5l.1-.1v.1l1.6-1.2 24.8-17.8.1-.1v-.5l12.2-76.6V100c0-2-.1-3.9 0-5.9z"/><g><path class="st13" d="m235.2 261.4-60-10.1-10.6-68-1-6.4 5.1.8 19.2 2.6 35.3 5 .7 4.4z"/><path class="st13" d="m231.6 47.4-.3 4.9-8.1 133-59.6-8.4 8-130.7 3.1-4.2z"/><path style="fill:#37373c" d="m226 53.9-7.7 130.7-49.6-6.9 7.5-129.1z"/><path style="fill:gray" d="m214.2 70-3.5 58.5-29.6-4.2 3.5-57.4z"/><path style="fill:#767a82" d="m348.4 193.7-3.9 33.2L227 209.5l13.9-30.6z"/><path class="st12" d="m348.4 137.9-106.7-11.8-14-18.6 114.5 13.2z"/><path class="st13" d="m227.7 107.5 3.6-60.2L347 58.1l-4.8 62.6z"/><path class="st17" d="m227.7 107.5 14 18.6-.8 52.8-13.9 30.6-3.8-24.2z"/><path class="st13" d="m352.7 281.3-34.4-5.9-81.2-13.6-1.9-.4-8.2-51.9 1.6.2 93.3 13.9 22.6 3.3z"/><path style="fill:#d8dde2" d="M174.7 42 311.3 9l155.1 9.3L356.6 59z"/><path class="st19" d="M466.4 18.3 462 202.5l-26.1 18.8-1.6 1.2v-3.8l-42.8 30.8v3.9l-2.6 1.8-36.2 26.1L356.6 59z"/><path class="st17" d="M451.7 45.1v.2l-.7 25.2-.6 18.6c-.1 2.7-1.1 5.4-2.7 7.8-1.4 2-3.3 3.9-5.8 5l-25.2 12.7-7.9 4-1.1.6-33.3 17c-1 .6-2 .7-3.2.7h-.5c-.2 0-.2-.1-.3-.1-.1 0-.3-.1-.6-.1-.1 0-.2-.1-.3-.1-.2-.1-.6-.1-.8-.3-.1 0-.1-.1-.1-.1-.2-.1-.6-.3-.8-.6-.1-.1-.1-.1-.2-.1-.1-.1-.1-.1-.3-.2l-.1-.1-.3-.3c-.1-.1-.1-.2-.2-.3-.1-.1-.1-.2-.2-.4-.1-.1-.1-.2-.1-.3-.4-.9-.7-1.9-.6-2.9V80.2c.2-5.5 3.9-10.4 9.1-12.4l28.4-10.9 41.9-15.5c1.4-.6 3.1-.2 4.2.6.1.1.1.1.2.1s.1.1.1.1l.1.1.1.1.1.1.1.1c.1.1.2.2.3.4.1.1.1.1.1.2.1.1.1.1.1.2s.1.1.1.2.1.1.1.2.1.1.1.1v.1c.1.1.1.3.1.6V44.9c.7-.1.7 0 .7.2z"/><linearGradient id="SVGID_2_" gradientUnits="userSpaceOnUse" x1="402.791" y1="7159.241" x2="458.535" y2="7207.776" gradientTransform="translate(0 -7090)"><stop offset="0" style="stop-color:#988f7f"/><stop offset="1" style="stop-color:#000;stop-opacity:0"/></linearGradient><path d="M449.4 67.1c-4-7.3-9.2-11.4-15-11.4-13.8 0-25.5 24.4-26.4 54.5-.1 2-.1 4 0 6 0 1 .1 1.9.1 2.9l9.1-4.5v-4.5c.6-19.2 8-34.8 16.8-34.8 6 0 10.9 7.1 13.3 17.6.2 1.2.6 2.4.8 3.9 1.4-2.2 2.4-4.9 2.7-7.8l.6-18.6c-.9-1.2-1.5-2.3-2-3.3z" style="fill:url(#SVGID_2_)"/><linearGradient id="SVGID_3_" gradientUnits="userSpaceOnUse" x1="365.703" y1="7186.677" x2="432.414" y2="7186.677" gradientTransform="translate(0 -7090)"><stop offset="0" style="stop-color:#000"/><stop offset="1" style="stop-color:#828282"/></linearGradient><path d="M407.9 110.1c-.1 2-.1 4 0 6 0 1 .1 1.9.1 2.9l-33.3 17c-1 .6-2 .7-3.2.7h-.5c-.2 0-.2-.1-.3-.1-.1 0-.3-.1-.6-.1-.1 0-.2-.1-.3-.1-.2-.1-.6-.1-.8-.3-.1 0-.1-.1-.1-.1-.2-.1-.6-.3-.8-.6-.1-.1-.1-.1-.2-.1-.1-.1-.1-.1-.3-.2l-.1-.1-.3-.3c-.1-.1-.1-.2-.2-.3-.1-.1-.1-.2-.2-.4-.1-.1-.1-.2-.1-.3-.4-.9-.7-1.9-.6-2.9V79.9c.2-5.5 3.9-10.4 9.1-12.4L403.8 57l28.9-.4c-13.3 1.4-24 25-24.8 53.5z" style="fill:url(#SVGID_3_)"/><path d="M451.7 45.1v.2l-.7 25.2-.6 18.6c-.1 2.7-1.1 5.4-2.7 7.8-1.4 2-3.3 3.9-5.8 5l-25.2 12.7-9.1 4.5-33.2 17c-1 .6-2 .7-3.2.7h-.5c-.2 0-.2-.1-.3-.1-.1 0-.3-.1-.6-.1-.1 0-.2-.1-.3-.1-.2-.1-.6-.1-.8-.3-.1 0-.1-.1-.1-.1-.2-.1-.6-.3-.8-.6-.1-.1-.1-.1-.2-.1-.1-.1-.1-.1-.3-.2l-.1-.1-.3-.3c-.1-.1-.1-.2-.2-.3-.1-.1-.1-.2-.2-.4-.1-.1-.1-.2-.1-.3 1.8 1.4 4.2 1.9 6.5.7l33.3-17 1.6-.9 7.3-3.7 1.7-.9 23.6-11.9c2.4-1.2 4.2-2.9 5.8-5 .3-.6.7-1.1.9-1.6.9-1.9 1.4-4 1.7-6.1l.6-19.8.6-24c.1-.7-.1-1.4-.2-1.9.1.1.1.1.2.1l.1.1.1.1.1.1.1.1.1.1c.1.1.1.2.3.4.1.1.1.1.1.2.1.1.1.1.1.2s.1.1.1.2.1.1.1.2.1.1.1.1v.1c0 .1.1.3.1.6V44.6c.3.2.3.3.3.5z" style="fill:#626667"/><path d="M474.9 81.6c0-25.6-4.2-60.5-8.5-63L462 202.7l13-81.2V87.9c-.1-2.1-.1-4.2-.1-6.3z" style="fill:#474747"/><path class="st17" d="m409.1 118.5-1.1.6 1.1-.6z"/><path d="m386.8 67.7-1.4 38.3-19.4-1.9v-25c.2-5.2 3.3-9.9 8-11.9l12.8.5z" style="fill:#4b2e11"/><ellipse transform="rotate(-86.819 386.093 86.6) scale(1.00004)" cx="386.1" cy="86.6" rx="19.1" ry="10" style="fill:#ae6214"/><ellipse transform="matrix(.05336 -.9986 .9986 .05336 278.765 467.388)" cx="385.9" cy="86.7" rx="6.8" ry="3.4" style="fill:#5d3312"/><path class="st19" d="m241.7 126.1 106.7 11.8v55.8l-107.5-14.8z"/><path class="st7" d="m247.4 168.7.4-30 93 10.6v32.2z"/><path class="st12" d="M340.8 176v.7l-93.4-12.1v-.7z"/><path style="fill:#262626" d="M356.6 59v5l-3.9 217.3-8.2-54.4 3.9-33.2v-55.8l-6.2-17.2 4.4-57.4.2-.2z"/><path class="st17" d="m237.1 261.8-1.9-.4-8.2-51.9 1.2-2.9.1.3.3 2.8z"/><linearGradient id="SVGID_4_" gradientUnits="userSpaceOnUse" x1="171.636" y1="7142.568" x2="356.631" y2="7142.568" gradientTransform="translate(0 -7090)"><stop offset="0" style="stop-color:#c9c9c9"/><stop offset="1" style="stop-color:#262626"/></linearGradient><path style="fill:url(#SVGID_4_)" d="m356.6 59-9.8 4.1-114.2-10.6-1.3-.2-59.7-6.1 3.1-4.2 58.7 5.5 1.2.1z"/><path class="st17" d="m236.4 47.8-3.8 4.7-3.5 55.3-1.4-.3 3.6-55.2 3.9-4.6z"/><path class="st29" d="m181.6 135.1 6.7.9v6l-7.4-1.1c-1.6-.2-2.7-1.6-2.7-3.2.1-1.6 1.4-2.7 3.1-2.7.2-.2.3.1.3.1zM200.5 137.8v6l-9.3-1.3v-6.1zM213.5 142.5c-.1 1.6-1.4 2.7-3.1 2.7h-.4l-6.7-.9v-6l7.4 1.1c1.8.1 3 1.3 2.8 3.1z"/><path d="M435.9 210.1v11.2l-1.7 1.2v-3.9l-42.6 30.9v3.9l-2.7 1.9v-12.1c0-3.4 1.7-6.7 4.5-8.5l38.6-26.3c1.7-1.3 3.9-.2 3.9 1.7z" style="fill:#676767"/><path class="st17" d="M391.5 253.4c-.1-1.4-.1-2.9-.2-4.4l-.1-2.2c0-.8-.1-1.4.1-2.2.2-1.4.9-3.1 1.8-4.4.4-.7 1-1.2 1.6-1.8.2-.2.6-.6.9-.8l.9-.7c2.4-1.8 4.9-3.4 7.3-5.1l7.3-5 7.3-5c2.6-1.6 5-3.2 7.4-4.9l3.9-2.4 1.9-1.2c.1-.1.4-.2.6-.3.2-.1.6-.1.8-.1.6.1 1 .3 1.2.7.3.3.6.9.4 1.4l-.1 1.1-.1 2.2c-.1 1.4-.1 2.9-.2 4.4-.1-1.4-.1-2.9-.2-4.4l-.1-2.2-.1-1.1c0-.3-.1-.6-.2-.7s-.4-.2-.7-.2c-.1 0-.2 0-.3.1-.1.1-.1.1-.3.2l-1.8 1.4-3.6 2.7c-2.4 1.8-4.9 3.4-7.3 5.1l-7.3 5-7.3 5c-2.6 1.6-5 3.2-7.4 4.9l-.9.6c-.3.1-.6.4-.9.6-.6.4-1 .9-1.4 1.4-.9 1.1-1.4 2.4-1.9 3.9-.1.7-.2 1.4-.2 2.1l-.1 2.2c-.4 1.1-.5 2.5-.7 4.1z"/><g><path class="st29" d="M292.4 88.3c-.7-.1-1.4-.2-2-.3v-.4c.1-1.4.1-2.8.2-4.2 0-.1-.1-.4-.2-.6-.6-.6-1-1.2-1.6-1.9-.1 2.4-.3 4.6-.4 6.8-.7-.1-1.2-.2-2-.3.1-2.8.4-5.8.6-8.6-.7-.1-1.2-.2-1.9-.3 0 .1-.1.2-.1.3-.1 2.6-.3 5.1-.6 7.7 0 .2.1.6.2.8 0 .1.1.1.1.2 1.4 1.8 1.4 1.9 1.1 4l-.2-.2c-1-1.2-2-2.4-3.1-3.4-.3-.3-.4-.7-.3-1.1.2-3.1.4-6.1.7-9.1 0-.3-.1-.6-.3-.9-1.4-1.7-2.8-3.4-4.4-5.2.6-.1 1-.4 1.4-.6.1 0 .3.1.6.2 1.4 1.7 2.8 3.2 4.2 5 .1.1.1.3.2.6.1 0 .1-.1.2-.1.1-1.9.2-3.9.4-5.8 1.1 0 2.7 1.2 2.9 2.6.4 1.7-.4 2.9-2.4 3.5.6.1 1.1.1 1.6.2.1.1.4.1.6.2.6.6 1.1 1.2 1.7 1.9-1-.1-1.9-.3-2.7-.6 0 .1-.1.1-.1.1.6.7 1.1 1.2 1.7 1.9.1.1.2.1.4.1.7.1 1.4.2 2 .3.2.1.6.1.6.3.6.6 1 1.2 1.4 1.8l-.1.1c-.9-.1-1.7-.2-2.7-.4.6.6.9 1.1 1.4 1.6.4.4.6.8.4 1.2.5.9.5 1.7.5 2.6z"/><path class="st29" d="M278.9 80.2c.1-.9.1-1.4.1-2.2 0-.1-.1-.3-.1-.6-.9-1.2-1.9-2.2-2.9-3.3-.2-.2-.2-.4-.1-.7.3-.3.6-.7.9-1.1.6.6 1 1.2 1.4 1.8.9 1 1.7 1.9 2.6 2.9.1.1.2.3.2.6-.1 2.4-.3 4.9-.6 7.3 0 .1 0 .1-.1.2-.1-.2-.3-.6-.6-.7-1.7-2-3.3-4-5.1-6-.6-.6-.7-1.1-.6-1.8.1-.4.2-.8.3-1.4 1.9 1.7 3.3 3.3 4.6 5zM285.9 96.4c-1.2-1.4-2.4-2.7-3.4-4-2.7-3.2-5.3-6.2-7.9-9.4-.1-.2-.2-.6-.2-.9 0-.7.1-1.4.1-2l.4.4c3.7 4.2 7.3 8.6 11 12.9.2.3.3.6.3.9-.2.8-.2 1.4-.3 2.1zM292.4 88.3c.6.1 1.2.1 1.9.3.1-.8.1-1.4.1-2.2.7.1 1.2.1 1.9.3.1 0 .2.1.4.3.6.7 1.1 1.4 1.8 1.9.3.3.3.7.2 1-.4 1.4-1.9 2.1-3.4 1.9-1.6-.3-2.8-1.7-2.8-3.2-.3 0-.1-.1-.1-.3z"/></g><g><path class="st12" d="m354.5 176.7-113.3-14.9v-2l113.3 15.1L464 118.6v2.3z"/></g></g><path class="st31" d="m463.1 194.7-1.7 16.3-21.5 11.8-.1.1-21.9 14.3-1.4.9v-.1l-.1.1v-3l-14.9 9.7-20.5 13.6c-.2 1.1-.4 2.2-.4 3.3v.1l-2.2 1.4v-.1l-27 17.7c1.9-20.5 7-44.7 14.5-59.3.3-.6.6-1.3 1-1.9l.6-1.2c.1-.3.3-.4.4-.7.3-.4.4-.8.7-1.2.1-.2.3-.4.4-.6.3-.4.4-.8.7-1.1.1-.2.3-.4.4-.6.3-.4.5-.7.7-1 .1-.2.3-.4.4-.5.3-.3.4-.6.7-1 .1-.2.3-.4.4-.5.3-.3.4-.6.7-.9.1-.2.3-.4.4-.6.3-.3.4-.6.7-.9.1-.2.3-.4.4-.6v-.1c.2-.3.4-.4.6-.7.2-.2.3-.4.5-.6.2-.3.4-.4.6-.7l.6-.6.6-.6.6-.6c.2-.2.4-.3.5-.5.3-.2.4-.4.7-.6.2-.1.3-.3.5-.4.3-.3.5-.4.8-.6.1-.1.3-.2.4-.3.3-.3.6-.4.9-.7.1-.1.2-.1.3-.2.3-.3.7-.5 1-.8.1 0 .1-.1.1-.1 6-4.2 12.1-5.9 17.2-5.6 9-1.3 15.6 2.9 20.4 9.6 0 0 8.3-2.7 20.4-5.5.1 0 .2-.1.3-.1h.1c1.2 0 20.3-3.5 21.5-3.8z"/><g><path d="M513.3 257.5c-2.2 1-4.9 1.3-8.3.4-14.1-3.6-18.3-24.9-20.1-34.8-2.6-13.6.9-21.3.9-21.3 9.4-1.5 27.6 3.1 29.6 20.2.9.9 7.1 3 6.4 17.5-.2 4.6-1.6 14.9-8.5 18z" style="fill:#464646"/><path d="M492.8 245.6c-15.3 3.2-39.1 9.5-39.1 9.5-4.2 1.1-9.9 20.4-21.9 15.2-2.2-12.3-5.5-37.5-5.5-37.5l-3.8-23.7s34.2-8.8 63.2-7.1c2.1 1.6 3.5 3 4.7 4.3.1.2.3.3.4.5.1.2.3.3.4.5.3.4.6.9.9 1.2.1.2.3.4.4.6.1.2.3.4.3.6.3.5.4.9.6 1.4.1.1.1.3.2.4.1.3.3.6.4 1 .1.2.1.4.2.6.1.3.1.4.2.7.6.3 1.2.6 1.7 1 1.2.8 2.2 1.7 3 2.9 1.9 2.5 3.2 6 3.7 10.5 1 7.7-2.4 16.7-10 17.4z" style="fill:#cfcfcf"/><path d="M499.3 217.7c-3.9-.4-11.2-.9-15.3-.7-18.1.6-41.1 5.7-54.5 11.2-.8-3.7-1.7-7.3-2.9-10.6 15.8-6.3 39.5-10.9 57.9-11.4 2.1-.1 4-.1 5.9 0 .1.2.3.3.4.5.1.2.3.3.4.5.3.4.6.9.9 1.2.1.2.3.4.4.6.1.2.3.4.3.6.3.5.4.9.6 1.4.1.1.1.3.2.4.1.3.3.6.4 1 .1.2.1.4.2.6.1.3.1.4.2.7.6.3 1.2.6 1.7 1 1.3 1 2.4 1.9 3.2 3z" style="fill:#e2e2e2"/><path d="M430.5 309.3c-5.8 9.5-24.8 10-31 7.5 7.8-1.4 14.1-3.4 16.7-4.7 0 0 3.5-12.5 5.3-24.8 1.7-12.2 5.2-12.4 5.3-19.2.4-48.5-13.2-67.6-23.7-68.8-.3-.1-.6-.1-.9-.1 31.4-4.5 33.4 57.2 33.5 64.9.2 7.7.6 35.7-5.2 45.2z" style="fill:#302e2d"/><linearGradient id="SVGID_5_" gradientUnits="userSpaceOnUse" x1="551.821" y1="-2495.937" x2="547.474" y2="-2616.453" gradientTransform="matrix(.9989 .04598 .04598 -.9989 -40.037 -2319.885)"><stop offset="0" style="stop-color:#fff"/><stop offset="1" style="stop-color:#c2c2c2"/></linearGradient><path d="M421.5 287.2c-1.7 12.2-5.3 24.8-5.3 24.8-1.6.8-4.5 1.9-8.3 2.8-3.9 1-8.8 2.1-14 2.7-14.7 1.9-32.5.9-41.5-10.1-1.2-21.5 4.6-61 15.2-81.5 10.5-20.4 25-27.9 35.6-26.7s24.2 20.2 23.7 68.8c-.3 6.9-3.7 7.1-5.4 19.2z" style="fill:url(#SVGID_5_)"/><linearGradient id="SVGID_6_" gradientUnits="userSpaceOnUse" x1="531.83" y1="-2639.576" x2="537.769" y2="-2571.527" gradientTransform="matrix(.9989 .04598 .04598 -.9989 -40.037 -2319.885)"><stop offset="0" style="stop-color:#fff"/><stop offset="1" style="stop-color:#c2c2c2"/></linearGradient><path d="M403.6 271.1c-1 9.9-4.7 30.9-9.7 46.5-14.7 1.9-32.5.9-41.5-10.1-1.2-21.5 4.6-61 15.2-81.5-4.9 11.7-10.4 43.2-10.6 51.4-.3 8.3.9 11.6 12.2 13.5 11.3 2 24.3 1.7 29.1-1.7 2.4-1.8 3.3-14.3 5.3-18.1z" style="fill:url(#SVGID_6_)"/><path d="M407.9 314.9c-3.9 1-8.8 2.1-14 2.7 5.3-16.5 9.1-39.1 9.9-48.1 6.9-20.1 10.6-18.5 10.6-18.5 2 19.8-.4 44.5-6.5 63.9z" style="fill:#adadad"/><linearGradient id="SVGID_7_" gradientUnits="userSpaceOnUse" x1="515.925" y1="-2545.048" x2="577.406" y2="-2545.048" gradientTransform="matrix(.9989 .04598 .04598 -.9989 -40.037 -2319.885)"><stop offset="0" style="stop-color:#fff"/><stop offset="1" style="stop-color:#c2c2c2"/></linearGradient><path d="M404.3 270.3c-2.4 1.7-3.4 17-6.2 19.1-4.7 3.5-17.8 3.7-29.1 1.7s-12.4-5.2-12.2-13.5c.3-8.3 5.8-39.7 10.6-51.4 5.5-10.6 12.1-17.8 18.6-22 25.9-10.7 32.5 38 33.3 47.4 1.2 10.4-10.9 15.8-15 18.7z" style="fill:url(#SVGID_7_)"/><path class="st40" d="M414.3 263.2c-3.5 3.3-7.9 5.5-10 6.9-.1.1-.2.1-.3.3-.1.1-.1.1-.1.2-.1.1-.1.2-.2.3s-.1.1-.1.2c1.5-14.2 3.2-36.9-1.4-50.8-5-15.3-18-14.1-26-7.5 7.4-8.1 21.6-11.8 29.3 3.3 4.4 8.6 10.5 29.1 8.8 47.1z"/><path class="st40" d="M365.1 242.8c1.4-5.1 3-10.1 5.3-15 1.2-2.4 2.4-4.8 4.1-7 1.6-2.2 3.5-4.3 5.9-6l.9-.6.9-.5c.6-.4 1.4-.6 2.1-.9 1.5-.4 3.1-.6 4.7-.4 1.6.3 3.1.9 4.3 1.9 1.2.9 2.2 2 3.2 3.1 1.7 2.3 2.8 4.8 3.6 7.4.8 2.6 1.2 5.3 1.4 7.9-.7-2.6-1.7-5-2.8-7.3-1.2-2.3-2.7-4.5-4.3-6.2-.9-.9-1.8-1.6-2.7-2.1-.9-.5-2-.8-3-.9-2-.1-4.2.5-6.3 1.7-2.1 1.2-3.9 2.8-5.7 4.6-1.7 1.9-3.3 3.9-4.7 6.1-2.8 4.5-4.9 9.3-6.9 14.2z"/><path class="st29" d="M397.6 230.9c-.4.4-.9.9-1.4 1.3-.4.4-.9.8-1.4 1.1-.6.4-1.2.8-1.9 1.1-.9.4-1.7.9-2.4 1.2-3.1 1.2-6 1.5-7.1.7-.7-.4-1.7-1.6-2.7-2.9-.4-.6-.9-1.2-1.4-1.9-.3-.4-.6-.9-.9-1.4l-.6-.9c-.5-.7-.9-1.2-.9-1.2 1.8-4.5 6.3-7.6 11.8-7 5.1.7 8.7 6.3 8.9 9.9z"/><linearGradient id="SVGID_8_" gradientUnits="userSpaceOnUse" x1="519.387" y1="-2574.196" x2="556.931" y2="-2574.196" gradientTransform="matrix(.9989 .04598 .04598 -.9989 -40.037 -2319.885)"><stop offset="0" style="stop-color:#302e2d"/><stop offset="1" style="stop-color:#737373"/></linearGradient><path d="M361.2 266.6c7.1-2.7 29-1.6 36.9 4.4-.7 3.5-3.6 15.2-3.6 15.2-6.3 2.1-29.7 1.1-34.2-4.2-.3-6.9.9-15.4.9-15.4z" style="fill:url(#SVGID_8_)"/><path d="M386.7 203.9c3.4-2.1 7.5-2.9 11.5-2.4 2 .3 3.9.9 5.8 1.7 1.8.9 3.5 1.9 5.1 3.2 3.1 2.6 5.5 5.8 7.6 9.3 1 1.7 1.9 3.5 2.7 5.3.8 1.8 1.5 3.7 2.2 5.5l.1.3-.3.2-2.7 2.1.2-.5c.8 3 1.7 6 2.4 9.1.6 3.1 1.1 6.3 1.2 9.4.1 3.2-.2 6.3-1.4 9.3-1.2 3-3.3 5.5-5.9 7.1 2.6-1.8 4.5-4.4 5.5-7.3 1-3 1.2-6 1.1-9.2-.2-3.1-.7-6.2-1.4-9.2-.6-3-1.6-6-2.4-9.1l-.1-.3.3-.2 2.7-2.2-.1.6-2.2-5.5c-.8-1.8-1.7-3.5-2.7-5.3-1.9-3.4-4.4-6.5-7.3-9.1-1.5-1.3-3.1-2.4-4.8-3.3-1.7-.9-3.6-1.4-5.5-1.7-4-.4-8.1.3-11.6 2.2z" style="fill:#858585"/><path class="st29" d="M419.5 251.4c.2 1.5.1 3.2-.3 4.7s-1.2 3-2.1 4.3c-1.9 2.7-4.4 4.7-6.9 6.5-1.3.9-2.7 1.7-4 2.6l-.9.6c-.3.2-.7.4-.9.6-.4.5-.7 1.3-.9 2-.9 3-1.4 6.1-2.1 9.2-.3 1.5-.7 3.1-1.2 4.6-.3.8-.5 1.5-.9 2.2-.1.2-.3.4-.4.5-.1.2-.4.4-.5.4-.4.2-.7.4-1.1.6-1.5.8-3 1.2-4.6 1.5-1.5.3-3.2.5-4.7.6-6.3.4-12.7-.2-18.9-1.5 3.2.4 6.3.8 9.4.9 3.2.1 6.3.1 9.4-.2 1.5-.2 3.1-.4 4.6-.7 1.5-.4 3-.8 4.4-1.4l.9-.6c.1-.1.1-.1.2-.1.1-.1.1-.1.1-.2.1-.1.2-.3.3-.4.4-.6.6-1.4.9-2.1.4-1.5.9-3 1.2-4.5.7-3.1 1.2-6.2 2.2-9.3.3-.8.5-1.5 1.1-2.2.4-.4.7-.6 1-.8l1-.6c1.4-.9 2.7-1.6 4-2.4 2.7-1.7 5.1-3.7 7-6.2.9-1.2 1.7-2.7 2.2-4.1.4-1.3.6-2.9.5-4.5z"/><path d="m513.3 257.5-7.4-37.1c5.3-.3 8.6.9 9.5 1.6.9.9 7.1 3 6.4 17.5-.2 4.6-1.6 14.9-8.5 18z" style="fill:#363636"/><path class="st44" d="M513.3 257.5c-1.7.8-3.7 1.2-6.1.9-4.5-3.3-7.2-8.2-9.9-14.2 11.5-.9 10.3-15.8 8.7-23.7l7.3 37z"/><path class="st29" d="M385.7 277.2c-.1.6-.2 1.2-.3 1.9-.4-.1-.8-.1-1.2-.1.3-1.7.5-3.3.8-5 .2 0 .4.1.6.1.5.1 1 .1 1.5.3.7.2 1.1.6 1.1 1.2.1.8-.2 1.7-1.2 2 .3.6.5 1.3.8 1.9.1-.1.1-.1.1-.2.7-1.5 1.5-3 2.2-4.5.1-.1.1-.2.3-.2.4.1.8.1 1.2.1.1 0 .1 0 .1.1.3 1.7.5 3.3.8 5v.1c-.4-.1-.8-.1-1.2-.1-.1 0-.1-.1-.1-.1-.1-.3-.1-.5-.1-.8 0-.1-.1-.1-.1-.1-.4-.1-.9-.1-1.3-.1-.1 0-.1 0-.2.1-.1.3-.2.4-.3.7-.1.1-.1.1-.2.1l-2.4-.3c-.1 0-.2-.1-.2-.2-.3-.7-.5-1.3-.7-1.9zm.1-.8c.2 0 .4.1.6 0 .3 0 .6-.3.6-.6.1-.3-.1-.6-.4-.8-.2-.1-.4-.1-.6-.1-.1.5-.2 1-.2 1.5zm5.2 1.2c-.1-.6-.1-1.1-.3-1.7-.3.5-.5 1-.7 1.5.3.2.7.2 1 .2zM380.2 278.3c.3-1.7.5-3.3.8-5h.1c.8.1 1.5.1 2.2.3.9.2 1.2 1.1.8 1.9-.2.3-.4.6-.9.6l.1.1c.4.2.6.6.6 1.2-.1.6-.4 1.1-.9 1.2-.2.1-.4.1-.7.1-.6-.1-1.3-.2-2.1-.4.1.1.1.1 0 0zm1.4-.7c.2 0 .3.1.4.1h.2c.3 0 .4-.2.5-.4.1-.3 0-.6-.3-.6s-.4-.1-.7-.1c0 .1-.1.1-.1.1.1.3.1.6 0 .9zm.3-2h.7c.3 0 .4-.2.4-.4.1-.3 0-.4-.3-.6-.2-.1-.4-.1-.7-.2 0 .4 0 .8-.1 1.2zM369.7 276.1c-.2 0-.4-.1-.7-.1v-.2c.1-.5.2-1.1.3-1.6 0-.1 0-.2-.1-.3-.1-.2-.3-.4-.4-.7-.1.9-.3 1.7-.4 2.7-.3 0-.4-.1-.6-.1.2-1.1.3-2.2.5-3.3-.2 0-.4-.1-.6-.1 0 .1 0 .1-.1.1-.1.9-.3 1.9-.4 2.9 0 .1.1.2.1.3s.1.1.1.1c.4.6.4.6.3 1.5l-.1-.1c-.3-.4-.6-.9-.9-1.2-.1-.1-.1-.3-.1-.4.2-1.2.4-2.3.6-3.5 0-.1 0-.3-.1-.3-.4-.6-.9-1.2-1.4-1.9l.6-.3c.1 0 .1.1.1.1.4.6.9 1.2 1.3 1.8.1.1.1.1.1.2 0 0 .1 0 .1-.1.1-.7.3-1.5.3-2.2.4-.1.9.4.9.9.1.6-.3 1.1-.9 1.4.2 0 .4.1.5.1.1 0 .1.1.2.1.2.2.3.4.5.7-.3-.1-.6-.1-.9-.1 0 0 0 .1-.1.1.2.3.3.4.5.7 0 .1.1.1.1.1.3.1.4.1.7.1.1 0 .1.1.2.1.2.2.3.4.4.6l-.1.1c-.3-.1-.6-.1-.9-.1.1.2.3.4.4.6.1.1.1.3.1.4-.1.2-.1.6-.1.9zM378.6 275.1c.5.1 1 .1 1.5.2-.1.3-.1.6-.1.9-.5-.1-1-.1-1.6-.2-.1.4-.1.7-.2 1 .5.1 1 .1 1.6.2-.1.3-.1.6-.1.9-.9-.1-1.9-.2-2.7-.3.3-1.7.5-3.3.8-5l2.7.3c-.1.3-.1.6-.1.9-.5-.1-1-.1-1.5-.2-.3.6-.3.9-.3 1.3zM374.6 276.7c.6.1 1.2.1 1.8.2l-.6.9-.1.1c-1-.1-2-.3-3-.4.9-1.3 1.7-2.5 2.7-3.8-.6-.1-1.2-.1-1.8-.2l.6-.9.1-.1c1 .1 2 .3 3 .4-.9 1.3-1.7 2.5-2.7 3.8z"/><path class="st29" d="M365.4 273.3c.1-.3.1-.6.1-.9 0-.1 0-.1-.1-.2-.3-.4-.6-.9-.9-1.2-.1-.1-.1-.2 0-.3l.4-.4c.2.2.3.4.4.6.3.3.5.7.8 1 .1.1.1.1.1.2-.1.9-.3 1.9-.4 2.7l-.1.1c-.1-.1-.1-.2-.1-.3-.5-.7-1-1.5-1.5-2.2-.1-.2-.2-.4-.1-.6.1-.1.1-.3.2-.5.3.8.7 1.4 1.2 2zM367.1 279.4c-.4-.5-.7-.9-1-1.5-.9-1.2-1.6-2.2-2.4-3.4-.1-.1-.1-.2-.1-.3 0-.3.1-.5.1-.9l.1.1c1.1 1.5 2.2 3.1 3.3 4.6.1.1.1.2.1.3 0 .5 0 .7-.1 1.1zM369.7 276.1c.2 0 .4.1.6.1.1-.3.1-.6.1-.9.3 0 .4.1.6.1.1 0 .1.1.1.1.2.3.3.4.5.7.1.1.1.3.1.4-.2.5-.7.9-1.3.8-.5-.1-.9-.6-.9-1.2.2 0 .2-.1.2-.1z"/></g><path class="st31" d="M332.9 237.2c-.8 8.9-2.4 28.1-4 46.3l-83.5-14.2v.1l-1.9-.4-100.7-13.8 18-69.9c14.2 1.4 47.9 7.3 71.1 9.9 4 .4 8 .9 11.9 1.4 28.9 3.3 54.2 6.1 54.2 6.1 17.3 2 30.6 10.6 34.1 24 .1.5.4 1.2.4 1.7h-.1c.1.5.1 1.2.3 1.7.4 2.2.4 4.6.2 7.1z"/><g><path d="M193 329.1c3 4.7 5.3 8.2 13.3 10.4 8.1 2.2 11.2 3 13.2 3.5s4.8 1.1 10.4-1.9c5.6-3 8-4.8 8-4.8l-44.9-7.2z" style="fill:#5c0f11"/><path d="M129.8 215.6c.1-6.4 6.6-18 27.4-16.7 20.8 1.4 128.3 13.8 128.3 13.8 20.1 2.4 34.5 14.2 32.8 32.4-1.7 18.2-6.9 83.1-6.9 83.1-1 8.1-7.4 23.2-37.8 15.9-30.4-7.3-35.6-7.8-35.6-7.8l-8.9 4.2c-2.7 1.3-5.8 1.5-8.9.8l-15-3.7c-3.2-.8-6.1-2.4-8.5-4.8l-7.8-8-33.8-8.6c-12.8-3.2-22.7-13.9-23.2-24.2l-2.1-76.4z" style="fill:#313136"/><path d="M285 330.6h-.6c-.1-.1-.1-.1-.3-.1-3.5-.6-7.1-1.2-10.6-1.9-5.6-.9-11.2-1.9-16.7-2.9-1.9-.4-3.7-.6-5.7-1 0-.4.3-.4.5-.6 1.7-1.2 3.5-2.4 5.2-3.7.1-.1.4-.4.4-.5.5-1.9 1-3.8 1.4-5.7.1-.4.4-.6.8-.6 1.7-.3 3.4-.4 5-.6 4-.6 8.1-1.2 12.1-1.8.5-.1.6-.3.6-.6-.1-.8-.1-1.5-.3-2.3-.1-1.1-.4-2.1.1-3.2.3-.5.4-1.1.3-1.6-.4-2.3-.8-4.7-1.2-6.9-.4-2.6-1.1-5.2-.9-7.8.1-.6.1-1.1.6-1.4.4-.3.8-.5 1-.9 1.5-2.8 3-5.6 4.5-8.3.1-.3.1-.5-.1-.6-1.3-1.1-2.4-2.3-3.7-3.4-.5-.5-1.3-.9-1.5-1.7-.5-1.4-.9-2.9-1.4-4.4-.4-1.3-.8-2.6-1.4-3.9-1.5-3.3-3-6.5-4.6-9.8-1.7-3.7-3.4-7.4-5.1-11.2-.1-.4-.1-.5.1-.8.6-.6.6-.9.3-1.6-.1-.3-.3-.4-.4-.6-1.5-3.7-3-7.3-4.5-10.9-.3-.6-.6-1.1-.6-1.8.8.1 1.4.1 2.2.1 3.7.4 7.3.6 11 .9 3.8.4 7.6.6 11.4.9 2.5.3 5 .4 7.6.6v1.5c-.1.1-.1.1-.1.3-.4 5.2-.6 10.3-.9 15.4-.4 5.5-.6 11.1-.9 16.5-.4 7.4-.9 14.9-1.3 22.4-.4 6.3-.6 12.4-1 18.7-.4 7.4-.9 14.9-1.3 22.4.1 1.2 0 2.4 0 3.4z" style="fill:#405074;stroke:#405074;stroke-width:.8461;stroke-miterlimit:10"/><path d="m162.4 309.8-15.9-2.7c-.5-.1-1.3 0-1.5-.4s-.1-1-.1-1.5c-.3-20.7-.4-41.2-.6-61.9-.1-6.5-.1-13.1-.3-19.6.1-.8 0-1.6 0-2.4 0-.9.1-1.7-.1-2.5v-.3c0-.4-.1-.8 0-.9.1-.1.6 0 .9 0 .1.1.4.1.4.1 1.9.1 3.8.4 5.8.5 3.7.4 7.4.6 11.2.9 3.7.4 7.4.6 11.1.9 3.8.4 7.6.6 11.4.9 1.9.1 3.8.4 5.7.5-.5 1-1.2 1.6-2.4 1.5h-.3c-2.3.4-4.5.6-6.8.6h-9.4c-.4 0-.8.1-1 .5-.5.6-.9 1.3-1.5 1.9-.8.8-.9 1.7-.6 2.7 0 .3 0 .5-.1.8-.9 2.1-1.9 4.3-2.8 6.5-.3.8-.8 1.5-.9 2.3-.4 2.3-.6 4.7-.9 6.9-.3 2.1-.5 4.3-.8 6.4-.1.8-.5 1.6.3 2.3-.3 1.1-.3 2.3-.6 3.4-1 2.4-2 4.8-3 7.3-.3.6-.6 1.3-.6 2 0 1.6-.1 3.2-.1 4.8-1.8.9-3.7 1.7-5.5 2.7-.3.1-.5.4-.6.6-.1.4-.4.9-.5 1.4-.6 2.2-.9 4.5-1.4 6.8-.1.5 0 1 .1 1.5.4 1 1 2 1.3 3.2 1.2 5.4 2.3 10.9 3.4 16.3.1.6.3.8.9.6 1.4-.3 2.7-.5 4-.8h.1c0 .1.1.4.1.5l1.5 4.8c.1.4.3.6.1.9z" style="fill:#404f73;stroke:#404f73;stroke-width:.8461;stroke-miterlimit:10"/><path d="M243.9 226c2.8.3 5.5.4 8.3.6 1.9.1 4 .4 5.9.5.1 0 .4.1.5.1.1.6.4 1.2.6 1.8 1.5 3.7 3 7.3 4.5 10.9.1.3.1.4.4.6.4.8.4 1-.3 1.6-.3.3-.3.4-.1.8 1.7 3.7 3.4 7.4 5.1 11.2 1.5 3.3 3 6.5 4.6 9.8.6 1.3.9 2.6 1.4 3.9.5 1.4.9 3 1.4 4.4.3.8 1 1.1 1.5 1.7 1.2 1.2 2.4 2.3 3.7 3.4.3.3.3.4.1.6-1.5 2.8-3 5.6-4.5 8.3-.3.4-.6.8-1 .9-.5.4-.6.9-.6 1.4-.3 2.7.4 5.3.9 7.8.4 2.3.8 4.7 1.2 6.9.1.6 0 1.1-.3 1.6-.5 1.1-.3 2.1-.1 3.2.1.8.1 1.5.3 2.3.1.4-.1.6-.6.6-4 .6-8.1 1.2-12.1 1.8-1.7.3-3.4.5-5 .6-.4.1-.6.3-.8.6-.5 1.9-1 3.8-1.4 5.7-.1.3-.1.4-.4.5-1.7 1.2-3.5 2.4-5.2 3.7-.1.1-.4.3-.5.6-1.9-.4-3.9-.6-5.8-.9-.8-.1-1.6-.3-2.4-.4 0-.1.1-.4.1-.6.6-4 1.4-8.1 2.1-12 .3-1.4.5-3 .6-4.4.4-.1.8-.3 1.1-.4 1.7.4 3.5.6 5.2 1.1.4.1.8 0 1.1-.4.4-.4.6-.8 1-1.1 2.3-2.4 4.5-4.7 6.8-6.9.4-.4.5-.9.5-1.4-.1-1-.4-1.9-.8-2.9-1.4-3.5-2.8-7.1-4.2-10.6.4-.6.9-1.3 1.4-1.9.1-.3.3-.4.1-.8-.4-3.3-.9-6.6-1.4-9.9.6-1.1 1.1-2.3 1.7-3.5.1-.3.1-.4 0-.6-.4-1.8-.8-3.5-1.2-5.3-.6-2.8-1.3-5.6-1.9-8.5 0-.1 0-.1.1-.1l5.1-8.7c.1-.4.1-.5-.1-.6-.5-.3-1.1-.6-1.6-.9-4.7-2.4-9.3-4.7-14-7.1-.4-.1-.6-.4-.6-.9-.3-2.6-.2-5.7-.4-8.7z" style="fill:#455f87;stroke:#455f87;stroke-width:.8461;stroke-miterlimit:10"/><path d="M160.7 303.7c-.1-.1 0-.4.1-.5 1.5-2.4 3.2-4.7 4.7-7.1 1.9-2.9 3.7-5.7 5.5-8.6.4-.6.9-1.4 1.4-2 .4.1.6.4.9.6 2.7 1.9 5.4 3.7 8.1 5.6 2 1.4 4 2.8 6.2 4.2.4.1.5.4.4.9-.1.9 0 1.9-.1 2.8-.4 1.7.4 3 1.4 4.2.9 1 1.8 2 2.7 3.2.4 1.6.6 3.2.9 4.8.3 1.2.4 2.3.6 3.5-2.3-.4-4.6-.8-6.8-1.1-4.7-.9-9.6-1.6-14.3-2.4-.1 0-.1-.1-.1-.1-.5-1-1.3-1.8-1.9-2.7-.4-.6-.9-1-1.5-1.3-1.9-.9-3.8-1.9-5.8-2.7-1-.6-1.6-1.1-2.4-1.3z" style="fill:#47658f;stroke:#47658f;stroke-width:.8461;stroke-miterlimit:10"/><path class="st51" d="M232.6 321.7c-1.3-.1-2.4-.4-3.7-.6-.1-.4-.5-.6-.9-.9-1.4-.9-2.6-2.1-4.2-2.8-1.8-.8-3.7-1.4-5.4-2.1.6-2.5 1.3-5.1 1.9-7.6.3-.1.4-.3.6-.4 3-2 6.2-4 9.2-6 .5-.4.9-.5 1.5-.4.1.4.4.5.5.6 1.4 1.2 2.5 2.5 4 3.5-.1.1-.1.4-.1.6-.9 4.3-1.9 8.6-2.9 13-.2 1.2-.5 2.1-.5 3.1z"/><path class="st52" d="M232.6 321.7c.1-1 .4-1.9.6-3 .9-4.3 1.9-8.6 2.9-13 .1-.1.1-.4.1-.6 1.3.1 2.6.4 3.9.5 1.9.3 3.8.6 5.7.8-.3 1.4-.5 3-.6 4.4-.6 4-1.4 8.1-2.1 12 0 .1-.1.4-.1.6-3.6-.5-7-1.1-10.4-1.7z"/><path class="st51" d="M193.3 315c-.1-1.2-.4-2.3-.6-3.5-.4-1.6-.5-3.2-.9-4.8.3-.1.6-.1.9-.1 3.9-1.1 7.8-2.2 11.6-3.3.5.4 1 .6 1.5.9v.4c.5 2.8 1 5.5 1.5 8.3.3 1.5.5 3 .9 4.5v.1c-1.4-.3-2.7-.4-4.2-.6-3.5-.6-6.9-1.2-10.4-1.8.1 0-.2 0-.3-.1z"/><path class="st52" d="M208.3 317.6v-.1c1.1-.1 2.2-.4 3.3-.6 2.2-.5 4.6-.5 6.7-1.4 1.8.6 3.7 1.3 5.4 2.1 1.5.6 2.8 1.9 4.2 2.8.4.3.8.4.9.9-1.4-.1-2.6-.4-4-.6-3.4-.6-6.7-1.1-10.1-1.7-2.1-.7-4.2-1-6.4-1.4z"/><path class="st53" d="M160.7 303.7c.8.3 1.4.6 2.1 1 1.9.9 3.8 1.9 5.8 2.7.6.3 1.1.6 1.5 1.3.6.9 1.4 1.7 1.9 2.7-2.2-.4-4.4-.8-6.6-1.1-1-.1-2.1-.4-3.2-.5.3-.3.1-.5.1-.8l-1.5-4.8c0-.2-.1-.4-.1-.5z"/><path d="M190.3 221.4c3 .3 5.9.5 8.9.8 3.5.3 6.9.6 10.3.9 0 .1-.1.3-.1.4-.9 1.7-1.8 3.4-2.7 5.2-1.1 2.2-2.3 4.4-3.4 6.6-.4.6-.8 1.4-1.1 2.1-2.4-.6-4.8-1.2-7.2-1.9-.6-.1-1.1-.3-1.6.3-2.4 2.1-4.9 4.2-7.3 6.3-.4.4-.9 1-1.5 1-1.3 0-2.5.1-3.8.3 0-.3-.1-.4-.3-.5-.9-.9-1.7-1.9-2.4-2.9-1.4-1.7-3-3.4-4.4-5.2-1.6-1.9-3.4-3.8-4.9-5.8-.1-.1-.1-.1-.3-.1-.4-1-.1-1.9.6-2.7.6-.6 1-1.2 1.5-1.9.3-.4.6-.5 1-.5h9.4c2.3 0 4.6-.4 6.8-.6.1 0 .1-.1.3 0 1-.2 1.7-.8 2.2-1.8z" style="fill:#455f88;stroke:#455f88;stroke-width:.8461;stroke-miterlimit:10"/><path class="st52" d="M158.8 271.3c0-1.6.1-3.2.1-4.8 0-.8.4-1.4.6-2 1-2.4 2-4.8 3-7.3.4-1.1.5-2.3.6-3.4 2.4-.4 5-.9 7.4-1.4 1.3-.3 2.5-.4 3.8-.8 0 .3.1.4.4.6.6.9 1.4 1.8 2.1 2.7 1.5 2 3.2 4 4.7 6.1.9 1.3 1.9 2.4 2.8 3.7-.1.4-.1.6-.1.9-.4 1.3-.6 2.4-.9 3.7-.1.3-.4.5-.6.6-1.7 1.5-2.8 3.5-4 5.3-1.2 1-2.3 1.9-3.5 3-1 .9-1.9 1.8-3 2.5-.4-.1-.5-.3-.8-.4-4.2-2.7-8.4-5.9-12.6-9z"/><path class="st53" d="M158.8 271.3c4.2 3 8.3 6.3 12.6 9.2.3.1.5.4.8.4.1 1.5.1 3 .1 4.5-.4.6-.9 1.4-1.4 2-1.9 2.8-3.7 5.7-5.5 8.6-1.5 2.4-3.2 4.7-4.7 7.1-.1.1-.1.4-.1.5-1.4.3-2.7.5-4 .8-.6.1-.9 0-.9-.6-1.1-5.4-2.2-10.9-3.4-16.3-.3-1.1-.9-2.1-1.3-3.2-.1-.5-.4-.9-.1-1.5.5-2.3.8-4.6 1.4-6.8.1-.4.4-.9.5-1.4.1-.4.4-.5.6-.6 1.8-.9 3.6-1.6 5.4-2.7z"/><path d="M174.7 251.7c-1.3.4-2.5.5-3.8.8-2.4.5-5 .9-7.4 1.4-.8-.6-.4-1.5-.3-2.3.1-2.2.5-4.3.8-6.4.3-2.3.5-4.7.9-6.9.1-.8.6-1.5.9-2.3.9-2.2 1.8-4.4 2.8-6.5.1-.3.1-.5.1-.8.1.1.3.1.3.1 1.5 2 3.3 3.9 4.9 5.8 1.4 1.8 3 3.4 4.4 5.2.9.9 1.7 1.9 2.4 2.9.1.1.3.4.3.5-2.2 2.8-4.3 5.7-6.3 8.5z" style="fill:#445a81;stroke:#445a81;stroke-width:.8461;stroke-miterlimit:10"/><path class="st56" d="M202.4 237.2c.3-.8.6-1.4 1.1-2.1 1.1-2.2 2.3-4.4 3.4-6.6.9-1.7 1.8-3.4 2.7-5.2.1-.1.1-.1.1-.4 2.4.1 4.7.4 7.1.6 3.3.3 6.5.6 9.8.9 3.8.4 7.6.6 11.4.9 2 .1 4 .4 6 .5.1 3 .1 6.2.1 9.2 0 .4.3.6.6.9 4.7 2.4 9.3 4.7 14 7.1.5.3 1.1.6 1.6.9.4.1.4.4.1.6l-5.1 8.7c0 .1 0 .1-.1.1-.3 0-.6 0-.9.1-4.5.8-8.9 1.6-13.4 2.4-.9-.6-1.7-1.2-2.6-1.7-.6-.4-1.1-.8-1.4-1.4-.4-.6-.9-1.3-1.4-1.9.1-.9.4-1.9.6-2.8.3-1.4.8-2.9.6-4.3-.1-.8-.1-1.5-.1-2.4 0-.3-.1-.4-.4-.6-1.1-.9-2.2-1.8-3.2-2.7-.6-.6-1.4-1.2-2.4-1.2-.4 0-.9 0-1.3-.1-1.6-.1-3.2-.3-4.8-.4-.3 0-.4.1-.6.3-.8.8-1.5 1.5-2.4 2.2-.9.8-1.7 1.5-2.5 2.4-1 1-2.1 1.9-2.8 3.2h-8.5c-.5-.6-1.2-1.1-1.8-1.7-.6-.9-1.2-1.6-1.7-2.4-.4-1-1.3-2-1.8-3.1z"/><path d="M178.7 275.5c1.3-1.9 2.4-3.8 4-5.3.3-.1.4-.4.6-.6.3.1.6.4.9.5 1.1.4 2.2.9 3.3 1.4 2.5 1.1 5.1 2.1 7.6 3.2.8.4 1.6.5 2.2 1 1 .9 2 1.7 3 2.5 1.4 1.2 2.8 2.4 4.2 3.5 0 .4.1.6.1.9s.1.6.5.8c3.5 2 7.1 4 10.5 6.1.4.1.6.3 1 .3 1.9-.1 3.7-.3 5.6-.4.8-.1 1.4-.1 1.9-.9 2.3-3.2 4.7-6.2 7.1-9.2.6-.9 1.1-1.6.8-2.7 1.8-1.4 3.4-2.9 5.1-4.3 1.5-1.4 3.2-2.7 4.7-4h.4c3.5.8 7.2 1.5 10.7 2.3 1.3.3 2.5.6 3.9.8.4 3.3.9 6.6 1.4 9.9 0 .3 0 .5-.1.8-.5.6-.9 1.2-1.4 1.9-1.5.6-3.2 1.3-4.7 1.9-1.2.4-2.3 1-3.5 1.4-1.1-.3-2.3-.5-3.4-.6-.3-.1-.5-.1-.8.1-1.4 1.6-2.7 3.2-4 4.7-1.4 1.7-2.8 3.3-4.2 5-1.4 1.6-2.8 3.3-4.2 4.9-.6-.1-1 0-1.5.4-3 2-6.2 4-9.2 6-.1.1-.4.4-.6.4-.1 0-.3-.1-.4-.3-.8-.9-1.6-1.8-2.4-2.6-1.2-1.3-2.4-2.6-3.5-3.9-.1-.3-.4-.3-.6-.1-2.4 1.2-4.9 2.3-7.3 3.4-.5-.4-1-.6-1.5-.9-1.4-4.7-2.7-9.4-4.2-14-.4-1.5-.1-1.4-1.7-.9-.5.1-.9.1-1.4-.1-5.3-3.7-10.7-7.3-16-11.1-1.3-1-2.3-1.5-2.9-2.2z" style="fill:#5184b5;stroke:#5184b5;stroke-width:.8461;stroke-miterlimit:10"/><path class="st58" d="M256.7 271.3c-1.4-.1-2.5-.5-3.9-.8-3.5-.8-7.2-1.5-10.7-2.3h-.4c0-1.2-.1-2.4-.1-3.7-.1-2.9-.3-5.7-.4-8.6 4.5-.8 8.9-1.6 13.4-2.4.3-.1.6-.1.9-.1.6 2.8 1.3 5.6 1.9 8.5.4 1.8.8 3.5 1.2 5.3.1.3.1.4 0 .6-.8 1.2-1.3 2.3-1.9 3.5z"/><path class="st56" d="M248.3 287c1.2-.4 2.3-.9 3.5-1.4 1.5-.6 3.2-1.3 4.7-1.9 1.4 3.5 2.8 7.1 4.2 10.6.4.9.6 1.9.8 2.9.1.5-.1 1-.5 1.4-2.3 2.3-4.5 4.7-6.8 6.9-.4.4-.6.8-1 1.1-.4.3-.6.4-1.1.4-1.7-.4-3.5-.6-5.2-1.1.1-1.4.1-2.6.3-4 .1-1.9.3-3.7.4-5.5.1-1.1.1-2.3.3-3.4.2-1.9.3-3.9.4-6z"/><path class="st59" d="M248.3 287c0 2.1-.3 4.2-.4 6.2-.1 1.1-.1 2.3-.3 3.4-.1 1.9-.3 3.7-.4 5.5-.1 1.4-.1 2.6-.3 4-.4.1-.8.3-1.1.4-1.9-.1-3.8-.5-5.7-.8-1.3-.1-2.6-.4-3.9-.5-1.5-.9-2.7-2.3-4-3.5-.3-.1-.5-.4-.5-.6 1.4-1.6 2.8-3.3 4.2-4.9 1.4-1.7 2.8-3.3 4.2-5 1.4-1.6 2.7-3.2 4-4.7.3-.3.5-.1.8-.1 1.1.2 2.2.3 3.4.6zM178.7 275.5c.6.8 1.5 1.2 2.4 1.8 5.3 3.7 10.7 7.3 16 11.1.5.4.9.4 1.4.1 1.5-.6 1.3-.8 1.7.9 1.4 4.7 2.7 9.3 4.2 14-3.9 1.1-7.8 2.2-11.6 3.3-.3.1-.6.1-.9.1-.9-1-1.9-2-2.7-3.2-1-1.3-1.7-2.5-1.4-4.2.1-.9.1-1.9.1-2.8 0-.4-.1-.6-.4-.9-2-1.4-4-2.8-6.2-4.2-2.7-1.9-5.4-3.7-8.1-5.6-.3-.1-.6-.4-.9-.6 0-1.5-.1-3-.1-4.5 1.1-.8 2-1.7 3-2.5 1.2-.8 2.3-1.8 3.5-2.8z"/><path class="st58" d="M205.9 304.2c2.4-1.1 4.9-2.3 7.3-3.4.3-.1.4-.1.6.1 1.2 1.3 2.3 2.6 3.5 3.9.8.9 1.6 1.8 2.4 2.6.1.1.1.3.4.3-.6 2.5-1.3 5.1-1.9 7.6-2.1.9-4.5 1-6.7 1.4-1.1.3-2.2.4-3.3.6-.4-1.4-.6-3-.9-4.5-.5-2.8-1-5.5-1.5-8.3.1 0 .2-.1.1-.3z"/><path class="st51" d="M202.4 237.2c.6 1.2 1.4 2.1 2.1 3.2.5.9 1.1 1.7 1.7 2.4-.1 0-.4 0-.6.1-.8.4-1.4.6-2.2 1-2.3 1.1-4.6 2.1-6.8 3.2-1.9.9-3.7 1.8-5.6 2.6-.4.1-.5.4-.4.8.8 2.6 1.4 5.2 2.1 7.8-.1.1-.1.3-.4.4-1.4 1.1-2.9 2.2-4.3 3.3-1.2.9-2.4 1.9-3.7 2.7-.9-1.3-1.9-2.5-2.8-3.7-1.5-2-3.2-4-4.7-6.1-.6-.9-1.4-1.8-2.1-2.7-.1-.1-.3-.4-.4-.6 2-2.8 4-5.7 6.2-8.5 1.3-.1 2.5-.3 3.8-.3.6 0 1-.6 1.5-1 2.4-2.1 4.9-4.2 7.3-6.3.5-.5 1-.4 1.6-.3 2.9.7 5.3 1.4 7.7 2z"/><path d="M184.5 264.8c1.2-.9 2.4-1.9 3.7-2.7 1.4-1.1 2.9-2.2 4.3-3.3l.4-.4c3.5-.9 7.1-1.9 10.5-2.9.4-.1.6-.3.8-.6.9-2.4 1.9-4.9 2.9-7.3.4-1 .9-1.9 1.1-3h8.5c.1.1.4.4.4.6 1.5 2 3.2 4 4.7 6 .3.4.6.6 1.1.5.8-.1 1.5-.1 2.3-.1 1.5-.1 3-.1 4.5-.3 2-.1 4.2-.4 6.2-.4.5.6.9 1.3 1.4 1.9.4.5.9 1 1.4 1.4.9.5 1.8 1.1 2.6 1.7.1 2.9.4 5.7.4 8.6.1 1.2.1 2.4.1 3.7-1.5 1.4-3.2 2.7-4.7 4-1.7 1.4-3.3 3-5.1 4.3-.6-.5-1.1-1.2-1.7-1.7-.8-.8-1.5-1.5-2.3-2.4-.9-.9-1.7-2-2.8-2.7-1.9-1.1-3.9-2.1-5.8-3.2-.4-.1-.6-.1-.9-.1-1.6.5-3.3.9-4.9 1.4-.4.1-.5.3-.6.6-2.2 3.5-4.3 7.2-6.5 10.7-.5.9-.9 1.7-1.6 2.4-1.4-1.2-2.8-2.4-4.2-3.5-1-.9-2-1.8-3-2.5-.6-.5-1.5-.6-2.2-1-2.5-1.1-5.1-2.1-7.6-3.2-1.1-.4-2.2-.9-3.3-1.4-.4-.1-.6-.3-.9-.5.3-1.3.6-2.5.9-3.7-.2-.3-.1-.6-.1-.9z" style="fill:#548dc0;stroke:#548dc0;stroke-width:.8461;stroke-miterlimit:10"/><path class="st58" d="M235.6 251.1c-2 0-4.2.1-6.2.4-1.5.1-3 .1-4.5.3-.8 0-1.5.1-2.3.1-.5.1-.9-.1-1.1-.5-1.5-2-3.2-4-4.7-6-.1-.1-.4-.4-.4-.6.6-1.3 1.8-2.1 2.8-3.2.9-.9 1.7-1.5 2.5-2.4.8-.8 1.5-1.4 2.4-2.2.1-.1.4-.3.6-.3 1.6.1 3.2.3 4.8.4.4 0 .9.1 1.3.1 1-.1 1.7.5 2.4 1.2 1.1.9 2.1 1.9 3.2 2.7.1.1.4.4.4.6 0 .8 0 1.5.1 2.4.1 1.5-.4 2.9-.6 4.3-.3.8-.4 1.7-.7 2.7z"/><path class="st59" d="M207.9 244.6c-.1 1.1-.6 2-1.1 3-.9 2.4-1.9 4.9-2.9 7.3-.1.4-.4.5-.8.6-3.5.9-7.1 1.9-10.5 2.9-.6-2.6-1.4-5.2-2.1-7.8-.1-.4 0-.6.4-.8 1.9-.9 3.7-1.7 5.6-2.6 2.3-1.1 4.6-2.1 6.8-3.2.8-.4 1.4-.6 2.2-1 .1-.1.4-.1.6-.1.6.6 1.3 1 1.8 1.7z"/><path d="M204.7 281.6c.6-.8 1-1.7 1.6-2.4 2.2-3.5 4.3-7.2 6.5-10.7.1-.3.4-.5.6-.6 1.7-.4 3.3-.9 4.9-1.4.4-.1.6-.1.9.1 1.9 1.1 3.9 2 5.8 3.2 1.1.6 1.9 1.7 2.8 2.7.8.9 1.5 1.6 2.3 2.4.6.6 1 1.3 1.7 1.7.4 1.1-.1 1.9-.8 2.7-2.4 3-4.7 6.1-7.1 9.2-.5.6-1.1.9-1.9.9-1.9.1-3.7.3-5.6.4-.4 0-.6-.1-1-.3-3.5-2-7.1-4-10.5-6.1-.3-.1-.5-.4-.5-.8.4-.3.3-.6.3-1z" style="fill:#5ba1da;stroke:#5ba1da;stroke-width:.8461;stroke-miterlimit:10"/><path class="st62" d="M296.4 227.1c-4.4-5-10.2-5.8-11.6-5.9-46.8-5-87.4-11.1-134.1-16-.6-.1-5.5-.4-8.8 3.3-2.4 2.7-2.5 5.8-2.5 6.8l1.7 84c.3 1.4 1.1 5 4.2 8.3 3.1 3.3 6.5 4.5 7.8 4.8 41.7 9.7 83.4 19.4 125.1 29.3.8.3 6.3 1.9 11.2-1.4 5.8-3.8 5.8-10.9 5.7-11.4 2.4-28.5 2.7-56.6 5.2-85.1.1-3.4 2.3-9.6-3.9-16.7zm-16 102.3-129.6-28.2-.9-83 135.9 17.9-5.4 93.3z"/><g><path class="st29" d="m205.2 260.2-1.2-.2v-10.1l-2.4.8v-1.4l3.4-1.1h.1l.1 12zM214.6 261.7l-6.1-.9v-1.1l3.2-4c.5-.6.8-1.1 1-1.5.1-.4.3-.9.3-1.3 0-.6-.1-1.2-.4-1.6s-.6-.6-1.2-.8c-.6-.1-1 .1-1.4.4s-.5.9-.5 1.7l-1.2-.1c0-1.1.3-1.9.9-2.5.5-.6 1.3-.9 2.2-.6.9.1 1.5.5 2 1.2s.8 1.4.8 2.4c0 1.2-.6 2.4-1.8 3.9l-2.4 3 4.7.8v1.1h-.1zM216 261.1c0-.3.1-.5.1-.6.1-.1.4-.3.5-.1.1.1.4.1.5.4.1.1.1.4.1.6 0 .3-.1.4-.1.6-.1.1-.4.1-.5.1s-.4-.1-.5-.4c-.1-.1-.1-.4-.1-.6zm0-7.2c0-.3.1-.5.1-.6.1-.1.4-.3.5-.1.1.1.4.1.5.4.1.1.1.4.1.6 0 .3-.1.4-.1.6s-.4.1-.5.1-.4-.1-.5-.4c-.1-.1-.1-.4-.1-.6zM224.9 258.3c0 1.8-.3 3-.6 3.8-.5.8-1.2 1.1-2.2.9-1-.1-1.7-.6-2.2-1.6-.5-.9-.6-2.2-.8-3.9v-2c0-1.8.3-3 .6-3.8.5-.8 1.2-1.1 2.2-.9 1 .1 1.7.6 2.2 1.6.5.9.6 2.2.8 3.9v2zm-1.2-2.4c0-1.3-.1-2.3-.4-2.9-.3-.6-.8-1-1.4-1.1s-1 .1-1.4.6c-.3.5-.4 1.4-.4 2.6v2.4c0 1.3.1 2.3.4 3s.8 1 1.4 1.1 1-.1 1.3-.6c.3-.5.4-1.4.4-2.7l.1-2.4zM232.1 259.4c0 1.8-.3 3-.6 3.8-.5.8-1.2 1.1-2.2.9-1-.1-1.7-.6-2.2-1.6-.5-.9-.6-2.2-.8-3.9v-2.1c0-1.8.3-3 .6-3.8.5-.8 1.2-1.1 2.2-.9 1 .1 1.7.6 2.2 1.6.5.9.6 2.2.8 3.9v2.1zm-1.2-2.3c0-1.3-.1-2.3-.4-2.9-.3-.6-.8-1-1.4-1.1-.6-.1-1 .1-1.4.6-.3.5-.4 1.4-.4 2.6v2.4c0 1.3.1 2.3.4 3s.8 1 1.4 1.1c.6.1 1-.1 1.3-.6s.4-1.4.4-2.7l.1-2.4z"/></g><path class="st62" d="M136.1 238.8c1.7 0 2.7-1.2 2.6-2.9l-.4-15c-.3-5.1-2.5-6.7-3.8-6.8-1.7-.1-2.6 2-2.5 3.7l.8 15.4c.1 2.7 1.1 5.6 3.3 5.6z"/><ellipse transform="rotate(-13.209 135.802 220.051)" cx="135.8" cy="220" rx="1.8" ry="2.3" style="fill:#2c3033"/><path d="M309 237.8c3 .3 5.2 2.9 5 5.8l-1.3 17.7c-.1 2.8-2.6 4.8-5.3 4.5-2.9-.3-5.1-2.9-4.9-5.7l1.2-17.7c0-2.8 2.5-4.8 5.3-4.6z" style="fill:none;stroke:#1b1f22;stroke-width:.9861;stroke-miterlimit:10"/><linearGradient id="SVGID_9_" gradientUnits="userSpaceOnUse" x1="228.696" y1="-2680.043" x2="228.696" y2="-2532.804" gradientTransform="matrix(1 0 0 -1 0 -2334)"><stop offset="0" style="stop-color:#b5b5b5;stop-opacity:.5"/><stop offset=".169" style="stop-color:#535251;stop-opacity:.163"/><stop offset=".251" style="stop-color:#292726;stop-opacity:0"/></linearGradient><path d="M296.3 311.5c-.4 5.8-.8 11.6-1.2 17.3.1.5.1 7.6-5.7 11.4-4.9 3.3-10.4 1.7-11.2 1.4-41.7-9.8-83.5-19.6-125.1-29.3-.5-.1-1.4-.4-2.4-.9h-6.1c3.1 2 6.6 3.7 10.4 4.6l33.8 8.6 7.8 7.9c2.4 2.4 5.3 4.1 8.5 4.8l15 3.7c3 .8 6.2.5 8.9-.8l8.9-4.2s5.3.5 35.6 7.8c30.4 7.3 36.8-7.8 37.8-15.9 0 0 .6-6.8 1.4-16.7l-16.4.3z" style="opacity:.5;fill:url(#SVGID_9_);enable-background:new"/><path d="m197.9 327.8 30.9 7.6-1.4 1.5c-1.9 2-4.8 2.9-7.6 2.1l-15.8-4.4c-2.7-.8-4.9-2.9-5.8-5.6l-.3-1.2z" style="fill:#111614"/><path d="M283.7 214.1c1.8 0 3.7.1 5.4.4.4.1.9.1 1.4.3.4.1.9.1 1.4.3l.6.1.6.1c.4.1.9.3 1.4.4 1.8.5 3.5 1.2 5.2 1.9 1.7.8 3.3 1.7 4.9 2.7 3.2 2 6 4.5 8.3 7.4 2.3 3 4 6.3 4.8 9.9h-.1c-.5-1.8-1.2-3.5-2.1-5.1-.9-1.6-1.9-3.2-3.2-4.5-2.4-2.8-5.3-5.2-8.3-6.9-1.6-.9-3.2-1.7-4.8-2.4-1.7-.6-3.4-1.4-5.1-1.9-.4-.1-.9-.3-1.3-.4l-.6-.1-.6-.1c-.4-.1-.9-.3-1.3-.4-.4-.1-.9-.3-1.4-.4-1.8-.4-3.5-.9-5.3-1.2l.1-.1z" style="fill:#6e6e6e"/><g><path d="m164.4 315.5-7.1-1.4-3.5-.6c-1.2-.1-2.4-.6-3.5-1.1-2.2-1-4.3-2.4-5.9-4.3-1.7-1.9-2.8-4.2-3.3-6.5-.3-1.2-.4-2.4-.6-3.7-.1-1.2-.1-2.4-.1-3.7-.1-2.4-.3-4.8-.4-7.2-.1-4.8-.3-9.6-.4-14.4-.1-9.6-.3-19.1-.4-28.8-.1-9.6-.1-19.1-.1-28.8h.1c.1 19.1.4 38.4.8 57.4.1 4.8.3 9.6.4 14.4.1 2.4.1 4.8.4 7.2 0 .6.1 1.2.1 1.8.1.6.1 1.2.3 1.8.1 1.2.4 2.4.6 3.5.6 2.3 1.6 4.4 3.2 6.2 1.5 1.8 3.3 3.3 5.4 4.3 1.1.5 2.1.9 3.3 1.2l3.5.9 6.9 1.7.3.1z" style="fill:#404040"/></g><linearGradient id="SVGID_10_" gradientUnits="userSpaceOnUse" x1="129.724" y1="-2591.835" x2="157.751" y2="-2591.835" gradientTransform="matrix(1 0 0 -1 0 -2334)"><stop offset="0" style="stop-color:#b5b5b5;stop-opacity:.5"/><stop offset=".488" style="stop-color:#535251;stop-opacity:.163"/><stop offset=".724" style="stop-color:#292726;stop-opacity:0"/></linearGradient><path d="m157.7 314.2-.4-.1-3.5-.6c-1.2-.1-2.4-.6-3.5-1.1-2.2-1-4.3-2.4-5.9-4.3-1.7-1.9-2.8-4.2-3.3-6.5-.3-1.2-.4-2.4-.6-3.7-.1-1.2-.1-2.4-.1-3.7-.1-2.4-.3-4.8-.4-7.2-.1-4.8-.3-9.6-.4-14.4-.1-9.6-.3-19.1-.4-28.8-.1-9.6-.1-19.1-.1-28.8h.1c.1 19.1.4 38.3.8 57.4.1 4.8.3 9.6.4 14.4.1 2.4.1 4.8.4 7.2 0 .6.1 1.2.1 1.8.1.3.1.6.1.8l-1.7-81.5c0-1 .1-4.2 2.5-6.8 3.3-3.7 8.2-3.4 8.8-3.3 2.4.3 4.7.5 7.1.8V199c-.2 0-.4 0-.6-.1-20.8-1.4-27.3 10.2-27.4 16.7l1.9 76.3c.6 10.3 10.5 21 23.2 24.2l2.8.7.1-2.6zm-21.6-75.4c-2.2 0-3.2-2.8-3.4-5.5l-.8-15.4c-.1-1.7.9-3.8 2.5-3.7 1.3.1 3.5 1.7 3.8 6.8l.4 15c.2 1.6-.9 2.8-2.5 2.8z" style="opacity:.5;fill:url(#SVGID_10_);enable-background:new"/></g><path class="st62" d="M159.8 133.6c.6-1.2.8-2.3.7-3.3 0-1-.3-1.9-.8-2.7l-6.2-10.4c-.4-.9-1-1.7-2.4-2.2-.6-.3-1.3-.4-2-.6l-5.3-.6-.6.6h-.2l-.7.7-.5 1.2-37.4-1.7h.4l-1.6-2.4v-.2l-4.8-.3c-.7 0-1.6.1-2.3.3-3.5.7-7.2 3.5-8.9 6.8-1 2-2.1 3.9-3.1 5.9-.7 1.5-1.5 3.1-.6 5.2-9.6 18.5-20.3 36.3-30.3 54.6-1.5.1-3.1.4-4.2 1.2-2.1 3.7-5.6 13.9-6.2 16.2-.4 2.2-.6 3.9-.7 5-.1.5-.4.9-.5 1.4-.2.6-.4 1.1-.6 1.7-7.6 19.4-16.4 36-26.2 51.2l-.8-.1-6.1 10.4c-.7.9-1.4 1.9-2 2.9-.1.6-.2 1.2-.3 1.7-.2.7-.1 1.1-.3 1.3-.4 3.8-.6 6.7-.7 8.3V286.8l-.1.4c0 1.2.7 3.2 3.3 5.6 1.1 1.1 5.1 5.3 7.6 2.9l.1-.1 42.1 15.8c.7.3 1.4.5 2.2.6 4.5.8 9.1-1 11.7-5 .1-.2.3-.4.4-.6.1-.2.2-.5.4-.6 2.2-5.5 4.3-10.8 6.6-16.2 3.9-8.7 8.2-17.4 13.5-27.1l1 4.5.1 2.7s.4 1.7 2 5.8c.1.7-.1 1.5.7 4-.3 2.7.1 6.3 3.3 7.6 0 0 3.1 6.8 12.9 4 0 0 .5 1 1.4 1.7 3.9 2.7 7.3-7.6 7.3-7.6s.6-10.6.7-13.7-1.4-4.2-6.8-5.5c0 0-1.4-20.1-3.1-33.5 1.9-2.4 3.4-4.4 4.2-5.4 2.7-3.5 5.3-8.5 7.3-14.8l-.3.3c.8-2.3.7-4.5.1-6.7v-.1l36.6-72.2z"/><g><path class="st70" d="m91.6 259.2 1.8 7.7.1 2.7s.4 1.7 2 5.8c.1.7-.1 1.5.7 4-.3 2.7.1 6.3 3.3 7.6 0 0 3.1 6.8 12.9 4 0 0 .5 1 1.4 1.7 3.9 2.7 7.3-7.6 7.3-7.6s.6-10.6.7-13.7c.1-3-1.4-4.2-6.8-5.5 0 0-1.7-23.7-3.5-36.9-.1-1-.3-2.1-.4-3l-3.5-.6-9.1 11-4.3 14.5-2.6 8.3z"/><path d="M94.1 251c2.5.1 6.3-.5 9.4-4 4.4-5 6.5-11.9 8-18-.1-1-.3-2.1-.4-3l-3.5-.6-9.1 11-4.4 14.6z" style="fill:#525252"/><path class="st44" d="M105.4 286.9c8.1-1.4 15.8-12.2 16.5-15.5.1-3.1-1.4-4.2-6.8-5.5l.5 1.8c1.9 2.2-1.9 17.5-10.2 19.2z"/><path class="st72" d="M5.7 277V277.8c0 .1.1.1.1.3v.2c0 .1 0 .1.1.1 0 .1 0 .1.1.1 0 .1.1.1.1.2s.1.1.1.1c0 .1.1.1.1.1l.1.1c0 .1.1.1.1.1l.1.1.2.2c0 .1.1.1.1.1l.1.1.1.1.4.4c.1 0 .1.1.1.1l.2.2c.1 0 .1.1.1.1l.1.1c.1 0 .1.1.1.1.1.1.1.1.2.1 0 0 .1 0 .1.1.1.1.1.1.2.1 0 0 .1 0 .1.1.1.1.1.1.2.1 0 0 .1 0 .1.1.1.1.1.1.2.1h.1c.1.1.1.1.2.1s.1.1.1.1l.1.1s.1 0 .1.1c.1 0 .1.1.2.1h-.3c.1.1.2.1.3.1l45.8 15c5 2 10.9.2 13.8-4.4.1-.2.3-.4.4-.6.1-.2.2-.5.4-.6 6.3-16.5 11.4-34.7 21.9-53.6 3.8-6.9 7.4-13.6 11.1-19.9 1.7-3 3.5-5.8 5.2-8.5l7.9-15.5 35-68.6 1.7-3.2c.4-.7.6-1.4.7-2.2V118.1c0-.2-.1-.4-.1-.6 0-.1-.1-.1-.1-.2-.1-.2-.1-.4-.2-.6 0-.1-.1-.1-.1-.1-.7-1.3-2.2-2.2-4.1-2.2l-6-.4-.7.7-.5 1.2-37.4-1.7-1.6-2.4-4.8-.3c-4-.1-8.9 3-10.8 7.1-1 2-2.1 3.9-3.1 5.9-.7 1.5-1.5 3.1-.6 5.2-9.6 18.5-20.3 36.4-30.4 54.7-3 5.5-6 10.9-8.9 16.4-.9 2.4-1.8 4.9-2.7 7.3-.2.6-.4 1.1-.6 1.7-9.9 25.1-21.8 45.6-35 64.3-.3 1.2-.5 2.1-.5 2.9z"/><path d="M123.4 212.2c-2.1 6.3-4.6 11.2-7.3 14.8s-15.2 19.9-15.2 19.9l6.2-10.9 9.3-15.6 7-8.2z" style="fill:#424242"/><path d="m5.7 277-.9 9.2v.8c-.1 1.2.7 3.2 3.3 5.6.4.2.7.4 1.1.5l6.4 2.4 42.2 15.8c.7.3 1.4.5 2.2.6 4.5.8 9.1-1 11.7-5 .1-.2.3-.4.4-.6.1-.2.2-.5.4-.6 2.2-5.5 4.3-10.8 6.6-16.2 4.8-10.6 10.3-21.4 17.3-34.1 3.7-6.8 7.3-13.4 10.8-19.6-1.7-5.3-2.1-9.6-1.6-13.2-1.4-3.1-2.1-4.5-2.1-4.5-3.7 6.3-7.3 13-11.1 19.9-10.4 18.9-16.7 36.5-23 53-.1.4-.3.7-.5 1-.1.2-.2.4-.4.6-3 4.6-7.5 6.5-12.5 4.7l-38.8-13-7-2.3c-.1 0-.2-.1-.3-.1h-.2c-.1 0-.1-.1-.2-.1 0 0-.1 0-.1-.1-.1 0-.1-.1-.1-.1-.1 0-.1-.1-.1-.1-.1-.1-.1-.1-.2-.1-.1-.1-.1-.1-.2-.1 0 0-.1 0-.1-.1-.1-.1-.1-.1-.2-.1 0 0-.1 0-.1-.1-.1-.1-.1-.1-.2-.1 0 0-.1 0-.1-.1-.1-.1-.1-.1-.2-.1s-.1-.1-.1-.1c-.1 0-.1-.1-.1-.1l-.1-.1-.2-.2c-.1 0-.1-.1-.1-.1l-.4-.4c0-.1-.1-.1-.1-.1l-.1-.1-.1-.1-.2-.2c0-.1-.1-.1-.1-.1 0-.1-.1-.1-.1-.1 0-.1-.1-.1-.1-.1l-.1-.1v-.2c-.1-.1-.1-.1-.1-.2s-.1-.1-.1-.1 0-.1-.1-.1v-.2c0-.1-.1-.1-.1-.3v-.5l.1-.2c-.1 0 0 0 0 0z" style="fill:#383838"/><path class="st75" d="M108.6 209.8c-1.8 2.7-3.5 5.5-5.2 8.5 0 0 .7 1.4 2.1 4.5-.5 3.6-.1 7.8 1.6 13.2 1.8-3.1 3.5-6 5.4-8.9l10.8-21.3 36.6-72.2c1.1-2.3 1-4.5-.1-5.9l-6.3-10.6c0 .1.1.1.1.2.1.2.1.4.2.6 0 .1.1.1.1.2.1.2.1.4.1.6V120.5c-.1.7-.4 1.4-.7 2.2l-1.7 3.2-35 68.6-8 15.3z"/><path class="st70" d="m142.5 135.7 4.4-1 1.5 2.1 4.5 10.4 6.9-13.6c1.1-2.3 1-4.5-.1-5.9l-6.6-11.2.6.9-.2-.4c0 .1.1.1.1.1 0 .1.1.1.1.1 0 .1.1.1.1.1v.1c0 .1 0 .1.1.1v.1c0 .1 0 .1.1.1 0 .1 0 .1.1.2 0 .1 0 .1.1.2V120.1c-.1.7-.4 1.4-.7 2.2l-1.7 3.2-.9 1.9-.2.4-3.2 1.7-5 6.2z"/><path class="st75" d="m7.2 280.3-.4-.4.4.4z"/><path class="st70" d="M43 202c-.6 4-.9 6.4-.9 6.4l.6-.4 1.5.3 1.1 1.4 3.5-6.3c-.9-1.1-1.4-2.6-1.2-4 .1-.4.2-.8.4-1.2l2.7-5.4v-.1c.4-.7.7-1.6.9-2.2-.1 1.3 2.4 2.4 5.2 2.9l.9-8.5c-1.9-.5-6.3-.7-8.5.8-2.1 3.9-5.7 14.1-6.2 16.3z"/><path class="st76" d="m56.8 193.5 48.1 8.2c1.8.4 3.6-.6 4.5-2.2l39.4-74.8c.7-1.5-.3-3.3-1.9-3.4l-46.6-2c-3-.1-5.9 1.4-7.4 4L55 189.5c-.9 1.8 0 3.8 1.8 4z"/><path class="st70" d="m84.8 124.3.9 1.2 1.8 7.1 5.2-9.2c1.5-2.6 4.4-4.2 7.4-4l4.2.2-1.4-6 .3-1.6-4.8-.3c-4-.1-8.9 3-10.8 7.1-.9 1.9-1.9 3.7-2.8 5.5z"/><path class="st76" d="M18.2 284.1c17 4 24.8 7.4 30.8 9.4 6 2.1 13.9 2.9 17.4-4.9 3.5-7.8 18-41.4 29.2-61.4 4.5-7.8 7.3-13 9.2-16.2-.4-.7-1.1-1.2-2.1-1.4-3.2-.5-48.9-7.7-48.9-7.7-3.3-.4-4.8-.8-8.3 7.1-3.5 7.9-13.6 30-28.1 53-5.6 9.1-14.9 18.4.8 22.1z"/><path class="st70" d="m100.9 218 2.4.1s.7 1.4 2.1 4.5c-.5 3.6-.1 7.8 1.6 13.2.4-.5 11.2-15 14.7-20.3 2.4-3.6 2.4-6.6 1.6-9.9-.4-1.5-.9-3.1-1.6-4.7-1.6-4.2-3.2-6.2-5.1-6.7-.5-.1-.9-.2-1.4-.2l-14.3 24z"/><path class="st77" d="m140 121.2 2.6-6.1c5.9.7 8.5.4 9.2 2.6.7 2.2-4.6 11.9-4.6 11.9l-4.5 6.4 5.2-10.9s1.7-2.5-.2-3.2c-1.9-.6-7.7-.7-7.7-.7z"/><path d="M153.6 117.4c-.4-1-1-1.8-2.4-2.3-.6-.3-1.3-.4-2-.6l-5.3-.6-1.3 1.3c5.9.7 8.5.4 9.2 2.6s-4.5 11.7-4.6 11.9l3.2-1.7 1.2-2.2 1.7-3.2c.9-2.3.9-3.7.3-5.2z" style="fill:#454545"/><path style="fill:#1b1b1b" d="m104.4 119.6-1.5-6 .2-1.5 1.7 2.5h-.8l.1 2.8 1 2.3z"/><path class="st77" d="M104.1 117.4c0 .1.1.4.4.8l.1.2.6 1.2s.3.8 2.5.9c2.2.2 30.1 1.7 30.1 1.7 1.6.1 3-.5 3.3-1.1-.3-.1-.9 0-.9 0l1.2-2.9.8-2c-1.5 1.9-1.7 3.7-5.8 3.6-4.1-.1-29.9-1.4-29.9-1.4-1.6 0-2.1-.3-2.4-1z"/><path class="st76" d="M104.1 117.4c0 .1.1.4.4.8 0 .1.1.1.1.1v.1c.4.6.8 1.2 1.3 1.3.6 0 30 1.4 32.1 1.4 2.2.1 2.8-1.9 3.3-2.8l.8-2c-1.5 1.9-1.7 3.7-5.8 3.6-4.1-.1-29.9-1.4-29.9-1.4-1.5-.1-2-.4-2.3-1.1z"/><path d="m85.7 228.2 2.9.6c1.3.3 3-.8 3.7-2.4l.1-.1c.4-.9.2-1.7-.6-1.9l-5-.9c-.7-.1-1.7.5-2.1 1.4l-.1.1c-.5 1.4-.2 2.9 1.1 3.2z" style="fill:#42adf1"/><path class="st72" d="m75.8 226.2 2.9.6c1.3.3 3-.8 3.7-2.3l.1-.1c.4-.9.2-1.7-.6-1.8l-5-.9c-.7-.1-1.7.5-2.1 1.3l-.1.1c-.6 1.5-.3 2.9 1.1 3.1zM65.9 224.4l2.9.6c1.3.3 3-.8 3.7-2.3l.1-.1c.4-.8.2-1.7-.6-1.8l-5-.9c-.7-.1-1.7.5-2.2 1.3l-.1.1c-.6 1.5-.2 2.9 1.2 3.1zM55.9 222.6l2.9.6c1.3.2 3-.7 3.7-2.2l.1-.1c.4-.8.2-1.7-.6-1.8l-5-.9c-.7-.1-1.7.4-2.2 1.2l-.1.1c-.6 1.5-.1 2.8 1.2 3.1zM45.9 220.8l2.9.6c1.3.2 3-.7 3.7-2.2l.1-.1c.4-.8.2-1.6-.6-1.7l-5-.9c-.7-.1-1.7.4-2.1 1.2l-.1.1c-.6 1.3-.2 2.7 1.1 3zM81.4 236.7l2.9.6c1.3.3 3-.7 3.7-2.3l.1-.1c.4-.9.2-1.7-.6-1.9l-4.9-1c-.7-.1-1.7.4-2.1 1.3l-.1.1c-.7 1.5-.2 3 1 3.3zM71.5 234.6l2.9.6c1.3.3 3-.7 3.7-2.2l.1-.1c.4-.9.2-1.7-.6-1.8l-5-.9c-.7-.1-1.7.4-2.1 1.3l-.1.1c-.6 1.4-.2 2.8 1.1 3zM61.5 232.6l2.9.6c1.3.3 3-.7 3.7-2.2l.1-.1c.4-.8.2-1.7-.6-1.8l-5-.9c-.7-.1-1.7.4-2.1 1.2l-.1.1c-.6 1.5-.1 2.8 1.1 3.1zM51.6 230.6l2.9.6c1.3.3 3-.7 3.7-2.2l.1-.1c.4-.8.2-1.7-.6-1.8l-5-.9c-.7-.1-1.7.4-2.2 1.2l-.1.1c-.5 1.5-.1 2.9 1.2 3.1zM41.7 228.7l2.9.6c1.3.3 3-.7 3.7-2.2l.1-.1c.4-.8.2-1.6-.6-1.7l-5-.9c-.7-.1-1.7.4-2.2 1.2l-.1.1c-.5 1.4-.1 2.8 1.2 3zM77.2 245.1l2.9.6c1.3.3 3-.7 3.7-2.2l.1-.1c.4-.9.2-1.7-.6-1.9l-5-1c-.7-.1-1.7.4-2.2 1.3l-.1.1c-.5 1.4-.1 2.8 1.2 3.2zM67.3 242.9l2.9.6c1.3.3 3-.7 3.7-2.2l.1-.1c.4-.8.2-1.7-.6-1.8l-5-1c-.7-.1-1.7.4-2.1 1.2l-.1.1c-.6 1.5-.3 2.9 1.1 3.2zM57.3 240.8l2.9.6c1.3.3 3-.7 3.7-2.2l.1-.1c.4-.8.2-1.7-.6-1.8l-5-1c-.7-.1-1.7.4-2.1 1.2l-.1.1c-.6 1.4-.3 2.9 1.1 3.2zM47.4 238.7l2.9.6c1.3.3 3-.7 3.7-2.2l.1-.1c.4-.8.2-1.6-.6-1.8l-5-1c-.7-.1-1.7.4-2.2 1.2l-.1.1c-.6 1.5-.1 2.9 1.2 3.2zM37.4 236.5l2.9.6c1.3.3 3-.7 3.7-2.1.4-.8.2-1.6-.6-1.7l-4.9-1.1c-.7-.1-1.7.4-2.1 1.2l-.1.1c-.7 1.4-.2 2.7 1.1 3zM72.9 253.4l2.9.7c1.3.3 3-.7 3.7-2.2l.1-.1c.4-.8.2-1.7-.6-1.9l-5-1.1c-.7-.1-1.7.4-2.2 1.2l-.1.1c-.4 1.5-.1 3 1.2 3.3zM63 251.1l2.9.7c1.3.3 3-.7 3.7-2.2l.1-.1c.4-.8.2-1.7-.6-1.9l-5-1.1c-.7-.1-1.7.4-2.2 1.2l-.1.1c-.5 1.6-.1 3 1.2 3.3zM53.1 248.8l2.9.7c1.3.3 3-.7 3.7-2.2l.1-.1c.4-.8.2-1.7-.6-1.8l-5-1.1c-.7-.1-1.7.4-2.1 1.2l-.1.1c-.7 1.6-.3 2.9 1.1 3.2zM43.1 246.5l2.9.7c1.3.3 3-.6 3.7-2.1l.1-.1c.4-.8.2-1.6-.6-1.8l-5-1.1c-.7-.1-1.7.4-2.1 1.2l-.1.1c-.7 1.5-.2 2.8 1.1 3.1zM33.1 244.4l2.9.6c1.3.3 3-.6 3.7-2.1l.1-.1c.4-.8.2-1.6-.6-1.7l-5-1.1c-.7-.1-1.7.4-2.2 1.2l-.1.1c-.5 1.3-.1 2.7 1.2 3.1zM68.7 261.6l2.9.7c1.3.4 3-.6 3.7-2.2l.1-.1c.4-.8.2-1.7-.6-1.9l-5-1.2c-.7-.2-1.7.4-2.2 1.2l-.1.1c-.5 1.7-.1 3.1 1.2 3.4zM58.7 259.2l2.9.7c1.3.4 3-.6 3.7-2.2l.1-.1c.4-.8.2-1.7-.6-1.9l-5-1.2c-.7-.2-1.7.4-2.2 1.2l-.1.1c-.5 1.7-.1 3.1 1.2 3.4zM48.8 256.8l2.9.7c1.3.4 3-.6 3.7-2.1l.1-.1c.4-.8.2-1.7-.6-1.8l-5-1.2c-.7-.1-1.7.4-2.1 1.2l-.1.1c-.6 1.5-.3 2.9 1.1 3.2zM38.8 254.4l2.9.7c1.3.4 3-.6 3.7-2l.1-.1c.4-.8.2-1.6-.6-1.8l-5-1.2c-.7-.1-1.7.4-2.2 1.1l-.1.1c-.5 1.5-.1 2.9 1.2 3.2zM28.9 252l2.9.7c1.3.4 3-.6 3.7-2l.1-.1c.4-.8.2-1.6-.6-1.7l-5-1.2c-.7-.1-1.7.4-2.1 1.1l-.1.1c-.6 1.4-.2 2.7 1.1 3.1z"/><path class="st81" d="m24 260.6 5.4 1.4c1.3.4 3-.6 3.7-1.9l.9-1.6c.4-.7.2-1.6-.6-1.7l-7.5-1.9c-.7-.2-1.7.3-2.2 1.1l-.9 1.6c-.5 1.3-.1 2.7 1.2 3zM36.4 263.8l5.4 1.4c1.3.4 3-.6 3.7-2l.9-1.7c.4-.8.2-1.6-.6-1.8l-7.3-1.8c-.7-.2-1.7.4-2.1 1.1l-.9 1.6c-.8 1.5-.4 2.9.9 3.2zM48.9 267l5.4 1.4c1.3.4 3-.6 3.7-2.1l.9-1.7c.4-.8.2-1.7-.6-1.9l-7.5-1.9c-.7-.2-1.7.4-2.2 1.2l-.9 1.7c-.5 1.6-.2 3 1.2 3.3zM61.3 270.3l5.4 1.4c1.3.4 3-.6 3.7-2.1l.9-1.7c.4-.8.2-1.7-.6-1.9l-7.4-1.9c-.7-.2-1.7.4-2.2 1.2l-.9 1.7c-.6 1.5-.2 2.9 1.1 3.3z"/><path class="st72" d="m61.3 270.3 5.4 1.4c1.3.4 3-.6 3.7-2.2l.9-1.7c.4-.8.2-1.7-.6-1.9l-7.5-1.9c-.7-.2-1.7.4-2.1 1.2l-.9 1.7c-.7 1.6-.2 3.1 1.1 3.4zM51.5 288.7l5.4 1.6c1.3.4 3-.5 3.7-2l5.8-10.9c.4-.8.2-1.7-.6-1.9l-7.5-2c-.7-.2-1.7.4-2.1 1.2l-5.8 10.7c-.6 1.4-.2 2.9 1.1 3.3z"/><path class="st81" d="m31.6 272.6 5.4 1.5c1.3.4 3-.5 3.7-1.9l.9-1.7c.4-.8.2-1.6-.6-1.8l-7.4-1.9c-.7-.2-1.7.3-2.1 1.1l-.9 1.6c-.7 1.3-.3 2.7 1 3.1zM44 276l5.4 1.5c1.3.4 3-.6 3.7-2l.9-1.7c.4-.8.2-1.7-.6-1.9l-7.5-2c-.7-.2-1.7.3-2.1 1.1l-.9 1.7c-.6 1.5-.1 2.9 1.1 3.3zM19.2 269.1l5.4 1.5c1.3.4 3-.5 3.7-1.9l.9-1.6c.4-.7.2-1.6-.6-1.8l-7.3-1.9c-.7-.2-1.7.3-2.1 1l-.9 1.6c-.8 1.4-.4 2.8.9 3.1zM26.7 281.2l5.4 1.6c1.3.4 3-.4 3.7-1.9l.9-1.6c.4-.7.2-1.6-.6-1.8l-7.5-2.1c-.7-.2-1.7.3-2.1 1l-.9 1.6c-.6 1.4-.2 2.8 1.1 3.2zM39.2 284.8l5.4 1.6c1.3.4 3-.5 3.7-1.9l.9-1.7c.4-.8.2-1.7-.6-1.9l-7.5-2.2c-.7-.2-1.7.3-2.1 1l-.9 1.6c-.6 1.6-.2 3.1 1.1 3.5zM14.5 277.6l5.4 1.6c1.3.4 3-.4 3.7-1.8l.9-1.6c.4-.7.2-1.6-.6-1.8l-7.5-2.1c-.7-.2-1.7.3-2.1 1l-.9 1.5c-.6 1.4-.2 2.8 1.1 3.2z"/><g><path d="M65.6 214.5c0-.2.1-.4.1-.6.4-.9 1-1.8 1.8-2.5.7-.7 1.5-1.4 2.3-1.9 1.5-.9 3.4-1.2 5.7-.7 2.2.4 3.7 1.3 4.1 2.7.2.7.2 1.6 0 2.4-.1.8-.5 2.2-1.3 2.7-1.9 1.5-12.7-.2-12.7-2.1z" style="fill:#ffc931"/></g><path class="st70" d="M62.3 317.3c6.1 1.6 10.8-1.9 14.3-10.1 1.2-3 4.4-11.2 4.4-11.2l-1.6-7.3-.4.9c-2.4 5.3-4.6 10.6-6.6 16.2-.1.2-.2.4-.4.6s-.2.4-.4.6c-2.5 3.9-7.2 5.8-11.7 5-.7 3.3.6 4.7 2.4 5.3z"/><path d="M15.6 286c5.5 3.2 24.2 8.7 31.7 9.5.6-2 1.1-2.5 1.1-2.5-3.6-3.2-25.3-9-29.1-9.1-1.7.2-2.9 1-3.7 2.1z" style="fill:#3d3d3d"/><path class="st70" d="M5.9 275.8c.2-.9.6-1.4.6-1.4l7.8-13.3 1.1.2 2.2.9-5.6 10.6s-1.7 2.7-2 5.2c-.4 3.2 6.5 5.6 8.4 6.3-1 .4-2.1 1.4-2.6 1.9 5.4 3.2 23.5 8.5 31.2 9.4.1 0 .1 0 .4.1.6-1.7 1.1-2.5 1.1-2.5l7.7 1.5c3.7.7 7.6-1.1 9.3-4.5l7.2-13.6 2.4.6 3.7 5c-1.2 5.9-7.3 21.9-14.7 25.5-7.3 3.6-13.5.3-13.5.3l-1.9-4.5c-10.3-1.4-22.8-5.5-29.3-9.1l-.6-.6.2.2c-.3.9-1 1.6-3 1.1l-.4.6c-2.4 2.4-6.4-1.8-7.6-2.9-2.5-2.4-3.3-4.4-3.3-5.6l.1-.4v-1.1c.1-1.6.4-4.5.7-8.3.2-.2.1-.6.4-1.6z"/><linearGradient id="SVGID_11_" gradientUnits="userSpaceOnUse" x1="-187.833" y1="-2552.934" x2="-113.118" y2="-2552.934" gradientTransform="scale(1 -1) rotate(4.139 -33092.521 2101.304)"><stop offset="0" style="stop-color:#454140"/><stop offset=".689" style="stop-color:#6d6b6b"/><stop offset="1" style="stop-color:gray"/></linearGradient><path style="opacity:.5;fill:url(#SVGID_11_);enable-background:new" d="m105.5 193.3-41.7-7.2L94 132.5l41.1 3.8z"/><g><path class="st29" d="M123.5 128.7c-.3.5-.5.9-.7 1.5-.4 0-.7-.1-.9-.1.7-1.4 1.4-2.7 2.1-4.1.1 0 .4 0 .5.1.4.1.9.1 1.3.1.6.1.7.5.7.9-.1.6-.6 1.3-1.6 1.7.1.5.1 1 .1 1.6l.1-.1c1-1.2 2.1-2.4 3.2-3.6.1-.1.2-.1.4-.1.4.1.6.1.9.1.1 0 .1 0 .1.1-.2 1.4-.5 2.7-.7 4v.1c-.4 0-.7-.1-1-.1-.1 0-.1-.1-.1-.1 0-.2.1-.4.1-.6 0-.1 0-.1-.1-.1-.4 0-.7-.1-1.1-.1-.1 0-.1 0-.2.1-.1.2-.4.4-.5.6-.1.1-.1.1-.2.1-.7-.1-1.4-.1-2-.2-.1 0-.1-.1-.1-.1-.2-.7-.2-1.2-.3-1.7.1 0 .1 0 0 0zm.4-.6h.6c.3 0 .6-.2.7-.5.1-.3.1-.6-.1-.6-.1-.1-.4-.1-.5-.1-.4.4-.6.8-.7 1.2zm4.1.9c.1-.4.1-.9.3-1.3-.4.4-.7.8-1 1.2.2 0 .4 0 .7.1zM118.4 129.8c.7-1.4 1.4-2.7 2.1-4h.1c.6.1 1.3.1 1.9.2.7.1.7.8.2 1.5-.3.3-.6.5-.9.6l.1.1c.4.2.4.5.2.9-.2.5-.6.9-1.1 1-.2.1-.4.1-.6.1-.6-.1-1.2-.1-1.7-.1-.2-.3-.3-.3-.3-.3zm1.4-.6c.1 0 .3 0 .4.1h.2c.3 0 .5-.1.6-.4.1-.3.1-.5-.1-.6s-.4-.1-.6-.1l-.1.1c-.2.3-.3.6-.4.9zm.8-1.7h.6c.2 0 .4-.1.5-.4.1-.2.1-.4-.1-.5-.1-.1-.4-.1-.6-.1 0 .4-.2.6-.4 1zM109.8 128.1c-.2 0-.4-.1-.6-.1 0-.1.1-.1.1-.1.2-.4.5-.9.7-1.3 0-.1.1-.1 0-.2-.1-.2-.1-.4-.2-.6-.4.7-.7 1.4-1.1 2.2-.2 0-.4-.1-.6-.1.5-.9.9-1.8 1.4-2.7-.2 0-.4 0-.6-.1l-.1.1-1.2 2.4c-.1.1 0 .1 0 .2v.1c.2.5.2.6-.2 1.2l-.1-.1c-.1-.4-.3-.7-.5-1-.1-.1 0-.2 0-.4.5-.9.9-1.9 1.4-2.9.1-.1.1-.2 0-.3-.2-.5-.4-.9-.7-1.5.2-.1.4-.1.6-.2.1 0 .1.1.1.1.2.5.4.9.7 1.4v.1s.1 0 .1-.1l.9-1.8c.4-.1.7.3.6.7-.1.5-.6.9-1.2 1.2.2 0 .4 0 .5.1.1 0 .1.1.1.1.1.2.1.4.3.6-.3 0-.6-.1-.7-.1l-.1.1c.1.2.1.4.3.6l.1.1c.2 0 .4 0 .6.1.1 0 .1.1.1.1.1.1.1.4.3.5h-.1c-.2 0-.5-.1-.7-.1.1.2.1.4.2.5s.1.2 0 .4c-.2.3-.4.6-.4.8zM117.8 127.1c.5.1.9.1 1.3.1-.1.3-.3.6-.4.8-.4-.1-.9-.1-1.4-.1-.1.3-.3.6-.4.8.5.1.9.1 1.4.1-.1.3-.3.6-.4.8-.7-.1-1.6-.1-2.3-.2.7-1.4 1.4-2.7 2.1-4.1.7.1 1.6.1 2.3.2-.1.3-.3.6-.4.8-.4-.1-.9-.1-1.3-.1-.2.4-.3.7-.5.9zM113.9 128.5c.6.1 1 .1 1.5.1-.3.3-.6.5-.7.7l-.1.1c-.8-.1-1.7-.1-2.6-.3 1.2-1 2.2-2.1 3.4-3.2-.6-.1-1-.1-1.5-.1.3-.3.6-.5.7-.7l.1-.1c.8.1 1.7.1 2.6.3-1.1 1.1-2.2 2.1-3.4 3.2z"/><path class="st29" d="M106.7 125.9c.1-.3.3-.5.4-.7v-.1c-.1-.4-.3-.7-.5-.9-.1-.1 0-.1.1-.2s.3-.2.4-.4c.1.2.1.4.2.5.1.3.3.6.4.8v.1c-.4.7-.7 1.5-1.2 2.2l-.1.1c0-.1 0-.1-.1-.2-.3-.6-.5-1.2-.7-1.7-.1-.1-.1-.4.1-.6.1-.1.2-.3.3-.4.2.6.4 1.1.7 1.5zM106.6 130.8l-.6-1.2-1.2-2.7v-.3c.1-.2.2-.4.4-.7 0 .1.1.1.1.1.6 1.2 1.1 2.4 1.7 3.7.1.1.1.1 0 .3l-.4.8zM109.8 128.2c.2 0 .4 0 .6.1.1-.2.2-.5.4-.7.2 0 .4 0 .6.1.1 0 .1.1.1.1l.3.6c.1.1 0 .2-.1.4-.3.4-.9.7-1.3.7-.5-.1-.7-.5-.5-.9-.2-.4-.1-.4-.1-.4 0-.1 0 0 0 0z"/></g></g><g><path d="M79 289.6c-2.4 5.3-4.6 10.6-6.6 16.2-.1.2-.2.4-.4.6s-.2.4-.4.6c-2.5 3.9-7.2 5.8-11.7 5-.7 3.5.6 4.8 2.2 5.3 6.1 1.6 10.8-1.9 14.3-10.1 1.2-3 4.4-11.2 4.4-11.2l-1.6-7.3-.2.9z" style="opacity:.5;fill:#666;enable-background:new"/></g><path class="st75" d="M-256.9 38.6v-.4.4z"/></svg>