<svg version="1.1" id="Layer_1" xmlns="http://www.w3.org/2000/svg" x="0" y="0" viewBox="0 0 540 360" style="enable-background:new 0 0 540 360" xml:space="preserve"><style>.st4{fill:#215495}.st5{fill:#f5fafd}.st6{fill:#fff}.st7{fill:#eaeaea}.st8{fill:#f7fbfe}.st9{fill:#dc661f}.st10{opacity:.2;fill:#205493;enable-background:new}.st12,.st15,.st16,.st17,.st18,.st19{fill:none;stroke:#fff;stroke-width:3.6527;stroke-linecap:round;stroke-miterlimit:10}.st15,.st16,.st17,.st18,.st19{stroke:#cee3f8}.st16,.st17,.st18,.st19{stroke:#fff;stroke-width:4.1121}.st17,.st18,.st19{stroke-width:1.8275}.st18,.st19{stroke:#385591;stroke-width:3.4249}.st19{stroke:#919191;stroke-width:.8318}.st20{font-family:&apos;Roboto-Bold&apos;}.st21{font-size:4.0804px}.st26{fill:#cee3f8}.st28,.st29,.st30{fill:none;stroke:#bfbfbf;stroke-width:5.0296;stroke-linecap:round;stroke-miterlimit:10}.st29,.st30{stroke-width:5.0771}.st30{stroke:#00bfbf;stroke-width:2.6024;stroke-linejoin:round}</style><path d="M522 296.2H25.8c-1.3 0-2.4-1-2.4-2.4V49.7h501v244.1c.1 1.4-1 2.4-2.4 2.4z" style="fill:#aed3ff"/><path class="st4" d="M524.5 60.5h-501v-22c0-1.3 1.1-2.5 2.5-2.5h496c1.3 0 2.4 1 2.4 2.4l.1 22.1z"/><path class="st5" d="M517.9 48.2c0-.7-.5-1.2-1.2-1.2h-13c-.7 0-1.2.5-1.2 1.2s.5 1.2 1.2 1.2h13c.7 0 1.2-.5 1.2-1.2zm0-4.7c0-.7-.5-1.2-1.2-1.2h-13c-.7 0-1.2.5-1.2 1.2s.5 1.2 1.2 1.2h13c.7 0 1.2-.6 1.2-1.2zm0 9.4c0-.7-.5-1.2-1.2-1.2h-13c-.7 0-1.2.5-1.2 1.2s.5 1.2 1.2 1.2h13c.7.1 1.2-.4 1.2-1.2z"/><path class="st6" d="M42.6 48.2c0 2.1-1.7 3.8-3.8 3.8S35 50.3 35 48.2s1.7-3.8 3.8-3.8c2.2.1 3.8 1.8 3.8 3.8zM56.3 48.2c0 2.1-1.7 3.8-3.8 3.8s-3.8-1.7-3.8-3.8 1.7-3.8 3.8-3.8 3.8 1.8 3.8 3.8zM70 48.2c0 2.1-1.7 3.8-3.8 3.8s-3.8-1.7-3.8-3.8 1.7-3.8 3.8-3.8c2.1.1 3.8 1.8 3.8 3.8z"/><path class="st7" d="M228 56h-26.8c-5.7 0-10.3-4.6-10.3-10.3V20.3c0-5.7 4.6-10.3 10.3-10.3H228c5.7 0 10.3 4.6 10.3 10.3v25.5c-.1 5.5-4.7 10.2-10.3 10.2z"/><path class="st8" d="M228 56h-26.8c-5.7 0-10.3-4.6-10.3-10.3V20.3c0-5.7 4.6-10.3 10.3-10.3H228c5.7 0 10.3 4.6 10.3 10.3v25.5c-.1 5.5-4.7 10.2-10.3 10.2z"/><path class="st4" d="M225.3 44.6c1.1-1.1 2-2.2 2.8-3.4.4-.7.2-1.5-.4-1.9-.7-.4-1.5-.2-1.9.4-.6 1.1-1.4 2-2.3 2.8-.4.2-.4.7-.4 1.1 0 .4.1.7.4.9.3.5 1.2.5 1.8.1zm-10-5.7c.6-.1.9-.6.8-1.1-.1-.6-.6-.9-1.1-.8h-.6v2c.5-.1.7-.1.9-.1zm3.4-1.8c1.1-1.1 1.7-2.6 1.7-4.1h-1.9c0 1.1-.4 2.1-1.2 2.8-.1.1-.2.4-.2.6 0 .2.1.4.2.7.1.1.4.2.7.2.4.1.6 0 .7-.2zm11.3-1.5c.1-.8.2-1.7.2-2.7h-2.8c0 .7-.1 1.5-.2 2.2-.1.7.4 1.5 1.2 1.7.8.1 1.6-.3 1.6-1.2zm-9.8 12.2c.7-.2 1.1-1.1.8-1.7-.2-.7-1.1-1.1-1.7-.8-1.4.6-3 .8-4.6.8v2.8c1.8-.2 3.6-.5 5.5-1.1zm5.3-14.9h-2.8c0 4.4-3.6 7.9-7.9 8.1h-.1v2.7h.2c5.7 0 10.6-4.8 10.6-10.8zM214.5 20v-2.8c-8.6 0-15.7 7.1-15.7 15.7h2.8c.1-7 5.8-12.9 12.9-12.9z"/><path class="st4" d="M203.7 32.9h2.8c0-4.4 3.6-8.1 8.1-8.1V22c-6 .1-10.9 5-10.9 10.9z"/><path class="st4" d="M214.4 28.9h.1V27h-.1c-1.5 0-3 .7-4.1 1.9-1.1 1.1-1.7 2.6-1.7 4h1.9c.1-2.1 1.8-4 3.9-4z"/><g><path class="st7" d="M284.6 56h-26.8c-5.7 0-10.3-4.6-10.3-10.3V20.3c0-5.7 4.6-10.3 10.3-10.3h26.8c5.7 0 10.3 4.6 10.3 10.3v25.5c-.1 5.5-4.7 10.2-10.3 10.2z"/><path class="st8" d="M284.6 56h-26.8c-5.7 0-10.3-4.6-10.3-10.3V20.3c0-5.7 4.6-10.3 10.3-10.3h26.8c5.7 0 10.3 4.6 10.3 10.3v25.5c-.1 5.5-4.7 10.2-10.3 10.2z"/><path class="st9" d="M281.9 44.6c1.1-1.1 2-2.2 2.8-3.4.4-.7.2-1.5-.4-1.9s-1.5-.2-1.9.4c-.6 1.1-1.4 2-2.3 2.8-.4.2-.4.7-.4 1.1 0 .4.1.7.4.9.3.5 1.2.5 1.8.1zm-9.9-5.7c.6-.1.9-.6.8-1.1-.1-.6-.6-.9-1.1-.8h-.6v2c.4-.1.6-.1.9-.1zm3.4-1.8c1.1-1.1 1.7-2.6 1.7-4.1h-1.9c0 1.1-.4 2.1-1.2 2.8-.1.1-.2.4-.2.6 0 .2.1.4.2.7.1.1.4.2.7.2.4 0 .5 0 .7-.2zm11.3-1.5c.1-.8.2-1.7.2-2.7h-2.8c0 .7-.1 1.5-.2 2.2-.1.7.4 1.5 1.2 1.7.7.1 1.4-.3 1.6-1.2zm-10 12.2c.7-.2 1.1-1.1.8-1.7-.2-.7-1.1-1.1-1.7-.8-1.4.6-3 .8-4.6.8v2.8c1.9-.2 3.7-.5 5.5-1.1zm5.3-14.9h-2.8c0 4.4-3.6 7.9-7.9 8.1h-.1v2.7h.2c5.9 0 10.6-4.8 10.6-10.8zM271.2 20v-2.8c-8.6 0-15.7 7.1-15.7 15.7h2.8c0-7 5.8-12.9 12.9-12.9z"/><path class="st9" d="M260.3 32.9h2.8c0-4.4 3.6-8.1 8.1-8.1V22c-6 .1-10.9 5-10.9 10.9z"/><path class="st9" d="M271.1 28.9h.1V27h-.1c-1.5 0-3 .7-4.1 1.9-1.1 1.1-1.7 2.6-1.7 4h1.9c0-2.1 1.8-4 3.9-4z"/></g><g><path class="st7" d="M341.2 56h-26.8c-5.7 0-10.3-4.6-10.3-10.3V20.3c0-5.7 4.6-10.3 10.3-10.3h26.8c5.7 0 10.3 4.6 10.3 10.3v25.5c-.1 5.5-4.7 10.2-10.3 10.2z"/><path class="st8" d="M341.2 56h-26.8c-5.7 0-10.3-4.6-10.3-10.3V20.3c0-5.7 4.6-10.3 10.3-10.3h26.8c5.7 0 10.3 4.6 10.3 10.3v25.5c-.1 5.5-4.7 10.2-10.3 10.2z"/><path class="st4" d="M338.5 44.6c1.1-1.1 2-2.2 2.8-3.4.4-.7.2-1.5-.4-1.9-.7-.4-1.5-.2-1.9.4-.6 1.1-1.4 2-2.3 2.8-.4.2-.4.7-.4 1.1 0 .4.1.7.4.9.3.5 1.3.5 1.8.1zm-10-5.7c.6-.1.9-.6.8-1.1-.1-.6-.6-.9-1.1-.8h-.6v2c.5-.1.7-.1.9-.1zm3.4-1.8c1.1-1.1 1.7-2.6 1.7-4.1h-1.9c0 1.1-.4 2.1-1.2 2.8-.1.1-.2.4-.2.6 0 .2.1.4.2.7.1.1.4.2.7.2.4.1.7 0 .7-.2zm11.4-1.5c.1-.8.2-1.7.2-2.7h-2.8c0 .7-.1 1.5-.2 2.2-.1.7.4 1.5 1.2 1.7.8.1 1.5-.3 1.6-1.2zm-9.9 12.2c.7-.2 1.1-1.1.8-1.7-.2-.7-1.1-1.1-1.7-.8-1.4.6-3 .8-4.6.8v2.8c1.9-.2 3.6-.5 5.5-1.1zm5.2-14.9h-2.8c0 4.4-3.6 7.9-7.9 8.1h-.1v2.7h.2c5.8 0 10.6-4.8 10.6-10.8zM327.8 20v-2.8c-8.6 0-15.7 7.1-15.7 15.7h2.8c-.1-7 5.7-12.9 12.9-12.9z"/><path class="st4" d="M316.9 32.9h2.8c0-4.4 3.6-8.1 8.1-8.1V22c-5.9.1-10.9 5-10.9 10.9z"/><path class="st4" d="M327.7 28.9h.1V27h-.1c-1.5 0-3 .7-4.1 1.9-1.1 1.1-1.7 2.6-1.7 4h1.9c0-2.1 1.8-4 3.9-4z"/></g><g><path class="st10" d="M527.3 186.1H415.8c-2 0-3.6 1.6-3.6 3.6v68.1c0 2 1.6 3.6 3.6 3.6h111.5c2 0 3.6-1.6 3.6-3.6v-68.2c-.1-1.9-1.6-3.5-3.6-3.5zM527.3 275.1H415.8c-2 0-3.6 1.6-3.6 3.6v68.1c0 2 1.6 3.6 3.6 3.6h111.5c2 0 3.6-1.6 3.6-3.6v-68.2c-.1-1.9-1.6-3.5-3.6-3.5zM527.3 97.2H415.8c-2 0-3.6 1.6-3.6 3.6v68.1c0 2 1.6 3.6 3.6 3.6h111.5c2 0 3.6-1.6 3.6-3.6v-68.1c-.1-2-1.6-3.6-3.6-3.6z"/><linearGradient id="SVGID_2_" gradientUnits="userSpaceOnUse" x1="416.148" y1="1637.285" x2="534.952" y2="1637.285" gradientTransform="translate(0 -1418)"><stop offset="0" style="stop-color:#0078e0"/><stop offset=".028" style="stop-color:#007ae1"/><stop offset=".669" style="stop-color:#00a2f7"/><stop offset="1" style="stop-color:#00b2ff"/></linearGradient><path d="M531.3 181.6H419.8c-2 0-3.6 1.6-3.6 3.6v68.1c0 2 1.6 3.6 3.6 3.6h111.6c2 0 3.6-1.6 3.6-3.6v-68.1c-.1-2-1.7-3.6-3.7-3.6z" style="fill:url(#SVGID_2_)"/><path class="st12" d="M454.6 202.1h32.6M454.6 215.3h67.3M454.6 223.3h67.3M454.6 231.1h34.7"/><g><path class="st5" d="M439.2 217.5v-7.4c0-3.2-2.4-5.9-5.5-6.4v-.7c0-.6-.4-.9-.9-.9-.6 0-.9.4-.9.9v.7c-3.1.5-5.5 3.1-5.5 6.4v7.4c-.9.4-1.5 1.3-1.5 2.4h16c-.2-1.1-.9-2-1.7-2.4zM432.6 223.9c1.7 0 3.1-1.4 3.1-3.1h-6.3c.1 1.7 1.5 3.1 3.2 3.1z"/></g><g><linearGradient id="SVGID_3_" gradientUnits="userSpaceOnUse" x1="416.148" y1="1726.207" x2="534.952" y2="1726.207" gradientTransform="translate(0 -1418)"><stop offset="0" style="stop-color:#da661f"/><stop offset=".093" style="stop-color:#db6b26"/><stop offset=".691" style="stop-color:#e3864e"/><stop offset="1" style="stop-color:#e6915e"/></linearGradient><path d="M531.3 270.5H419.8c-2 0-3.6 1.6-3.6 3.6v68.1c0 2 1.6 3.6 3.6 3.6h111.6c2 0 3.6-1.6 3.6-3.6v-68.1c-.1-2-1.7-3.6-3.7-3.6z" style="fill:url(#SVGID_3_)"/><path class="st12" d="M454.6 288.6h32.6M454.6 301.8h67.3M454.6 309.7h67.3M454.6 317.6h34.7"/><path class="st5" d="M439.1 290.8v-1.3c0-2.8-2-5.4-4.9-5.7-3.4-.4-6.3 2.2-6.3 5.5v1.5h-.1c-1.7 0-3 1.4-3 3v7.6c0 1.7 1.4 3 3 3h11.3c1.7 0 3-1.4 3-3v-7.6c0-1.6-1.4-3-3-3zm-4.7 7v3.2h-2v-3.2c-.6-.4-.9-.9-.9-1.7 0-1.1.9-2 2-2s2 .9 2 2c-.2.8-.5 1.4-1.1 1.7zm1.9-7h-5.7v-1.5c0-1.6 1.2-2.8 2.8-2.8 1.6 0 2.8 1.2 2.8 2.8l.1 1.5z"/></g><g><linearGradient id="SVGID_4_" gradientUnits="userSpaceOnUse" x1="416.148" y1="1548.291" x2="534.952" y2="1548.291" gradientTransform="translate(0 -1418)"><stop offset="0" style="stop-color:#205493"/><stop offset=".409" style="stop-color:#235ca0"/><stop offset="1" style="stop-color:#2665b0"/></linearGradient><path d="M531.3 92.6H419.8c-2 0-3.6 1.6-3.6 3.6v68.1c0 2 1.6 3.6 3.6 3.6h111.6c2 0 3.6-1.6 3.6-3.6V96.2c-.1-2-1.7-3.6-3.7-3.6z" style="fill:url(#SVGID_4_)"/><path class="st15" d="M454.6 110.6h32.6M454.6 123.8h67.3M454.6 131.7h67.3M454.6 139.6h34.7"/><path class="st5" d="M442.8 121c-.5-.3-.9-.7-1.5-.9-.1-.1-.2-.1-.2-.2.1-.4.1-.9.1-1.5 0-.5-.1-.9-.1-1.5l.2-.2c.5-.3.9-.7 1.5-.9.4-.2.5-.6.4-.9-.4-1.2-1-2.3-1.9-3.3-.4-.6-.7-.6-1.2-.2-.5.3-1 .8-1.5.9h-.1c-.7-.7-1.5-1.1-2.5-1.4-.1-.1-.1-.4-.1-.7.1-.4 0-.9 0-1.2 0-.6-.1-.7-.7-.9-.4-.1-.7-.1-1.1-.2h-1.6c-.4.1-.7.1-1.1.2-.6.1-.7.3-.7.9v1.7c0 .1 0 .2-.1.3-.9.4-1.7.9-2.5 1.5-.1 0-.1-.1-.2-.1-.5-.3-1-.7-1.5-.9-.3-.1-.7-.1-.8.1-1 1-1.7 2.2-2.2 3.6-.1.4.1.7.4.9.5.3.9.7 1.5.9.1.1.2.1.3.2-.1.4-.1.9-.1 1.5s.1.9.1 1.4c-.1.1-.1.1-.1.2-.5.3-.9.7-1.5.9-.4.3-.7.5-.4.9.4 1.2.9 2.2 1.8 3.2.5.7.7.7 1.4.2.5-.3.9-.8 1.5-.8h.1c.7.7 1.5 1.1 2.5 1.4.1.1.1.4.1.7-.1.4 0 .9 0 1.2 0 .6.1.7.7.9.4.1.7.1 1.1.2h1.6c.4-.1.7-.1 1-.2.7-.1.8-.3.8-.9v-1.7c0-.1.1-.1.1-.2.9-.4 1.7-.9 2.5-1.5.1 0 .1.1.3.1.5.3.9.7 1.5.9.4.2.7.1.9-.1.9-1 1.7-2.2 2.2-3.6-.4-.4-.5-.6-.9-.9zm-6.3-2.5c0 1.7-1.5 3.3-3.3 3.3-1.7 0-3.3-1.5-3.3-3.3 0-1.7 1.5-3.3 3.3-3.3 1.9 0 3.3 1.5 3.3 3.3z"/></g></g><g><path class="st10" d="M306.7 229.5v-2.2c0-1.8-1.5-3.2-3.2-3.2H174.3c-1.8 0-3.2 1.5-3.2 3.2v117.2c0 3.6 2.9 6.5 6.5 6.5h122.9c3.6 0 6.5-2.9 6.5-6.5v-115h-.3z"/><path class="st8" d="M302.6 346.3H182.4c-3.5 0-6.3-2.8-6.3-6.3V227.6h132.7V340c.1 3.5-2.8 6.3-6.2 6.3z"/><path class="st4" d="M308.7 242H176.1v-16.6c0-1.7 1.4-3.1 3.1-3.1h126.5c1.7 0 3.1 1.4 3.1 3.1l-.1 16.6z"/><path class="st16" d="M198.7 232.6h85"/><path class="st17" d="m184.6 229.6 6 6M190.6 229.6l-6 6"/><circle class="st6" cx="296.5" cy="232.6" r="3.2"/><path class="st9" d="M256 263.9c0 1.2-.1 2.6-.5 3.8-.3.9-1.2 1.5-2.1 1.2-.9-.3-1.5-1.2-1.2-2.1.3-.9.4-1.9.4-2.8 0-3.3-1.7-6.3-4.4-8.2-.8-.5-.9-1.6-.4-2.3.5-.8 1.6-.9 2.3-.4 3.7 2.2 5.9 6.3 5.9 10.8zm-4.7 7.9c-.7-.7-1.6-.9-2.4-.3-1.8 1.5-3.8 2.1-6.1 2.1-5.4 0-9.8-4.4-9.8-9.8s4.4-9.7 9.6-9.8c.9 0 1.7-.8 1.7-1.7 0-.9-.8-1.7-1.7-1.7-7 .1-12.9 6.1-12.9 13.2 0 7.3 5.9 13.2 13.2 13.2 3 0 5.8-.9 8.1-2.8.4-.4.7-.8.7-1.3-.1-.4-.2-.8-.4-1.1zM207.8 277.1c-1.2 0-2.6-.1-3.8-.5-.9-.3-1.5-1.2-1.2-2.1s1.2-1.5 2.1-1.2c.9.3 1.9.4 2.8.4 3.3 0 6.3-1.7 8.2-4.4.5-.8 1.6-.9 2.3-.4.8.5.9 1.6.4 2.3-2.3 3.6-6.5 5.9-10.8 5.9zm-7.9-4.8c.7-.7.9-1.6.3-2.4-1.5-1.8-2.1-3.8-2.1-6.1 0-5.4 4.4-9.8 9.8-9.8s9.7 4.4 9.8 9.6c0 .9.8 1.7 1.7 1.7.9 0 1.7-.8 1.7-1.7-.2-7.1-6.1-13-13.2-13-7.3 0-13.2 5.9-13.2 13.2 0 3 .9 5.8 2.8 8.1.4.4.8.7 1.3.7.3 0 .7-.1 1.1-.3zM278 250.7c1.2 0 2.6.1 3.8.5.9.3 1.5 1.2 1.2 2.1-.3.9-1.2 1.5-2.1 1.2-.9-.3-1.9-.4-2.8-.4-3.3 0-6.3 1.7-8.2 4.4-.5.8-1.6.9-2.3.4-.8-.5-.9-1.6-.4-2.3 2.2-3.7 6.3-5.9 10.8-5.9zm8 4.7c-.7.7-.9 1.6-.3 2.4 1.5 1.8 2.1 3.8 2.1 6.1 0 5.4-4.4 9.8-9.8 9.8s-9.7-4.4-9.8-9.6c0-.9-.8-1.7-1.7-1.7-.9 0-1.7.8-1.7 1.7.1 7 6.1 12.9 13.2 12.9 7.3 0 13.2-5.9 13.2-13.2 0-3-.9-5.8-2.8-8.1-.4-.4-.8-.7-1.3-.7-.4 0-.9.2-1.1.4z"/><path class="st18" d="M199.1 283.3h17.3M199.1 292.1h17.3M234.2 283.3h17.4M234.2 292.1h17.4M269.2 283.3h17.5M269.2 292.1h17.5"/><path class="st19" d="M204.4 313H288M204.4 324.9H288M204.4 301.1H288M204.4 336.7H288"/><text transform="translate(197.647 301.81)" class="st4 st20 st21">10</text><text transform="translate(197.647 319.738)" class="st4 st20 st21">50</text><text transform="translate(197.647 337.73)" class="st4 st20 st21">60</text><text transform="translate(210.65 342.074)" class="st4 st20 st21">Ene            Feb            Mar           Abr</text><path d="M206.5 305.1c2.8-.1 5.2 2.5 6.8 5.7 1.6 3.1 2.5 6.7 3.9 10s3.5 6.3 6.2 7c2.2.6 4.6-.5 6.5-2.2 1.9-1.7 3.6-4 5.4-5.9 5.7-6.4 12.8-10.1 20.2-10.4 5.6-.2 11.2 1.5 16.8 1.9 5.6.4 11.7-1 15.7-6.3" style="fill:none;stroke:#464646;stroke-width:1.6637;stroke-linecap:round;stroke-miterlimit:10"/><path d="M207.3 336.1c5.1-6.5 10.4-12.9 16.3-17.6 6-4.8 12.9-7.8 19.7-6.7 5.5.9 10.6 4.3 15.9 6.7 9.2 4.4 19.1 5.8 28.8 4.2" style="fill:none;stroke:#919191;stroke-width:1.6637;stroke-linecap:round;stroke-miterlimit:10"/></g><g><path class="st10" d="M97.2 94.8H10.9c-2.2 0-3.9 1.7-3.9 3.9v113.7c0 2 1.6 3.6 3.6 3.6h86.9c2 0 3.6-1.6 3.6-3.6V98.6c0-2.1-1.8-3.8-3.9-3.8z"/><path class="st6" d="M99.8 210.5H15.1c-1.9 0-3.5-1.6-3.5-3.5V102.5c0-1.9 1.6-3.5 3.5-3.5h84.6c1.9 0 3.5 1.6 3.5 3.5v104.8c.1 1.7-1.5 3.2-3.4 3.2z"/><path class="st4" d="m103.3 110.5-.1-14.5c0-2.1-1.7-3.8-3.8-3.8h-84c-2.1 0-3.8 1.7-3.8 3.8l.1 14.4h91.6z"/><circle class="st6" cx="94.6" cy="100.6" r="3.8"/><path style="fill:#205493" d="M23.1 119.2h68.7v80.3H23.1z"/><path class="st6" d="M29.6 130h55.7v10H29.6zM29.6 148h55.7v10H29.6zM29.6 165.9h55.7v10H29.6z"/><path style="fill:#feba4a" d="M40.6 181.8h33.7v8.6H40.6z"/></g><g><path class="st10" d="M397.4 226.3h-78c-1.9 0-3.5 1.6-3.5 3.5v39.8-39 116.6c0 1.8 1.5 3.2 3.2 3.2h78.5c1.8 0 3.2-1.5 3.2-3.2V229.8c.1-1.9-1.3-3.5-3.4-3.5z"/><path class="st8" d="M399 345.6h-76.4c-1.7 0-3.1-1.4-3.1-3.1V242h82.7v100.6c-.1 1.6-1.5 3-3.2 3z"/><path class="st26" d="M392.6 286.6c0-.1-.1-.2-.1-.3v-.1c-.1-.1-.1-.1-.1-.2-.1-.1-.1-.1-.2-.1l-15-7V261c0-.1 0-.1-.1-.2v-.1c-.1-.1-.1-.1-.1-.2-.1-.1-.1-.1-.2-.1l-15.5-7.2c-.1 0-.1 0-.1-.1h-.2c-.1 0-.1 0-.1.1l-15.5 7.2c-.1 0-.1.1-.2.1-.1.1-.1.1-.1.2v.1c0 .1-.1.1-.1.2V278.9l-15 7c-.1 0-.1.1-.2.1-.1.1-.1.1-.1.2v.1c0 .1-.1.1-.1.2v17.8c0 .3.1.6.4.7l15.5 7.8c.1 0 .1.1.1.1h.4c.1 0 .1 0 .1-.1l15.2-7.6 15.2 7.6s.1 0 .1.1h.7l15.5-7.8c.3-.1.4-.4.4-.7l-.6-17.8zm-16.3 6.7-13.6-6.6 13.6-6.3 13.6 6.3-13.6 6.6zm-31.1 0-13.6-6.7 13.6-6.3 13.6 6.3-13.6 6.7zm15.5-38.4 13.6 6.3-13.6 6.7-13.6-6.7 13.6-6.3zm14.7 24-13.9 6.5v-16l13.9-6.7v16.2zm-15.5-9.6v16l-13.9-6.5v-16.4l13.9 6.9zm-29.4 34.6V288l13.9 6.7v16l-13.9-6.8zm15.5-9.1 13.9-6.7V304l-13.9 7v-16.2zm15.5-6.8 13.9 6.7v16l-13.9-7V288zm15.6 22.9v-16.1l13.9-6.7V304l-13.9 6.9z"/><path class="st4" d="M319.4 242v-16.6c0-1.7 1.4-3.1 3.1-3.1H399c1.7 0 3.1 1.4 3.1 3.1V242h-82.7z"/><path class="st16" d="M328.2 232.6h48.6"/><path style="fill:none;stroke:#fff;stroke-width:3.655;stroke-linecap:round;stroke-miterlimit:10" d="M385 232.6h8.9"/></g><g><path class="st10" d="M161.5 229.5v-2.2c0-1.8-1.5-3.2-3.2-3.2H8.5c-1.8 0-3.2 1.5-3.2 3.2v117.2c0 3.6 2.9 6.5 6.5 6.5h143.4c3.6 0 6.5-2.9 6.5-6.5v-115h-.2z"/><path class="st8" d="M157.4 346.3H16.7c-3.5 0-6.3-2.8-6.3-6.3V227.6h153.3V340c0 3.5-2.9 6.3-6.3 6.3z"/><path class="st26" d="M67.4 307.1c0 2.4-1.9 4.3-4.3 4.3H22.5c-2.5 0-4.4-2-4.4-4.4v-50c0-2.4 1.9-4.3 4.3-4.3h40.8c2.4 0 4.3 1.9 4.3 4.3l-.1 50.1z"/><path class="st28" d="M77.2 269.9h60.5M77.2 280.3h40.1M77.2 299.5h60.7M77.2 308.6h25.5M77.2 259h60.5"/><g><path class="st4" d="M47.2 281.5v-1.2c-.1-1.7-.8-3.1-2-4.1-.9-.8-2-1.2-3.3-.9-1.7.4-3 1.7-3.3 3.6-.1.9-.1 2-.3 3-.1.8-.2 1.5-.4 2.2-.7 1.7-1.8 3-3.3 4-1.4.9-2.9 1.5-4.6 1.5-.5 0-.9.4-.9.9s.4.9.9.8c.6 0 1.2-.1 1.7-.2 1.9-.4 3.5-1.2 4.9-2.4 1.5-1.3 2.5-2.9 3.1-4.8.3-1.1.3-2.2.4-3.3.1-.7.1-1.4.3-2 .3-1 1.8-2.2 3.2-1.4.9.5 1.5 1.2 1.8 2.2.3.8.3 1.5.2 2.4-.1 1.8-.4 3.6-1 5.4-.7 2.1-1.8 4.1-3.3 5.7-1.4 1.5-3.1 2.6-5.2 3.3-.6.2-1.2.4-1.6.9-1 .9-1.2 2-.7 3.1.2.4.7.6 1 .4.4-.1.6-.5.5-.9 0-.1-.1-.3-.1-.4-.1-.4 0-.9.4-1 .3-.2.7-.4 1.1-.5 2-.7 3.6-1.6 5-3 1.8-1.7 3.1-3.7 4.1-5.9.7-2.6 1.2-5 1.4-7.4zm3.7-.4c0-1-.1-2-.4-3-.6-1.6-1.5-3-2.8-4.2-.6-.5-1.3-.9-2-1.4-1.4-.7-2.8-.9-4.2-.8-1.5.1-2.8.7-3.9 1.6-1.6 1.4-2.5 3.3-2.8 5.4-.1.8-.2 1.5-.4 2.3-.4 1.5-1.2 2.8-2.5 3.7-.9.7-2 1-3.1 1.2-.5.1-.9.4-.8.9.1.4.4.8.9.7 1.8-.3 3.4-.9 4.8-2.1 1.5-1.4 2.3-3.2 2.5-5.3.1-1.2.3-2.2.9-3.3.5-1.2 1.3-2.2 2.5-2.8 1.6-.9 3.3-.9 5.1-.3 2.6 1 5.2 4.2 4.8 7.9-.2 1.8-.7 3.5-1.3 5.1-.4 1.2-.9 2.5-1.2 3.7-.3.9-.4 1.9-.3 2.8.1 1.2.7 2 1.7 2.5.2.1.4.2.6.2.4.1.8-.2.9-.6.1-.4-.1-.9-.5-.9-.3-.1-.6-.3-.9-.6-.3-.4-.4-.9-.3-1.5.1-1 .4-2 .8-3 .5-1.7 1.1-3.3 1.5-4.9.2-.9.3-2.1.4-3.3zm3.6.4c0-1.2-.1-2.5-.4-3.6-.5-2.1-1.5-4-3-5.6-3.1-3.4-7-4.8-11.5-3.9-1.5.3-3 .9-4.2 2-.4.3-.4.9-.2 1.1.3.4.9.4 1.2.1 1.2-.9 2.5-1.5 4.2-1.7 1.6-.2 3.1-.1 4.6.4 2 .7 3.5 1.7 4.8 3.3 1.7 2 2.5 4.2 2.8 6.8.1 2.9-.4 5.7-1.5 8.3-.3.8-.7 1.5-.7 2.4-.2 2 .9 3.8 2.8 4.5.4.1.8 0 .9-.3.3-.4.1-.9-.4-1.2-.5-.3-.9-.5-1.3-1-.7-.9-.7-2-.3-3.1.2-.6.4-1.1.7-1.7 1-2.3 1.4-4.6 1.5-6.8zM42.3 264c-.9 0-2 .1-2.9.3-3.6.7-6.3 2.5-8.6 5.4-.9 1.2-1.5 2.5-2.1 3.8-.3.8-.5 1.5-.8 2.4-.1.5.1.9.6 1 .4.1.9-.2.9-.7.4-1.5.9-2.8 1.7-4.1 1.5-2.6 3.6-4.5 6.5-5.7 2.8-1.1 5.7-1.1 8.6-.2 2 .7 3.8 1.7 5.3 3.1 1.6 1.5 2.8 3.3 3.6 5.4.3.8.5 1.5.8 2.3.1.5.6.8 1.1.7.4-.1.7-.6.5-1-.4-1.6-1-3.1-1.9-4.6-1.1-2-2.5-3.6-4.2-4.9-2.8-2-5.8-3.1-9.1-3.2zm-.5-3.9c-.5.1-1.4.1-2.3.3-2.5.4-4.9 1.4-7.1 3-.8.5-1.4 1.2-2.1 1.7-.3.2-.4.5-.3.9.1.7.9.9 1.4.4.9-.9 2-1.6 3-2.2 3.3-2 7-2.5 10.7-2 1.1.2 2.1.5 3.1.9 2 .8 3.6 2 5.1 3.3.4.4.9.4 1.2 0 .3-.4.3-.9-.1-1.2-.3-.3-.7-.7-1-.9-2.1-1.7-4.4-3-7.1-3.6-1.3-.5-2.7-.5-4.5-.6zm8.1 40.2c1.3 0 2.3-.4 3.3-1 .4-.3.5-.7.3-1.2-.3-.4-.7-.5-1.2-.3-.3.1-.5.3-.8.4-.7.3-1.4.4-2.2.3-.7-.1-1.3-.5-1.8-.9l-1.8-1.5c-.4-.3-.9-.6-1.5-.5-.7 0-1.4.4-1.8.9l-2 2c-1.2 1.2-2.5 2.2-4.3 2.5-.4.1-.7.5-.7.9.1.4.5.7.9.7 1.4-.3 2.6-.9 3.8-1.8.9-.7 1.5-1.5 2.3-2.2.4-.4.8-.8 1.2-1.1.4-.4.7-.3 1.1 0 .1.1.2.1.3.3.8.7 1.5 1.4 2.3 1.9 1 .3 1.8.6 2.6.6zm-21.8-16.6c.2 0 .3-.1.5-.1 1.5-.2 2.5-.9 3.3-2.2.4-.9.7-1.8.9-2.6.3-1.7.8-3.3 1.7-4.9.2-.3.1-.7-.1-.9-.4-.4-1-.4-1.4.1-.7 1.2-1.2 2.4-1.5 3.6-.3.9-.4 2-.7 2.9-.4 1.5-1.3 2.4-3 2.5-.4 0-.8.4-.8.9.2.4.6.7 1.1.7zm30.2.2c0-1.2-.1-2.2-.3-3.3-.1-.4-.5-.8-.9-.7-.4.1-.7.5-.7.9.1.4.1.7.1 1.1.1 1.4.1 2.6-.1 4.1-.3 2-.9 3.9-1.7 5.7-.2.4-.1.9.3 1.2.4.2.9.1 1.2-.4.4-.9.9-2 1.2-2.9.6-1.9.9-3.8.9-5.7zm-14.5-3.1V280c0-.5-.3-.9-.8-.9s-.9.4-.9.9c-.1.8-.1 1.6-.1 2.4-.3 2.5-1.1 4.8-2.5 6.8-.3.4-.3.9.1 1.2.4.3.9.3 1.2-.1.5-.8 1-1.5 1.5-2.4.9-2.3 1.3-4.6 1.5-7.1zm1.4 20.4c-.2 0-.4 0-.6.1-1.4.1-2.5.5-3.7 1.2-.2.1-.3.3-.4.5-.1.3 0 .7.3.9.3.2.7.2 1 0 1.5-.9 3.2-1.2 4.9-.9l1.2.3c.4.1.9-.2.9-.6.1-.4-.1-.9-.6-.9-.9-.4-2-.6-3-.6zm-13.5-6c.3-.1.7-.1 1-.2 1.9-.4 3.6-1.2 5.1-2.2.4-.3.5-.8.3-1.2-.3-.4-.8-.4-1.2-.1-.9.7-2 1.2-3.1 1.5-.8.3-1.6.4-2.5.7-.4.1-.7.4-.7.9.3.3.7.6 1.1.6z"/><path class="st4" d="M47.2 281.5c-.1 2.5-.7 4.8-1.6 7-.9 2.2-2.2 4.2-4.1 5.9-1.5 1.4-3.1 2.4-5 3-.4.1-.7.3-1.1.5-.4.3-.5.6-.4 1 0 .1.1.3.1.4.1.4-.1.8-.5.9-.4.1-.9 0-1-.4-.4-1.1-.3-2.3.7-3.1.4-.4 1-.7 1.6-.9 2-.7 3.8-1.7 5.2-3.3 1.5-1.7 2.5-3.6 3.3-5.7.6-1.7.9-3.5 1-5.4.1-.8.1-1.6-.2-2.4-.3-.9-.9-1.7-1.8-2.2-1.4-.8-3 .4-3.2 1.4-.1.7-.3 1.4-.3 2-.1 1.1-.1 2.2-.4 3.3-.5 2-1.6 3.6-3.1 4.8-1.4 1.2-3.1 2-4.9 2.4-.6.1-1.1.1-1.7.2-.4 0-.9-.3-.9-.8 0-.4.3-.9.9-.9 1.7-.1 3.2-.6 4.6-1.5 1.5-.9 2.5-2.3 3.3-4 .3-.7.4-1.5.4-2.2.1-.9.1-2 .3-3 .3-2 1.5-3.2 3.3-3.6 1.2-.3 2.3.1 3.3.9 1.3 1 2 2.5 2 4.1v.6c.2.7.2.8.2 1z"/><path class="st4" d="M50.9 281.1c0 1.2-.2 2.4-.5 3.6-.5 1.7-1 3.3-1.5 4.9-.3.9-.7 2-.8 3-.1.5-.1 1.1.3 1.5.2.3.5.4.9.6.4.2.6.6.5.9-.1.4-.5.7-.9.6-.2-.1-.4-.1-.6-.2-1.1-.5-1.7-1.4-1.7-2.5-.1-.9.1-1.9.3-2.8.4-1.2.9-2.5 1.2-3.7.6-1.7 1.1-3.4 1.3-5.1.4-3.8-2.1-7-4.8-7.9-1.7-.7-3.4-.7-5.1.3-1.2.7-2 1.6-2.5 2.8-.4 1-.7 2.1-.9 3.3-.3 2-1 3.8-2.5 5.3-1.4 1.2-3 2-4.8 2.1-.5.1-.9-.3-.9-.7-.1-.5.3-.9.8-.9 1.2-.1 2.2-.5 3.1-1.2 1.3-.9 2.1-2.2 2.5-3.7.2-.8.3-1.5.4-2.3.4-2 1.2-3.9 2.8-5.4 1.1-.9 2.5-1.5 3.9-1.6 1.5-.1 2.9.1 4.2.8.7.4 1.4.8 2 1.4 1.3 1.2 2.2 2.5 2.8 4.2.3.6.5 1.7.5 2.7z"/><path class="st4" d="M54.5 281.5c-.1 2.3-.5 4.5-1.4 6.7-.2.6-.4 1.1-.7 1.7-.4 1.1-.4 2.1.3 3.1.3.4.8.8 1.3 1 .5.3.7.8.4 1.2-.2.3-.7.4-.9.3-2-.9-3-2.5-2.8-4.5.1-.9.4-1.6.7-2.4 1.2-2.5 1.7-5.4 1.5-8.3-.1-2.5-1.1-4.9-2.8-6.8-1.3-1.5-2.9-2.5-4.8-3.3-1.5-.5-3.1-.7-4.6-.4s-3 .8-4.2 1.7c-.4.3-.9.3-1.2-.1-.3-.3-.2-.9.2-1.1 1.2-1 2.5-1.7 4.2-2 4.5-.9 8.4.6 11.5 3.9 1.5 1.6 2.5 3.5 3 5.6.2 1.2.3 2.4.3 3.7z"/><path class="st4" d="M42.3 264c3.3.1 6.5 1.1 9.1 3.1 1.8 1.4 3.1 3 4.2 4.9.9 1.5 1.5 3 1.9 4.6.1.4-.1.9-.5 1-.5.1-.9-.1-1.1-.7-.3-.8-.4-1.6-.8-2.3-.9-2-2-3.8-3.6-5.4-1.5-1.4-3.3-2.5-5.3-3.1-2.9-.9-5.8-.9-8.6.2-2.8 1-5 3-6.5 5.7-.7 1.3-1.3 2.6-1.7 4.1-.1.5-.5.8-.9.7-.4-.1-.8-.5-.6-1 .3-.8.4-1.6.8-2.4.5-1.4 1.2-2.6 2.1-3.8 2.2-2.8 5-4.7 8.6-5.4.8-.1 1.9-.2 2.9-.2z"/><path class="st4" d="M41.8 260.1c1.7.1 3.1.2 4.4.5 2.5.6 5 1.8 7.1 3.6.3.3.7.6 1 .9.4.4.4.9.1 1.2-.3.3-.9.3-1.2 0-1.5-1.4-3.1-2.5-5.1-3.3-1-.4-2-.7-3.1-.9-3.8-.7-7.4 0-10.7 2-1.1.7-2.1 1.4-3 2.2-.5.4-1.2.3-1.4-.4-.1-.3.1-.6.3-.9.7-.6 1.4-1.2 2.1-1.7 2.1-1.5 4.4-2.5 7.1-3 1-.1 2-.1 2.4-.2zM49.9 300.3c-.8 0-1.6-.3-2.4-.8-.9-.5-1.6-1.2-2.3-1.9l-.3-.3c-.4-.3-.7-.3-1.1 0-.4.3-.8.7-1.2 1.1-.8.8-1.5 1.5-2.3 2.2-1.1.9-2.4 1.5-3.8 1.8-.4.1-.9-.2-.9-.7-.1-.4.2-.9.7-.9 1.7-.3 3.1-1.3 4.3-2.5l2-2c.5-.4 1.1-.9 1.8-.9.6 0 1 .2 1.5.5l1.8 1.5c.5.4 1.1.9 1.8.9.8.2 1.5 0 2.2-.3.3-.1.5-.3.8-.4.4-.3.9-.1 1.2.3.3.4.1.9-.3 1.2-1.1.8-2.2 1.2-3.5 1.2zM28.1 283.7c-.5 0-.9-.3-.9-.8 0-.4.3-.9.8-.9 1.7-.1 2.5-.9 3-2.5.3-.9.4-2 .7-2.9.3-1.3.8-2.5 1.5-3.6.3-.6.9-.7 1.4-.1.2.3.3.6.1.9-.9 1.5-1.4 3.1-1.7 4.9-.1.9-.4 1.9-.9 2.6-.7 1.4-1.9 2-3.3 2.2-.4.2-.6.2-.7.2zM58.3 283.9c0 2-.3 3.8-.9 5.7-.3.9-.7 2-1.2 2.9-.2.4-.7.7-1.2.4-.4-.2-.5-.7-.3-1.2.9-1.8 1.5-3.7 1.7-5.7.2-1.4.2-2.6.1-4.1 0-.4-.1-.8-.1-1.1-.1-.4.2-.9.7-.9.4-.1.9.2.9.7.3 1.1.3 2.3.3 3.3zM43.8 280.8c-.1 2.5-.6 4.8-1.7 7-.4.9-.9 1.6-1.5 2.4-.3.4-.8.4-1.2.1-.4-.3-.4-.8-.1-1.2 1.5-2 2.3-4.2 2.5-6.8.1-.8.1-1.6.1-2.4 0-.5.4-.9.9-.9.4 0 .8.4.8.9v.1c.2.3.2.6.2.8z"/><path class="st4" d="M45.2 301.2c1 0 2 .1 3 .4.4.1.7.5.6.9-.1.4-.5.7-.9.6l-1.2-.3c-1.7-.3-3.4 0-4.9.9-.4.2-.7.2-1 0-.3-.2-.4-.6-.3-.9.1-.2.3-.4.4-.5 1.2-.7 2.4-1.1 3.7-1.2.3.2.4.1.6.1zM31.7 295.2c-.5 0-.9-.3-.9-.7-.1-.4.3-.8.7-.9.9-.2 1.7-.4 2.5-.7 1.1-.3 2.1-.9 3.1-1.5.4-.3.9-.3 1.2.1.3.4.2.9-.3 1.2-1.5 1.1-3.3 1.8-5.1 2.2l-1.2.3z"/></g><path class="st4" d="M163.6 242H10.3v-16.6c0-1.7 1.4-3.1 3.1-3.1h147.1c1.7 0 3.1 1.4 3.1 3.1l-.1 12.5v4.1z"/><path class="st16" d="M33 232.6h105.4"/><g><path class="st17" d="m18.9 229.6 5.9 6M24.8 229.6l-5.9 6"/></g><circle class="st6" cx="151.3" cy="232.6" r="3.2"/></g><g><path class="st10" d="M393.2 97.3h-277c-2.2 0-3.9 1.7-3.9 3.9v110.5c0 2.1 1.7 3.8 3.8 3.8h277.4c2.1 0 3.8-1.7 3.8-3.8V101.2c-.2-2.1-2-3.9-4.1-3.9z"/><path class="st6" d="M117.2 110.5h284.9v96.3c0 2.1-1.7 3.8-3.8 3.8H121c-2.1 0-3.8-1.7-3.8-3.8v-96.3z"/><path class="st4" d="M398 92.3H121.2c-2.2 0-4 1.7-4 4v14.2h284.9V96.3c0-2.2-1.8-4-4.1-4z"/><path class="st29" d="M161.4 128.3h215.4M161.4 144.4h215.4M161.4 160.5h215.4M161.4 176.6h215.4M161.4 192.6h215.4M137.1 128.3h9.8M137.1 144.4h9.8M137.1 160.5h9.8M137.1 176.6h9.8M137.1 192.6h9.8"/><path class="st30" d="m385.2 128.5 2.5 2.3 4.2-5M385.2 144.6l2.5 2.3 4.2-5M385.2 160.8l2.5 2.3 4.2-5.1M385.2 176.8l2.5 2.4 4.2-5M385.2 193l2.5 2.3 4.2-5"/><circle class="st6" cx="388.4" cy="101.4" r="4.8"/></g></svg>