<svg version="1.1" id="Layer_1" xmlns="http://www.w3.org/2000/svg" x="0" y="0" viewBox="0 0 560 340" style="enable-background:new 0 0 560 340" xml:space="preserve"><style>.st11,.st15{opacity:.3;fill:#fff;enable-background:new}.st15{opacity:.5}.st60{fill:#26395a}.st61{fill:#215495}</style><radialGradient id="SVGID_2_" cx="1080.448" cy="5417.358" r="363.672" gradientTransform="translate(-426.835 -2801.36) scale(.5501)" gradientUnits="userSpaceOnUse"><stop offset="0" style="stop-color:#9db7d7"/><stop offset="1" style="stop-color:#667e99"/></radialGradient><path d="M401.2 28.9 399.6 143l-.3 15.9V161.2c0 .7 0 1.3-.1 2.1v2.3c0 .3 0 .7-.1 1v.9c-.1.7-.1 1.4-.1 2.2-.1 1.4-.2 2.9-.3 4.2-.1.7-.1 1.2-.2 1.9 0 .1 0 .3-.1.4-.2 2-.5 4-.7 6-.2 1.3-.4 2.8-.7 4.1-.1.7-.3 1.3-.4 2s-.3 1.3-.4 2c-.4 2-.8 4-1.2 5.9-.1.7-.3 1.3-.5 1.9-.3 1-.5 1.9-.7 3-.3 1-.5 1.9-.8 2.9-.2.7-.3 1.2-.5 1.9s-.4 1.2-.5 1.9c-.6 1.9-1.1 3.7-1.7 5.5-.5 1.4-1 3-1.5 4.4-.2.6-.5 1.2-.7 1.8-.2.7-.5 1.2-.7 1.8-.2.6-.5 1.1-.7 1.8-.3.8-.7 1.5-1 2.4-1 2.4-1.9 4.7-3 6.9-.9 1.9-1.7 3.8-2.7 5.6l-.9 1.6c-.3.5-.6 1.1-.9 1.6-.1.2-.2.5-.3.7-.5.9-.9 1.7-1.4 2.7-.9 1.7-1.8 3.3-2.8 4.9-1.1 1.9-2.3 3.8-3.4 5.7-1.1 1.9-2.3 3.6-3.4 5.4-.6.9-1.1 1.7-1.7 2.6-.3.5-.6.9-.9 1.3-.3.5-.6.9-.9 1.2-.3.4-.6.9-.9 1.2-.6.9-1.1 1.6-1.7 2.4-.6.8-1.1 1.5-1.7 2.4-.3.4-.6.8-.9 1.1-.3.4-.6.7-.9 1.1-1.8 2.4-3.6 4.7-5.4 6.9-.7.9-1.3 1.6-2 2.5-1.3 1.6-2.8 3.2-4.2 4.8-.7.8-1.4 1.5-2.2 2.4-1.4 1.5-2.9 3-4.4 4.6-.4.4-.7.8-1.1 1.1l-1.1 1.1c-.7.7-1.4 1.5-2.2 2.2-1.6 1.5-3.2 3.1-4.8 4.6-.6.6-1.2 1.1-1.9 1.7-15.6 14-32.2 24.7-47.1 30l-1.2.5-1.3-.5c-14.9-5.2-31.3-15.9-46.9-29.8-8.3-7.4-16.4-15.8-23.8-24.9-1.9-2.4-3.8-4.7-5.6-7.1-12.8-16.9-27.3-40.8-35.3-69.8-3.3-12-5.5-24.9-6-38.6-.1-2.2-.1-4.3-.1-6.5l-.3-15.8-1.6-114.1 3.8-.1c35.1-.6 78.6-13.2 116.5-24.9l1.1-.3 1.1.3C319.2 16 362.6 28.5 397.4 29l3.8-.1z" style="fill:url(#SVGID_2_)"/><linearGradient id="SVGID_3_" gradientUnits="userSpaceOnUse" x1="219.691" y1="2852.414" x2="221.823" y2="2860.091" gradientTransform="translate(0 -2836)"><stop offset="0" style="stop-color:#8ea8c6"/><stop offset="1" style="stop-color:#a4bede"/></linearGradient><path d="M280.2 3.7v10.9L175 39.4l-12-6.8-3.8-3.7 3.8-.1c34.9-.5 78.3-13 116.1-24.8l1.1-.3z" style="fill:url(#SVGID_3_)"/><linearGradient id="SVGID_4_" gradientUnits="userSpaceOnUse" x1="266.668" y1="3175.555" x2="376.09" y2="2806.814" gradientTransform="translate(0 -2836)"><stop offset="0" style="stop-color:#88a1bf"/><stop offset=".453" style="stop-color:#6b839e"/><stop offset="1" style="stop-color:#95aecd"/></linearGradient><path d="M401.2 28.9 399.6 143l-.2 15.9V161.2c0 .9-.1 1.8-.1 2.8V165.6c0 .3 0 .7-.1 1v.9c-.1.7-.1 1.4-.1 2.2-.1 1.4-.2 2.9-.3 4.2-.1.7-.1 1.2-.2 1.9 0 .1 0 .3-.1.4-.2 2-.5 4-.7 6-.2 1.3-.4 2.8-.7 4.1-.1.7-.3 1.3-.4 2-.1.7-.3 1.3-.4 2-.4 2-.8 4-1.2 5.9-.4 1.6-.8 3.2-1.1 4.8-.3 1-.5 1.9-.8 2.9-.2.7-.3 1.2-.5 1.9s-.4 1.2-.5 1.9c-.6 1.9-1.1 3.7-1.7 5.5-.5 1.4-1 3-1.5 4.4-.2.6-.5 1.2-.7 1.8-.2.7-.5 1.2-.7 1.8-.2.6-.5 1.1-.7 1.8-.3.8-.7 1.5-1 2.4-1 2.4-1.9 4.7-3 6.9-.9 1.9-1.7 3.8-2.7 5.6l-.9 1.6c-.3.5-.6 1.1-.9 1.6-.1.2-.2.5-.3.7-.5.9-.9 1.7-1.4 2.7-.9 1.7-1.8 3.3-2.8 4.9-1.1 1.9-2.3 3.8-3.4 5.7-1.1 1.9-2.3 3.6-3.4 5.4-.6.9-1.1 1.7-1.7 2.6-.3.5-.6.9-.9 1.3-.3.5-.6.9-.9 1.2-.3.3-.6.9-.9 1.2-.6.9-1.1 1.6-1.7 2.4-.6.8-1.1 1.5-1.7 2.4-.3.4-.6.8-.9 1.1-.3.4-.5.7-.9 1.1-1.8 2.4-3.6 4.7-5.4 6.9-.7.9-1.3 1.6-2 2.5-1.3 1.6-2.8 3.2-4.2 4.8-.7.8-1.4 1.5-2.2 2.4-1.4 1.5-2.9 3-4.4 4.6-.4.4-.7.8-1.1 1.1l-1.1 1.1c-.7.7-1.4 1.5-2.2 2.2-1.6 1.5-3.2 3.1-4.8 4.6-.6.6-1.2 1.1-1.9 1.7-15.6 14-32.2 24.7-47.1 30l-1.2.5V3.7l1.1.3c37.9 11.8 81.3 24.3 116.1 24.8l4.1.1z" style="fill:url(#SVGID_4_)"/><linearGradient id="SVGID_5_" gradientUnits="userSpaceOnUse" x1="336.98" y1="2863.669" x2="339.739" y2="2855.205" gradientTransform="translate(0 -2836)"><stop offset="0" style="stop-color:#7e97b4"/><stop offset="1" style="stop-color:#98b2d1"/></linearGradient><path d="m401.2 28.9-3.8 3.7-5.5 9.2-111.7-27.2V3.7l1.1.3c37.9 11.8 81.3 24.3 116.1 24.8l3.8.1z" style="fill:url(#SVGID_5_)"/><linearGradient id="SVGID_6_" gradientUnits="userSpaceOnUse" x1="159.665" y1="3041.236" x2="309.082" y2="2985.738" gradientTransform="translate(0 -2836)"><stop offset="0" style="stop-color:#9db7d7"/><stop offset=".114" style="stop-color:#94adcc"/><stop offset=".414" style="stop-color:#7e97b4"/><stop offset=".736" style="stop-color:#8aa3c1"/><stop offset="1" style="stop-color:#97b0d0"/></linearGradient><path d="M280.2 7.6v324.3c-38.6-13.6-95.8-68.4-111.4-137.4-2.6-11.6-4-23.5-4-35.8L163 32.6c19.5-.3 41.7-4.3 63.3-9.6 11-2.7 21.9-5.7 32.3-8.8 7.5-2.2 14.6-4.4 21.6-6.6z" style="fill:url(#SVGID_6_)"/><linearGradient id="SVGID_7_" gradientUnits="userSpaceOnUse" x1="521.227" y1="2999.056" x2="220.936" y2="3007.413" gradientTransform="translate(0 -2836)"><stop offset="0" style="stop-color:#fff"/><stop offset=".446" style="stop-color:#859ebc"/><stop offset="1" style="stop-color:#6e85a1"/></linearGradient><path d="m397.4 32.6-1.7 126.1c0 11.2-1.2 22.3-3.4 32.9-14.7 70.4-72.8 126.3-112 140.2V7.6c34.7 10.9 80.4 24.5 117.1 25z" style="fill:url(#SVGID_7_)"/><radialGradient id="SVGID_8_" cx="1285.361" cy="5659.603" r="511.502" gradientTransform="translate(-426.835 -2801.36) scale(.5501)" gradientUnits="userSpaceOnUse"><stop offset="0" style="stop-color:#859ebc"/><stop offset="1" style="stop-color:#738aa7"/></radialGradient><path d="M280.2 39.4v275.1c-20-8.9-43.6-29-61.7-52.9-11.6-15.4-24.8-37.1-32.1-63.3a146.5 146.5 0 0 1-5.4-39.4l-1.5-102.6c30-2.3 66.2-6.7 100.7-16.9z" style="fill:url(#SVGID_8_)"/><linearGradient id="SVGID_9_" gradientUnits="userSpaceOnUse" x1="330.536" y1="3144.74" x2="330.536" y2="2870.234" gradientTransform="translate(0 -2836)"><stop offset="0" style="stop-color:#7c94b1"/><stop offset=".511" style="stop-color:#758daa"/><stop offset="1" style="stop-color:#859ebc"/></linearGradient><path d="m380.9 56.2-1.5 102.6c0 13.4-1.9 26.3-5 38.1-7.1 26.8-20.6 49-32.5 64.6-18.1 23.8-41.7 44-61.7 52.9v-275c34.4 10.2 70.5 14.6 100.7 16.8z" style="fill:url(#SVGID_9_)"/><path class="st11" d="M381.4 56.2c-.2 6.2-.5 12.4-.6 18.5-.1 6.2-.3 12.4-.4 18.5l-.3 18.5c-.1 6.2-.1 12.4-.1 18.5v18.5l-.1 9.2c-.1 3.1-.2 6.2-.3 9.2 0 1.5-.3 3-.4 4.6l-.5 4.6c-.1 1.5-.4 3-.7 4.6l-.7 4.6c-.2 1.5-.6 3-.9 4.6l-1 4.6-.3 1.1-.3 1.1-.7 2.2-1.3 4.4-.7 2.2-.8 2.2-1.5 4.4c-1 3-2.3 5.8-3.5 8.7-.7 1.4-1.1 2.9-1.9 4.2l-2.1 4.2c-.7 1.3-1.3 2.8-2.1 4.2l-2.3 4c-.8 1.3-1.5 2.8-2.3 4l-2.4 4c-.9 1.3-1.5 2.7-2.5 3.9l-2.6 3.8c-3.5 5.1-7.2 10.1-11.2 14.9-7.9 9.5-16.7 18.3-26.1 26.3-4.8 4-9.7 7.7-14.9 11.1-5.1 3.4-10.6 6.5-16.2 9l-.1.1-.1-.1c-5.6-2.6-11-5.7-16.1-9.1-5.1-3.4-10-7.2-14.7-11.2-4.7-4-9.1-8.3-13.4-12.7-4.4-4.4-8.5-9-12.4-13.8s-7.6-9.7-11-14.9l-2.6-3.8c-.9-1.3-1.6-2.6-2.5-3.9l-2.4-3.9-2.3-4c-.7-1.3-1.5-2.7-2.3-4l-2.1-4.2c-.7-1.3-1.4-2.8-2.1-4.2l-1.9-4.2-1.9-4.2-1.6-4.4-1.6-4.4c-.5-1.4-.9-3-1.3-4.4-.9-3-1.9-5.8-2.6-8.9-.7-3-1.5-6-2-9-1.1-6-1.9-12.2-2.3-18.3-.1-3-.3-6.2-.3-9.2l-.2-9.2-.3-18.5-1.1-73.9v-.7l.5-.1 6.4-.5c2.2-.2 4.2-.3 6.4-.5l6.4-.7c2.2-.2 4.2-.4 6.4-.7l6.4-.8c2.2-.3 4.2-.5 6.4-.8l6.3-.9c2.1-.3 4.2-.6 6.3-1l6.3-1c2.1-.4 4.2-.7 6.3-1.1l6.2-1.2c2.1-.5 4.2-.8 6.2-1.3l6.2-1.4c2.1-.5 4.2-.9 6.2-1.5l12.4-3.4.1-.1.1.1 12.3 3.6c2.1.6 4.2 1 6.2 1.5l6.2 1.5c2.1.5 4.2.9 6.2 1.3l6.2 1.3c2.1.5 4.2.8 6.3 1.1l6.3 1c2.1.4 4.2.7 6.3.9l6.3 1.1c2.1.3 4.2.5 6.4.8l6.4.7c2.2.3 4.2.4 6.4.6l6.4.6c2.2.2 4.2.3 6.4.5l6.9.4.2.6zm-1 .5-5.9-.6c-2.2-.2-4.2-.4-6.4-.7l-6.4-.7c-2.2-.3-4.2-.5-6.4-.7l-6.4-.8c-2.2-.3-4.2-.5-6.4-.9l-6.3-.9c-2.1-.3-4.2-.6-6.3-1l-6.3-1c-2.1-.4-4.2-.7-6.3-1.1l-6.3-1.2c-2.1-.5-4.2-.8-6.2-1.2l-6.2-1.4c-2.1-.5-4.2-.9-6.2-1.4L280 39.9h.3l-12.4 3.4c-2.1.5-4.2 1-6.2 1.5l-6 1.5c-2.1.5-4.2.9-6.2 1.3l-6.3 1.2c-2.1.5-4.2.8-6.3 1.1l-6.3 1c-2.1.4-4.2.7-6.3 1l-6.4.9c-2.1.3-4.2.5-6.4.8l-6.4.8c-2.2.3-4.2.5-6.4.7l-6.4.7c-2.2.2-4.2.3-6.4.5l-6.4.5.5-.6.9 74 .2 18.5.1 9.2c.1 3 .2 6.2.3 9.2.4 6.1 1 12.3 2.2 18.3.5 3 1.3 6 1.9 9 .7 3 1.6 5.9 2.5 8.9.5 1.5.9 3 1.3 4.4l1.6 4.4 1.6 4.4 1.8 4.2 1.8 4.2c.7 1.4 1.3 2.8 2 4.2l2.1 4.2c.7 1.3 1.5 2.8 2.2 4l2.3 4 2.4 4c.9 1.3 1.6 2.6 2.5 3.9l2.6 3.8c3.4 5 7.1 10 11.1 14.8 7.8 9.5 16.5 18.3 25.9 26.3 4.8 4 9.6 7.7 14.8 11.1 5.1 3.4 10.5 6.5 16.1 8.9h-.3c5.6-2.6 10.9-5.6 16-9.1 5-3.4 9.9-7.2 14.7-11.2 9.3-8 17.9-16.9 25.7-26.4 3.9-4.8 7.5-9.7 11-14.9l2.6-3.8c.9-1.2 1.6-2.6 2.5-3.9l2.4-3.9c.8-1.3 1.5-2.7 2.3-4l2.2-4c.7-1.3 1.3-2.8 2.1-4.1l2-4.1c.7-1.3 1.2-2.8 1.8-4.2 1.2-2.8 2.5-5.6 3.4-8.5l1.5-4.3.8-2.2.7-2.2 1.3-4.4.7-2.2.3-1.1.3-1.1 1-4.5c.3-1.5.7-3 1-4.5l.8-4.6c.3-1.5.6-3 .7-4.6l.5-4.6c.1-1.5.4-3 .4-4.6l.3-9.2.2-9.2.5-18.5c.2-6.2.3-12.4.4-18.5l.2-18.5c.1-6.2.1-12.4.1-18.5.1-6 .1-12 .1-18z"/><linearGradient id="SVGID_10_" gradientUnits="userSpaceOnUse" x1="174.221" y1="2886.547" x2="453.772" y2="2886.547" gradientTransform="translate(0 -2836)"><stop offset="0" style="stop-color:#97b1d0"/><stop offset=".309" style="stop-color:#859ebc"/><stop offset=".724" style="stop-color:#738ba8"/><stop offset="1" style="stop-color:#6c84a0"/></linearGradient><path d="m380.9 56.2-6.2 5.6H185.6l-6.2-5.6c11.2-.9 23.3-1.9 35.9-3.6 9.7-1.2 19.6-2.8 29.6-4.8 11.8-2.3 23.6-5 35.2-8.6 34.5 10.4 70.6 14.8 100.8 17z" style="fill:url(#SVGID_10_)"/><radialGradient id="SVGID_11_" cx="1295.328" cy="5287.306" r="326.169" gradientTransform="translate(-426.835 -2801.36) scale(.5501)" gradientUnits="userSpaceOnUse"><stop offset="0" style="stop-color:#fff"/><stop offset="1" style="stop-color:#758da9"/></radialGradient><path d="M280.2 51.8v256c-18.7-9.1-40.3-28-56.9-49.9-8.9-11.8-18.9-27.6-26.1-46.2-4.2-10.8-7.3-22.4-8.9-34.9-.7-5.3-1.1-10.8-1.1-16.4v-1.6l-1.5-97c28.9-2.6 94.5-10 94.5-10z" style="fill:url(#SVGID_11_)"/><radialGradient id="SVGID_12_" cx="1253.363" cy="5530.16" r="333.41" gradientTransform="translate(-426.835 -2801.36) scale(.5501)" gradientUnits="userSpaceOnUse"><stop offset="0" style="stop-color:#607691"/><stop offset="1" style="stop-color:#8098b5"/></radialGradient><path d="m374.7 61.8-1.5 96.8v1.3c-.1 5.7-.5 11.4-1.1 16.9-1.3 10.1-3.7 19.8-6.8 28.8C358 227 346.9 244.8 337 258c-16.7 21.9-38.2 40.7-56.9 49.9v-256c.1-.1 65.5 7.3 94.6 9.9z" style="fill:url(#SVGID_12_)"/><path class="st15" d="m397.8 32.6-1.3 86.4-.7 43.1c-.2 7.2-.9 14.4-1.9 21.5-1.1 7.1-2.8 14.2-4.8 21s-4.4 13.7-7.2 20.4c-2.8 6.7-6 13.1-9.4 19.4-3.5 6.3-7.3 12.4-11.4 18.3s-8.5 11.6-13 17.1c-4.6 5.5-9.5 10.8-14.7 15.9s-10.6 9.8-16.1 14.3c-5.6 4.5-11.5 8.7-17.7 12.4-6.2 3.7-12.6 6.9-19.4 9.3-6.8-2.4-13.2-5.7-19.4-9.4-6.2-3.7-12-7.9-17.7-12.4-5.6-4.5-11-9.3-16.1-14.4-5.1-5-9.9-10.4-14.7-15.9-4.6-5.5-9.1-11.2-13.2-17-4.2-5.8-8.1-12-11.6-18.3-3.5-6.3-6.7-12.8-9.4-19.4-2.8-6.7-5.2-13.4-7.2-20.4-1.9-6.9-3.5-14-4.6-21.1-1.1-7.1-1.7-14.4-1.7-21.6 0-7.2.1-14.4 0-21.6 0-7.2-.3-14.4-.5-21.6-.1-3.6-.3-7.2-.3-10.8-.1-3.6-.1-7.2-.1-10.8-.1-7.2-.5-64.7-.5-64.7-.1 7.2 1.1 57.5 1.3 64.7.1 3.6.2 7.2.1 10.8.1 3.6 0 7.2 0 10.8-.1 7.2-.1 14.4.1 21.6.1 7.2.4 14.4.6 21.6.1 3.6.3 7.1.7 10.8.3 3.6.8 7.1 1.3 10.7 1.1 7.1 2.8 14.1 4.8 20.9 2.1 6.9 4.4 13.6 7.2 20.3 2.8 6.7 5.9 13 9.3 19.4 3.4 6.3 7.1 12.5 11 18.5 4 6 8.2 11.8 12.8 17.3 4.6 5.5 9.5 10.9 14.6 15.9s10.6 9.8 16.1 14.4c5.6 4.5 11.5 8.7 17.7 12.4 6.2 3.7 12.6 6.9 19.4 9.4 6.8-2.4 13.2-5.7 19.4-9.4 6.2-3.7 12-7.9 17.6-12.4 5.6-4.5 11-9.3 16.1-14.4 5.1-5 9.9-10.3 14.6-15.9 4.6-5.5 8.9-11.2 13-17.1 4-5.9 7.9-12.1 11.3-18.4 3.4-6.3 6.7-12.8 9.3-19.4 2.8-6.7 5.2-13.4 7.1-20.4 1.9-6.9 3.6-13.9 4.7-21s1.7-14.2 1.9-21.4l.5-43.1 1.1-86.4 1 .1z"/><linearGradient id="SVGID_13_" gradientUnits="userSpaceOnUse" x1="281.277" y1="3098.871" x2="281.277" y2="3019.955" gradientTransform="translate(0 -2836)"><stop offset="0" style="stop-color:#fff"/><stop offset="1" style="stop-color:#4e647d"/></linearGradient><path d="M365.3 205.6C358.1 227 347 244.8 337 258c-16.7 21.9-38.2 40.7-56.9 49.9-18.7-9.1-40.3-28-56.9-49.9-8.9-11.8-18.9-27.6-26.1-46.2 18.9 8.7 48 13.7 82.9 15.3 31.8-1.9 59.9-10.3 85.3-21.5z" style="opacity:.3;fill:url(#SVGID_13_);enable-background:new"/><linearGradient id="SVGID_14_" gradientUnits="userSpaceOnUse" x1="280.47" y1="3102.048" x2="280.47" y2="3007.046" gradientTransform="translate(0 -2836)"><stop offset="0" style="stop-color:#fff"/><stop offset="1" style="stop-color:#475d75"/></linearGradient><path d="M392.3 191.2c-14.5 70.6-72.8 126.8-112.1 140.7-38.8-13.7-96.2-68.7-111.5-138.1 5 1.1 10.9 2.4 17.5 3.6 7.1 26.6 20.5 48.6 32.3 64.1 18.1 23.8 41.7 44 61.7 52.9 20-8.9 43.7-29 61.8-52.9 12-15.9 25.7-38.5 32.7-65.8 5.7-1.2 11.5-2.7 17.6-4.5z" style="opacity:.7;fill:url(#SVGID_14_);enable-background:new"/><path class="st11" d="M397.4 32.9C362 32.4 318.3 19.8 280.1 8c-38.2 11.8-81.8 24.2-117.2 24.7 35.3-.5 79-13.4 117.1-25.3h.2c38.2 11.8 81.9 24.5 117.1 24.9l.1.6z"/><radialGradient id="SVGID_15_" cx="145.379" cy="2877.762" r="187.403" gradientTransform="translate(12.318 -2893.025) scale(1.0674)" gradientUnits="userSpaceOnUse"><stop offset="0" style="stop-color:#9db7d7"/><stop offset="1" style="stop-color:#667e99"/></radialGradient><path d="M401.2 28.9 399.6 143l-.1 6.6-.1 9.3v2.2c0 .7 0 1.3-.1 2 0 .3 0 .5-.1.7V165.4c0 .3-.1.7-.1.9 0 .3 0 .6-.1.9-.1.7-.1 1.4-.1 2.2-.1.8-.1 1.5-.2 2.4-.1.7-.1 1.2-.1 1.9-.1.7-.1 1.2-.2 1.9 0 .1 0 .3-.1.4-.2 2-.5 4-.7 6-.2 1.3-.4 2.8-.7 4.1-.1.7-.3 1.3-.4 2-.1.7-.3 1.3-.4 2-.4 2-.8 4-1.2 5.9-.1.7-.3 1.3-.5 1.9-.3 1-.5 1.9-.7 2.9-.3 1-.5 1.9-.8 2.9-.2.7-.3 1.2-.5 1.9s-.4 1.2-.5 1.9c-.6 1.8-1.1 3.7-1.7 5.5-.5 1.4-1 3-1.5 4.4-.2.7-.5 1.2-.7 1.8-.2.7-.5 1.2-.7 1.8-.2.6-.5 1.1-.7 1.8-.3.8-.7 1.5-.9 2.4-1 2.4-1.9 4.7-3 6.9-.9 1.9-1.7 3.8-2.7 5.6l-.9 1.6c-.3.6-.5 1.1-.9 1.6-.1.2-.2.5-.3.7-.5.9-.9 1.7-1.4 2.7-.9 1.7-1.8 3.2-2.8 4.9-1.1 1.9-2.3 3.8-3.4 5.7-1.1 1.9-2.3 3.6-3.4 5.4-.6.9-1.1 1.7-1.7 2.6-.3.5-.6.9-.9 1.3-.3.5-.6.9-.9 1.2-.3.4-.6.9-.9 1.2-.6.9-1.1 1.6-1.7 2.4-.6.8-1.1 1.5-1.7 2.4-.3.4-.6.8-.9 1.1-.3.3-.6.7-.9 1.1-1.8 2.4-3.6 4.7-5.4 6.9-.7.9-1.3 1.6-2 2.5-1.3 1.6-2.8 3.2-4.2 4.8-.7.8-1.4 1.5-2.2 2.4-1.4 1.5-2.9 3-4.4 4.6-.4.4-.7.8-1.1 1.1l-1.1 1.1c-.7.7-1.4 1.5-2.2 2.2-1.6 1.5-3.2 3.1-4.8 4.6-.6.6-1.2 1.1-1.9 1.7-15.6 14-32.2 24.7-47 30l-1.3.5-1.3-.5c-14.9-5.2-31.3-15.9-46.9-29.9-8.3-7.4-16.4-15.8-23.8-24.8-1.9-2.4-3.8-4.7-5.6-7.1-12.7-16.7-27.2-40.7-35.2-69.7-2.8-10.1-4.8-20.8-5.6-32-.2-2.2-.3-4.4-.4-6.5-.1-2.2-.1-4.3-.1-6.5l-.1-9.2-.1-6.6L159 29.1l3.8-.1c34.9-.5 78.3-13 116.1-24.8l1.1-.4 1.1.4C318.8 16 362.2 28.5 397 29l4.2-.1z" style="fill:url(#SVGID_15_)"/><linearGradient id="SVGID_16_" gradientUnits="userSpaceOnUse" x1="219.691" y1="2852.414" x2="221.823" y2="2860.091" gradientTransform="translate(0 -2836)"><stop offset="0" style="stop-color:#8ea8c6"/><stop offset="1" style="stop-color:#a4bede"/></linearGradient><path d="M280.2 3.7v10.9L175 39.4l-12-6.8-3.8-3.7 3.8-.1c34.9-.5 78.3-13 116.1-24.8l1.1-.3z" style="fill:url(#SVGID_16_)"/><linearGradient id="SVGID_17_" gradientUnits="userSpaceOnUse" x1="266.668" y1="3175.555" x2="376.09" y2="2806.814" gradientTransform="translate(0 -2836)"><stop offset="0" style="stop-color:#88a1bf"/><stop offset=".453" style="stop-color:#6b839e"/><stop offset="1" style="stop-color:#95aecd"/></linearGradient><path d="M401.2 28.9 399.6 143l-.2 15.9V161.2c0 .9-.1 1.8-.1 2.8V165.6c0 .3 0 .7-.1 1v.9c-.1.7-.1 1.4-.1 2.2-.1 1.4-.2 2.9-.3 4.2-.1.7-.1 1.2-.2 1.9 0 .1 0 .3-.1.4-.2 2-.5 4-.7 6-.2 1.3-.4 2.8-.7 4.1-.1.7-.3 1.3-.4 2-.1.7-.3 1.3-.4 2-.4 2-.8 4-1.2 5.9-.4 1.6-.8 3.2-1.1 4.8-.3 1-.5 1.9-.8 2.9-.2.7-.3 1.2-.5 1.9s-.4 1.2-.5 1.9c-.6 1.9-1.1 3.7-1.7 5.5-.5 1.4-1 3-1.5 4.4-.2.6-.5 1.2-.7 1.8-.2.7-.5 1.2-.7 1.8-.2.6-.5 1.1-.7 1.8-.3.8-.7 1.5-1 2.4-1 2.4-1.9 4.7-3 6.9-.9 1.9-1.7 3.8-2.7 5.6l-.9 1.6c-.3.5-.6 1.1-.9 1.6-.1.2-.2.5-.3.7-.5.9-.9 1.7-1.4 2.7-.9 1.7-1.8 3.3-2.8 4.9-1.1 1.9-2.3 3.8-3.4 5.7-1.1 1.9-2.3 3.6-3.4 5.4-.6.9-1.1 1.7-1.7 2.6-.3.5-.6.9-.9 1.3-.3.5-.6.9-.9 1.2-.3.3-.6.9-.9 1.2-.6.9-1.1 1.6-1.7 2.4-.6.8-1.1 1.5-1.7 2.4-.3.4-.6.8-.9 1.1-.3.4-.5.7-.9 1.1-1.8 2.4-3.6 4.7-5.4 6.9-.7.9-1.3 1.6-2 2.5-1.3 1.6-2.8 3.2-4.2 4.8-.7.8-1.4 1.5-2.2 2.4-1.4 1.5-2.9 3-4.4 4.6-.4.4-.7.8-1.1 1.1l-1.1 1.1c-.7.7-1.4 1.5-2.2 2.2-1.6 1.5-3.2 3.1-4.8 4.6-.6.6-1.2 1.1-1.9 1.7-15.6 14-32.2 24.7-47.1 30l-1.2.5V3.7l1.1.3c37.9 11.8 81.3 24.3 116.1 24.8l4.1.1z" style="fill:url(#SVGID_17_)"/><linearGradient id="SVGID_18_" gradientUnits="userSpaceOnUse" x1="336.98" y1="2863.669" x2="339.739" y2="2855.205" gradientTransform="translate(0 -2836)"><stop offset="0" style="stop-color:#7e97b4"/><stop offset="1" style="stop-color:#98b2d1"/></linearGradient><path d="m401.2 28.9-3.8 3.7-5.5 9.2-111.7-27.2V3.7l1.1.3c37.9 11.8 81.3 24.3 116.1 24.8l3.8.1z" style="fill:url(#SVGID_18_)"/><linearGradient id="SVGID_19_" gradientUnits="userSpaceOnUse" x1="157.76" y1="3032.975" x2="292.473" y2="3001.863" gradientTransform="translate(0 -2836)"><stop offset="0" style="stop-color:#9fb9d9"/><stop offset=".128" style="stop-color:#94adcc"/><stop offset=".414" style="stop-color:#7e97b4"/><stop offset=".558" style="stop-color:#8aa4c2"/><stop offset=".828" style="stop-color:#aac5e5"/><stop offset="1" style="stop-color:#c2deff"/></linearGradient><path d="M280.2 7.6v324.3c-38.6-13.6-95.8-68.4-111.4-137.4-2.6-11.6-4-23.5-4-35.8L163 32.6c19.5-.3 41.7-4.3 63.3-9.6 11-2.7 21.9-5.7 32.3-8.8 7.5-2.2 14.6-4.4 21.6-6.6z" style="fill:url(#SVGID_19_)"/><linearGradient id="SVGID_20_" gradientUnits="userSpaceOnUse" x1="521.227" y1="2999.056" x2="220.936" y2="3007.413" gradientTransform="translate(0 -2836)"><stop offset="0" style="stop-color:#fff"/><stop offset=".446" style="stop-color:#859ebc"/><stop offset="1" style="stop-color:#6e85a1"/></linearGradient><path d="m397.4 32.6-1.7 126.1c0 11.2-1.2 22.3-3.4 32.9-14.7 70.4-72.8 126.3-112 140.2V7.6c34.7 10.9 80.4 24.5 117.1 25z" style="fill:url(#SVGID_20_)"/><radialGradient id="SVGID_21_" cx="1285.361" cy="5659.603" r="511.502" gradientTransform="translate(-426.835 -2801.36) scale(.5501)" gradientUnits="userSpaceOnUse"><stop offset="0" style="stop-color:#859ebc"/><stop offset="1" style="stop-color:#738aa7"/></radialGradient><path d="M280.2 39.4v275.1c-20-8.9-43.6-29-61.7-52.9-11.6-15.4-24.8-37.1-32.1-63.3a146.5 146.5 0 0 1-5.4-39.4l-1.5-102.6c30-2.3 66.2-6.7 100.7-16.9z" style="fill:url(#SVGID_21_)"/><linearGradient id="SVGID_22_" gradientUnits="userSpaceOnUse" x1="330.536" y1="3144.74" x2="330.536" y2="2870.234" gradientTransform="translate(0 -2836)"><stop offset="0" style="stop-color:#7c94b1"/><stop offset=".511" style="stop-color:#758daa"/><stop offset="1" style="stop-color:#859ebc"/></linearGradient><path d="m380.9 56.2-1.5 102.6c0 13.4-1.9 26.3-5 38.1-7.1 26.8-20.6 49-32.5 64.6-18.1 23.8-41.7 44-61.7 52.9v-275c34.4 10.2 70.5 14.6 100.7 16.8z" style="fill:url(#SVGID_22_)"/><path class="st11" d="M381.4 56.2c-.2 6.2-.5 12.4-.6 18.5-.1 6.2-.3 12.4-.4 18.5l-.3 18.5c-.1 6.2-.1 12.4-.1 18.5v18.5l-.1 9.2c-.1 3.1-.2 6.2-.3 9.2 0 1.5-.3 3-.4 4.6l-.5 4.6c-.1 1.5-.4 3-.7 4.6l-.7 4.6c-.2 1.5-.6 3-.9 4.6l-1 4.6-.3 1.1-.3 1.1-.7 2.2-1.3 4.4-.7 2.2-.8 2.2-1.5 4.4c-1 3-2.3 5.8-3.5 8.7-.7 1.4-1.1 2.9-1.9 4.2l-2.1 4.2c-.7 1.3-1.3 2.8-2.1 4.2l-2.3 4c-.8 1.3-1.5 2.8-2.3 4l-2.4 4c-.9 1.3-1.5 2.7-2.5 3.9l-2.6 3.8c-3.5 5.1-7.2 10.1-11.2 14.9-7.9 9.5-16.7 18.3-26.1 26.3-4.8 4-9.7 7.7-14.9 11.1-5.1 3.4-10.6 6.5-16.2 9l-.1.1-.1-.1c-5.6-2.6-11-5.7-16.1-9.1-5.1-3.4-10-7.2-14.7-11.2-4.7-4-9.1-8.3-13.4-12.7-4.4-4.4-8.5-9-12.4-13.8s-7.6-9.7-11-14.9l-2.6-3.8c-.9-1.3-1.6-2.6-2.5-3.9l-2.4-3.9-2.3-4c-.7-1.3-1.5-2.7-2.3-4l-2.1-4.2c-.7-1.3-1.4-2.8-2.1-4.2l-1.9-4.2-1.9-4.2-1.6-4.4-1.6-4.4c-.5-1.4-.9-3-1.3-4.4-.9-3-1.9-5.8-2.6-8.9-.7-3-1.5-6-2-9-1.1-6-1.9-12.2-2.3-18.3-.1-3-.3-6.2-.3-9.2l-.2-9.2-.3-18.5-1.1-73.9v-.7l.5-.1 6.4-.5c2.2-.2 4.2-.3 6.4-.5l6.4-.7c2.2-.2 4.2-.4 6.4-.7l6.4-.8c2.2-.3 4.2-.5 6.4-.8l6.3-.9c2.1-.3 4.2-.6 6.3-1l6.3-1c2.1-.4 4.2-.7 6.3-1.1l6.2-1.2c2.1-.5 4.2-.8 6.2-1.3l6.2-1.4c2.1-.5 4.2-.9 6.2-1.5l12.4-3.4.1-.1.1.1 12.3 3.6c2.1.6 4.2 1 6.2 1.5l6.2 1.5c2.1.5 4.2.9 6.2 1.3l6.2 1.3c2.1.5 4.2.8 6.3 1.1l6.3 1c2.1.4 4.2.7 6.3.9l6.3 1.1c2.1.3 4.2.5 6.4.8l6.4.7c2.2.3 4.2.4 6.4.6l6.4.6c2.2.2 4.2.3 6.4.5l6.9.4.2.6zm-1 .5-5.9-.6c-2.2-.2-4.2-.4-6.4-.7l-6.4-.7c-2.2-.3-4.2-.5-6.4-.7l-6.4-.8c-2.2-.3-4.2-.5-6.4-.9l-6.3-.9c-2.1-.3-4.2-.6-6.3-1l-6.3-1c-2.1-.4-4.2-.7-6.3-1.1l-6.3-1.2c-2.1-.5-4.2-.8-6.2-1.2l-6.2-1.4c-2.1-.5-4.2-.9-6.2-1.4L280 39.9h.3l-12.4 3.4c-2.1.5-4.2 1-6.2 1.5l-6 1.5c-2.1.5-4.2.9-6.2 1.3l-6.3 1.2c-2.1.5-4.2.8-6.3 1.1l-6.3 1c-2.1.4-4.2.7-6.3 1l-6.4.9c-2.1.3-4.2.5-6.4.8l-6.4.8c-2.2.3-4.2.5-6.4.7l-6.4.7c-2.2.2-4.2.3-6.4.5l-6.4.5.5-.6.9 74 .2 18.5.1 9.2c.1 3 .2 6.2.3 9.2.4 6.1 1 12.3 2.2 18.3.5 3 1.3 6 1.9 9 .7 3 1.6 5.9 2.5 8.9.5 1.5.9 3 1.3 4.4l1.6 4.4 1.6 4.4 1.8 4.2 1.8 4.2c.7 1.4 1.3 2.8 2 4.2l2.1 4.2c.7 1.3 1.5 2.8 2.2 4l2.3 4 2.4 4c.9 1.3 1.6 2.6 2.5 3.9l2.6 3.8c3.4 5 7.1 10 11.1 14.8 7.8 9.5 16.5 18.3 25.9 26.3 4.8 4 9.6 7.7 14.8 11.1 5.1 3.4 10.5 6.5 16.1 8.9h-.3c5.6-2.6 10.9-5.6 16-9.1 5-3.4 9.9-7.2 14.7-11.2 9.3-8 17.9-16.9 25.7-26.4 3.9-4.8 7.5-9.7 11-14.9l2.6-3.8c.9-1.2 1.6-2.6 2.5-3.9l2.4-3.9c.8-1.3 1.5-2.7 2.3-4l2.2-4c.7-1.3 1.3-2.8 2.1-4.1l2-4.1c.7-1.3 1.2-2.8 1.8-4.2 1.2-2.8 2.5-5.6 3.4-8.5l1.5-4.3.8-2.2.7-2.2 1.3-4.4.7-2.2.3-1.1.3-1.1 1-4.5c.3-1.5.7-3 1-4.5l.8-4.6c.3-1.5.6-3 .7-4.6l.5-4.6c.1-1.5.4-3 .4-4.6l.3-9.2.2-9.2.5-18.5c.2-6.2.3-12.4.4-18.5l.2-18.5c.1-6.2.1-12.4.1-18.5.1-6 .1-12 .1-18z"/><linearGradient id="SVGID_23_" gradientUnits="userSpaceOnUse" x1="174.221" y1="2886.547" x2="453.772" y2="2886.547" gradientTransform="translate(0 -2836)"><stop offset="0" style="stop-color:#97b1d0"/><stop offset=".148" style="stop-color:#89a2c0"/><stop offset=".506" style="stop-color:#6b839e"/><stop offset=".803" style="stop-color:#59708a"/><stop offset="1" style="stop-color:#526982"/></linearGradient><path d="m380.9 56.2-6.2 5.6H185.6l-6.2-5.6c11.2-.9 23.3-1.9 35.9-3.6 9.7-1.2 19.6-2.8 29.6-4.8 11.8-2.3 23.6-5 35.2-8.6 34.5 10.4 70.6 14.8 100.8 17z" style="fill:url(#SVGID_23_)"/><path class="st15" d="m397.8 32.6-1.3 86.4-.7 43.1c-.2 7.2-.9 14.4-1.9 21.5-1.1 7.1-2.8 14.2-4.8 21s-4.4 13.7-7.2 20.4c-2.8 6.7-6 13.1-9.4 19.4-3.5 6.3-7.3 12.4-11.4 18.3s-8.5 11.6-13 17.1c-4.6 5.5-9.5 10.8-14.7 15.9s-10.6 9.8-16.1 14.3c-5.6 4.5-11.5 8.7-17.7 12.4-6.2 3.7-12.6 6.9-19.4 9.3-6.8-2.4-13.2-5.7-19.4-9.4-6.2-3.7-12-7.9-17.7-12.4-5.6-4.5-11-9.3-16.1-14.4-5.1-5-9.9-10.4-14.7-15.9-4.6-5.5-9.1-11.2-13.2-17-4.2-5.8-8.1-12-11.6-18.3-3.5-6.3-6.7-12.8-9.4-19.4-2.8-6.7-5.2-13.4-7.2-20.4-1.9-6.9-3.5-14-4.6-21.1-1.1-7.1-1.7-14.4-1.7-21.6 0-7.2.1-14.4 0-21.6 0-7.2-.3-14.4-.5-21.6-.1-3.6-.3-7.2-.3-10.8-.1-3.6-.1-7.2-.1-10.8-.1-7.2-.5-64.7-.5-64.7-.1 7.2 1.1 57.5 1.3 64.7.1 3.6.2 7.2.1 10.8.1 3.6 0 7.2 0 10.8-.1 7.2-.1 14.4.1 21.6.1 7.2.4 14.4.6 21.6.1 3.6.3 7.1.7 10.8.3 3.6.8 7.1 1.3 10.7 1.1 7.1 2.8 14.1 4.8 20.9 2.1 6.9 4.4 13.6 7.2 20.3 2.8 6.7 5.9 13 9.3 19.4 3.4 6.3 7.1 12.5 11 18.5 4 6 8.2 11.8 12.8 17.3 4.6 5.5 9.5 10.9 14.6 15.9s10.6 9.8 16.1 14.4c5.6 4.5 11.5 8.7 17.7 12.4 6.2 3.7 12.6 6.9 19.4 9.4 6.8-2.4 13.2-5.7 19.4-9.4 6.2-3.7 12-7.9 17.6-12.4 5.6-4.5 11-9.3 16.1-14.4 5.1-5 9.9-10.3 14.6-15.9 4.6-5.5 8.9-11.2 13-17.1 4-5.9 7.9-12.1 11.3-18.4 3.4-6.3 6.7-12.8 9.3-19.4 2.8-6.7 5.2-13.4 7.1-20.4 1.9-6.9 3.6-13.9 4.7-21s1.7-14.2 1.9-21.4l.5-43.1 1.1-86.4 1 .1z"/><linearGradient id="SVGID_24_" gradientUnits="userSpaceOnUse" x1="280.47" y1="3102.048" x2="280.47" y2="3007.046" gradientTransform="translate(0 -2836)"><stop offset="0" style="stop-color:#fff"/><stop offset="1" style="stop-color:#475d75"/></linearGradient><path d="M392.3 191.2c-14.5 70.6-72.8 126.8-112.1 140.7-38.8-13.7-96.2-68.7-111.5-138.1 5 1.1 10.9 2.4 17.5 3.6 7.1 26.6 20.5 48.6 32.3 64.1 18.1 23.8 41.7 44 61.7 52.9 20-8.9 43.7-29 61.8-52.9 12-15.9 25.7-38.5 32.7-65.8 5.7-1.2 11.5-2.7 17.6-4.5z" style="opacity:.5;fill:url(#SVGID_24_);enable-background:new"/><path class="st11" d="M397.4 32.9C362 32.4 318.3 19.8 280.1 8c-38.2 11.8-81.8 24.2-117.2 24.7 35.3-.5 79-13.4 117.1-25.3h.2c38.2 11.8 81.9 24.5 117.1 24.9l.1.6z"/><radialGradient id="SVGID_25_" cx="1080.448" cy="5417.358" r="363.672" gradientTransform="translate(-426.835 -2801.36) scale(.5501)" gradientUnits="userSpaceOnUse"><stop offset="0" style="stop-color:#9db7d7"/><stop offset="1" style="stop-color:#667e99"/></radialGradient><path d="M401.2 28.9 399.6 143l-.3 15.9V161.2c0 .7 0 1.3-.1 2.1v2.3c0 .3 0 .7-.1 1v.9c-.1.7-.1 1.4-.1 2.2-.1 1.4-.2 2.9-.3 4.2-.1.7-.1 1.2-.2 1.9 0 .1 0 .3-.1.4-.2 2-.5 4-.7 6-.2 1.3-.4 2.8-.7 4.1-.1.7-.3 1.3-.4 2s-.3 1.3-.4 2c-.4 2-.8 4-1.2 5.9-.1.7-.3 1.3-.5 1.9-.3 1-.5 1.9-.7 3-.3 1-.5 1.9-.8 2.9-.2.7-.3 1.2-.5 1.9s-.4 1.2-.5 1.9c-.6 1.9-1.1 3.7-1.7 5.5-.5 1.4-1 3-1.5 4.4-.2.6-.5 1.2-.7 1.8-.2.7-.5 1.2-.7 1.8-.2.6-.5 1.1-.7 1.8-.3.8-.7 1.5-1 2.4-1 2.4-1.9 4.7-3 6.9-.9 1.9-1.7 3.8-2.7 5.6l-.9 1.6c-.3.5-.6 1.1-.9 1.6-.1.2-.2.5-.3.7-.5.9-.9 1.7-1.4 2.7-.9 1.7-1.8 3.3-2.8 4.9-1.1 1.9-2.3 3.8-3.4 5.7-1.1 1.9-2.3 3.6-3.4 5.4-.6.9-1.1 1.7-1.7 2.6-.3.5-.6.9-.9 1.3-.3.5-.6.9-.9 1.2-.3.4-.6.9-.9 1.2-.6.9-1.1 1.6-1.7 2.4-.6.8-1.1 1.5-1.7 2.4-.3.4-.6.8-.9 1.1-.3.4-.6.7-.9 1.1-1.8 2.4-3.6 4.7-5.4 6.9-.7.9-1.3 1.6-2 2.5-1.3 1.6-2.8 3.2-4.2 4.8-.7.8-1.4 1.5-2.2 2.4-1.4 1.5-2.9 3-4.4 4.6-.4.4-.7.8-1.1 1.1l-1.1 1.1c-.7.7-1.4 1.5-2.2 2.2-1.6 1.5-3.2 3.1-4.8 4.6-.6.6-1.2 1.1-1.9 1.7-15.6 14-32.2 24.7-47.1 30l-1.2.5-1.3-.5c-14.9-5.2-31.3-15.9-46.9-29.8-8.3-7.4-16.4-15.8-23.8-24.9-1.9-2.4-3.8-4.7-5.6-7.1-12.8-16.9-27.3-40.8-35.3-69.8-3.3-12-5.5-24.9-6-38.6-.1-2.2-.1-4.3-.1-6.5l-.3-15.8-1.6-114.1 3.8-.1c35.1-.6 78.6-13.2 116.5-24.9l1.1-.3 1.1.3C319.2 16 362.6 28.5 397.4 29l3.8-.1z" style="fill:url(#SVGID_25_)"/><linearGradient id="SVGID_26_" gradientUnits="userSpaceOnUse" x1="219.691" y1="2852.414" x2="221.823" y2="2860.091" gradientTransform="translate(0 -2836)"><stop offset="0" style="stop-color:#8ea8c6"/><stop offset="1" style="stop-color:#a4bede"/></linearGradient><path d="M280.2 3.7v10.9L175 39.4l-12-6.8-3.8-3.7 3.8-.1c34.9-.5 78.3-13 116.1-24.8l1.1-.3z" style="fill:url(#SVGID_26_)"/><linearGradient id="SVGID_27_" gradientUnits="userSpaceOnUse" x1="266.668" y1="3175.555" x2="376.09" y2="2806.814" gradientTransform="translate(0 -2836)"><stop offset="0" style="stop-color:#88a1bf"/><stop offset=".453" style="stop-color:#6b839e"/><stop offset="1" style="stop-color:#95aecd"/></linearGradient><path d="M401.2 28.9 399.6 143l-.2 15.9V161.2c0 .9-.1 1.8-.1 2.8V165.6c0 .3 0 .7-.1 1v.9c-.1.7-.1 1.4-.1 2.2-.1 1.4-.2 2.9-.3 4.2-.1.7-.1 1.2-.2 1.9 0 .1 0 .3-.1.4-.2 2-.5 4-.7 6-.2 1.3-.4 2.8-.7 4.1-.1.7-.3 1.3-.4 2-.1.7-.3 1.3-.4 2-.4 2-.8 4-1.2 5.9-.4 1.6-.8 3.2-1.1 4.8-.3 1-.5 1.9-.8 2.9-.2.7-.3 1.2-.5 1.9s-.4 1.2-.5 1.9c-.6 1.9-1.1 3.7-1.7 5.5-.5 1.4-1 3-1.5 4.4-.2.6-.5 1.2-.7 1.8-.2.7-.5 1.2-.7 1.8-.2.6-.5 1.1-.7 1.8-.3.8-.7 1.5-1 2.4-1 2.4-1.9 4.7-3 6.9-.9 1.9-1.7 3.8-2.7 5.6l-.9 1.6c-.3.5-.6 1.1-.9 1.6-.1.2-.2.5-.3.7-.5.9-.9 1.7-1.4 2.7-.9 1.7-1.8 3.3-2.8 4.9-1.1 1.9-2.3 3.8-3.4 5.7-1.1 1.9-2.3 3.6-3.4 5.4-.6.9-1.1 1.7-1.7 2.6-.3.5-.6.9-.9 1.3-.3.5-.6.9-.9 1.2-.3.3-.6.9-.9 1.2-.6.9-1.1 1.6-1.7 2.4-.6.8-1.1 1.5-1.7 2.4-.3.4-.6.8-.9 1.1-.3.4-.5.7-.9 1.1-1.8 2.4-3.6 4.7-5.4 6.9-.7.9-1.3 1.6-2 2.5-1.3 1.6-2.8 3.2-4.2 4.8-.7.8-1.4 1.5-2.2 2.4-1.4 1.5-2.9 3-4.4 4.6-.4.4-.7.8-1.1 1.1l-1.1 1.1c-.7.7-1.4 1.5-2.2 2.2-1.6 1.5-3.2 3.1-4.8 4.6-.6.6-1.2 1.1-1.9 1.7-15.6 14-32.2 24.7-47.1 30l-1.2.5V3.7l1.1.3c37.9 11.8 81.3 24.3 116.1 24.8l4.1.1z" style="fill:url(#SVGID_27_)"/><linearGradient id="SVGID_28_" gradientUnits="userSpaceOnUse" x1="336.98" y1="2863.669" x2="339.739" y2="2855.205" gradientTransform="translate(0 -2836)"><stop offset="0" style="stop-color:#7e97b4"/><stop offset="1" style="stop-color:#98b2d1"/></linearGradient><path d="m401.2 28.9-3.8 3.7-5.5 9.2-111.7-27.2V3.7l1.1.3c37.9 11.8 81.3 24.3 116.1 24.8l3.8.1z" style="fill:url(#SVGID_28_)"/><linearGradient id="SVGID_29_" gradientUnits="userSpaceOnUse" x1="159.665" y1="3041.236" x2="309.082" y2="2985.738" gradientTransform="translate(0 -2836)"><stop offset="0" style="stop-color:#9db7d7"/><stop offset=".114" style="stop-color:#94adcc"/><stop offset=".414" style="stop-color:#7e97b4"/><stop offset=".736" style="stop-color:#8aa3c1"/><stop offset="1" style="stop-color:#97b0d0"/></linearGradient><path d="M280.2 7.6v324.3c-38.6-13.6-95.8-68.4-111.4-137.4-2.6-11.6-4-23.5-4-35.8L163 32.6c19.5-.3 41.7-4.3 63.3-9.6 11-2.7 21.9-5.7 32.3-8.8 7.5-2.2 14.6-4.4 21.6-6.6z" style="fill:url(#SVGID_29_)"/><linearGradient id="SVGID_30_" gradientUnits="userSpaceOnUse" x1="521.227" y1="2999.056" x2="220.936" y2="3007.413" gradientTransform="translate(0 -2836)"><stop offset="0" style="stop-color:#fff"/><stop offset=".446" style="stop-color:#859ebc"/><stop offset="1" style="stop-color:#6e85a1"/></linearGradient><path d="m397.4 32.6-1.7 126.1c0 11.2-1.2 22.3-3.4 32.9-14.7 70.4-72.8 126.3-112 140.2V7.6c34.7 10.9 80.4 24.5 117.1 25z" style="fill:url(#SVGID_30_)"/><radialGradient id="SVGID_31_" cx="1285.361" cy="5659.603" r="511.502" gradientTransform="translate(-426.835 -2801.36) scale(.5501)" gradientUnits="userSpaceOnUse"><stop offset="0" style="stop-color:#859ebc"/><stop offset="1" style="stop-color:#738aa7"/></radialGradient><path d="M280.2 39.4v275.1c-20-8.9-43.6-29-61.7-52.9-11.6-15.4-24.8-37.1-32.1-63.3a146.5 146.5 0 0 1-5.4-39.4l-1.5-102.6c30-2.3 66.2-6.7 100.7-16.9z" style="fill:url(#SVGID_31_)"/><linearGradient id="SVGID_32_" gradientUnits="userSpaceOnUse" x1="330.536" y1="3144.74" x2="330.536" y2="2870.234" gradientTransform="translate(0 -2836)"><stop offset="0" style="stop-color:#7c94b1"/><stop offset=".511" style="stop-color:#758daa"/><stop offset="1" style="stop-color:#859ebc"/></linearGradient><path d="m380.9 56.2-1.5 102.6c0 13.4-1.9 26.3-5 38.1-7.1 26.8-20.6 49-32.5 64.6-18.1 23.8-41.7 44-61.7 52.9v-275c34.4 10.2 70.5 14.6 100.7 16.8z" style="fill:url(#SVGID_32_)"/><path class="st11" d="M381.4 56.2c-.2 6.2-.5 12.4-.6 18.5-.1 6.2-.3 12.4-.4 18.5l-.3 18.5c-.1 6.2-.1 12.4-.1 18.5v18.5l-.1 9.2c-.1 3.1-.2 6.2-.3 9.2 0 1.5-.3 3-.4 4.6l-.5 4.6c-.1 1.5-.4 3-.7 4.6l-.7 4.6c-.2 1.5-.6 3-.9 4.6l-1 4.6-.3 1.1-.3 1.1-.7 2.2-1.3 4.4-.7 2.2-.8 2.2-1.5 4.4c-1 3-2.3 5.8-3.5 8.7-.7 1.4-1.1 2.9-1.9 4.2l-2.1 4.2c-.7 1.3-1.3 2.8-2.1 4.2l-2.3 4c-.8 1.3-1.5 2.8-2.3 4l-2.4 4c-.9 1.3-1.5 2.7-2.5 3.9l-2.6 3.8c-3.5 5.1-7.2 10.1-11.2 14.9-7.9 9.5-16.7 18.3-26.1 26.3-4.8 4-9.7 7.7-14.9 11.1-5.1 3.4-10.6 6.5-16.2 9l-.1.1-.1-.1c-5.6-2.6-11-5.7-16.1-9.1-5.1-3.4-10-7.2-14.7-11.2-4.7-4-9.1-8.3-13.4-12.7-4.4-4.4-8.5-9-12.4-13.8s-7.6-9.7-11-14.9l-2.6-3.8c-.9-1.3-1.6-2.6-2.5-3.9l-2.4-3.9-2.3-4c-.7-1.3-1.5-2.7-2.3-4l-2.1-4.2c-.7-1.3-1.4-2.8-2.1-4.2l-1.9-4.2-1.9-4.2-1.6-4.4-1.6-4.4c-.5-1.4-.9-3-1.3-4.4-.9-3-1.9-5.8-2.6-8.9-.7-3-1.5-6-2-9-1.1-6-1.9-12.2-2.3-18.3-.1-3-.3-6.2-.3-9.2l-.2-9.2-.3-18.5-1.1-73.9v-.7l.5-.1 6.4-.5c2.2-.2 4.2-.3 6.4-.5l6.4-.7c2.2-.2 4.2-.4 6.4-.7l6.4-.8c2.2-.3 4.2-.5 6.4-.8l6.3-.9c2.1-.3 4.2-.6 6.3-1l6.3-1c2.1-.4 4.2-.7 6.3-1.1l6.2-1.2c2.1-.5 4.2-.8 6.2-1.3l6.2-1.4c2.1-.5 4.2-.9 6.2-1.5l12.4-3.4.1-.1.1.1 12.3 3.6c2.1.6 4.2 1 6.2 1.5l6.2 1.5c2.1.5 4.2.9 6.2 1.3l6.2 1.3c2.1.5 4.2.8 6.3 1.1l6.3 1c2.1.4 4.2.7 6.3.9l6.3 1.1c2.1.3 4.2.5 6.4.8l6.4.7c2.2.3 4.2.4 6.4.6l6.4.6c2.2.2 4.2.3 6.4.5l6.9.4.2.6zm-1 .5-5.9-.6c-2.2-.2-4.2-.4-6.4-.7l-6.4-.7c-2.2-.3-4.2-.5-6.4-.7l-6.4-.8c-2.2-.3-4.2-.5-6.4-.9l-6.3-.9c-2.1-.3-4.2-.6-6.3-1l-6.3-1c-2.1-.4-4.2-.7-6.3-1.1l-6.3-1.2c-2.1-.5-4.2-.8-6.2-1.2l-6.2-1.4c-2.1-.5-4.2-.9-6.2-1.4L280 39.9h.3l-12.4 3.4c-2.1.5-4.2 1-6.2 1.5l-6 1.5c-2.1.5-4.2.9-6.2 1.3l-6.3 1.2c-2.1.5-4.2.8-6.3 1.1l-6.3 1c-2.1.4-4.2.7-6.3 1l-6.4.9c-2.1.3-4.2.5-6.4.8l-6.4.8c-2.2.3-4.2.5-6.4.7l-6.4.7c-2.2.2-4.2.3-6.4.5l-6.4.5.5-.6.9 74 .2 18.5.1 9.2c.1 3 .2 6.2.3 9.2.4 6.1 1 12.3 2.2 18.3.5 3 1.3 6 1.9 9 .7 3 1.6 5.9 2.5 8.9.5 1.5.9 3 1.3 4.4l1.6 4.4 1.6 4.4 1.8 4.2 1.8 4.2c.7 1.4 1.3 2.8 2 4.2l2.1 4.2c.7 1.3 1.5 2.8 2.2 4l2.3 4 2.4 4c.9 1.3 1.6 2.6 2.5 3.9l2.6 3.8c3.4 5 7.1 10 11.1 14.8 7.8 9.5 16.5 18.3 25.9 26.3 4.8 4 9.6 7.7 14.8 11.1 5.1 3.4 10.5 6.5 16.1 8.9h-.3c5.6-2.6 10.9-5.6 16-9.1 5-3.4 9.9-7.2 14.7-11.2 9.3-8 17.9-16.9 25.7-26.4 3.9-4.8 7.5-9.7 11-14.9l2.6-3.8c.9-1.2 1.6-2.6 2.5-3.9l2.4-3.9c.8-1.3 1.5-2.7 2.3-4l2.2-4c.7-1.3 1.3-2.8 2.1-4.1l2-4.1c.7-1.3 1.2-2.8 1.8-4.2 1.2-2.8 2.5-5.6 3.4-8.5l1.5-4.3.8-2.2.7-2.2 1.3-4.4.7-2.2.3-1.1.3-1.1 1-4.5c.3-1.5.7-3 1-4.5l.8-4.6c.3-1.5.6-3 .7-4.6l.5-4.6c.1-1.5.4-3 .4-4.6l.3-9.2.2-9.2.5-18.5c.2-6.2.3-12.4.4-18.5l.2-18.5c.1-6.2.1-12.4.1-18.5.1-6 .1-12 .1-18z"/><linearGradient id="SVGID_33_" gradientUnits="userSpaceOnUse" x1="174.221" y1="2886.547" x2="453.772" y2="2886.547" gradientTransform="translate(0 -2836)"><stop offset="0" style="stop-color:#97b1d0"/><stop offset=".309" style="stop-color:#859ebc"/><stop offset=".724" style="stop-color:#738ba8"/><stop offset="1" style="stop-color:#6c84a0"/></linearGradient><path d="m380.9 56.2-6.2 5.6H185.6l-6.2-5.6c11.2-.9 23.3-1.9 35.9-3.6 9.7-1.2 19.6-2.8 29.6-4.8 11.8-2.3 23.6-5 35.2-8.6 34.5 10.4 70.6 14.8 100.8 17z" style="fill:url(#SVGID_33_)"/><radialGradient id="SVGID_34_" cx="1295.328" cy="5287.306" r="326.169" gradientTransform="translate(-426.835 -2801.36) scale(.5501)" gradientUnits="userSpaceOnUse"><stop offset="0" style="stop-color:#fff"/><stop offset="1" style="stop-color:#758da9"/></radialGradient><path d="M280.2 51.8v256c-18.7-9.1-40.3-28-56.9-49.9-8.9-11.8-18.9-27.6-26.1-46.2-4.2-10.8-7.3-22.4-8.9-34.9-.7-5.3-1.1-10.8-1.1-16.4v-1.6l-1.5-97c28.9-2.6 94.5-10 94.5-10z" style="fill:url(#SVGID_34_)"/><radialGradient id="SVGID_35_" cx="1253.363" cy="5530.16" r="333.41" gradientTransform="translate(-426.835 -2801.36) scale(.5501)" gradientUnits="userSpaceOnUse"><stop offset="0" style="stop-color:#607691"/><stop offset="1" style="stop-color:#8098b5"/></radialGradient><path d="m374.7 61.8-1.5 96.8v1.3c-.1 5.7-.5 11.4-1.1 16.9-1.3 10.1-3.7 19.8-6.8 28.8C358 227 346.9 244.8 337 258c-16.7 21.9-38.2 40.7-56.9 49.9v-256c.1-.1 65.5 7.3 94.6 9.9z" style="fill:url(#SVGID_35_)"/><path class="st15" d="m397.8 32.6-1.3 86.4-.7 43.1c-.2 7.2-.9 14.4-1.9 21.5-1.1 7.1-2.8 14.2-4.8 21s-4.4 13.7-7.2 20.4c-2.8 6.7-6 13.1-9.4 19.4-3.5 6.3-7.3 12.4-11.4 18.3s-8.5 11.6-13 17.1c-4.6 5.5-9.5 10.8-14.7 15.9s-10.6 9.8-16.1 14.3c-5.6 4.5-11.5 8.7-17.7 12.4-6.2 3.7-12.6 6.9-19.4 9.3-6.8-2.4-13.2-5.7-19.4-9.4-6.2-3.7-12-7.9-17.7-12.4-5.6-4.5-11-9.3-16.1-14.4-5.1-5-9.9-10.4-14.7-15.9-4.6-5.5-9.1-11.2-13.2-17-4.2-5.8-8.1-12-11.6-18.3-3.5-6.3-6.7-12.8-9.4-19.4-2.8-6.7-5.2-13.4-7.2-20.4-1.9-6.9-3.5-14-4.6-21.1-1.1-7.1-1.7-14.4-1.7-21.6 0-7.2.1-14.4 0-21.6 0-7.2-.3-14.4-.5-21.6-.1-3.6-.3-7.2-.3-10.8-.1-3.6-.1-7.2-.1-10.8-.1-7.2-.5-64.7-.5-64.7-.1 7.2 1.1 57.5 1.3 64.7.1 3.6.2 7.2.1 10.8.1 3.6 0 7.2 0 10.8-.1 7.2-.1 14.4.1 21.6.1 7.2.4 14.4.6 21.6.1 3.6.3 7.1.7 10.8.3 3.6.8 7.1 1.3 10.7 1.1 7.1 2.8 14.1 4.8 20.9 2.1 6.9 4.4 13.6 7.2 20.3 2.8 6.7 5.9 13 9.3 19.4 3.4 6.3 7.1 12.5 11 18.5 4 6 8.2 11.8 12.8 17.3 4.6 5.5 9.5 10.9 14.6 15.9s10.6 9.8 16.1 14.4c5.6 4.5 11.5 8.7 17.7 12.4 6.2 3.7 12.6 6.9 19.4 9.4 6.8-2.4 13.2-5.7 19.4-9.4 6.2-3.7 12-7.9 17.6-12.4 5.6-4.5 11-9.3 16.1-14.4 5.1-5 9.9-10.3 14.6-15.9 4.6-5.5 8.9-11.2 13-17.1 4-5.9 7.9-12.1 11.3-18.4 3.4-6.3 6.7-12.8 9.3-19.4 2.8-6.7 5.2-13.4 7.1-20.4 1.9-6.9 3.6-13.9 4.7-21s1.7-14.2 1.9-21.4l.5-43.1 1.1-86.4 1 .1z"/><linearGradient id="SVGID_36_" gradientUnits="userSpaceOnUse" x1="280.47" y1="3102.048" x2="280.47" y2="3007.046" gradientTransform="translate(0 -2836)"><stop offset="0" style="stop-color:#fff"/><stop offset="1" style="stop-color:#475d75"/></linearGradient><path d="M392.3 191.2c-14.5 70.6-72.8 126.8-112.1 140.7-38.8-13.7-96.2-68.7-111.5-138.1 5 1.1 10.9 2.4 17.5 3.6 7.1 26.6 20.5 48.6 32.3 64.1 18.1 23.8 41.7 44 61.7 52.9 20-8.9 43.7-29 61.8-52.9 12-15.9 25.7-38.5 32.7-65.8 5.7-1.2 11.5-2.7 17.6-4.5z" style="opacity:.7;fill:url(#SVGID_36_);enable-background:new"/><path class="st11" d="M397.4 32.9C362 32.4 318.3 19.8 280.1 8c-38.2 11.8-81.8 24.2-117.2 24.7 35.3-.5 79-13.4 117.1-25.3h.2c38.2 11.8 81.9 24.5 117.1 24.9l.1.6z"/><radialGradient id="SVGID_37_" cx="145.379" cy="2877.762" r="187.403" gradientTransform="translate(12.318 -2893.025) scale(1.0674)" gradientUnits="userSpaceOnUse"><stop offset="0" style="stop-color:#9db7d7"/><stop offset="1" style="stop-color:#667e99"/></radialGradient><path d="M401.2 28.9 399.6 143l-.1 6.6-.1 9.3v2.2c0 .7 0 1.3-.1 2 0 .3 0 .5-.1.7V165.4c0 .3-.1.7-.1.9 0 .3 0 .6-.1.9-.1.7-.1 1.4-.1 2.2-.1.8-.1 1.5-.2 2.4-.1.7-.1 1.2-.1 1.9-.1.7-.1 1.2-.2 1.9 0 .1 0 .3-.1.4-.2 2-.5 4-.7 6-.2 1.3-.4 2.8-.7 4.1-.1.7-.3 1.3-.4 2-.1.7-.3 1.3-.4 2-.4 2-.8 4-1.2 5.9-.1.7-.3 1.3-.5 1.9-.3 1-.5 1.9-.7 2.9-.3 1-.5 1.9-.8 2.9-.2.7-.3 1.2-.5 1.9s-.4 1.2-.5 1.9c-.6 1.8-1.1 3.7-1.7 5.5-.5 1.4-1 3-1.5 4.4-.2.7-.5 1.2-.7 1.8-.2.7-.5 1.2-.7 1.8-.2.6-.5 1.1-.7 1.8-.3.8-.7 1.5-.9 2.4-1 2.4-1.9 4.7-3 6.9-.9 1.9-1.7 3.8-2.7 5.6l-.9 1.6c-.3.6-.5 1.1-.9 1.6-.1.2-.2.5-.3.7-.5.9-.9 1.7-1.4 2.7-.9 1.7-1.8 3.2-2.8 4.9-1.1 1.9-2.3 3.8-3.4 5.7-1.1 1.9-2.3 3.6-3.4 5.4-.6.9-1.1 1.7-1.7 2.6-.3.5-.6.9-.9 1.3-.3.5-.6.9-.9 1.2-.3.4-.6.9-.9 1.2-.6.9-1.1 1.6-1.7 2.4-.6.8-1.1 1.5-1.7 2.4-.3.4-.6.8-.9 1.1-.3.3-.6.7-.9 1.1-1.8 2.4-3.6 4.7-5.4 6.9-.7.9-1.3 1.6-2 2.5-1.3 1.6-2.8 3.2-4.2 4.8-.7.8-1.4 1.5-2.2 2.4-1.4 1.5-2.9 3-4.4 4.6-.4.4-.7.8-1.1 1.1l-1.1 1.1c-.7.7-1.4 1.5-2.2 2.2-1.6 1.5-3.2 3.1-4.8 4.6-.6.6-1.2 1.1-1.9 1.7-15.6 14-32.2 24.7-47 30l-1.3.5-1.3-.5c-14.9-5.2-31.3-15.9-46.9-29.9-8.3-7.4-16.4-15.8-23.8-24.8-1.9-2.4-3.8-4.7-5.6-7.1-12.7-16.7-27.2-40.7-35.2-69.7-2.8-10.1-4.8-20.8-5.6-32-.2-2.2-.3-4.4-.4-6.5-.1-2.2-.1-4.3-.1-6.5l-.1-9.2-.1-6.6L159 29.1l3.8-.1c34.9-.5 78.3-13 116.1-24.8l1.1-.4 1.1.4C318.8 16 362.2 28.5 397 29l4.2-.1z" style="fill:url(#SVGID_37_)"/><linearGradient id="SVGID_38_" gradientUnits="userSpaceOnUse" x1="219.691" y1="2852.414" x2="221.823" y2="2860.091" gradientTransform="translate(0 -2836)"><stop offset="0" style="stop-color:#8ea8c6"/><stop offset="1" style="stop-color:#a4bede"/></linearGradient><path d="M280.2 3.7v10.9L175 39.4l-12-6.8-3.8-3.7 3.8-.1c34.9-.5 78.3-13 116.1-24.8l1.1-.3z" style="fill:url(#SVGID_38_)"/><linearGradient id="SVGID_39_" gradientUnits="userSpaceOnUse" x1="266.668" y1="3175.555" x2="376.09" y2="2806.814" gradientTransform="translate(0 -2836)"><stop offset="0" style="stop-color:#88a1bf"/><stop offset=".453" style="stop-color:#6b839e"/><stop offset="1" style="stop-color:#95aecd"/></linearGradient><path d="M401.2 28.9 399.6 143l-.2 15.9V161.2c0 .9-.1 1.8-.1 2.8V165.6c0 .3 0 .7-.1 1v.9c-.1.7-.1 1.4-.1 2.2-.1 1.4-.2 2.9-.3 4.2-.1.7-.1 1.2-.2 1.9 0 .1 0 .3-.1.4-.2 2-.5 4-.7 6-.2 1.3-.4 2.8-.7 4.1-.1.7-.3 1.3-.4 2-.1.7-.3 1.3-.4 2-.4 2-.8 4-1.2 5.9-.4 1.6-.8 3.2-1.1 4.8-.3 1-.5 1.9-.8 2.9-.2.7-.3 1.2-.5 1.9s-.4 1.2-.5 1.9c-.6 1.9-1.1 3.7-1.7 5.5-.5 1.4-1 3-1.5 4.4-.2.6-.5 1.2-.7 1.8-.2.7-.5 1.2-.7 1.8-.2.6-.5 1.1-.7 1.8-.3.8-.7 1.5-1 2.4-1 2.4-1.9 4.7-3 6.9-.9 1.9-1.7 3.8-2.7 5.6l-.9 1.6c-.3.5-.6 1.1-.9 1.6-.1.2-.2.5-.3.7-.5.9-.9 1.7-1.4 2.7-.9 1.7-1.8 3.3-2.8 4.9-1.1 1.9-2.3 3.8-3.4 5.7-1.1 1.9-2.3 3.6-3.4 5.4-.6.9-1.1 1.7-1.7 2.6-.3.5-.6.9-.9 1.3-.3.5-.6.9-.9 1.2-.3.3-.6.9-.9 1.2-.6.9-1.1 1.6-1.7 2.4-.6.8-1.1 1.5-1.7 2.4-.3.4-.6.8-.9 1.1-.3.4-.5.7-.9 1.1-1.8 2.4-3.6 4.7-5.4 6.9-.7.9-1.3 1.6-2 2.5-1.3 1.6-2.8 3.2-4.2 4.8-.7.8-1.4 1.5-2.2 2.4-1.4 1.5-2.9 3-4.4 4.6-.4.4-.7.8-1.1 1.1l-1.1 1.1c-.7.7-1.4 1.5-2.2 2.2-1.6 1.5-3.2 3.1-4.8 4.6-.6.6-1.2 1.1-1.9 1.7-15.6 14-32.2 24.7-47.1 30l-1.2.5V3.7l1.1.3c37.9 11.8 81.3 24.3 116.1 24.8l4.1.1z" style="fill:url(#SVGID_39_)"/><linearGradient id="SVGID_40_" gradientUnits="userSpaceOnUse" x1="336.98" y1="2863.669" x2="339.739" y2="2855.205" gradientTransform="translate(0 -2836)"><stop offset="0" style="stop-color:#7e97b4"/><stop offset="1" style="stop-color:#98b2d1"/></linearGradient><path d="m401.2 28.9-3.8 3.7-5.5 9.2-111.7-27.2V3.7l1.1.3c37.9 11.8 81.3 24.3 116.1 24.8l3.8.1z" style="fill:url(#SVGID_40_)"/><linearGradient id="SVGID_41_" gradientUnits="userSpaceOnUse" x1="157.76" y1="3032.975" x2="292.473" y2="3001.863" gradientTransform="translate(0 -2836)"><stop offset="0" style="stop-color:#9fb9d9"/><stop offset=".15" style="stop-color:#8fa9c7"/><stop offset=".328" style="stop-color:#829cb9"/><stop offset=".479" style="stop-color:#7e97b4"/><stop offset=".598" style="stop-color:#829bb8"/><stop offset=".719" style="stop-color:#8da7c4"/><stop offset=".842" style="stop-color:#9fbad9"/><stop offset=".965" style="stop-color:#b9d5f5"/><stop offset="1" style="stop-color:#c2deff"/></linearGradient><path d="M280.2 7.6v324.3c-38.6-13.6-95.8-68.4-111.4-137.4-2.6-11.6-4-23.5-4-35.8L163 32.6c19.5-.3 41.7-4.3 63.3-9.6 11-2.7 21.9-5.7 32.3-8.8 7.5-2.2 14.6-4.4 21.6-6.6z" style="fill:url(#SVGID_41_)"/><linearGradient id="SVGID_42_" gradientUnits="userSpaceOnUse" x1="521.227" y1="2999.056" x2="220.936" y2="3007.413" gradientTransform="translate(0 -2836)"><stop offset="0" style="stop-color:#fff"/><stop offset=".446" style="stop-color:#859ebc"/><stop offset="1" style="stop-color:#6e85a1"/></linearGradient><path d="m397.4 32.6-1.7 126.1c0 11.2-1.2 22.3-3.4 32.9-14.7 70.4-72.8 126.3-112 140.2V7.6c34.7 10.9 80.4 24.5 117.1 25z" style="fill:url(#SVGID_42_)"/><linearGradient id="SVGID_43_" gradientUnits="userSpaceOnUse" x1="280.47" y1="3102.048" x2="280.47" y2="3007.046" gradientTransform="translate(0 -2836)"><stop offset="0" style="stop-color:#fff"/><stop offset="1" style="stop-color:#475d75"/></linearGradient><path d="M392.3 191.2c-14.5 70.6-72.8 126.8-112.1 140.7-38.8-13.7-96.2-68.7-111.5-138.1 5 1.1 10.9 2.4 17.5 3.6 7.1 26.6 20.5 48.6 32.3 64.1 18.1 23.8 41.7 44 61.7 52.9 20-8.9 43.7-29 61.8-52.9 12-15.9 25.7-38.5 32.7-65.8 5.7-1.2 11.5-2.7 17.6-4.5z" style="opacity:.5;fill:url(#SVGID_43_);enable-background:new"/><linearGradient id="SVGID_44_" gradientUnits="userSpaceOnUse" x1="221.466" y1="3033.486" x2="221.466" y2="2850.56" gradientTransform="translate(0 -2836)"><stop offset="0" style="stop-color:#c2deff"/><stop offset=".064" style="stop-color:#b9d5f5;stop-opacity:.9326"/><stop offset=".289" style="stop-color:#9fbad9;stop-opacity:.6965"/><stop offset=".514" style="stop-color:#8da7c4;stop-opacity:.4608"/><stop offset=".736" style="stop-color:#829bb8;stop-opacity:.2277"/><stop offset=".954" style="stop-color:#7e97b4;stop-opacity:0"/></linearGradient><path d="M280.2 14.6V39h-.2l-12.4 3.4c-2.1.5-4.2 1-6.2 1.5l-6.2 1.4c-2.1.5-4.2.9-6.2 1.3l-6.2 1.2c-2.1.5-4.2.7-6.3 1.1l-6.3 1c-2.1.4-4.2.7-6.3 1l-6.3.9c-2.1.3-4.2.5-6.4.8l-6.3.8c-2.2.3-4.2.5-6.4.7l-6.4.7c-2.2.2-4.2.4-6.4.5l-6.4.5-.5.1v.5l1.3 74 .3 18.5.2 9.2c.1 3 .3 6.2.3 9.2.5 6.2 1.1 12.3 2.4 18.3.5 3 1.3 6 2 9 .2 1 .5 1.9.7 2.9-6.3-1.1-12-2.4-16.9-3.5-.8-3.4-1.5-6.9-2-10.5-.6-3.6-1-7.1-1.3-10.7-.4-3.6-.6-7.1-.7-10.8-.2-7.1-.5-14.4-.6-21.6 0-.7-.1-1.4-.1-2.2l-.1-3v-.8c-.1-5.2 0-10.5 0-15.7 0-3.6.1-7.2 0-10.8 0-3.6-.1-7.2-.2-10.8-.1-4.7-.7-27.9-1-45.4v-1.2l-.3-16.3v-1.7l12 6.8 105.4-24.7z" style="fill:url(#SVGID_44_)"/><linearGradient id="SVGID_45_" gradientUnits="userSpaceOnUse" x1="338.567" y1="3044.908" x2="338.567" y2="2887.839" gradientTransform="translate(0 -2836)"><stop offset="0" style="stop-color:#c2deff"/><stop offset=".064" style="stop-color:#b9d5f5;stop-opacity:.9326"/><stop offset=".289" style="stop-color:#9fbad9;stop-opacity:.6965"/><stop offset=".514" style="stop-color:#8da7c4;stop-opacity:.4608"/><stop offset=".736" style="stop-color:#829bb8;stop-opacity:.2277"/><stop offset=".954" style="stop-color:#7e97b4;stop-opacity:0"/></linearGradient><path d="m396.8 33.4-1.1 85.5-.5 43.1c-.1 7.1-.8 14.4-1.9 21.4-.4 2.6-.9 5.2-1.3 7.7-5.7 1.6-11.2 3-16.7 4.3l.2-.9 1-4.6c.3-1.5.7-3 .9-4.6l.7-4.6c.3-1.5.5-3 .7-4.6l.5-4.6c.1-1.5.4-3 .4-4.6.1-3 .2-6.2.3-9.2l.1-9.2.1-18.5c0-6 .1-11.9.1-17.9V110.8l.3-17.6c.1-6.2.3-12.4.4-18.5.1-6.2.4-12.4.6-18.5v-.5l-6.9-.5c-2.2-.1-4.2-.3-6.4-.5l-6.4-.6c-2.2-.2-4.2-.3-6.4-.6l-6.4-.7c-2.2-.3-4.2-.5-6.4-.8l-6.3-.9-6.3-.9-6.3-1c-2.1-.4-4.2-.7-6.3-1.1l-6.2-1.3c-2.1-.5-4.2-.8-6.2-1.3l-6.2-1.5c-2.1-.5-4.2-1-6.2-1.5l-12.3-3.6-.1-.1V14.4L392 41.7l4.8-8.3z" style="fill:url(#SVGID_45_)"/><linearGradient id="SVGID_46_" gradientUnits="userSpaceOnUse" x1="296.465" y1="2883.232" x2="296.465" y2="2875.218" gradientTransform="translate(0 -2836)"><stop offset="0" style="stop-color:#7c94b1"/><stop offset=".511" style="stop-color:#758daa"/><stop offset="1" style="stop-color:#859ebc"/></linearGradient><path d="M280.2 39.9v-.5c10.8 3.2 21.7 5.8 32.6 8.1l-1.5-.3c-2.1-.5-4.2-.8-6.2-1.2l-6.2-1.4c-2.1-.5-4.2-.9-6.2-1.4l-12.5-3.3z" style="fill:url(#SVGID_46_)"/><linearGradient id="SVGID_47_" gradientUnits="userSpaceOnUse" x1="317.197" y1="2885.07" x2="317.197" y2="2883.367" gradientTransform="translate(0 -2836)"><stop offset="0" style="stop-color:#7c94b1"/><stop offset=".511" style="stop-color:#758daa"/><stop offset="1" style="stop-color:#859ebc"/></linearGradient><path d="m317.5 48.4-4.8-.9c3 .6 6 1.1 9 1.7-1.3-.4-2.8-.6-4.2-.8z" style="fill:url(#SVGID_47_)"/><linearGradient id="SVGID_48_" gradientUnits="userSpaceOnUse" x1="334.602" y1="2887.751" x2="334.602" y2="2886.583" gradientTransform="translate(0 -2836)"><stop offset="0" style="stop-color:#7c94b1"/><stop offset=".511" style="stop-color:#758daa"/><stop offset="1" style="stop-color:#859ebc"/></linearGradient><path d="M330.7 50.6c2.6.4 5.2.8 7.8 1.1l-2.2-.3c-1.8-.2-3.7-.5-5.6-.8z" style="fill:url(#SVGID_48_)"/><linearGradient id="SVGID_49_" gradientUnits="userSpaceOnUse" x1="330.536" y1="3144.994" x2="330.536" y2="2882.858" gradientTransform="translate(0 -2836)"><stop offset="0" style="stop-color:#7c94b1"/><stop offset=".511" style="stop-color:#758daa"/><stop offset="1" style="stop-color:#859ebc"/></linearGradient><path d="m380.9 56.2-1.5 102.6c0 13.4-1.9 26.2-5 38.1-7.1 26.8-20.6 49-32.5 64.6-18.1 23.8-41.7 44-61.7 52.9V51.8c1.1.1 65.7 7.5 94.6 10.1h.1l5.6-5.1-5.9-.6c-2.2-.2-4.2-.4-6.4-.7l-6.4-.7c-2.2-.3-4.2-.5-6.4-.7l-6.4-.8c-2.1-.3-4.2-.5-6.4-.8l-4.2-.6c15 2 29.3 3.3 42.5 4.3z" style="fill:url(#SVGID_49_)"/><linearGradient id="SVGID_50_" gradientUnits="userSpaceOnUse" x1="179.902" y1="3021.289" x2="280.168" y2="3021.289" gradientTransform="translate(0 -2836)"><stop offset="0" style="stop-color:#000f21"/><stop offset="1" style="stop-color:#fff"/></linearGradient><path d="M280.2 307.7v6.3c-5.6-2.5-10.9-5.5-15.9-8.9-5.1-3.4-10.1-7.1-14.8-11.1-9.4-7.9-18.1-16.8-25.9-26.3-3.9-4.8-7.6-9.7-11.1-14.8l-2.6-3.8c-.9-1.3-1.6-2.6-2.5-3.9l-2.4-4-2.3-4c-.7-1.3-1.5-2.7-2.2-4l-2.1-4.2c-.7-1.3-1.3-2.8-2-4.2l-1.8-4.2-1.8-4.2-1.6-4.4-1.6-4.4c-.5-1.4-.9-3-1.3-4.4-.9-3-1.9-5.8-2.5-8.9-.7-3-1.5-6-1.9-9-1.1-6-1.8-12.2-2.2-18.3-.1-3-.2-6.2-.3-9.2l-.1-9.2-.2-18.5-.9-73.5 5.6 5 1.4 97v1.6c.1 4.2.3 8.3.7 12.4v.1c.1 1.3.3 2.7.5 4 .4 3.1.9 6.2 1.5 9.2.1.1.1.3.1.4.2 1.1.5 2.2.7 3.3.2.8.4 1.5.6 2.4.2 1 .5 1.9.7 2.9.1.2.1.4.2.6.3 1 .5 1.9.8 3 .1.1.1.3.1.5.3 1.1.7 2.2 1 3.3v.1c.3 1.1.7 2.3 1.1 3.4.7 2.1 1.4 4.1 2.2 6.1.1.1.1.1.1.3.4 1.1.9 2.2 1.3 3.2.5 1.1.9 2.2 1.3 3.3l.3.6c.4.9.8 1.7 1.1 2.6.2.4.3.7.5 1.1.4.8.8 1.6 1.1 2.4.5 1 1 1.9 1.4 3 .6 1.1 1.1 2.4 1.8 3.4.5 1 1 1.9 1.6 3 .5 1 1.1 1.9 1.7 3 .6 1 1.1 1.9 1.7 2.9.3.5.6.9.9 1.4.5.9 1.1 1.7 1.6 2.7 0 .1.1.1.1.1.3.5.6.9.9 1.3 0 0 0 .1.1.1.4.7.8 1.2 1.2 1.8 1.1 1.7 2.4 3.5 3.6 5.2.1.2.3.3.4.5.1.1.2.3.3.4.5.6.9 1.1 1.2 1.7.7.9 1.2 1.7 1.9 2.6 1.5 2.1 3.2 4.1 4.8 6 4.4 5.3 8.9 10.4 13.8 15.1 12.3 12 25.7 22.2 38.1 28.1z" style="opacity:.3;fill:url(#SVGID_50_);enable-background:new"/><path class="st11" d="M381.4 56.2c-.2 6.2-.5 12.4-.6 18.5-.1 6.2-.3 12.4-.4 18.5l-.3 18.5c-.1 6.2-.1 12.4-.1 18.5v18.5l-.1 9.2c-.1 3.1-.2 6.2-.3 9.2 0 1.5-.3 3-.4 4.6l-.5 4.6c-.1 1.5-.4 3-.7 4.6l-.7 4.6c-.2 1.5-.6 3-.9 4.6l-1 4.6-.3 1.1-.3 1.1-.7 2.2-1.3 4.4-.7 2.2-.8 2.2-1.5 4.4c-1 3-2.3 5.8-3.5 8.7-.7 1.4-1.1 2.9-1.9 4.2l-2.1 4.2c-.7 1.3-1.3 2.8-2.1 4.2l-2.3 4c-.8 1.3-1.5 2.8-2.3 4l-2.4 4c-.9 1.3-1.5 2.7-2.5 3.9l-2.6 3.8c-3.5 5.1-7.2 10.1-11.2 14.9-7.9 9.5-16.7 18.3-26.1 26.3-4.8 4-9.7 7.7-14.9 11.1-5.1 3.4-10.6 6.5-16.2 9l-.1.1-.1-.1c-5.6-2.6-11-5.7-16.1-9.1-5.1-3.4-10-7.2-14.7-11.2-4.7-4-9.1-8.3-13.4-12.7-4.4-4.4-8.5-9-12.4-13.8s-7.6-9.7-11-14.9l-2.6-3.8c-.9-1.3-1.6-2.6-2.5-3.9l-2.4-3.9-2.3-4c-.7-1.3-1.5-2.7-2.3-4l-2.1-4.2c-.7-1.3-1.4-2.8-2.1-4.2l-1.9-4.2-1.9-4.2-1.6-4.4-1.6-4.4c-.5-1.4-.9-3-1.3-4.4-.9-3-1.9-5.8-2.6-8.9-.7-3-1.5-6-2-9-1.1-6-1.9-12.2-2.3-18.3-.1-3-.3-6.2-.3-9.2l-.2-9.2-.3-18.5-1.1-73.9v-.7l.5-.1 6.4-.5c2.2-.2 4.2-.3 6.4-.5l6.4-.7c2.2-.2 4.2-.4 6.4-.7l6.4-.8c2.2-.3 4.2-.5 6.4-.8l6.3-.9c2.1-.3 4.2-.6 6.3-1l6.3-1c2.1-.4 4.2-.7 6.3-1.1l6.2-1.2c2.1-.5 4.2-.8 6.2-1.3l6.2-1.4c2.1-.5 4.2-.9 6.2-1.5l12.4-3.4.1-.1.1.1 12.3 3.6c2.1.6 4.2 1 6.2 1.5l6.2 1.5c2.1.5 4.2.9 6.2 1.3l6.2 1.3c2.1.5 4.2.8 6.3 1.1l6.3 1c2.1.4 4.2.7 6.3.9l6.3 1.1c2.1.3 4.2.5 6.4.8l6.4.7c2.2.3 4.2.4 6.4.6l6.4.6c2.2.2 4.2.3 6.4.5l6.9.4.2.6zm-1 .5-5.9-.6c-2.2-.2-4.2-.4-6.4-.7l-6.4-.7c-2.2-.3-4.2-.5-6.4-.7l-6.4-.8c-2.2-.3-4.2-.5-6.4-.9l-6.3-.9c-2.1-.3-4.2-.6-6.3-1l-6.3-1c-2.1-.4-4.2-.7-6.3-1.1l-6.3-1.2c-2.1-.5-4.2-.8-6.2-1.2l-6.2-1.4c-2.1-.5-4.2-.9-6.2-1.4L280 39.9h.3l-12.4 3.4c-2.1.5-4.2 1-6.2 1.5l-6 1.5c-2.1.5-4.2.9-6.2 1.3l-6.3 1.2c-2.1.5-4.2.8-6.3 1.1l-6.3 1c-2.1.4-4.2.7-6.3 1l-6.4.9c-2.1.3-4.2.5-6.4.8l-6.4.8c-2.2.3-4.2.5-6.4.7l-6.4.7c-2.2.2-4.2.3-6.4.5l-6.4.5.5-.6.9 74 .2 18.5.1 9.2c.1 3 .2 6.2.3 9.2.4 6.1 1 12.3 2.2 18.3.5 3 1.3 6 1.9 9 .7 3 1.6 5.9 2.5 8.9.5 1.5.9 3 1.3 4.4l1.6 4.4 1.6 4.4 1.8 4.2 1.8 4.2c.7 1.4 1.3 2.8 2 4.2l2.1 4.2c.7 1.3 1.5 2.8 2.2 4l2.3 4 2.4 4c.9 1.3 1.6 2.6 2.5 3.9l2.6 3.8c3.4 5 7.1 10 11.1 14.8 7.8 9.5 16.5 18.3 25.9 26.3 4.8 4 9.6 7.7 14.8 11.1 5.1 3.4 10.5 6.5 16.1 8.9h-.3c5.6-2.6 10.9-5.6 16-9.1 5-3.4 9.9-7.2 14.7-11.2 9.3-8 17.9-16.9 25.7-26.4 3.9-4.8 7.5-9.7 11-14.9l2.6-3.8c.9-1.2 1.6-2.6 2.5-3.9l2.4-3.9c.8-1.3 1.5-2.7 2.3-4l2.2-4c.7-1.3 1.3-2.8 2.1-4.1l2-4.1c.7-1.3 1.2-2.8 1.8-4.2 1.2-2.8 2.5-5.6 3.4-8.5l1.5-4.3.8-2.2.7-2.2 1.3-4.4.7-2.2.3-1.1.3-1.1 1-4.5c.3-1.5.7-3 1-4.5l.8-4.6c.3-1.5.6-3 .7-4.6l.5-4.6c.1-1.5.4-3 .4-4.6l.3-9.2.2-9.2.5-18.5c.2-6.2.3-12.4.4-18.5l.2-18.5c.1-6.2.1-12.4.1-18.5.1-6 .1-12 .1-18z"/><linearGradient id="SVGID_51_" gradientUnits="userSpaceOnUse" x1="280.101" y1="2886.85" x2="380.367" y2="2886.85" gradientTransform="translate(0 -2836)"><stop offset="0" style="stop-color:#fff"/><stop offset="1" style="stop-color:#000f21"/></linearGradient><path d="m380.4 56.7-5.6 5.1h-.1c-28.8-2.6-93.5-9.9-94.6-10.1V39.9l12.3 3.1c2.1.5 4.2.9 6.2 1.4l6.2 1.4c2.1.5 4.2.9 6.2 1.2l1.5.3 4.8.9c1.4.3 2.9.5 4.3.8h.1c.1.1.2.1.3.1 1.5.3 3.2.6 4.8.8 1 .2 2.1.3 3.2.5.1 0 .2.1.3.1.1 0 .3.1.4.1 1.3.3 2.6.4 3.9.6.6.1 1.1.2 1.7.3l2.2.3 4.2.6c2.1.3 4.2.6 6.4.8l6.4.8c2.1.3 4.2.5 6.4.7l6.4.7c2.1.3 4.2.5 6.4.7l5.7.6z" style="opacity:.5;fill:url(#SVGID_51_);enable-background:new"/><linearGradient id="SVGID_52_" gradientUnits="userSpaceOnUse" x1="202.025" y1="2886.883" x2="306.029" y2="2886.883" gradientTransform="translate(0 -2836)"><stop offset="0" style="stop-color:#9eb8d9"/><stop offset=".165" style="stop-color:#9db6d7"/><stop offset="1" style="stop-color:#758daa"/></linearGradient><path d="M280.2 39.9v11.9s-65.5 7.4-94.6 10.1l-5.6-5 5.8-.5c2.2-.2 4.2-.3 6.4-.5l6.4-.7c2.2-.2 4.2-.4 6.4-.7l6.4-.8c2.1-.3 4.2-.5 6.4-.8l6.3-.9c2.1-.3 4.2-.6 6.3-1l6.3-1c2.1-.4 4.2-.7 6.3-1.1l6.3-1.2c2.1-.5 4.2-.8 6.2-1.3l6.2-1.5c2.1-.5 4.2-1 6.2-1.5l12.3-3.5z" style="fill:url(#SVGID_52_)"/><radialGradient id="SVGID_53_" cx="1253.363" cy="5530.16" r="333.41" gradientTransform="translate(-426.835 -2801.36) scale(.5501)" gradientUnits="userSpaceOnUse"><stop offset="0" style="stop-color:#1e5a99"/><stop offset="1" style="stop-color:#4ba5df"/></radialGradient><path d="m374.7 61.8-1.5 96.8v1.3c-.1 5.7-.5 11.4-1.1 16.9-1.3 10.1-3.7 19.8-6.8 28.8C358 227 346.9 244.8 337 258c-16.7 21.9-38.2 40.7-56.9 49.9v-256c.1-.1 65.5 7.3 94.6 9.9z" style="fill:url(#SVGID_53_)"/><radialGradient id="SVGID_54_" cx="-1140.358" cy="4571.979" r="274.506" gradientTransform="matrix(-.5501 0 0 .6898 -351.205 -2971.183)" gradientUnits="userSpaceOnUse"><stop offset="0" style="stop-color:#fcffff"/><stop offset=".102" style="stop-color:#d9f1fd"/><stop offset=".251" style="stop-color:#ade0fa"/><stop offset=".402" style="stop-color:#89d2f7"/><stop offset=".553" style="stop-color:#6cc6f5"/><stop offset=".703" style="stop-color:#58bef4"/><stop offset=".852" style="stop-color:#4cbaf3"/><stop offset="1" style="stop-color:#48b8f3"/></radialGradient><path d="m185.6 61.8 1.5 96.8v1.3c.1 5.7.5 11.4 1.1 16.9 1.3 10.1 3.7 19.8 6.8 28.8 7.3 21.4 18.3 39.2 28.3 52.4 16.7 21.9 38.2 40.7 56.9 49.9v-256c0-.1-65.6 7.3-94.6 9.9z" style="fill:url(#SVGID_54_)"/><radialGradient id="SVGID_55_" cx="189.567" cy="2549.429" r="150.992" gradientTransform="matrix(1 0 0 1.2541 0 -3014.659)" gradientUnits="userSpaceOnUse"><stop offset=".124" style="stop-color:#fff"/><stop offset=".832" style="stop-color:#fff;stop-opacity:0"/></radialGradient><path d="M280.2 51.8v256c-.1 0-.1-.1-.2-.1-18.7-9.1-40.1-28-56.7-49.8-9.9-13.1-21-30.9-28.3-52.4-3-8.9-5.4-18.6-6.8-28.8-.7-5.4-1.1-11-1.1-16.9v-1.3l-1.4-96.8c1.9-.2 4-.4 6.2-.6 31.1-2.9 88.3-9.3 88.3-9.3z" style="fill:url(#SVGID_55_)"/><path d="M280.2 51.8c-.1 0-57.1 6.5-88.3 9.5-2.2.2-4.3.4-6.2.6l1.4 96.8v1.3c.1 5.8.5 11.4 1.1 16.9 1.3 10.1 3.7 19.8 6.8 28.8 7.3 21.4 18.3 39.2 28.3 52.4 16.6 21.8 38 40.7 56.7 49.8.1 0 .1.1.2.1 9.3-4.6 19.4-11.5 29.2-20.2 9.8-8.6 19.3-18.8 27.6-29.7 9.9-13.1 21-30.9 28.3-52.4 3-8.9 5.4-18.6 6.8-28.8.7-5.4 1.1-11 1.1-16.9v-1.3l1.4-96.8c-29-2.7-94.4-10.1-94.4-10.1zm88.7 106.8v1.3c-.1 5.4-.5 11-1.1 16.3-1.2 9.3-3.4 18.7-6.6 27.9-6 17.6-15.3 34.7-27.6 51.1-15.5 20.5-35.9 38.6-53.5 47.6-17.6-9.1-38-27.1-53.5-47.6-12.4-16.3-21.6-33.5-27.6-51.1-3.1-9.2-5.3-18.6-6.6-27.9-.7-5.3-1.1-10.9-1.1-16.3v-1.3L190 65.7c.8-.1 1.5-.1 2.4-.2 29.5-2.8 82.4-8.8 88-9.4 5.8.7 61.3 6.9 90.3 9.6l-1.8 92.9z" style="opacity:.2;enable-background:new"/><g><path class="st60" d="M309.7 118.1c4.6 2.8 8.7 6.2 12.4 10.1 1.1 1.3 2.8 1.9 4.4 1.9 1.4 0 3-.5 4.1-1.6 2.5-2.3 2.6-6.1.3-8.5-4.4-4.8-9.4-8.9-14.9-12.3-2.9-1.7-6.6-.9-8.3 2s-.8 6.7 2 8.4zM223.8 166.5c0-31.2 25.4-56.6 56.6-56.6 3.2 0 6.5.3 9.5.8 3.3.6 6.5-1.7 6.9-5 .6-3.3-1.7-6.5-5-6.9-3.8-.7-7.7-1-11.6-1-37.9 0-68.7 30.8-68.7 68.7 0 16.1 5.6 31.7 15.9 44 1.1 1.4 3 2.2 4.6 2.2 1.3 0 2.8-.5 3.8-1.4 2.6-2.2 3-5.9.8-8.5-8.1-10.2-12.8-23-12.8-36.3zM344.7 142.4c-1.1-3.1-4.7-4.7-7.8-3.6-3.1 1.1-4.7 4.7-3.6 7.8 2.4 6.3 3.6 13 3.6 19.8 0 13.2-4.6 26-13 36.2-2.2 2.6-1.7 6.4.8 8.5 1.1.9 2.5 1.3 3.8 1.3 1.7 0 3.4-.7 4.7-2.2a68.64 68.64 0 0 0 15.8-43.8c.1-8.2-1.4-16.3-4.3-24z"/><g><path class="st60" d="M291.7 213.1c.1-.1.3-.1.5-.1.1 0 .3-.1.4-.1 19-5 33.3-21.4 35.3-41.5v-.3c0-.3.1-.6.1-.9.1-1.2.1-2.5.1-3.7v-1.8c0-.3 0-.6-.1-.9v-.4c-.1-1.3-.2-2.6-.4-3.8 0-.1 0-.2-.1-.3v-.1c-.1-.3-.1-.7-.2-1 0-.1 0-.2-.1-.3-.1-.3-.1-.6-.2-.9 0-.1-.1-.2-.1-.3 0-.1 0-.2-.1-.3-.1-.3-.1-.6-.2-.9-.1-.5-.3-1-.4-1.5-.1-.2-.1-.4-.1-.6v-.1c-.1-.5-.3-1-.4-1.4-.1-.2-.1-.5-.2-.7-.3-.7-.5-1.4-.8-2.2-.3-.9-.7-1.7-1-2.6 0-.1-.1-.1-.1-.1-.3-.8-.7-1.5-1.1-2.3l-.3-.6c-.2-.4-.4-.7-.6-1.1-4-7-9.7-12.9-16.6-17.1-.2-.1-.5-.3-.7-.4-.5-.3-.9-.5-1.3-.8l-1.5-.9s-.1 0-.1-.1c-.3-.1-.7-.3-1-.5-.1-.1-.2-.1-.3-.1-.3-.1-.5-.2-.7-.3-.2-.1-.3-.1-.5-.3-.1-.1-.3-.1-.5-.2s-.3-.1-.5-.2c-.1 0-.1-.1-.2-.1-.1-.1-.2-.1-.3-.1-.1 0-.1-.1-.2-.1-.3-.1-.5-.2-.8-.3-.2-.1-.4-.1-.7-.2-.5-.2-1-.3-1.5-.5-.1-.1-.3-.1-.5-.1-.2-.1-.5-.1-.7-.2-.3-.1-.5-.1-.7-.2-.2-.1-.3-.1-.5-.1-.1-.1-.3-.1-.4-.1-.5-.1-1-.3-1.6-.4-.1 0-.1 0-.2-.1h-.2c-.1 0-.2-.1-.3-.1-.7-.1-1.3-.3-2-.3h-.1c-.2 0-.3-.1-.5-.1-.4-.1-.8-.1-1.1-.1-.1 0-.3 0-.3-.1h-.1c-.6-.1-1.1-.1-1.7-.1-.3 0-.5 0-.7-.1h-3.8c-24.9.7-45.2 20.4-46.6 45-.1 1-.1 1.9-.1 2.9 0 23.2 16.5 42.5 38.3 47 .2.1.3.1.5.1 3 .6 6 .9 9.1.9 3.7 0 7.3-.4 10.8-1.2h.1c.3.5.6.4.8.4z"/></g></g><g><path class="st61" d="M309.3 116.6c4.6 2.8 8.7 6.2 12.4 10.1 1.1 1.3 2.8 1.9 4.4 1.9 1.4 0 3-.5 4.1-1.6 2.5-2.3 2.6-6.1.3-8.5-4.4-4.8-9.4-8.9-14.9-12.3-2.9-1.7-6.6-.9-8.3 2-1.8 2.9-.9 6.6 2 8.4zM223.4 165c0-31.2 25.4-56.6 56.6-56.6 3.2 0 6.5.3 9.5.8 3.3.6 6.5-1.7 6.9-5 .6-3.3-1.7-6.5-5-6.9-3.8-.7-7.7-1-11.6-1-37.9 0-68.7 30.8-68.7 68.7 0 16.1 5.6 31.7 15.9 44 1.1 1.4 3 2.2 4.6 2.2 1.3 0 2.8-.5 3.8-1.4 2.6-2.2 3-5.9.8-8.5-8.2-10.2-12.8-23.1-12.8-36.3zM344.3 141c-1.1-3.1-4.7-4.7-7.8-3.6-3.1 1.1-4.7 4.7-3.6 7.8 2.4 6.3 3.6 13 3.6 19.8 0 13.2-4.6 26-13 36.2-2.2 2.6-1.7 6.4.8 8.5 1.1.9 2.5 1.3 3.8 1.3 1.7 0 3.4-.7 4.7-2.2a68.64 68.64 0 0 0 15.8-43.8c0-8.3-1.4-16.4-4.3-24z"/><g><path class="st61" d="M291.2 211.6c.1-.1.3-.1.5-.1.1 0 .3-.1.4-.1 19-5 33.3-21.4 35.3-41.5v-.3c0-.3.1-.6.1-.9.1-1.2.1-2.5.1-3.7v-1.8c0-.3 0-.6-.1-.9v-.4c-.1-1.3-.2-2.6-.4-3.8 0-.1 0-.2-.1-.3v-.1c-.1-.3-.1-.7-.2-1 0-.1 0-.2-.1-.3-.1-.3-.1-.6-.2-.9 0-.1-.1-.2-.1-.3 0-.1 0-.2-.1-.3-.1-.3-.1-.6-.2-.9-.1-.5-.3-1-.4-1.5-.1-.2-.1-.4-.1-.6v-.1c-.1-.5-.3-1-.4-1.4-.1-.2-.1-.5-.2-.7-.3-.7-.5-1.4-.8-2.2-.3-.9-.7-1.7-1-2.6 0-.1-.1-.1-.1-.1-.3-.8-.7-1.5-1.1-2.3l-.3-.6c-.2-.4-.4-.7-.6-1.1-4-7-9.7-12.9-16.6-17.1-.2-.1-.5-.3-.7-.4-.5-.3-.9-.5-1.3-.8l-1.5-.9s-.1 0-.1-.1c-.3-.1-.7-.3-1-.5-.1-.1-.2-.1-.3-.1-.3-.1-.5-.2-.7-.3-.2-.1-.3-.1-.5-.3-.1-.1-.3-.1-.5-.2s-.3-.1-.5-.2c-.1 0-.1-.1-.2-.1-.1-.1-.2-.1-.3-.1-.1 0-.1-.1-.2-.1-.3-.1-.5-.2-.8-.3-.2-.1-.4-.1-.7-.2-.5-.2-1-.3-1.5-.5-.1-.1-.3-.1-.5-.1-.2-.1-.5-.1-.7-.2-.3-.1-.5-.1-.7-.2-.2-.1-.3-.1-.5-.1-.1-.1-.3-.1-.4-.1-.5-.1-1-.3-1.6-.4-.1 0-.1 0-.2-.1h-.2c-.1 0-.2-.1-.3-.1-.7-.1-1.3-.3-2-.3h-.1c-.2 0-.3-.1-.5-.1-.4-.1-.8-.1-1.1-.1-.1 0-.3 0-.3-.1h-.1c-.6-.1-1.1-.1-1.7-.1-.3 0-.5 0-.7-.1H278.2c-24.9.7-45.2 20.4-46.6 45-.1 1-.1 1.9-.1 2.9 0 23.2 16.5 42.5 38.3 47 .2.1.3.1.5.1 3 .6 6 .9 9.1.9 3.7 0 7.3-.4 10.8-1.2h.1c.5.5.7.4.9.4z"/></g></g><linearGradient id="SVGID_56_" gradientUnits="userSpaceOnUse" x1="211.218" y1="2990.409" x2="348.566" y2="2990.409" gradientTransform="translate(0 -2836)"><stop offset="0" style="stop-color:#000"/><stop offset="1" style="stop-color:#707070"/></linearGradient><path d="M307.3 108.3c1.7-2.9 5.4-3.8 8.3-2 5.5 3.4 10.6 7.5 14.9 12.3 2.3 2.5 2.1 6.3-.3 8.5-1.1 1-2.6 1.6-4.1 1.6-1.6 0-3.2-.7-4.4-1.9-3.6-4-7.8-7.3-12.4-10.1-2.9-1.9-3.8-5.6-2-8.4zM223.4 165c0-31.2 25.4-56.6 56.6-56.6 3.2 0 6.5.3 9.5.8 3.3.6 6.5-1.7 6.9-5 .6-3.3-1.7-6.5-5-6.9-3.8-.7-7.7-1-11.6-1-37.9 0-68.7 30.8-68.7 68.7 0 16.1 5.6 31.7 15.9 44 1.1 1.4 3 2.2 4.6 2.2 1.3 0 2.8-.5 3.8-1.4 2.6-2.2 3-5.9.8-8.5-8.2-10.2-12.8-23.1-12.8-36.3zm120.9-24c-1.1-3.1-4.7-4.7-7.8-3.6-3.1 1.1-4.7 4.7-3.6 7.8 2.4 6.3 3.6 13 3.6 19.8 0 13.2-4.6 26-13 36.2-2.2 2.6-1.7 6.4.8 8.5 1.1.9 2.5 1.3 3.8 1.3 1.7 0 3.4-.7 4.7-2.2a68.64 68.64 0 0 0 15.8-43.8c0-8.3-1.4-16.4-4.3-24zm-53.1 70.6c.1-.1.3-.1.5-.1.1 0 .3-.1.4-.1 19-5 33.3-21.4 35.3-41.5v-.3c0-.3.1-.6.1-.9.1-1.2.1-2.5.1-3.7v-1.8c0-.3 0-.6-.1-.9v-.4c-.1-1.3-.2-2.6-.4-3.8 0-.1 0-.2-.1-.3v-.1c-.1-.3-.1-.7-.2-1 0-.1 0-.2-.1-.3-.1-.3-.1-.6-.2-.9 0-.1-.1-.2-.1-.3 0-.1 0-.2-.1-.3-.1-.3-.1-.6-.2-.9-.1-.5-.3-1-.4-1.5-.1-.2-.1-.4-.1-.6v-.1c-.1-.5-.3-1-.4-1.4-.1-.2-.1-.5-.2-.7-.3-.7-.5-1.4-.8-2.2-.3-.9-.7-1.7-1-2.6 0-.1-.1-.1-.1-.1-.3-.8-.7-1.5-1.1-2.3l-.3-.6c-.2-.4-.4-.7-.6-1.1-4-7-9.7-12.9-16.6-17.1-.2-.1-.5-.3-.7-.4-.5-.3-.9-.5-1.3-.8l-1.5-.9s-.1 0-.1-.1c-.3-.1-.7-.3-1-.5-.1-.1-.2-.1-.3-.1-.3-.1-.5-.2-.7-.3-.2-.1-.3-.1-.5-.3-.1-.1-.3-.1-.5-.2s-.3-.1-.5-.2c-.1 0-.1-.1-.2-.1-.1-.1-.2-.1-.3-.1-.1 0-.1-.1-.2-.1-.3-.1-.5-.2-.8-.3-.2-.1-.4-.1-.7-.2-.5-.2-1-.3-1.5-.5-.1-.1-.3-.1-.5-.1-.2-.1-.5-.1-.7-.2-.3-.1-.5-.1-.7-.2-.2-.1-.3-.1-.5-.1-.1-.1-.3-.1-.4-.1-.5-.1-1-.3-1.6-.4-.1 0-.1 0-.2-.1h-.2c-.1 0-.2-.1-.3-.1-.7-.1-1.3-.3-2-.3h-.1c-.2 0-.3-.1-.5-.1-.4-.1-.8-.1-1.1-.1-.1 0-.3 0-.3-.1h-.1c-.6-.1-1.1-.1-1.7-.1-.3 0-.5 0-.7-.1H278.2c-24.9.7-45.2 20.4-46.6 45-.1 1-.1 1.9-.1 2.9 0 23.2 16.5 42.5 38.3 47 .2.1.3.1.5.1 3 .6 6 .9 9.1.9 3.7 0 7.3-.4 10.8-1.2h.1c.5.5.7.4.9.4z" style="opacity:.4;fill:url(#SVGID_56_);enable-background:new"/><path d="M302.1 184.6c-8.9 8.9-22 11-32.9 6.2l-14.9 14.9c-6.4-4-11.7-9.4-15.6-15.8l14.9-14.9c-4.5-10.8-2.4-23.7 6.5-32.5 8.9-8.9 22-11 32.9-6.2l-15.5 15.5c-4.2 4.2-4.2 11.1 0 15.3 2.2 2.2 4.9 3.2 7.7 3.2s5.5-1 7.7-3.2l15.5-15.5c4.6 10.9 2.5 24.1-6.3 33z" style="fill:#fcffff"/></svg>