<svg version="1.1" id="Layer_1" xmlns="http://www.w3.org/2000/svg" x="0" y="0" viewBox="0 0 500 500" style="enable-background:new 0 0 500 500" xml:space="preserve"><style>.st1,.st2,.st3{fill:none;stroke:#233239;stroke-width:.4415;stroke-miterlimit:10}.st2,.st3{fill:#233239}.st3{fill:#fff}.st5{fill:#ae835b}.st6{fill:#c29468}.st7{fill:#d9af84}.st8{fill:#c99a6b}.st11,.st12,.st14,.st17,.st18,.st20{fill:#e5d3c1;stroke:#233239;stroke-width:.4415;stroke-miterlimit:10}.st12,.st14,.st17,.st18,.st20{fill:#0c4057}.st14,.st17,.st18,.st20{fill:#2f0f06}.st17,.st18,.st20{fill:#f0cc67}.st18,.st20{fill:none;stroke-width:2.6487;stroke-linecap:round;stroke-linejoin:round}.st20{stroke-width:1.7658}.st21{fill:#fff}.st23{fill:#bfbfbf}.st24{fill:#00bfbf}.st25{fill:none;stroke:#233239;stroke-width:1.3244;stroke-miterlimit:10}</style><path d="M500 73.2c-78.3-17.7-158.6-31-241.3-27.4-21.8 1-44.3 3.3-63 11.4s-32.8 23.3-29.3 38c3 12.1 16.5 25.6 4.9 35.3-3.3 2.8-8.2 4.5-12.9 6-24.4 7.7-50.9 12-73.8 21.6C49 172.9 25.5 199.4 15.4 227s-8.2 56.3-2.3 84.1c11 52.2 36.6 103.7 85.2 143.6 22 18 48.2 33.1 77.2 45.4H500V73.2z" style="fill:#f2e9e0"/><path class="st1" d="M5 406.9h320.4c0 29.6 0 59.6.2 89.3"/><path class="st2" d="M382.2 412.4H361c-13.2 0-23.9 19.3-23.9 43.1s10.7 43.1 23.9 43.1h21.1c13.2 0 23.9-19.3 23.9-43.1s-10.6-43.1-23.8-43.1z"/><path class="st3" d="M500 121.6c-.7-.1-1.4-.1-2-.2-18.3-1-175.7 12.2-178.7 13.2s-23.4 64.1-29 91.6c-5.6 27.5-8.2 83.5-8.2 138.5s7.6 95.2 16.3 95.2c6.5 0 136.4 3.8 201.6 5.6V121.6z"/><path d="M500 121.5c-.7-.1-1.4-.1-2-.2h-.4l.7 3.2s.6 1.3 1.7 6v-9z" style="fill:#e0e0e0;stroke:#233239;stroke-width:.4415;stroke-miterlimit:10"/><path class="st2" d="M500 397.8H283.1c2.3 37.3 8.5 62.2 15.3 62.2 6.5 0 136.4 3.8 201.6 5.6v-67.8z"/><path class="st1" d="M386.3 131.2v.7c0 2.5 2.1 4.4 4.5 4.2l29-2.4c2.2-.2 3.8-2 3.8-4.2v-.7c0-2.5-2.1-4.4-4.5-4.2l-29 2.4c-2.1.2-3.8 2-3.8 4.2z"/><path class="st3" d="m500 124.3-1.7.4s.7 14.7 1.7 35.2v-35.6z"/><path class="st1" d="M265.9 239.4v139"/><path class="st3" d="m272 223.5.3-17.8s-12.5-63.8-13.4-65c-.9-1.2-102.8-2.1-104-1.5-1.2.6-.3 6.8-.3 6.8s1.2 20.5 2.1 86.1-.3 199.9-.3 199.9l113.8.9s-1.2-8.9.6-38.3c1.8-29.4 2.1-164.3 2.1-165.4v-3.8l-.9-1.9z"/><path class="st1" d="M160.3 143.7s87 1.3 89.4 1.8c2.3.5 3.9 5.2 4.7 7.9.8 2.6 11.7 50.5 12.5 57.5M265.9 397s.5 17.3-1.3 20.9c-1.8 3.7-3.9 4.7-6.8 5.2s-98.5-1.1-98.5-1.1"/><path class="st2" d="m167.1 316.7-1.3 95.4 93.3 1.3s2.1-94.6 1.8-95.9c-.3-1.3-.3-2.6-5.5-3.1s-83.1-1.3-84.4-1.3c-1.3 0-3.3 1.5-3.9 3.6z"/><path class="st1" d="M175 162.8s-8.6 12-9.4 14.9c-.8 2.9 0 4.9 2.1 5.2 2.1.3 81 0 81 0s2.9-.5 2.6-4.9M180.2 162H245s2.1 0 3.4 5.5M185.9 201s-6.3 2.1-6.5 7.9c-.3 5.7 1.3 83.6 1.3 83.6M195.9 200.7s49.1 1.3 52.3 1.8c3.1.5 6 3.9 6.8 6.5.8 2.6.8 79.5.8 79.5"/><path class="st1" d="M189.1 195s-10.5-.3-15.1 2.6c-4.7 2.9-3.9 10.5-3.7 13.3.3 2.9 1.1 80.2 1.1 80.2s0 3.1 4.2 3.4c4.1.3 73.9.3 73.9.3s2.9 0 4.5-2.3M199.3 193.9s48.3 1.3 52.8 3.4c4.5 2.1 3.7 6 3.9 7.9"/><g><path class="st3" d="M269.3 224.4h22.9v8h-22.9z"/><path class="st3" d="M276.1 222h7.7v13.4h-7.7z"/></g><g><path class="st3" d="M267.2 383.9h22.9v8h-22.9z"/><path class="st3" d="M274 381.5h7.7v13.4H274z"/></g><path class="st3" d="m500 208.4-1.8-72.6L324.9 149S310 224.4 310 225.8s-4.8 122.4-3.1 151.8c1.8 29.4 2.2 53.9 2.2 53.9L500 437V208.4z"/><g><path class="st2" d="m500 208.4-1.8-72.6L324.9 149S310 224.4 310 225.8s-4.8 122.4-3.1 151.8c1.8 29.4 2.2 53.9 2.2 53.9L500 437V208.4z"/><path class="st5" d="M441.6 435.3v-93h-38.3v91.9z"/><path class="st6" d="m324.9 431.9 78.4 2.3v-91.9h-78.4z"/><path class="st7" d="M355.9 342.3h16.4v43.8h-16.4z"/></g><g><path class="st5" d="M500 342.3h-90.7v92.1l74.1 2.2H500z"/><path class="st6" d="M483.4 436.6h4.2v-94.3h-78.3v92.1z"/><path class="st7" d="M418.1 366.8h26.3v17.7h-26.3zM440.2 342.3h16.4v14.1h-16.4z"/></g><g><path class="st5" d="M344 269.5h101.2v73.4H344z"/><path class="st8" d="M344 269.5h61v73.4h-61z"/><path class="st7" d="M368.2 269.6H381v34.1h-12.8z"/></g><g><path class="st5" d="m500 208-.3-11.6h-69.5v73.4H500z"/><path class="st8" d="M430.2 196.4h61v73.4h-61z"/><path class="st7" d="M460.4 237.6h26.3v17.7h-26.3zM454.3 196.4h12.8v34.1h-12.8z"/></g><g><path class="st5" d="M421.7 269.5H500v73.4h-78.3z"/><path style="fill:#bd9164" d="M421.7 269.5h61v73.4h-61z"/><path class="st7" d="M445.8 269.6h12.8v34.1h-12.8z"/></g><g><path style="fill:#a38263" d="M341.2 214.2h87v63.1h-87z"/><path class="st8" d="M341.2 214.2h52.4v63.1h-52.4z"/><path class="st7" d="M362 214.2h11v29.4h-11z"/><g><path class="st11" d="M288.8 213.4s-.8 2.6.5 6.1 3.4 9.6 4.6 11.5c1.3 1.9 1 4.6 1 4.6l17.9 8.3s.3-6.7 1-7c.6-.3 5.6-.3 6.7-2.1 1.1-1.8-.2-10.6-.2-10.6s1-1 1.1-1.9c.2-1-2.4-3.2-2.1-4.9.3-1.8 1.1-3.7-.2-6.2s-5-8.7-10.9-10.7c-5.9-1.9-12.3.3-14.8 3-2.6 2.7-4.7 5.8-4.6 9.9z"/><path class="st2" d="M315.4 215.2c.4-.7 1.3-2.6 1.3-4s-1.9-1.5-4.9-.4c-2.4 1-17 6.1-22.5 8.6 1.2 3.4 3.2 9.1 4.5 11.3.5.6.9 1 1.1 1.2 1.5.8 5.5-.8 7-3 1.2-1.8 1.7-7.2 1.9-9v-.6c.5-1.5 2.7-1.5 4.3-.8 1.5.8 3 .9 4 .5s1.3-1.5 1.3-2.1c.1-.6 1.5-1.1 2-1.7z"/><path class="st11" d="M309.6 220s-2.2-3.2-4.1-.5c-1.9 2.6 1.3 6.3 2.6 7 1.3.7 1.9-.1 2.2-1.1"/><path class="st12" d="M308.2 200.5c-5.9-1.9-12.3.3-14.8 3-2.6 2.7-4.7 5.9-4.6 9.9 0 0-.8 2.6.5 6.1.4 1 .8 2.2 1.2 3.4h.1s5.4 1.2 11.3-1.7c6-2.9 15.6-8.3 16.5-10 .1-.2.3-.3.5-.4-1.4-2.8-5-8.5-10.7-10.3z"/><path class="st12" d="M314.8 214.4s7.2.2 11-1.7 3.2-5.5 2.5-5.8c-.8-.3-10.9 1-10.9 1s.8 4-2.6 6.5z"/><path d="M318.5 218.7c0 .8-.3 1.5-.6 1.5s-.6-.7-.6-1.5.3-1.5.6-1.5c.3-.1.6.6.6 1.5z" style="fill:#233239"/><path class="st2" d="M315.7 247.4s-2.7-4.6-5.8-7.1c-3.1-2.5-11.1-5.4-14.2-5.7-3.1-.3-2.2 1.4-2.6 3.2-.4 1.8-.8 2.5.3 2.7 1 .3 6 1.1 12.3 4.1 6.4 3 9.6 4.8 10.2 4.4.6-.3-.2-1.6-.2-1.6z"/><path class="st14" d="M304.3 480.4s4.5 7.4 7.1 8.8c2.5 1.5 7.4 3.1 7.8 5.8.4 2.7-2.9 2.5-4.5 2.5s-12.3.4-14.1-.4c-1.8-.7-6.1-4-11-6.7s-9.2-3.1-9.2-7.6 4.1-5.4 4.9-6.1c.5-.6 19 3.7 19 3.7z"/><path d="M287.3 354.4s4.5 42.6 4.7 44.8-2.9 9.9-4.1 16.8c-1.3 6.8-2.9 25.8-2.9 25.8l.5 37.4s10.8 2.5 12.4 2.3c1.6-.2 5.8-.9 6.3-1.1.5-.2 3.6-1.3 3.6-1.3s-.7-12.4-.7-16.4 2.5-29.4 3.1-32c.5-2.5 6.8-39.7 7.8-59.4.9-19.7-2.3-36.1-2.3-36.1l-31.1 1.6 2.7 17.6z" style="fill:#1e6684;stroke:#233239;stroke-width:.4415;stroke-miterlimit:10"/><path class="st14" d="M295.1 481.2s2.7 6.5 4 7.6c1.3 1.1 9.2 4.1 9.6 5.6.4 1.5-1.1 2.7-3.1 3.3-2 .5-16.2.5-19.2-.9-2.9-1.5-11.9-8.1-14.4-9.2-2.5-1.1-6.7-2.5-5.6-7.1 1.1-4.5 6.5-7.9 6.5-7.9l22.2 8.6z"/><path d="M282.1 333.7s-1.8 8.8.9 15.7c2.7 6.8 10.3 16.1 11.6 17.9 1.3 1.8-.4 22.7-1.3 30.9-.9 8.1-2.3 21.9-2.3 22.4s-7.8 20.4-11 29.6c-3.3 9.2-8.7 22.4-8.7 22.4s7.2 5.4 10.8 6.5c3.6 1.1 13 2.2 13 2.2s.9-4.3 1.8-6.1c.9-1.8-.2-2.5.9-7.4s13.2-30.9 17.7-38.3c4.5-7.4 7.2-20.9 9-27.6 1.8-6.7 1.8-33.9 2.2-43.4.4-9.4-2.7-20-2.7-20l-.9-3.4-41-1.4z" style="fill:#2887b0;stroke:#233239;stroke-width:.4415;stroke-miterlimit:10"/><path class="st1" d="M311.8 386.9c-.3 2.6-.7 5.4-1.1 8.2M309.5 337.7s-1.2 2.1-.8 5.3c.4 3.3 3.3 4.5 4.9 6.6 1.6 2-1.6 2.9-2.5 5.3-.8 2.5 1.6 4.5 1.6 6.1 0 1.1.4 8.4-.3 18.8"/><path class="st2" d="M280.8 327.2s-1.5 7.1-.2 7.8c1.3.7 41.2.2 42.4 0 1.3-.2 2-.4 2.2-2 .2-1.6-.7-6-.7-6l-43.7.2z"/><path class="st17" d="M293.3 240.6s-12.1 7.4-15.1 17 1.2 52.1 1.2 52.1-3.4 14.7-.2 17.7 43.7 2.3 45.5.9c1.8-1.4 3.2-4.1 3.2-7s.9-28.8.9-43.3c0-14.5-6.9-23.8-10-27.2-3.1-3.4-5.2-3.8-5.2-3.8s-16.2-6.5-20.3-6.4z"/><path class="st1" d="M285.6 271.9c.8 1.5 1.8 3.2 3 5M284.5 256.8s-2.5 2.5-1.4 8.2"/><path class="st17" d="M313.1 251s7.5-1.5 12.6 1.1c5 2.6 13.2 10.8 15.5 11.9 2.2 1.1 6 4.9 9.1 5.7 3.1.8 8.3 2.6 8.3 2.6s15.3-1.1 17.1-1.2c1.8-.1 14.5.1 14.5.1s.8 2.3 1 5 0 4.5 0 4.5-4.7 2.7-5.9 3c-1.2.3-12.2 3.2-21.8 6.1-9.5 3-24.3.6-34.3-1.9-10-2.6-33.3-12.2-34.5-12.8"/><path class="st1" d="M343.3 281.7c-2 .6-4.1 1.1-6.2 1.4M358.4 274.9s-4.8 3-10.9 5.4M314.9 282.2s-7.4 14.1-16.4 20.4M305 305.3c-1.9 2.1-3.8 4.1-5.6 5.6M315.3 291.6s-3.2 5-7.5 10.3"/><g><path class="st11" d="M390.3 271.1s2.8-3.1 4.7-4.8c1.9-1.7 4.1-2.7 5.3-3.4 1.1-.8 1.8-4.3 3.4-3.1 1.6 1.2 1.2 2.4.6 3.4-.6 1.1-1.9 3.2-2.3 4-.4.8-.4.9-.4.9s4.6 1.1 6.6 1.1 7.5.2 7.8 1.2c.3 1-.5 2-1 2.1-.5 0-7.3.6-7.3.6s5.6 3.2 5.7 3.7c0 .5-1.2 1.5-2.7 1.9-1.5.4-3.7 2.3-6 2.5-2.3.2-9-.3-9.9-.5-.8-.3-3.4-.1-3.4-.1l-1.1-9.5z"/><path class="st1" d="m405.2 275.9 5.3 2.9M403 278.7l3.5 1.6"/></g></g></g><g><path class="st8" d="M149.4 410.7h120.4v87.4H149.4z"/><path class="st5" d="M149.4 410.7H222v87.4h-72.6z"/><path class="st7" d="M178 410.7h15.2v40.7H178z"/></g><g><path class="st18" d="M28.9 320.1s8.7-.4 13 3.9"/><path class="st2" d="M115.5 477.7c0-3.5.4-6.8 1.2-9.7v-11h9.4c5.9 0 10.6 9.3 10.6 20.8s-4.8 20.8-10.6 20.8h-9.4v-11.1c-.7-2.9-1.2-6.2-1.2-9.8z"/><ellipse class="st2" cx="116.8" cy="477.7" rx="10.6" ry="20.8"/><ellipse cx="115.9" cy="477.9" rx="6.6" ry="14.3" style="fill:#828282;stroke:#233239;stroke-width:.4415;stroke-miterlimit:10"/><path class="st20" d="M41.9 324c1.5 1.5 2.4 3.4 2.4 6.1v149.7c0 3.9 3.2 7.1 7.1 7.1h94.8"/><path class="st18" d="M102.2 320.1s8.7-.4 13 3.9"/><path class="st20" d="M115.2 324c1.5 1.5 2.4 3.4 2.4 6.1v156.1M45.2 359.7h73.1M82.8 359.4v126.5M33.7 468l10.8-21.2M44.3 477.7H34.1"/><g><path class="st2" d="M16.3 477.7c0-3.5.4-6.8 1.2-9.7v-11h9.4c5.9 0 10.6 9.3 10.6 20.8s-4.8 20.8-10.6 20.8h-9.4v-11.1c-.7-2.9-1.2-6.2-1.2-9.8z"/><ellipse class="st2" cx="17.6" cy="477.7" rx="10.6" ry="20.8"/><path class="st3" d="M10.1 477.9c0 7.9 3 14.3 6.6 14.3s6.6-6.4 6.6-14.3-3-14.3-6.6-14.3-6.6 6.4-6.6 14.3z"/></g><g><path class="st5" d="M56.3 407.1h86.8v77.7H56.3z"/><path class="st8" d="M90.8 407.1h52.4v77.7H90.8z"/><path class="st7" d="M111.5 407.1h10.9v36.1h-10.9z"/></g></g><path class="st1" d="M76.9 497.9H5"/><g><path class="st2" d="M332.4 345.6c-.1-1.9-1.7-3.4-3.7-3.3l-43.7 1.2c-1.9.1-3.4 1.7-3.4 3.6l.1 27.7c0 1.9 1.6 3.5 3.6 3.4l43.8-2.7c2 0 3.5-1.7 3.4-3.7l-.1-26.2z"/><path class="st21" d="m285.3 351.7 44.6-1.5.1 20.4c0 .4-.4.8-.8.8l-43 2.6c-.4 0-.8-.3-.8-.8l-.1-21.5z"/><path d="m329 346.4-42.9 1.2c-.5 0-.8.4-.8.9v3.2l44.6-1.5v-3c-.1-.4-.5-.8-.9-.8z" style="fill:#215495"/><path class="st23" d="m324.5 354.7-30 1.1c-.3 0-.5-.2-.5-.5s.2-.6.5-.6l30-1.1c.3 0 .5.2.5.5.1.3-.1.6-.5.6zM324.5 358.2l-30 1.3c-.3 0-.5-.2-.5-.5s.2-.6.5-.6l30-1.2c.3 0 .5.2.5.5.1.2-.1.5-.5.5zM324.6 361.6l-30 1.4c-.3 0-.5-.2-.5-.5s.2-.6.5-.6l30-1.4c.3 0 .5.2.5.5s-.2.6-.5.6zM324.6 365l-30 1.5c-.3 0-.5-.2-.5-.5s.2-.6.5-.6l30-1.5c.3 0 .5.2.5.5s-.2.6-.5.6zM324.6 368.4l-30 1.7c-.3 0-.5-.2-.5-.5s.2-.6.5-.6l30-1.6c.3 0 .5.2.5.5.1.2-.2.5-.5.5zM291.5 356l-2.1.1c-.3 0-.5-.2-.5-.5s.2-.6.5-.6l2.1-.1c.3 0 .5.2.5.5s-.2.6-.5.6zM291.5 359.6l-2.1.1c-.3 0-.5-.2-.5-.5s.2-.6.5-.6l2.1-.1c.3 0 .5.2.5.5s-.2.6-.5.6zM291.6 363.1l-2.1.1c-.3 0-.5-.2-.5-.5s.2-.6.5-.6l2.1-.1c.3 0 .5.2.5.5 0 .4-.3.6-.5.6zM291.6 366.7l-2.1.1c-.3 0-.5-.2-.5-.5s.2-.6.5-.6l2.1-.1c.3 0 .5.2.5.5s-.2.6-.5.6zM291.6 370.3l-2.1.1c-.3 0-.5-.2-.5-.5s.2-.6.5-.6l2.1-.1c.3 0 .5.2.5.5s-.2.6-.5.6z"/><path class="st24" d="M326.8 354.9h-.2l-.5-.5c-.1-.1-.1-.3 0-.4.1-.1.3-.1.4 0l.3.3.7-.9c.1-.1.3-.1.4 0 .1.1.1.3 0 .4l-.9 1.1h-.2zM326.8 358.3h-.2l-.5-.5c-.1-.1-.1-.3 0-.4.1-.1.3-.1.4 0l.3.3.7-.9c.1-.1.3-.1.4 0s.1.3 0 .4l-.9 1.1h-.2c.1 0 .1 0 0 0zM326.9 361.8h-.2l-.5-.5c-.1-.1-.1-.3 0-.4.1-.1.3-.1.4 0l.3.3.7-.9c.1-.1.3-.1.4 0 .1.1.1.3 0 .4l-.9 1.1c0-.1-.1-.1-.2 0zM326.9 365.2h-.2l-.5-.5c-.1-.1-.1-.3 0-.4.1-.1.3-.1.4 0l.3.3.7-.9c.1-.1.3-.1.4 0s.1.3 0 .4l-.9 1.1c0-.1-.1 0-.2 0zM326.9 368.6h-.2l-.5-.5c-.1-.1-.1-.3 0-.4.1-.1.3-.1.4 0l.3.3.7-.9c.1-.1.3-.1.4 0 .1.1.1.3 0 .4l-.9 1.1c0-.1-.1 0-.2 0z"/><path class="st21" d="M326.9 347.4c.6 0 1 .4 1 1s-.4 1-1 1.1c-.6 0-1-.4-1-1s.5-1.1 1-1.1z"/><g><path class="st25" d="m320.7 284.9 8.1 59M283.2 346.4l-2.3-78.9c-.1-12.1 9-22.4 21-23.2h.8c5-.2 9.5 2.4 12.1 6.4"/></g></g></svg>