<svg version="1.1" id="Layer_1" xmlns="http://www.w3.org/2000/svg" x="0" y="0" viewBox="0 0 500 500" style="enable-background:new 0 0 500 500" xml:space="preserve"><style>.st1{fill:#724941}.st2{fill:#512e2b}.st3{fill:#a3a3a3}.st4{fill:#472624}.st5{fill:#603a35}.st6{fill:#d1814a}.st7{fill:#bc6f3b}.st8{fill:#ef995e}.st9{fill:#e8b679}.st10{fill:#dba763}.st11{fill:#ffe1c0}.st12{fill:#fff}.st13{fill:#4b87dd}.st14{fill:#3d6ec4}.st15{fill:#f9a973}.st16{fill:#ffc999}.st17{fill:#e26154}.st18{fill:#ef736a}.st20{fill:#ffc5b3}</style><path d="M499.6 69.4c-79.9-15.8-162-28.1-246.7-25-21.3.8-43.3 2.7-61.7 9.5S159 73.4 162.5 85.7c2.9 10.2 16.2 21.4 4.8 29.5-3.3 2.3-8 3.8-12.6 5-23.9 6.4-49.8 10-72.3 18-34.8 12.4-57.8 34.6-67.7 57.7s-8 47.1-2.3 70.3c10.8 43.7 35.9 86.7 83.5 120 68 47.6 176.3 70.5 283.7 72.8 39.8.8 80.5-1.2 120.1-6.3V69.4z" style="opacity:.2;fill:#b88e76;enable-background:new"/><path class="st1" d="m351.2 301.8-4 2.3V60.9l4-2.3z"/><path class="st2" d="m347.2 304.1-4.8-2.8V58.1l4.8 2.8z"/><path class="st1" d="m266.5 253-4 2.3V12.1l4-2.3z"/><path class="st2" d="m262.5 255.3-4.8-2.8V9.3l4.8 2.8z"/><path class="st3" d="m351.2 58.6-4 2.3-4.8-2.8 4-2.3zM266.5 9.8l-4 2.3-4.8-2.8 4-2.3z"/><path class="st2" d="m345.1 183.9-82.6 65.7-3.3-3.2 84.4-67.3z"/><path class="st2" d="m344.5 293.2-.8 4.6-83.1-161.6 1.9-2.8z"/><path class="st2" d="M345.1 69.3 262.5 135l-3.3-3.3 84.4-67.2z"/><path class="st2" d="m344.5 178.5-.8 4.7-83.1-161.6 1.9-2.8z"/><path class="st1" d="M345.9 287.5 163.1 393.8l-84.8-49 183-106.4z"/><path class="st4" d="m163.1 399.7-84.8-49v-6.2l84.8 48.9z"/><path class="st5" d="M345.9 293.8 163.1 399.4v-6.2l182.8-105.7z"/><g><path class="st6" d="m256.4 323.2-2 1.3-63.6-36.8 2.2-1.1z"/><path class="st7" d="m254.4 333.5-63.6-36.7v-9.1l63.6 36.7z"/><path class="st8" d="m256.4 332.4-2 1.1v-9.1l2-1.2z"/><path class="st6" d="m327.2 282.1-2 1.3-63.6-36.7 2.2-1.2z"/><path class="st7" d="m325.2 292.4-63.6-36.7v-9.1l63.6 36.8z"/><path class="st8" d="m327.2 291.3-2 1.1v-9l2-1.3z"/><path class="st6" d="m292.8 301.7-2 1.2-63.6-36.7 2.2-1.2z"/><path class="st7" d="m290.8 311.9-63.6-36.7v-9l63.6 36.7z"/><path class="st8" d="m292.8 310.8-2 1.1v-9l2-1.2z"/><g><path class="st8" d="m327.2 282.6-72.8 42v-2.9l72.8-42z"/><path class="st6" d="m327.2 279.7-72.8 42-7.6-4.3 72.8-42z"/><path class="st7" d="m254.4 327.1-7.6-4.4v-5.3l7.6 4.3z"/></g><g><path class="st8" d="m313.2 274-73 42.2v-2.9l73-42.2z"/><path class="st6" d="m313.2 271.1-73 42.2-7.6-4.3 73-42.2z"/><path class="st7" d="m240.2 318.8-7.6-4.5V309l7.6 4.3z"/></g><g><path class="st8" d="M298.8 265.7 225.7 308v-2.9l73.1-42.3z"/><path class="st6" d="m298.8 262.8-73.1 42.3-7.6-4.3 73.2-42.3z"/><path class="st7" d="m225.7 310.5-7.6-4.4v-5.3l7.6 4.3z"/></g><g><path class="st8" d="m284.5 257.6-73 42v-2.9l73-42z"/><path class="st6" d="m284.5 254.7-73 42-7.6-4.3 73-42z"/><path class="st7" d="m211.5 302.2-7.6-4.5v-5.3l7.6 4.3z"/></g><g><path class="st8" d="m271.6 250.1-73.2 42.2v-2.9l73.2-42.2z"/><path class="st6" d="m271.6 247.2-73.2 42.2-7.6-4.3 73.2-42.2z"/><path class="st7" d="m198.4 294.8-7.6-4.4v-5.3l7.6 4.3z"/></g><g><path class="st9" d="m319.8 278.4-32.9 19.1v-22.7l32.9-19z"/><path class="st10" d="m286.9 297.5-47.3-27.4v-22.6l47.3 27.3z"/><path class="st11" d="m319.8 255.8-32.9 19-47.3-27.3 32.8-19z"/><path class="st2" d="m307.5 274.8-7.3 4.3v-12l7.3-4.3z"/><path class="st1" d="m307.5 262.8-7.3 4.3-47.3-27.3 7.3-4.3z"/><path class="st2" d="m300.4 287.4-11.1 6.3v-2.1l11.1-6.4zM300.4 283.6l-11.1 6.3v-2.1l11.1-6.4zM246.2 271.3l-5.3-3v-7.7l5.3 3.1zM253.4 275.5l-5.3-3.1v-7.6l5.3 3zM260.7 279.7l-5.3-3.1V269l5.3 3z"/><path class="st12" d="m285.5 286.8-10.9-6.3v-11l10.9 6.3z"/><path class="st2" d="m284.1 278-8.5-4.9v-1.8l8.5 4.9z"/></g><g><path class="st9" d="m283.7 299.6-32.9 19.1V296l32.9-19z"/><path class="st10" d="m250.8 318.7-47.3-27.4v-22.6l47.3 27.3z"/><path class="st11" d="m283.7 277-32.9 19-47.3-27.3 32.8-19z"/><path class="st2" d="m271.4 296-7.3 4.3v-12l7.3-4.3z"/><path class="st1" d="m271.4 284-7.3 4.3-47.3-27.4 7.3-4.2z"/><path class="st2" d="m264.3 308.5-11.1 6.4v-2.1l11.1-6.4zM264.3 304.8l-11.1 6.3V309l11.1-6.4zM210.1 292.5l-5.3-3.1v-7.6l5.3 3zM217.3 296.7l-5.3-3.1V286l5.3 3zM224.6 300.8l-5.3-3v-7.7l5.3 3.1z"/><path class="st12" d="m249.4 307.9-10.9-6.2v-11l10.9 6.2z"/><path class="st2" d="m248 299.2-8.5-5v-1.7l8.5 4.9z"/></g><g><path class="st9" d="m319.8 253.4-32.9 19.1v-22.7l32.9-19z"/><path class="st10" d="m286.9 272.5-47.3-27.4v-22.6l47.3 27.3z"/><path class="st11" d="m319.8 230.8-32.9 19-47.3-27.3 32.8-19z"/><path class="st2" d="m307.5 249.8-7.3 4.3v-12l7.3-4.3z"/><path class="st1" d="m307.5 237.8-7.3 4.3-47.3-27.3 7.3-4.3z"/><path class="st2" d="m300.4 262.4-11.1 6.3v-2.1l11.1-6.4zM300.4 258.6l-11.1 6.3v-2.1l11.1-6.4zM246.2 246.3l-5.3-3.1v-7.6l5.3 3.1zM253.4 250.5l-5.3-3.1v-7.6l5.3 3zM260.7 254.7l-5.3-3.1V244l5.3 3z"/><path class="st12" d="m285.5 261.7-10.9-6.2v-11l10.9 6.3z"/><path class="st2" d="m284.1 253-8.5-4.9v-1.8l8.5 4.9z"/></g><g><path class="st9" d="m283.7 274.6-32.9 19.1V271l32.9-19z"/><path class="st10" d="m250.8 293.7-47.3-27.4v-22.7l47.3 27.4z"/><path class="st11" d="m283.7 252-32.9 19-47.3-27.4 32.8-19z"/><path class="st2" d="m271.4 271-7.3 4.3v-12l7.3-4.3z"/><path class="st1" d="m271.4 259-7.3 4.3-47.3-27.4 7.3-4.2z"/><path class="st2" d="m264.3 283.5-11.1 6.4v-2.1l11.1-6.4zM264.3 279.7l-11.1 6.4V284l11.1-6.4zM210.1 267.5l-5.3-3.1v-7.6l5.3 3zM217.3 271.6l-5.3-3V261l5.3 3zM224.6 275.8l-5.3-3v-7.7l5.3 3.1z"/><path class="st12" d="m249.4 282.9-10.9-6.2v-11.1l10.9 6.3z"/><path class="st2" d="m248 274.2-8.5-5v-1.7l8.5 4.9z"/></g></g><g><path class="st6" d="m169.3 373.3-2 1.3-63.6-36.7 2.2-1.2z"/><path class="st7" d="m167.3 383.6-63.6-36.7v-9l63.6 36.7z"/><path class="st8" d="m169.3 382.5-2 1.1v-9l2-1.3z"/><path class="st6" d="m240.1 332.3-2 1.2-63.6-36.7 2.2-1.2z"/><path class="st7" d="m238.1 342.6-63.6-36.8v-9l63.6 36.7z"/><path class="st8" d="m240.1 341.4-2 1.2v-9.1l2-1.2z"/><path class="st6" d="m205.7 351.8-2 1.2-63.6-36.7 2.2-1.1z"/><path class="st7" d="m203.7 362.1-63.6-36.7v-9.1l63.6 36.7z"/><path class="st8" d="m205.7 360.9-2 1.2V353l2-1.2z"/><g><path class="st8" d="m240.1 332.7-72.8 42v-2.9l72.8-42z"/><path class="st6" d="m240.1 329.8-72.8 42-7.6-4.2 72.8-42.1z"/><path class="st7" d="m167.3 377.3-7.6-4.5v-5.2l7.6 4.2z"/></g><g><path class="st8" d="m226.1 324.2-73 42.2v-2.9l73-42.2z"/><path class="st6" d="m226.1 321.3-73 42.2-7.6-4.3 73-42.2z"/><path class="st7" d="m153.1 368.9-7.6-4.4v-5.3l7.6 4.3z"/></g><g><path class="st8" d="m211.7 315.9-73.1 42.2v-2.9l73.1-42.3z"/><path class="st6" d="m211.7 312.9-73.1 42.3-7.6-4.3 73.2-42.2z"/><path class="st7" d="m138.6 360.7-7.6-4.5v-5.3l7.6 4.3z"/></g><g><path class="st8" d="m197.4 307.8-73 42v-2.9l73-42.1z"/><path class="st6" d="m197.4 304.8-73 42.1-7.6-4.3 73-42z"/><path class="st7" d="m124.4 352.3-7.6-4.4v-5.3l7.6 4.3z"/></g><g><path class="st8" d="m184.5 300.2-73.2 42.2v-2.9l73.2-42.2z"/><path class="st6" d="m184.5 297.3-73.2 42.2-7.6-4.2 73.2-42.3z"/><path class="st7" d="m111.3 345-7.6-4.5v-5.2l7.6 4.2z"/></g><g><path class="st9" d="m232.7 328.6-32.9 19V325l32.9-19z"/><path class="st10" d="m199.8 347.6-47.3-27.4v-22.6l47.3 27.4z"/><path class="st11" d="m232.7 306-32.9 19-47.3-27.4 32.8-19z"/><path class="st2" d="m220.4 325-7.3 4.2v-12l7.3-4.2z"/><path class="st1" d="m220.4 313-7.3 4.2-47.3-27.3 7.3-4.2z"/><path class="st2" d="m213.3 337.5-11.1 6.4v-2.1l11.1-6.4zM213.3 333.7l-11.1 6.4V338l11.1-6.4zM159.1 321.4l-5.3-3v-7.7l5.3 3.1zM166.3 325.6l-5.3-3v-7.7l5.3 3.1zM173.6 329.8l-5.3-3v-7.7l5.3 3.1z"/><path class="st12" d="m198.3 336.9-10.8-6.3v-11l10.8 6.3z"/><path class="st2" d="m197 328.1-8.5-4.9v-1.8l8.5 5z"/></g><g><path class="st9" d="m196.6 349.7-32.9 19.1v-22.7l32.9-19z"/><path class="st10" d="m163.7 368.8-47.3-27.4v-22.6l47.3 27.3z"/><path class="st11" d="m196.6 327.1-32.9 19-47.3-27.3 32.8-19z"/><path class="st2" d="m184.3 346.2-7.3 4.2v-12l7.3-4.3z"/><path class="st1" d="m184.3 334.1-7.3 4.3-47.3-27.3 7.3-4.3z"/><path class="st2" d="m177.2 358.7-11.1 6.3v-2.1l11.1-6.4zM177.2 354.9l-11.1 6.4v-2.2l11.1-6.4zM123 342.6l-5.3-3v-7.7l5.3 3.1zM130.2 346.8l-5.3-3.1v-7.6l5.3 3zM137.5 351l-5.3-3.1v-7.6l5.3 3z"/><path class="st12" d="m162.3 358.1-10.9-6.3v-11l10.9 6.3z"/><path class="st2" d="m160.9 349.3-8.5-4.9v-1.8l8.5 4.9z"/></g><g><path class="st9" d="m232.7 303.6-32.9 19V300l32.9-19.1z"/><path class="st10" d="m199.8 322.6-47.3-27.4v-22.6l47.3 27.4z"/><path class="st11" d="M232.7 280.9 199.8 300l-47.3-27.4 32.8-19z"/><path class="st2" d="m220.4 300-7.3 4.2v-12l7.3-4.2z"/><path class="st1" d="m220.4 288-7.3 4.2-47.3-27.3 7.3-4.2z"/><path class="st2" d="m213.3 312.5-11.1 6.4v-2.1l11.1-6.4zM213.3 308.7l-11.1 6.4V313l11.1-6.4zM159.1 296.4l-5.3-3v-7.7l5.3 3.1zM166.3 300.6l-5.3-3v-7.7l5.3 3.1zM173.6 304.8l-5.3-3v-7.7l5.3 3.1z"/><path class="st12" d="m198.3 311.9-10.8-6.3v-11l10.8 6.3z"/><path class="st2" d="m197 303.1-8.5-4.9v-1.8l8.5 5z"/></g><g><path class="st9" d="m196.6 324.7-32.9 19.1v-22.7l32.9-19z"/><path class="st10" d="m163.7 343.8-47.3-27.4v-22.6l47.3 27.3z"/><path class="st11" d="m196.6 302.1-32.9 19-47.3-27.3 32.8-19z"/><path class="st2" d="m184.3 321.2-7.3 4.2v-12l7.3-4.3z"/><path class="st1" d="m184.3 309.1-7.3 4.3-47.3-27.3 7.3-4.3z"/><path class="st2" d="m177.2 333.7-11.1 6.3v-2.1l11.1-6.4zM177.2 329.9l-11.1 6.4v-2.2l11.1-6.4zM123 317.6l-5.3-3v-7.7l5.3 3.1zM130.2 321.8l-5.3-3.1v-7.6l5.3 3zM137.5 326l-5.3-3.1v-7.6l5.3 3z"/><path class="st12" d="m162.3 333.1-10.9-6.3v-11l10.9 6.3z"/><path class="st2" d="m160.9 324.3-8.5-4.9v-1.8l8.5 4.9z"/></g></g><g><path class="st1" d="M345.9 194.7 163.1 301l-84.8-49 183-106.4z"/><path class="st4" d="m163.1 306.9-84.8-49v-6.3l84.8 49z"/><path class="st5" d="M345.9 200.9 163.1 306.6v-6.2l182.8-105.7z"/></g><g><path class="st6" d="m256.4 230.7-2 1.3-63.6-36.8 2.2-1.1z"/><path class="st7" d="m254.4 241-63.6-36.7v-9.1l63.6 36.8z"/><path class="st8" d="m256.4 239.9-2 1.1v-9l2-1.3z"/><path class="st6" d="m327.2 189.7-2 1.2-63.6-36.7 2.2-1.2z"/><path class="st7" d="m325.2 199.9-63.6-36.7v-9l63.6 36.7z"/><path class="st8" d="m327.2 198.8-2 1.1v-9l2-1.2z"/><path class="st6" d="m292.8 209.2-2 1.2-63.6-36.7 2.2-1.2z"/><path class="st7" d="m290.8 219.5-63.6-36.8v-9l63.6 36.7z"/><path class="st8" d="m292.8 218.3-2 1.2v-9.1l2-1.2z"/><g><path class="st8" d="m327.2 190.1-72.8 42v-2.9l72.8-42z"/><path class="st6" d="m327.2 187.2-72.8 42-7.6-4.3 72.8-42z"/><path class="st7" d="m254.4 234.6-7.6-4.4v-5.3l7.6 4.3z"/></g><g><path class="st8" d="m313.2 181.6-73 42.2v-3l73-42.2z"/><path class="st6" d="m313.2 178.6-73 42.2-7.6-4.2 73-42.2z"/><path class="st7" d="m240.2 226.3-7.6-4.5v-5.2l7.6 4.2z"/></g><g><path class="st8" d="m298.8 173.2-73.1 42.3v-2.9l73.1-42.3z"/><path class="st6" d="m298.8 170.3-73.1 42.3-7.6-4.3 73.2-42.3z"/><path class="st7" d="m225.7 218-7.6-4.4v-5.3l7.6 4.3z"/></g><g><path class="st8" d="m284.5 165.1-73 42.1v-3l73-42z"/><path class="st6" d="m284.5 162.2-73 42-7.6-4.2 73-42.1z"/><path class="st7" d="m211.5 209.7-7.6-4.5V200l7.6 4.2z"/></g><g><path class="st8" d="m271.6 157.6-73.2 42.2v-2.9l73.2-42.2z"/><path class="st6" d="m271.6 154.7-73.2 42.2-7.6-4.3 73.2-42.2z"/><path class="st7" d="m198.4 202.3-7.6-4.4v-5.3l7.6 4.3z"/></g><g><path class="st9" d="m259.4 187.8-31.6-18.4v-39.6l31.7 18.4z"/><path class="st10" d="M291.1 129.8v39.6l-31.7 18.4.1-39.6z"/><path class="st11" d="m291.1 129.8-31.6 18.4-31.7-18.4 31.6-18.3z"/><path class="st2" d="m246.6 152.3-7-4.1v-11.6l7 4.1z"/><path class="st1" d="m278.3 122.4-31.7 18.3-7-4.1 31.6-18.3z"/><path class="st2" d="m255.3 182.1-10.7-6.1v-2.1l10.7 6.2zM255.3 178.5l-10.7-6.2v-2l10.7 6.1zM235.1 170.7l-5.1-2.9v-7.1l5.1 2.9zM289.3 167.3l-5.1 3v-7.4l5.1-2.9zM282.3 171.3l-5.1 3v-7.4l5.1-2.9z"/><path class="st12" d="m289.3 145.9-10.5 6v-10.5l10.5-6.1z"/><path class="st2" d="m288.3 138.7-8.2 4.8v-1.7l8.2-4.8z"/></g><g><path class="st9" d="m224.8 207.6-31.7-18.4v-39.6l31.7 18.4z"/><path class="st10" d="M256.5 149.6v39.6l-31.7 18.4V168z"/><path class="st11" d="M256.5 149.6 224.8 168l-31.7-18.4 31.7-18.3z"/><path class="st2" d="m212 172.1-7.1-4.1v-11.6l7.1 4.1z"/><path class="st1" d="M243.6 142.2 212 160.5l-7.1-4.1 31.7-18.3z"/><path class="st2" d="m220.6 201.9-10.6-6.1v-2.1l10.6 6.2zM220.6 198.3l-10.6-6.2v-2l10.6 6.1zM200.4 190.5l-5-2.9v-7.1l5 2.9zM254.6 187.1l-5.1 3v-7.4l5.1-2.9zM247.7 191.2l-5.1 2.9v-7.4l5.1-2.9z"/><path class="st12" d="m254.6 165.7-10.4 6v-10.5l10.4-6.1z"/><path class="st2" d="m253.7 158.6-8.3 4.7v-1.7l8.3-4.7z"/></g><g><path class="st9" d="m292.1 207.5-31.7-18.4v-39.6l31.7 18.3z"/><path class="st10" d="M323.8 149.5v39.6l-31.7 18.4v-39.7z"/><path class="st11" d="m323.8 149.5-31.7 18.3-31.7-18.3 31.7-18.3z"/><path class="st2" d="m279.2 171.9-7-4.1v-11.5l7 4.1z"/><path class="st1" d="m310.9 142.1-31.7 18.3-7-4.1 31.6-18.3z"/><path class="st2" d="m287.9 201.8-10.7-6.1v-2.1l10.7 6.2zM287.9 198.1l-10.7-6.1v-2.1l10.7 6.2zM267.7 190.4l-5.1-3v-7l5.1 2.9zM321.9 187l-5.1 2.9v-7.3l5.1-3zM314.9 191l-5 3v-7.4l5-3z"/><path class="st12" d="m321.9 165.6-10.5 6V161l10.5-6z"/><path class="st2" d="m320.9 158.4-8.2 4.8v-1.7l8.2-4.8z"/></g><g><path class="st9" d="m257.4 227.3-31.6-18.4v-39.6l31.6 18.3z"/><path class="st10" d="M289.1 169.3v39.6l-31.7 18.4v-39.7z"/><path class="st11" d="m289.1 169.3-31.7 18.3-31.6-18.3 31.6-18.3z"/><path class="st2" d="m244.6 191.7-7.1-4.1v-11.5l7.1 4.1z"/><path class="st1" d="m276.3 161.9-31.7 18.3-7.1-4.1 31.7-18.3z"/><path class="st2" d="m253.2 221.6-10.6-6.1v-2.1l10.6 6.2zM253.2 218l-10.6-6.2v-2.1l10.6 6.2zM233.1 210.2l-5.1-3v-7l5.1 2.9zM287.2 206.8l-5 2.9v-7.3l5-3zM280.3 210.8l-5.1 3v-7.4l5.1-2.9z"/><path class="st12" d="m287.2 185.4-10.4 6v-10.6l10.4-6z"/><path class="st2" d="m286.3 178.2-8.2 4.8v-1.7l8.2-4.8z"/></g></g><g><path class="st6" d="m169.3 280.8-2 1.2-63.6-36.7 2.2-1.2z"/><path class="st7" d="m167.3 291.1-63.6-36.8v-9l63.6 36.7z"/><path class="st8" d="m169.3 289.9-2 1.2V282l2-1.2z"/><path class="st6" d="m240.1 239.7-2 1.3-63.6-36.8 2.2-1.1z"/><path class="st7" d="m238.1 250-63.6-36.7v-9.1l63.6 36.7z"/><path class="st8" d="m240.1 248.9-2 1.1v-9.1l2-1.2z"/><path class="st6" d="m205.7 259.2-2 1.3-63.6-36.8 2.2-1.1z"/><path class="st7" d="m203.7 269.5-63.6-36.7v-9.1l63.6 36.8z"/><path class="st8" d="m205.7 268.4-2 1.1v-9l2-1.3z"/><g><path class="st8" d="m240.1 240.1-72.8 42.1v-3l72.8-42z"/><path class="st6" d="m240.1 237.2-72.8 42-7.6-4.2 72.8-42z"/><path class="st7" d="m167.3 284.7-7.6-4.4V275l7.6 4.2z"/></g><g><path class="st8" d="m226.1 231.6-73 42.2v-2.9l73-42.2z"/><path class="st6" d="m226.1 228.7-73 42.2-7.6-4.3 73-42.2z"/><path class="st7" d="m153.1 276.3-7.6-4.4v-5.3l7.6 4.3z"/></g><g><path class="st8" d="m211.7 223.3-73.1 42.3v-3l73.1-42.3z"/><path class="st6" d="m211.7 220.3-73.1 42.3-7.6-4.2 73.2-42.3z"/><path class="st7" d="m138.6 268.1-7.6-4.4v-5.3l7.6 4.2z"/></g><g><path class="st8" d="m197.4 215.2-73 42v-2.9l73-42z"/><path class="st6" d="m197.4 212.3-73 42-7.6-4.3 73-42z"/><path class="st7" d="m124.4 259.7-7.6-4.4V250l7.6 4.3z"/></g><g><path class="st8" d="m184.5 207.7-73.2 42.2v-3l73.2-42.2z"/><path class="st6" d="m184.5 204.7-73.2 42.2-7.6-4.2 73.2-42.2z"/><path class="st7" d="m111.3 252.4-7.6-4.4v-5.3l7.6 4.2z"/></g><g><path class="st9" d="m172.3 237.8-31.6-18.3v-39.6l31.7 18.3z"/><path class="st10" d="M204 179.9v39.6l-31.7 18.3.1-39.6z"/><path class="st11" d="m204 179.9-31.6 18.3-31.7-18.3 31.6-18.3z"/><path class="st2" d="m159.5 202.3-7-4.1v-11.6l7 4.1z"/><path class="st1" d="m191.2 172.4-31.7 18.4-7-4.2 31.6-18.3z"/><path class="st2" d="m168.2 232.2-10.7-6.2v-2l10.7 6.1zM168.2 228.5l-10.7-6.1v-2.1l10.7 6.2zM148 220.7l-5.1-2.9v-7.1l5.1 3zM202.2 217.4l-5.1 2.9v-7.4l5.1-2.9zM195.2 221.4l-5.1 2.9V217l5.1-3z"/><path class="st12" d="m202.2 195.9-10.5 6.1v-10.6l10.5-6.1z"/><path class="st2" d="m201.2 188.8-8.2 4.8v-1.8l8.2-4.7z"/></g><g><path class="st9" d="M137.7 257.7 106 239.3v-39.6l31.7 18.3z"/><path class="st10" d="M169.4 199.7v39.6l-31.7 18.4V218z"/><path class="st11" d="M169.4 199.7 137.7 218 106 199.7l31.7-18.3z"/><path class="st2" d="m124.9 222.1-7.1-4.1v-11.6l7.1 4.2z"/><path class="st1" d="m156.5 192.2-31.6 18.4-7.1-4.2 31.7-18.2z"/><path class="st2" d="m133.5 252-10.6-6.2v-2l10.6 6.1zM133.5 248.3l-10.6-6.1v-2.1l10.6 6.2zM113.3 240.6l-5.1-3v-7.1l5.1 3zM167.5 237.2l-5.1 2.9v-7.4l5.1-2.9zM160.6 241.2l-5.1 2.9v-7.3l5.1-3z"/><path class="st12" d="m167.5 215.8-10.4 6v-10.6l10.4-6.1z"/><path class="st2" d="m166.6 208.6-8.3 4.8v-1.8l8.3-4.7z"/></g><g><path class="st9" d="m205 257.5-31.7-18.4v-39.6l31.7 18.4z"/><path class="st10" d="M236.7 199.5v39.6L205 257.5v-39.6z"/><path class="st11" d="M236.7 199.5 205 217.9l-31.7-18.4 31.7-18.3z"/><path class="st2" d="m192.1 222-7-4.1v-11.6l7 4.1z"/><path class="st1" d="m223.8 192.1-31.7 18.3-7-4.1 31.6-18.3z"/><path class="st2" d="m200.8 251.8-10.7-6.1v-2.1l10.7 6.2zM200.8 248.2l-10.7-6.1V240l10.7 6.2zM180.6 240.4l-5.1-2.9v-7.1l5.1 2.9zM234.8 237l-5.1 3v-7.4l5.1-2.9zM227.8 241.1l-5 2.9v-7.4l5-2.9z"/><path class="st12" d="m234.8 215.6-10.5 6.1v-10.6l10.5-6.1z"/><path class="st2" d="m233.8 208.5-8.2 4.7v-1.7l8.2-4.7z"/></g><g><path class="st9" d="M170.3 277.3 138.7 259v-39.7l31.6 18.4z"/><path class="st10" d="M202 219.3V259l-31.7 18.3v-39.6z"/><path class="st11" d="m202 219.3-31.7 18.4-31.6-18.4 31.6-18.3z"/><path class="st2" d="m157.5 241.8-7.1-4.1v-11.6l7.1 4.1z"/><path class="st1" d="m189.2 211.9-31.7 18.3-7.1-4.1 31.7-18.3z"/><path class="st2" d="m166.1 271.6-10.6-6.1v-2.1l10.6 6.2zM166.1 268l-10.6-6.1v-2.1l10.6 6.2zM146 260.2l-5.1-2.9v-7.1l5.1 3zM200.1 256.8l-5 3v-7.4l5-2.9zM193.2 260.9l-5.1 2.9v-7.4l5.1-2.9z"/><path class="st12" d="m200.1 235.4-10.4 6.1v-10.6l10.4-6.1z"/><path class="st2" d="M199.2 228.3 191 233v-1.7l8.2-4.7z"/></g></g><g><path class="st1" d="M345.9 104.1 163.1 210.5l-84.8-49 183-106.4z"/><path class="st4" d="m163.1 216.3-84.8-49v-6.2l84.8 49z"/><path class="st5" d="M345.9 110.4 163.1 216.1v-6.3l182.8-105.7z"/></g><g><path class="st6" d="m256.4 136.8-2 1.2-63.6-36.7 2.2-1.2z"/><path class="st7" d="m254.4 147-63.6-36.7v-9l63.6 36.7z"/><path class="st8" d="m256.4 145.9-2 1.1v-9l2-1.2z"/><path class="st6" d="m327.2 95.7-2 1.2-63.6-36.7 2.2-1.2z"/><path class="st7" d="m325.2 106-63.6-36.8v-9l63.6 36.7z"/><path class="st8" d="m327.2 104.8-2 1.2v-9.1l2-1.2z"/><path class="st6" d="m292.8 115.2-2 1.3-63.6-36.8 2.2-1.1z"/><path class="st7" d="m290.8 125.5-63.6-36.7v-9.1l63.6 36.7z"/><path class="st8" d="m292.8 124.4-2 1.1v-9.1l2-1.2z"/><g><path class="st8" d="m327.2 96.1-72.8 42v-2.9l72.8-42z"/><path class="st6" d="m327.2 93.2-72.8 42-7.6-4.2 72.8-42.1z"/><path class="st7" d="m254.4 140.7-7.6-4.5V131l7.6 4.2z"/></g><g><path class="st8" d="m313.2 87.6-73 42.2v-2.9l73-42.2z"/><path class="st6" d="m313.2 84.7-73 42.2-7.6-4.3 73-42.2z"/><path class="st7" d="m240.2 132.3-7.6-4.4v-5.3l7.6 4.3z"/></g><g><path class="st8" d="m298.8 79.3-73.1 42.3v-3l73.1-42.3z"/><path class="st6" d="m298.8 76.3-73.1 42.3-7.6-4.2 73.2-42.3z"/><path class="st7" d="m225.7 124.1-7.6-4.5v-5.2l7.6 4.2z"/></g><g><path class="st8" d="m284.5 71.2-73 42v-2.9l73-42.1z"/><path class="st6" d="m284.5 68.2-73 42.1-7.6-4.3 73-42z"/><path class="st7" d="m211.5 115.7-7.6-4.4V106l7.6 4.3z"/></g><g><path class="st8" d="m271.6 63.6-73.2 42.3v-3l73.2-42.2z"/><path class="st6" d="m271.6 60.7-73.2 42.2-7.6-4.2L264 56.5z"/><path class="st7" d="m198.4 108.4-7.6-4.5v-5.2l7.6 4.2z"/></g><g><path class="st9" d="m259.4 93.8-31.6-18.3V35.9l31.7 18.3z"/><path class="st10" d="M291.1 35.9v39.6l-31.7 18.3.1-39.6z"/><path class="st11" d="m291.1 35.9-31.6 18.3-31.7-18.3 31.6-18.4z"/><path class="st2" d="m246.6 58.3-7-4.1V42.6l7 4.1z"/><path class="st1" d="m278.3 28.4-31.7 18.3-7-4.1 31.6-18.3z"/><path class="st2" d="M255.3 88.2 244.6 82v-2l10.7 6.1zM255.3 84.5l-10.7-6.1v-2.1l10.7 6.2zM235.1 76.7l-5.1-2.9v-7.1l5.1 3zM289.3 73.4l-5.1 2.9v-7.4l5.1-2.9zM282.3 77.4l-5.1 2.9v-7.4l5.1-2.9z"/><path class="st12" d="M289.3 51.9 278.8 58V47.4l10.5-6.1z"/><path class="st2" d="m288.3 44.8-8.2 4.7v-1.7l8.2-4.7z"/></g><g><path class="st9" d="m224.8 113.6-31.7-18.3V55.7L224.8 74z"/><path class="st10" d="M256.5 55.7v39.6l-31.7 18.3V74z"/><path class="st11" d="M256.5 55.7 224.8 74l-31.7-18.3 31.7-18.3z"/><path class="st2" d="m212 78.1-7.1-4.1V62.4l7.1 4.1z"/><path class="st1" d="M243.6 48.2 212 66.6l-7.1-4.2 31.7-18.3z"/><path class="st2" d="m220.6 108-10.6-6.2v-2l10.6 6.1zM220.6 104.3 210 98.2v-2.1l10.6 6.2zM200.4 96.5l-5-2.9v-7.1l5 3zM254.6 93.2l-5.1 2.9v-7.4l5.1-2.9zM247.7 97.2l-5.1 2.9v-7.3l5.1-3z"/><path class="st12" d="m254.6 71.7-10.4 6.1V67.2l10.4-6.1z"/><path class="st2" d="m253.7 64.6-8.3 4.7v-1.7l8.3-4.7z"/></g><g><path class="st9" d="m292.1 113.5-31.7-18.4V55.5l31.7 18.3z"/><path class="st10" d="M323.8 55.5v39.6l-31.7 18.4V73.8z"/><path class="st11" d="m323.8 55.5-31.7 18.3-31.7-18.3 31.7-18.3z"/><path class="st2" d="m279.2 78-7-4.1V62.3l7 4.1z"/><path class="st1" d="m310.9 48.1-31.7 18.3-7-4.1L303.8 44z"/><path class="st2" d="m287.9 107.8-10.7-6.1v-2.1l10.7 6.2zM287.9 104.2 277.2 98v-2l10.7 6.1zM267.7 96.4l-5.1-2.9v-7.1l5.1 2.9zM321.9 93l-5.1 3v-7.4l5.1-2.9zM314.9 97l-5 3v-7.4l5-2.9z"/><path class="st12" d="m321.9 71.6-10.5 6V67l10.5-6z"/><path class="st2" d="m320.9 64.4-8.2 4.8v-1.7l8.2-4.8z"/></g><g><path class="st9" d="m257.4 133.3-31.6-18.4V75.3l31.6 18.3z"/><path class="st10" d="M289.1 75.3v39.6l-31.7 18.4V93.6z"/><path class="st11" d="m289.1 75.3-31.7 18.3-31.6-18.3L257.4 57z"/><path class="st2" d="m244.6 97.8-7.1-4.1V82.1l7.1 4.1z"/><path class="st1" d="m276.3 67.9-31.7 18.3-7.1-4.1 31.7-18.3z"/><path class="st2" d="m253.2 127.6-10.6-6.1v-2.1l10.6 6.2zM253.2 124l-10.6-6.2v-2l10.6 6.1zM233.1 116.2l-5.1-2.9v-7.1l5.1 2.9zM287.2 112.8l-5 3v-7.4l5-2.9zM280.3 116.9l-5.1 2.9v-7.4l5.1-2.9z"/><path class="st12" d="m287.2 91.4-10.4 6V86.9l10.4-6.1z"/><path class="st2" d="m286.3 84.2-8.2 4.8v-1.7l8.2-4.7z"/></g></g><g><path class="st6" d="m169.3 186.8-2 1.2-63.6-36.7 2.2-1.1z"/><path class="st7" d="m167.3 197.1-63.6-36.7v-9.1l63.6 36.7z"/><path class="st8" d="m169.3 196-2 1.1V188l2-1.2z"/><path class="st6" d="m240.1 145.7-2 1.3-63.6-36.8 2.2-1.1z"/><path class="st7" d="m238.1 156-63.6-36.7v-9.1l63.6 36.8z"/><path class="st8" d="m240.1 154.9-2 1.1v-9l2-1.3z"/><path class="st6" d="m205.7 165.3-2 1.2-63.6-36.7 2.2-1.2z"/><path class="st7" d="m203.7 175.5-63.6-36.7v-9l63.6 36.7z"/><path class="st8" d="m205.7 174.4-2 1.1v-9l2-1.2z"/><g><path class="st8" d="m240.1 146.2-72.8 42v-2.9l72.8-42.1z"/><path class="st6" d="m240.1 143.2-72.8 42.1-7.6-4.3 72.8-42z"/><path class="st7" d="m167.3 190.7-7.6-4.4V181l7.6 4.3z"/></g><g><path class="st8" d="m226.1 137.6-73 42.2v-2.9l73-42.2z"/><path class="st6" d="m226.1 134.7-73 42.2-7.6-4.3 73-42.2z"/><path class="st7" d="m153.1 182.4-7.6-4.5v-5.3l7.6 4.3z"/></g><g><path class="st8" d="m211.7 129.3-73.1 42.3v-2.9l73.1-42.3z"/><path class="st6" d="m211.7 126.4-73.1 42.3-7.6-4.3 73.2-42.3z"/><path class="st7" d="m138.6 174.1-7.6-4.4v-5.3l7.6 4.3z"/></g><g><path class="st8" d="m197.4 121.2-73 42v-2.9l73-42z"/><path class="st6" d="m197.4 118.3-73 42-7.6-4.3 73-42z"/><path class="st7" d="m124.4 165.8-7.6-4.5V156l7.6 4.3z"/></g><g><path class="st8" d="m184.5 113.7-73.2 42.2V153l73.2-42.2z"/><path class="st6" d="M184.5 110.8 111.3 153l-7.6-4.3 73.2-42.2z"/><path class="st7" d="m111.3 158.4-7.6-4.4v-5.3l7.6 4.3z"/></g><g><path class="st9" d="m168.3 139.3-23.4-13.5v-16.4l23.4 13.5z"/><path class="st10" d="M195.5 107.2v16.4l-27.2 15.7v-16.4z"/><path class="st11" d="m195.5 107.2-27.2 15.7-23.4-13.5 27.2-15.8z"/><path class="st2" d="m166.4 136.3-8.9-5.1v-1.7l8.9 5.1zM166.4 133.3l-8.9-5.1v-1.8l8.9 5.2zM192.9 119.8l-5.3 3.1v-7.7l5.3-3z"/><path class="st12" d="m193.5 120-10.9 6.3v-9l10.9-6.3z"/><path class="st2" d="m192.3 114.8-8 4.6v-1.6l8-4.7zM157.8 125.4l-6.1-3.5v-8.6l6.1 3.5z"/><path class="st1" d="m184.9 101.1-27.1 15.7-6.1-3.5 27.2-15.7z"/></g><g><path class="st9" d="m203.6 159.6-23.4-13.5v-16.4l23.4 13.5z"/><path class="st10" d="M230.8 127.5v16.4l-27.2 15.7v-16.4z"/><path class="st11" d="m230.8 127.5-27.2 15.7-23.4-13.5 27.2-15.8z"/><path class="st2" d="m201.7 156.6-8.9-5.1v-1.7l8.9 5.1zM201.7 153.6l-8.9-5.1v-1.8l8.9 5.2zM228.2 140.1l-5.3 3.1v-7.7l5.3-3z"/><path class="st12" d="m228.9 140.3-11 6.3v-9l11-6.3z"/><path class="st2" d="m227.6 135.1-8 4.6v-1.6l8-4.7zM193.1 145.7l-6.1-3.5v-8.6l6.1 3.5z"/><path class="st1" d="m220.2 121.4-27.1 15.7-6.1-3.5 27.2-15.7z"/></g><g><path class="st9" d="m133.8 159.4-23.4-13.5v-16.4l23.4 13.5z"/><path class="st10" d="M160.9 127.3v16.4l-27.1 15.7V143z"/><path class="st11" d="M160.9 127.3 133.8 143l-23.4-13.5 27.2-15.7z"/><path class="st2" d="m131.8 156.4-8.8-5.1v-1.7l8.8 5.1zM131.8 153.4l-8.8-5.1v-1.7l8.8 5.1zM158.4 140l-5.3 3v-7.6l5.3-3.1z"/><path class="st12" d="m159 140.1-10.9 6.3v-9l10.9-6.3z"/><path class="st2" d="m157.8 134.9-8.1 4.7v-1.7l8.1-4.7zM123.2 145.5l-6-3.5v-8.6l6 3.5z"/><path class="st1" d="m150.4 121.2-27.2 15.7-6-3.5 27.1-15.7z"/></g><g><path class="st9" d="m169.1 179.7-23.4-13.5v-16.4l23.4 13.5z"/><path class="st10" d="M196.3 147.6V164l-27.2 15.7v-16.4z"/><path class="st11" d="m196.3 147.6-27.2 15.7-23.4-13.5 27.2-15.7z"/><path class="st2" d="m167.1 176.7-8.8-5.1v-1.7l8.8 5.1zM167.1 173.7l-8.8-5.1v-1.7l8.8 5.1zM193.7 160.2l-5.3 3.1v-7.6l5.3-3.1z"/><path class="st12" d="m194.3 160.4-10.9 6.3v-9l10.9-6.3z"/><path class="st2" d="m193.1 155.2-8 4.7v-1.7l8-4.7zM158.6 165.8l-6.1-3.5v-8.6l6.1 3.5z"/><path class="st1" d="m185.7 141.5-27.1 15.7-6.1-3.5 27.1-15.7z"/></g><g><path class="st9" d="m168.3 121.3-23.4-13.6V91.3l23.4 13.5z"/><path class="st10" d="M195.5 89.1v16.4l-27.2 15.8v-16.5z"/><path class="st11" d="m195.5 89.1-27.2 15.7-23.4-13.5 27.2-15.7z"/><path class="st2" d="m166.4 118.2-8.9-5v-1.8l8.9 5.2zM166.4 115.2l-8.9-5.1v-1.7l8.9 5.1zM192.9 101.8l-5.3 3v-7.6l5.3-3z"/><path class="st12" d="m193.5 101.9-10.9 6.4v-9.1l10.9-6.3z"/><path class="st2" d="m192.3 96.7-8 4.7v-1.7l8-4.6zM157.8 107.4l-6.1-3.5v-8.7l6.1 3.5z"/><path class="st1" d="m184.9 83-27.1 15.8-6.1-3.6 27.2-15.6z"/></g><g><path class="st9" d="M203.6 141.5 180.2 128v-16.4l23.4 13.5z"/><path class="st10" d="M230.8 109.4v16.4l-27.2 15.7v-16.4z"/><path class="st11" d="m230.8 109.4-27.2 15.7-23.4-13.5 27.2-15.7z"/><path class="st2" d="m201.7 138.5-8.9-5.1v-1.7l8.9 5.2zM201.7 135.5l-8.9-5.1v-1.7l8.9 5.1zM228.2 122.1l-5.3 3v-7.6l5.3-3z"/><path class="st12" d="m228.9 122.2-11 6.4v-9.1l11-6.3z"/><path class="st2" d="m227.6 117-8 4.7V120l8-4.6zM193.1 127.7l-6.1-3.5v-8.7l6.1 3.5z"/><path class="st1" d="M220.2 103.3 193.1 119l-6.1-3.5 27.2-15.7z"/></g><g><path class="st9" d="m133.8 141.4-23.4-13.5v-16.5l23.4 13.6z"/><path class="st10" d="M160.9 109.3v16.4l-27.1 15.7V125z"/><path class="st11" d="M160.9 109.3 133.8 125l-23.4-13.6 27.2-15.7z"/><path class="st2" d="m131.8 138.4-8.8-5.1v-1.7l8.8 5.1zM131.8 135.3l-8.8-5.1v-1.7l8.8 5.1zM158.4 121.9l-5.3 3.1v-7.7l5.3-3z"/><path class="st12" d="m159 122.1-10.9 6.3v-9.1l10.9-6.2z"/><path class="st2" d="m157.8 116.8-8.1 4.7v-1.7l8.1-4.6zM123.2 127.5l-6-3.5v-8.7l6 3.5z"/><path class="st1" d="m150.4 103.1-27.2 15.8-6-3.6 27.1-15.6z"/></g><g><path class="st9" d="m169.1 161.7-23.4-13.5v-16.5l23.4 13.6z"/><path class="st10" d="M196.3 129.5V146l-27.2 15.7v-16.4z"/><path class="st11" d="m196.3 129.5-27.2 15.8-23.4-13.6 27.2-15.7z"/><path class="st2" d="m167.1 158.7-8.8-5.1v-1.7l8.8 5.1zM167.1 155.6l-8.8-5.1v-1.7l8.8 5.1zM193.7 142.2l-5.3 3.1v-7.7l5.3-3z"/><path class="st12" d="m194.3 142.4-10.9 6.3v-9.1l10.9-6.3z"/><path class="st2" d="m193.1 137.1-8 4.7v-1.7l8-4.6zM158.6 147.8l-6.1-3.5v-8.7l6.1 3.5z"/><path class="st1" d="m185.7 123.4-27.1 15.8-6.1-3.6 27.1-15.6z"/></g></g><g><path class="st1" d="m166 409.2-4 2.3V168.3l4-2.3z"/><path class="st2" d="m162 411.5-4.8-2.7V165.5l4.8 2.8z"/><path class="st1" d="m81.2 360.4-4 2.3V119.5l4-2.3z"/><path class="st2" d="m77.2 362.7-4.8-2.7V116.7l4.8 2.8z"/><path class="st3" d="m166 166-4 2.3-4.8-2.8 4-2.3zM81.2 117.2l-4 2.3-4.8-2.8 4-2.3z"/><path class="st2" d="M159.9 291.4 77.2 357l-3.2-3.2 84.4-67.3z"/><path class="st2" d="m159.2 400.6-.8 4.6-83.1-161.6 1.9-2.8z"/><path class="st2" d="m159.9 176.7-82.7 65.7-3.2-3.3 84.4-67.2z"/><path class="st2" d="m159.2 286-.8 4.6L75.3 129l1.9-2.8z"/></g><g><path class="st13" d="M447.4 287.4c7.5-7.7 15.8-11.9 22.7-14.9v8c-1.6 0-3.3.4-5.1 1.5-6.9 4-12.5 14.7-12.5 23.9 0 2.3.3 4.3 1 5.9l-40.4 23.9-.1-.3v-16.6l18.8-10.9c2.6-4.2 9.9-14.7 15.6-20.5z"/><path class="st14" d="M449.3 289.3c7.5-7.7 15.8-11.9 22.7-14.9v8c-1.6 0-3.3.4-5.1 1.5-6.9 4-12.5 14.7-12.5 23.9 0 2.3.3 4.3 1 5.9L415 337.6l-.1-.3v-16.6l19.5-11.2c2.6-4.2 9.2-14.4 14.9-20.2z"/><path class="st5" d="m466.3 277.1-2.8-1.6v-92.1l5.7-5.3z"/><path class="st4" d="m472 276.9-5.7 3.3v-96.8l5.7-5.3z"/><path class="st1" d="m437.7 191.1 31.3-17.9v7.6l-28.7 16.4c-8.4 4.9-15.7 17-17.3 29l-5.3 89.4-2.8 5.8-3-2.4 6.1-94.7c1.8-13.7 10.1-27.6 19.7-33.2z"/><path class="st1" d="m472 175.5-3.2 3.4-3.8-3.4 4-2.3z"/><path class="st4" d="M421 226.5c1.8-13.7 10.1-27.6 19.8-33.1l31.3-17.9v7.6l-28.7 16.4c-8.4 4.9-15.7 17-17.3 29l-5.3 89.4-5.8 4v-1.2l6-94.2zM409.6 328.9c5.6-3.2 10.1.2 10.1 7.6s-4.5 16-10.1 19.2-10.1-.2-10.1-7.6c.1-7.4 4.6-16 10.1-19.2z"/><path class="st4" d="m423.3 332.4-12.6 28.1-7.3-4.1 13-27.9z"/><path class="st5" d="M417.2 333.1c5.6-3.2 10.1.2 10.1 7.6s-4.5 16-10.1 19.2c-5.6 3.2-10.1-.2-10.1-7.6 0-7.4 4.5-16 10.1-19.2z"/><ellipse transform="rotate(-66.945 417.215 346.817)" class="st12" cx="417.2" cy="346.8" rx="12.1" ry="6.8"/><path class="st4" d="M417.2 338.9c3.3-1.9 5.9.1 5.9 4.5s-2.7 9.5-5.9 11.3c-3.3 1.9-5.9-.1-5.9-4.5-.1-4.4 2.6-9.4 5.9-11.3z"/><path class="st12" d="M417.2 343.8c1.2-.7 2.3 0 2.3 1.7s-1 3.6-2.3 4.3c-1.2.7-2.3 0-2.3-1.7s1-3.6 2.3-4.3z"/><path class="st15" d="m500 294.3-28-16.1c-6.4 2.9-13.6 7-20.3 13.8-5.7 5.8-13 16.3-15.6 20.4l-15 8.7v17l24.4-14.4 45 27.6 9.5-11.9v-45.1z"/><path class="st1" d="m476.1 236.5-4.7 4.1-3.1-4.1 3.7-2.4z"/><path class="st1" d="m500 250.3-28-16.2v43.2l28 16.2z"/><path class="st5" d="m500 209.6-44-25.1v2.7l44 25.5z"/><path class="st16" d="m500 297.9-31.7-18.3-9 5.9L500 309z"/><path class="st5" d="m500 254.8-31.7-18.3v43.2L500 298z"/><path class="st1" d="m473.3 371-61.4-35.4v-17l61.4 35.5z"/><path class="st1" d="M500 327.8c-4 5.3-7.8 11.1-9.5 13.8l-19.1 10.6v16.6l.1.3 28.5-16.9v-24.4z"/><path class="st4" d="M500 332.2c-3.1 4.2-5.8 8.4-7.2 10.7l-19.5 11.2v16.6l.1.3 26.6-15.7v-23.1zM500 299c-.1 0-.2-.1-.2-.1-2.2-1-6.8-2.1-9-3.4-2.4-1.4-7.3-5.6-9.7-7.5-3.1-2.4-8.6-1.9-12 .5l-11.7 6.7c-3.5 2-2 5.6-.9 6.9 1.8 2.2 5.5 5 8.9 7 2.5 1.4 7.3 3.2 9.9 3.9 2.9.7 8.4 1.5 12-.5l11.7-6.7c.4-.2.8-.5 1.1-.8v-6z"/><path class="st4" d="M465.4 295.5v3.6l-10.2-.6s0-2.1.8-5.1c.6-2.3 9.4 2.1 9.4 2.1zM500 295.3c-2.6-.5-9.2 2.9-9.2 2.9v4.3l9.2-.7v-6.5z"/><path class="st1" d="M500 294.5c-.3-.2-.6-.4-1-.6-2.1-.9-6.6-2-8.7-3.3-2.4-1.4-7.1-5.4-9.4-7.2-3-2.3-8.3-1.8-11.6.5l-11.3 6.5c-3.4 2-1.9 5.4-.8 6.7 1.7 2.1 6.5 5.5 8.6 6.7 2.4 1.4 7.1 3.1 9.5 3.7 2.8.7 8.2 1.5 11.6-.5l11.3-6.5c.8-.4 1.3-.9 1.8-1.5v-4.5z"/><path class="st4" d="M500 253.6c-1-1-2-1.8-3-2.4l-5-2.9c-5.2-3-9.5.2-9.5 7.2v19.9l17.5 10.1v-31.9z"/><path class="st8" d="m485.2 252.7-3.6-2.4 4.1-2.4z"/><path class="st1" d="M500 261.7c-1.7-3.5-4.2-6.6-7-8.2l-5-2.9c-5.2-3-9.5.2-9.5 7.2v19.9l21.5 12.4v-28.4z"/><path class="st5" d="m492.8 342.9-19.5 11.2-61-35.2 19.5-11.1z"/><path class="st17" d="M474.1 238.5c4.9 2.7 3.8 16.1-2.6 21.9-4.7-4.3-9-4.9-9-4.9s2.8-5.9 5.8-11.5c2.9-5.7 5.8-5.5 5.8-5.5z"/><path class="st18" d="M474.1 238.5c6.2-2.4 16.5-1.9 16.5-1.9s7.8 8.7 8.3 12.4c.5 3.7-3.2 29.6-3.2 29.6s-3.1 3.8-9.2 4.3c-10.3.8-16.4-3.5-16.4-3.5s-.5-26.5 1-32.2c1.4-5.6 3-8.7 3-8.7z"/><path d="m489.2 229 1.7 9.5s-.5 1.4-4 4.3c-3.5 3-7-1-7-1l1.2-7 8.1-5.8z" style="fill:#ffad97"/><path class="st20" d="M486 218.6c2.3 1.8 4.3 7.1 2.9 11.6-1.2 4-5.5 7.2-7.6 8.1-3.7 1.6-10.5-7.9-7.8-15.5 2.6-7.2 9.6-6.5 12.5-4.2z"/><path class="st2" d="M481.1 214.8c5.3-.5 8.1 5.5 8.7 8.3 1 4.5-.9 7-.9 7s0-2.3-1-2.8c-.9-.5-3.2-2-3.2-2s-2.2 1.4-5.2 1.9c-3.7.6-5.5-.8-6.7-2-.5-.6-1.2-1.8-.8-3.3.7-3.1 3.8-6.6 9.1-7.1z"/><path class="st14" d="M487.2 242.5c3.2-1.7 4.7-2.1 6.2-2.3.9.3 2.5 2.9 2.5 2.9s-2.7.4-6.3 2.3c-3.6 1.9-8.1 8.7-8.1 8.7-2.1 2.9-5.3 1.5-2.4-3.5 1.3-2.3 4.8-6.4 8.1-8.1zM473.7 238.5l3.2-.9s-2.1 7.2-2.5 9.7c-.4 2.7-.5 5.1-1.8 5-1.4-.1-2-1.2-1.7-4.5.4-3.4 2.8-9.3 2.8-9.3z"/><path class="st2" d="M440.5 330.4c2.3-2.3 4.1-4.2 4.1-4.2l10.7-.5v3.5s-.3 1.5-2 2.5-4.9 2.9-6.7 3.5c-2.5.9-7 1.9-8.9 1.9-2.2.1-3.2-1-2-2.1 1.9-1.9 2.6-2.5 4.8-4.6zM461.6 339.8c2.3-2.3 4.1-4.2 4.1-4.2l10.7-3.2v6.2s-.3 1.5-2 2.5c-1.7 1.1-4.9 2.9-6.7 3.5-2.5.9-7 1.9-8.9 1.9-2.2.1-3.2-1-2-2.1 2-1.9 2.6-2.5 4.8-4.6z"/><path class="st14" d="M448.7 289.6c3.3-2.3 13.7-8.4 17.4-10.7 10.8 4.1 30.2-1.7 30.2-1.7s2.1 12.9-2.3 18c-4 4.5-17.6 13.8-17.6 13.8l-1.1 27s-3.3 3.3-7.3 3.3c-5.2 0-6-3.9-6-3.9s.1-7.7.5-19.5c.2-5.5.6-8.8 1.7-13.2 1.4-5.4 11.3-11.6 11.3-11.6L458 301.2l-.8 26.6s-3 1.2-7 1.3c-5.2 0-7.5-3.2-7.5-3.2s1-13.2 2.3-24.8c.8-6.9 1.7-10 3.7-11.5z"/><path class="st14" d="m471.9 246.9 10.9 4.8s-.8 4.2-1.1 13.2c-.2 9.1 3.9 11.8 6.8 12.1 3.3.4 7.7-2.8 7.7-2.8l.5 8.6s-3.8 1.8-10.7 2.5c-6.9.7-18.6 0-18.6 0s.2-4.6.8-18.1c.7-13.4 3.7-20.3 3.7-20.3z"/><path class="st12" d="M472.4 248.4c.4 0 .7.4.7 1s-.3 1-.7 1-.7-.4-.7-1 .3-1 .7-1zM480.8 252c.3.2.3.8 0 1.2-.3.4-.8.6-1.1.4-.3-.2-.3-.8 0-1.2.3-.4.8-.6 1.1-.4z"/><path class="st13" d="M480.2 257.5c-.8 3.3-1.8 7.6-5.4 6.7-4-1.1-4.3-8.2-3.8-10.5 0 0 4.5 2.8 9.2 3.8z"/><path class="st20" d="M481.7 270c1.7-2.5 3.8-7.6 3.8-7.6 5.5-1.2 7.8 4.7 7.8 4.7s-5 7.3-7.7 9.2c-1 .7-7.7 4.8-11.2 5.9-1-1.6-1.7-3-3.2-4 2.6-2 9.3-6.6 10.5-8.2z"/><path class="st17" d="M500 250.5c-.3-1.9-1-3.5-2.5-4.7-2.2-1.8-6.8 4.2-9.3 7.9-2.5 3.7-4.5 9.3-4.5 9.3s3 2.2 5.6 3.8c2.2 1.4 4.6 2.5 4.6 2.5s5.2-8.2 6-15.3v-3.5z"/><path class="st15" d="M473.5 220.4c3.1-2.5 9.2-3.1 13.5-1.4 4.3 1.7 5.2 5.1 2.1 7.6s-9.2 3.1-13.5 1.4c-4.3-1.7-5.3-5.1-2.1-7.6z"/><path class="st15" d="M479.4 211.7c11.2-1.6 11.5 11.5 11.5 11.5l-19.3 1c.1-.1-1.8-11.1 7.8-12.5z"/><path class="st8" d="M471.5 222.5s-.4 2 3.1 3.5c5.2 2.3 15.3-.2 15.3-.2s-7.8 7.6-17.4 3.5c-5.6-2.5-1-6.8-1-6.8z"/><path class="st8" d="M480.8 212.3c2.5-1.5 3.9-.1 3.9-.1s-4.1 1.1-5.4 4.1c-1 2.4.6 3.2 2.4 4.7 1.8 1.5 1.5 3.8 1.5 3.8s-1.4-2-3.5-3.3c-2.1-1.2-2.8-3.2-1.9-5.2.9-2.1 1.6-3.1 3-4zM473.9 216.2c.1-1.3-.6-4.2 5.5-4.6 0 0-2.7 1.1-3.8 2.8-.5.8-.5 3.7-1 4.4-.5.7-3.1 2.8-3.1 2.8s-.8-.7.2-2 2.1-1.4 2.2-3.4z"/><path class="st5" d="m495.9 228.5-55.5-32.2v-2.7l55.5 31.7z"/><g><path class="st4" d="M449.6 284.1c0 6.7 3.9 14.2 9 17.1 1.3.8 2.7 1.2 3.9 1.2 1 0 1.9-.2 2.7-.7 2.2-1.3 3.5-4.1 3.5-7.8 0-6.7-3.9-14.2-9-17.1-2.4-1.4-4.7-1.5-6.6-.4-2.3 1.2-3.5 4-3.5 7.7zm2.1 0c0-2.9.9-5 2.4-5.9.5-.3 1-.4 1.6-.4.9 0 1.8.3 2.8.9 4.4 2.5 7.9 9.3 7.9 15.2 0 2.9-.9 5-2.4 5.9-1.2.7-2.7.5-4.4-.4-4.3-2.6-7.9-9.4-7.9-15.3z"/></g><path class="st4" d="m466.7 294.4-15.7-9.1v-1.7l15.7 9.1z"/><path class="st4" d="m459.4 300.5-1.1-.7v-21.6l1.1.6z"/><path class="st4" d="M457.3 286.7s.1 0 0 0c.1-.1.2-.2.3-.2.4-.2.8-.2 1.3.1 1 .6 1.8 2.1 1.8 3.4 0 .6-.2 1-.5 1.3v.1s-1.8 2.1-6.7 7.8c-4.9 5.7-12 15-12 15l-3.1-6.6s6-6.2 9.7-10.5c3.6-4.4 9.2-10.4 9.2-10.4z"/><path class="st20" d="m462.9 279.4-.9-.9c.5-.2 1.4-.7 3 0s2.6.6 4.3.3c.3 0 2.4-.9 3.3-1.6 1.3 1.3 3.2 2.6 3.6 4.3-2.7 1.4-4.9 2.1-5.8 2.5-1.4.5-4.3 2.6-7.4 2.3-.7-.1-1.6-1.4-1.8-1.7-1.1-.1-1-.8-1.1-1.3-.8-.3-1-.4-.7-1.5.5-2.2 3.5-2.4 3.5-2.4zM463 255.4c.8 0 2.3.6 3.7 1.3 1.2.6 2.3 1.5 2.3 1.5s-1.4 3-3.6 5.7c-.7.9-7.1 8.1-6.9 9.3.1.6.1.6.5 1.3.3.7 1.8 3 1.8 3l-2-1.1s-.8.8-.9 1.2c-.2 1 1.4 1.5 1.4 1.5s-1.2 1.6-1.7 1.5c-.5-.1-1.7.1-1.7.1s-.3 1-1.2.4c-.9-.5-2-2.1-2.3-4.1s1.6-6.3 2.2-7.8c2.6-6 5.8-10 8.4-13.8z"/><path class="st5" d="m458.8 321.2-5.7 3.3-23.2-13.5 5.7-3.3z"/><path class="st1" d="m453.1 343.1-23.2-13.3V311l23.2 13.5z"/><path class="st4" d="m458.8 339.1-5.7 3.4v-18l5.7-3.3z"/><path class="st5" d="m500 194-30.2-17.2v2.6l30.2 17.5z"/><path class="st1" d="m500 191.3-31-18.1-2.7 1.6 33.7 19.5z"/><g><path class="st4" d="m427 354.3-9.3 5.3V250.3l9.3-5.3z"/><path class="st5" d="m417.7 356.4-4.4-2.5V247.8l4.4 2.5z"/><path class="st1" d="m427 245-9.3 5.3-4.4-2.5 9.4-5.3z"/></g><path class="st15" d="m437.2 266.1-15.7-9.1v-3.6l15.7 9.1z"/><path class="st16" d="M445 263.9v3.1l-23.5-13.5 2.7-1.6z"/><path class="st15" d="m437.2 278.5-15.7-9.1v-3.6l15.7 9.1z"/><path class="st16" d="M445 276.3v3.2l-23.5-13.6 2.7-1.6z"/><g><path class="st4" d="m447.3 363.2-9.3 5.3V262.4l9.3-5.3z"/><path class="st5" d="m438 368.5-4.4-2.5V259.9l4.4 2.5z"/><path class="st1" d="m447.3 257.1-9.3 5.3-4.4-2.5 9.4-5.3z"/></g><g><path class="st4" d="M452.9 353.4c5.6-3.2 10.1.2 10.1 7.6 0 7.4-4.5 16-10.1 19.2-5.6 3.2-10.1-.2-10.1-7.6 0-7.4 4.5-16 10.1-19.2z"/><path class="st4" d="M466.6 356.9 453.9 385l-7.3-4.1 13-27.9z"/><path class="st5" d="M460.4 357.6c5.6-3.2 10.1.2 10.1 7.6 0 7.4-4.5 16-10.1 19.2s-10.1-.2-10.1-7.6c.1-7.3 4.6-16 10.1-19.2z"/><path class="st12" d="M460.4 360.8c4.3-2.5 7.9.2 7.9 5.9 0 5.8-3.5 12.5-7.9 15-4.3 2.5-7.9-.2-7.9-5.9.1-5.8 3.6-12.5 7.9-15z"/><path class="st4" d="M460.4 363.4c3.3-1.9 5.9.1 5.9 4.5s-2.7 9.5-5.9 11.3-5.9-.1-5.9-4.5 2.7-9.4 5.9-11.3z"/><path class="st12" d="M460.4 368.3c1.2-.7 2.3 0 2.3 1.7s-1 3.6-2.3 4.3-2.3 0-2.3-1.7c.1-1.7 1.1-3.6 2.3-4.3z"/></g><g><path class="st1" d="m500 222.4-3.9 2.2c-9.6 5.6-17.9 19.4-19.8 33.1l-6.1 94.7 5.8-3.4 5.3-89.4c1.6-12 8.9-24.1 17.3-29l1.3-.7v-7.5z"/><path class="st1" d="m476.5 351.5-4 3.5-2.2-2.6 3-5z"/><path class="st4" d="m500 226.4-.9.5c-9.6 5.6-17.9 19.4-19.8 33.1l-6 94.1v1.2l5.8-4 5.3-89.4c1.5-11.1 7.9-22.4 15.6-27.9v-7.6z"/></g><g><path class="st8" d="m411.4 353.6-2.7 1.1v-48.8l2.7-1.6z"/><path class="st16" d="m445.7 346.5-2.7 1.6-34.2-19.8 2.6-1.6z"/><path class="st1" d="m445.7 367.1-2.7 1.6-34.2-19.8 2.6-1.6z"/><path class="st15" d="m443 329-37.4-21.6v-3.6l37.4 21.6z"/><path class="st16" d="m445.7 335.2-2.7 1.5-34.2-19.7 2.6-1.6z"/><path class="st8" d="m445.7 373.2-2.7 1.5v-49.3l2.7-1.5z"/><path class="st16" d="m445.7 323.9-2.7 1.5-37.4-21.6 2.7-1.5z"/><path class="st15" d="m443 340.3-37.4-21.6v-3.6l37.4 21.6zM443 351.6 405.6 330v-3.5l37.4 21.6z"/><path class="st15" d="m408.7 354.7-3.1-1.7v-48.6l3.1 1.8zM443 374.7l-3.1-1.8V324l3.1 1.9z"/></g><path class="st13" d="m443 373.9-37.4-21.5v-5.3l37.4 21.4z"/><g><path class="st1" d="m445.7 375.5-73.6 42.4-9.3-5.4 73.7-42.4z"/><path class="st4" d="m445.7 375.5-73.6 42.4v-2.1l73.6-42.4z"/><path class="st5" d="m372.1 417.9-9.3-5.4v-2.1l9.3 5.4z"/><path class="st1" d="m445.7 373.3-73.6 42.5-9.3-5.4 73.7-42.4z"/></g><g><path class="st1" d="m414.9 357.5-73.7 42.4-9.2-5.3 73.7-42.4z"/><path class="st4" d="m414.9 357.5-73.7 42.4v-2.1l73.7-42.4z"/><path class="st5" d="m341.2 399.9-9.2-5.3v-2.1l9.2 5.3z"/><path class="st1" d="m414.9 355.4-73.7 42.4-9.2-5.3 73.7-42.4z"/></g><path class="st1" d="m499.3 224.5-2.7 1.6-57.9-33.4 2.6-1.6zM500 206.9l-43-24.8-2.7 1.5L500 210z"/><g><path class="st14" d="M442.4 189.6c4 0 7.2 1.7 7.2 3.8 0 2.1-3.2 3.8-7.2 3.8s-7.2-1.7-7.2-3.8c0-2.1 3.2-3.8 7.2-3.8z"/><path class="st14" d="M435.2 192.1h14.4v1.3h-14.4z"/><path class="st13" d="M442.4 188.4c4 0 7.2 1.7 7.2 3.8 0 2.1-3.2 3.8-7.2 3.8s-7.2-1.7-7.2-3.8c0-2.1 3.2-3.8 7.2-3.8z"/><path class="st17" d="M442.4 188.8c3.3 0 5.9 1.4 5.9 3.1 0 1.7-2.6 3.1-5.9 3.1-3.3 0-5.9-1.4-5.9-3.1 0-1.8 2.6-3.1 5.9-3.1z"/><path class="st17" d="m447.3 178.9 1 12.9h-11.8l1-12.9z"/><path class="st18" d="M442.4 176.3c2.7 0 4.9 1.1 4.9 2.6 0 1.4-2.2 2.6-4.9 2.6s-4.9-1.1-4.9-2.6 2.2-2.6 4.9-2.6z"/><path class="st17" d="M442.4 177.2c1.8 0 3.3.8 3.3 1.7 0 1-1.5 1.7-3.3 1.7-1.8 0-3.3-.8-3.3-1.7-.1-.9 1.4-1.7 3.3-1.7z"/></g><g><path class="st6" d="M443.6 385.5 389.1 417l-1.7-1.1 54.3-31.4z"/><path class="st7" d="m443.6 393.2-54.5 31.5V417l54.5-31.5z"/><path class="st8" d="m389.1 424.7-1.7-.9v-7.9l1.7 1.1z"/><path class="st6" d="m382.9 350.3-54.5 31.5-1.7-1.1 54.3-31.4z"/><path class="st7" d="m382.9 358-54.5 31.5v-7.7l54.5-31.5z"/><path class="st8" d="m328.4 389.5-1.7-.9v-7.9l1.7 1.1z"/><path class="st6" d="m412.4 367-54.6 31.5-1.7-1.1 54.4-31.4z"/><path class="st7" d="m412.4 374.8-54.6 31.5v-7.8l54.6-31.5z"/><path class="st8" d="m357.8 406.3-1.7-1v-7.9l1.7 1.1z"/><g><path class="st8" d="m389.1 417.1-62.4-36v-2.5l62.4 36z"/><path class="st6" d="m395.6 410.9-6.5 3.7-62.4-36 6.5-3.7z"/><path class="st7" d="m395.6 415.5-6.5 3.8v-4.7l6.5-3.7z"/></g><g><path class="st8" d="m401.2 409.9-62.5-36.1v-2.5l62.5 36.1z"/><path class="st6" d="m407.8 403.8-6.6 3.6-62.5-36.1 6.5-3.7z"/><path class="st7" d="m407.8 408.3-6.6 3.8v-4.7l6.6-3.6z"/></g><g><path class="st8" d="M413.7 402.9 351 366.6v-2.5l62.7 36.3z"/><path class="st6" d="m420.2 396.7-6.5 3.7-62.7-36.3 6.5-3.6z"/><path class="st7" d="m420.2 401.2-6.5 3.8v-4.6l6.5-3.7z"/></g><g><path class="st8" d="m425.9 395.7-62.6-36v-2.5l62.6 36z"/><path class="st6" d="m432.4 389.5-6.5 3.7-62.6-36 6.5-3.7z"/><path class="st7" d="m432.4 394.1-6.5 3.8v-4.7l6.5-3.7z"/></g><g><path class="st8" d="m437 389.4-62.7-36.2v-2.5l62.7 36.2z"/><path class="st6" d="m443.6 383.3-6.6 3.6-62.7-36.2 6.5-3.6z"/><path class="st7" d="m443.6 387.8-6.6 3.8v-4.7l6.6-3.6z"/></g></g><g><path class="st10" d="m411.9 363.4-27.2 15.7v-34l27.2-15.7z"/><path class="st9" d="m384.7 379.1-27.1-15.7v-34l27.1 15.7z"/><path class="st11" d="m411.9 329.4-27.2 15.7-27.1-15.7 27.1-15.7z"/><path class="st2" d="m401.8 345.1-6.1 3.6v-10l6.1-3.5z"/><path class="st1" d="m401.8 335.2-6.1 3.6-27.1-15.8 6.1-3.5z"/><path class="st2" d="m397.5 369-9.2 5.3v-1.8l9.2-5.3zM397.5 365.9l-9.2 5.2v-1.7l9.2-5.3zM410 361.9l-4.4 2.6v-6.1l4.4-2.5zM363.5 364.1l-4.3-2.5v-6.4l4.3 2.6zM369.5 367.5l-4.4-2.5v-6.3l4.4 2.5z"/><path class="st12" d="m368.2 348.4-9-5.2v-9.1l9 5.2z"/><path class="st2" d="m367.1 341.1-7.1-4v-1.5l7.1 4.1z"/></g><g><path class="st10" d="m441.6 380.3-27.2 15.8v-34l27.2-15.7z"/><path class="st9" d="m414.4 396.1-27.1-15.8v-33.9l27.1 15.7z"/><path class="st11" d="m441.6 346.4-27.2 15.7-27.1-15.7 27.1-15.7z"/><path class="st2" d="m431.5 362.1-6.1 3.5v-9.9l6.1-3.5z"/><path class="st1" d="m431.5 352.2-6.1 3.5-27.1-15.7 6.1-3.5z"/><path class="st2" d="m427.1 386-9.1 5.2v-1.7l9.1-5.3zM427.1 382.8l-9.1 5.3v-1.7l9.1-5.3zM439.7 378.9l-4.4 2.5v-6l4.4-2.6zM393.2 381.1l-4.3-2.6v-6.3l4.3 2.5zM399.2 384.5l-4.4-2.5v-6.3l4.4 2.5z"/><path class="st12" d="m397.8 365.4-8.9-5.2v-9.1l8.9 5.2z"/><path class="st2" d="m396.7 358.1-7-4.1v-1.4l7 4z"/></g><g><path class="st10" d="M383.9 380.2 356.8 396v-34l27.1-15.7z"/><path class="st9" d="m356.8 396-27.2-15.8v-33.9l27.2 15.7z"/><path class="st11" d="M383.9 346.3 356.8 362l-27.2-15.7 27.2-15.7z"/><path class="st2" d="m373.8 362-6 3.5v-9.9l6-3.5z"/><path class="st1" d="m373.8 352.1-6 3.5-27.2-15.7 6.1-3.5z"/><path class="st2" d="m369.5 385.8-9.1 5.3v-1.7l9.1-5.3zM369.5 382.7l-9.1 5.3v-1.8l9.1-5.3zM382 378.8l-4.3 2.5v-6l4.3-2.6zM335.6 380.9l-4.4-2.5v-6.3l4.4 2.5zM341.5 384.4l-4.3-2.5v-6.4l4.3 2.6z"/><path class="st12" d="m340.2 365.2-9-5.1V351l9 5.2z"/><path class="st2" d="m339.1 358-7.1-4.1v-1.4l7.1 4z"/></g><g><path class="st10" d="M413.6 397.2 386.5 413v-34l27.1-15.7z"/><path class="st9" d="m386.5 413-27.2-15.8v-33.9l27.2 15.7z"/><path class="st11" d="M413.6 363.3 386.5 379l-27.2-15.7 27.2-15.7z"/><path class="st2" d="m403.5 379-6 3.5v-9.9l6-3.5z"/><path class="st1" d="m403.5 369.1-6 3.5-27.2-15.7 6.1-3.5z"/><path class="st2" d="m399.2 402.8-9.1 5.3v-1.8l9.1-5.2zM399.2 399.7l-9.1 5.3v-1.8l9.1-5.3zM411.7 395.8l-4.3 2.5v-6.1l4.3-2.5zM365.3 397.9l-4.4-2.5v-6.3l4.4 2.5zM371.2 401.4l-4.3-2.6v-6.3l4.3 2.5z"/><path class="st12" d="m369.9 382.2-9-5.2v-9.1l9 5.2z"/><path class="st2" d="m368.8 375-7.1-4.1v-1.5l7.1 4.1z"/></g><g><path class="st10" d="m411.9 327.6-27.2 15.8v-34l27.2-15.7z"/><path class="st9" d="m384.7 343.4-27.1-15.8v-33.9l27.1 15.7z"/><path class="st11" d="m411.9 293.7-27.2 15.7-27.1-15.7 27.1-15.7z"/><path class="st2" d="m401.8 309.4-6.1 3.5V303l6.1-3.5z"/><path class="st1" d="m401.8 299.5-6.1 3.5-27.1-15.7 6.1-3.5z"/><path class="st2" d="m397.5 333.2-9.2 5.3v-1.7l9.2-5.3zM397.5 330.1l-9.2 5.3v-1.8l9.2-5.3zM410 326.2l-4.4 2.5v-6.1l4.4-2.5zM363.5 328.3l-4.3-2.5v-6.3l4.3 2.5zM369.5 331.8l-4.4-2.5v-6.4l4.4 2.6z"/><path class="st12" d="m368.2 312.6-9-5.2v-9l9 5.1z"/><path class="st2" d="m367.1 305.4-7.1-4.1v-1.4l7.1 4z"/></g><g><path class="st10" d="m441.6 344.6-27.2 15.7v-34l27.2-15.7z"/><path class="st9" d="m414.4 360.3-27.1-15.7v-34l27.1 15.7z"/><path class="st11" d="m441.6 310.6-27.2 15.7-27.1-15.7 27.1-15.7z"/><path class="st2" d="m431.5 326.4-6.1 3.5V320l6.1-3.6z"/><path class="st1" d="m431.5 316.4-6.1 3.6-27.1-15.7 6.1-3.5z"/><path class="st2" d="m427.1 350.2-9.1 5.3v-1.8l9.1-5.3zM427.1 347.1l-9.1 5.3v-1.8l9.1-5.3zM439.7 343.2l-4.4 2.5v-6.1l4.4-2.5zM393.2 345.3l-4.3-2.5v-6.3l4.3 2.5zM399.2 348.8l-4.4-2.6v-6.3l4.4 2.5z"/><path class="st12" d="m397.8 329.6-8.9-5.2v-9.1l8.9 5.2z"/><path class="st2" d="m396.7 322.4-7-4.1v-1.5l7 4.1z"/></g><g><path class="st10" d="m383.9 344.5-27.1 15.7v-34l27.1-15.7z"/><path class="st9" d="m356.8 360.2-27.2-15.7v-34l27.2 15.7z"/><path class="st11" d="m383.9 310.5-27.1 15.7-27.2-15.7 27.2-15.7z"/><path class="st2" d="m373.8 326.2-6 3.6v-10l6-3.5z"/><path class="st1" d="m373.8 316.3-6 3.6-27.2-15.7 6.1-3.6z"/><path class="st2" d="m369.5 350.1-9.1 5.3v-1.8l9.1-5.3zM369.5 347l-9.1 5.2v-1.7l9.1-5.3zM382 343l-4.3 2.6v-6.1l4.3-2.5zM335.6 345.2l-4.4-2.5v-6.3l4.4 2.5zM341.5 348.6l-4.3-2.5v-6.3l4.3 2.5z"/><path class="st12" d="m340.2 329.5-9-5.2v-9.1l9 5.2z"/><path class="st2" d="m339.1 322.3-7.1-4.1v-1.5l7.1 4.1z"/></g><g><path class="st10" d="m413.6 361.5-27.1 15.7v-34l27.1-15.7z"/><path class="st9" d="m386.5 377.2-27.2-15.7v-34l27.2 15.7z"/><path class="st11" d="m413.6 327.5-27.1 15.7-27.2-15.7 27.2-15.7z"/><path class="st2" d="m403.5 343.2-6 3.5v-9.9l6-3.5z"/><path class="st1" d="m403.5 333.3-6 3.5-27.2-15.7 6.1-3.5z"/><path class="st2" d="m399.2 367.1-9.1 5.2v-1.7l9.1-5.3zM399.2 363.9l-9.1 5.3v-1.7l9.1-5.3zM411.7 360l-4.3 2.5v-6l4.3-2.5zM365.3 362.2l-4.4-2.6v-6.3l4.4 2.5zM371.2 365.6l-4.3-2.5v-6.3l4.3 2.5z"/><path class="st12" d="m369.9 346.5-9-5.2v-9.1l9 5.2z"/><path class="st2" d="m368.8 339.2-7.1-4.1v-1.4l7.1 4.1z"/></g></g><g><path class="st6" d="m300.6 500 17.6-10.2-1.8-.9-19.3 11.1z"/><path class="st7" d="m313.5 500 4.7-2.7v-7.5L300.5 500z"/><path class="st6" d="m259.6 455.9-52.5 30.3-1.7-1 52.5-30.3z"/><path class="st7" d="m259.6 463.3-52.5 30.4v-7.5l52.5-30.3z"/><path class="st8" d="m207.1 493.7-1.7-.9v-7.6l1.7 1z"/><path class="st6" d="m239.6 500 48.5-28-1.8-.9-50.1 28.9z"/><path class="st7" d="m252.5 500 35.6-20.5V472l-48.5 28z"/><path class="st8" d="m234.6 500-29.2-16.8v2.4l25 14.4z"/><path class="st6" d="m247 500-35.3-20.4-6.3 3.6 29.2 16.8z"/><path class="st8" d="M258.3 500 217 476.1v2.4l37.1 21.5z"/><path class="st6" d="m270.7 500-47.4-27.4-6.3 3.5 41.3 23.9z"/><path class="st8" d="m282.1 500-53.2-30.8v2.4l49 28.4z"/><path class="st6" d="m294.5 500-59.4-34.3-6.2 3.5 53.2 30.8z"/><g><path class="st8" d="m301.1 499.7-60.4-34.8v-2.4l60.4 34.8z"/><path class="st6" d="m307.4 493.7-6.3 3.6-60.4-34.8 6.3-3.5z"/><path class="st7" d="m304.1 500 3.3-1.9v-4.4l-6.3 3.6v2.7z"/></g><g><path class="st8" d="m311.9 493.6-60.5-34.9v-2.4l60.5 34.9z"/><path class="st6" d="m318.2 487.7-6.3 3.5-60.5-34.9 6.3-3.5z"/><path class="st7" d="m318.2 492-6.3 3.7v-4.5l6.3-3.5z"/></g><g><path class="st10" d="m287.6 468.5-26.2 15.2v-32.8l26.2-15.2z"/><path class="st9" d="m261.4 483.7-26.2-15.2v-32.8l26.2 15.2z"/><path class="st11" d="m287.6 435.7-26.2 15.2-26.2-15.2 26.2-15.1z"/><path class="st2" d="m277.9 450.9-5.9 3.4v-9.6l5.9-3.4z"/><path class="st1" d="m277.9 441.3-5.9 3.4-26.1-15.1 5.8-3.4z"/><path class="st2" d="m273.7 473.9-8.8 5.1v-1.7l8.8-5.1zM273.7 470.9l-8.8 5.1v-1.7l8.8-5.1zM285.8 467.1l-4.2 2.4v-5.8l4.2-2.4zM241 469.2l-4.2-2.5v-6l4.2 2.4zM246.7 472.5l-4.2-2.4V464l4.2 2.4z"/><path class="st12" d="m245.4 454-8.6-5v-8.7l8.6 5z"/><path class="st2" d="m244.4 447.1-6.8-4v-1.4l6.8 3.9z"/></g><g><path class="st10" d="m290.2 500 26.1-15.1v-32.8l-26.2 15.2V500z"/><path class="st9" d="M290.1 500v-32.7l-26.2-15.2v32.8L290 500z"/><path class="st11" d="m316.3 452.1-26.2 15.2-26.2-15.2 26.2-15.1z"/><path class="st2" d="m306.5 467.3-5.8 3.4v-9.6l5.8-3.4z"/><path class="st1" d="m306.5 457.7-5.8 3.4-26.2-15.1 5.9-3.4z"/><path class="st2" d="m302.3 490.3-8.8 5.1v-1.7l8.8-5.1zM302.3 487.3l-8.8 5v-1.6l8.8-5.1zM314.4 483.5l-4.2 2.4v-5.8l4.2-2.5zM269.6 485.5l-4.2-2.4V477l4.2 2.5zM275.4 488.9l-4.2-2.5v-6l4.2 2.4z"/><path class="st12" d="m274.1 470.4-8.7-5v-8.8l8.7 5z"/><path class="st2" d="m273 463.4-6.8-3.9v-1.4l6.8 3.9z"/></g><g><path class="st10" d="m260.6 484.8-26.1 15.1-.1-32.8 26.2-15.1z"/><path class="st9" d="m234.5 499.9-26.2-15.1V452l26.1 15.1z"/><path class="st11" d="m260.6 452-26.2 15.1-26.1-15.1 26.2-15.1z"/><path class="st2" d="m250.9 467.2-5.8 3.4V461l5.8-3.4z"/><path class="st1" d="m250.9 457.6-5.8 3.4-26.2-15.1 5.8-3.4z"/><path class="st2" d="m246.7 490.2-8.8 5v-1.6l8.8-5.1zM246.7 487.2l-8.8 5v-1.7l8.8-5.1zM258.8 483.4l-4.2 2.4V480l4.2-2.5zM214 485.4l-4.2-2.4v-6.1l4.2 2.4zM219.8 488.8l-4.3-2.5v-6.1l4.3 2.5z"/><path class="st12" d="m218.5 470.3-8.7-5v-8.8l8.7 5z"/><path class="st2" d="m217.4 463.3-6.8-3.9V458l6.8 3.9z"/></g><g><path class="st10" d="M289.3 500v-31.6l-26.2 15.1V500z"/><path class="st9" d="M263.1 500v-16.5l-26.2-15.1V500z"/><path class="st11" d="m289.3 468.4-26.2 15.1-26.2-15.1 26.2-15.2z"/><path class="st2" d="m279.5 483.5-5.8 3.4v-9.5l5.8-3.4z"/><path class="st1" d="m279.5 474-5.8 3.4-26.2-15.2 5.9-3.4z"/><path class="st2" d="m287 500 .5-.3v-5.8l-4.3 2.4v3.7zM242.7 500v-4.3l-4.2-2.4v6.1l1 .6zM248.4 500v-1l-4.2-2.4v3.4z"/><path class="st12" d="m247.1 486.7-8.6-5v-8.8l8.6 5z"/><path class="st2" d="m246 479.7-6.8-3.9v-1.5l6.8 4z"/></g><g><path class="st10" d="m287.6 434-26.2 15.2v-32.8l26.2-15.1z"/><path class="st9" d="M261.4 449.2 235.2 434v-32.7l26.2 15.1z"/><path class="st11" d="m287.6 401.3-26.2 15.1-26.2-15.1 26.2-15.2z"/><path class="st2" d="m277.9 416.4-5.9 3.4v-9.6l5.9-3.3z"/><path class="st1" d="m277.9 406.9-5.9 3.4-26.1-15.2 5.8-3.4z"/><path class="st2" d="m273.7 439.4-8.8 5.1v-1.7l8.8-5.1zM273.7 436.4l-8.8 5.1v-1.7l8.8-5.1zM285.8 432.6l-4.2 2.5v-5.9l4.2-2.4zM241 434.7l-4.2-2.4v-6.1l4.2 2.4zM246.7 438l-4.2-2.4v-6.1l4.2 2.4z"/><path class="st12" d="m245.4 419.5-8.6-5v-8.7l8.6 5z"/><path class="st2" d="m244.4 412.6-6.8-4v-1.4l6.8 4z"/></g><g><path class="st10" d="m316.3 450.4-26.2 15.2v-32.8l26.2-15.2z"/><path class="st9" d="m290.1 465.6-26.2-15.2v-32.8l26.2 15.2z"/><path class="st11" d="m316.3 417.6-26.2 15.2-26.2-15.2 26.2-15.1z"/><path class="st2" d="m306.5 432.8-5.8 3.4v-9.6l5.8-3.4z"/><path class="st1" d="m306.5 423.2-5.8 3.4-26.2-15.1 5.9-3.4z"/><path class="st2" d="m302.3 455.8-8.8 5.1v-1.7l8.8-5.1zM302.3 452.8l-8.8 5.1v-1.7l8.8-5.1zM314.4 449l-4.2 2.4v-5.8l4.2-2.5zM269.6 451.1l-4.2-2.5v-6.1l4.2 2.5zM275.4 454.4l-4.2-2.4v-6.1l4.2 2.4z"/><path class="st12" d="m274.1 435.9-8.7-5v-8.7l8.7 5z"/><path class="st2" d="m273 428.9-6.8-3.9v-1.4l6.8 3.9z"/></g><g><path class="st10" d="m260.6 450.3-26.1 15.2-.1-32.8 26.2-15.2z"/><path class="st9" d="m234.5 465.5-26.2-15.2v-32.8l26.1 15.2z"/><path class="st11" d="m260.6 417.5-26.2 15.2-26.1-15.2 26.2-15.1z"/><path class="st2" d="m250.9 432.7-5.8 3.4v-9.6l5.8-3.4z"/><path class="st1" d="m250.9 423.1-5.8 3.4-26.2-15.1 5.8-3.4z"/><path class="st2" d="m246.7 455.7-8.8 5.1v-1.7l8.8-5.1zM246.7 452.7l-8.8 5v-1.6l8.8-5.1zM258.8 448.9l-4.2 2.4v-5.8l4.2-2.5zM214 450.9l-4.2-2.4v-6.1l4.2 2.5zM219.8 454.3l-4.3-2.5v-6l4.3 2.4z"/><path class="st12" d="m218.5 435.8-8.7-5V422l8.7 5z"/><path class="st2" d="m217.4 428.8-6.8-3.9v-1.4l6.8 3.9z"/></g><g><path class="st10" d="m289.3 466.6-26.2 15.2V449l26.2-15.1z"/><path class="st9" d="m263.1 481.8-26.2-15.2v-32.7l26.2 15.1z"/><path class="st11" d="M289.3 433.9 263.1 449l-26.2-15.1 26.2-15.1z"/><path class="st2" d="m279.5 449.1-5.8 3.4v-9.6l5.8-3.4z"/><path class="st1" d="m279.5 439.5-5.8 3.4-26.2-15.1 5.9-3.4z"/><path class="st2" d="m275.4 472.1-8.8 5v-1.7l8.8-5.1zM275.4 469l-8.8 5.1v-1.7l8.8-5.1zM287.5 465.3l-4.3 2.4v-5.9l4.3-2.4zM242.7 467.3l-4.2-2.4v-6.1l4.2 2.4zM248.4 470.7l-4.2-2.5v-6.1l4.2 2.5z"/><path class="st12" d="m247.1 452.2-8.6-5v-8.8l8.6 5z"/><path class="st2" d="m246 445.2-6.8-3.9v-1.4l6.8 3.9z"/></g><g><path class="st10" d="m287.6 399.5-26.2 15.2v-32.8l26.2-15.1z"/><path class="st9" d="m261.4 414.7-26.2-15.2v-32.7l26.2 15.1z"/><path class="st11" d="m287.6 366.8-26.2 15.1-26.2-15.1 26.2-15.2z"/><path class="st2" d="m277.9 381.9-5.9 3.4v-9.5l5.9-3.4z"/><path class="st1" d="m277.9 372.4-5.9 3.4-26.1-15.2 5.8-3.4z"/><path class="st2" d="m273.7 404.9-8.8 5.1v-1.7l8.8-5.1zM273.7 401.9l-8.8 5.1v-1.7l8.8-5.1zM285.8 398.1l-4.2 2.5v-5.9l4.2-2.4zM241 400.2l-4.2-2.4v-6.1l4.2 2.4zM246.7 403.5l-4.2-2.4V395l4.2 2.4z"/><path class="st12" d="m245.4 385.1-8.6-5v-8.8l8.6 5z"/><path class="st2" d="m244.4 378.1-6.8-3.9v-1.5l6.8 4z"/></g><g><path class="st10" d="m316.3 415.9-26.2 15.2v-32.8l26.2-15.2z"/><path class="st9" d="m290.1 431.1-26.2-15.2v-32.8l26.2 15.2z"/><path class="st11" d="m316.3 383.1-26.2 15.2-26.2-15.2 26.2-15.1z"/><path class="st2" d="m306.5 398.3-5.8 3.4v-9.6l5.8-3.4z"/><path class="st1" d="m306.5 388.7-5.8 3.5-26.2-15.2 5.9-3.4z"/><path class="st2" d="m302.3 421.3-8.8 5.1v-1.7l8.8-5.1zM302.3 418.3l-8.8 5.1v-1.7l8.8-5.1zM314.4 414.5l-4.2 2.4v-5.8l4.2-2.4zM269.6 416.6l-4.2-2.4v-6.1l4.2 2.4zM275.4 419.9l-4.2-2.4v-6.1l4.2 2.4z"/><path class="st12" d="m274.1 401.4-8.7-5v-8.7l8.7 5z"/><path class="st2" d="m273 394.5-6.8-4v-1.4l6.8 3.9z"/></g><g><path class="st10" d="M260.6 415.8 234.5 431l-.1-32.8 26.2-15.2z"/><path class="st9" d="m234.5 431-26.2-15.2V383l26.1 15.2z"/><path class="st11" d="m260.6 383-26.2 15.2-26.1-15.2 26.2-15.1z"/><path class="st2" d="m250.9 398.2-5.8 3.4V392l5.8-3.4z"/><path class="st1" d="m250.9 388.6-5.8 3.4-26.2-15.1 5.8-3.4z"/><path class="st2" d="m246.7 421.2-8.8 5.1v-1.7l8.8-5.1zM246.7 418.2l-8.8 5.1v-1.7l8.8-5.1zM258.8 414.4l-4.2 2.4V411l4.2-2.4zM214 416.5l-4.2-2.5v-6.1l4.2 2.5zM219.8 419.8l-4.3-2.4v-6.1l4.3 2.4z"/><path class="st12" d="m218.5 401.3-8.7-5v-8.7l8.7 5z"/><path class="st2" d="m217.4 394.4-6.8-4V389l6.8 3.9z"/></g><g><path class="st10" d="m289.3 432.2-26.2 15.1v-32.7l26.2-15.2z"/><path class="st9" d="m263.1 447.3-26.2-15.1v-32.8l26.2 15.2z"/><path class="st11" d="m289.3 399.4-26.2 15.2-26.2-15.2 26.2-15.1z"/><path class="st2" d="m279.5 414.6-5.8 3.4v-9.6l5.8-3.4z"/><path class="st1" d="m279.5 405-5.8 3.4-26.2-15.1 5.9-3.4z"/><path class="st2" d="m275.4 437.6-8.8 5.1V441l8.8-5.1zM275.4 434.6l-8.8 5V438l8.8-5.2zM287.5 430.8l-4.3 2.4v-5.8l4.3-2.5zM242.7 432.8l-4.2-2.4v-6.1l4.2 2.4zM248.4 436.2l-4.2-2.5v-6.1l4.2 2.5z"/><path class="st12" d="m247.1 417.7-8.6-5v-8.8l8.6 5z"/><path class="st2" d="m246 410.7-6.8-3.9v-1.4l6.8 3.9z"/></g></g></svg>