<svg version="1.1" id="Layer_1" xmlns="http://www.w3.org/2000/svg" x="0" y="0" viewBox="0 0 500 500" style="enable-background:new 0 0 500 500" xml:space="preserve"><style>.st2{fill:#25292c}.st5{fill:#fff}.st8{fill:none}.st12{fill:#404040}.st15{fill:#4874ef}.st16{fill:#798ff0}.st23{fill:#e38b69}.st29{fill:#904432}</style><path d="M92 460.1c18.8 15.4 40.5 28.7 64.4 39.9h343.9V70.1C421 52.3 339.6 38.9 255.8 42.6c-22.2 1-45.2 3.3-64.4 11.6-19.2 8.2-33.6 23.8-29.9 38.8 3 12.4 16.9 26.1 5 36.1-3.4 2.8-8.3 4.6-13.2 6.1-24.9 7.8-51.9 12.2-75.4 22-36.3 15.2-60.3 42.2-70.6 70.4-10.4 28.1-8.3 57.5-2.4 85.8 11.3 53.4 37.4 106 87.1 146.7z" style="opacity:.15;fill:#1acae0;enable-background:new"/><path d="M495.1 78.9C493.5 65 483.5 53.2 469.6 50c-8-1.9-17.5-2.2-28.4-1.1 0 0-179.9 20.2-228.1 26.6-2.4.3-4.4.6-6.1.9-44.4 6.1-51 20.8-51 37.6l.3 41.6.8 99.7c-.2 19.2 17.5 34.6 41.7 34.7h64.4l4 2.9c5.8 7.1 10.5 15.9 29.7 15.5 15.5-.4 21.6 0 25.6-.1 4 0 11-.1 21.8-8.2 10.7-8 21.3-13.5 21.3-13.5 8.7-.7 26.5-1.6 61.4-2.7 31.3-1.2 49-9.9 58.8-20.1 6.2-6.4 9.6-15.2 9.6-24.2V83c0-1.4-.1-2.7-.3-4.1z" style="opacity:.2;fill:#25292c;enable-background:new"/><path class="st2" d="M484.7 79.7c-1.6-13.4-11.2-24.7-24.6-27.9-7.7-1.8-16.9-2.1-27.3-1.1 0 0-173.1 19.5-219.5 25.6-2.3.3-4.2.6-5.9.8-42.7 6-49 20.1-49 36.3l.3 40 .7 95.9c-.2 18.4 16.9 33.3 40.2 33.4h61.9l3.9 2.8c5.5 6.8 10.1 15.3 28.6 14.9 14.9-.4 20.8 0 24.7-.1 3.9 0 10.6-.1 21-7.9 10.3-7.7 20.5-13 20.5-13 8.4-.6 25.5-1.6 59.1-2.6 30.2-1.1 47.2-9.5 56.6-19.3 6-6.2 9.2-14.6 9.2-23.3V83.5c-.2-1.3-.2-2.5-.4-3.8z"/><path d="M262.2 280.4c5.5 6.7 9.9 15.1 28.1 14.6 14.7-.4 20.4 0 24.3-.1 3.8 0 10.5-.1 20.7-7.8 10.1-7.6 20.2-12.8 20.2-12.8l-93.3 6.1z" style="fill:#98191d"/><path class="st2" d="M478.3 81.7V230c0 8.5-3.2 16.8-9.1 22.9-9.3 9.6-26 17.9-55.7 19-55.9 1.6-65.4 3.2-65.4 3.2L332 286.4c-5 3.5-10.7 5.4-16.3 5.5l-27.8.5c-5.8.2-11.2-1.5-15.5-4.5l-14-10.2h-61c-22.9-.1-39.7-14.7-39.5-32.9l-.6-94.4-.3-39.4c0-16 6.2-29.8 48.2-35.7 1.6-.2 3.6-.5 5.8-.8 45.7-6 215.9-25.2 215.9-25.2 10.3-1 19.3-.7 26.9 1 13.2 3.1 22.6 14.2 24.2 27.4.2 1.4.3 2.6.3 4z"/><path d="m271.9 277.3 63-1.5-2.7 4.1c-3.7 5.6-9.6 9-15.3 9.1l-32.4-.2c-5.5 0-9.9-3.4-11.5-8.8l-1.1-2.7z" style="fill:#111614"/><path class="st5" d="M311 283.1v2.1h-1.3v-5.5h2.3c.8.1 1.3.5 1.4 1.2.2.8 0 1.8-.9 2.3.4.7.8 1.3 1.1 2 0-.1 0-.1.1-.2.5-1.7 1.1-3.4 1.7-5.1 0-.1.1-.2.3-.3h1.3c.1 0 .1 0 .2.1.5 1.8 1.1 3.5 1.6 5.3v.1h-1.3c-.1 0-.1 0-.2-.1-.1-.3-.1-.5-.3-.8 0-.1-.1-.1-.2-.1h-1.4c-.1 0-.1 0-.2.2-.1.3-.1.5-.2.8 0 .1 0 .1-.2.2-.9 0-1.8 0-2.6.1-.1 0-.2 0-.2-.2-.3-.8-.6-1.5-1-2.1zm.1-.9c.2 0 .5 0 .7-.1.4 0 .6-.4.6-.7 0-.4-.2-.7-.5-.8h-.7c-.1.6-.1 1.1-.1 1.6zm5.7.6c-.2-.6-.3-1.2-.5-1.8-.2.6-.4 1.2-.5 1.8h1zM305.3 285.2v-5.5h.1c.9 0 1.7-.1 2.5 0 .9.1 1.5 1 1.1 1.9-.2.4-.4.7-.8.8h.1c.5.1.8.5.9 1.2 0 .6-.2 1.3-.8 1.4-.2.1-.5.1-.8.2-.7.1-1.4.1-2.3 0 .1.1.1.1 0 0zm1.4-1h.7c.4 0 .5-.3.5-.6 0-.4-.1-.6-.5-.6h-.8v.1c.1.4.1.8.1 1.1zm0-2.2c.3 0 .5-.1.8-.1.3 0 .4-.3.4-.5 0-.3-.1-.5-.4-.6-.2 0-.5-.1-.8-.1v1.3zM293.6 284.4h-.8v-2c0-.1 0-.2-.1-.3-.2-.2-.4-.5-.6-.7v2.9h-.7v-3.7h-.7V283.9c0 .1.1.2.1.3s.1 0 .1 0c.6.6.6.6.5 1.6h-.1l-1.2-1.2c-.1-.1-.2-.3-.1-.4 0-1.3 0-2.6.1-3.9 0-.1 0-.3-.1-.3l-1.8-1.8c.2-.1.4-.3.6-.4.1 0 .1 0 .2.1.6.5 1.1 1.2 1.7 1.8.1 0 .1.1.1.2 0 0 .1 0 0-.1v-2.4c.4-.1.9.3 1.1.8.2.7-.1 1.2-.8 1.7h.8c.2.2.4.5.7.7h-1v.1c.3.3.4.5.7.7 0 .1.1 0 .1 0h.8c.1 0 .1 0 .2.1l.6.6v.1h-1c.2.2.4.4.5.6.2.1.2.3.2.5-.2.4-.1.8-.1 1.1zM303 281.9h1.7v1.1h-1.8v1.1h1.8v1.1c-1 0-2 .1-3 .1v-5.5c1 0 2-.1 3-.1v1.1H303v1.1zM299 284.3c.7 0 1.3 0 2-.1-.2.4-.3.7-.5 1.1 0 0 0 .1-.1.1h-3.3c.8-1.5 1.5-3 2.3-4.5-.6 0-1.3 0-2 .1.2-.4.3-.7.5-1.1 0 0 0-.1.1-.1h3.3c-.7 1.5-1.5 3-2.3 4.5z"/><path class="st5" d="M288.4 282v-.9c0-.1 0-.1-.1-.2l-1.2-1.2c-.1 0-.1-.2 0-.3.1-.2.2-.3.4-.5.2.2.4.5.6.6l1 1c.1 0 .1.1.1.2v3.2c-.1-.1-.1-.2-.2-.3-.7-.7-1.4-1.4-2-2.1-.2-.2-.3-.4-.2-.7 0-.1.1-.4.1-.6.5.8 1 1.3 1.5 1.8zM291.3 288.4l-1.4-1.4c-1.1-1.1-2.1-2.2-3.2-3.3-.1 0-.1-.2-.1-.3v-.9c.1 0 .1.1.2.1 1.4 1.5 2.9 3 4.3 4.5.1.1.2.2.1.3 0 .4.1.6.1 1zM293.6 284.4h.7v-.9h.7c.1 0 .1 0 .2.1.3.3.4.5.7.7.2.1.2.3.1.4-.1.6-.6 1.1-1.3 1-.5-.1-1-.6-1.1-1.3 0 .1 0 0 0 0z"/><linearGradient id="SVGID_1_" gradientUnits="userSpaceOnUse" x1="317.629" y1="2753.091" x2="317.629" y2="2651.474" gradientTransform="translate(0 -2622)"><stop offset="0" style="stop-color:#1a1a1a;stop-opacity:0"/><stop offset="1" style="stop-color:#878787;stop-opacity:.8"/></linearGradient><path d="M478.3 82.6v35.7l-321 32.2-.3-39.5c0-16 6.2-29.8 48.2-35.7 1.6-.2 3.6-.5 5.8-.8 45.7-6 215.9-25.2 215.9-25.2 10.3-1 19.3-.7 26.9 1 13.2 3.1 22.6 14.2 24.2 27.4.2 1.7.3 3.3.3 4.9z" style="fill:url(#SVGID_1_)"/><linearGradient id="SVGID_2_" gradientUnits="userSpaceOnUse" x1="173.303" y1="2786.085" x2="451.274" y2="2786.085" gradientTransform="translate(0 -2622)"><stop offset="0" style="stop-color:#000;stop-opacity:.8"/><stop offset="1" style="stop-color:#2b2b2b"/></linearGradient><path d="m173.9 250.8-.6-144.4c.1-1.7.8-7.3 5.1-12.9 6-7.8 14.1-8.8 15.1-8.9 77.4-8 150.6-16.1 228.3-24.7 27.9-3 27.9 13.5 27.9 31.3-.9 47.3 2.6 94.9 1.4 142.5 0 .9 1 12.3-9.1 21.1-8.7 7.6-18.8 7.5-20.2 7.4-76.4 2.7-152.3 4.8-227.5 6.3-2.4-.1-8.6-.6-13.7-5-5.4-4.5-6.4-10.4-6.7-12.7z" style="fill:url(#SVGID_2_)"/><path class="st5" d="m191.4 244.3-.7-140.7 234.3-25v156.8z"/><g><path class="st8" d="m191.4 244.3-.7-140.7 234.3-25v156.8z"/><path d="M165 150.3c2.9-.6 4.8-3.1 4.8-6.1l.1-25.5c.1-9-3.4-11.1-5.6-10.7-2.8.5-4.8 4.6-4.7 7.7l.4 26.3c-.2 4.5 1.1 9.1 5 8.3z" style="fill:#16151a"/><path d="M166.5 112.8c1.7-.6 3.2.7 3.4 2.9.2 2.2-1 4.5-2.7 5-1.7.6-3.2-.7-3.4-2.9-.2-2.2.9-4.5 2.7-5z" style="fill:#2c3033"/><path d="M463.6 78.5c5-.7 9.1 2.7 9.1 7.7l.1 29.5c0 4.7-3.7 8.9-8.6 9.6-4.9.6-8.9-2.7-9-7.5l-.2-29.6c.1-4.8 3.9-9 8.6-9.7z" style="fill:none;stroke:#1b1f22;stroke-width:1.5853;stroke-miterlimit:10"/><path class="st12" d="m449.5 91.2 2.4 138.1-.1 5.8c-.1 1.9 0 3.9-.4 5.9-.4 2-1 4.1-2 6-1 1.9-2.4 3.8-3.9 5.4-1.5 1.7-3.2 3.1-5 4.5-1.8 1.4-3.9 2.6-6 3.4-4.2 1.8-8.7 2.7-13 2.7h.1l-52.6 1.9-52.3 1.5-52 1.1-51.7.6 51.8-1.5 52.1-1.6 52.4-1.8 52.7-2h.1c3.9.1 8.2-.8 12.1-2.4 2-.9 3.8-1.9 5.6-3.2 1.8-1.3 3.2-2.7 4.8-4.3 1.4-1.6 2.7-3.2 3.6-5 1-1.8 1.6-3.6 1.8-5.5s.4-3.8.3-5.7l.2-5.8-1-138.1z"/><path class="st12" d="m214.6 268.6-12.6.7-6.3.3-1.6.1c-.6 0-1.1 0-1.6-.1-1.1-.1-2.1-.2-3-.4-4-.7-7.6-2.4-10.4-5-2.9-2.6-4.6-6.2-5.2-10.2-.4-1.9-.5-4-.6-6.1V241.6l-.1-12.3v-24.6l.1-98.6.8 98.4.3 24.5.1 12.3v3.1c0 1 .2 2 .2 3 .2 2 .5 3.9.9 5.7s1 3.6 1.9 5.1c.9 1.5 1.8 3.1 3.2 4.2 2.5 2.6 5.8 4.4 9.6 5.1 1 .2 1.9.4 2.9.5.5.1 1 .1 1.5.1h1.6l6.2-.1 12.5-.1-.4.7z"/><linearGradient id="SVGID_3_" gradientUnits="userSpaceOnUse" x1="182.95" y1="2893.129" x2="182.95" y2="2738.772" gradientTransform="translate(0 -2622)"><stop offset="0" style="stop-color:#1a1a1a;stop-opacity:0"/><stop offset=".492" style="stop-color:#878787;stop-opacity:.8"/><stop offset="1" style="stop-color:#1a1a1a;stop-opacity:0"/></linearGradient><path d="M194.6 271.1c-8.2 0-14.1-1.9-18-5.8-5.6-5.5-6.1-13.9-6.1-22V116.8h2.8v126.5c0 7.5.4 15.2 5.3 20.1 3.6 3.5 9.1 5.1 16.9 5v2.8c-.3-.1-.6-.1-.9-.1z" style="fill:url(#SVGID_3_)"/><g><linearGradient id="SVGID_4_" gradientUnits="userSpaceOnUse" x1="174.565" y1="2697.199" x2="452.624" y2="2697.199" gradientTransform="translate(0 -2622)"><stop offset="0" style="stop-color:#1a1a1a;stop-opacity:0"/><stop offset=".492" style="stop-color:#878787;stop-opacity:.8"/><stop offset="1" style="stop-color:#1a1a1a;stop-opacity:0"/></linearGradient><path d="m176.9 95.9-2.3-1.5.5-.8c3.8-5.8 6.9-10.4 18.8-12 11.7-1.6 228.7-26.5 230.9-26.7 3.9-.5 13.9-.9 20.9 4.9 4.1 3.4 6.5 8.3 6.9 14.7l-2.8.2c-.4-5.5-2.4-9.8-6-12.7-6.2-5.1-15.2-4.7-18.8-4.3-2.2.3-219.2 25.2-230.8 26.7-10.6 1.4-13.1 5.1-16.8 10.8l-.5.7z" style="fill:url(#SVGID_4_)"/></g></g><g><path class="st5" d="m423.5 75.4-228.9 24.7c-2.5.2-4.6 2.5-4.6 5v137.5c0 2.5 2.1 4.5 4.6 4.4l228.9-10c2.5-.1 4.6-2.5 4.6-5.3V79.9c-.1-2.8-2.1-4.8-4.6-4.5z"/><path class="st15" d="m423.5 75.4-229 24.7c-2.5.2-4.6 2.5-4.6 5v13.4L428 94.7V79.9c0-2.8-2-4.8-4.5-4.5z"/><path class="st5" d="M199 111.2h-.1l-2.5-2.3c-.1-.1-.1-.2-.1-.4s0-.3.1-.4l2.5-2.7c.1-.1.2-.1.3 0 .1.1.1.2 0 .3l-2.5 2.7v.1l2.5 2.3c.1.1.1.2 0 .3l-.2.1z"/><path class="st16" d="m419.5 104.1-24.7 2.6c-1.8.2-3.2 1.9-3.2 3.9v6.6c0 1.9 1.4 3.4 3.2 3.2l24.7-2.5c1.8-.2 3.2-1.9 3.2-3.9v-6.7c.1-1.9-1.4-3.3-3.2-3.2z"/><path class="st5" d="m395.9 111.2 1.9-.2v.5l-1.5.1v1.3l1.4-.1v.4l-1.4.1v1.8h-.5v-3.9zM398.9 111.2c0 .2-.1.3-.3.4-.2 0-.3-.1-.3-.3s.1-.3.3-.4c.2 0 .3.1.3.3zm-.6 3.7v-2.8h.5v2.8h-.5zM399.6 110.6h.5v4.2h-.5v-4.2zM401.5 110.9v.8l.7-.1v.4l-.7.1v1.5c0 .4.1.5.4.5h.3v.4c-.1 0-.2.1-.4.1s-.4 0-.5-.2c-.1-.1-.2-.4-.2-.7v-1.5h-.4v-.5h.4v-.7l.4-.1zM402.9 113.1c0 .7.4.9.9.9.4 0 .5-.1.7-.2l.1.4c-.2.1-.5.2-.9.3-.8.1-1.3-.5-1.3-1.3 0-.9.5-1.6 1.2-1.7.9-.1 1.1.7 1.1 1.2v.2l-1.8.2zm1.4-.5c0-.3-.1-.8-.7-.8-.5 0-.7.5-.7.9l1.4-.1zM405.3 112.2v-.9h.4v.5c.1-.4.4-.7.7-.7h.1v.5h-.2c-.3 0-.6.3-.6.7v1.7h-.5l.1-1.8z"/><g><path class="st5" d="M415.5 114.7c-.1 0-.2-.1-.2-.2v-6.2c0-.1.1-.2.2-.2s.2.1.2.2v6.2c0 .1-.1.2-.2.2zM413.4 115c-.1 0-.2-.1-.2-.2v-6.2c0-.1.1-.2.2-.2s.2.1.2.2v6.2c-.1 0-.2.2-.2.2zM417.7 114.5c-.1 0-.2-.1-.2-.2v-6.2c0-.1.1-.2.2-.2s.2.1.2.2v6.2c0 .1-.1.2-.2.2z"/><path class="st5" d="M416.2 111.3c0 .5-.3.8-.7.9-.4 0-.7-.3-.7-.7 0-.5.3-.8.7-.9.4 0 .7.3.7.7zM418.4 109.2c0 .5-.3.8-.7.9s-.7-.3-.7-.7c0-.5.3-.8.7-.9.4-.1.7.2.7.7zM414 113c0 .5-.3.8-.7.9-.4 0-.7-.3-.7-.7 0-.5.3-.8.7-.9.4-.1.7.2.7.7z"/></g><g><path class="st16" d="m233.4 122.5-35.9 3.2c-1 .1-1.8.9-1.8 2v5.5c0 1 .8 1.8 1.8 1.7l35.9-3c1-.1 1.8-1 1.8-2v-5.6c0-1.2-.8-1.9-1.8-1.8z"/><path class="st5" d="m199.7 130.8 1.4-.1v.3l-1.8.1V128h.4v2.8zM201.5 129.8c0-.2 0-.5.1-.6.1-.2.2-.3.4-.5.1-.1.3-.2.5-.2.3 0 .5 0 .8.3.2.2.3.5.3.9 0 .2 0 .4-.1.6-.1.2-.2.3-.4.5-.2.1-.4.2-.5.2-.3 0-.5 0-.8-.3-.2-.2-.3-.5-.3-.9zm.3 0c0 .3 0 .5.2.6.1.1.3.2.5.2s.4-.1.5-.3c.1-.2.2-.4.2-.7s0-.5-.2-.6c-.1-.1-.3-.2-.5-.2s-.4.1-.5.3c-.1.2-.2.5-.2.7zM205.1 128.8h-.2c-.3 0-.5.1-.5.4v1.6h-.4v-2.3h.4v.3c.1-.2.3-.3.5-.4h.2v.4zM206.4 130.6c-.3 0-.5 0-.8-.2-.2-.2-.3-.5-.3-.8v-.1c0-.2 0-.5.1-.6.1-.2.2-.3.4-.5.1-.1.3-.2.5-.2.3 0 .5 0 .7.2.2.2.2.5.2.8v.2l-1.5.1c0 .2.1.4.2.5.1.1.3.2.5.2.1 0 .3 0 .4-.1.1 0 .2-.1.3-.2l.2.2c-.2.3-.5.5-.9.5zm-.1-2c-.2 0-.3.1-.4.2-.1.1-.2.3-.2.5l1.1-.1c0-.2 0-.4-.2-.5.1-.1-.1-.2-.3-.1zM208.1 128.1v.3c.2-.2.4-.3.7-.4.3 0 .5.1.6.3l.3-.3c.1-.1.3-.1.5-.1.5 0 .8.2.8.7v1.5h-.4v-1.5c0-.2 0-.3-.1-.4-.1-.1-.2-.1-.4-.1-.1 0-.3 0-.4.2-.1.1-.1.2-.2.4v1.5h-.4v-1.5c0-.3-.2-.5-.5-.5s-.5.1-.5.4v1.7h-.4V128l.4.1zM212.6 127.1v-.2s.1-.1.2-.1h.2V127.1s-.1.1-.2.1h-.2v-.1zm.4 2.9h-.4v-2.3h.4v2.3zM215.6 128.7c0 .4-.1.6-.2.9-.2.2-.4.4-.6.4-.3 0-.5 0-.7-.2v1.1h-.4v-3.2h.4v.3c.2-.2.4-.3.7-.4.3 0 .5 0 .6.3.1.1.2.4.2.8zm-.4 0c0-.3 0-.5-.2-.6-.1-.1-.3-.2-.5-.2s-.4.1-.5.4v1.1c.1.2.3.3.5.3s.3-.1.5-.3c.1-.2.2-.5.2-.7zM217.4 129c0-.1 0-.2-.1-.2s-.2-.1-.4-.1-.4 0-.5-.1c-.1 0-.2-.1-.3-.2 0-.1-.1-.2-.1-.3 0-.2.1-.4.2-.5l.6-.3c.3 0 .5 0 .6.1.2.1.2.3.2.5h-.4c0-.1 0-.2-.1-.3-.1-.1-.2-.1-.4-.1s-.3 0-.3.1-.1.1-.1.3c0 .1 0 .2.1.2s.2.1.4.1.4 0 .5.1c.1 0 .2.1.3.2 0 .1.1.2.1.3 0 .2-.1.4-.2.5-.2.1-.4.2-.6.2h-.5c-.1 0-.3-.1-.3-.2-.1-.1-.1-.2-.1-.4h.4c0 .1 0 .2.1.3.1.1.2.1.4.1.1 0 .3 0 .4-.1 0 0 .1-.1.1-.2zM219.7 129.2c-.1.2-.4.3-.7.3-.2 0-.5 0-.5-.2-.1-.1-.2-.4-.2-.6v-1.5h.4v1.5c0 .4.1.5.4.5.3 0 .5-.1.6-.4v-1.6h.4v2.3h-.4v-.3zM221 127v.3c.2-.2.4-.3.7-.4.3 0 .5.1.6.3l.3-.3c.1-.1.3-.1.5-.1.5 0 .8.2.8.7v1.5h-.4v-1.5c0-.2 0-.3-.1-.4-.1-.1-.2-.1-.4-.1-.1 0-.3 0-.4.2-.1.1-.1.2-.2.4v1.5h-.4v-1.5c0-.3-.2-.5-.5-.5s-.5.1-.5.4v1.7h-.4v-2.3l.4.1z"/></g><g><path class="st5" d="m276.8 100.9-3 .3v2.3l3.5-.4v1l-4.8.5V97l4.8-.5v1.1l-3.5.4v2.1l3-.3v1.1zM280.9 102.2l1.8-6.2 1.4-.1-2.7 7.9-1.2.1-2.6-7.3 1.4-.1 1.9 5.7zM289.3 99.6l-3 .3v2.3l3.5-.4v1.1l-4.8.5v-7.6l4.8-.5v1.1l-3.5.4V99l3-.3v.9zM296.6 102.3l-1.3.1-3.3-5.1v5.5l-1.3.1v-7.7l1.3-.1 3.3 5.1v-5.5l1.3-.1v7.7zM303.3 95l-2.3.2v6.6l-1.3.1v-6.6l-2.3.2v-1.1l5.8-.6.1 1.2zM309.9 97.3c0 .8-.1 1.4-.4 2-.3.6-.6 1.1-1.1 1.4-.5.4-1 .5-1.6.6-.6 0-1.1 0-1.6-.3s-.8-.7-1.1-1.2c-.3-.5-.4-1.2-.4-1.9v-.5c0-.8.1-1.4.4-2 .3-.6.6-1.1 1.1-1.4s1-.5 1.6-.6c.6 0 1.1 0 1.6.3s.8.6 1.1 1.2c.3.5.4 1.2.4 1.9v.5zm-1.2-.3c0-.9-.1-1.5-.5-1.9-.3-.4-.7-.6-1.3-.5-.5 0-1 .3-1.3.8s-.5 1.1-.5 2v.5c0 .9.1 1.5.5 1.9.3.5.8.6 1.3.5.6 0 1-.3 1.3-.8s.5-1.2.5-2V97zM317.9 98.3l-2.8.3-.6 1.8-1.3.1 2.7-8 1.1-.1 2.8 7.4-1.4.1-.5-1.6zm-2.5-.8 2.1-.2-1.1-3.1-1 3.3zM326.4 99.2l-1.3.1-3.3-5.2v5.5l-1.3.1v-7.8l1.3-.1 3.3 5.2v-5.5l1.3-.1v7.8zM333.3 90.7v5.2c0 .8-.3 1.5-.8 2s-1.2.9-2 .9c-.9.1-1.5-.1-2-.5s-.7-1-.7-1.9v-5.2l1.3-.1v5.2c0 .5.1.9.4 1.2.3.3.6.4 1.1.3 1-.1 1.5-.7 1.5-1.8v-5.2l1.2-.1zM338.7 96.1l-2.8.3-.6 1.9-1.3.1 2.7-8.1 1.1-.1 2.8 7.5-1.3.1-.6-1.7zm-2.5-.8 2.1-.2-1.1-3.1-1 3.3zM342.7 96.4l3.3-.4v1.1l-4.6.5v-7.8l1.3-.1v6.7z"/></g><g><path class="st15" d="m294.7 220.3-2.8.1-.6 1.8H290l2.7-7.6h1.1l2.7 7.3h-1.3l-.5-1.6zm-2.4-1 2.1-.1-1-3.1-1.1 3.2zM302.8 219.2c-.1.8-.4 1.4-.9 1.9s-1.1.7-2 .8c-.6 0-1.1-.1-1.5-.4-.5-.3-.8-.6-1-1.2-.2-.5-.4-1.1-.4-1.8v-.7c0-.7.1-1.4.4-1.9.2-.5.6-1 1-1.3.5-.3.9-.5 1.5-.5.8 0 1.4.1 1.9.6.5.4.8 1 .9 1.8h-1.3c0-.5-.2-.9-.5-1.1s-.6-.3-1.1-.3c-.5 0-.9.3-1.3.7-.3.5-.5 1-.5 1.8v.7c0 .8.1 1.4.4 1.8.3.4.7.6 1.2.6s.9-.2 1.1-.4.4-.6.5-1.2l1.6.1zM309.3 218.8c-.1.8-.4 1.4-.9 1.9s-1.1.7-2 .8c-.6 0-1.1-.1-1.5-.4-.5-.3-.8-.6-1-1.2-.2-.5-.4-1.1-.4-1.8v-.7c0-.7.1-1.4.4-1.9s.6-1 1-1.3c.5-.3.9-.5 1.5-.5.8 0 1.4.1 1.9.6.5.4.8 1 .9 1.8l-1.3.1c0-.5-.2-.9-.5-1.1-.2-.2-.6-.3-1.1-.3-.5 0-.9.3-1.3.7-.3.5-.5 1-.5 1.8v.7c0 .8.1 1.4.4 1.8.3.4.7.6 1.2.6s.9-.2 1.1-.4c.2-.2.4-.6.5-1.2h1.6zM314.6 217.6l-2.9.2v2.3l3.4-.2v1l-4.7.2v-7.5l4.6-.3v1l-3.4.2v2.1l2.9-.2.1 1.2zM319.9 218.7c0-.3-.1-.6-.3-.8-.2-.2-.6-.3-1.2-.5-.6-.1-1-.3-1.4-.5-.6-.4-1-.9-1-1.6 0-.6.2-1.1.7-1.5.5-.4 1.1-.6 1.8-.7.5 0 .9 0 1.4.2.4.2.7.5.9.8.2.4.3.7.3 1.2l-1.3.1c0-.4-.1-.7-.4-.9-.2-.2-.6-.3-1-.3s-.7.1-.9.3c-.2.2-.3.5-.3.8 0 .3.1.5.4.7.2.2.6.3 1.2.5.5.1 1 .3 1.4.5.3.2.6.5.7.7.1.3.2.6.2 1 0 .6-.2 1.1-.7 1.5-.5.4-1.1.6-1.8.7-.5 0-1 0-1.4-.2-.5-.2-.8-.5-1-.8-.2-.4-.4-.8-.4-1.2h1.3c0 .5.1.8.4 1 .3.2.7.3 1.2.3s.8-.1 1-.3c.1-.4.2-.6.2-1zM327.9 216.7c0 .8-.1 1.4-.4 2-.2.6-.6 1-1 1.4-.5.3-1 .5-1.6.5-.6 0-1.1-.1-1.5-.4-.5-.3-.8-.7-1-1.2s-.4-1.2-.4-1.9v-.4c0-.7.1-1.4.4-2s.6-1 1-1.4c.5-.3.9-.5 1.5-.5s1.1.1 1.5.4c.5.3.8.7 1 1.2.2.5.4 1.2.4 1.9l.1.4zm-1.2-.4c0-.9-.1-1.5-.5-1.9-.3-.5-.7-.6-1.3-.6-.5 0-.9.3-1.3.7-.3.5-.5 1.1-.5 1.9v.5c0 .8.1 1.5.5 1.9.3.5.7.6 1.3.6.5 0 1-.3 1.3-.7.3-.5.5-1.1.5-2v-.4z"/></g><g><path class="st15" d="M319.9 162.4v5.6c0 .2 0 .5.2.7 1.5 2.7 2.1 5.7 1.6 8.9-.5 3.1-1.8 5.7-3.9 8-1.3 1.4-2.7 2.4-4.3 3.2-2 .9-4 1.3-6.1 1.1-2.8-.2-5.3-1.3-7.3-3.2-2-1.9-3.3-4.4-3.7-7.3-.5-3.2.1-6.2 1.7-9.1.1-.2.1-.4.1-.6v-10.1c0-3 .9-5.7 2.8-8.1 1.9-2.4 4.3-3.9 7.3-4.4 2.6-.5 4.9 0 7 1.4 2.7 1.8 4.3 4.3 4.6 7.7.1 1 .1 2 .1 3-.1 1.1-.1 2.2-.1 3.2zm-10.9 5c-4.6.2-8.6 4.6-8.6 9.5s3.7 8.7 8.6 8.4c4.8-.3 8.5-4.7 8.5-9.5.1-5.1-4-8.8-8.5-8.4zm-6.6-2.2c4.4-2.8 8.8-3.2 13.2-1v-4c0-1.1 0-2.3-.1-3.3-.2-1.8-1-3.2-2.4-4.3-1.3-1-2.8-1.4-4.5-1.1-1.7.2-3.2 1.1-4.3 2.4-1.3 1.5-1.8 3.2-1.8 5.1v5.7c-.1.3-.1.4-.1.5z"/><path class="st15" d="M309 172.7c2-.1 3.6 1.4 3.6 3.5s-1.6 3.9-3.6 4c-2 .1-3.6-1.4-3.6-3.6.1-2 1.7-3.7 3.6-3.9z"/></g><path d="m333.7 224.5-49.3 2.5c-3.9.2-7-2.9-7-6.9v-1.8c0-4 3.2-7.4 7-7.7l49.3-2.8c3.9-.2 7 2.9 7 7.1v1.8c-.1 4.1-3.2 7.6-7 7.8z" style="fill:none;stroke:#4874ef;stroke-width:1.5446;stroke-miterlimit:10"/><path d="M337.5 166.4c0-16.8-12.8-29.2-28.5-27.8-15.7 1.4-28.5 15.7-28.5 32.1s12.8 28.9 28.5 27.9c15.7-1.1 28.5-15.5 28.5-32.2z" style="fill:none;stroke:#4874ef;stroke-width:1.6349;stroke-miterlimit:10"/><g><path class="st16" d="m207.4 222.7-2.8-.7c-.8-.2-1.7-.2-2.5.1l-2.8.9c-.8.2-1.3.9-1.3 1.7v5.1c0 .4.1.8.2 1.1 1.4 2.7 5.1 3.6 5.1 3.6s3.7-1.1 5.1-4c.2-.4.2-.7.2-1.1v-5.1c0-.8-.4-1.5-1.2-1.6zm-1 3.8-3.4 3.6c-.2.2-.5.3-.7.3s-.5-.1-.7-.3l-1.5-1.4c-.1-.1-.1-.3 0-.5s.3-.1.5 0l1.5 1.4c.1.1.4.1.5 0l3.4-3.6c.1-.1.3-.1.5 0 .1.1.1.4-.1.5zM213.5 225.8h.6v4.3l2-.1v.5l-2.7.1v-4.8zM219.8 228.6c0 1.3-.9 1.9-1.7 1.9-.9 0-1.6-.6-1.6-1.7 0-1.2.8-1.9 1.7-1.9 1 0 1.6.6 1.6 1.7zm-2.7.2c0 .8.5 1.3 1 1.3.6 0 1-.6 1-1.4 0-.6-.3-1.3-1-1.3s-1 .7-1 1.4zM220.6 227.9v-1.1h.5v.7c.1-.5.5-.8.9-.8h.2v.6h-.2c-.5 0-.8.4-.9.9v2.1h-.6l.1-2.4zM223.2 228.6c0 .9.5 1.2 1.2 1.2.5 0 .7-.1.9-.2l.1.5c-.2.1-.6.2-1.1.3-1 0-1.7-.6-1.7-1.7 0-1 .6-1.9 1.6-1.9 1.1 0 1.4.9 1.4 1.6v.3l-2.4-.1zm1.9-.5c0-.4-.2-1-.9-1-.6 0-.9.6-.9 1.1l1.8-.1zM226.4 227.6v-.9h.5v.5c.2-.4.5-.7 1.1-.7.5 0 .8.3 1 .7.1-.2.2-.4.4-.5.2-.2.5-.3.8-.3.5 0 1.1.3 1.1 1.5v2.1h-.6v-2c0-.7-.2-1.1-.8-1-.4 0-.6.3-.7.6v2.5h-.6V228c0-.5-.2-.9-.7-.9-.4 0-.7.4-.8.7v2.4h-.6l-.1-2.6zM234.5 225.3c0 .2-.1.4-.4.4-.2 0-.4-.1-.4-.4 0-.2.2-.4.4-.4.3 0 .4.2.4.4zm-.7 4.5v-3.5h.6v3.5h-.6zM235.5 227.4v-1.1h.5v.6c.3-.5.7-.7 1.2-.7.8 0 1.4.6 1.4 1.7 0 1.3-.8 1.9-1.6 1.9-.5 0-.9-.2-1-.5v1.9h-.6l.1-3.8zm.6.9v.3c.1.5.5.7.9.7.7 0 1-.6 1-1.4 0-.7-.4-1.3-1-1.3-.4 0-.8.4-.9.8V228.3zM239.4 228.9c.2.1.5.2.8.2.5 0 .7-.3.7-.5 0-.3-.2-.5-.6-.6-.6-.2-.9-.5-.9-.9 0-.6.5-1 1.2-1.1.4 0 .6.1.9.2l-.1.5c-.1-.1-.4-.2-.7-.2s-.6.2-.6.5.2.4.6.6c.6.2.9.5.9 1 0 .6-.5 1.1-1.3 1.1-.4 0-.7 0-.9-.2v-.6zM245.2 228.3v.9h-.5v-.6c-.2.3-.5.7-1.1.7-.5 0-1.2-.3-1.2-1.5v-2.1h.6v1.9c0 .7.2 1.1.8 1.1.4 0 .7-.3.8-.6v-2.5h.6v2.7zM246.2 226.7v-.9h.5v.6c.2-.4.5-.7 1.1-.7.5 0 .8.3 1 .7.1-.2.2-.4.4-.5.2-.2.5-.3.8-.3.5 0 1.1.3 1.1 1.5v2.1h-.6v-2c0-.7-.2-1.1-.8-1-.4 0-.6.3-.7.6v2.5h-.6v-2.1c0-.5-.2-.9-.7-.9-.4 0-.7.4-.8.7v2.4h-.6l-.1-2.7z"/></g></g><g><linearGradient id="SVGID_5_" gradientUnits="userSpaceOnUse" x1="1747.189" y1="3382.601" x2="1843.41" y2="3382.601" gradientTransform="matrix(.0981 .9952 -.6828 .0673 2457.095 -1628.244)"><stop offset="0" style="stop-color:#b0b0b0"/><stop offset="1" style="stop-color:#333"/></linearGradient><path d="M312.6 334c1.6 7.7 2.9 17.3 3.9 27.6s1.5 20 1.6 27.8c0 12.3-1.1 20.5-3.3 20.7l15.5-1.5c3.6-.3 4.4-22 1.8-48.5-2.6-26.5-7.6-47.6-11.2-47.2l-15.5 1.5c2.2-.2 4.9 7.6 7.2 19.6z" style="fill:url(#SVGID_5_)"/><path transform="matrix(.9952 -.0981 .0981 .9952 -33.813 33.64)" style="fill:#858585" d="M318.2 360h14v1.3h-14z"/><path class="st8" d="M323.1 388.8c0-7.8-.5-17.4-1.6-27.8-1-10.3-2.3-19.8-3.9-27.5-2.3-12.1-5-19.8-7.3-19.6l10.5-1c3.6-.3 8.6 20.7 11.2 47.1s1.8 48-1.8 48.3l-10.5 1c2.3-.1 3.5-8.2 3.4-20.5z"/><path d="M330.4 407.8c3.5-.3 4.2-21.7 1.7-47.7-2.6-26-7.5-46.8-11-46.5l-.1-.8c3.7-.4 8.7 20.8 11.3 47.2 2.6 26.4 1.8 48.1-1.8 48.5l-.1-.7z"/><path d="M500.4 361.5c-40.5-9-95.4-21.8-95.7-21.5-3.5-1.4-8.1-1.8-11-2.4-9.6-2.1-19.2-4.5-28.9-6.7-18.6-4.1-37.6-7.5-56.7-6.9-34.8 1.3-67.5 14.4-100.3 25.2-8.1 2.7-16.6 4.6-24.8 6.9-9.8 2.9-16.5 6.4-25.7 11-15 7.9-34.3 5.4-47.1 16.2l-.9 1.1c-6.1 4-13.4 6.4-20 8.4-3.3 1.1-8.3 2.2-11 4.4-.1 0-.1.1-.2.2-.1 0-.1.1-.2.2l-.2.2-.1.1s-.1.1-.1.2l-.2.2-.1.1-.3.6c0 .1 0 .1-.1.2 0 .1-.1.2-.1.3 0 .1 0 .2-.1.3v1.4c.1 1 .6 2.2 1.6 3.6 4.6 6.6 13.1 7 21.8 5.5 0 .2-.1.3-.1.5-.1.7-.2 1.4-.2 2V413.4c0 .2 0 .4.1.6 0 .1.1.3.1.5 0 .1.1.3.2.5 0 .1.1.3.2.4 0 .1.1.2.2.4 0 0 0 .1.1.1 0 0 .1.1.1.2 0 0 .1.1.1.2l.3.3.2.2.1.1c.1 0 .1.1.2.2s.3.2.4.3c.1 0 .2.1.3.2l.6.3c.1 0 .2.1.4.1.1 0 .2 0 .3.1.1 0 .3.1.5.1s.3.1.5.1c.1 0 .3.1.5.1 1.7.4 3.7.5 5.8.4.7 0 1.3 0 2-.1h.6c5.7-.6 11.5-2.2 13.8-3.1 7.7-3.2 13.3-9.8 20.8-13.3.8-.4 1.6-.7 2.4-.9.2-.1.5-.1.7-.2.4-.1.7-.2 1.1-.3h.2c.7-.2 1.3-.4 2-.6.7-.2 1.3-.4 2-.6h5.1c0 .1-.1.2-.2.3 0 .1-.1.2-.1.2v.1c-.4.9-.9 1.7-1.3 2.5-.1.2-.2.5-.4.7-.2.4-.4.8-.7 1.1-4 6.9-9.3 13.2-13.8 19.5-.1.1-.2.3-.3.4-.9 1.1-2.1 2.1-3.2 3.1-3.5 2.9-6.9 5.8-3.4 9.9l.9.9c.1.1.3.2.4.3.1.1.3.2.4.3.1.1.3.2.4.2.1.1.3.1.4.2.1.1.3.1.4.2s.3.1.4.2c.1 0 .3.1.5.1s.4.1.6.1c.1 0 .2 0 .4.1H146.3c2.3-.3 4.6-1.1 6.4-2.3 8.1-4.4 15.3-9.5 20.3-16.4.3-.4.6-.8.8-1.2.2-.3.4-.7.7-1 .1-.1.2-.3.3-.5.2-.3.4-.7.6-1 .2-.3.4-.7.6-1.1.1-.1.1-.3.2-.4.2-.3.3-.7.5-1 0 0 0-.1.1-.2.1-.3.3-.7.4-1 0-.1.1-.2.1-.4.1-.3.3-.7.4-1.1.2-.6.4-1.1.6-1.7l.3-.2c.9 0 1.7-.1 2.5-.3.2 0 .4 0 .6-.1.2 0 .4-.1.6-.1.2 0 .4-.1.6-.1l.9-.3c.2 0 .4-.1.6-.2h.1c1-.3 1.9-.8 2.8-1.3l.1.1c1.7 1.6 3.3 3.1 5.1 4.4-4.4 7.1-9.6 13.8-16 17.6-7.9 4.9-15.5 9-22.2 15.7-4.1 4.1-9.2 7.8-14.4 10.7-5.6 3.2-11 7.6-12.5 14.3-1.8 8.1 3.6 13.1 10.2 14.7h.1c.3 0 .6.1.9.2.3 0 .6.1.9.1.3 0 .6.1.9.1h.1c.3 0 .6 0 .9.1h2.9c.8 0 1.5-.1 2.2-.3 7.8-1.3 14.5-4.2 20.6-7.9 2.9-1.8 5.7-3.7 8.4-5.8 3.6-2.7 7-5.6 10.5-8.6h.1c.6-.5 1.1-.9 1.7-1.4.9-.7 1.7-1.4 2.6-2.1.5-.4 1-.9 1.6-1.2.3-.3.7-.6 1-.9.6-.5 1.2-.9 1.8-1.4.3-.2.6-.5.9-.7 1.5-1.1 3-2.2 4.6-3.2l.9-.6c1.3-.8 2.6-1.6 3.9-2.3.3-.2.6-.3.9-.5.4-.2.8-.4 1.1-.6 7.1-3.7 13.9-5.1 19.6-8.9 14.8-.9 30.4-5.9 41.8-16 5.5-5.2 9.9-11.6 15.3-16.6h.7c6 .4 12.1-2 18.2-4.6h.1c6.8-2.8 13.6-5.8 20.4-5.3 13.2.9 25.6 5.4 37.5 10.6 3.4 1.5 6.9 3.3 10.5 4.5 1.1 1 2.3 1.9 3.7 2.7 4.4 2.7 9.4 4.5 14.2 6.1v-.1c29.2 13.2 53.7 15.5 110.8 32.5v-92.4h.1v.3z" style="fill:#f6b292"/><path d="M500.4 413.4c-43.4-7-86.3-17.3-128.1-30.6-10.5-3.3-21-6.9-31.7-9.3-4-.9-8-1.6-12-2.1-15-1.8-30.9-.1-43.7 7.8-2.5 1.6-4.9 3.3-7 5.2-5.5 4.8-10.2 10.6-14.3 16.7-3.7 5.5-7.1 11-10.6 16.6-1.7 2.7-3.3 5.3-5 7.8-2.3 3.5-4.9 6.9-7.6 10.2-.3.3-.6.7-.9 1-.6.7-1.3 1.4-2.1 2.1l-.1.1c-.2.2-.4.4-.6.5s-.5.4-.7.6c10.4-1.7 20.5-5.5 29-11.6 5.2-3.7 9.2-8.6 13.4-13.4 2.1-2.4 4.2-4.8 6.5-7 6 .4 12.1-2 18.2-4.6h.1c6-2.3 11.9-4.6 18.4-4.7 3.6 0 7.2.6 10.7 1.2 3.5.6 6.9 1.5 10.3 2.5 6.5 1.9 12.8 4.6 19.1 7.3 4.3 1.9 8.6 3.9 12.8 5.9.2.1.5.2.7.3 3.9 1.8 7.8 3.5 11.9 5 .8.4 1.6.8 2.3 1.1v-.1c29.2 13.2 53.8 15.5 111.1 32.6v-41.3l-.1.2z" style="fill:#e69a7c"/><path class="st23" d="M500.4 425.9c-22-4.6-47.1-9.8-57.7-12.6-28.4-7.5-45.5-13-51.4-14.7-6.2-1.8-19.7-3.9-24.3-5.1-15.1-3.9-31.2-9.6-46.4-11.3-21.5-2.3-37.1 7.1-51.3 22-9.1 9-17.5 16.2-30 18.6-10.8 2.2-14.3 13.2-24.8 18-4.6 1.9-9.8 2.9-14.3 5.7-4.1 2.3-7.3 5.7-11.9 7.1-2.1.7-6.2-.1-7.8.9-.1.1-.2.2-.2.3-.2.3-.4.7-.6 1.1-.7 1.8-1.3 4.6-2.8 5.7l-.1.1c-.2.2-.5.4-.7.6-4 3.2-7.1 1.9-10.5 7.8-2.6 4.3-4.4 8-8.7 11.6-1.8 1.6-4 2.9-6.2 3.9-3.7 1.6-7.8 2.1-11.7.9l-.8.1h.1c.3 0 .6.1.9.2.3 0 .6.1.9.1.3 0 .6.1.9.1h.1c.3 0 .6 0 .9.1h2.9c.8 0 1.5-.1 2.2-.3 7.8-1.3 14.5-4.2 20.6-7.9 2.9-1.8 5.7-3.7 8.4-5.8 3.6-2.7 7-5.6 10.5-8.6h.1c.6-.5 1.1-.9 1.7-1.4.9-.7 1.7-1.4 2.6-2.1.5-.4 1-.9 1.6-1.2.3-.3.7-.6 1-.9.6-.5 1.2-.9 1.8-1.4.3-.2.6-.5.9-.7 1.5-1.1 3-2.2 4.6-3.2l.9-.6c1.3-.8 2.6-1.6 3.9-2.3.3-.2.6-.3.9-.5.4-.2.8-.4 1.1-.6 7.1-3.7 13.9-5.1 19.6-8.9 14.8-.9 30.4-5.9 41.8-16 5.5-5.2 9.9-11.6 15.3-16.6h.7c6 .4 12.1-2 18.2-4.6h.1c6.8-2.8 13.6-5.8 20.4-5.3 13.2.9 25.6 5.4 37.5 10.6 3.4 1.5 6.9 3.3 10.5 4.5 1.1 1 2.2 2.2 3.7 2.7 5.3 1.9 9.8 3.8 14.2 6.1v-.1c29.2 13.2 53.8 15.5 111.1 32.6l-.4-28.7z"/><path d="M500.4 450.6c-23.2-6.5-55.7-15.1-73.1-19.4-15.4-3.9-27.1-9-36.8-13.3-.5-.4-2.5-1.2-3.8-1.7-.4-.1-.7-.2-.9-.3-7.3-3.2-10.9-4.2-15.6-6.8-10.7-4.5-20.6-10.4-32-12.9-16.8-4.1-42.3-2.9-56.4 8.9-9.6 8.2-13.6 19.3-25.7 25.6-3.3 1.7-7.5 3.6-11.4 4.5-6.2 1.5-7.8 1.1-9.7-2.8l-.3-.6c-.2-.6-.5-1.2-.8-1.8-9.7 11.3-18.1 15-31.6 20.1-9.3 3.7-14.4 8.8-21.2 14.9-4.8 4.4-10.4 10.5-16 14.8-.9.7-1.8 1.4-2.7 1.9h.4c1.5-.8 3-1.6 4.5-2.5 2.9-1.8 5.7-3.7 8.4-5.8 3.6-2.7 7-5.7 10.5-8.6h.1c.6-.5 1.1-.9 1.7-1.4.9-.7 1.7-1.4 2.6-2.1.5-.4 1-.9 1.6-1.2.3-.3.7-.6 1-.9.6-.5 1.2-.9 1.8-1.4.3-.2.6-.5.9-.7 1.5-1.1 3-2.2 4.6-3.2l.9-.6c1.3-.8 2.6-1.6 3.9-2.3.3-.2.6-.3.9-.5.4-.2.8-.4 1.1-.6 7.1-3.7 13.9-5.1 19.6-8.9 14.8-.9 30.4-5.9 41.8-16 5.5-5.2 9.9-11.6 15.3-16.6h.7c6 .4 12.1-2 18.2-4.6h.1c6.8-2.8 13.6-5.8 20.4-5.3 13.2.9 25.6 5.4 37.5 10.6 3.4 1.5 6.9 3.3 10.5 4.5 1.1 1 2.2 2.2 3.7 2.7 5.4 1.8 9.5 3.5 14.2 6.1v-.1c29.2 13.2 53.8 15.5 111.1 32.6v-4.3z" style="fill:#ed9f7e"/><path class="st23" d="M145 400.3c-3.7.1-7.7.9-11.5 1.8-1.9.4-3.8.9-5.6 1.4l-2.1.6c-2.2.6-4.2 1.2-6.1 1.7-1.1.3-2.4.7-3.8 1.1-2.3.6-4.8 1.3-7.3 2-.4.1-.8.2-1.1.3h-.1c-.4.1-.8.3-1.2.4-.4.1-.9.3-1.2.4-.8.3-1.5.6-2.3.9-.6.2-1.1.5-1.6.7-.1 0-.2.1-.4.2-.3.1-.5.2-.8.4-.2.1-.3.2-.5.3-.1.8 0 1.5.1 2.1v.1c0 .1 0 .2.1.3 0 .1.1.3.1.4 0 .1.1.2.2.4v.1c0 .1.1.2.2.3 0 0 0 .1.1.1 0 0 .1.1.1.2 0 0 .1.1.1.2l.3.3.2.2.1.1c.1 0 .1.1.2.2s.3.2.4.3c.1 0 .2.1.3.2l.6.3c.1 0 .2.1.4.1.1 0 .2 0 .3.1.1 0 .3.1.5.1s.3.1.5.1c.1 0 .3.1.5.1-.4-.2-.6-.5-.7-.8-1.9-4.5 20.9-15.4 27.5-12.7-2.9 9.2-15.6 10.3-23.2 12.5.4.3.8.6 1.2.8.4.2.7.4 1.1.6.7 0 1.3 0 2-.1h.6c5.7-.6 11.5-2.2 13.8-3.1 7.7-3.2 13.3-9.8 20.8-13.3.8-.4 1.6-.7 2.4-.9.2-.1.5-.1.7-.2.4-.1.7-.2 1.1-.3.1-.1.3-.3.5-.4-2.2-.5-4.8-.7-7.5-.6zm42.5 9v-.1l-.3-.6c-.8-1.2-2-2.3-3.5-3.3l-.1-.1c-.1-.1-.2-.1-.3-.2-.7-.5-1.5-.9-2.2-1.4-.1 0-.1-.1-.2-.1-.3-.2-.6-.3-.9-.5-.2-.1-.3-.2-.5-.2-.9-.5-1.8-.8-2.3-1-.7-.2-1.4-.5-2.3-.7-.1 0-.3 0-.4-.1s-.3 0-.4-.1c-.3 0-.6-.1-.9-.2h-.3c-.1 0-.3 0-.4-.1s-.3 0-.4 0h-.1c-.2 0-.4 0-.7-.1-.3 0-.7-.1-1-.1h-.1c-1.8-.2-3.8-.3-5.6-.3-1.8 0-3.5.2-5 .5h2.2c0 .1-.1.2-.2.3 0 .1-.1.2-.1.2v.1c-.4.9-.9 1.7-1.3 2.5-.1.2-.2.5-.4.7-.2.4-.4.8-.7 1.1-4 6.9-9.3 13.2-13.8 19.5-.1.1-.2.3-.3.4-.9 1.1-2.1 2.1-3.2 3.1v.1c1.1-1 2.2-1.9 3.4-2.7 2.3-1.6 4.6-2.9 6.8-4.6 3.6-3.1 5.1-9 9.3-11.3 1.7-1.1 5.5-2.4 6.6.1 1.7 3.3-2.7 3.4-4.2 5.4-6.3 9.4-9.9 25.1-23.4 23.9-.3 0-.6 0-.9-.1.1.1.3.2.4.3s.3.2.4.3c.1.1.3.2.4.2.1.1.3.1.4.2s.3.1.4.2.3.1.4.2.3.1.5.1.4.1.6.1c.1 0 .2 0 .4.1H146.6c2.3-.3 4.6-1.1 6.4-2.3 8.1-4.4 15.3-9.5 20.3-16.4.3-.4.6-.8.8-1.2.2-.3.4-.7.7-1 .1-.1.2-.3.3-.5.2-.3.4-.7.6-1 .2-.3.4-.7.6-1.1.1-.1.1-.3.2-.4.2-.3.3-.7.5-1 0 0 0-.1.1-.2.1-.3.3-.7.4-1 0-.1.1-.2.1-.4.1-.3.3-.7.4-1.1.2-.6.4-1.1.6-1.7l.3-.2c.9 0 1.7-.1 2.5-.3.2 0 .4 0 .6-.1.2 0 .4-.1.6-.1.2 0 .4-.1.6-.1l.9-.3c.2 0 .4-.1.6-.2h.1c.9-.1 1.8-.6 2.7-1.1-.1-.1-.1-.1 0 0z"/><path class="st23" d="M180.7 402.9c4.3 2.6 7.6 8.4 12.7 10 2.1-4.7 6.6-11 6.4-16.2-4.1 5.8-10.8-1.8-16.2-2.5.1.9.1 1.3-.2 2.2-2.8-1-5.1-2.5-7.9-3.5-15.7-6-33.3 2.7-49.1 3.2-11.9.5-19.3 8.5-30.7 9.8-5.1.6-19.3-.6-17.9-8.1-2.1 1.7-2.9 4-.3 7.6 4.6 6.6 13.1 7 21.8 5.5 0 .1-.1.3-.1.5 10.5-2.7 20.3-7 31-8.3 7.3-.9 14.6-1.4 22-1.8 1.3-.4 2.7-.7 4-1.1h5.1c0 .1-.1.2-.2.3 0 .1-.1.2-.1.3 1.6-.1 3.1-.1 4.7-.2 6.4-.2 9.8-1 15 2.3z"/><linearGradient id="SVGID_6_" gradientUnits="userSpaceOnUse" x1="-57.811" y1="2995.074" x2="-72.284" y2="3030.008" gradientTransform="rotate(-6.8 -21906.639 -295.735)"><stop offset="0" style="stop-color:#904432"/><stop offset="1" style="stop-color:#e38b69"/></linearGradient><path d="M183.5 405c-2.3-1.7-5-2.9-6.4-3.5-1.8-.7-4.2-1.2-6.9-1.6-2.9 0-6 .2-8.8.9-.7 1.5-1.5 2.9-2.3 4.4 2.2-.8 4.6-1.1 6.6-.9 3.2.5 13.3 4.6 5.7 6.8 3.8 2 3.1 7.1 1.8 11.3 2.3-3.1 4.1-6.6 5.4-10.5l.3-.2c2-.1 4.1-.5 5.9-1.2.2-2 0-3.8-1.3-5.5z" style="fill:url(#SVGID_6_)"/><linearGradient id="SVGID_7_" gradientUnits="userSpaceOnUse" x1="-140.616" y1="3008.891" x2="-133.129" y2="3014.881" gradientTransform="rotate(-6.8 -21906.639 -295.735)"><stop offset="0" style="stop-color:#904432"/><stop offset="1" style="stop-color:#e38b69"/></linearGradient><path d="M108.6 408.9c-3.4 1-6.7 2.2-9.3 3.6-.2 2.3.5 4 1.9 5 2.5-2.9 5.2-5.6 7.4-8.6z" style="fill:url(#SVGID_7_)"/><linearGradient id="SVGID_8_" gradientUnits="userSpaceOnUse" x1="-60.22" y1="2876.292" x2="30.301" y2="3033.196" gradientTransform="rotate(-6.8 -21906.639 -295.735)"><stop offset=".232" style="stop-color:#fbdbc9"/><stop offset="1" style="stop-color:#f6b292;stop-opacity:.2"/></linearGradient><path d="M150.9 460.3c7.2.9 2.6-11.4 10.1-8.3 2.1-8.7 7.9-7.6 15.7-5-2.3-4.1 1.1-5.9 5.1-5 .6-5.8 6.5-8.7 10.4-12.7 6-5.6 9.6-12.6 13.1-19.7 1.8-3.3 5.9-10 5-13.8-2.2-7.7-9.5-5-15.3-6.1-6.3-1-10-6.3-16.8-7.7-6.2-.6-13.6.8-19.6 1.9-11.2 2.2-21.9 5.2-32.8 6.6-11.8.9-23.4 11.6-35.9 10 9.1-5.5 19.4-11.2 29-15.8 10-5.1 21.1-4.7 31.4-7.3 10.3-3 18.6-10.6 28.9-13.6 8.6-2.3 17.9-1.7 26.6-3.6 14.7-3.1 27.9-10.8 41.8-15.6 17.9-5.7 36.2-8.3 54.6-9.2 22.2-1 42.6 6.8 63.6 12.9 7.9 2.3 24.6 2.2 30.9 6 8.2 4.9 2.7 10.9 4.1 19.3.6 3.7 4.5 8 2.2 11.5-4.7 7.1-17.4-3.8-23.4-5.5-12.1-3.4-24.7-5.5-37.4-6.3-24.3-1.6-50.1 1.8-71.3 14.7-8.2 5-14.4 12.8-21.7 18.5-8.5 6.4-17.2 11.8-26.3 16.4-10.4 5.7-21.3 10.1-31.2 16.5-5.4 3.3-12.5 13.8-18.1 11.5.9 6.9-6 5.6-9.2 8.2-1.7 1.1 1.7 2.9-3 4.4-2.1 1.1-4.8.6-6.7-.5l-3.8-2.7z" style="fill:url(#SVGID_8_)"/><linearGradient id="SVGID_9_" gradientUnits="userSpaceOnUse" x1="-111.216" y1="3064.414" x2="-102.171" y2="3080.091" gradientTransform="rotate(-6.8 -21906.639 -295.735)"><stop offset="0" style="stop-color:#fbdbc9"/><stop offset="1" style="stop-color:#f6b292"/></linearGradient><path d="M133.3 476.2c-7.9-13.9 23.4-14.7 20.7-1.5-4-.2-18.1-1.5-13.5 6.6-2-.1-4.1-.9-5.9-1.9l-1.3-3.2z" style="fill:url(#SVGID_9_)"/><path class="st29" d="M178 462.6c-.5-.3-.9-.6-1.3-.9-.4-.3-.9-.6-1.2-.9-.9-.8-1.7-1.8-2.5-2.8-.5-.6-.9-1.2-1.4-1.8-.9-1.1-1.7-2.1-2.7-3-.1-.1-.3.1-.2.2.9.9 1.8 1.9 2.5 3 .6.9 1.1 1.7 1.8 2.5.8 1.1 1.8 2.5 3.1 3.3.5.4 1.1.7 1.7.9.1.3.6-.3.2-.5zm-1.9-5c-.7-1.1-1.8-2.1-2.7-3.2 0 0 0-.1-.1-.1-.9-1.2-1.9-2.5-2.8-3.7-1.4-1.8-2.9-3.5-4.6-5-.6-.5-1.2-.9-1.8-1.4-.1-.1-.3.1-.2.2.6.4 1.1.9 1.6 1.3 1.8 1.6 3.3 3.6 4.7 5.5.9 1.2 1.7 2.5 2.6 3.7l.1.1c.8 1 1.6 2.3 2.7 3.1.4.3.8-.2.5-.5zm3.9-2.7c-.3-1.5-1-2.9-1.8-4.2-.9-1.5-2.1-2.9-3.3-4.1-1.5-1.5-3.1-2.7-4.7-3.7-.2-.1-.5.2-.2.3 1.3.9 2.6 1.9 3.7 3 .9.8 1.7 1.7 2.3 2.7.6.7 1 1.5 1.5 2.2.9 1.6 1.5 3.2 2 5 0 .1.1.3.1.5.1.4.7.2.7-.2-.1-.6-.1-1-.3-1.5zm-26.1 14.3c-2.1-4.1-5.9-7.8-10.7-7.3-.1 0-.2.1-.2.1-4 .4-9 1.3-11 5.1-1.2 2.3-.5 5.1.4 7.4.4 1 .9 2.1 1.6 3 .6.9 1.2 1.6 1.9 2.3.7.7 1.4 1.3 2.1 1.9 2 1.6 4.4 2.6 7 2.5 2.7-.1 5.4-1.4 7.5-2.9 1.7-1.2 3-2.9 3.3-5 .3-2.4-.8-5-1.9-7.1zm-9.9 14.2c-2.2 0-4.2-1.2-6-2.6-.6-.5-1.1-.9-1.6-1.4-2.3-2.2-3.9-5.1-4.4-8.3 0-.4 0-.7-.1-1.1-.2-5.5 6.8-7 11-7.7 0 0 .1.1.2.1 6.1-.5 10.8 6.4 11.8 11.7 1.1 5.9-5.9 9.4-10.9 9.3zm27.4-72.1h-.8c-.2 0-.2.3 0 .3.5 0 1 .1 1.5.2-.3-.2-.5-.4-.7-.5zm235-71.1h-.2c-34.9-7.1-69.8-18.8-105.9-15.7-18.9 1.6-37.4 6.7-55.4 12.4-9.1 2.9-18.2 6-27.2 9-9.1 3.1-18.2 5.8-27.5 8.2-7.4 1.9-14.7 4.1-21.7 7.3-6.7 3-13 6.9-20.1 9.2-12.9 4-27.9 3.8-38.7 13-.1.1-.2.3-.1.5-5.8 3.8-12.2 6.3-18.8 8.4-4.1 1.3-8.6 2.2-12.3 4.5-1.4.9-2.6 2-2.9 3.7-.5 2 .7 3.9 1.8 5.5 2.4 3.5 6.4 5.4 10.5 6 3.7.6 7.4.3 11-.3-.5 2.5 0 4.9 2.3 6.5 2.6 1.9 6.2 2 9.4 1.9 7-.1 14.7-1.9 20.8-5.5 4.1-2.3 7.6-5.5 11.5-8.1 4.1-2.9 8.6-5 13.7-5.5.2 0 .4-.1.4-.3h3.9c-3.5 6.3-7.9 12-12.1 17.9-1.8 2.6-3.4 5.5-5.7 7.7-1.6 1.6-3.5 2.8-5 4.5-1.2 1.3-2.1 2.9-1.9 4.7.3 2.3 2.5 4.1 4.4 5.1 5.1 2.6 10.6-.4 15.1-2.9 10.4-5.9 19.2-14.1 23-25.7 2.7-.1 5.4-.8 7.8-2.2 1.7 1.5 3.5 2.9 5.5 4-.1.1-.1.2-.2.4-3.5 5.2-7.3 10.4-12.3 14.3-2.6 2.1-5.6 3.7-8.5 5.5-3.1 1.9-6.1 3.8-9.1 6-2.9 2.1-5.6 4.5-8.1 7-2.7 2.7-5.8 5.1-9 7.3-5.2 3.6-11 6.1-14.9 11.4-3 4.2-4.3 10.2-1.8 14.9 2.3 4.1 6.9 6.2 11.4 6.9 5.5.9 11.3-.7 16.5-2.5 11.3-4 20.6-11.7 29.7-19.3 4.6-3.8 9.3-7.7 14.2-11 5-3.5 10.5-6 16.1-8.4 3.7-1.5 7.6-3 10.9-5.4 13.4-.5 26.8-4.7 37.7-12.5 5.2-3.7 9.2-8.6 13.4-13.4 2.1-2.4 4.2-4.8 6.5-7 .1-.1.3-.2.4-.4 6.2.1 12-1.9 17.9-4.1h.1c6-2.3 11.9-4.6 18.4-4.7 3.6 0 7.2.6 10.7 1.2 3.5.6 6.9 1.5 10.3 2.5 6.5 1.9 12.8 4.6 19.1 7.3 4.6 2 9.1 4.1 13.6 6.2 4 1.8 8 3.6 12.2 5 .6.2.9-.7.4-.9-.2-.1-.3-.1-.5-.2-12.4-5.4-24.6-11.6-37.3-16.3-6.4-2.3-12.9-4.2-19.6-5.2-3.3-.5-6.8-.9-10.2-.8-3.2.1-6.4.9-9.4 1.8-4.4 1.4-8.6 3.2-12.9 4.8-3.9 1.4-7.8 2.3-11.9 2.8 1.8-1.7 3.9-3.1 6.1-4.3 4.5-2.3 9.3-3.2 14.3-3.9.3 0 .3-.6 0-.5-6.6.6-13.1 2.3-18.6 6.3-4.9 3.5-8.8 8.1-12.7 12.7-2.1 2.4-4.2 4.8-6.5 6.9-2.5 2.3-5.5 4.4-8.4 6.1-6.1 3.7-12.8 6.2-19.8 7.9-4 1-8.1 1.7-12.3 2.1 2.9-2.2 5.2-5 7-8.2.2-.4.4-.8.7-1.2.1-.3-.3-.5-.5-.2-.1.3-.3.6-.4.8-2.1 3.7-4.9 6.7-8.3 8.9-.1 0-.2.1-.2.1-1.2.8-2.6 1.6-4 2.2-5.2 2.4-10.8 4-15.9 6.7-10.6 5.6-19.3 13.9-28.7 21.4-3.9 3.1-8.1 6.1-12.5 8.7-4.6 2.7-9.6 4.8-14.7 6-1.8.4-3.5.8-5.3.9-5 .6-10.5-.7-14.2-4.1-4.5-4.2-3.5-11.2-.5-16 3.6-5.7 9.9-8.3 15.3-11.9 6.2-4.1 11.2-9.7 17.3-14.1 2.9-2.1 6-4 9.1-5.9 2.8-1.8 5.8-3.3 8.4-5.5 4.7-3.8 8.5-8.8 11.6-14 .5-.8.9-1.6 1.4-2.4l.3-.6c2.7-4.7 5.2-9.6 7.8-14.5.1-.1-.1-.2-.2-.1-.9 1.6-1.7 3.1-2.6 4.7-.7 1.3-1.4 2.6-2.2 3.9-3.1-4.1-7.2-7.3-11.9-9.3-.1 0-.3.2-.1.2 4.3 2 9.1 5.3 11.4 9.6 0 .1.1.2.2.2-1.1 1.9-2.2 3.7-3.3 5.5-.1.1-.2.3-.3.5-1.8-1.1-3.5-2.5-5-4-1.2-1.2-2.5-2.4-3.7-3.7-.2-.2-.3-.4-.5-.5l-.5-.5c-4.6-4.7-9.3-9.2-16.1-9.7-.3 0-.4.5-.1.6 2.8.5 5.5 1.4 7.8 3 1.1.7 2.1 1.5 3 2.4-2.5-.2-4.9-.4-7.4-.6-1.9-.1-3.8-.2-5.6-.3-5-.2-10.1-.1-15.1.2-1.4.1-2.7.2-4.1.4-3.7.4-7.3 1-11 1.7-.2 0-.4 0-.6.1-3.6.7-7.2 1.3-10.8 1.7h-.4c-1.5.1-3 .2-4.6.3-.2 0-.2.3 0 .3h2.7c-6.8 2.2-13.5 4.6-20.5 5.9-.2-.2-.6-.2-.8.1-1.2.2-2.3.4-3.6.5-4.5.5-9.2.3-13.3-1.9-3.1-1.7-7.9-6.6-4.8-10.1l.3-.3c1.4-1.4 3.6-2.1 5.5-2.8 2.2-.8 4.5-1.4 6.7-2.1 7.4-2.2 15-4.8 21.2-9.5.3-.2.3-.6.1-.8 12.7-9.4 29.9-7.8 43.9-14.2 3.9-1.8 7.7-3.9 11.6-5.7 3.8-1.8 7.6-3.4 11.5-4.8 8.9-3.2 18.3-4.9 27.3-7.8 18.2-5.9 36-12.7 54.5-17.9 18.5-5.1 37.6-8.5 56.9-8 29.8.8 58 10.5 87 15.7.7.1 1.3.2 2 .3.2 0 .4 0 .5-.2.1.2 0-.2-.2-.4zm-228.5 60.9.5.5c.3.3.7.6.9.9l.9.9c1.5 1.6 2.9 3.1 4.5 4.6l.9.9c-.3.1-.6.3-.9.4-1.8.8-3.6 1.3-5.5 1.7-2.6.4-5.1.4-7.7.2h-.8c-.2 0-.2.3 0 .3.5 0 1 .1 1.5.2 1.8.2 3.7.4 5.6.3-1 3-2.5 5.8-4.2 8.3-5 7.4-12.4 12.9-20.4 17.4-2.5 1.4-5 2.5-7.9 2.7-1.8.1-3.8-.4-5.4-1.4-1-.7-1.9-1.5-2.5-2.6-1.2-2.1.2-4.1 1.7-5.7 1.6-1.7 3.5-2.9 5.1-4.6.2-.2.4-.4.6-.7 1.2-1.4 2.3-3.1 3.3-4.6 1.7-2.2 3.5-4.3 5-6.6 2.2-3.1 4.4-6.1 6.2-9.4.8-1.4 1.6-2.7 2.3-4.1v-.1h1.2c4.7.1 9.4.4 14.1.8h.3c.2 0 .4-.1.5-.2.2.1.2 0 .2-.1zm-55.2 3.3c.1 0 .1-.1.1-.1.5 0 .9 0 1.4-.1.5 0 1-.1 1.6-.1 5-.4 9.9-1.2 14.9-1.9 2.6-.4 5.1-.7 7.8-.9 1-.1 2-.1 3-.2-.5.1-.9.3-1.4.5-8.6 3.5-15 11.4-23.8 14.5-3 1.1-6.1 1.8-9.2 2.2-2.5.4-5 .7-7.5.7-1.3 0-2.5-.1-3.8-.3-.6-.1-1.1-.2-1.7-.4-.9-.2-1.8-.6-2.6-1.2-.3-.2-.5-.5-.8-.7-1-1.2-1.2-2.7-1-4.2 0-.2 0-.4.1-.7l2.7-.6c1.2-.3 2.5-.6 3.7-.9.7-.2 1.3-.3 1.9-.6 2.6-.8 5.1-1.7 7.7-2.6 1.8-.7 3.7-1.3 5.5-1.9.5-.2 1-.3 1.4-.5zm50.6 58.3c-.9-.3-1.8-.4-2.6-.8-.9-.3-1.7-.9-2.5-1.5-.8-.7-1.4-1.4-1.9-2.2-.6-.8-1-1.7-1.5-2.5-1-2-1.9-4.2-2.9-6.3-.7-1.3-1.4-2.5-2.3-3.7-.1-.1-.3 0-.2.2.9 1.2 1.7 2.6 2.3 3.9 1.1 2.3 1.9 4.8 3.1 7l.9 1.5c.6 1 1.4 2 2.3 2.8 1.3 1.2 3.5 2.5 5.2 2.3.4.1.5-.5.1-.7z"/><g><path class="st29" d="M500.4 454c-9.9-3.4-20.3-6.2-30.4-8.9-4.7-1.3-9.6-2.6-14.5-4-26.7-6.4-48.9-12.2-70.7-22l-.5 1c22 9.9 44.2 15.7 70.9 22.2 4.8 1.4 9.7 2.7 14.5 4 10.2 2.7 20.6 5.6 30.7 9V454z"/></g><g><path class="st29" d="M500.4 361.3c-18.6-4.5-37.5-8.6-55.8-12.6-12.8-2.8-26.1-5.7-38.9-8.7l-.2 1.1c12.8 2.9 26.1 5.9 38.9 8.7 18.4 4 37.4 8.2 56 12.7v-1.2z"/></g><g><path d="M330.4 407.8c-3.5.3-8.4-20.5-11-46.5-2.6-26-1.8-47.4 1.7-47.7l-.1-.8c-.5 0-.9.4-1.2 1.1 0 .1-.1.2-.1.3 0 .1-.1.2-.1.4-2.2 5.9-2.5 24.7-.3 46.6 2.6 25.7 7.4 46.4 11 47.2h.3l-.2-.6z"/><linearGradient id="SVGID_10_" gradientUnits="userSpaceOnUse" x1="316.298" y1="3032.073" x2="316.298" y2="2934.829" gradientTransform="translate(0 -2622)"><stop offset="0" style="stop-color:#b0b0b0"/><stop offset="1" style="stop-color:#fff"/></linearGradient><path d="M330.4 408.5h-.3l-15.2 1.5c-3.6.4-8.6-20.8-11.2-47.2-2.6-26.5-1.8-48.1 1.8-48.5l2.3-.2 11.9-1.2 1.3-.1c-.5 0-.9.5-1.3 1.2 0 .1-.1.2-.1.3 0 .1-.1.2-.1.4-1.2 3.1-1.8 9.9-1.7 18.8 0 7.8.5 17.5 1.6 27.8 1 10.3 2.3 19.9 3.9 27.6 2.2 12 4.9 19.7 7.1 19.6z" style="fill:url(#SVGID_10_)"/></g><path class="st5" d="M304.4 336.3c0-8 .6-16.1 2.9-19.9l10.8-1c-2.5 3.7-3 11.8-2.9 20.5l-10.8.4z"/><g><path d="m304.4 331.5 10.7-.7V329l-10.7.8c.1.6.1 1.1 0 1.7zM304.6 327.9l10.7-.8c0-.4 0-.8.1-1.1l-10.6.9c-.1.3-.1.6-.2 1zM304.4 334l10.7-.7v-1.4l-10.7.7v1.4zM304.8 325.9l10.6-.9c0-.4.1-.8.1-1.2l-10.6.9c0 .4 0 .8-.1 1.2zM317.6 316.3c.1-.3.3-.6.5-.9l-10.8 1c-.1.2-.3.5-.4.8l10.7-.9zM305.2 323.2l10.6-.9c.1-.6.2-1.1.3-1.7l-10.6.9c-.2.6-.2 1.2-.3 1.7zM305.8 320.4l10.6-.9c.1-.6.3-1.1.5-1.7l-10.7 1c-.2.5-.3 1.1-.4 1.6z"/></g><radialGradient id="SVGID_11_" cx="317.039" cy="5645.249" r="64.929" gradientTransform="matrix(1 0 0 .4109 0 -1997.613)" gradientUnits="userSpaceOnUse"><stop offset="0" style="stop-color:red;stop-opacity:.8"/><stop offset=".946" style="stop-color:red;stop-opacity:0"/></radialGradient><path d="M384.1 335.2s-.1.1-.2.1c-.4.3-.9.7-1.4 1-5.5 3.7-14.9 6.8-26.7 9-7.4 1.4-15.8 2.3-24.9 2.9h-.2c-3.5.2-7 .3-10.6.4h-4.9c-4.2 0-8.4-.1-12.4-.3-17.3-.9-32.5-3.5-43.1-7.1-4.2-1.5-7.7-3.1-10.4-4.8l-.9-.6h-.1c17-5.3 34.4-9.8 52.1-11.4.8 0 1.6-.1 2.3-.2.5-6.1 1.5-9.8 2.9-10l2.3-.2 11-1.1.8-.1 1.3-.1c-.1 0-.2 0-.3.1H321c1.7-.1 3.7 4.3 5.6 11.7 19.3 1.6 38.4 6.3 57.5 10.7z" style="fill:url(#SVGID_11_)"/><linearGradient id="SVGID_12_" gradientUnits="userSpaceOnUse" x1="203.732" y1="2965.691" x2="455.509" y2="2965.691" gradientTransform="translate(0 -2622)"><stop offset="0" style="stop-color:#000;stop-opacity:.8"/><stop offset="1" style="stop-color:#2b2b2b"/></linearGradient><path d="M455.5 351.1c-.1 0-.2.1-.4.1l-1.5.6-.9.3c-17.4 5.8-35.5 5.9-53.8 4.1-36.5-3.6-74-15.1-109.4-5.9-19 4.9-37.4 15.6-56.8 12.7-6-.9-11.5-3.1-16.9-5.8-3.7-1.8-7.3-4-10.8-6.1-.4-.2-.7-.4-1.1-.7-.1-.1-.2-.1-.4-.2 4.6-1.4 9.3-2.9 13.9-4.5 9.1-3.1 18.1-6.1 27.2-9 18-5.7 36.5-10.7 55.3-12.4 32.9-2.8 64.8 6.7 96.7 13.7 2.1.3 4.5.7 6.6 1.4.7.1 1.4.3 2 .4 12.8 2.9 26.1 5.9 38.9 8.7 4.1 1 7.7 1.8 11.4 2.6z" style="opacity:.1;fill:url(#SVGID_12_);enable-background:new"/></g><path class="st5" d="M297.7 170.7c1-2.4 4.1-5.1 5.2-5.8v-3.1c-2.6 1.4-4.9 4.4-5.4 5.2.1.4.2 3.7.2 3.7z"/></svg>