<svg version="1.1" id="Layer_1" xmlns="http://www.w3.org/2000/svg" x="0" y="0" viewBox="0 0 500 500" style="enable-background:new 0 0 500 500" xml:space="preserve"><style>.st3{fill:#fff}.st4{fill:#e68d45}.st7{fill:#424242}.st8{fill:#759ace}.st9{fill:#5d5d5d}.st10{fill:#42396e}.st11{fill:#f5f5f5}.st13{fill:#7ab1ff}.st14{fill:#f7fbfe}.st15,.st16{fill:none;stroke:#fff;stroke-width:3.9976;stroke-linecap:round;stroke-miterlimit:10}.st16{stroke-width:1.7765}.st17{fill:#dc661f}.st18,.st19{fill:none;stroke:#385591;stroke-width:3.3294;stroke-linecap:round;stroke-miterlimit:10}.st19{stroke:#919191;stroke-width:.8087}.st20{fill:#215495}.st21{font-family:&apos;Roboto-Bold&apos;}.st22{font-size:2.4934px}.st27{fill:#f7a594}.st28{fill:#002e73}.st29{fill:#231f20}.st31{fill:#fdfdff}.st34{fill:#3a3a3a}</style><path d="M91.7 460.1c20.2 15.6 43.8 28.9 69.9 39.9H500V94.1C420.6 77.2 339 64.6 255.1 68c-22.2.9-45.1 3.1-64.2 10.9s-33.4 22.4-29.8 36.5c3 11.6 16.8 24.5 5 33.9-3.4 2.7-8.3 4.3-13.1 5.8-24.8 7.4-51.8 11.5-75.2 20.7-36.3 14.2-60.2 39.6-70.5 66.1C-3 268.4-1 295.9 5 322.5c11.2 50 37.3 99.4 86.7 137.6z" style="fill:#f2e9e0"/><path style="fill:#cfcfcf" d="m124.5 500-9.5-26.2L6.5 499.1l.2.9z"/><path style="fill:#fdb477" d="M6.8 416.3h108.7v83.2H6.8z"/><path class="st3" d="M58.5 416.3h11.7v16.8H58.5z"/><path class="st4" d="M27.8 484.1h11.3v9.4H27.8zM12.1 484.1h11.3v9.4H12.1zM43.5 484.1h11.3v9.4H43.5z"/><path style="fill:#ffcba1" d="M104.1 391.8H18.2L6.9 416.3h108.6z"/><path style="fill:#f7a159" d="M6.8 416.3h108.7v83.2H6.8z"/><path class="st3" d="M58.5 416.3h11.7v16.8H58.5zM58.5 416.2h11.7l-2.3-24.6h-7.1z"/><path class="st4" d="M27.8 484.1h11.3v9.4H27.8zM12.1 484.1h11.3v9.4H12.1zM43.5 484.1h11.3v9.4H43.5z"/><g id="Arm_03_6_"><path transform="rotate(-.769 145.975 304.422) scale(.99999)" class="st7" d="M139.9 286.3H152v36.3h-12.1z"/><path class="st8" d="m154.3 313.2-15.5.4-7.8 5.7 31.4-.8z"/><path class="st7" d="M122.8 382.7c.6 0 1.2-.3 1.6-.8.7-.9.6-2.2-.4-2.9l-6-4.7 15.3-38.5 25.1-.7L178 373l-4.6 3.5c-.9.7-1.1 2-.4 2.9s2 1.1 2.9.4l6-4.6c.8-.6 1.1-1.7.6-2.6l-20.9-40.8c-.4-.7-1.1-1.2-1.9-1.1l-27.9.8c-.8 0-1.6.5-1.9 1.3L113.5 374c-.3.9-.1 1.8.7 2.4l7.3 5.7c.4.4.9.6 1.3.6z"/><path transform="rotate(-1.633 145.819 327.884)" class="st7" d="M127.6 318.5h36.5v18.8h-36.5z"/><path class="st7" d="M149.9 382.5c.2 0 .4 0 .7-.1 1.1-.4 1.7-1.6 1.3-2.7l-2.7-8.1-1.4-41c0-1.2-1-2.1-2.2-2-1.2 0-2.1 1-2 2.2l1.4 41.3c0 .2 0 .4.1.6l2.8 8.4c.3.9 1.1 1.4 2 1.4z"/><path class="st9" d="M102 69.4h105.4c7.2 0 13.1-5.9 13.1-13.1V30.1H88.9v26.3c0 7.2 5.8 13 13.1 13z"/><path class="st10" d="M146.6 290.3c11-6.3 17.8-18.9 16.5-30.5-1.2-10.9-8.8-19.1-21.5-23.2-15.1-4.9-16-17.3-15.6-22.4.7-10.6 7.5-20.3 15.2-21.7l-.4-2.1c-8.7 1.6-16.1 11.9-16.9 23.6-.4 5.3.8 10.3 3.3 14.4 2.9 4.7 7.6 8.1 13.7 10.1 11.9 3.8 19 11.4 20.1 21.4 1.2 10.8-5.2 22.6-15.5 28.5l1.1 1.9z"/><path class="st7" d="m130.4 169.7.3-5.9c-2.6-.1-11.4-3.7-18.2-11.6-5.9-7-8.4-15.2-7.4-24.3 1-8.8 4.4-15.5 10.3-20.1 11.6-9 28.9-6.7 29.1-6.7l.8-5.9c-.8-.1-20-2.7-33.5 7.9-7.2 5.6-11.4 13.7-12.5 24.1-1.2 10.7 1.8 20.7 8.8 28.8 7.4 9 17.7 13.5 22.3 13.7z"/><g><path class="st8" d="M122.1 85.8H187c10 0 18-8.1 18-18 0-10-8.1-18-18-18h-64.9c-10 0-18 8.1-18 18-.1 9.9 8 18 18 18z"/><path class="st7" d="M146 106.7h18.7v64.5H146z"/><path transform="rotate(-42.047 107.594 246.492)" class="st7" d="M101.6 219.5h12.1v54h-12.1z"/><path class="st8" d="M174.1 65.4v45c0 10.3-8.4 18.7-18.7 18.7-10.3 0-18.7-8.4-18.7-18.7v-45h37.4z"/><path class="st7" d="M145.3 106c-2.4 5.5.2 12 5.7 14.4 5.5 2.4 12-.2 14.4-5.7 2.4-5.5-.2-12-5.7-14.4-5.6-2.4-12 .2-14.4 5.7zM178.5 63.9c-2 4.7.3 10.1 4.9 12.1 4.7 2 10.1-.3 12.1-4.9 2-4.7-.3-10.1-4.9-12.1-4.7-2-10.1.2-12.1 4.9zM113.6 64.2c-2 4.7.1 10.1 4.8 12.1s10.1-.1 12.1-4.8-.1-10.1-4.8-12.1c-4.6-2-10.1.2-12.1 4.8z"/><path class="st8" d="m102.5 238.7 62.2-56.9c9.5-8.7 10.2-23.5 1.5-33.1-8.7-9.5-23.5-10.2-33.1-1.5l-62.2 56.9c-9.5 8.7-10.2 23.5-1.5 33.1 8.7 9.6 23.5 10.2 33.1 1.5z"/><path class="st7" d="M75.4 225.4c2.2 6.2 9 9.6 15.2 7.4 6.2-2.2 9.6-9 7.4-15.2-2.2-6.2-9-9.6-15.2-7.4-6.2 2.1-9.6 9-7.4 15.2z"/><g><path class="st8" d="m106.2 264.4 30.4 33.9c4.7 5.2 12.6 5.6 17.8 1 5.2-4.7 5.6-12.6 1-17.8l-30.4-34c-4.7-5.2-12.6-5.6-17.8-1-5.2 4.7-5.7 12.7-1 17.9z"/><path class="st7" d="M144.5 284.8c-2.7.9-4.1 3.9-3.2 6.6s3.9 4.1 6.6 3.2c2.7-.9 4.1-3.9 3.2-6.6-1-2.7-3.9-4.1-6.6-3.2zM113.1 250.6c-2.7.9-4.1 3.9-3.2 6.6.9 2.7 3.9 4.1 6.6 3.2s4.1-3.9 3.2-6.6c-1-2.7-3.9-4.2-6.6-3.2z"/></g></g><g><path class="st8" d="M80.5 223.6c1.2 3.4 4.9 5.2 8.3 4.1 3.4-1.2 5.2-4.9 4.1-8.3-1.2-3.4-4.9-5.2-8.3-4.1-3.4 1.2-5.3 4.9-4.1 8.3z"/></g><g><path class="st7" d="M136.9 169.2c2.2 6.2 9 9.6 15.2 7.4 6.2-2.2 9.6-9 7.4-15.2-2.2-6.2-9-9.6-15.2-7.4-6.2 2.1-9.5 8.9-7.4 15.2z"/></g><g><path class="st8" d="M142 167.4c1.2 3.4 4.9 5.2 8.3 4.1 3.4-1.2 5.2-4.9 4.1-8.3-1.2-3.4-4.9-5.2-8.3-4.1-3.4 1.1-5.2 4.9-4.1 8.3z"/></g></g><path class="st9" d="M118.9 45.5H90v-1c0-7.6 6.2-13.8 13.8-13.8h1.4c7.6 0 13.8 6.2 13.8 13.8v1zM219.7 46.2h-28.9v-1c0-7.6 6.2-13.8 13.8-13.8h1.4c7.6 0 13.8 6.2 13.8 13.8l-.1 1z"/><path class="st7" d="M168.4 440.9c-.1-.2-1.3-4.6-1-11.4.2-6.3 1.8-15.8 8-25.6 7.2-11.4 17.2-15.9 24.3-17.7 7.7-1.9 13.6-1.1 13.8-1.1l-.2 1.2c-.1 0-5.9-.8-13.4 1.1-6.9 1.7-16.5 6.1-23.5 17.1-6 9.5-7.6 18.8-7.8 24.9-.2 6.6 1 11 1 11.1l-1.2.4z"/><path class="st7" d="M171.4 445.1c0-.2-1.2-4.6-1-11.4.2-6.3 1.7-15.8 7.6-25.6 6.9-11.4 16.4-15.9 23.2-17.7 7.3-1.9 13-1.1 13.2-1.1l-.2 1.2c-.1 0-5.7-.8-12.8 1.1-6.5 1.7-15.8 6.1-22.4 17.1-5.8 9.5-7.3 18.8-7.5 24.9-.2 6.6.9 11 .9 11.1l-1 .4z"/><path class="st7" d="M173.7 449.3c0-.2-1.1-4.6-.9-11.4.2-6.3 1.6-15.8 7.2-25.5 6.5-11.4 15.5-15.9 21.9-17.7 6.9-1.9 12.3-1.1 12.5-1.1l-.2 1.2c-.1 0-5.3-.8-12.1 1.1-6.2 1.7-14.9 6.1-21.2 17.1-10.5 18.3-6.2 35.9-6.2 36l-1 .3z"/><path class="st10" d="M208.2 383.8h2.7v3.2h-2.7z"/><path class="st10" d="M207.6 384.6h1.1v1.9h-1.1zM207.8 388h2.7v3.2h-2.7z"/><path class="st10" d="M207.2 388.9h1.1v1.9h-1.1zM207.1 392.6h2.7v3.2h-2.7z"/><path class="st10" d="M206.5 393.4h1.1v1.9h-1.1z"/><path class="st11" d="M500 500v-88.3H207.9c-16.2 0-31.5 6.3-42.9 17.8-11.5 11.5-17.8 26.7-17.8 42.9V500H500z"/><path d="M500 500v-78.3H208.7c-29.2 0-52.9 23.7-52.9 52.9V500H500z" style="fill:#474747"/><path class="st7" d="M459.6 362.4H253.7c-7.6 0-13.8-6.2-13.8-13.8v-121c0-7.6 6.2-13.8 13.8-13.8h205.9c7.6 0 13.8 6.2 13.8 13.8v121c0 7.7-6.2 13.8-13.8 13.8z"/><path class="st3" d="M245.6 353.3V223c0-1.9 1.5-3.4 3.4-3.4h215.2c1.9 0 3.4 1.5 3.4 3.4v130.3c0 1.9-1.5 3.4-3.4 3.4H249.1c-1.9.1-3.5-1.5-3.5-3.4z"/><g><path class="st13" d="M400.8 241H262.4v-11.8h138.4V241zm-138.1-.3h137.7v-11.1H262.7v11.1z"/><path class="st13" d="M296.1 233.1h23v4h-23zM321.3 233.1h11.9v4h-11.9zM265 233.1h28.1v4H265z"/></g><g><path class="st13" d="M264.2 330.5h75.6v4.3h-75.6zM264.2 346.3h66.1v4.3h-66.1zM264.2 338.3h114.7v4.3H264.2z"/></g><path class="st13" d="M415.5 235.6h36.8V346h-36.8z"/><g><path class="st3" d="M419.3 244.1h24.8v3.2h-24.8zM419.3 249.5h17.1v3.2h-17.1zM419.3 255.3h21.1v3.2h-21.1zM419.3 261h17.8v3.2h-17.8z"/></g><g><path class="st3" d="M419.3 275h24.8v3.2h-24.8zM419.3 280.4h17.1v3.2h-17.1zM419.3 286.2h21.1v3.2h-21.1zM419.3 291.9h17.8v3.2h-17.8z"/></g><g><path class="st3" d="M419.3 312h24.8v3.2h-24.8zM419.3 317.4h17.1v3.2h-17.1zM419.3 323.2h21.1v3.2h-21.1zM419.3 328.9h17.8v3.2h-17.8z"/></g><g><path class="st14" d="M339.6 321.4h-73.4c-2.1 0-3.9-1.7-3.9-3.9v-68.7h81.1v68.7c.1 2.2-1.6 3.9-3.8 3.9z"/><path class="st13" d="M343.4 257.7h-81.1v-10.2c0-1.1.8-1.9 1.9-1.9h77.3c1.1 0 1.9.8 1.9 1.9v10.2z"/><path class="st15" d="M276.2 251.9h51.9"/><path class="st16" d="m267.6 250.1 3.6 3.7M271.2 250.1l-3.6 3.7"/><circle class="st3" cx="335.9" cy="251.9" r="2"/><path class="st17" d="M311.2 271c0 .8-.1 1.6-.3 2.4-.2.5-.8.9-1.3.7-.5-.2-.9-.8-.7-1.3.2-.5.3-1.2.3-1.7 0-2-1-3.9-2.7-5-.5-.3-.6-1-.3-1.4.3-.5 1-.6 1.4-.3 2.3 1.4 3.6 3.9 3.6 6.6zm-2.9 4.9c-.4-.4-1-.5-1.5-.2-1.1.9-2.4 1.3-3.7 1.3-3.3 0-6-2.7-6-6s2.7-5.9 5.9-6c.6 0 1-.5 1-1 0-.6-.5-1-1-1-4.3.1-7.9 3.7-7.9 8.1 0 4.4 3.6 8.1 8.1 8.1 1.9 0 3.5-.6 5-1.7.3-.2.4-.5.4-.8-.1-.4-.2-.6-.3-.8zM281.7 279.1c-.8 0-1.6-.1-2.4-.3-.5-.2-.9-.8-.7-1.3.2-.5.8-.9 1.3-.7.5.2 1.2.3 1.7.3 2 0 3.9-1 5-2.7.3-.5 1-.6 1.4-.3.5.3.6 1 .3 1.4-1.4 2.2-3.9 3.6-6.6 3.6zm-4.8-2.9c.4-.4.5-1 .2-1.5-.9-1.1-1.3-2.4-1.3-3.7 0-3.3 2.7-6 6-6s5.9 2.7 6 5.9c0 .6.5 1 1 1 .6 0 1-.5 1-1-.1-4.3-3.7-7.9-8.1-7.9-4.4 0-8.1 3.6-8.1 8.1 0 1.9.6 3.5 1.7 5 .2.3.5.4.8.4.3-.1.6-.2.8-.3zM324.6 263c.8 0 1.6.1 2.4.3.5.2.9.8.7 1.3-.2.5-.8.9-1.3.7-.5-.2-1.2-.3-1.7-.3-2 0-3.9 1-5 2.7-.3.5-1 .6-1.4.3-.5-.3-.6-1-.3-1.4 1.4-2.3 3.9-3.6 6.6-3.6zm4.9 2.9c-.4.4-.5 1-.2 1.5.9 1.1 1.3 2.4 1.3 3.7 0 3.3-2.7 6-6 6s-5.9-2.7-6-5.9c0-.6-.5-1-1-1-.6 0-1 .5-1 1 .1 4.3 3.7 7.9 8.1 7.9 4.4 0 8.1-3.6 8.1-8.1 0-1.9-.6-3.5-1.7-5-.2-.3-.5-.4-.8-.4-.4 0-.7.1-.8.3z"/><path class="st18" d="M276.4 282.9H287M276.4 288.3H287M297.8 282.9h10.7M297.8 288.3h10.7M319.2 282.9h10.7M319.2 288.3h10.7"/><path class="st19" d="M279.7 301.1h51M279.7 308.3h51M279.7 293.8h51M279.7 315.5h51"/><text transform="translate(275.524 294.235)" class="st20 st21 st22">10</text><text transform="translate(275.524 305.19)" class="st20 st21 st22">50</text><text transform="translate(275.524 316.182)" class="st20 st21 st22">60</text><text transform="translate(283.47 318.838)" class="st20 st21 st22">Ene            Feb            Mar           Abr</text><path d="M280.9 296.2c1.7-.1 3.2 1.6 4.2 3.5s1.6 4.1 2.4 6.1c.8 2 2.1 3.9 3.8 4.3 1.4.4 2.8-.3 4-1.4 1.2-1.1 2.2-2.4 3.3-3.6 3.5-3.9 7.8-6.2 12.3-6.3 3.4-.1 6.8.9 10.2 1.2 3.4.2 7.1-.6 9.6-3.9" style="fill:none;stroke:#464646;stroke-width:1.6174;stroke-linecap:round;stroke-miterlimit:10"/><path d="M281.4 315.2c3.1-3.9 6.3-7.9 10-10.8 3.7-2.9 7.9-4.7 12.1-4.1 3.4.5 6.5 2.6 9.7 4.1 5.6 2.7 11.7 3.5 17.6 2.6" style="fill:none;stroke:#919191;stroke-width:1.6174;stroke-linecap:round;stroke-miterlimit:10"/><g><path class="st14" d="M398.5 321h-46.7c-1.1 0-1.9-.8-1.9-1.9v-61.4h50.5v61.5c.1.9-.8 1.8-1.9 1.8z"/><path d="M394.6 285v-.2s0-.1-.1-.1c0 0-.1 0-.1-.1l-9.2-4.3v-11s0-.1-.1-.1c0 0-.1 0-.1-.1l-9.5-4.4h-.4l-9.5 4.4s-.1 0-.1.1l-.1.1v11l-9.2 4.3s-.1 0-.1.1l-.1.1v10.9c0 .2.1.4.3.4l9.5 4.7h.4l9.3-4.7 9.3 4.7h.2l9.5-4.7c.2-.1.3-.3.3-.4l-.2-10.7zm-9.9 4-8.3-4 8.3-3.9 8.3 3.9-8.3 4zm-19 0-8.3-4.1 8.3-3.9 8.3 3.9-8.3 4.1zm9.5-23.4 8.3 3.9-8.3 4.1-8.3-4.1 8.3-3.9zm8.9 14.7-8.5 3.9v-9.8l8.5-4.1v10zm-9.4-5.9v9.8l-8.5-3.9v-10l8.5 4.1zm-18 21.1v-9.7l8.5 4.1v9.8l-8.5-4.2zm9.5-5.6 8.5-4.1v9.7l-8.5 4.3v-9.9zm9.5-4.1 8.5 4.1v9.8l-8.5-4.3v-9.6zm9.5 14V290l8.5-4.1v9.7l-8.5 4.2z" style="fill:#cee3f8"/><path class="st13" d="M349.9 257.7v-10.2c0-1.1.8-1.9 1.9-1.9h46.7c1.1 0 1.9.8 1.9 1.9v10.2h-50.5z"/><path class="st15" d="M355.3 251.9H385"/><path style="fill:none;stroke:#fff;stroke-width:3.5532;stroke-linecap:round;stroke-miterlimit:10" d="M390 251.9h5.4"/></g></g><g><path class="st7" d="M303.1 361.5h41.5v49.8h-41.5z"/><path class="st7" d="M279.3 407.1h129.5v6.3H279.3z"/></g><g><path class="st7" d="M260.2 413h-55.9l7.3-39.8h55.9z"/><path class="st7" d="M201.1 408h70.6v5.3h-70.6z"/></g><g><path class="st10" d="M421.7 392.9H500v19.5h-78.3zM439.7 388.9h11.7v4h-11.7zM461.9 388.9h11.7v4h-11.7zM484.2 388.9h11.7v4h-11.7z"/></g><g><path class="st27" d="m500 251.7-.4 2c-1.7 3.7-3.6 10.8.4 16.4v-18.4zM500 148.1c-6.6 5.4-10.9 14.3-12.5 27.1-1 8.3-3.1 26.6-1.7 34.8 1.4 8 7.3 16.2 14.2 21.2v-83.1z"/><path class="st27" d="M487.9 183.5s-8 9.8-7.4 11.7c.6 2 5.1 5.9 7.3 5.4s.5-15.6.1-17.1z"/><path class="st28" d="M500 250.5c-12.4 5.5-16.9 14-16.9 14-.2 7.4 6.9 11.5 16.9 13.4v-27.4z"/><path class="st29" d="M500 500V396.9c-18 4.6-36.2 22.4-40.1 48.2-2.4 17.2-4 35.7-5.1 54.9H500z"/><path class="st28" d="M500 258.9c-12.7 1.3-23.8 3.5-31.1 6.4-11 4.4-23.5 22.2-23.4 50.5 0 14.6 14.2 31.5 18.1 43.2 9 27.2 4.6 67.3 4.5 71.2 1 5.4 14.4 8.5 32 9.8V258.9z"/><path d="M500 259c-2.1.1-4.1.3-6.1.4 0 0-15.4.5-28.9 7.1 16 20.8 21.6 71.6-10.4 106.3.2 5.7.3 11.3.3 16.9v16.6c0 5.9-.1 11.9-.1 17.9 0 5.4 0 10.9.1 16.4.2 10.9.6 22.3 1.5 34.3 6.4 5.4 23.4 9.2 43.6 11.1V259z" style="fill:#ffb655"/><path class="st31" d="M500 390.1c-19.3.2-35.8-.2-45.1-.3v16.6c13.4 1 29.1 1.1 45.1.8v-17.1zM500 424.7c-20.2.1-37.1-.3-45.2-.4 0 5.4 0 10.9.1 16.4 13.3 1.1 29 1.3 45.2 1v-17z"/><path class="st29" d="M500 147.5c-12.8 12.1-6.9 36.8 0 51v-51z"/><path class="st29" d="M500 137.3c-13 4.2-18.1 16.9-9.1 25.9 3.7 8.4-1 28.5-1 28.5 3.2-7.4 7.3-8.4 7.3-8.4.9.3 1.9.5 2.8.7v-46.7z"/><path class="st27" d="M500 184c-.7-.3-1.4-.5-2.2-.5-3.3 0-5.9 3-5.9 6.8 0 3.7 2.6 6.8 5.9 6.8.8 0 1.5-.2 2.2-.5V184z"/><path d="M500 138.8h-2.7c-29.5.8-37.2 21.5-18.1 29.8 0 0 11.1 3.1 20.8 9.7v-39.5z" style="fill:#ffdd59"/><path d="M500 126.9c-8.7 4.1-15.6 10.4-18.7 18.1 0 0-12.1 15.9 18.7 29.8v-47.9z" style="fill:#ffee73"/><path class="st28" d="M465 266.6s-27.2 3-35.3 52.8c-8.1 49.8-12 90 13.9 92.1 25.9 2 47.1-101.7 47.6-123.1.5-21.3-15.1-24-26.2-21.8z"/><path class="st27" d="M379.5 387.5s-14.2-1.8-18.8-2.7c-4.6-.9-21.9 12.4-20.6 22.8h42.3l-2.9-20.1z"/><path class="st28" d="M447 412c-23.3 5.6-43.7 3.7-67.5-2.9-7.5-2.2-8.5-20.3 0-23.5 0 0 52.3-15.2 67.1-10.8 14.9 4.3 23.2 23.8.4 37.2z"/><g><path class="st3" d="M500 129.1v-2.6c-9.3 4.5-14.4 10.6-16.7 14.5-10.7 2.9-13.3 10.1-13.3 10.1s4.1-6.9 8-4.5c1.3.8 1.1 5.5 1.8 8.7 1.5 7.1 6 11 8.5 12.7-2.3-1.6-6.2-5.7-7-14.2-.9-8 7.4-17.8 18.7-24.7zM488.3 168c1 .7 1.7 1 1.7 1s-.6-.3-1.7-1z"/></g></g><g><path class="st11" d="M305 500v-32.1c0-9.2-7.5-16.7-16.7-16.7h-80.8c-9.2 0-16.7 7.5-16.7 16.7V500H305z"/><path class="st34" d="M224 465.4h46.9v2.6H224zM224 471.6h46.9v2.6H224zM224 477.6h46.9v2.6H224zM224 483.4h46.9v2.6H224z"/></g><g><path class="st11" d="M443.5 500v-32.1c0-9.2-7.5-16.7-16.7-16.7H346c-9.2 0-16.7 7.5-16.7 16.7V500h114.2z"/><path class="st34" d="M362.6 465.4h46.9v2.6h-46.9zM362.6 471.6h46.9v2.6h-46.9zM362.6 477.6h46.9v2.6h-46.9zM362.6 483.4h46.9v2.6h-46.9z"/></g></svg>