<svg xmlns="http://www.w3.org/2000/svg" viewBox="0 0 750 500" style="enable-background:new 0 0 750 500" xml:space="preserve"><style>.st3{fill:#aed3ff}.st4{fill:#215495}.st5{fill:#f7fbfe}.st6{fill:#dc661f}.st7,.st8,.st9{fill:none;stroke:#385591;stroke-width:4.903;stroke-linecap:round;stroke-miterlimit:10}.st8,.st9{stroke:#d4e3f8;stroke-width:5.5161}.st9{stroke-width:2.4515}.st10{fill:#d4e3f8}.st11{fill:#fff}.st14{fill:#eaeaea}.st15,.st16,.st17,.st19{fill:none;stroke:#fff;stroke-width:4.539;stroke-linecap:round;stroke-miterlimit:10}.st16,.st17,.st19{stroke:#d4e3f8}.st17,.st19{stroke:#ccc;stroke-width:4.9168}.st19{stroke:#385591;stroke-width:1.2292}.st20{font-family:&apos;Roboto-Bold&apos;}.st21{font-size:6.146px}</style><g id="Layer_2"><path class="st3" d="M630.9 388.9H75.3c-3.1 0-5.5-2.5-5.5-5.5V39.7h566.9v343.7c-.2 2.9-2.6 5.5-5.8 5.5z"/><path class="st4" d="M636.5 52.5H69.6V34.3c0-3.2 2.6-5.8 5.8-5.8h555.5c3.1 0 5.5 2.5 5.5 5.5v18.4h.1z"/><path class="st5" d="M197.3 495.6H36.1c-4.7 0-8.5-3.8-8.5-8.5V241.3h178.1v246c.1 4.6-3.7 8.3-8.4 8.3z"/><path class="st6" d="M134.9 314.3c0 1.7-.2 3.6-.7 5.3-.4 1.2-1.7 2-2.9 1.6-1.2-.4-2-1.7-1.6-2.9.4-1.2.6-2.6.6-3.9 0-4.5-2.3-8.8-6.1-11.4-1.1-.7-1.3-2.2-.6-3.2.7-1.1 2.2-1.3 3.2-.6 5.1 3.2 8.1 8.9 8.1 15.1zm-6.5 11c-.9-1-2.2-1.2-3.3-.4-2.5 2-5.3 2.9-8.5 2.9-7.5 0-13.6-6.1-13.6-13.6 0-7.4 6-13.5 13.4-13.6 1.3 0 2.3-1.1 2.3-2.3 0-1.3-1.1-2.3-2.3-2.3-9.8.2-17.9 8.5-17.9 18.3 0 10.1 8.2 18.3 18.3 18.3 4.2 0 8.1-1.3 11.3-3.9.6-.5.9-1.1.9-1.8-.1-.6-.3-1.1-.6-1.6zM68 332.6c-1.7 0-3.6-.2-5.3-.7-1.2-.4-2-1.7-1.6-2.9.4-1.2 1.7-2 2.9-1.6 1.2.4 2.6.6 3.9.6 4.5 0 8.8-2.3 11.4-6.1.7-1.1 2.2-1.3 3.2-.6 1.1.7 1.3 2.2.6 3.2-3.2 5-9 8.1-15.1 8.1zM57 326c1-.9 1.2-2.2.4-3.3-2-2.5-2.9-5.3-2.9-8.5 0-7.5 6.1-13.6 13.6-13.6 7.4 0 13.5 6 13.6 13.4 0 1.3 1.1 2.3 2.3 2.3 1.3 0 2.3-1.1 2.3-2.3-.3-9.9-8.5-18-18.3-18-10.1 0-18.3 8.2-18.3 18.3 0 4.2 1.3 8.1 3.9 11.3.5.6 1.1.9 1.8.9.6-.1 1.1-.2 1.6-.5zM165.4 296c1.7 0 3.6.2 5.3.7 1.2.4 2 1.7 1.6 2.9-.4 1.2-1.7 2-2.9 1.6-1.2-.4-2.6-.6-3.9-.6-4.5 0-8.8 2.3-11.4 6.1-.7 1.1-2.2 1.3-3.2.6-1.1-.7-1.3-2.2-.6-3.2 3.3-5 8.9-8.1 15.1-8.1zm11.1 6.5c-1 .9-1.2 2.2-.4 3.3 2 2.5 2.9 5.3 2.9 8.5 0 7.5-6.1 13.6-13.6 13.6-7.4 0-13.5-6-13.6-13.4 0-1.3-1.1-2.3-2.3-2.3-1.3 0-2.3 1.1-2.3 2.3.2 9.8 8.5 17.9 18.3 17.9 10.1 0 18.3-8.2 18.3-18.3 0-4.2-1.3-8.1-3.9-11.3-.5-.6-1.1-.9-1.8-.9-.6.1-1.3.3-1.6.6z"/><path class="st7" d="M55.9 346.3H80M55.9 358.6H80M55.9 370.9H80M104.6 346.3h24.2M104.6 358.6h24.2M104.6 370.9h24.2M153.3 346.3h24.2M153.3 358.6h24.2M153.3 370.9h24.2"/><path class="st4" d="M205.6 274.7h-178v-36.4c0-2.3 1.8-4.2 4.2-4.2h169.6c2.3 0 4.2 1.8 4.2 4.2v36.4z"/><path class="st8" d="M57.9 254.5h114"/><g><path class="st9" d="m39.1 250.4 7.9 8M47 250.4l-7.9 8"/></g><circle class="st10" cx="188.4" cy="254.4" r="5.1"/><g><path class="st11" d="M86.2 40.4c0 2.5-2 4.4-4.4 4.4s-4.4-2-4.4-4.4c0-2.5 2-4.4 4.4-4.4 2.3 0 4.4 2 4.4 4.4zM102.4 40.4c0 2.5-2 4.4-4.4 4.4-2.5 0-4.4-2-4.4-4.4 0-2.5 2-4.4 4.4-4.4 2.5 0 4.4 2 4.4 4.4zM118.7 40.4c0 2.5-2 4.4-4.4 4.4s-4.4-2-4.4-4.4c0-2.5 2-4.4 4.4-4.4s4.4 2 4.4 4.4z"/></g><g><path class="st5" d="M527.9 495.6H248.7c-4.7 0-8.5-3.8-8.5-8.5V299.9h296.1v187.4c0 4.6-3.8 8.3-8.4 8.3z"/><path class="st4" d="M536.2 333.3h-296v-36.4c0-2.3 1.8-4.2 4.2-4.2H532c2.3 0 4.2 1.8 4.2 4.2v36.4z"/><path class="st8" d="M270.5 313.1h232"/><path style="fill:none;stroke:#d4e3f8;stroke-width:4.903;stroke-linecap:round;stroke-miterlimit:10" d="M513.4 313.1h11.9"/><path class="st9" d="m251.6 309.1 8 7.9M259.6 309.1l-8 7.9"/><path class="st4" d="M489.9 393.1v-1.8c-.1-2.7-1.2-5-3.3-6.6-1.6-1.2-3.3-1.9-5.3-1.4-2.8.6-4.9 2.7-5.3 5.9-.2 1.6-.2 3.1-.4 4.8-.1 1.2-.3 2.5-.7 3.6-1 2.8-2.9 4.9-5.4 6.4-2.3 1.4-4.7 2.4-7.5 2.4-.8 0-1.3.6-1.3 1.3 0 .7.6 1.3 1.3 1.2.9 0 1.9-.1 2.7-.3 3-.6 5.6-1.9 7.9-3.8 2.5-2.1 4.2-4.7 5.1-7.8.4-1.8.5-3.5.6-5.4.1-1 .2-2.2.4-3.2.4-1.7 2.9-3.5 5.2-2.3 1.4.8 2.4 2 2.9 3.5.4 1.2.4 2.5.3 3.8-.1 2.9-.7 5.8-1.7 8.6-1.1 3.4-2.9 6.5-5.3 9.2-2.3 2.5-5.1 4.3-8.4 5.4-.9.3-1.9.7-2.6 1.3-1.7 1.3-1.9 3.3-1.1 5.1.3.6 1 .9 1.7.6.6-.2.9-.8.8-1.6 0-.2-.1-.4-.1-.6-.1-.7 0-1.3.6-1.7.5-.3 1.1-.6 1.8-.8 3.1-1 5.8-2.6 8.1-4.8 2.9-2.7 5-6 6.5-9.7 1.4-3.6 2.3-7.4 2.5-11.3zm6-.6c0-1.7-.1-3.3-.7-4.9-.9-2.6-2.4-4.9-4.5-6.7-.9-.8-2.1-1.6-3.2-2.2-2.2-1-4.5-1.4-6.8-1.2-2.4.2-4.6 1-6.3 2.6-2.6 2.3-3.9 5.3-4.6 8.6-.2 1.2-.3 2.5-.6 3.7-.6 2.5-1.9 4.6-4 6-1.6 1-3.3 1.7-5.1 1.9-.8.1-1.3.7-1.2 1.6.1.7.7 1.2 1.6 1.1 2.9-.4 5.5-1.4 7.7-3.4 2.5-2.3 3.7-5.2 4.1-8.5.2-1.9.5-3.6 1.3-5.3.8-1.9 2.1-3.5 3.9-4.6 2.6-1.4 5.4-1.4 8.2-.4 4.3 1.7 8.4 6.7 7.7 12.8-.3 2.9-1.1 5.6-2.1 8.3-.6 2-1.3 3.9-2 6-.4 1.4-.7 3-.5 4.5.2 1.9 1.1 3.3 2.8 4.1.3.1.6.3.9.3.6.1 1.2-.3 1.4-.9.2-.6-.1-1.3-.8-1.6-.5-.2-.9-.4-1.3-.9-.5-.7-.6-1.6-.5-2.5.2-1.7.7-3.3 1.2-4.9.8-2.7 1.8-5.3 2.5-8 .6-1.7.8-3.6.9-5.5zm5.8.6c0-2-.1-3.9-.6-5.9-.8-3.4-2.5-6.4-4.9-9-5.1-5.5-11.3-7.8-18.6-6.3-2.5.4-4.8 1.6-6.7 3.2-.6.5-.7 1.3-.3 1.8.5.6 1.3.7 2 .2 2-1.6 4.2-2.5 6.7-2.8 2.6-.3 5.1-.1 7.5.7 3.1 1 5.6 2.8 7.8 5.3 2.7 3.2 4.2 6.8 4.5 11 .2 4.7-.7 9.1-2.5 13.4-.5 1.2-1 2.5-1.1 3.8-.3 3.3 1.4 6.1 4.6 7.3.6.2 1.2 0 1.6-.5.4-.7.2-1.6-.6-2-.8-.4-1.6-.8-2.1-1.7-1.1-1.6-1-3.3-.4-5 .3-.9.7-1.8 1.1-2.7 1.2-3.5 1.9-7.1 2-10.8zm-19.8-28.2c-1.6 0-3.1.1-4.7.4-5.7 1.1-10.2 4.1-13.8 8.7-1.4 1.9-2.5 3.9-3.4 6.2-.5 1.2-.8 2.5-1.2 3.8-.2.8.2 1.4.9 1.7.7.2 1.3-.3 1.6-1 .6-2.4 1.4-4.6 2.7-6.6 2.4-4.3 5.9-7.3 10.5-9.1 4.6-1.8 9.2-1.8 13.9-.3 3.2 1 6.1 2.7 8.5 5 2.6 2.5 4.5 5.4 5.8 8.6.5 1.2.8 2.5 1.2 3.7.2.8.9 1.2 1.8 1 .6-.2 1-.9.8-1.7-.6-2.6-1.7-5.1-3-7.5-1.8-3.1-4-5.9-6.9-8-4.4-3.1-9.3-4.8-14.7-4.9zm-.6-6.4c-.8.1-2.3.2-3.7.4-4.1.7-8 2.3-11.5 4.8-1.2.8-2.3 1.9-3.4 2.8-.4.3-.6.8-.5 1.3.2 1 1.4 1.3 2.3.6 1.6-1.4 3.1-2.6 4.9-3.6 5.4-3.1 11.2-4.1 17.3-3.1 1.8.3 3.4.8 5.1 1.4 3.1 1.2 5.8 3.1 8.2 5.4.6.6 1.4.6 2 0 .5-.6.5-1.3-.2-2-.5-.5-1-1-1.7-1.4-3.4-2.8-7.1-4.8-11.5-5.7-2.2-.6-4.5-.8-7.3-.9zm13 65c2.1 0 3.7-.6 5.3-1.7.7-.4.8-1.1.4-1.9-.4-.6-1.1-.8-1.9-.4l-1.2.6c-1.1.5-2.3.7-3.6.5-1.1-.2-2.1-.8-2.9-1.6-.9-.8-1.9-1.7-2.9-2.4-.7-.5-1.4-.9-2.4-.8-1.1 0-2.2.6-2.9 1.3-1.1 1-2.2 2.2-3.3 3.3-2 2-4.1 3.5-7 4-.7.1-1.1.8-1 1.6.1.7.8 1.1 1.6 1 2.3-.4 4.3-1.3 6.2-2.9 1.3-1.1 2.5-2.4 3.7-3.5.6-.6 1.2-1.2 1.9-1.8.7-.6 1-.5 1.8 0 .2.1.3.2.5.4 1.2 1 2.4 2.2 3.7 3 1.4.9 2.8 1.3 4 1.3zM459 396.7c.3 0 .5-.1.8-.1 2.4-.3 4.2-1.4 5.4-3.6.7-1.3 1.1-2.9 1.4-4.3.5-2.8 1.2-5.4 2.7-7.9.3-.5.2-1-.1-1.4-.6-.7-1.7-.6-2.2.2-1.1 1.9-1.9 3.8-2.4 5.9-.4 1.6-.6 3.1-1 4.7-.7 2.5-2.1 3.8-4.8 3.9-.7 0-1.2.7-1.2 1.3 0 .8.6 1.3 1.4 1.3zm48.9.3c0-1.9-.1-3.6-.4-5.4-.1-.7-.8-1.2-1.6-1.1-.7.1-1.1.8-1 1.6.1.6.2 1.1.2 1.8.2 2.2.2 4.3-.1 6.5-.4 3.2-1.3 6.3-2.7 9.2-.3.7-.1 1.6.5 1.9.7.3 1.6.1 1.9-.7.6-1.6 1.3-3.1 1.9-4.7.8-2.9 1.2-6 1.3-9.1zm-23.5-5v-1.2c0-.8-.5-1.3-1.2-1.4-.7 0-1.3.6-1.3 1.3-.1 1.2-.1 2.6-.2 3.8-.5 4-1.8 7.8-4.2 11-.5.6-.4 1.4.2 1.9.6.5 1.4.4 1.9-.2.8-1.2 1.7-2.5 2.4-3.8 1.5-3.6 2.2-7.4 2.4-11.4zm2.3 33c-.3 0-.6 0-.9.1-2.2.2-4.1.8-6 2-.3.2-.5.5-.7.8-.2.5 0 1 .4 1.4.5.3 1 .3 1.7 0 2.5-1.4 5.2-1.9 8-1.4.6.1 1.2.3 1.9.4.7.1 1.3-.3 1.6-.9.2-.7-.2-1.3-.9-1.6-1.8-.6-3.5-.8-5.1-.8zm-21.7-9.8c.4-.1 1-.2 1.7-.3 3-.7 5.8-1.9 8.3-3.6.7-.5.8-1.2.4-2-.4-.6-1.2-.7-2-.2-1.6 1-3.2 2-5 2.5-1.2.4-2.6.7-3.9 1-.7.2-1.1.7-1 1.4.1.8.7 1.2 1.5 1.2z"/><path class="st4" d="M489.9 393.1c-.2 3.9-1 7.8-2.6 11.4-1.6 3.6-3.6 6.9-6.5 9.7-2.4 2.2-5.1 3.8-8.1 4.8-.6.2-1.1.5-1.8.8-.6.4-.8.9-.6 1.7 0 .2.1.4.1.6.2.7-.1 1.2-.8 1.6-.6.2-1.3 0-1.7-.6-.7-1.8-.5-3.7 1.1-5.1.7-.6 1.7-1 2.6-1.3 3.3-1 6.1-2.8 8.4-5.4 2.5-2.7 4.1-5.8 5.3-9.2.9-2.8 1.6-5.6 1.7-8.6.1-1.2.1-2.6-.3-3.8-.5-1.6-1.4-2.8-2.9-3.5-2.3-1.2-4.8.6-5.2 2.3-.2 1-.4 2.2-.4 3.2-.1 1.8-.2 3.6-.6 5.4-.8 3.2-2.6 5.7-5.1 7.8-2.3 2-5 3.3-7.9 3.8-.9.2-1.8.2-2.7.3-.7 0-1.3-.5-1.3-1.2s.5-1.3 1.3-1.3c2.7-.1 5.2-.9 7.5-2.4 2.4-1.6 4.2-3.7 5.4-6.4.4-1.1.6-2.4.7-3.6.1-1.6.2-3.2.4-4.8.4-3.2 2.5-5.2 5.3-5.9 2-.5 3.7.2 5.3 1.4 2.1 1.7 3.2 3.9 3.3 6.6v.9c.1.3.1.5.1.8z"/><path class="st4" d="M495.9 392.5c0 2-.3 3.8-.8 5.7-.8 2.7-1.7 5.3-2.5 8-.5 1.6-1 3.2-1.2 4.9-.1.8-.1 1.8.5 2.5.3.4.8.7 1.3.9.6.3.9.9.8 1.6-.2.6-.8 1-1.4.9l-.9-.3c-1.8-.8-2.7-2.2-2.8-4.1-.1-1.6.1-3 .5-4.5.6-2 1.3-3.9 2-6 .9-2.7 1.8-5.5 2.1-8.3.6-6.1-3.4-11.3-7.7-12.8-2.8-1-5.5-1-8.2.4-1.9 1-3.1 2.6-3.9 4.6-.7 1.7-1.1 3.4-1.3 5.3-.4 3.3-1.7 6.2-4.1 8.5-2.2 2-4.8 3.1-7.7 3.4-.8.1-1.4-.4-1.6-1.1-.1-.8.4-1.4 1.2-1.6 1.9-.2 3.6-.8 5.1-1.9 2.1-1.4 3.4-3.5 4-6 .3-1.2.4-2.5.6-3.7.6-3.3 2-6.3 4.6-8.6 1.8-1.6 3.9-2.4 6.3-2.6 2.4-.2 4.7.2 6.8 1.2 1.1.6 2.3 1.2 3.2 2.2 2.1 1.9 3.5 4.1 4.5 6.7.4 1.4.6 3 .6 4.7z"/><path class="st4" d="M501.7 393.1c-.1 3.7-.8 7.3-2.2 10.9-.3.9-.7 1.8-1.1 2.7-.6 1.8-.7 3.4.4 5 .5.7 1.2 1.2 2.1 1.7.8.4 1 1.2.6 2-.3.5-1 .7-1.6.5-3.1-1.3-4.8-4-4.6-7.3.1-1.3.6-2.6 1.1-3.8 1.9-4.2 2.8-8.7 2.5-13.4-.2-4.1-1.8-7.9-4.5-11-2.1-2.5-4.7-4.2-7.8-5.3-2.4-.8-5-1-7.5-.7-2.5.3-4.8 1.2-6.7 2.8-.6.5-1.3.4-2-.2-.4-.5-.3-1.3.3-1.8 2-1.7 4.2-2.7 6.7-3.2 7.3-1.3 13.6.9 18.6 6.3 2.4 2.6 4 5.6 4.9 9 .7 1.9.8 3.8.8 5.8z"/><path class="st4" d="M481.9 364.9c5.4.1 10.4 1.8 14.7 5 2.9 2.2 5.1 4.9 6.9 8 1.3 2.4 2.4 4.9 3 7.5.2.7-.2 1.4-.8 1.7-.8.2-1.4-.2-1.8-1-.4-1.2-.7-2.6-1.2-3.7-1.3-3.3-3.2-6.2-5.8-8.6-2.4-2.3-5.3-3.9-8.5-5-4.7-1.4-9.3-1.4-13.9.3s-8.1 4.9-10.5 9.1c-1.1 2.1-2.1 4.3-2.7 6.6-.2.8-.8 1.2-1.6 1-.7-.2-1.2-.8-.9-1.7.4-1.2.7-2.6 1.2-3.8.8-2.2 2-4.3 3.4-6.2 3.5-4.6 8.1-7.6 13.8-8.7 1.5-.3 3.2-.5 4.7-.5z"/><path class="st4" d="M481.3 358.5c2.8.1 5.1.3 7.2.8 4.2.9 8.1 2.9 11.5 5.7.5.5 1.1.9 1.7 1.4.6.6.7 1.3.2 2-.5.5-1.3.5-2 0-2.4-2.3-5.1-4.1-8.2-5.4-1.7-.6-3.3-1.1-5.1-1.4-6.1-1-11.9 0-17.3 3.1-1.8 1-3.4 2.3-4.9 3.6-.8.7-2 .4-2.3-.6-.1-.5.1-.9.5-1.3 1.1-.9 2.3-2 3.4-2.8 3.4-2.5 7.2-4 11.5-4.8 1.5-.1 3-.2 3.8-.3zM494.3 423.5c-1.2 0-2.6-.4-3.8-1.2-1.3-.8-2.6-2-3.7-3-.2-.1-.3-.3-.5-.4-.7-.5-1-.5-1.8 0-.6.5-1.2 1.1-1.9 1.8-1.2 1.2-2.5 2.5-3.7 3.5-1.8 1.4-3.8 2.5-6.2 2.9-.7.1-1.3-.3-1.6-1-.1-.7.3-1.4 1-1.6 2.8-.5 5.1-2.1 7-4 1-1.1 2.2-2.2 3.3-3.3.8-.7 1.8-1.3 2.9-1.3.9 0 1.7.3 2.4.8.9.8 1.9 1.7 2.9 2.4.8.7 1.8 1.3 2.9 1.6 1.2.3 2.5 0 3.6-.5l1.2-.6c.7-.4 1.4-.2 1.9.4.4.6.2 1.4-.4 1.9-1.6 1-3.3 1.6-5.5 1.6zM459 396.7c-.8 0-1.3-.5-1.4-1.2 0-.7.5-1.3 1.2-1.3 2.7-.2 4-1.4 4.8-3.9.4-1.6.7-3.1 1-4.7.5-2.1 1.2-4 2.4-5.9.5-.9 1.6-1 2.2-.2.3.4.4.9.1 1.4-1.4 2.4-2.2 5.1-2.7 7.9-.2 1.6-.7 3-1.4 4.3-1.1 2.2-3 3.3-5.4 3.6h-.8zM507.9 397c0 3.1-.4 6.2-1.4 9.1-.5 1.6-1.1 3.1-1.9 4.7-.3.7-1.1 1-1.9.7-.6-.3-.8-1.1-.5-1.9 1.4-2.9 2.4-6 2.7-9.2.3-2.2.3-4.3.1-6.5 0-.6-.1-1.2-.2-1.8-.1-.7.3-1.4 1-1.6.7-.1 1.4.3 1.6 1.1.4 1.8.5 3.7.5 5.4zM484.4 392c-.2 3.9-.9 7.8-2.7 11.3-.6 1.3-1.6 2.6-2.4 3.8-.4.6-1.2.7-1.9.2-.6-.4-.7-1.2-.2-1.9 2.5-3.2 3.7-6.9 4.2-11 .1-1.2.2-2.6.2-3.8 0-.8.6-1.4 1.3-1.3.7 0 1.2.6 1.2 1.4v.2c.3.4.3.8.3 1.1z"/><path class="st4" d="M486.7 425c1.7 0 3.3.2 4.9.7.7.2 1 .8.9 1.6-.2.6-.8 1.1-1.6.9-.6-.1-1.2-.3-1.9-.4-2.8-.5-5.5 0-8 1.4-.6.3-1.1.3-1.7 0-.4-.3-.6-.9-.4-1.4.1-.3.4-.6.7-.8 1.9-1.1 3.8-1.8 6-2 .5.1.8 0 1.1 0zM465 415.2c-.8 0-1.4-.5-1.6-1.1-.1-.6.4-1.2 1-1.4 1.3-.3 2.7-.6 3.9-1 1.8-.5 3.4-1.4 5-2.5.7-.5 1.4-.4 2 .2.4.6.3 1.4-.4 2-2.5 1.8-5.3 2.9-8.3 3.6-.5 0-1.1.1-1.6.2z"/><path class="st3" d="M323.3 350.7h-53.4c-5.7 0-10.3 4.6-10.3 10.3v57.9c0 5.7 4.6 10.3 10.3 10.3h53.4c5.7 0 10.3-4.6 10.3-10.3V361c0-5.7-4.6-10.3-10.3-10.3z"/><g><path class="st4" d="M306.7 402.2h-20.4c-8.1 0-14.5 6.6-14.5 14.5v9.3h49.3v-9.3c.4-8.1-6.3-14.5-14.4-14.5z"/><circle class="st4" cx="296.7" cy="383.3" r="14.7"/></g><g><path style="fill:none;stroke:#385591;stroke-width:3.4425;stroke-linecap:round;stroke-miterlimit:10" d="M267.6 469h240.7"/><circle class="st4" cx="308.3" cy="469" r="5.7"/><circle class="st4" cx="351.9" cy="469" r="5.7"/><circle class="st4" cx="419.2" cy="469" r="5.7"/><circle class="st4" cx="464.1" cy="469" r="5.7"/><circle class="st4" cx="508.3" cy="469" r="5.7"/><circle class="st4" cx="267.6" cy="469" r="5.7"/></g><path class="st7" d="M346.5 383H409M346.5 368.8H430M346.5 397.9h30.3"/></g><g><path class="st5" d="M717.9 183.4H579.3c-2.5 0-4.4 2-4.4 4.4v75.8c0 2.5 2 4.4 4.4 4.4H718c2.5 0 4.4-2 4.4-4.4v-75.7c-.1-2.4-2-4.5-4.5-4.5z"/><path class="st7" d="M622.5 208.9H663M622.5 225.4h83.7M622.5 235.2h83.7M622.5 245.1h43.2"/><g><path class="st4" d="M603.3 228.1v-9.2c0-4.1-3-7.4-6.9-8v-.7c0-.6-.5-1.2-1.2-1.2-.6 0-1.2.5-1.2 1.2v.7c-3.8.6-6.9 3.9-6.9 8v9.2c-1.1.5-1.8 1.7-1.8 3H605c.2-1.4-.5-2.5-1.7-3zM595.4 236.1c2.2 0 3.9-1.7 3.9-3.9h-7.9c0 2.2 1.7 3.9 4 3.9z"/></g></g><g><path class="st14" d="M293.1 68.2h-37.2c-7.9 0-14.3-6.4-14.3-14.3V18.7c0-7.9 6.4-14.3 14.3-14.3h37.2c7.9 0 14.3 6.4 14.3 14.3V54c-.2 7.8-6.6 14.2-14.3 14.2z"/><path class="st5" d="M293.1 68.2h-37.2c-7.9 0-14.3-6.4-14.3-14.3V18.7c0-7.9 6.4-14.3 14.3-14.3h37.2c7.9 0 14.3 6.4 14.3 14.3V54c-.2 7.8-6.6 14.2-14.3 14.2z"/><path class="st4" d="M289.3 52.4c1.5-1.5 2.8-3.1 3.9-4.7.5-1 .3-2.1-.6-2.6s-2.1-.3-2.6.6c-.8 1.5-1.9 2.8-3.2 3.9-.5.3-.6 1-.6 1.5s.2 1 .5 1.3c.5.6 1.8.6 2.6 0zm-13.8-7.9c.8-.2 1.3-.8 1.1-1.5-.2-.8-.8-1.3-1.5-1.1h-.8v2.8c.6-.2.9-.2 1.2-.2zm4.7-2.5c1.5-1.5 2.3-3.6 2.3-5.7h-2.6c0 1.5-.6 2.9-1.6 3.9-.2.2-.3.5-.3.8s.2.6.3 1c.2.2.5.3 1 .3.4.1.8-.1.9-.3zm15.7-2.1c.2-1.1.3-2.4.3-3.7h-3.9c0 1-.2 2.1-.3 3.1-.2 1 .5 2.1 1.6 2.3 1.2.1 2.2-.5 2.3-1.7zm-13.7 16.9c1-.3 1.5-1.5 1.1-2.4-.3-1-1.5-1.5-2.4-1.1-1.9.8-4.2 1.1-6.3 1.1v3.9c2.6-.2 5-.6 7.6-1.5zm7.3-20.6h-3.9c0 6-4.9 11-11 11.2h-.2v3.7h.3c8.1 0 14.8-6.6 14.8-14.9zM274.4 18.3v-3.9c-12 0-21.8 9.9-21.8 21.8h3.9c0-9.8 8-17.9 17.9-17.9z"/><path class="st4" d="M259.4 36.2h3.9c0-6.1 5-11.2 11.2-11.2v-3.9c-8.3.1-15.1 6.9-15.1 15.1z"/><path class="st4" d="M274.2 30.7h.2v-2.6h-.2c-2.1 0-4.2 1-5.7 2.6-1.5 1.5-2.3 3.6-2.3 5.5h2.6c.1-2.9 2.5-5.5 5.4-5.5z"/><g><path class="st14" d="M371.6 68.2h-37.2c-7.9 0-14.3-6.4-14.3-14.3V18.7c0-7.9 6.4-14.3 14.3-14.3h37.2c7.9 0 14.3 6.4 14.3 14.3V54c-.1 7.8-6.5 14.2-14.3 14.2z"/><path class="st5" d="M371.6 68.2h-37.2c-7.9 0-14.3-6.4-14.3-14.3V18.7c0-7.9 6.4-14.3 14.3-14.3h37.2c7.9 0 14.3 6.4 14.3 14.3V54c-.1 7.8-6.5 14.2-14.3 14.2z"/><path class="st6" d="M367.8 52.4c1.5-1.5 2.8-3.1 3.9-4.7.5-1 .3-2.1-.6-2.6s-2.1-.3-2.6.6c-.8 1.5-1.9 2.8-3.2 3.9-.5.3-.6 1-.6 1.5s.2 1 .5 1.3c.5.6 1.8.6 2.6 0zm-13.7-7.9c.8-.2 1.3-.8 1.1-1.5-.2-.8-.8-1.3-1.5-1.1h-.8v2.8c.5-.2.9-.2 1.2-.2zm4.7-2.5c1.5-1.5 2.3-3.6 2.3-5.7h-2.6c0 1.5-.6 2.9-1.6 3.9-.2.2-.3.5-.3.8s.2.6.3 1c.2.2.5.3 1 .3s.7-.1.9-.3zm15.7-2.1c.2-1.1.3-2.4.3-3.7h-3.9c0 1-.2 2.1-.3 3.1s.5 2.1 1.6 2.3c1.1.1 2.1-.5 2.3-1.7zm-13.8 16.9c1-.3 1.5-1.5 1.1-2.4-.3-1-1.5-1.5-2.4-1.1-1.9.8-4.2 1.1-6.3 1.1v3.9c2.6-.2 5-.6 7.6-1.5zm7.3-20.6h-3.9c0 6-4.9 11-11 11.2h-.1v3.7h.3c8.1 0 14.7-6.6 14.7-14.9zM353 18.3v-3.9c-12 0-21.8 9.9-21.8 21.8h3.9c-.1-9.8 8-17.9 17.9-17.9z"/><path class="st6" d="M337.9 36.2h3.9c0-6.1 5-11.2 11.2-11.2v-3.9c-8.3.1-15.1 6.9-15.1 15.1z"/><path class="st6" d="M352.8 30.7h.2v-2.6h-.2c-2.1 0-4.2 1-5.7 2.6-1.5 1.5-2.3 3.6-2.3 5.5h2.6c.1-2.9 2.5-5.5 5.4-5.5z"/></g><g><path class="st14" d="M450.2 68.2H413c-7.9 0-14.3-6.4-14.3-14.3V18.7c0-7.9 6.4-14.3 14.3-14.3h37.2c7.9 0 14.3 6.4 14.3 14.3V54c-.2 7.8-6.6 14.2-14.3 14.2z"/><path class="st5" d="M450.2 68.2H413c-7.9 0-14.3-6.4-14.3-14.3V18.7c0-7.9 6.4-14.3 14.3-14.3h37.2c7.9 0 14.3 6.4 14.3 14.3V54c-.2 7.8-6.6 14.2-14.3 14.2z"/><path class="st4" d="M446.4 52.4c1.5-1.5 2.8-3.1 3.9-4.7.5-1 .3-2.1-.6-2.6-1-.5-2.1-.3-2.6.6-.8 1.5-1.9 2.8-3.2 3.9-.5.3-.6 1-.6 1.5s.2 1 .5 1.3c.5.6 1.8.6 2.6 0zm-13.8-7.9c.8-.2 1.3-.8 1.1-1.5-.2-.8-.8-1.3-1.5-1.1h-.8v2.8c.6-.2.9-.2 1.2-.2zm4.7-2.5c1.5-1.5 2.3-3.6 2.3-5.7H437c0 1.5-.6 2.9-1.6 3.9-.2.2-.3.5-.3.8s.2.6.3 1c.2.2.5.3 1 .3.4.1.8-.1.9-.3zm15.7-2.1c.2-1.1.3-2.4.3-3.7h-3.9c0 1-.2 2.1-.3 3.1s.5 2.1 1.6 2.3c1.2.1 2.2-.5 2.3-1.7zm-13.7 16.9c1-.3 1.5-1.5 1.1-2.4-.3-1-1.5-1.5-2.4-1.1-1.9.8-4.2 1.1-6.3 1.1v3.9c2.6-.2 5-.6 7.6-1.5zm7.2-20.6h-3.9c0 6-4.9 11-11 11.2h-.2v3.7h.3c8.2 0 14.8-6.6 14.8-14.9zM431.5 18.3v-3.9c-12 0-21.8 9.9-21.8 21.8h3.9c-.1-9.8 8-17.9 17.9-17.9z"/><path class="st4" d="M416.5 36.2h3.9c0-6.1 5-11.2 11.2-11.2v-3.9c-8.3.1-15.1 6.9-15.1 15.1z"/><path class="st4" d="M431.3 30.7h.2v-2.6h-.2c-2.1 0-4.2 1-5.7 2.6-1.5 1.5-2.3 3.6-2.3 5.5h2.6c.1-2.9 2.5-5.5 5.4-5.5z"/></g></g><g><path class="st10" d="M489.3 239.7c-2.8 2.6-5.3 5.5-7.3 8.9-1 1.7-.5 3.8 1.2 4.9 1.7 1 3.8.5 4.9-1.2 1.6-2.7 3.7-5.2 5.9-7.3.7-.7 1.1-1.6 1.1-2.6 0-.9-.4-1.7-1-2.5-1.1-1.5-3.3-1.6-4.8-.2zm25.3 14.7c-1.4.2-2.3 1.5-2.1 2.8.2 1.4 1.5 2.3 2.8 2.1.5 0 1-.1 1.4-.1v-4.9c-.8 0-1.5 0-2.1.1zm-8.7 4.4c-2.8 2.8-4.3 6.5-4.3 10.6h4.7c0-2.7 1.1-5.3 3-7.3.5-.5.6-1 .6-1.6 0-.6-.2-1.2-.7-1.7s-1-.7-1.7-.6c-.5 0-1.1.3-1.6.6zm-29.2 3.7c-.4 2.2-.6 4.5-.6 6.8h7.1c0-1.8.1-3.8.5-5.7.4-2-1-3.8-3-4.1-1.7-.2-3.6 1.2-4 3zm25.9-30.9c-1.8.7-2.8 2.7-2.1 4.5.7 1.8 2.7 2.8 4.5 2.1 3.7-1.4 7.6-2.1 11.7-2.1V229c-4.9 0-9.7.8-14.1 2.6zm-13.8 37.8h7.1c0-11.2 9.1-20.5 20.3-20.8h.5v-7h-.6c-15 .3-27.3 12.8-27.3 27.8z"/></g><path class="st4" d="M198.3 97.6H95.4c-2.3 0-4.2 1.8-4.2 4.2v112c0 2.3 1.8 4.2 4.2 4.2h102.9c2.3 0 4.2-1.8 4.2-4.2v-112c0-2.4-2-4.2-4.2-4.2z"/><g><path class="st6" d="M717.9 285.2H579.3c-2.5 0-4.4 2-4.4 4.4v75.8c0 2.5 2 4.4 4.4 4.4H718c2.5 0 4.4-2 4.4-4.4v-75.8c-.1-2.5-2-4.4-4.5-4.4z"/><path class="st15" d="M622.5 307.5H663M622.5 324h83.7M622.5 333.8h83.7M622.5 343.7h43.2"/><path class="st5" d="M603.2 310.5v-1.7c0-3.6-2.6-6.6-6-7.1-4.2-.5-7.9 2.7-7.9 6.9v2h-.1c-2.1 0-3.8 1.7-3.8 3.8v9.5c0 2.1 1.7 3.8 3.8 3.8h14c2.1 0 3.8-1.7 3.8-3.8v-9.5c0-2.2-1.7-3.9-3.8-3.9zm-5.8 8.6v4.1h-2.6v-4.1c-.7-.5-1.2-1.2-1.2-2.1 0-1.4 1.1-2.5 2.5-2.5s2.5 1.1 2.5 2.5c.1.9-.4 1.7-1.2 2.1zm2.4-8.6h-7v-2c0-2 1.6-3.6 3.6-3.6s3.6 1.6 3.6 3.6v2h-.2z"/></g><g><path class="st4" d="M717.9 81.7H579.3c-2.5 0-4.4 2-4.4 4.4V162c0 2.5 2 4.4 4.4 4.4H718c2.5 0 4.4-2 4.4-4.4V86.1c-.1-2.4-2-4.4-4.5-4.4z"/><path class="st16" d="M622.5 104.1H663M622.5 120.6h83.7M622.5 130.4h83.7M622.5 140.1h43.2"/><path class="st5" d="M607.9 117c-.6-.4-1.2-.7-1.8-1.1-.1-.1-.2-.1-.2-.2.1-.6.1-1.2.1-1.8 0-.6 0-1.2-.1-1.8 0-.1.1-.1.2-.2.6-.4 1.2-.7 1.8-1.1.5-.2.6-.6.5-1.2-.5-1.5-1.2-3-2.3-4.2-.6-.6-.9-.7-1.6-.2-.6.4-1.2 1-2 1h-.1c-.9-.7-2-1.4-3.1-1.7-.1-.2-.1-.5-.1-.9V102c0-.7-.2-1-.9-1.1-.5-.1-.9-.1-1.4-.2h-2c-.5.1-.9.1-1.4.2-.7.1-.9.4-.9 1.1v2.1c0 .1 0 .2-.1.4-1.1.4-2.2 1-3.2 1.8-.1 0-.2 0-.4-.1-.6-.4-1.2-.7-2-1.1-.4-.2-.7-.2-1 .1-1.2 1.2-2.1 2.8-2.7 4.5-.1.5 0 .7.5 1 .6.4 1.2.7 1.8 1 .1.1.2.1.4.2-.1.6-.1 1.2-.1 1.8 0 .6 0 1.1.1 1.7 0 .1-.1.2-.2.2-.6.4-1.2.7-1.8 1.1-.6.4-.7.6-.5 1.2.5 1.5 1.2 2.8 2.2 4.1.6.7.9.7 1.7.2.6-.4 1.2-1 1.8-1h.1c.9.7 2 1.4 3.1 1.7.1.2.1.5.1.9v1.6c0 .7.2 1 .9 1.1.5.1.9.1 1.4.2h2c.5-.1.9-.1 1.4-.2.7-.1 1-.4 1-1.1v-2.1c0-.1 0-.2.1-.2 1.1-.4 2.2-1 3.1-1.8.1 0 .2 0 .4.1.6.4 1.2.7 1.8 1.1.4.2.7.2 1.1-.1 1.2-1.2 2.1-2.8 2.6-4.4.3-.4.2-.8-.3-1zm-7.8-3.1c0 2.2-2 4.2-4.2 4.1-2.2 0-4.1-2-4.1-4.2s2-4.2 4.2-4.1c2.2.2 4.1 2 4.1 4.2z"/></g><path class="st11" d="M138.5 149.1c-.5 0-1.1-.2-1.5-.6-1.2-1.4-2.6-2.5-4.2-3.4-1-.6-1.2-1.8-.7-2.8.6-1 1.8-1.2 2.8-.7 1.8 1.1 3.6 2.6 5 4.2.7.9.7 2.1-.1 2.8-.4.4-.8.5-1.3.5zm2.3 27.1c3.4-4.2 5.3-9.5 5.3-14.8 0-2.8-.5-5.5-1.5-8.1-.4-1.1-1.6-1.6-2.6-1.2-1.1.4-1.6 1.6-1.2 2.6.9 2.1 1.2 4.4 1.2 6.8 0 4.4-1.6 8.7-4.4 12.2-.7.9-.6 2.2.2 2.8.4.4.9.5 1.4.5.6 0 1.2-.3 1.6-.8zm-4.6-6c.6-1 .4-2.2-.6-2.8-1-.6-2.2-.4-2.8.6-2.2 3.3-5.9 5.4-10 5.4-1.1 0-2.3-.1-3.4-.5s-2.2.2-2.6 1.4c-.4 1.1.2 2.2 1.4 2.6 1.5.5 3.1.6 4.5.6 5.6-.1 10.6-2.9 13.5-7.3zm-28.2 6.3c.9-.7 1-2 .2-2.8-2.8-3.4-4.4-7.7-4.4-12.3 0-10.6 8.6-19.2 19.2-19.2 1.1 0 2.2.1 3.2.2 1.1.2 2.2-.6 2.3-1.7.2-1.1-.6-2.2-1.7-2.3-1.2-.2-2.6-.4-3.9-.4-12.8 0-23.2 10.4-23.2 23.2 0 5.4 2 10.7 5.4 14.9.4.5 1 .7 1.6.7.4.2.9.1 1.3-.3zm5.1-4.9c.9-.7 1-2 .4-2.8-1.7-2.1-2.6-4.7-2.6-7.4 0-6.5 5.3-11.9 11.9-11.9 6.4 0 11.8 5.3 11.9 11.7 0 1.1 1 2 2.1 2s2-1 2-2.1c-.1-8.6-7.4-15.6-16-15.6-8.9 0-16 7.1-16 16 0 3.7 1.2 7 3.4 10 .4.5 1 .7 1.6.7.6-.1 1-.3 1.3-.6zm18.5-9.5v-.7c0-.4 0-.9-.1-1.2-.1-.7-.9-1.4-1.6-1.2s-1.4.9-1.2 1.6v1.4c-.1.7.5 1.5 1.4 1.5h.1c.6-.2 1.4-.7 1.4-1.4zm-8.5 7.9c2.3-.1 4.4-1 6-2.7.5-.5.5-1.4-.1-1.8-.2-.2-.6-.4-.9-.4-.4 0-.7.1-1 .4-1.1 1.2-2.6 1.8-4.2 1.8h-.1c-1.5 0-3-.6-4.1-1.6-1.1-1.1-1.8-2.6-1.8-4.2-.1-3.3 2.5-6 5.8-6.1h.1c1.6 0 3.1.6 4.2 1.7.2.2.6.4 1 .4s.7-.1 1-.4c.2-.2.4-.6.4-1s-.1-.7-.4-1c-1.6-1.6-3.8-2.5-6-2.5h-.2c-2.3.1-4.4 1-6 2.7-1.6 1.7-2.5 3.8-2.3 6.1.1 2.3 1 4.4 2.7 6 1.6 1.5 3.7 2.3 5.9 2.3-.1.3 0 .3 0 .3zm28-6.9c0 .7.1 1.5.5 2.2.2.7.7 1.5 1.4 2 .6.6 1.5 1.1 2.5 1.5 1 .4 2.2.6 3.7.6 1.1 0 2.2-.1 3.2-.4 1-.2 1.8-.6 2.6-1.1.7-.5 1.2-1.1 1.7-1.8.4-.7.6-1.6.6-2.5 0-.6-.1-1.2-.2-1.7s-.4-1-.6-1.4c-.2-.4-.6-.7-1.1-1-.4-.2-.9-.6-1.4-.7-.5-.2-1.1-.5-1.6-.6-.6-.1-1.2-.4-1.8-.5-.6-.1-1.1-.2-1.6-.4-.5-.1-.9-.2-1.2-.5-.4-.1-.6-.4-.9-.6-.2-.2-.4-.5-.4-.9 0-.2 0-.5.1-.6.1-.2.2-.4.5-.6.2-.1.5-.4.9-.4.4-.1.9-.1 1.5-.1.5 0 1 0 1.4.1.4.1.6.2.9.5.2.2.4.4.5.7.1.2.1.5.1.9h4.4c0-.9-.1-1.7-.5-2.5-.2-.7-.7-1.4-1.4-1.8-.6-.5-1.4-.9-2.1-1.2-.9-.2-1.8-.4-3-.4-1.4 0-2.5.1-3.4.4-1 .2-1.7.6-2.3 1.2-.6.5-1.1 1.1-1.4 2-.2.7-.5 1.6-.5 2.6 0 .6.1 1.2.4 1.6.2.5.5.9.9 1.2.4.4.7.6 1.2.9.5.2.9.5 1.4.6.5.1.9.2 1.4.4.5.1.9.2 1.2.2.7.2 1.4.4 2 .5.6.1 1 .4 1.5.5.4.1.7.4.9.7.2.2.4.6.4 1.1 0 .4-.1.6-.2.9-.1.2-.4.5-.6.6s-.6.4-1.1.4c-.5.1-1 .1-1.6.1-1.1 0-2.1-.2-2.7-.7s-1-1.1-1-1.8h-4.8v-.2zm18.3-9-2.2.9v3.2h2.2v5c0 1.2.1 2.2.5 3 .4.7.7 1.4 1.2 1.7.5.4 1.1.7 1.8.9.7.1 1.5.2 2.2.2h2.8v-3.4h-2.2c-.2 0-.5 0-.7-.1-.2-.1-.5-.1-.6-.4-.1-.1-.4-.4-.4-.7-.1-.2-.1-.6-.1-1.1v-5h4.2v-3.7H174v-3.9h-3.1l-1.5 3.4zm20.1.5-3.3 8.6-3.3-8.6h-4.5l6 14.3h3.8l6-14.3h-4.7z"/><path class="st5" d="M629.2 36.5h-15.5c-.7 0-1.4-.6-1.4-1.4 0-.7.6-1.4 1.4-1.4h15.5c.7 0 1.4.6 1.4 1.4-.1.8-.7 1.4-1.4 1.4zm1.3 4.3c0-.7-.6-1.4-1.4-1.4h-15.5c-.7 0-1.4.6-1.4 1.4 0 .7.6 1.4 1.4 1.4h15.5c.8-.1 1.4-.7 1.4-1.4zm0 5.6c0-.7-.6-1.4-1.4-1.4h-15.5c-.7 0-1.4.6-1.4 1.4 0 .7.6 1.4 1.4 1.4h15.5c.8 0 1.4-.6 1.4-1.4z"/><g><path class="st5" d="M528.7 269.8H243.1c-2.6 0-4.8-2.1-4.8-4.8V101.6c0-2.6 2.1-4.8 4.8-4.8h285.6c2.6 0 4.8 2.1 4.8 4.8V265c0 2.7-2.2 4.8-4.8 4.8z"/><path class="st17" d="M356.3 128.9h129.2M356.3 141.2h129.2M356.3 153.6h66.8M356.3 197.2h62.5M356.3 182.9h83.5M356.3 212.1h30.3"/><path class="st6" d="M414.6 226.2h-49.2c-5.4 0-9.8 4.4-9.8 9.8s4.4 9.8 9.8 9.8h49.2c5.4 0 9.8-4.4 9.8-9.8s-4.4-9.8-9.8-9.8z"/><path style="fill:none;stroke:#fff;stroke-width:3.6876;stroke-linecap:round;stroke-miterlimit:10" d="M368.6 236h43.8"/></g><g><path class="st3" d="M338.3 207.3c0 3.8-3.1 6.9-6.9 6.9h-64.9c-3.9 0-7.1-3.2-7.1-7.1V127.4c0-3.8 3.1-6.9 6.9-6.9h65c3.8 0 6.9 3.1 6.9 6.9v79.9h.1z"/></g><path class="st11" d="M298.8 147c-11.3 0-20.4 9.1-20.4 20.4 0 11.3 9.2 20.4 20.4 20.4s20.4-9.2 20.4-20.4-9.1-20.4-20.4-20.4zm-5.3 30.5v-20.2l14.3 10.1-14.3 10.1z"/><g><path class="st19" d="M58.7 425.3h121.2M58.7 443.1h121.2M58.7 407.2h121.2M58.7 460.9h121.2"/><text transform="translate(48.531 408.364)"><tspan x="0" y="0" class="st4 st20 st21">10</tspan><tspan x="0" y="27" class="st4 st20 st21">50</tspan><tspan x="0" y="54.1" class="st4 st20 st21">60</tspan></text><text transform="translate(68.115 469.007)" class="st4 st20 st21">Ene            Feb            Mar           Abr</text><path d="M61.7 413.2c4-.2 7.6 3.8 9.9 8.5 2.3 4.7 3.7 10.2 5.7 15.1s5 9.5 9 10.6c3.3.9 6.7-.8 9.5-3.4 2.8-2.6 5.2-6 7.8-9 8.2-9.6 18.6-15.2 29.2-15.6 8.1-.3 16.2 2.3 24.3 2.8 8.1.5 16.9-1.5 22.8-9.5" style="fill:none;stroke:#2c4f59;stroke-width:2.4584;stroke-linecap:round;stroke-miterlimit:10"/><path d="M63 460c7.5-9.7 15-19.4 23.7-26.6 8.7-7.2 18.7-11.7 28.6-10.1 8 1.3 15.4 6.5 23 10.2 13.4 6.6 27.7 8.7 41.7 6.3" style="fill:none;stroke:#83969c;stroke-width:2.4584;stroke-linecap:round;stroke-miterlimit:10"/></g></g></svg>