<svg version="1.1" id="Layer_1" xmlns="http://www.w3.org/2000/svg" xmlns:xlink="http://www.w3.org/1999/xlink" x="0" y="0" viewBox="0 0 500 500" style="enable-background:new 0 0 500 500" xml:space="preserve"><style>.st0{opacity:.2}.st2{fill:#6cb43e}.st8{fill:#a7a7a7}.st9{fill:gray}.st13{fill:#aeaeae}.st14{fill:#484c52}.st16{fill:#1a1b1b}.st19{fill:#070707}.st42{fill:#e3e2e4}.st43{fill:#96a7a0}.st45{fill:#5c7d82}.st52{fill:#b9babd}.st73{fill:#fccfc2}.st75{fill:#86ae40}.st79{fill:#fcc7aa}.st80{fill:#fdd4be}.st83{fill:none}.st90{fill:#fff}.st100{fill:#8f8f8f}.st101{fill:#f6b292}.st102{fill:#e38b69}.st104{fill:#904432}.st109{fill:#ed9f7e}.st111{fill:#9c9c9c}.st112{fill:#7f885f}.st113{fill:#bfbfbf}.st115{fill:#5b6b27}</style><path d="M110.9 478.6c9.2 7.5 19 14.5 29.5 21H500V82.5C427 66.9 352.2 56 275.4 59.4c-22.3 1-45.4 3.4-64.7 11.7s-33.7 23.9-30 39c3 12.5 17 26.2 5 36.2-3.4 2.9-8.4 4.6-13.2 6.2-25 7.9-52.2 12.3-75.7 22.1-36.5 15.2-60.5 42.4-70.9 70.7s-8.4 57.8-2.4 86.2C34.8 385 61 437.8 110.9 478.6z" style="fill:#dfd1c2" class="st0"/><g id="Layer_1_1_"><path id="XMLID_1129_" class="st2" d="M219.1 305.8h165.5v192.1H219.1z"/><path id="XMLID_1097_" style="fill:#356400" d="M384.5 313.5v30l-84.3 51.8-28.9-16.5z"/><path d="M.1 383.2v65.1L53 478.9c19.2 11.1 48.1-1.8 64.7-11.3L402 303.4v-20.5L.1 383.2z" style="fill:#727272"/><path d="M279 212.3.1 373.3v41L53 444.4c19.2 11.1 48.1 12.3 64.7 2.7L402 282.9l-123-70.6z" style="fill:#bababa"/><g id="XMLID_38_"><path class="st2" d="M445.8 499.7v-.1l-21.7-3.7h-99.4v3.8z"/><path style="fill:#5ba425" d="M424.1 499.7v-3.8l-30.8 3.8z"/><path style="fill:#b8b8b8" d="m251.8 494.3 2.1 5.4h191.9v-29.1l-1.4-.7-20.3 12.2-9.1 5.5-10.9 6.6-2.1-1.2-36.3-20.9-.2-.1-136-78.7-22.1-12.8 18.4 47.1z"/><path class="st8" d="M424.1 499.7v-17.6l-20 12.1-2.1-1.2v6.7z"/><path class="st9" d="M402 499.7V493l-172.5-99.7-22.1-12.7 46.5 119.1z"/><path style="fill:#909090" d="M402 499.7V493l-172.5-99.7 42 106.4z"/><path style="fill:#dfdfdf" d="M445.8 499.7v-29.1l-1.4-.7-40.3-19.9L.1 216.5v283.2z"/><path style="fill:#4a4a4a" d="M.1 230.8v65.9l57-32.9z"/><path class="st13" d="M445.8 499.7v-29.1l-21.7 12.6-8.1 4.8-13.6 7.9h-.1l-.3.1-5.6 3.2-.1.1-.6.4z"/><path class="st8" d="M.1 230.8v9.8l48.4 28.2 8.6-5z"/></g><g id="XMLID_16187_"><g id="XMLID_16301_"><g id="XMLID_16302_"><g id="XMLID_16323_"><path id="XMLID_16331_" class="st14" d="M276.7 286.6v16.3L198 348.3v-9.2c0-9.6-2.7-10.7-7.5-18.6-3.8-6.2-8.9-11.7-15-15.9l-37.9-25.8 5.4-3.1 73.3-42.3 44 25.8 1.7 1.6c1.1 1 2.1 2.1 3 3.2 2.6 3 4.9 6.3 6.7 9.8 3.3 6.2 5 5.4 5 12.8z"/><path id="XMLID_16330_" d="M276.7 286.6v16.3L198 348.3v-9.2c0-9.6-2.7-10.7-7.5-18.6l81.1-46.8c3.4 6.3 5.1 5.5 5.1 12.9z" style="fill:#3d3e47"/><path id="XMLID_16329_" class="st16" d="m265.1 263.7-71.4 41.2-50.6-29.4 73.3-42.3 44 25.8 1.7 1.6c1 .9 2.1 2 3 3.1z"/><g id="XMLID_16325_"><path id="XMLID_16328_" style="fill:#2b3434" d="M191 263.2v8.6l-14.7 8.5v-8.5z"/><path id="XMLID_16327_" class="st16" d="m190.9 263.3-6.4-3.6-14.6 8.5 6.3 3.7z"/><path id="XMLID_16326_" style="fill:#0c0d0d" d="m170 268.1-5.2 5.6 11.6 6.6v-8.5z"/></g><path id="XMLID_16324_" class="st19" d="m183.4 306-1.5-1.4-44.2-26v34.8l60.4 34.8v-16.3c.1-12.9-5.3-17.1-14.7-25.9z"/></g><g id="XMLID_16306_"><g id="XMLID_16307_"><path id="XMLID_16314_" class="st14" d="m146.4 227 88.9-51.3 8.8-3.7-88.8 51.2z"/><path id="XMLID_16313_" class="st19" d="m146.4 227 41.6 82.5 9.3-2.5-42-83.8z"/><path id="XMLID_16312_" style="fill:#4b4c59" d="m286.2 255.7-51.9 29.9-37 21.4-42-83.8 58.9-33.9 29.9-17.3z"/><path id="XMLID_16311_" style="fill:#616273" d="m234.3 285.6-37 21.4-42-83.8 58.9-33.9z"/><path id="XMLID_16310_" style="fill:#8198ed" d="m276.7 252.9-45.8 26.4-30.6 17.7-35.6-71 49.1-28.3 27.3-15.7z"/><path id="XMLID_16309_" style="fill:#9bbefa" d="m229.4 277.9-29.2 16.9-34-67.8 46.9-27.1z"/><path id="XMLID_16308_" style="fill:#586074" d="m241.1 182-2.3 1.3 34.9 69.6-74.1 42.7.7 1.4 76.4-44.1z"/></g></g><path id="XMLID_16305_" class="st19" d="M276.7 252.9h-3l-34.9-69.6 2.3-1.3z"/><path id="XMLID_16304_" style="fill:#e7efed" d="m269.4 249.4-39.9 23.1-29.1 16.8-29.8-60.4 44.4-25.7 24.6-14.2z"/></g></g></g><path class="st13" d="M111.8 310.1.1 374.8v58.4L82 480.5l162.2-94z"/><path style="fill:#c2c2c2" d="M110.2 319.3.1 383.1v48.7l79.3 45.7 152.1-88.2z"/><path id="XMLID_26_" style="fill:#9f9ba2" d="m127.1 398.6-44.6-25.9 36.4-21 44.6 25.9z"/><g id="XMLID_7457_"><g id="XMLID_7555_"><path id="XMLID_58_" d="m242.2 412.1-41.6 38c-4.1 3.7-3.4 10.2 1.3 13.1 6.7 4.1 15 9.2 17.4 10.7l20.6 11.9c4.6 2.9 10.2 4.4 13 2.8l21.6-35.8c1.9-1.1 2.8-2.7 2.5-4.7l24.2-18.1c-.8-5.4-31.6-21-42-23.4-6.1-1.4-12.9.6-17 5.5z" style="fill:#cacaca"/></g><path id="XMLID_7554_" d="M321.4 421.4 308 434.7l-24.9 24.6-25.4 21.9-8.8 8.1-12.9-7.5-17.6-10.2c-5-2.9-9.5-3.4-12-8.7l-.5-1.2c-.1-.3-.2-.6-.2-.8 0-.1 0-.2-.1-.3-.1-.2-.1-.5-.1-.7V459.1c-.1-1.6.2-3.1.8-4.5.2-.5.5-1 .8-1.5.2-.2.3-.5.5-.7.3-.4.7-.7 1-1.1l31.6-26.7 27.2-23.6c.9-.8 1.8-1.5 2.8-2 3.5-1.9 7.6-2.1 11.4-.5 1.1.5 2.1 1 3 1.7l36.8 21.2z" style="fill:#e0eae7"/><path id="XMLID_7553_" style="fill:#46404d" d="m264.6 407-21.1 18.2 34 19.5 21.1-18.2 9.8-5.5-38.1-22.1z"/><linearGradient id="XMLID_3_" gradientUnits="userSpaceOnUse" x1="-254.751" y1="-234.897" x2="-206.324" y2="-234.897" gradientTransform="matrix(1 0 0 -1 498.252 200)"><stop offset=".208" style="stop-color:#766f7a"/><stop offset="1" style="stop-color:#6a666d"/></linearGradient><path id="XMLID_7552_" style="fill:url(#XMLID_3_)" d="m254.8 426.7-11.1-1.6-.2.1 34 19.5 14.4-12.4-4.7-.7z"/><path id="XMLID_7551_" d="m315.4 425.1 4.6-4.6-35.3-20.4c-.9-.7-1.9-1.2-3-1.7-3.7-1.6-7.9-1.3-11.4.5l45.1 26.2z" style="fill:#635e69"/><path id="XMLID_7550_" d="m317.2 422.8-43.3-25.1c-1.2.3-2.5.7-3.6 1.3l45.1 26.1 4.6-4.6-.3-.2-2.5 2.5z" style="fill:#78c54d"/><path id="XMLID_7549_" style="fill:#82cdff" d="m267.1 408.9-17.3 14.9 27.8 16 17.3-14.9z"/><path id="XMLID_7548_" style="fill:#79757e" d="m267.1 410.8 26.6 15.2 1.2-1.1-27.8-16-17.3 14.9 1.3.8z"/><path id="XMLID_7547_" style="fill:#acd8e2" d="m277.6 439.8 9.6-8.2-32.4-4.9z"/><path id="XMLID_7546_" d="m257.7 481.2-8.8 8.1-12.9-7.5s-20.9-11.4-22.8-12.6c-3.8-2.5-6-4.2-6.8-6.4l-.5-1.2c-.1-.3-.2-.6-.2-.8-.1-.6-.2-1.1-.2-1.7 0-2.3 1.1-4.5 3.9-5.7l36.5 21.1 8.6 5 3.2 1.7z" style="fill:#8caea0"/><path id="XMLID_7545_" d="m257.7 481.2-4.3 7.1-14.1-8.2-33.6-19.6c0-.2-.1-.3-.1-.5v-1c-.1-1.6.2-3.1.8-4.5.2-.5.5-1 .8-1.5.2-.2.3-.5.5-.7l38.3 22.2 8.6 5 3.1 1.7z" style="fill:#b4cac1"/><path id="XMLID_7544_" d="m305.5 423-58.7 50.5c-3.2 3-4.1 7.6-2.2 11.5 2.1 4.4 7.4 6 11.6 3.6l63.2-36.2c2.9-1.7 5.2-4.1 6.7-7.1l1.6-3.4c4-8.1.3-17.9-8-21.5-4.8-1.9-10.3-1-14.2 2.6z" style="fill:#cbdad4"/><path id="XMLID_7543_" d="M251.8 488.2c-1.8 0-3.5-.9-4.3-2.4-1.6-2.8-1.1-6.3 1.2-8.5l58.6-50.4c2-1.8 4.4-2.8 7-2.8 1.4 0 2.7.3 3.9.8 3.4 1.5 6 4.3 7.1 7.9 1 3.2.6 6.7-.9 9.7l-1.8 3.6c-1 2-2.6 3.7-4.6 4.9l-63.8 36.5c-.6.4-1.5.7-2.4.7z" style="fill:#a7c2b9"/><path id="XMLID_7542_" d="M252.1 486.7c-1.8 0-3.5-.9-4.3-2.4-1.6-2.8-1.1-6.3 1.2-8.5l58.6-50.4c2-1.8 4.4-2.8 7-2.8 1.4 0 2.7.3 3.9.8 3.4 1.5 6 4.3 7.1 7.9 1 3.2.6 6.7-.9 9.7l-1.8 3.6c-1 2-2.6 3.7-4.6 4.9L254.7 486c-.8.4-1.7.7-2.6.7z" style="fill:#d7e3df"/><path id="XMLID_7541_" class="st42" d="M296.9 422c-.2 0-.3 0-.5.1-.4 0-.7.1-1.1.1v-.3c-.1-.3-.3-.5-.6-.7h-.1c-.2-.1-.4-.2-.7-.2-.1 0-.3 0-.4-.1h-.6v-1c.4-.1.7-.1 1.1 0 .6 0 1.1.2 1.6.4.9.4 1.4.9 1.3 1.7z"/><path id="XMLID_7540_" class="st42" d="M299.4 421.7c-.2 0-.3 0-.5.1-.4 0-.8.1-1.1.1 0-.6-.2-1.2-.8-1.6-.2-.1-.3-.2-.5-.4-.1-.1-.2-.1-.3-.1-.4-.2-.8-.3-1.2-.3-.4-.1-.8-.1-1.2-.1h-.6v-1.1c.7-.1 1.3-.1 1.9 0 .7.1 1.4.2 2 .5.3.1.6.3.8.4 1 .7 1.5 1.5 1.5 2.5z"/><path id="XMLID_7539_" class="st42" d="M301.8 421.4h-.1c-.5.1-1 .1-1.5.2 0-1.2-.5-2.1-1.7-2.8-.1-.1-.2-.1-.3-.2-.9-.5-2-.8-3.2-.8h-.9c-.3 0-.7 0-1 .1v-1c.5-.1.9-.1 1.3-.1h.5c1.4 0 2.7.3 3.9.8.2.1.3.1.4.2 1.9.9 2.6 2.1 2.6 3.6z"/><g id="XMLID_7522_"><g id="XMLID_7535_"><path id="XMLID_7538_" class="st43" d="M269.9 447.8c-.6.4-1.4.4-2.1 0l-4.3-2.5c-.6-.4-.7-1.2-.2-1.6l1-.7c.6-.4 1.4-.4 2.1 0l4.3 2.5c.6.4.7 1.2.2 1.6l-1 .7z"/><linearGradient id="XMLID_4_" gradientUnits="userSpaceOnUse" x1="-1600.034" y1="-264.813" x2="-1591.192" y2="-264.813" gradientTransform="matrix(-.9089 .006 -.1375 -.9905 -1218.026 193.63)"><stop offset=".007" style="stop-color:#1c1e27"/><stop offset=".007" style="stop-color:#1f1a1c"/><stop offset=".211" style="stop-color:#1f1a1c"/><stop offset=".212" style="stop-color:#343843"/><stop offset=".975" style="stop-color:#343843"/><stop offset=".975" style="stop-color:#292c34"/></linearGradient><path id="XMLID_7537_" d="m265 446.3 4.3 2.5c.7.4 1.5.4 2.1 0l1-.7c.3-.2.4-.5.3-.9-.1-.3-.1-1.4-.4-1.5l-4.4-1.7c-.7-.4-1.5-.4-2.1 0l-1.4.2c-.2.1 0 .7.1 1.2 0 .3.2.7.5.9z" style="fill:url(#XMLID_4_)"/><path id="XMLID_7536_" class="st45" d="M271.3 447.6c-.6.4-1.4.4-2.1 0l-4.3-2.5c-.6-.4-.7-1.2-.2-1.6l1-.7c.6-.4 1.4-.4 2.1 0l4.3 2.5c.6.4.7 1.2.2 1.6l-1 .7z"/></g><g id="XMLID_7531_"><path id="XMLID_7534_" class="st43" d="M261.2 442.9c-.6.4-1.4.4-2.1 0l-4.3-2.5c-.6-.4-.7-1.2-.2-1.6l1-.7c.6-.4 1.4-.4 2.1 0l4.3 2.5c.6.4.7 1.2.2 1.6l-1 .7z"/><linearGradient id="XMLID_5_" gradientUnits="userSpaceOnUse" x1="-1591.254" y1="-259.784" x2="-1582.41" y2="-259.784" gradientTransform="matrix(-.9089 .006 -.1375 -.9905 -1218.026 193.63)"><stop offset=".007" style="stop-color:#1c1e27"/><stop offset=".007" style="stop-color:#1f1a1c"/><stop offset=".211" style="stop-color:#1f1a1c"/><stop offset=".212" style="stop-color:#343843"/><stop offset=".975" style="stop-color:#343843"/><stop offset=".975" style="stop-color:#292c34"/></linearGradient><path id="XMLID_7533_" d="m256.4 441.4 4.3 2.5c.7.4 1.5.4 2.1 0l1-.7c.3-.2.4-.5.3-.9-.1-.3-.1-1.4-.4-1.5l-4.4-1.7c-.7-.4-1.5-.4-2.1 0l-1.4.2c-.2.1 0 .7.1 1.2 0 .3.1.7.5.9z" style="fill:url(#XMLID_5_)"/><path id="XMLID_7532_" class="st45" d="M262.6 442.6c-.6.4-1.4.4-2.1 0l-4.3-2.5c-.6-.4-.7-1.2-.2-1.6l1-.7c.6-.4 1.4-.4 2.1 0l4.3 2.5c.6.4.7 1.2.2 1.6l-1 .7z"/></g><g id="XMLID_7527_"><path id="XMLID_7530_" class="st43" d="M252.5 438c-.6.4-1.4.4-2.1 0l-4.3-2.5c-.6-.4-.7-1.2-.2-1.6l1-.7c.6-.4 1.4-.4 2.1 0l4.3 2.5c.6.4.7 1.2.2 1.6l-1 .7z"/><linearGradient id="XMLID_6_" gradientUnits="userSpaceOnUse" x1="-1582.459" y1="-254.757" x2="-1573.616" y2="-254.757" gradientTransform="matrix(-.9089 .006 -.1375 -.9905 -1218.026 193.63)"><stop offset=".007" style="stop-color:#1c1e27"/><stop offset=".007" style="stop-color:#1f1a1c"/><stop offset=".211" style="stop-color:#1f1a1c"/><stop offset=".212" style="stop-color:#343843"/><stop offset=".975" style="stop-color:#343843"/><stop offset=".975" style="stop-color:#292c34"/></linearGradient><path id="XMLID_7529_" d="m247.7 436.5 4.3 2.5c.7.4 1.5.4 2.1 0l1-.7c.3-.2.4-.5.3-.9-.1-.3-.1-1.4-.4-1.5l-4.4-1.7c-.7-.4-1.5-.4-2.1 0l-1.4.2c-.2.1 0 .7.1 1.2 0 .2.1.6.5.9z" style="fill:url(#XMLID_6_)"/><path id="XMLID_7528_" class="st45" d="M253.9 437.7c-.6.4-1.4.4-2.1 0l-4.3-2.5c-.6-.4-.7-1.2-.2-1.6l1-.7c.6-.4 1.4-.4 2.1 0l4.3 2.5c.6.4.7 1.2.2 1.6l-1 .7z"/></g><g id="XMLID_7523_"><path id="XMLID_7526_" class="st43" d="M243.8 433.1c-.6.4-1.4.4-2.1 0l-4.3-2.5c-.6-.4-.7-1.2-.2-1.6l1-.7c.6-.4 1.4-.4 2.1 0l4.3 2.5c.6.4.7 1.2.2 1.6l-1 .7z"/><linearGradient id="XMLID_7_" gradientUnits="userSpaceOnUse" x1="-1573.674" y1="-249.729" x2="-1564.832" y2="-249.729" gradientTransform="matrix(-.9089 .006 -.1375 -.9905 -1218.026 193.63)"><stop offset=".007" style="stop-color:#1c1e27"/><stop offset=".007" style="stop-color:#1f1a1c"/><stop offset=".211" style="stop-color:#1f1a1c"/><stop offset=".212" style="stop-color:#343843"/><stop offset=".975" style="stop-color:#343843"/><stop offset=".975" style="stop-color:#292c34"/></linearGradient><path id="XMLID_7525_" d="m239 431.5 4.3 2.5c.7.4 1.5.4 2.1 0l1-.7c.3-.2.4-.5.3-.9-.1-.3-.1-1.4-.4-1.5l-4.4-1.7c-.7-.4-1.5-.4-2.1 0l-1.4.2c-.2.1 0 .7 0 1.2.1.3.2.7.6.9z" style="fill:url(#XMLID_7_)"/><path id="XMLID_7524_" class="st45" d="M245.2 432.8c-.6.4-1.4.4-2.1 0l-4.3-2.5c-.6-.4-.7-1.2-.2-1.6l1-.7c.6-.4 1.4-.4 2.1 0l4.3 2.5c.6.4.7 1.2.2 1.6l-1 .7z"/></g></g><g id="XMLID_7505_"><g id="XMLID_7518_"><path id="XMLID_7521_" class="st43" d="M264.5 452.4c-.6.4-1.4.4-2.1 0l-4.3-2.5c-.6-.4-.7-1.2-.2-1.6l1-.7c.6-.4 1.4-.4 2.1 0l4.3 2.5c.6.4.7 1.2.2 1.6l-1 .7z"/><linearGradient id="XMLID_8_" gradientUnits="userSpaceOnUse" x1="-1593.464" y1="-269.397" x2="-1584.622" y2="-269.397" gradientTransform="matrix(-.9089 .006 -.1375 -.9905 -1218.026 193.63)"><stop offset=".007" style="stop-color:#430806"/><stop offset=".007" style="stop-color:#610000"/><stop offset=".211" style="stop-color:#610000"/><stop offset=".212" style="stop-color:#5f130f"/><stop offset=".975" style="stop-color:#5f130f"/><stop offset=".975" style="stop-color:#50100d"/></linearGradient><path id="XMLID_7520_" d="m259.7 450.9 4.3 2.5c.7.4 1.5.4 2.1 0l1-.7c.3-.2.4-.5.3-.9-.1-.3-.1-1.4-.4-1.5l-4.4-1.7c-.7-.4-1.5-.4-2.1 0l-1.4.2c-.2.1 0 .7.1 1.2 0 .3.1.7.5.9z" style="fill:url(#XMLID_8_)"/><path id="XMLID_7519_" d="M265.9 452.1c-.6.4-1.4.4-2.1 0l-4.3-2.5c-.6-.4-.7-1.2-.2-1.6l1-.7c.6-.4 1.4-.4 2.1 0l4.3 2.5c.6.4.7 1.2.2 1.6l-1 .7z" style="fill:#ad1010"/></g><g id="XMLID_7514_"><path id="XMLID_7517_" class="st43" d="M255.9 447.5c-.6.4-1.4.4-2.1 0l-4.3-2.5c-.6-.4-.7-1.2-.2-1.6l1-.7c.6-.4 1.4-.4 2.1 0l4.3 2.5c.6.4.7 1.2.2 1.6l-1 .7z"/><linearGradient id="XMLID_9_" gradientUnits="userSpaceOnUse" x1="-1584.68" y1="-264.367" x2="-1575.838" y2="-264.367" gradientTransform="matrix(-.9089 .006 -.1375 -.9905 -1218.026 193.63)"><stop offset=".007" style="stop-color:#5f5f62"/><stop offset=".007" style="stop-color:#5a5a5a"/><stop offset=".211" style="stop-color:#5a5a5a"/><stop offset=".212" style="stop-color:#7d7d7e"/><stop offset=".975" style="stop-color:#7d7d7e"/><stop offset=".975" style="stop-color:#6e6e6f"/></linearGradient><path id="XMLID_7516_" d="m251 446 4.3 2.5c.7.4 1.5.4 2.1 0l1-.7c.3-.2.4-.5.3-.9-.1-.3-.1-1.4-.4-1.5l-4.4-1.7c-.7-.4-1.5-.4-2.1 0l-1.4.2c-.2.1 0 .7.1 1.2 0 .2.2.6.5.9z" style="fill:url(#XMLID_9_)"/><path id="XMLID_7515_" class="st52" d="M257.3 447.2c-.6.4-1.4.4-2.1 0l-4.3-2.5c-.6-.4-.7-1.2-.2-1.6l1-.7c.6-.4 1.4-.4 2.1 0l4.3 2.5c.6.4.7 1.2.2 1.6l-1 .7z"/></g><g id="XMLID_7510_"><path id="XMLID_7513_" class="st43" d="M247.2 442.6c-.6.4-1.4.4-2.1 0l-4.3-2.5c-.6-.4-.7-1.2-.2-1.6l1-.7c.6-.4 1.4-.4 2.1 0l4.3 2.5c.6.4.7 1.2.2 1.6l-1 .7z"/><linearGradient id="XMLID_10_" gradientUnits="userSpaceOnUse" x1="-1575.889" y1="-259.342" x2="-1567.046" y2="-259.342" gradientTransform="matrix(-.9089 .006 -.1375 -.9905 -1218.026 193.63)"><stop offset=".007" style="stop-color:#5f5f62"/><stop offset=".007" style="stop-color:#5a5a5a"/><stop offset=".211" style="stop-color:#5a5a5a"/><stop offset=".212" style="stop-color:#7d7d7e"/><stop offset=".975" style="stop-color:#7d7d7e"/><stop offset=".975" style="stop-color:#6e6e6f"/></linearGradient><path id="XMLID_7512_" d="m242.3 441 4.3 2.5c.7.4 1.5.4 2.1 0l1-.7c.3-.2.4-.5.3-.9-.1-.3-.1-1.4-.4-1.5l-4.4-1.7c-.7-.4-1.5-.4-2.1 0l-1.4.2c-.2.1 0 .7.1 1.2 0 .3.2.7.5.9z" style="fill:url(#XMLID_10_)"/><path id="XMLID_7511_" class="st52" d="M248.6 442.3c-.6.4-1.4.4-2.1 0l-4.3-2.5c-.6-.4-.7-1.2-.2-1.6l1-.7c.6-.4 1.4-.4 2.1 0l4.3 2.5c.6.4.7 1.2.2 1.6l-1 .7z"/></g><g id="XMLID_7506_"><path id="XMLID_7509_" class="st43" d="M238.5 437.6c-.6.4-1.4.4-2.1 0l-4.3-2.5c-.6-.4-.7-1.2-.2-1.6l1-.7c.6-.4 1.4-.4 2.1 0l4.3 2.5c.6.4.7 1.2.2 1.6l-1 .7z"/><linearGradient id="XMLID_11_" gradientUnits="userSpaceOnUse" x1="-1567.109" y1="-254.313" x2="-1558.266" y2="-254.313" gradientTransform="matrix(-.9089 .006 -.1375 -.9905 -1218.026 193.63)"><stop offset=".007" style="stop-color:#5f5f62"/><stop offset=".007" style="stop-color:#5a5a5a"/><stop offset=".211" style="stop-color:#5a5a5a"/><stop offset=".212" style="stop-color:#7d7d7e"/><stop offset=".975" style="stop-color:#7d7d7e"/><stop offset=".975" style="stop-color:#6e6e6f"/></linearGradient><path id="XMLID_7508_" d="m233.7 436.1 4.3 2.5c.7.4 1.5.4 2.1 0l1-.7c.3-.2.4-.5.3-.9-.1-.3-.1-1.4-.4-1.5l-4.4-1.7c-.7-.4-1.5-.4-2.1 0l-1.4.2c-.2.1 0 .7.1 1.2 0 .3.1.7.5.9z" style="fill:url(#XMLID_11_)"/><path id="XMLID_7507_" class="st52" d="M239.9 437.4c-.6.4-1.4.4-2.1 0l-4.3-2.5c-.6-.4-.7-1.2-.2-1.6l1-.7c.6-.4 1.4-.4 2.1 0l4.3 2.5c.6.4.7 1.2.2 1.6l-1 .7z"/></g></g><g id="XMLID_7488_"><g id="XMLID_7501_"><path id="XMLID_7504_" class="st43" d="M259.2 457c-.6.4-1.4.4-2.1 0l-4.3-2.5c-.6-.4-.7-1.2-.2-1.6l1-.7c.6-.4 1.4-.4 2.1 0l4.3 2.5c.6.4.7 1.2.2 1.6l-1 .7z"/><linearGradient id="XMLID_12_" gradientUnits="userSpaceOnUse" x1="-1586.895" y1="-273.973" x2="-1578.053" y2="-273.973" gradientTransform="matrix(-.9089 .006 -.1375 -.9905 -1218.026 193.63)"><stop offset=".007" style="stop-color:#906a00"/><stop offset=".007" style="stop-color:#ab7500"/><stop offset=".211" style="stop-color:#ab7500"/><stop offset=".212" style="stop-color:#ac820b"/><stop offset=".975" style="stop-color:#ac820b"/><stop offset=".975" style="stop-color:#9d760c"/></linearGradient><path id="XMLID_7503_" d="m254.4 455.5 4.3 2.5c.7.4 1.5.4 2.1 0l1-.7c.3-.2.4-.5.3-.9-.1-.3-.1-1.4-.4-1.5l-4.4-1.7c-.7-.4-1.5-.4-2.1 0l-1.4.2c-.2.1 0 .7.1 1.2 0 .2.1.6.5.9z" style="fill:url(#XMLID_12_)"/><path id="XMLID_7502_" d="M260.6 456.7c-.6.4-1.4.4-2.1 0l-4.3-2.5c-.6-.4-.7-1.2-.2-1.6l1-.7c.6-.4 1.4-.4 2.1 0l4.3 2.5c.6.4.7 1.2.2 1.6l-1 .7z" style="fill:#ebc800"/></g><g id="XMLID_7497_"><path id="XMLID_7500_" class="st43" d="M250.5 452.1c-.6.4-1.4.4-2.1 0l-4.3-2.5c-.6-.4-.7-1.2-.2-1.6l1-.7c.6-.4 1.4-.4 2.1 0l4.3 2.5c.6.4.7 1.2.2 1.6l-1 .7z"/><linearGradient id="XMLID_13_" gradientUnits="userSpaceOnUse" x1="-1578.118" y1="-268.948" x2="-1569.277" y2="-268.948" gradientTransform="matrix(-.9089 .006 -.1375 -.9905 -1218.026 193.63)"><stop offset=".007" style="stop-color:#5f5f62"/><stop offset=".007" style="stop-color:#5a5a5a"/><stop offset=".211" style="stop-color:#5a5a5a"/><stop offset=".212" style="stop-color:#7d7d7e"/><stop offset=".975" style="stop-color:#7d7d7e"/><stop offset=".975" style="stop-color:#6e6e6f"/></linearGradient><path id="XMLID_7499_" d="m245.7 450.5 4.3 2.5c.7.4 1.5.4 2.1 0l1-.7c.3-.2.4-.5.3-.9-.1-.3-.1-1.4-.4-1.5l-4.4-1.7c-.7-.4-1.5-.4-2.1 0l-1.4.2c-.2.1 0 .7.1 1.2 0 .3.1.7.5.9z" style="fill:url(#XMLID_13_)"/><path id="XMLID_7498_" class="st52" d="M251.9 451.8c-.6.4-1.4.4-2.1 0l-4.3-2.5c-.6-.4-.7-1.2-.2-1.6l1-.7c.6-.4 1.4-.4 2.1 0l4.3 2.5c.6.4.7 1.2.2 1.6l-1 .7z"/></g><g id="XMLID_7493_"><path id="XMLID_7496_" class="st43" d="M241.8 447.1c-.6.4-1.4.4-2.1 0l-4.3-2.5c-.6-.4-.7-1.2-.2-1.6l1-.7c.6-.4 1.4-.4 2.1 0l4.3 2.5c.6.4.7 1.2.2 1.6l-1 .7z"/><linearGradient id="XMLID_14_" gradientUnits="userSpaceOnUse" x1="-1569.334" y1="-263.919" x2="-1560.493" y2="-263.919" gradientTransform="matrix(-.9089 .006 -.1375 -.9905 -1218.026 193.63)"><stop offset=".007" style="stop-color:#5f5f62"/><stop offset=".007" style="stop-color:#5a5a5a"/><stop offset=".211" style="stop-color:#5a5a5a"/><stop offset=".212" style="stop-color:#7d7d7e"/><stop offset=".975" style="stop-color:#7d7d7e"/><stop offset=".975" style="stop-color:#6e6e6f"/></linearGradient><path id="XMLID_7495_" d="m237 445.6 4.3 2.5c.7.4 1.5.4 2.1 0l1-.7c.3-.2.4-.5.3-.9-.1-.3-.1-1.4-.4-1.5l-4.4-1.7c-.7-.4-1.5-.4-2.1 0l-1.4.2c-.2.1 0 .7.1 1.2 0 .3.1.7.5.9z" style="fill:url(#XMLID_14_)"/><path id="XMLID_7494_" class="st52" d="M243.2 446.9c-.6.4-1.4.4-2.1 0l-4.3-2.5c-.6-.4-.7-1.2-.2-1.6l1-.7c.6-.4 1.4-.4 2.1 0l4.3 2.5c.6.4.7 1.2.2 1.6l-1 .7z"/></g><g id="XMLID_7489_"><path id="XMLID_7492_" class="st43" d="M233.2 442.2c-.6.4-1.4.4-2.1 0l-4.3-2.5c-.6-.4-.7-1.2-.2-1.6l1-.7c.6-.4 1.4-.4 2.1 0l4.3 2.5c.6.4.7 1.2.2 1.6l-1 .7z"/><linearGradient id="XMLID_15_" gradientUnits="userSpaceOnUse" x1="-1560.535" y1="-258.9" x2="-1551.691" y2="-258.9" gradientTransform="matrix(-.9089 .006 -.1375 -.9905 -1218.026 193.63)"><stop offset=".007" style="stop-color:#5f5f62"/><stop offset=".007" style="stop-color:#5a5a5a"/><stop offset=".211" style="stop-color:#5a5a5a"/><stop offset=".212" style="stop-color:#7d7d7e"/><stop offset=".975" style="stop-color:#7d7d7e"/><stop offset=".975" style="stop-color:#6e6e6f"/></linearGradient><path id="XMLID_7491_" d="m228.3 440.7 4.3 2.5c.7.4 1.5.4 2.1 0l1-.7c.3-.2.4-.5.3-.9-.1-.3-.1-1.4-.4-1.5l-4.4-1.7c-.7-.4-1.5-.4-2.1 0l-1.4.2c-.2.1 0 .7.1 1.2 0 .3.2.7.5.9z" style="fill:url(#XMLID_15_)"/><path id="XMLID_7490_" class="st52" d="M234.6 441.9c-.6.4-1.4.4-2.1 0l-4.3-2.5c-.6-.4-.7-1.2-.2-1.6l1-.7c.6-.4 1.4-.4 2.1 0l4.3 2.5c.6.4.7 1.2.2 1.6l-1 .7z"/></g></g><g id="XMLID_7475_"><g id="XMLID_7484_"><path id="XMLID_7487_" class="st43" d="M245.2 456.6c-.6.4-1.4.4-2.1 0l-4.3-2.5c-.6-.4-.7-1.2-.2-1.6l1-.7c.6-.4 1.4-.4 2.1 0l4.3 2.5c.6.4.7 1.2.2 1.6l-1 .7z"/><linearGradient id="XMLID_16_" gradientUnits="userSpaceOnUse" x1="-1571.549" y1="-273.525" x2="-1562.707" y2="-273.525" gradientTransform="matrix(-.9089 .006 -.1375 -.9905 -1218.026 193.63)"><stop offset=".007" style="stop-color:#5f5f62"/><stop offset=".007" style="stop-color:#5a5a5a"/><stop offset=".211" style="stop-color:#5a5a5a"/><stop offset=".212" style="stop-color:#7d7d7e"/><stop offset=".975" style="stop-color:#7d7d7e"/><stop offset=".975" style="stop-color:#6e6e6f"/></linearGradient><path id="XMLID_7486_" d="m240.3 455.1 4.3 2.5c.7.4 1.5.4 2.1 0l1-.7c.3-.2.4-.5.3-.9-.1-.3-.1-1.4-.4-1.5l-4.4-1.7c-.7-.4-1.5-.4-2.1 0l-1.4.2c-.2.1 0 .7 0 1.2.1.3.3.7.6.9z" style="fill:url(#XMLID_16_)"/><path id="XMLID_7485_" class="st52" d="M246.6 456.4c-.6.4-1.4.4-2.1 0l-4.3-2.5c-.6-.4-.7-1.2-.2-1.6l1-.7c.6-.4 1.4-.4 2.1 0l4.3 2.5c.6.4.7 1.2.2 1.6l-1 .7z"/></g><g id="XMLID_7480_"><path id="XMLID_7483_" class="st43" d="M236.5 451.7c-.6.4-1.4.4-2.1 0l-4.3-2.5c-.6-.4-.7-1.2-.2-1.6l1-.7c.6-.4 1.4-.4 2.1 0l4.3 2.5c.6.4.7 1.2.2 1.6l-1 .7z"/><linearGradient id="XMLID_17_" gradientUnits="userSpaceOnUse" x1="-1562.756" y1="-268.503" x2="-1553.915" y2="-268.503" gradientTransform="matrix(-.9089 .006 -.1375 -.9905 -1218.026 193.63)"><stop offset=".007" style="stop-color:#5f5f62"/><stop offset=".007" style="stop-color:#5a5a5a"/><stop offset=".211" style="stop-color:#5a5a5a"/><stop offset=".212" style="stop-color:#7d7d7e"/><stop offset=".975" style="stop-color:#7d7d7e"/><stop offset=".975" style="stop-color:#6e6e6f"/></linearGradient><path id="XMLID_7482_" d="m231.7 450.2 4.3 2.5c.7.4 1.5.4 2.1 0l1-.7c.3-.2.4-.5.3-.9-.1-.3-.1-1.4-.4-1.5l-4.4-1.7c-.7-.4-1.5-.4-2.1 0l-1.4.2c-.2.1 0 .7.1 1.2 0 .3.1.7.5.9z" style="fill:url(#XMLID_17_)"/><path id="XMLID_7481_" class="st52" d="M237.9 451.4c-.6.4-1.4.4-2.1 0l-4.3-2.5c-.6-.4-.7-1.2-.2-1.6l1-.7c.6-.4 1.4-.4 2.1 0l4.3 2.5c.6.4.7 1.2.2 1.6l-1 .7z"/></g><g id="XMLID_7476_"><path id="XMLID_7479_" class="st43" d="M227.8 446.8c-.6.4-1.4.4-2.1 0l-4.3-2.5c-.6-.4-.7-1.2-.2-1.6l1-.7c.6-.4 1.4-.4 2.1 0l4.3 2.5c.6.4.7 1.2.2 1.6l-1 .7z"/><linearGradient id="XMLID_18_" gradientUnits="userSpaceOnUse" x1="-1553.97" y1="-263.484" x2="-1545.127" y2="-263.484" gradientTransform="matrix(-.9089 .006 -.1375 -.9905 -1218.026 193.63)"><stop offset=".007" style="stop-color:#5f5f62"/><stop offset=".007" style="stop-color:#5a5a5a"/><stop offset=".211" style="stop-color:#5a5a5a"/><stop offset=".212" style="stop-color:#7d7d7e"/><stop offset=".975" style="stop-color:#7d7d7e"/><stop offset=".975" style="stop-color:#6e6e6f"/></linearGradient><path id="XMLID_7478_" d="m223 445.3 4.3 2.5c.7.4 1.5.4 2.1 0l1-.7c.3-.2.4-.5.3-.9-.1-.3-.1-1.4-.4-1.5l-4.4-1.7c-.7-.4-1.5-.4-2.1 0l-1.4.2c-.2.1 0 .7.1 1.2 0 .2.1.6.5.9z" style="fill:url(#XMLID_18_)"/><path id="XMLID_7477_" class="st52" d="M229.2 446.5c-.6.4-1.4.4-2.1 0l-4.3-2.5c-.6-.4-.7-1.2-.2-1.6l1-.7c.6-.4 1.4-.4 2.1 0l4.3 2.5c.6.4.7 1.2.2 1.6l-1 .7z"/></g></g><g id="XMLID_7462_"><g id="XMLID_7471_"><path id="XMLID_7474_" class="st43" d="M239.8 461.2c-.6.4-1.4.4-2.1 0l-4.3-2.5c-.6-.4-.7-1.2-.2-1.6l1-.7c.6-.4 1.4-.4 2.1 0l4.3 2.5c.6.4.7 1.2.2 1.6l-1 .7z"/><linearGradient id="XMLID_19_" gradientUnits="userSpaceOnUse" x1="-1564.972" y1="-278.109" x2="-1556.13" y2="-278.109" gradientTransform="matrix(-.9089 .006 -.1375 -.9905 -1218.026 193.63)"><stop offset=".007" style="stop-color:#5f5f62"/><stop offset=".007" style="stop-color:#5a5a5a"/><stop offset=".211" style="stop-color:#5a5a5a"/><stop offset=".212" style="stop-color:#7d7d7e"/><stop offset=".975" style="stop-color:#7d7d7e"/><stop offset=".975" style="stop-color:#6e6e6f"/></linearGradient><path id="XMLID_7473_" d="m235 459.7 4.3 2.5c.7.4 1.5.4 2.1 0l1-.7c.3-.2.4-.5.3-.9-.1-.3-.1-1.4-.4-1.5l-4.4-1.7c-.7-.4-1.5-.4-2.1 0l-1.4.2c-.2.1 0 .7.1 1.2 0 .3.1.7.5.9z" style="fill:url(#XMLID_19_)"/><path id="XMLID_7472_" class="st52" d="M241.2 460.9c-.6.4-1.4.4-2.1 0l-4.3-2.5c-.6-.4-.7-1.2-.2-1.6l1-.7c.6-.4 1.4-.4 2.1 0l4.3 2.5c.6.4.7 1.2.2 1.6l-1 .7z"/></g><g id="XMLID_7467_"><path id="XMLID_7470_" class="st43" d="M231.2 456.3c-.6.4-1.4.4-2.1 0l-4.3-2.5c-.6-.4-.7-1.2-.2-1.6l1-.7c.6-.4 1.4-.4 2.1 0l4.3 2.5c.6.4.7 1.2.2 1.6l-1 .7z"/><linearGradient id="XMLID_20_" gradientUnits="userSpaceOnUse" x1="-1556.194" y1="-273.09" x2="-1547.352" y2="-273.09" gradientTransform="matrix(-.9089 .006 -.1375 -.9905 -1218.026 193.63)"><stop offset=".007" style="stop-color:#5f5f62"/><stop offset=".007" style="stop-color:#5a5a5a"/><stop offset=".211" style="stop-color:#5a5a5a"/><stop offset=".212" style="stop-color:#7d7d7e"/><stop offset=".975" style="stop-color:#7d7d7e"/><stop offset=".975" style="stop-color:#6e6e6f"/></linearGradient><path id="XMLID_7469_" d="m226.3 454.8 4.3 2.5c.7.4 1.5.4 2.1 0l1-.7c.3-.2.4-.5.3-.9-.1-.3-.1-1.4-.4-1.5l-4.4-1.7c-.7-.4-1.5-.4-2.1 0l-1.4.2c-.2.1 0 .7.1 1.2 0 .2.2.7.5.9z" style="fill:url(#XMLID_20_)"/><path id="XMLID_7468_" class="st52" d="M232.6 456c-.6.4-1.4.4-2.1 0l-4.3-2.5c-.6-.4-.7-1.2-.2-1.6l1-.7c.6-.4 1.4-.4 2.1 0l4.3 2.5c.6.4.7 1.2.2 1.6l-1 .7z"/></g><g id="XMLID_7463_"><path id="XMLID_7466_" class="st43" d="M222.5 451.4c-.6.4-1.4.4-2.1 0l-4.3-2.5c-.6-.4-.7-1.2-.2-1.6l1-.7c.6-.4 1.4-.4 2.1 0l4.3 2.5c.6.4.7 1.2.2 1.6l-1 .7z"/><linearGradient id="XMLID_21_" gradientUnits="userSpaceOnUse" x1="-1547.394" y1="-268.063" x2="-1538.552" y2="-268.063" gradientTransform="matrix(-.9089 .006 -.1375 -.9905 -1218.026 193.63)"><stop offset=".007" style="stop-color:#5f5f62"/><stop offset=".007" style="stop-color:#5a5a5a"/><stop offset=".211" style="stop-color:#5a5a5a"/><stop offset=".212" style="stop-color:#7d7d7e"/><stop offset=".975" style="stop-color:#7d7d7e"/><stop offset=".975" style="stop-color:#6e6e6f"/></linearGradient><path id="XMLID_7465_" d="m217.6 449.8 4.3 2.5c.7.4 1.5.4 2.1 0l1-.7c.3-.2.4-.5.3-.9-.1-.3-.1-1.4-.4-1.5l-4.4-1.7c-.7-.4-1.5-.4-2.1 0l-1.4.2c-.2.1 0 .7.1 1.2 0 .3.2.7.5.9z" style="fill:url(#XMLID_21_)"/><path id="XMLID_7464_" class="st52" d="M223.9 451.1c-.6.4-1.4.4-2.1 0l-4.3-2.5c-.6-.4-.7-1.2-.2-1.6l1-.7c.6-.4 1.4-.4 2.1 0l4.3 2.5c.6.4.7 1.2.2 1.6l-1 .7z"/></g></g><g id="XMLID_7458_"><path id="XMLID_7461_" class="st43" d="M248.5 466.1c-.6.4-1.4.4-2.1 0l-4.3-2.5c-.6-.4-.7-1.2-.2-1.6l6.8-5.1c.6-.4 1.4-.4 2.1 0l4.3 2.5c.6.4.7 1.2.2 1.6l-6.8 5.1z"/><linearGradient id="XMLID_22_" gradientUnits="userSpaceOnUse" x1="-1580.732" y1="-280.95" x2="-1564.912" y2="-280.95" gradientTransform="matrix(-.9089 .006 -.1375 -.9905 -1218.026 193.63)"><stop offset=".007" style="stop-color:#216414"/><stop offset=".007" style="stop-color:#318216"/><stop offset=".211" style="stop-color:#318216"/><stop offset=".212" style="stop-color:#328022"/><stop offset=".975" style="stop-color:#328022"/><stop offset=".975" style="stop-color:#2d711f"/></linearGradient><path id="XMLID_7460_" d="m243.7 464.6 4.3 2.5c.7.4 1.5.4 2.1 0l6.8-5.1c.3-.2.4-.5.3-.9-.1-.3-.1-1.4-.4-1.5l-4.4-1.7c-.7-.4-1.5-.4-2.1 0l-7.1 4.6c-.2.1 0 .7.1 1.2-.1.3 0 .7.4.9z" style="fill:url(#XMLID_22_)"/><path id="XMLID_7459_" d="M249.9 465.9c-.6.4-1.4.4-2.1 0l-4.3-2.5c-.6-.4-.7-1.2-.2-1.6l6.8-5.1c.6-.4 1.4-.4 2.1 0l4.3 2.5c.6.4.7 1.2.2 1.6l-6.8 5.1z" style="fill:#8fbf26"/></g></g><path id="XMLID_1122_" style="fill:#442b2f" d="m125.1 390.3-28.2-16.4 23-13.3 28.2 16.4z"/><path id="XMLID_1082_" style="fill:#a1310c" d="m126.5 385.9-22-12.8 14-8.1 22 12.8z"/><path style="fill:#eaeaea" d="M.1 374.8v8.3l110.1-63.8 1.6-9.2z"/><path id="XMLID_1113_" style="fill:#9f9f9f" d="m231.5 389.3 12.7-2.8-162.2 94-2.6-3z"/><g id="XMLID_1_"><g id="XMLID_85_"><g id="XMLID_86_"><path d="M72.7 223.8c-.5-.5-1.7-1.4-3.2-2.5-4.4-3.2-11.2-8.2-10.9-8.8.3-.8 22.9-8.2 26.5-12 3.6-3.9 2.8-8.7 2.8-8.7-3.3-1.7-12.8 3-15.3 4.8-2.5 1.9-10.9 1-13.8 1.3-2.9.2-16.7 2.6-22.6 4-6 1.4-12 5.3-15.4 6.5-3 1.1-14.1 1-20.6 1.7V250c6.2-.9 14.3-1.5 17.7 1 5.9 4.3 20.6 8.4 23.1 8.5 2.5.1 21 8.7 33.6 7.4s21.9-27.5 21.9-27.5-21.7-13.7-23.8-15.6z" style="fill:#ffbb97"/><path class="st73" d="M72.7 223.8c-.5-.5-1.7-1.4-3.2-2.5-.3.3-.5.7-.7 1-6.5 9.7-12.2 20-18.7 29.8-.8 1.2-1.7 2.6-3.1 3.1-1.7.7-3.7.1-5.4-.6-6.3-2.3-12.5-4.6-18.8-6.8-4.7-1.7-10-4.2-11-9-.6-2.9.7-6 .5-9-2.5 4.6-7.1 7.6-12.2 9.1v11c6.2-.9 14.3-1.5 17.7 1 5.9 4.3 20.6 8.4 23.1 8.5 2.5.1 21 8.7 33.6 7.4 12.6-1.2 21.9-27.5 21.9-27.5s-21.6-13.6-23.7-15.5z"/><path id="XMLID_128_" d="m113.9 167.4-57 78.1s.1 22.7 25.4 13.3c12.3-4.6 65.1-71 67.2-73.4 2.1-2.4 22.3-12.6 20.6-25.1-1.7-12.4-2.6-11-2.6-11l22.4-31.9-13.6-10.9-23.3 31.4s-8.8-3.7-20.1 6.1-19 23.4-19 23.4z" style="fill:#4f6f24"/><path id="XMLID_127_" class="st75" d="M176.3 106.5s-3.4 2.9 2.9 7.5c6.2 4.6 9.8 4.7 10.8 3.4 2.7-3.4-9.8-14.2-13.7-10.9z"/><path id="XMLID_126_" class="st75" d="m84.5 216.4-22.2 28c-1.4 1.8-1.8 4.2-1 6.3.8 2 2 4.1 4 4.8.4.1.7.3 1.1.4 2.7 1 5.8.1 7.5-2.3l21.2-29.1c1.9-2.6 1.6-6.2-.6-8.5l-.1-.1c-2.9-2.9-7.5-2.6-9.9.5z"/><path id="XMLID_125_" class="st75" d="m171.8 115.9-15.5 24c-.5.7-1.3 1.1-2.2 1-3.1-.4-11.2-.4-19.6 7.7-5 4.9-9.9 10.8-13.6 15.8-.6.8-.6 1.9 0 2.7 1.1 1.3 2.5 2.6 3.9 3.7 1 .7 2.4.5 3.1-.5 4.9-6.8 6.9-11.9 11.8-16.2 3.4-2.9 14.1-4.4 17.1-5.2.5-.2 1-.5 1.3-1l17.4-29.7c.3-.5.4-1.1.2-1.7-.4-1.9-2.9-2.3-3.9-.6z"/><path id="XMLID_124_" d="m118.6 167.4-28.1 38.9s5.7 11.4 18.2 15 12.5 3.5 12.5 3.5l25.9-41.1c-.1.1-20.5-6.1-28.5-16.3z" style="fill:#d4e2bb"/><path id="XMLID_120_" d="m168.3 150.4-.7-1.1s-12.7 5-17.9 9.4c-5.1 4.4-18 15.7-19.2 18.1-1.1 2.4-5.6 15.4-10.7 22.9-6.2 9.3-41.2 47.3-41.2 47.3L65 259.7s13.9-.7 27.6-10.7 50.8-52.8 52.8-54.9 22.9-36.8 22.9-36.8v-6.9z" style="fill:#768e72"/><path id="XMLID_119_" d="M56.9 245.5s3.2-4.2 15.9 2.6c12.6 6.8 12.4 9.5 11.5 13s-12.9 2.2-21-2.3c-8.2-4.5-6.4-13.3-6.4-13.3z" style="fill:#325400"/><path id="XMLID_118_" class="st79" d="M56.8 205.8c-1.6-3.7-12.4-1.6-15.5-1-5.7 1.1-11.9 2.9-15.8 7.1-4.6 4.9-6.8 12-5.9 18.6.1.8.3 1.7.9 2.3 1.2 1.3 3.4.7 5 0 6.3-2.8 12-6.8 16.7-11.8 3.4-3.5 6.3-7.6 10.6-10 1.1-.6 2.2-1.1 3.1-2 .8-.7 1.4-2.1.9-3.2z"/><path id="XMLID_117_" class="st79" d="M38.9 232c-1.4 1.8-3 3.7-5.2 4.3-1.1.3-2.4.3-3.6.2-2.6-.2-5.2-.7-7.7-1.3-.7-.2-1.4-.4-2-.3-1 .2-1.8.9-2.3 1.8-1.3 2.4-.2 5.5 1.9 7.4s4.7 2.7 7.3 3.5c2.7.8 5.3 1.6 8 2.5 6.8 2.1 13 2.2 16.1-5.1 2.8-6.5 5.7-11.5 10-17.4 1-1.3 2-2.8 1.8-4.4-.4-4.5-9.9-8.1-13.4-5.9-1.7 1.1-2.8 4.4-4 6.1-2 2.8-4.6 5.7-6.9 8.6z"/><path class="st79" d="M179.5 155c3-6.4-2.3-6.7-5.2-6.2-2.8.5-14.4 7.8-18.4 10.5-3.9 2.7-22.7 17.4-23.3 18.8-.6 1.5-5.5 24.2-6.3 27-.9 2.7-34.3 34.1-46 43.4-11.8 9.3-43.9 31.1-43.9 31.1s-3.6-2.6-19.2-21.5C11 250.4 5 244.2.1 239.5v92.7c.8.5 1.6.9 2.2 1.2 11.5 5.8 30.3 15.1 40.9 10.9 21.3-9.2 43.5-36 58.8-55.6s40.1-57.5 42.9-61.9c2.8-4.4 9.9-8.4 14-11 4.1-2.5 11.9-12.3 14.3-15.6.5-.7.9-1.6 1.2-2.5 1-3.6.6-8.2.6-8.6-.1-.5 2.8-4.4 2.8-6.8 0-2.4-5.7-9.2-6.4-9.7-.7-.5-6.9-1.2-6.9-1.2l2.9-3.5c.1 0 9.2-6.5 12.1-12.9z"/><path class="st73" d="M173.3 198.9c-6.6 6.1-13.3 12.2-21.2 16.4-2.2 1.2-4.4 2.2-6.3 3.7-3 2.4-5 5.9-6.9 9.2A386.14 386.14 0 0 1 95 289.7c-8.3 9.5-17.1 18.6-26.2 27.3-8.1 7.6-12.9 16.6-25.1 18.6-11.2 1.9-22.2-3.7-32.1-9.2L.2 320.1V332c.8.5 1.6.9 2.2 1.2 11.5 5.8 30.3 15.1 40.9 10.9 21.3-9.2 43.5-36 58.8-55.6s40.1-57.5 42.9-61.9c2.8-4.4 9.9-8.4 14-11 4.1-2.5 11.9-12.3 14.3-15.6.5-.7.9-1.6 1.2-2.5-.4.6-.8 1-1.2 1.4z"/><path class="st80" d="M49 302.8c-4-7.9-12.3-12.4-18.7-18.5-5.1-4.9-9-10.9-12.8-16.8-3.7-5.7-7.4-11.5-11.1-17.2-1.9-3-3.8-6.5-6.3-7v62.3c8.6 3.5 17.2 6.9 26 10 4.6 1.6 9.4 3.2 14.2 2.6s9.6-4 10.2-8.8c.2-2.3-.5-4.6-1.5-6.6z"/><path id="XMLID_113_" class="st80" d="M91 251.9c-7.3 6-14.8 11.7-22.5 17.3-7.6 5.5-14.9 8.8-23.5 12.5-6 2.6-12.9 6.3-13.9 12.8-.5 3.3.7 6.7 2.1 9.7 2.4 5.2 5.3 14.6 11.6 15.9 18.9 3.9 32.4-23.4 41.7-35 12.1-14.9 23.3-30.6 36.6-44.5 8-8.3 14.2-16.4 20.7-25.8 6-8.7 15.2-14.8 20.2-24.3 1.5-2.8 2.5-5.9 2.1-9-1.7 2.1-5.5.7-6.5-1.9-1-2.6 0-5.4.9-8 1.1-3.1 2.2-6.1 3.3-9.2-6.9 5.1-13.8 10.3-20.8 15.4-1.4 1-2.8 2.1-3.6 3.5-.6 1.1-.9 2.4-1.2 3.6-1.8 8.8-.5 20.1-6.6 26.9-5.1 5.8-9.7 12.8-15.4 18-8.1 7.7-16.6 15.1-25.2 22.1z"/></g></g></g><path d="M289.8 230.2c-.1 0-.1 0 0 0v-.2c0-.3.1-.6.1-.9v-.1c0-.3.1-.6.1-.8v-.1c.1-.6.2-1.2.3-1.7v-.1c.1-.3.1-.5.2-.8.1-.3.1-.5.2-.7v-.1c.1-.2.1-.4.2-.6v-.1c.1-.2.1-.4.2-.6.1-.2.2-.5.3-.7 0-.1 0-.1.1-.1.1-.2.3-.5.4-.7v-.1s0-.1.1-.1c0-.1 0-.1.1-.1.1-.2.2-.4.4-.6v-.1c.2-.2.3-.4.5-.7 0-.1 0-.1.1-.1v-.1c.2-.2.4-.5.6-.7 0-.1.1-.1.1-.2l.6-.6s0-.1.1-.1l.6-.6c0-.1.1-.1.1-.1.2-.2.4-.4.7-.6 0-.1.1-.1.1-.1s0-.1.1-.1c.2-.2.4-.4.7-.6 0-.1.1-.1.1-.1v-.1c.2-.2.4-.3.7-.5 0-.1.1-.1.2-.1.2-.2.5-.4.7-.5.1-.1.2-.1.2-.2.2-.2.5-.4.8-.5.1-.1.2-.1.2-.2.2-.1.4-.3.7-.4.1-.1.2-.1.3-.2.2-.1.5-.3.7-.4.1-.1.2-.1.4-.2s.5-.3.7-.4c.1-.1.2-.1.3-.2l.1-.1c.2-.1.3-.2.5-.3l.6-.3c.2-.1.3-.1.5-.2.1-.1.2-.1.3-.1s.1-.1.2-.1c.2-.1.4-.2.5-.3 0 0 .1-.1.2-.1l.6-.3c.1-.1.2-.1.2-.1.2-.1.3-.2.5-.2.1-.1.2-.1.3-.1.4-.2.7-.4 1.1-.5.3-.1.5-.2.7-.3.4-.2.8-.3 1.2-.5.2-.1.4-.2.6-.2.5-.2.9-.4 1.4-.5.1 0 .2-.1.3-.1 3.1-1.1 6.2-1.9 9-2.5.3-.1.7-.1 1-.2h.2c.1 0 .2 0 .3-.1.1 0 .3-.1.4-.1h.5c.1 0 .2 0 .3-.1h.5c.2 0 .4 0 .6-.1H330.2c.1 0 .2 0 .3.1h.3c.1 0 .2 0 .3.1.1 0 .3 0 .3.1.1 0 .2 0 .3.1.1 0 .2 0 .3.1.1 0 .2 0 .3.1.1 0 .2.1.3.1s.2.1.3.1c.1 0 .2.1.3.1s.2.1.3.1c.1 0 .2.1.3.1.1 0 .2.1.3.1.1 0 .2.1.3.1.1.1.2.1.3.2.1 0 .2.1.2.1.1.1.2.1.3.2.1 0 .1.1.2.2s.2.1.3.2c.1 0 .1.1.2.2s.2.1.2.2c0 0 .1.1.2.1.1.1.2.1.2.2l.1.1c.1.1.1.1.2.3l.1.1c.2.2.3.4.5.6.1.2.2.3.3.5.1.1.1.3.2.4 0 0 0 .1.1.1.1.1.1.2.1.4 0 0 .1.1.1.2.1.1.1.2.1.3 0 .1.1.1.1.2.1.1.1.2.1.3 0 .1.1.1.1.2.1.1.1.2.1.3 0 .1.1.2.1.2 0 .1.1.2.1.3v.2c0 .2.1.5.1.7.4 6.4 1.1 15.2 1.6 28 .5 12.7.5 21.6-4.1 32.7 5.8 4.2 11.5 8.2 6.8 15-1.9 2.7-4.7 5.8-8 8.6 0 .1-.1.1-.1.1-.4.3-.8.7-1.3 1l-.2.2c-.4.3-.9.7-1.4 1 0 0 0 .1-.1.1l-.9.6c0 .1-.1.1-.1.1l-.9.6s0 .1-.1.1l-2.1 1.2-.1.1c-.3.1-.6.3-.9.5-.1.1-.2.1-.3.1-.2.1-.5.2-.8.4-.1.1-.2.1-.3.2-.2.1-.5.2-.8.3-.1.1-.2.1-.3.1-.3.2-.7.3-1 .4-.4.1-.7.3-1.1.4-.1 0-.3.1-.4.1-.3.1-.5.1-.7.2-.2 0-.3.1-.5.1s-.5.1-.7.2c-.2 0-.3.1-.5.1s-.5.1-.7.1c-.2 0-.3.1-.5.1-.3.1-.6.1-.9.1h-.2c-.3 0-.6.1-.9.1h-3.1c-.3 0-.6-.1-.9-.1h-.3c-.2 0-.4-.1-.6-.1-.1 0-.2 0-.3-.1-.2 0-.3-.1-.5-.1-.1 0-.2 0-.3-.1-.2-.1-.3-.1-.5-.1-.1 0-.2 0-.3-.1-.3-.1-.5-.1-.7-.2-.1 0-.3-.1-.4-.1s-.3-.1-.4-.1c-.1-.1-.3-.1-.4-.1-.1 0-.2-.1-.3-.1-.1-.1-.3-.1-.4-.1-.1 0-.2-.1-.3-.1-.1-.1-.3-.1-.4-.2h-.1c-.2-.1-.4-.1-.6-.2-5-2.1-8.5-5.4-9.3-7.3-1.4-3.3-3.5-3.2.9-14.7-6.7-11-9.2-37.9-7.5-52z"/><linearGradient id="SVGID_1_" gradientUnits="userSpaceOnUse" x1="-2720.413" y1="-3148.618" x2="-2619.645" y2="-3209.214" gradientTransform="matrix(-.9813 .1925 -.0555 -.9929 -2496.785 -2339.67)"><stop offset="0" style="stop-color:#262423"/><stop offset="1" style="stop-color:#4f4f4f"/></linearGradient><path d="M337.1 274c5.8 4.2 11.5 8.2 6.8 15-4.7 6.9-15.2 15.8-26 17s-19.8-5.9-21.1-9.2c-1.3-3.3-3.5-3.2.9-14.7 4.3-11.5 13.8-6.3 13.8-6.3l25.6-1.8z" style="fill:url(#SVGID_1_)"/><linearGradient id="SVGID_2_" gradientUnits="userSpaceOnUse" x1="-2738.657" y1="-3159.707" x2="-2667.343" y2="-3162.239" gradientTransform="matrix(-.9813 .1925 -.0555 -.9929 -2496.785 -2339.67)"><stop offset="0" style="stop-color:#4f4f4f"/><stop offset="1" style="stop-color:#262423"/></linearGradient><path d="M336.2 275c1.4 2.8 1.3 11.8-16.1 17.1-17.4 5.3-22.3-10-22.1-11.5.2-1.5 9.5-7.6 9.5-7.6l30-4-1.3 6z" style="fill:url(#SVGID_2_)"/><path class="st83" d="M336.9 274.4c4.8-11.4 4.8-20.3 4.3-33.1s-1.2-21.6-1.6-28c-.4-6.4-6.7-10.1-17.6-8-10.9 2.1-26.5 8.9-30.6 17.9-4.1 9.1-2.2 45.7 6.3 58.9 8.5 13.2 31.8 9 39.2-7.7z"/><path class="st83" d="M329.1 284.3c3.3-2.5 6-5.9 7.8-9.9 4.8-11.4 4.8-20.3 4.3-33.1s-1.2-21.6-1.6-28c0-.3 0-.5-.1-.8-1.2-3.3-3.8-5.5-7.7-4.3-3.9 1.3-17.9 6.8-23.6 13.5-5.7 6.7-5.4 10.3-4.9 19.7.5 9.4 1.2 19.3 1.4 25.1.4 6.5 5.1 28.1 24.4 17.8z"/><path d="M304.8 266.6c-.2-5.9-.9-15.8-1.4-25.1s-.9-13 4.9-19.7c5.7-6.7 19.7-12.2 23.6-13.5 3.9-1.3 6.6.9 7.7 4.3 0 .3.1.5.1.8.4 6.4 1.1 15.2 1.6 28 .5 12.9.4 21.8-4.3 33.1-1.8 4.1-4.6 7.4-7.8 9.9-19.4 10.2-24.1-11.4-24.4-17.8zm4.4-2.5c.4 4.4 4 24.4 20.1 13.3 8.8-6.1 9.7-27.3 9.4-33.7-.7-13.9-.7-15.5-1.1-19.5-.4-4 0-13.2-9-9.6-9 3.6-10.6 5.1-12.9 6.4-2.3 1.3-8.7 4.8-8 17.1.8 12.2 1.1 21.6 1.5 26z" style="fill:#282828"/><linearGradient id="SVGID_3_" gradientUnits="userSpaceOnUse" x1="-2695.175" y1="-3085.663" x2="-2674.751" y2="-3164.657" gradientTransform="matrix(-.9813 .1925 -.0555 -.9929 -2496.785 -2339.67)"><stop offset="0" style="stop-color:#636363"/><stop offset="1" style="stop-color:#292726"/></linearGradient><path d="M297.7 282.1c6.4 10 21.3 10 31.4 2.2-19.3 10.3-24-11.3-24.3-17.7-.2-5.9-.9-15.8-1.4-25.1-.5-9.4-.9-13 4.9-19.7 5.7-6.7 19.7-12.2 23.6-13.5 3.9-1.3 6.6.9 7.7 4.3-.8-6-7.1-9.2-17.6-7.2-10.9 2.1-26.5 8.9-30.6 17.9-4.2 9-2.3 45.6 6.3 58.8z" style="fill:url(#SVGID_3_)"/><linearGradient id="SVGID_4_" gradientUnits="userSpaceOnUse" x1="-2686.643" y1="-3085.391" x2="-2666.812" y2="-3111.544" gradientTransform="matrix(-.9813 .1925 -.0555 -.9929 -2496.785 -2339.67)"><stop offset=".151" style="stop-color:#636363;stop-opacity:0"/><stop offset=".306" style="stop-color:#414140;stop-opacity:.4097"/><stop offset=".445" style="stop-color:#2a2928;stop-opacity:.7756"/><stop offset=".53" style="stop-color:#21201f"/><stop offset=".609" style="stop-color:#292827;stop-opacity:.7791"/><stop offset=".734" style="stop-color:#3f3f3e;stop-opacity:.4283"/><stop offset=".886" style="stop-color:#636363;stop-opacity:0"/></linearGradient><path d="M289.7 230.2c2.3 4.2 7 6.5 12.3 5.5.4-.1.7-.1 1.1-.3 0-5.3.8-8.5 5.1-13.6 1.4-1.7 3.3-3.2 5.5-4.7-1-3.3-3.3-5.8-6.3-7-7.1 3.3-13.6 7.8-16.1 13.2-.7 1.5-1.2 3.9-1.6 6.9z" style="fill:url(#SVGID_4_)"/><linearGradient id="SVGID_5_" gradientUnits="userSpaceOnUse" x1="-2688.308" y1="-3085.942" x2="-2666.027" y2="-3173.544" gradientTransform="matrix(-.9813 .1925 -.0555 -.9929 -2496.785 -2339.67)"><stop offset="0" style="stop-color:#292726"/><stop offset="1" style="stop-color:#636363"/></linearGradient><path d="M297.7 282.1c2.1 3.3 5.2 5.5 8.7 6.7-10.5-8.3-9.4-37.4-10.1-50.4-.8-14.1 5.1-19.4 8.7-22.3 3.6-2.9 18-11.3 26.5-11.1-2.6-.5-5.7-.4-9.4.3-10.9 2.1-26.5 8.9-30.6 17.9-4.3 9.1-2.4 45.7 6.2 58.9z" style="fill:url(#SVGID_5_)"/><path d="M338.7 243.7c-.7-13.9-.7-15.5-1.1-19.5-.4-4 0-13.2-9-9.6-9 3.6-10.6 5.1-12.9 6.4-2.3 1.3-8.7 4.8-8 17.1.7 12.3 1 21.7 1.5 26.1.4 4.4 4 24.4 20.1 13.3 8.8-6.2 9.8-27.4 9.4-33.8z" style="fill:#141414"/><linearGradient id="SVGID_6_" gradientUnits="userSpaceOnUse" x1="-2709.095" y1="-3122.232" x2="-2677.7" y2="-3174.894" gradientTransform="matrix(-.9813 .1925 -.0555 -.9929 -2496.785 -2339.67)"><stop offset="0" style="stop-color:#292726"/><stop offset="1" style="stop-color:#636363"/></linearGradient><path d="M309.1 262.1c0 .8.1 1.4.2 2 .2 2.2 1.2 8.5 4.3 12.6 2.9 4.1 8.4 5.8 15.8.6 8.3-5.7 9.6-25 9.5-32.5-6.9 6.1-16.6 12.5-29.8 17.3z" style="opacity:.5;fill:url(#SVGID_6_);enable-background:new"/><path class="st90" d="M329.9 259.5c0 .4 0 .7.1 1.1-.2.1-.4.3-.6.4-.1-1-.1-2-.2-3.1.1-.1.2-.1.3-.2.3-.2.6-.3.8-.5.4-.2.6-.1.7.2.1.4.1 1-.4 1.5.2.2.4.5.6.8v-.2l.6-3.3c0-.1.1-.2.1-.2.2-.1.4-.3.6-.4h.1c.3.8.6 1.7 1 2.4-.2.1-.4.3-.6.4h-.1c0-.1-.1-.3-.1-.4 0 0 0-.1-.1-.1-.2.2-.5.3-.7.4-.1 0-.1.1-.1.2 0 .2-.1.3-.1.5 0 0 0 .1-.1.2-.4.3-.9.5-1.3.8h-.1s-.1-.2-.4-.5c.1 0 .1 0 0 0zm0-.5c.1-.1.2-.1.3-.2.2-.1.3-.4.3-.6 0-.2-.1-.3-.3-.2-.1 0-.2.1-.3.2v.8zm2.9-1.3c-.1-.3-.2-.5-.3-.8-.1.4-.1.8-.2 1.1.1 0 .3-.1.5-.3zM327.2 262.3c-.1-1-.1-2-.2-3 .4-.2.8-.5 1.2-.7.5-.2.7.1.6.7-.1.2-.2.5-.4.7.3 0 .4.1.5.4 0 .4-.1.7-.3 1-.1.1-.2.2-.4.3-.1.2-.5.4-1 .6.1 0 .1 0 0 0zm.7-.9c.1-.1.2-.1.2-.2 0 0 .1 0 .1-.1.1-.1.2-.3.2-.5s-.1-.3-.2-.2c-.1.1-.3.1-.4.2v.1c0 .3 0 .5.1.7zm-.1-1.3c.1-.1.2-.2.4-.3.1-.1.2-.3.2-.4s-.1-.2-.2-.2-.3.1-.4.2v.7zM321.4 265.1c-.1.1-.2.2-.4.2v-.1c0-.3 0-.6-.1-1v-.1c-.1-.1-.2-.1-.3-.2 0 .6.1 1.1.1 1.6-.1.1-.2.2-.4.2 0-.7-.1-1.4-.1-2-.1.1-.2.1-.4.2v.1c0 .6.1 1.2.1 1.8 0 0 0 .1.1.1v.1c.3.2.3.2.3.7v-.1l-.6-.3c-.1 0-.1-.1-.1-.2 0-.7-.1-1.4-.1-2.1 0-.1 0-.1-.1-.1-.3-.2-.6-.3-.9-.5.1-.1.2-.3.3-.4h.1c.3.1.6.3.9.5v.1c0-.5-.1-.9-.1-1.3.2-.2.5-.1.6.1.1.3 0 .7-.3 1.1.1-.1.2-.1.3-.2h.1c.1.1.2.1.3.2-.2.1-.3.2-.5.3.1.1.2.1.3.2h.1c.1-.1.2-.2.4-.2h.1c.1.1.2.1.3.2-.1.1-.3.2-.5.3.1.1.2.1.3.2.1.1.1.1.1.2.1.1.1.2.1.4zM326 261.2c.3-.2.6-.3.9-.5v.6c-.3.2-.6.3-.9.5v.6c.3-.2.6-.3.9-.5v.6l-1.5.9c-.1-1-.1-2-.2-3.1l1.5-.9v.6c-.3.2-.6.3-.9.5.2.2.2.5.2.7zM324.1 263.6c.3-.2.6-.4 1-.6-.1.2-.2.5-.2.7l-.1.1c-.5.3-1.1.6-1.6 1 .3-1.1.6-2.1.9-3.1-.3.2-.6.4-1 .6.1-.3.2-.5.2-.7l.1-.1c.5-.3 1.1-.6 1.6-1-.2 1-.6 2-.9 3.1z"/><path class="st90" d="M318.8 265.3v-.6l-.6-.3v-.2c0-.1.1-.2.2-.4.1.1.2.1.3.2.2.1.3.2.5.3v.1c0 .6.1 1.2.1 1.7 0-.1-.1-.1-.1-.1-.3-.2-.7-.4-1.1-.6-.1-.1-.2-.2-.1-.3v-.3c.2.2.5.4.8.5zM320.4 268c-.3-.1-.5-.2-.7-.4-.6-.3-1.1-.6-1.7-.9l-.1-.1v-.5s.1 0 .1.1c.8.4 1.5.8 2.3 1.2 0 .1.1.1.1.1v.5zM321.4 265.1c.1-.1.2-.1.4-.2v-.5c.1-.1.2-.2.4-.2h.1c.1.1.2.1.3.2.1 0 .1.1.1.2 0 .3-.3.8-.6.9-.3.2-.6 0-.7-.4 0 .2 0 .1 0 0z"/><linearGradient id="SVGID_7_" gradientUnits="userSpaceOnUse" x1="-2705.809" y1="-3099.292" x2="-2667.915" y2="-3152.714" gradientTransform="matrix(-.9813 .1925 -.0555 -.9929 -2496.785 -2339.67)"><stop offset="0" style="stop-color:#292726"/><stop offset=".326" style="stop-color:#535251"/><stop offset="1" style="stop-color:#b5b5b5"/></linearGradient><path d="m308.6 253 23.8-13.4s-1.1-18.8-1.2-22.2c-.1-1.5-.4-2.6-.9-3.3-.5.1-1 .3-1.5.5-9 3.6-10.6 5.1-12.9 6.4-2.3 1.3-8.7 4.8-8 17.1.2 5.6.5 10.6.7 14.9z" style="opacity:.5;fill:url(#SVGID_7_);enable-background:new"/><path d="M313.5 276.7c2.9 4.1 8.3 5.7 15.8.6 8.4-5.6 9.6-25 9.5-32.5-.7 11-1.9 27.7-12.5 32.6-5.6 2.6-9.9 1.2-12.8-.7z" style="fill:#595758"/><path d="M300.6 220.4c-.9 1.3-1.8 2.6-2.4 4.1-.6 1.5-1.2 3-1.5 4.5-.6 3.1-.8 6.1-.8 9.2 0 3 .2 6 .3 9l.5 8.9c.2 3 .4 5.9.8 8.9.2 1.5.4 2.9.6 4.4.2 1.5.5 2.9.8 4.4.6 2.8 1.5 5.7 2.6 8.3 1.2 2.6 2.8 5.1 5 6.8-2.1-1.8-3.6-4.3-4.6-7-1.1-2.6-1.8-5.4-2.4-8.3-1.1-5.7-1.6-11.7-2-17.6l-.5-8.9c-.2-3-.3-6-.4-9-.1-3 0-6 .6-9 .3-1.5.7-3 1.3-4.4.4-1.6 1.2-3 2.1-4.3z" style="fill:#2e2e2e"/><linearGradient id="SVGID_8_" gradientUnits="userSpaceOnUse" x1="-2709.64" y1="-3128.994" x2="-2709.64" y2="-3105.746" gradientTransform="matrix(-.9813 .1925 -.0555 -.9929 -2496.785 -2339.67)"><stop offset="0" style="stop-color:#4f4f4f"/><stop offset="1" style="stop-color:#262423;stop-opacity:0"/></linearGradient><path style="fill:url(#SVGID_8_)" d="m332.4 239.6 6.4 5.3-.9-18.5-6.4-3.4z"/><linearGradient id="SVGID_9_" gradientUnits="userSpaceOnUse" x1="-2712.583" y1="-3131.379" x2="-2681.631" y2="-3131.379" gradientTransform="matrix(-.9813 .1925 -.0555 -.9929 -2496.785 -2339.67)"><stop offset="0" style="stop-color:#000"/><stop offset="1" style="stop-color:#383838"/></linearGradient><path d="M309.1 262.1c13.2-4.8 22.9-11.2 29.7-17.2l-6.4-5.3-23.8 13.4c.2 3.7.3 6.8.5 9.1z" style="fill:url(#SVGID_9_)"/><g class="st0"><path class="st9" d="M338.8 244.9c-1.1 1-2.2 2-3.3 2.8-1.1.9-2.4 1.7-3.6 2.5-2.4 1.6-4.9 3.1-7.4 4.5s-5 2.8-7.6 4.1l-3.9 1.8c-.7.3-1.3.6-2 .8-.3.2-.7.3-1 .4l-1 .4c2.7-.7 5.3-1.8 8-3 2.6-1.2 5.1-2.6 7.7-4 2.5-1.4 5-3 7.4-4.6 2.3-1.8 4.7-3.5 6.7-5.7z"/></g><linearGradient id="SVGID_10_" gradientUnits="userSpaceOnUse" x1="-2694.32" y1="-3094.494" x2="-2676.905" y2="-3111.909" gradientTransform="matrix(-.9813 .1925 -.0555 -.9929 -2496.785 -2339.67)"><stop offset=".103" style="stop-color:#292726;stop-opacity:0"/><stop offset=".17" style="stop-color:#373635;stop-opacity:.1542"/><stop offset=".311" style="stop-color:#4f4f4e;stop-opacity:.4755"/><stop offset=".439" style="stop-color:#5e5e5e;stop-opacity:.7669"/><stop offset=".54" style="stop-color:#636363"/><stop offset=".634" style="stop-color:#5e5e5e;stop-opacity:.7656"/><stop offset=".749" style="stop-color:#504f4f;stop-opacity:.4786"/><stop offset=".874" style="stop-color:#383736;stop-opacity:.1656"/><stop offset=".941" style="stop-color:#292726;stop-opacity:0"/></linearGradient><path d="M303.1 235c1.1.1 2.3 0 3.5-.2l1.2-.3c.6-9.5 5.9-12.4 8-13.5 1.1-.7 2.1-1.3 3.9-2.3v-.6c-.1-1.4-.4-2.8-.9-4.1-4.1 2.2-8.1 4.9-10.6 7.8-4.1 4.9-5.1 8.1-5.1 13.2z" style="fill:url(#SVGID_10_)"/><linearGradient id="SVGID_11_" gradientUnits="userSpaceOnUse" x1="-2673.258" y1="-3176.237" x2="-2710.202" y2="-3175.929" gradientTransform="matrix(-.9813 .1925 -.0555 -.9929 -2496.785 -2339.67)"><stop offset=".184" style="stop-color:#636363;stop-opacity:0"/><stop offset=".323" style="stop-color:#6c6b6a;stop-opacity:.4031"/><stop offset=".53" style="stop-color:#757370"/><stop offset=".71" style="stop-color:#6d6c6a;stop-opacity:.4237"/><stop offset=".843" style="stop-color:#636363;stop-opacity:0"/></linearGradient><path d="M320.1 292.1c8.5-2.6 12.8-6.1 14.9-9.2l.8 14.7c-5.1 4.2-11.4 7.8-18 8.5-4.4.5-8.5-.4-11.8-1.9l-.7-13c3.4 2 8.2 2.9 14.8.9z" style="fill:url(#SVGID_11_)"/><radialGradient id="SVGID_12_" cx="322.026" cy="-34.185" r="27.699" gradientTransform="matrix(1 0 0 -1 0 200)" gradientUnits="userSpaceOnUse"><stop offset="0" style="stop-color:red;stop-opacity:.8"/><stop offset=".767" style="stop-color:red;stop-opacity:0"/></radialGradient><circle cx="322" cy="234.2" r="27.7" style="fill:url(#SVGID_12_)"/><circle cx="322" cy="234.2" r="2.5" style="fill:red"/><g><path class="st100" d="M183 234.1c-.5 0-1-.3-1.3-.7-.4-.7-.2-1.6.5-2l52-30c.7-.4 1.6-.2 2 .5.4.7.2 1.6-.5 2l-52 30c-.2.1-.4.2-.7.2zM186.8 241.3c-.5 0-1-.3-1.3-.7-.4-.7-.2-1.6.5-2l52-30c.7-.4 1.6-.2 2 .5.4.7.2 1.6-.5 2l-52 30c-.2.2-.5.2-.7.2zM190.6 248.6c-.5 0-1-.3-1.3-.7-.4-.7-.2-1.6.5-2l52-30c.7-.4 1.6-.2 2 .5.4.7.2 1.6-.5 2l-52 30c-.2.2-.5.2-.7.2zM194.3 255.9c-.5 0-1-.3-1.3-.7-.4-.7-.2-1.6.5-2l52-30c.7-.4 1.6-.2 2 .5s.2 1.6-.5 2l-52 30c-.2.1-.4.2-.7.2zM198.1 263.2c-.5 0-1-.3-1.3-.7-.4-.7-.2-1.6.5-2l52-30c.7-.4 1.6-.2 2 .5.4.7.2 1.6-.5 2l-52 30c-.2.1-.5.2-.7.2zM215.2 265.5l-1.6.9-.6-1.2 4.5-2.5.6 1.2-1.6.9 2.7 4.9-1.3.7-2.7-4.9zM224.9 262.4c1.1 2 .6 3.8-1.1 4.8-1.7 1-3.5.2-4.4-1.6-1-1.8-.6-3.8 1.1-4.8 1.8-.9 3.5-.1 4.4 1.6zm-4.1 2.5c.7 1.2 1.6 1.7 2.5 1.2.9-.5.9-1.7.3-2.8-.6-1.1-1.6-1.7-2.5-1.2-.9.4-1 1.6-.3 2.8zM225.7 259.6l-1.6.9-.6-1.2 4.5-2.5.6 1.2-1.6.9 2.7 4.9-1.3.7-2.7-4.9zM231.9 260.5l.4 1.8-1.4.8-1.5-7.1 1.7-1 5.1 5.1-1.4.8-1.3-1.3-1.6.9zm1-1.8-1.1-1.1c-.3-.3-.7-.7-.9-1 .1.4.3.9.4 1.3l.4 1.5 1.2-.7zM233.8 253.6l1.3-.7 2.7 4.9 2.3-1.3.6 1.2-3.7 2-3.2-6.1zM244.3 249.5l-2.2 1.2.4 1c.1-.1.2-.1.4-.2.5-.3 1.2-.5 1.7-.4.6.1 1.1.4 1.5 1.1.6 1.1.2 2.6-1.3 3.4-.7.4-1.3.5-1.8.5l-.3-1.2c.3 0 .9-.1 1.4-.4.6-.3 1-.9.6-1.5-.3-.6-1-.7-2.1-.1-.3.2-.5.3-.7.5l-1.3-3.3 3.1-1.7.6 1.1zM248.2 254.9c-.2-.9-.4-2-.8-2.9l1.3-.8c.2 1.1.3 2.2.3 3.2l-.8.5zM251.4 245.5l-2.2 1.2.4 1c.1-.1.2-.1.4-.2.5-.3 1.2-.5 1.7-.4.6.1 1.1.4 1.5 1.1.6 1.1.2 2.6-1.3 3.4-.7.4-1.3.5-1.8.5l-.3-1.2c.3 0 .9-.1 1.4-.4.6-.3 1-.9.6-1.5-.3-.6-1-.7-2.1-.1-.3.2-.5.3-.7.5l-1.3-3.3 3.1-1.7.6 1.1zM257.6 244.4c1 1.8 1 3.4-.5 4.3-1.5.8-2.8-.2-3.8-1.8-.9-1.7-1-3.4.5-4.2 1.6-1 2.9.1 3.8 1.7zm-2.9 1.7c.7 1.3 1.4 1.8 1.9 1.5.5-.3.4-1.1-.3-2.4-.7-1.3-1.4-1.8-1.9-1.5-.5.2-.4 1 .3 2.4z"/></g></g><g id="Layer_4"><path class="st101" d="M410.7 218c-2.1.3-4.5 1.2-6.6 2.5-.2-.1-.4-.1-.7-.1-2.9-.6-5.7-.8-8.6.1-2 .7-3.6 2.1-5.5 3l-10.8 9.4c-1.2 1.7 1 3.9 2.5 4.6 3.1 1.5 6.1.1 9-.7 2.3-.6 4.3-.4 6.6-.8 1.8-.3 3.4-1.3 5.1-2 1.4-.6 2.5-.5 3.8-.6 2.7.9 5.7 2.2 8.2 1.2l2.9-13.5c1.6-2.8-4.7-3.3-5.9-3.1z"/><path class="st102" d="M399.3 221.4c-5.7.3-9 2.7-13.3 6.2l-6.9 5.7c1.9 5.4 10.9 1.7 14.7 1.3 1.7-.1 3-.3 4.5-1.3 1.6-.8 2.3-2.2 3.7-2.8 3.2-1.1 6.6 2.9 9.7 2.4 4.1-.7 3.5-6.8.8-8.9-3.3-2.6-9.2-2.8-13.2-2.6z"/><linearGradient id="SVGID_13_" gradientUnits="userSpaceOnUse" x1="29.457" y1="-696.693" x2="27.247" y2="-704.428" gradientTransform="scale(.9999 -.9999) rotate(26.85 -779.68 306.361)"><stop offset="0" style="stop-color:#904432"/><stop offset="1" style="stop-color:#e38b69"/></linearGradient><path d="M379.3 233.4c6.5 2.3 12-3.4 17.9-4.6 2.3-.6 4.8-.5 7.2-.2 1.7.2 7.9 2.9 9.1 2.1 2.6-1.3-1.7-5.8-3-6.7-7.6-5.3-18.8-1.7-25.1 4.1l-6.1 5.3z" style="fill:url(#SVGID_13_)"/><g><path class="st104" d="M378.4 232.8c-1.4 1.9.8 4.1 2.4 5 2.6 1.4 5.5.6 8.1-.3 1.6-.5 3.2-.8 4.8-.9 1.4-.1 2.9-.2 4.2-.7 1.3-.4 2.5-1.1 3.7-1.6 1.2-.5 2.6-1.1 3.9-.8.3.1.4-.4.1-.4-2.1-.4-4.3.8-6.2 1.7-1.1.5-2.2.9-3.3 1.1-1.6.3-3.3.2-4.9.4-2.8.3-5.3 1.8-8.2 1.5-1.3-.1-2.5-.7-3.5-1.5-.9-.8-1.8-2.1-1.1-3.3.3-.2.1-.3 0-.2z"/></g><g><path class="st104" d="M403.3 232.6c.8.3 1.6.8 2.4 1.1.9.4 1.9.8 2.9 1.1 1.5.5 3.8 1 5.2.1.3-.2.2-.7-.2-.7-.8.1-1.5.3-2.3.2-.9-.1-1.9-.3-2.8-.6-.8-.3-1.7-.6-2.5-.8-.8-.3-1.7-.5-2.5-.7-.3 0-.4.3-.2.3z"/></g><g><path class="st101" d="M366.4 234c1.5 2.8 5.3 3.3 7.8 2.5 1.8-.5 3.1-1.5 4.5-2.3 2-1.2 3.7-1.3 5.9-1.9 2.7-.7 4.7-2.4 6.9-4 2.1-1.5 3.9-4.1 6.7-4.1 2.1 0 3.8 1 5.7 1.6 2.5.8 5.3.7 7.9 1.2.2 0-.8-2.5-.9-2.7-.6-1-1.5-1.8-2.4-2.5-1.5-1.3-2.8-2.5-4-4.1-2.2-2.9-5.6-3.1-9-2.7-7.2.7-15.9 4.4-20.7 10.1l-8.4 8.9z"/><path class="st104" d="M366.3 234c1.4 2.6 4.6 3.4 7.3 2.9 2-.3 3.5-1.5 5.2-2.4 1.8-1 3.6-1.3 5.6-1.8 2.1-.5 3.9-1.7 5.6-2.9l2.4-1.8c.8-.6 1.5-1.3 2.3-2 .8-.6 1.7-1.2 2.6-1.4 1-.3 2.1 0 3.1.3 1.8.6 3.3 1.4 5.2 1.8 1.9.4 3.8.4 5.7.8.4.1 1 .1.9-.5 0-.4-.2-.9-.4-1.3s-.3-.9-.5-1.3c-.3-.7-1-1.4-1.6-1.9-1.5-1.4-3.1-2.6-4.4-4.1-1.1-1.2-2-2.3-3.6-3-1.4-.6-2.9-.7-4.4-.7-3.4.1-6.9.9-10.1 2-4.7 1.7-9.6 4.4-12.7 8.3-.1.2.2.4.3.3 5.1-5.5 12.2-8.9 19.5-9.9 3.2-.4 6.8-.5 9.2 1.9.6.7 1.1 1.4 1.8 2.1.7.8 1.4 1.4 2.2 2.1 1.2 1.1 2.6 2.1 3.2 3.6.1.3.3.7.4 1 .1.2.1.3.1.4 0 .1 0 .4.1.2l.3-.3c-.2.1-.8-.2-1.1-.2-.5-.1-.9-.1-1.4-.2-1-.1-2-.2-3.1-.4-1.9-.3-3.6-1-5.4-1.6-1.7-.5-3.4-.6-4.9.2-1.7.8-2.9 2.3-4.4 3.4-1.8 1.3-3.7 2.7-5.8 3.6-1.8.7-3.9.8-5.7 1.5-2 .8-3.6 2.3-5.6 3-1.5.5-3.2.6-4.7.2-1.3-.3-2.5-1.2-3.2-2.4.1.3-.1.4 0 .5z"/><path class="st102" d="M368.3 234.3c2.8 1.7 5.3.6 7.6-1 3.5-2 7.4-2.1 10.7-4.2 3.8-2.5 5.9-6.6 11-6.6 2.2 0 9.4 2.9 10.8 1.9 2-1.9-1.5-4.8-2.8-5.4-4.3-2.5-9.6-2.2-14.2-.3-8 3.4-14.3 11.9-23.3 13.3l.2 2.3z"/><linearGradient id="SVGID_14_" gradientUnits="userSpaceOnUse" x1="20.668" y1="-691.651" x2="20.668" y2="-697.729" gradientTransform="scale(.9999 -.9999) rotate(26.85 -779.68 306.361)"><stop offset="0" style="stop-color:#904432"/><stop offset="1" style="stop-color:#e38b69"/></linearGradient><path d="M368.4 233.8c2.4.3 5.1.1 7.4-.9 3.4-1.6 7.7-3 10.7-5.5 2.7-2.7 5.3-5.3 9.5-5.7 3.8-.3 8 2.3 11.7 1.7-.4-3.5-6.7-5.4-9.4-5.6-11.5-1.2-17.5 7-26.3 12.8l-3.6 3.2z" style="fill:url(#SVGID_14_)"/></g><g><path class="st101" d="M371.3 219.7c-2.3 1-3.8 3.7-5.6 5.4-1.9 2-6.8 5.2-3.6 7.8 4.7 3.7 12.8-1.1 17.4-3.1 3.6-1.8 6.5-4 9.5-6.7 1.4-1.3 4.2-3.3 6.2-3.6 3.1-.5 13.1 5.6 14.1 1 1.8-8.1-14.6-11.9-19.7-11.5l-18.3 10.7z"/><path class="st102" d="M398.1 215.5c-2.4-1.4-5.1-3.7-7.9-4.1-3.4-.4-6.1 2.6-8.6 4.3-3.3 2.3-6.2 3-9.8 3.8l-.5.3c-2.3 1-3.8 3.7-5.6 5.4-1.9 2-6.8 5.2-3.6 7.8 1.4 1.1 3 1.5 4.8 1.4v-.6c-2.9-1 .2-5 1.4-6 2.7-2.6 6.6-4.3 10.2-5.4 2.9-.9 6.1-.8 8.7-2.3 3.1-1.8 4.1-2.1 7.6-.8.3.1.6.2.8.3 2.1 0 6.3 2 9.5 2.6 1.8-2.3-6.1-6.1-7-6.7z"/><linearGradient id="SVGID_15_" gradientUnits="userSpaceOnUse" x1="21.014" y1="-682.602" x2="17.325" y2="-695.511" gradientTransform="scale(.9999 -.9999) rotate(26.85 -779.68 306.361)"><stop offset="0" style="stop-color:#904432"/><stop offset="1" style="stop-color:#e38b69"/></linearGradient><path d="M398.1 217.2c-2.6-1.2-7.2-6.6-9.9-5.3-1.5.8-2.3 2.6-4 3.2-2.1 1-4.6 1.7-6.9 2.4-1.6.5-3 .8-4.4 1.2l-1.7 1c-2.3 1-3.8 3.7-5.6 5.4-1.9 2-6.8 5.2-3.6 7.8.8.7 1.8 1.1 2.8 1.2-3.6-3.9 2-9 5.7-11 2.1-1.1 4.8-2.4 7.1-3 1.8-.5 4.1-.3 6.1-.7 2-.3 3.4-1.7 5.3-2.2 1.4-.4 3.1-.4 4.5.1 2.4.8 4.8 2.1 7.2 3.2.3.2.9.5 1.6.8 1.3.4 2.5.7 3.6.9 2.7-1.4-7-4.7-7.8-5z" style="fill:url(#SVGID_15_)"/><path class="st104" d="M371.2 219.6c-1.8.7-3 2.2-4.2 3.6-.9 1.1-1.9 2-3 2.9-1.4 1.3-3.7 3.1-3.3 5.2.2 1.1 1.2 1.9 2.1 2.4 1 .6 2.2.8 3.4.8 2.7.1 5.3-.9 7.7-1.9 1.2-.5 2.5-1.1 3.7-1.7 1.4-.7 2.8-1.3 4.1-2 1.8-1 3.4-2.2 5-3.4 1.4-1.1 2.8-2.4 4.2-3.5 1.3-1 2.8-2 4.4-2.3.9-.2 1.8.1 2.7.4 1.1.4 2.2.9 3.4 1.3 1.1.4 2.3.8 3.5 1 1.6.3 3.7.5 4.6-1.2.8-1.8.1-4.1-1-5.6-1.4-1.9-3.7-3.1-5.8-4.1-2.4-1.1-4.9-1.8-7.5-2.3-1.8-.3-3.6-.6-5.4-.5-.3 0-.3.4 0 .4 2.1-.1 4.2.2 6.2.7 2.6.6 5.2 1.4 7.6 2.6 2.1 1.1 4.2 2.5 5.2 4.7.7 1.6.8 4.3-1.3 4.6-1 .1-2.1-.1-3.1-.3-1.2-.3-2.4-.7-3.5-1l-3.3-.9c-.8-.2-1.6-.4-2.4-.3-1.5.2-3.1 1.2-4.3 2-1.5 1-2.7 2.2-4.1 3.4-1.6 1.4-3.3 2.7-5.2 3.8-1.3.8-2.7 1.4-4.1 2.1-2.5 1.2-5.1 2.4-7.8 3.1-2.5.6-5.4.7-7.5-1.1-2-1.8.7-4.3 2.1-5.5 1-.9 1.9-1.8 2.8-2.8 1.3-1.5 2.4-3.2 4.2-4.2.1 0 .1-.1.2-.1 0-.1-.1-.3-.3-.3z"/></g><g><path class="st101" d="M500 254.7c-2.9.2-4.7.3-5.3.3-9 .1-18.9-1.2-26.3-6.8-6.8-5.1-12.8-12.5-17.5-19.8-3.2-5.2-6.4-10.2-9.7-15.1-2.4-3.6-5.8-4.6-10-5.1-.3 0-.6 0-.8.1-.2-.1-.4-.1-.6 0h-.2c-.3-.2-.7-.4-1.1-.5-.2-.2-.5-.3-.7-.4-1.1-.4-2.1-.7-3.2-1-.6-.1-1.4-.3-2-.4-.7-.1-1.5-.2-2.1-.3-.3 0-.7-.1-1.1-.2-2.1-.3-4.1-.7-6-1.4-3.7-1.4-7.6-2.5-11.4-4-3.1-1.4-6.7-3.5-10.1-3.6-2.5.1-4.4 1.6-6.7 2.5-2.6 1.4-5.3 2.7-7.9 4-4.7 2.6-9.3 5.1-13.9 7.7-1.9 1.1-5.7 3.1-7.1 5.4-.2.2-.3.4-.3.7 0 .1 0 .2-.1.3h.4l-.2.1h-.1c.7 3.6 7.3 4.3 10.1 4.2.8-.1 1.9-.2 3-.4.1 0 .3 0 .4-.1.1.1.1.1.2 0 1.3-.2 2.5-.5 3.7-1 .3-.1.5-.2.7-.3.6-.3 1.3-.7 1.8-1.1.1-.1.1-.2.2-.2 4 .4 8.8-1.8 11.9-4.1h.3l1.5-.2c0 .1 0 .1.1.1.6.4 1.4.8 2.1 1.3.2.1.3.1.4.2.2.1.3.1.4.2 1.3.5 2.5 1.1 3.7 1.5.3.1.6.2.8.3 1.2.3 2.1.6 2.8.8.9.3 1.8.8 2.6 1.6.4.3.9.7 1.4 1.3v.1h.1c0 .1.1.1.2.2 0 .1.1.1.2.2l.1.1c.1.2.2.3.4.5s.4.4.6.7c.3.4.6.8 1.1 1.2.5.6 1.1 1.3 1.7 1.8.1.1.3.3.5.4.1.2.3.3.5.5.9 1 2 2.1 2.5 3.1 0 .1-.1.2-.1.3v.1c-.2.7-.4 1.5-.6 2.1-.1.4-.3.8-.4 1.3 0 .1-.1.2-.1.3-.1.2-.1.3-.1.5-.1.1-.1.2-.1.3-1.1 3.1-1.9 6.4-2.5 9.5-.7.4-1.5.8-2.2 1.2-.7.4-1.4.7-2.1 1.2h-.1v.1c-1.5-.2-3-.4-4.4-1-8.6-2.9-16.4-7.5-25.7-7.8-5.5-.1-14.5-.9-17.3 5.4-.4 1.2-.4 2.8 0 4.1l.1.1v.1c.1.4.3.8.5 1.2.2.3.5.6.7.8 0 0 0 .1.1.1s.1.1.2.1c2.1 1.7 5 2.8 7.8 3.4 1.1.3 2.1.6 3.1.8 3.2.8 6.7 2.5 10.1 3.4.5.1 1.1.2 1.6.3.5.1 1.2.1 1.7.1H382.5c.2.2.4.4.8.7 3.9 2.5 8.5 3.7 12.5 6.2 3 1.9 5.5 3.4 8.4 4.6.4.2.8.4 1.3.5.6.2 1 .5 1.6.6l.2.2c.5.5 1.2 1.1 1.7 1.6 1.6 1.4 3.2 2.9 4.8 4.1 3.3 2.7 6.7 4.8 10.6 6.1 7.3 2.5 15 3.5 22.6 4.4 3.8.5 7.5.9 11.3 1.6 3.7.7 7.3 1.8 11 2.5 6.4 1.4 12.8 2.1 19.3 2.8.3.1.5.1.8.1 1.9.2 3.7.3 5.6.5 1.7.2 3.2.2 4.8.3l.2-40.2z"/><path class="st102" d="M356 217.3c.7 3.6 7.3 4.3 10.1 4.2.8-.1 1.9-.2 3-.4.1 0 .3 0 .4-.1.1.1.1.1.2 0 1.3-.2 2.5-.5 3.7-1 .3-.1.5-.2.7-.3.6-.3 1.3-.7 1.8-1.1.1-.1.1-.2.2-.2 4 .4 8.8-1.8 11.9-4.1h.3l1.5-.2c0 .1 0 .1.1.1.6.4 1.4.8 2.1 1.3.2.1.3.1.4.2.2.1.3.1.4.2 1.3.5 2.5 1.1 3.7 1.5.3.1.6.2.8.3 1.2.3 2.1.6 2.8.8 1 .3 1.8.8 2.6 1.6.4.3 1 .7 1.4 1.3v.1h.1c0 .1.1.1.2.2 0 .1.1.1.2.2l.1.1c.1.2.2.3.4.5s.4.4.6.7c.3.4.6.8 1.1 1.2.5.6 1.1 1.3 1.7 1.8.1.1.3.3.5.4.1.2.3.3.5.5.9 1 2 2.1 2.5 3.1 0 .1-.1.2-.1.3v.1c-.2.7-.4 1.5-.6 2.1-.1.4-.3.8-.4 1.3 0 .1-.1.2-.1.3-.1.2-.1.3-.1.5-.1.1-.1.2-.1.3-1.1 3.1-1.9 6.4-2.5 9.5-.7.4-1.5.8-2.2 1.2.3-.1.6-.1 1-.3h.1c3.6-1.2 7.5-4.6 9.4-6.7v-.2c-3.9.1-5.3-.5-5-3.4 0-.1 0-.2.1-.4 0-.1 0-.3.1-.5.1-.5.2-1.2.4-1.8s.4-1.3.6-1.8c.4-1.3.8-2.3.8-3.4v-.1c0-1-.2-1.8-.8-3.1-.1-.1-.1-.2-.2-.3-.8-1.7-1.9-3-3.1-4.1 0-.1-.2-.2-.2-.2 0-.1 0-.1-.1-.2-.3-.3-.6-.6-1-.8-4.4-3.9-10.2-5.5-16.1-8.5-.8-.4-1.6-.6-2.2-.8h-.1c-.1-.1-.2-.1-.3-.1h-.1c-1.7-.4-3 0-5 1.3-2.3 1.4-4.4 4-7.1 4.8-1.5.2-3.1-.5-4.3-.3-5.4 1-10.4 6-16.7 2.1-.1 0-.1-.1-.2-.1 0 .1 0 .2-.1.3h.4l-.2.1zM500 286.5c-5.6-.7-11.1-1.7-16.8-2.6-18.8-3.1-38.1-4.3-55.5-12.2-3.9-1.8-6.4-5.5-10.2-7.3-4.3-1.9-9-1.3-13.5-1.2-4.8 0-7.6-2.4-11.9-3.8-1.1-.3-8.7-4-7.3-5.9-.1.2-.3.3-.4.4v.1c-.2.1-.3.3-.5.4-.8.6-1.8.2-2.3-.7-.1-.3-.3-.6-.3-1.1-.1-.1-.1-.2-.1-.3-1.3 1.8-3.5 1.7-4 0v-.1c-.2-.3-.2-.8-.1-1.5v-.2c-2.3 2.4-6.5.4-8.1.4h-.2c-1.2 0-3 .2-4.8.2H363.2c-.1-.1-.2-.1-.3-.1-.8-.1-1.7-.1-2.4-.3l-.2-.2c-.2 0-.4-.1-.5-.1-.2-.1-.3-.3-.5-.5-.2-.1-.4-.3-.5-.5-.6 0-1.1-.2-1.6-.5-.1 0-.1-.1-.1-.2-.2-.1-.3-.3-.5-.4.1.4.3.8.5 1.2.3.4.6.7 1.1 1.1 2.1 1.7 5 2.8 7.8 3.4 1.1.3 2.1.6 3.1.8 3.2.8 6.7 2.5 10.1 3.4h.3c.4.1.8.2 1.3.3.5.1 1.2.1 1.7.1H382.8l.3.3c.2.1.3.2.5.4 3.9 2.5 8.5 3.7 12.5 6.2 3 1.9 5.5 3.4 8.5 4.6.4.2.8.4 1.3.5.5.2 1 .5 1.6.6.7.7 1.4 1.3 1.9 1.8 1.6 1.4 3.2 2.9 4.8 4.1 3.3 2.6 6.7 4.8 10.6 6.1 7.3 2.5 15 3.5 22.6 4.4 3.8.5 7.5.9 11.3 1.6 3.7.7 7.3 1.8 11 2.5 6.4 1.3 12.9 1.8 19.3 2.8.3.1.5.1.8.1.7.1 1.4.2 2.1.4h.1c1.1.1 2.2.2 3.4.3 1.6.2 3.2.2 4.8.3v-9.1z"/><linearGradient id="SVGID_16_" gradientUnits="userSpaceOnUse" x1="78.494" y1="-696.476" x2="68.364" y2="-728.339" gradientTransform="scale(.9999 -.9999) rotate(26.85 -779.68 306.361)"><stop offset="0" style="stop-color:#e38b69"/><stop offset="1" style="stop-color:#f6b292"/></linearGradient><path d="M434.7 212.6c7 5.4 11.4 16.2 15.9 23.5-7.4-6.5-10.9-15.2-15.9-23.5z" style="fill:url(#SVGID_16_)"/><linearGradient id="SVGID_17_" gradientUnits="userSpaceOnUse" x1="85.712" y1="-708.24" x2="45.929" y2="-738.629" gradientTransform="scale(.9999 -.9999) rotate(26.85 -779.68 306.361)"><stop offset="0" style="stop-color:#fbdbc9"/><stop offset="1" style="stop-color:#f6b292"/></linearGradient><path d="M500 263.6c-1 .1-2 .1-3 0-3.9-.3-7.8-.7-11.6-1.3-6.8-1.1-13.6-3.1-20-5.8-10.1-4.3-18.8-10.3-25.3-19.1-3.5-4.8-6.8-9.8-7.8-15.7-.4-2.2-.6-4.5-1.3-6.6-.7-2.3-2.2-4.2-4.2-5.6-.2-.2-.5 0-.6.1-2.4-1.1-5.5-1.4-7.8-1.6-3-.2-5.8-1.1-8.6-2.3l-8.1-3.3c-3-1.1-6-2.1-9.1-2.6-1.3-.2-2.6-.2-3.9-.1-1.7.2-3.1 1-4.6 1.8-3.4 1.9-6.6 4.3-10.2 6-3.4 1.6-7.1 2.7-10.2 4.9l-.1-.2c.1-.1-.1-.3-.2-.1-2 2.9 2.2 2.2 3.8 1.8 1.7-.4 3.3-.9 4.9-1.5 2.1-.7 4.2-1.1 6.2-2.2 2.9-1.6 5.5-3.9 8.8-4.4 3.2-.5 6.4.6 9.3 1.8 8 3.3 15.6 7.9 19.3 16.2 1.9 4.3 1.3 8.2 2.3 12.7 1 4.8 1.6 5.6-2.7 8.9-2.6 1.9-5.7 3-8.5 4.5-4.2 2.3-9.4 1.9-13.9.6 0-.1-.1-.2-.2-.2-1.6-.8-6.3-3.9-7.5-1-.7 1.8.4 3.1 1.9 4.1 2.2 1.4 4.6 2.3 7.1 3.1 1.3.4 2.7.9 4.1 1.3 1.2.4 2.4 1 3.7 1.3 3.9.8 7.3-1.3 11.2-.1 4.1 1.3 7.8 3.7 11.4 5.9 7.1 4.3 15.7 6.1 23.9 6.8 3.6.3 6.7 1.6 10.3 2 4.7.5 9.3.8 13.9 1.7 7.7 1.5 15.4 3.3 23 5.3l4.2 1.2v-18.3z" style="fill:url(#SVGID_17_)"/><path class="st109" d="M500 293.5c-.5 0-1 0-1.5-.1-4.9-.4-9.7-1.5-14.6-2.1-9-1.2-18.1-3.4-27.2-4.7-8.2-1.3-16.4-2.2-24.5-3.9-4-.8-7.3-3-10.9-5-2.5-1.4-8.3-3.4-8.1-6.6-5.4-1.7-10.2-2.3-14.9-5.8-2.3-1.7-4.6-3-7.2-4.1-2.1-.9-5.5-1.5-6.6-3.8-.4.2-.8.1-1.1 0-.2 0-.3 0-.4-.1-.3-.1-.6-.2-1-.3 0 0-.7-.5-1-.6-.4-.1-.7.6-1.2.5-.8-.2-1.5-.6-2.1-1.1-.3-.2-.4-.3-.6-.4-.4-.3-.8-.5-1.4-.7-2.7-.9-6.1-.6-9.2-1.1-.4 0-.7 0-1.2-.1l.4.3c1.1.3 2.1.6 3.1.8 3.2.8 6.7 2.5 10.1 3.4.5.1 1.1.2 1.6.3.5.1 1.2.1 1.7.1l.6.3c.2.1.3.2.5.4 3.9 2.5 8.5 3.7 12.5 6.2 3 1.9 5.5 3.4 8.5 4.6.4.2.8.4 1.3.5.5.2.9.5 1.6.6.7.7 1.4 1.3 1.9 1.8 1.6 1.4 3.2 2.9 4.8 4.1 3.3 2.7 6.7 4.8 10.6 6.1 7.3 2.5 15 3.5 22.6 4.4 3.8.5 7.5.9 11.3 1.6 3.7.7 7.3 1.8 11 2.5 6.4 1.4 12.8 2.1 19.3 2.8.3.1.5.1.8.1 1.9.2 3.7.3 5.6.5 1.7.2 3.2.2 4.8.3l.1-1.7z"/><path class="st104" d="M428.5 207.8c1.2.6 2.3 1.5 3.3 2.6.1.2.3 0 .2-.2-.6-.7-1.5-1.4-2.2-1.9l-.2-.2c.3.1.5.1.8.2 1.2.2 2.3.4 3.5.6 1.4.3 2.8.7 3.9 1.4 1.5 1 2.5 2.2 3.5 3.6 1.3 1.9 2.6 3.9 3.9 5.8 2.3 3.7 4.6 7.5 7 11.1 2.3 3.4 4.8 6.6 7.4 9.5 4.8 5.3 10.3 10.3 17.2 12.6 6.4 2.1 13.2 2.5 19.9 2.2 1.1 0 2.1-.1 3.2-.2v-.3c-4.9.2-9.9.1-14.8-.5-3.4-.5-6.7-1.3-9.8-2.4-3.2-1.3-6-3.1-8.8-5.3-6.2-5.2-11.5-11.9-15.9-18.9-2.3-3.8-4.8-7.6-7.2-11.4-1.1-1.7-2-3.5-3.4-4.9-1-1.1-2.1-1.8-3.4-2.3-2.3-.8-4.9-.7-7.3-1.1 0 0-.1 0-.1.1-.5-.3-1-.5-1.5-.6-1.1-.4-2.1-.7-3.2-1-.2 0-.3-.1-.5-.1.4.1.8.2 1.1.3 1.3.4 2.5.7 3.4 1.3zM377.2 252.3c.1-.6.2-1.3.4-1.8.4-1.8 1.3-3.6 2.4-5.1.1-.1-.2-.3-.3-.2-1.5 1.4-2.2 3.5-2.6 5.4v.2c-.4 1.5-.6 3.3.1 4.7.1.3.3.6.5.8.1.1.2 0 .2-.1-.1-.1-.2-.2-.1-.3l-.1-.1c-.7-1-.7-2.2-.5-3.4v-.1zM359.3 245.3c-.2.3-.3.5-.4.8-.2.6-.3 1.4-.2 2.1 0 .6.1 1.3.5 1.7.2.2.3.4.5.5.2.1.5.2.7.3.7.2 1.6.2 2.4.3.1 0 .2 0 .3.1 1.2.1 2.3.5 3.5.6.3 0 .5 0 .7-.1-.6 0-1.3-.1-1.8-.2-.6-.1-1.1-.2-1.6-.3h-.1c-.1-.1-.2-.1-.3-.1-.2-.1-.5-.1-.7-.1-.6-.1-1.3-.1-1.8-.2-.3 0-.6-.1-.8-.2-.3-.1-.5-.2-.7-.4-.5-.4-.7-1-.7-1.6-.1-.7 0-1.6.2-2.2 0-.4.2-.7.3-1z"/><path class="st104" d="M500 295.4c-1-.1-2-.1-3-.2-2.1-.1-4.3-.4-6.5-.6-4.3-.4-8.6-1-12.9-1.6-8.5-1.3-16.8-3.6-25.4-4.8-8.4-1.2-16.8-2-24.9-4.4-3.8-1.2-7.3-2.6-10.6-5-3.1-2.1-5.8-4.7-8.7-7-.1-.1-.2-.2-.3-.2.3 0 .6.1.8.1.1 0 .1-.1.1-.2-1.1-.2-2-.5-3-.9-.4-.1-.8-.3-1.3-.5-.8-.3-1.6-.7-2.4-1.1-2.1-1.2-3.9-2.6-5.8-3.9-4.2-2.6-9.2-3.8-13.5-6.6.3-.3.6-.6.7-1.1.6-1.1.8-2.2 1.1-3.4v-.1c.1-.5.1-1.1.2-1.5 0-.1-.1-.1-.2-.1-.1.7-.3 1.4-.5 2.1 0 .3-.1.6-.2 1-.1.5-.3 1.3-.7 1.9-.1.4-.3.8-.6 1.2h-.1c-1.1-.1-2-.2-3-.4-3-.7-5.6-2.1-8.6-3.2-1.4-.5-2.8-.8-4.1-1.3-2.9-.6-5.8-1.4-8.3-3.1-.6-.4-1.1-1-1.3-1.7-.1 0-.1-.1-.1-.2-.3-.6-.4-1.3-.5-1.8-.3-1.7.2-3.2 1.3-4.4 2-2.8 5.9-3.4 9.1-3.6 1.7-.1 3.4 0 5 0 1.8 0 3.5.1 5.2.3 3.7.4 7.3 1.6 10.8 2.9 2.8 1.1 5.5 2.4 8.4 3.6 1.5.5 2.9 1.1 4.4 1.5 1.5.3 3 .4 4.4.4.2 0 .2-.2 0-.2-.3 0-.7 0-1.2-.1 1.1-.4 2-1 3.1-1.5h.1c1.1-.6 2.1-1.2 3.1-1.8 1.9-1.3 3.6-2.8 5.3-4.3.1-.1 0-.2-.1-.2-2.1 2-4.4 3.6-6.9 5.1.7-3.1 1.6-6.1 2.6-9.1 0-.1 0-.2.1-.3 0-.2 0-.4.1-.5h.1c.1-.6.2-1.2.5-1.7.1-.6.3-1.3.6-1.9.2-1 .5-1.8.8-2.8 0-.1-.1-.1-.2-.1-.3.6-.5 1.4-.8 2-.5-1.1-1.4-1.9-2.2-2.8-.2-.2-.3-.3-.5-.4-.1-.2-.3-.3-.4-.4-.6-.5-1.2-1.1-1.7-1.6l-.2-.2c-.3-.4-.7-.7-1.1-1.2-.2-.3-.5-.5-.7-.8-.1-.1-.3-.3-.4-.5l-.1-.1-.1-.1c-.1-.1-.1-.2-.2-.3-.1 0-.1 0-.2-.1-.3-.4-.7-.8-1.2-1.2-.3-.3-.6-.6-1-.8-1-.7-2-1.2-3.1-1.5-.2-.1-.3-.1-.5-.2-.4-.1-.8-.2-1.3-.4-.7-.2-1.5-.4-2.2-.7-.5-.2-1.2-.4-1.7-.8-.2 0-.3 0-.4-.2-.2 0-.3 0-.4-.2-1.7-.7-3.3-1.9-4.6-3.2v.1c.3.4.5.7.8 1.1-2.4 2-5.2 3.5-8.3 4.4-1.3.3-2.6.6-4 .5-.4 0-.8-.1-1.3-.2-.3 0-.6-.1-.8-.2-.5-.2-1-.3-1.4-.6.4.3.7.6 1.2.8.1.2.3.2.5.2.2.2.5.2.7.3-1.6 1-3.4 1.6-5.3 2h-.2c-.1.1-.2.1-.4.1-1.6.3-3.4.5-5 .4-1.7 0-3.4-.3-5-.8-1.5-.5-3.1-1.4-3.5-3v-.1c0-.1 0-.1.1-.2.3-1.2 1.6-2.1 2.5-2.9 1.2-1 2.4-1.7 3.7-2.4 3.6-2.1 7.3-4.1 10.8-6.1 4-2.3 8.1-4.3 12.1-6.4 1.8-.8 3.7-1.9 5.7-2.3 1.8-.3 3.7.4 5.4 1.1 1.6.6 3 1.4 4.6 2 1.7.7 3.6 1.4 5.4 2l5.7 1.8c.4.2.8.3 1.3.3 1 .4 1.9.7 3 1 1 .2 2 .3 3.1.4.3.1.7.2 1.1.2.6.1 1.4.2 2.1.3l1.5.3c-2.7-.7-5.6-1.1-8.2-1.7-1.7-.4-3.3-1.1-5-1.6-2-.7-4.1-1.4-6.1-2.2-1.9-.6-3.7-1.5-5.5-2.3-1.6-.7-3.2-1.5-4.9-1.9-1.7-.5-3.4-.5-5 .1-.9.3-1.7.8-2.5 1.3-1 .5-2 1.1-3 1.5-2 1.1-4 2-6 3.1s-4 2.1-6 3.2c-3.6 1.8-7 3.8-10.4 5.8-2 1.2-4.3 2.5-5.2 4.7-.2.2-.3.4-.3.7l-.1.1c-.1.1-.1.1-.1.2 0 0 0 .1.1.1.5 3.4 5.2 4.2 7.9 4.4 1.6.2 3.2.1 4.8-.2.1 0 .3 0 .4-.1.1 0 .2 0 .3-.1 1.4-.2 2.8-.7 4-1.3.3-.1.5-.2.7-.3.6-.2 1.3-.5 1.8-.8 0-.1.1-.1 0-.2 1.5.2 3.1.1 4.6-.2 2.9-.7 5.6-2.2 7.8-4.1.3-.2.6-.5.8-.7.2.2.4.4.6.5 0 .1 0 .1.1.1.5.5 1.2 1 1.8 1.4.1.1.2.1.3.2.1.1.2.1.3.1.5.4 1.1.6 1.7 1 .5.2 1.2.4 1.7.6.1.1.1.1.2.1.5.2 1.2.4 1.7.6 1.4.3 2.6.6 3.8 1.3.3.2.5.3.8.5.5.4 1.1.8 1.5 1.4h.1l.2.2.2.2s0 .1.1.1c.1.2.3.3.4.5.2.3.5.5.7.8.3.4.6.7 1.1 1.2 0 .1.1.2.2.3.4.5 1 1.1 1.5 1.5.1.2.2.3.4.4l.4.4.2.2c1 1 2 1.9 2.6 3.2 0 .1 0 .1.1.1v.1c-.3.7-.6 1.5-.8 2.2-.2.5-.3 1-.5 1.4 0 .2-.1.4-.2.5v.3c-1.1 3.1-1.9 6.2-2.4 9.4-1.5.8-2.9 1.7-4.3 2.4v.1c-.1-.1-.1 0-.1 0-3.3-.5-6.4-1.9-9.4-3.1-3.4-1.3-6.9-2.6-10.4-3.8-3.4-1.2-6.9-1.9-10.6-2.1-3.2-.1-6.5-.3-9.7.3-2.4.4-4.3 1.6-5.9 3.3 0 0 0 .1-.1.1-.5.6-1.2 1-1.5 1.7-.6 1.3-.5 2.8-.2 4.1.3 1.2.8 2 1.8 2.5 0 0 0 .1.1.1 0 0 .1.2.2.2 1.7 1.4 3.6 2.4 5.7 3.1 2.2.7 4.6 1.2 6.8 2 3.8 1.3 7.7 3.9 12 3.2 2 1.5 4.1 2.6 6.4 3.6 2.4 1.1 4.9 2 7 3.5 3.6 2.2 7.4 4.7 11.7 5.5-.1.1-.1.1 0 .2 2.6 2.6 5.3 5.2 8.3 7.4 3.1 2.3 6.5 3.9 10.1 5.1 7.9 2.5 16.3 3.2 24.5 4.2 4.4.6 8.8 1.3 13 2.4 4.1 1.1 8.3 1.9 12.5 2.6 4.2.6 8.6 1.1 12.9 1.5 1 .1 1.9.2 3 .2h.1c1.1.1 2.2.2 3.4.3 1.5.2 3.2.2 4.8.3l.1-.3z"/><path class="st104" d="M381.3 252.7c-.2 1.1-.3 2.1-.2 3.2 0 .2.3.2.3-.1.1-.6.2-1.3.2-2 .1-.8.2-1.7.3-2.6.1-1.6.2-3.1-.2-4.7 0-.1-.2 0-.1.1.2 1.6.1 3.2-.1 4.7-.1.4-.1.9-.2 1.4zM369.2 250.6c.2-.7.1-1.5.1-2.2 0-.4 0-1-.2-1.4.1.7.1 1.5.1 2.2 0 .6 0 1.3-.3 1.8h.1c.1-.1.1-.3.2-.4zM369.1 247c0-.3 0-.5-.1-.8-.1-.7-.4-1.4-.8-1.9-.2-.5-.7-1-1.2-1.2.5.4 1.1 1 1.4 1.7.3.7.5 1.3.7 2.2zM362.9 242.1c-.1 0-.1 0-.2.1.7-.2 1.5-.2 2.2-.1-.1-.1-.1-.1-.2-.1-.7-.1-1.3-.1-1.8.1zM368.8 251.1l.1-.1h-.1zM373 217.3l-.1-.1s.1 0 .1.1z"/></g><g><defs><path id="SVGID_18_" d="m378.3 263.3-13.9-22.7c-.7-4.5-.4-4.7 0-6.7-3.6-6.7-7.8-15 2.5-24.1s27.7-10.8 33.7-3.8c2.2 2.5 3.1 5.7 3.5 8.7 1.2 1.5 5.1 2.8 6.7 11.5 1.6 8.7 4.7 21.1 4.7 21.1.4 6.6-1.3 16.7-13.7 21-12.3 4.2-21.7-2-23.5-5z"/></defs><clipPath id="SVGID_19_"><use xlink:href="#SVGID_18_" style="overflow:visible"/></clipPath><g style="clip-path:url(#SVGID_19_)"><path class="st90" d="m378.3 263.3-13.9-22.7c-.7-4.5-.4-4.7 0-6.7-3.6-6.7-7.8-15 2.5-24.1s27.7-10.8 33.7-3.8c2.2 2.5 3.1 5.7 3.5 8.7 1.2 1.5 5.1 2.8 6.7 11.5 1.6 8.7 4.7 21.1 4.7 21.1.4 6.6-1.3 16.7-13.7 21-12.3 4.2-21.7-2-23.5-5z"/><path class="st111" d="M363.6 231.9c-.2-.6-.5-1.1-.8-1.6-.1-.3-.2-.6-.4-.8-.4-.9-.8-1.9-1.2-2.9-.3-1.1-.5-2.2-.5-3.3.1-1 .2-2 .2-3l.9-3c.3-.7.7-1.4 1-2.1.4-.3.5-.8.7-1.2 0 0 .1.1 0 .1.3.3.6.9 1.1.1 2.4-4 6.1-6.6 10.2-8.5 2.7-1.3 5.7-2.1 8.7-2.4 4.1-.4 8.1-.1 11.8 1.9 4 2.2 6.4 5.9 5.9 10.5 0 .2-.2.6.2.7.3.1.5-.2.6-.4.8-1.2.9-2.4.4-3.8-.4-1.2-1.3-2.3-.6-3.6.5.5.7 1.2 1.1 1.8 0 .2 0 .4.2.6.3 1 .5 2.1.8 3.1.1 1.7 1.6 2.2 2.5 3.2.1 0 .1.1.2.1.5.7 1 1.5 1.6 2.2.9 1.1 1.3 2.5 1.9 3.8-.1.5.4.9.1 1.4-.6-.5-.3-1.3-.7-1.9-.6-.8-.5-2.1-1.7-2.4-1.1-1.2-1.8-2.8-3.5-3.7-.1.8.4 1.3.7 1.8-.3 0-.8-.2-.6.5 0 1.8-.3 3.6-1.1 5.2-.5-.7-.4-1.7-1-2.4.5-1.3 1.1-2.5 1.4-3.9.2-1 .1-2.7-.2-3.4-.1 3-1 5.6-2.6 8-1.1 1.8-2.5 3.2-4 4.6-1.2 1.1-2.5 1.9-3.9 2.8-.4.2-.8.3-1.1-.1-.3-.5.1-.7.4-1 .1-.1.3-.2.4-.3 2-1.5 4-3.2 5.5-5.3.2-.3.6-.5.4-.9-.2-.4-.7-.2-1-.1-.2 0-.5.3-.6-.1-.1-.2.1-.5.2-.6.7-.8 1.1-1.8 1.5-2.8.5-1.3.3-1.5-1-1.7-5.2-.7-10.4-1.9-15.6-2.5-2.6-.3-5.2-.5-7.8-.7-2.8-.2-5.6.3-8.4.7-.2 0-.3.2-.4.4-1 2.4-1.4 4.8-.8 7.3.3 1.8 1.2 3.4 2.3 4.9-1.6-.1-2.2-1.5-3.3-2.3-.2-.2-.3-.7-.7-.5-.4.2-.1.6 0 .9.9 2.4 2.5 4.2 4.6 5.6.2.2.8.3.6.7-.2.4-.7.5-1.1.4-.5-.1-.8-.4-1.2-.7-.7-.6-1.5-1.2-2.2-1.8 1.3 2.7 3.4 4.2 6.1 5.1 2 .9 4.2 1.3 6.4 1.4 3.2.2 6.4-.4 9.5-1.3.9.8 1.1 2 1.3 3.1-.3.1-.7.3-1.1.3-3 .7-6 1-9 .9-3.5-.2-6.8-1.2-9.7-3.3-.5-.5-.9-1-1.4-1.5-.1-.1-.3-.5-.6-.2-.2.2 0 .4.1.5.5.5.9 1.1 1.6 1.4 0 .1.1.3.1.4-.2.1-.2.3-.2.5 0 .7.4 1.5 0 2.3-.9-1.3-.9-1.3-1.5-.4-.1-.1-.2-.1-.3-.2-.2-1.6-.6-3.1-.5-4.7 0-.7-.3-1.4-.9-1.9zm.3-16.7c-.3.2-.5.4-.3.8.2-.2.4-.4.3-.8z"/><path class="st112" d="M407.9 220.5c1.2.3 1.2 1.6 1.7 2.4.4.6.1 1.4.7 1.9 0 .1 0 .3.1.4-.2.4-.4.7.1 1 0 .2 0 .4.1.6.1 1.8-.8 3.5 0 5.3.7 1.7.9 3.6 1.3 5.4.4 1.5.8 3.1 1.2 4.6 0-2.1-.9-4.1-1-6.2.4.3.4.7.4 1 .7 2.6 1.3 5.2 2 7.8.1.3.1.4.4.4.1.1.1.2.2.2 0 .1 0 .3-.1.4-.5.1-.2.4-.1.7 0 .9.4 1.9 0 2.8-.8.1-.9-.6-1-1.1-.2-.9-.6-1.8-1.2-2.3-1.1-1.1-1-2.5-1.5-3.7-.4-1-.5-2-.8-3-.4-1.7-.9-3.4-1.4-5.1 0-.1-.1-.3 0-.4.3-.6 0-.9-.5-1.1.4-1.3.9-2.5 1-3.9.4-2.9-.1-5.6-1.6-8.1z"/><path class="st111" d="M415 245.1c-.3 0-.4-.2-.4-.4-.7-2.6-1.3-5.2-2-7.8-.1-.3 0-.7-.4-1 .1 2.2 1 4.1 1 6.2-.4-1.5-.8-3-1.2-4.6-.4-1.8-.7-3.7-1.3-5.4-.7-1.9.1-3.6 0-5.3.7.5.6 1.3.7 2.1 0 .4-.2.8.4 1 .1 1 .3 1.9.6 2.8 0 .6.2 1.1.4 1.6 0 .5.1.9.1 1.4.3 1.1.7 2.2 1 3.3.2 1.1.5 2.2.8 3.2-.2 1.1.4 1.9.3 2.9zM410.4 225.2c.5.1.3.5.4.8-.1.1-.2.2-.3.2-.5-.3-.2-.6-.1-1z"/><path class="st113" d="M364.9 238.6c.1.1.2.1.3.2.3 1.2.7 2.4 1.6 3.3.5.9 1.3 1.6 1.9 2.4.1.6-.2 1.4.4 1.8.2.4.6.7.6 1.2l.2.2c1.1 2.1 2.3 4.2 3.6 6.1.9 1.9 2.2 3.5 2.9 5.5h-.4l-.2-.2c0-.4-.1-.7-.4-.8 0-.4-.3-.7-.6-.8 0-.4 0-.7-.4-.8l-.2-.2c0-.4 0-.7-.4-.8l-.2-.2c0-.4 0-.7-.4-.8l-.2-.2c0-.4 0-.7-.4-.8l-.2-.2c0-.5 0-.9-.6-1 0-.5-.1-1-.6-1.2l-.2-.2c-.1-.3.1-.7-.4-.6-.7-.5-.6-1.7-1.6-1.9v-1.1c-.1-.1-.1-.2-.2-.3 0-.2 0-.3-.2-.4 0-.2 0-.3-.2-.4l-.2-.2c0-.2 0-.3-.2-.4-.1-.5-.2-1-.8-1 0-.2-.1-.4-.3-.4-.6-.3-.6-1.1-1.1-1.5-.1-.2-.2-.4-.2-.6-.5-1-.9-2.1-1.2-3.3v-.4c0 .3.3.2.5 0z"/><path class="st112" d="m380.1 265.1-1.2-.9c-.1-.1-.2-.3-.4-.4l-.3-.6h.4c.4.5.7 1.2 1.6.8 2.2 1.5 4.7 2.5 7.6 3.2-1.2.2-1.9-.4-2.8-.3-.8-.5-1.7-.8-2.7-1-.2-.2-.4-.2-.6-.2-.1-.2-.2-.2-.4-.2l-.2-.2c-.2-.2-.3-.4-.6-.2h-.4z"/><path class="st111" d="M367.9 245.8c-.3 0-.4-.3-.6-.4l-.3-.6c.7 0 .8.5.9 1zM371.1 251.7v-.4c.5.3.6.7.6 1.2-.3-.2-.3-.6-.6-.8zM371.8 252.5c.6.1.6.6.6 1-.4-.2-.5-.6-.6-1zM375.4 258.4c-.3.1-.3-.3-.6-.4 0-.1 0-.3-.1-.4.5.1.7.4.7.8zM372.6 253.7c.4.2.4.5.4.8-.3-.2-.5-.4-.4-.8zM373.2 254.7c.4.2.4.5.4.8-.3-.1-.5-.4-.4-.8zM373.8 255.7c.4.2.4.5.4.8-.3-.1-.4-.4-.4-.8zM374.4 256.8c.4.2.4.5.4.8-.3-.2-.4-.5-.4-.8zM366.8 244.3c.2 0 .3.2.3.4-.1-.1-.2-.2-.3-.4zM374.2 256.6l.2.2c-.1 0-.2-.1-.2-.2zM373.6 255.5l.2.2c-.1 0-.2 0-.2-.2zM373 254.5l.2.2c-.1 0-.1-.1-.2-.2zM372.4 253.5l.2.2c-.1-.1-.2-.1-.2-.2z"/><path class="st113" d="M400.3 269.6c-4.1 1.2-8.3 1.1-12.4 0-.2-.3-.6-.1-.8-.4.1-.4.3-.5.6-.3.2.1.4.3.6.2 1.4-.2 2.7.2 4.1.2 1.8 0 3.5-.3 5.2-.6 1.2-.2 2.3-.7 3.5-.9 1.8-.3 3.4-1.3 5-2.1 1.8-.9 3.1-2.6 4.8-3.7.1-.1.2-.2.3-.4.9-1.6 2.1-2.9 2.8-4.6.1-.3 0-.7.5-.8.1.6-.2 1.1-.2 1.6-.8 1.5-1.5 3.2-2.6 4.6-.5.6-1.2 1-1.5 1.8-.4 0-.6.3-.8.6-1.9 1.5-3.9 2.7-6.1 3.7-1 .4-2 .8-3 1.1zM364.7 222.3c-.6-2.5-.2-5 .8-7.3.1-.2.2-.3.4-.4 2.8-.3 5.6-.9 8.4-.7 2.6.2 5.2.4 7.8.7 5.2.7 10.4 1.8 15.6 2.5 1.4.2 1.5.4 1 1.7-.4 1-.8 1.9-1.5 2.8-.1.2-.3.4-.2.6.1.3.4.1.6.1.4-.1.8-.2 1 .1.2.4-.2.6-.4.9-1.5 2.1-3.4 3.7-5.5 5.3-.1.1-.3.2-.4.3-.3.2-.7.5-.4 1 .3.4.7.4 1.1.1 1.3-.8 2.7-1.7 3.9-2.8 1.5-1.4 2.9-2.9 4-4.6 1.5-2.4 2.5-5 2.6-8 .4.6.4 2.4.2 3.4-.3 1.4-.8 2.6-1.4 3.9-2.6 4.6-6.5 7.8-11 10.3-1.3.7-2.6 1.4-4.1 1.7.2-.6.2-1-.6-.7-1.1.4-2.1.6-3.3.3-.2-.1-.6.1-.7-.2-.1-.4.3-.5.6-.5 1.1-.3 2.1-.7 3.2-.9.9-.2 1-.9.6-1.5-.5-.8 0-.9.6-1.1 1.6-.5 2.9-1.7 4.4-2.4.2-.1.6-.3.5-.7 0-.4-.4-.4-.7-.5-1-.4-2.1-.3-3.1-.5-2.9-.7-6-1-9-1.4-1.9-.2-3.9-.5-5.8-.7-2.8-.2-6-.9-9.2-.8z"/><path d="M364.7 222.3c3.2-.1 6.4.5 9.7.7 2 .1 3.9.4 5.8.7 3 .4 6 .7 9 1.4 1 .2 2.1.1 3.1.5.3.1.6.2.7.5 0 .3-.3.6-.5.7-1.5.8-2.8 1.9-4.4 2.4-.5.2-1 .3-.6 1.1.3.6.2 1.2-.6 1.5-1.1.3-2.1.6-3.2.9-.3.1-.7.1-.6.5.1.3.5.1.7.2 1.1.3 2.2.1 3.3-.3.8-.3.8.1.6.7-.6.3-1.2.5-1.8.8-3.1.9-6.2 1.5-9.5 1.3-2.2-.1-4.3-.5-6.4-1.4.1-.6.4-.7.9-.5 1.9.8 3.9.2 5.8 0 .2 0 .5-.1.4-.5-1.7 0-3.4-.3-5-.8-.4-.1-1.2 0-1.2-.6-.1-.6.6-1 1-1.4.3-.4.7.1 1.1-.3-2.2-.7-4.1-1.8-5.8-3.2-1.3-1.4-2.2-3-2.5-4.9zM381 231c-1.4.3-2.9.2-4.3.2-.7 0-.7.4-.5.9.2.5.5.8 1.1.8.4 0 .9-.1 1.2.1 1.2.7 2.1-.2 3-.6.4-.2.8-.7.7-1.1-.1-.4-.7-.1-1.2-.3z" style="fill:#ebebeb"/><path class="st115" d="M366.9 236.4c0-.1-.1-.3-.1-.4l.3-.3c2.9 2.1 6.1 3.1 9.7 3.3 3.1.1 6.1-.2 9-.9.4-.1.7-.2 1.1-.3.3 0 .5 0 .8-.1 4.2-1.2 7.7-3.6 11-6.4.8-.7 1.5-1.5 2.1-2.3 1.1-1.4 2.2-2.9 2.7-4.7.8-1.7 1.1-3.4 1.1-5.2.9.6 1.5 1.6 1.5 2.6 0 1.4.7 2.5.8 3.8.1.6-.2 1.1-.1 1.7.2 1.3-.1 2.5-.8 3.7-.8 1.3-2.2 2.1-3 3.4-.6.9-1.4 1.6-2.2 2.3-.9.8-2 1.5-3.3 1.9-.3.1-.8.1-.9.4-.3 1-.6 1.3-1.8 1.3-1.5.1-3 .8-4.4 1.3-1.2.4-2.4.7-3.7.9-.2 0-.4.1-.5.3-.1.3.2.3.3.5.1.1.4.3.3.5-.1.3-.4.2-.6.2-.4 0-.9 0-1-.3-.4-.8-1-.6-1.6-.5-.6.1-1.2.4-1.7-.3-.1-.2-.3-.1-.4.1-.5.4-1 .2-1.5.1s-.9-.1-1.4.2c-.4.2-.7.9-1.3.8-2.3-.5-4.4-1.3-6.3-2.6-1.1-.8-2.4-1.6-2-3.4.1-.2 0-.5-.2-.5-.7-.2-1.1-1-1.9-1.1zm6.9 3.2c5.1 1.8 10.1 1.1 15.1-.9-5 1.4-10 1.9-15.1.9z"/><path class="st112" d="M366.9 236.4c.8.2 1.2 1 2 1.2.2.1.3.3.2.5-.5 1.8.8 2.6 2 3.4 1.9 1.3 4.1 2.1 6.3 2.6.5.1.8-.5 1.3-.8.5-.3.9-.4 1.4-.2.5.1 1 .2 1.5-.1.2-.1.3-.2.4-.1.5.6 1.1.3 1.7.3.6-.1 1.2-.3 1.6.5.1.3.6.4 1 .3.2 0 .5.1.6-.2.1-.2-.1-.3-.3-.5-.1-.1-.4-.2-.3-.5.1-.2.3-.3.5-.3 1.3-.2 2.4-.5 3.7-.9 1.4-.5 2.9-1.3 4.4-1.3 1.1-.1 1.5-.4 1.8-1.3.1-.4.6-.4.9-.4 1.3-.3 2.4-1.1 3.3-1.9.8-.7 1.6-1.4 2.2-2.3.9-1.3 2.3-2 3-3.4.6-1.1 1-2.3.8-3.7-.1-.6.2-1.1.1-1.7-.1-1.3-.8-2.5-.8-3.8 0-1-.6-2-1.5-2.6-.2-.6.3-.5.6-.5 1.3 1.2 2.2 2.6 2.7 4.3-.2 1.6 0 3.3.2 4.9.1 1.5.7 2.9-.1 4.3-.4.8-.8 1.7-1.3 2.4-.3.4-.7.9-.3 1.5.1.4-.2.7-.4 1-1.5 1.9-3.3 3.5-5.2 5-2 1.7-4.5 2.7-6.9 3.6-1.6.6-3.2 1.3-5 1.4-.2-.6-.4-1.2-.5-1.7-.3.7-.7 1.3-.7 2-.4.2-.8.4-1.3.3.2-.7.4-1.3.7-2 .1-.2.2-.5-.1-.6h-2.2c-.5 0-.5.6-.6.9-.1.3-.3.5-.6.4-.3-.1-.3-.3-.3-.6.2-.6-.1-.7-.5-.6-.9.2-1.9.1-2.8.2-.8.1-1.2.7-1.6 1.3-.2.4 0 .5.3.7.7.3 1.5.5 2.3.7.1.8-.2.9-.8.5-.8-.6-1.7-.8-2.6-.8-1.3 0-2.4-.4-3.5-1-2.5-1.2-4.9-2.5-6.4-4.9-.2-.3-.4-.7-.6-1.1-.1-.2-.2-.3-.4-.2-.2.1-.1.3-.1.4.1.3.3.6.2 1-.9-.9-1.3-2.1-1.6-3.3.5-.9.5-.9 1.5.4.4-.8 0-1.6 0-2.3-.1-.1-.1-.3.1-.4z"/><path class="st112" d="M403.5 224.3c-.5 1.8-1.6 3.3-2.7 4.7-.7.8-1.3 1.6-2.1 2.3-3.2 2.8-6.8 5.1-11 6.4-.3.1-.5.1-.8.1-.2-1.1-.4-2.3-1.3-3.1.6-.3 1.2-.5 1.8-.8 1.5-.3 2.8-1 4.1-1.7 4.5-2.5 8.4-5.7 11-10.3.5.7.5 1.7 1 2.4z"/><path class="st113" d="M367 227.2c1.7 1.5 3.6 2.6 5.8 3.2-.4.4-.8-.1-1.1.3-.4.5-1.1.8-1 1.4.1.6.8.5 1.2.6 1.6.5 3.3.8 5 .8.1.4-.2.5-.4.5-1.9.2-3.9.8-5.8 0-.5-.2-.9-.1-.9.5-2.7-.9-4.9-2.4-6.1-5.1.7.6 1.5 1.2 2.2 1.8.4.3.7.6 1.2.7.5.1 1 0 1.1-.4.2-.4-.3-.5-.6-.7-2.1-1.4-3.7-3.2-4.6-5.6-.1-.3-.4-.7 0-.9.4-.2.4.3.7.5 1.1.9 1.8 2.3 3.3 2.4zM407.8 222.9c-.4-1.7-1.3-3.1-2.7-4.3-.3-.5-.8-1-.7-1.8 1.7.8 2.3 2.4 3.5 3.7 1.4 2.5 2 5.3 1.7 8.2-.5 0-.6-.2-.6-.6.1-1.6-.5-3-.8-4.5 0-.4-.1-.5-.4-.7z"/><path class="st112" d="m367.1 235.8-.3.3c-.7-.2-1.1-.9-1.6-1.4-.2-.1-.3-.4-.1-.5.3-.3.4.1.6.2.5.4.9.9 1.4 1.4zM363.9 215.2c.2.4-.1.5-.3.8-.2-.4 0-.6.3-.8z"/><path class="st115" d="M386.4 247.8c.5.1.9-.1 1.3-.3.4-.1.8 0 1.2-.3 1.8-.1 3.4-.8 5-1.4 2.4-1 4.9-1.9 6.9-3.6 1.9-1.6 3.7-3.2 5.2-5 .2-.3.4-.6.4-1 .3-.1.5-.4.7-.7.5-1 1-1.9 1.5-2.9.4.3.8.6.5 1.1-.1.1 0 .3 0 .4.5 1.7.9 3.4 1.4 5.1.3 1 .4 2 .8 3 .5 1.2.4 2.7 1.5 3.7.6.6.9 1.4 1.2 2.3.1.5.2 1.1 1 1.1 0 1.5-.5 2.8-.6 4.3-.2.1-.2.3-.3.5-1 2.8-2.5 5.4-4.7 7.6-3.6 3.6-8 5.7-13 6.4-2.9.4-5.8.4-8.7-.3-.8-.2-1.8-.2-2.5-.8.8-.1 1.6.5 2.8.3-2.9-.7-5.4-1.7-7.6-3.2l-.3-.3c.1-.5-.1-.7-.6-.6-.6-1.9-1.4-3.6-2.4-5.3-.6-.9-.9-1.8-.8-2.9 0-.4-.2-.9-.6-.7-1.1.5-1-.4-.9-.8.2-1.3-.5-1.1-1.3-1.1-.3-.2-.4-.5-.5-.8.1-.3 0-.4-.3-.5v-.2c-.2-1.2-.7-2.3-.8-3.6 1.4.3 2.7.9 4.1.9.5.3 1 .4 1.7.3-.6-.4-1.2-.3-1.8-.5-1.6-.3-3.1-1-4.6-1.9-.9-.5-1.7-1.1-2.5-1.6-.6-.8-1.4-1.5-1.9-2.4.1-.4-.1-.7-.2-1-.1-.2-.2-.3.1-.4.2-.1.3 0 .4.2.2.4.4.7.6 1.1 1.5 2.4 3.9 3.7 6.4 4.9 1.1.5 2.2.9 3.5 1 .9 0 1.8.2 2.6.8.6.5.9.3.8-.5 1.7 0 3.5.1 5.3-.4zm-3.7 3.9c-.3 0-.5.1-.4.2.3.6 1 .5 1.5.7.2.1.4-.2.4-.3-.4-.7-1.1-.3-1.5-.6zm6.4 15.7c-.3-.1-.6-.1-.9 0 .3.2.6.2.9 0z"/><path class="st111" d="M408.6 232.5c-.5 1-1 1.9-1.5 2.9-.2.3-.3.6-.7.7-.4-.6 0-1 .3-1.5.5-.8.9-1.6 1.3-2.4.7-1.4.2-2.9.1-4.3-.2-1.6-.4-3.3-.2-4.9.2.1.3.3.4.5.3 1.5.9 2.9.8 4.5 0 .4.1.7.6.6-.2 1.4-.7 2.6-1.1 3.9z"/><path class="st113" d="M414.3 253.5c.2-1.4.7-2.8.6-4.3.4-.9.1-1.9 0-2.8h.3c.6.6.1 1.4.3 2 0 1.1-.3 2.2-.2 3.3-.1.8-.1 1.6-.4 2.4l-.6-.6z"/><path class="st111" d="M415.2 246.4h-.3c-.1-.2-.4-.5.1-.7.1.2.2.5.2.7z"/><path class="st112" d="M373.4 252.3c.7 0 1.5-.1 1.3 1.1-.1.4-.1 1.3.9.8.4-.2.7.2.6.7-.1 1.1.2 2 .8 2.9 1 1.7 1.8 3.4 2.4 5.3h-.3c-.6-1-1.3-2-1.9-2.9-.2-.3-.3-.7-.7-.7-.7-2-2-3.6-2.9-5.5 0-.6-.3-1.1-.2-1.7z"/><path class="st111" d="M375.9 248.3c-1.4-.1-2.7-.6-4.1-.9-.8-.3-1.6-.9-2.6-.9-.7-.5-.4-1.2-.4-1.8.8.5 1.7 1.1 2.5 1.6 1.4.8 2.9 1.5 4.6 1.9-.1-.1-.1 0 0 .1z"/><path class="st112" d="M369.2 246.4c1 0 1.7.6 2.6.9.1 1.2.7 2.3.8 3.6-.5 0-.5-.4-.7-.7-.4-1-1-1.8-1.9-2.3l-.2-.2c0-.6-.4-.9-.6-1.3z"/><path class="st111" d="M370 247.8c.9.5 1.5 1.3 1.9 2.3.1.3.2.7.7.7v.2c0 .2.1.4.3.5.1.3.2.6.5.8-.1.6.3 1.1.2 1.6-1.4-1.9-2.6-4-3.6-6.1zM376.1 259.4h.4v.8c-.4-.1-.4-.4-.4-.8-.1 0-.1 0 0 0zM375.5 259v-.6c.4.2.4.5.4.8-.2 0-.3-.1-.4-.2zM371 251.1c-.3-.1-.3-.4-.4-.6.5-.1.3.3.4.6zM368.1 246.2c-.2-.1-.2-.2-.2-.4.2 0 .2.2.2.4zM368.5 246.8c-.2-.1-.2-.2-.2-.4.2.1.2.2.2.4z"/><path class="st111" d="M368.7 247.2c-.2-.1-.3-.2-.2-.4.2.1.2.2.2.4zM368.9 247.4c-.1-.1-.1-.2-.2-.3.1.2.2.2.2.3zM369.8 247.6l.2.2c-.1-.1-.2-.1-.2-.2zM368.3 246.4c-.1 0-.2-.1-.2-.2.1 0 .1.1.2.2zM375.8 259.2l.2.2-.1.1c0-.1 0-.2-.1-.3zM371.2 251.3c-.2 0-.2-.1-.2-.2l.2.2z"/><path class="st113" d="M376.5 260.2v-.8c.5 0 .5.4.7.7.6 1 1.3 2 1.9 2.9-.1.1-.3.1-.4.2h-.4c-.1-.4-.7-.6-.6-1.2-.2-.3 0-.8-.6-.9.1-.4 0-.7-.4-.8-.1.1-.2 0-.2-.1z"/><path class="st111" d="M377.1 261.2c.6 0 .4.6.6.9-.5-.1-.5-.5-.6-.9zM376.6 260.4c.4.2.5.5.4.8l-.3-.3c0-.1 0-.3-.1-.5zM414.3 253.5c.2.2.4.4.7.6v.6c-.2.5-.3 1.1-.4 1.6-.5 0-.4.5-.5.8-.7 1.7-1.9 3-2.8 4.6-.1.1-.2.3-.3.4-1.7 1.1-3 2.7-4.8 3.7-1.6.8-3.1 1.7-5 2.1-1.2.2-2.3.7-3.5.9-1.7.3-3.4.6-5.2.6-1.4 0-2.7-.4-4.1-.2-.3 0-.4-.1-.6-.2-.3-.2-.6-.1-.6.3l-2.4-.9-2.1-1.2c-.3-.4-.7-.5-1-.8-.4-.5-1.1-.7-1.4-1.2h.6c.2.2.4.2.6.2 0 .1.1.2.2.2.1.2.2.2.4.2.2.2.4.2.6.2.8.7 1.7.9 2.7 1 .7.6 1.6.6 2.5.8 2.9.6 5.8.7 8.7.3 5-.7 9.5-2.8 13-6.4 2.1-2.2 3.6-4.7 4.7-7.6-.2-.3-.2-.5 0-.6zM378.7 263.2c.1-.1.3-.1.4-.2h.3c.1.3.2.5.6.6l.3.3c-.8.6-1.1-.2-1.6-.7z"/><path class="st115" d="M385.2 266.9c-1-.1-1.9-.3-2.7-1 1 .3 1.9.5 2.7 1zM381.3 265.3c-.2 0-.5 0-.6-.2.3-.2.5 0 .6.2zM382.6 265.9c-.2 0-.5 0-.6-.2.2 0 .4 0 .6.2zM382 265.7c-.2 0-.3-.1-.4-.2.1 0 .3 0 .4.2zM381.5 265.5c-.1 0-.2-.1-.2-.2l.2.2z"/><path d="M381 231c.5.1 1.1-.2 1.2.2.1.4-.3.9-.7 1.1-1 .4-1.8 1.3-3 .6-.3-.2-.8-.1-1.2-.1-.6 0-.9-.3-1.1-.8-.2-.5-.2-.9.5-.9 1.5.2 2.9.3 4.3-.1z" style="fill:#fdfdfd"/><path class="st112" d="M373.8 239.6c5.1 1.1 10.1.5 15.1-.9-4.9 2-9.9 2.6-15.1.9z"/><path class="st111" d="M386.4 247.8c-1.8.5-3.7.4-5.5.4-.8-.2-1.6-.3-2.3-.7-.3-.1-.6-.3-.3-.7.4-.6.8-1.2 1.6-1.3.9-.1 1.9 0 2.8-.2.4-.1.7 0 .5.6-.1.2-.1.5.3.6.3.1.5-.1.6-.4.1-.4.1-.9.6-.9.7-.1 1.5-.1 2.2 0 .4 0 .2.4.1.6-.1.6-.4 1.3-.6 2zM388.9 247.2c-.4.2-.8.2-1.2.3 0-.7.4-1.3.7-2 .1.5.3 1.1.5 1.7z"/><path class="st112" d="M382.7 251.7c.4.3 1.1-.1 1.4.6.1.2-.2.4-.4.3-.5-.2-1.2-.1-1.5-.7 0-.1.2-.2.5-.2zM375.9 248.3v-.2c.6.2 1.2.1 1.8.5-.8.1-1.3-.1-1.8-.3zM380 263.7c-.3-.1-.5-.3-.6-.6.5 0 .7.2.6.6zM389.1 267.4c-.3.1-.6.1-.9 0 .3-.1.6-.1.9 0zM372.9 251.5c-.2-.1-.3-.2-.3-.5.3.1.4.2.3.5z"/><path class="st111" d="m376.4 260.2.2.2c-.1 0-.1-.1-.2-.2z"/><path class="st113" d="M363.9 215.4c3-5.1 8.3-9 15.6-11.3 7.3-2.4 14.8-.3 18 2.4 4.3 3.6 5.1 9.6 1.9 14.9-3.2 5.4-18.7 13.7-28.6 10.2-10-3.4-9-12.6-6.9-16.2z"/><path class="st111" d="M365.4 215.6c2.7-4.6 7.6-8.2 14.3-10.4s13.6-.2 16.4 2.2c3.9 3.3 4.6 8.8 1.7 13.7-2.9 4.9-17.1 12.5-26.2 9.4-9-3.2-8.1-11.6-6.2-14.9z"/></g></g><path class="st104" d="M500 254.6c-2.5.1-4.8.2-6.8.2-1.5 0-2.8 0-3.9-.1v.5c1.1.1 2.4.1 3.9.1 2 0 4.3-.1 6.8-.2v-.5z"/><g><linearGradient id="SVGID_20_" gradientUnits="userSpaceOnUse" x1="412.147" y1="-30.763" x2="412.134" y2="-30.809" gradientTransform="matrix(1 0 0 -1 0 200)"><stop offset="0" style="stop-color:#904432"/><stop offset="1" style="stop-color:#e38b69"/></linearGradient><path d="M412.2 230.8c-.1 0-.1 0 0 0-.1 0-.1 0 0 0z" style="fill:url(#SVGID_20_)"/><g><path class="st101" d="M414.7 259.4c-.6 1.3-1.4 2.6-2.6 3.7-1.9 1.9-4.8 3.6-9 4.9-.6.2-1.1.4-1.8.5h-.1l-2.7-1.5c-.4-.2-.8-.5-1.2-.7-.1 0-.1-.1-.2-.1-.4-.2-.8-.5-1.2-.8-4-2.5-8.6-3.7-12.5-6.2-.2-.2-.4-.3-.5-.4l-.2-.2-.2-.2H382.2c-.5 0-1.2 0-1.7-.1s-1.1-.2-1.6-.3c-3.4-.8-6.9-2.5-10.1-3.4-.9-.2-2-.5-3.1-.8-2.9-.6-5.7-1.7-7.8-3.4-.1 0-.1-.1-.2-.1s-.1-.1-.1-.1l-.3-.3-.2-.2c-.1-.1-.2-.2-.2-.3-.2-.3-.4-.7-.5-1.2v-.1l-.1-.1c-.4-1.4-.4-3 0-4.1.3-.7.7-1.4 1.2-1.9l.1-.1.1-.1c.1-.2.3-.3.4-.4l.1-.1c3.8-3.5 10.8-2.9 15.4-2.8 9.3.3 17.2 5 25.7 7.8 1.5.5 3 .7 4.4.9v-.1h.1c.7-.4 1.4-.7 2.1-1.2.7-.3 1.5-.7 2.2-1.2.6-3.2 1.5-6.4 2.5-9.5 0-.1 0-.2.1-.3 0-.2 0-.3.1-.5 0-.1.1-.2.1-.3.1-.4.3-.8.4-1.2v-.1c.2-.6.4-1.3.6-2.1v-.1.1c.1.2.1.4.2.6 0 .1.1.3.1.4.1.3.1.6.2.8.2.6.3 1.1.4 1.7 0 .2.1.3.1.4 0 .2.1.3.1.4.3 1.2.6 2.4.8 3.5l.3 1.5c0 .1 0 .2.1.3 0 .2.1.3.1.5.4 1.9.6 3.5.8 4.6.2 1.1.3 1.8.3 1.8.6 4.5.9 8.6-.7 12.2z"/><path class="st102" d="M404.1 263.3c-4.8 0-7.6-2.4-11.9-3.8-1.1-.3-8.7-4-7.3-5.9-.1.2-.3.3-.4.4v.1c-.2.1-.3.3-.5.4-.8.6-1.8.2-2.3-.7-.1-.3-.3-.6-.3-1.1-.1-.1-.1-.2-.1-.3-1.3 1.8-3.5 1.7-4 0v-.1c-.2-.3-.2-.8-.1-1.5v-.2c-2.3 2.4-6.5.4-8.1.4h-.2c-1.2 0-3 .2-4.8.2H363.3c-.1-.1-.2-.1-.3-.1-.8-.1-1.7-.1-2.4-.3l-.2-.2c-.2 0-.4-.1-.5-.1-.2-.1-.3-.3-.5-.5-.2-.1-.4-.3-.5-.5-.6 0-1.1-.2-1.6-.5-.1 0-.1-.1-.1-.2-.2-.1-.3-.3-.5-.4.1.4.3.8.5 1.2.1.1.2.2.2.3l.2.2.6.6c2.1 1.7 5 2.8 7.8 3.4 1.1.3 2.1.6 3.1.8 3.2.8 6.7 2.5 10.1 3.4h.3c.4.1.8.2 1.3.3.5.1 1.2.1 1.7.1H382.8l.2.2.2.2c.2.1.3.2.5.4 3.9 2.5 8.5 3.7 12.5 6.2.4.3.8.5 1.2.8.1 0 .1.1.2.1.4.2.8.5 1.2.7.9.6 1.8 1.1 2.8 1.5h.1c.6-.2 1.2-.3 1.8-.5 4.2-1.4 7.1-3 9-4.9-3.1-.4-5.8-.2-8.4-.1zm10.3-22.8c0-.1 0-.2-.1-.3l-.3-1.5c-2.1-.3-2.8-1.1-2.5-3.3 0-.1 0-.2.1-.4 0-.1 0-.3.1-.5.1-.5.2-1.1.4-1.6 0-.1 0-.1.1-.2.1-.3.2-.6.3-.8 0-.1-.1-.3-.1-.4-.1-.2-.1-.4-.2-.6v-.1.1l-.6 2.1v.1c-.1.4-.3.8-.4 1.2 0 .1-.1.2-.1.3-.1.2-.1.3-.1.5-.1.1-.1.2-.1.3-1.1 3.1-1.9 6.3-2.5 9.5-.7.4-1.5.8-2.2 1.2.2-.1.5-.1.7-.2.1 0 .2-.1.2-.1h.1c2.6-.8 5.4-2.9 7.5-4.7-.2-.3-.3-.4-.3-.6z"/><linearGradient id="SVGID_21_" gradientUnits="userSpaceOnUse" x1="419.18" y1="-52.578" x2="394.375" y2="-52.084" gradientTransform="matrix(1 0 0 -1 0 200)"><stop offset=".441" style="stop-color:#f6b292"/><stop offset="1" style="stop-color:#fbdbc9;stop-opacity:.5"/></linearGradient><path d="M415.6 247.3c.4 4.4.7 8.5-.9 12.1-.5-.2-.9-.3-1.4-.5-3.9-1.2-7.3.9-11.2.1-1.3-.3-2.5-.9-3.7-1.3-1.3-.4-2.7-.9-4.1-1.3-2.4-.8-4.9-1.7-7.1-3.1-1.5-.9-2.6-2.2-1.9-4.1 1.2-2.9 5.9.2 7.5 1 .1.1.2.1.2.2 4.4 1.3 9.7 1.7 13.9-.6 2.8-1.5 5.8-2.5 8.4-4.4.2 1.3.3 1.9.3 1.9z" style="fill:url(#SVGID_21_)"/><path class="st109" d="M403.1 268.1c-.6.2-1.1.4-1.8.5h-.1c-.9-.5-1.8-1-2.8-1.5-.4-.2-.8-.5-1.2-.7-.1 0-.1-.1-.2-.1-.4-.2-.8-.5-1.2-.8-4-2.5-8.6-3.7-12.5-6.2-.2-.2-.3-.3-.5-.4l-.6-.3c-.5 0-1.2 0-1.7-.1s-1.1-.2-1.6-.3c-3.4-.8-6.9-2.5-10.1-3.4-.9-.2-2-.5-3.1-.8l-.4-.3c.4.1.7.1 1.2.1 3.1.4 6.6.1 9.2 1.1.5.2.9.4 1.4.7.2.1.3.2.6.4.6.4 1.3.8 2.1 1.1.4.1.7-.6 1.2-.5.2.1.9.6.9.6l.9.3c.1.1.2.1.4.1.2.1.6.2 1.1 0 1.1 2.3 4.4 2.9 6.6 3.8 2.7 1.2 4.9 2.4 7.2 4.1 1.8 1.1 3.4 1.9 5 2.6z"/><path class="st104" d="M414.4 240.2c-1.9 1.6-3.9 3-5.9 4.2.7-3.1 1.6-6.1 2.6-9v-.1c0-.1 0-.2.1-.3 0-.2 0-.4.1-.5h.1c.1-.6.2-1.1.5-1.6 0 0 0-.1.1-.1.1-.5.2-.9.4-1.4-.1-.2-.1-.4-.2-.6v-.1.1c-.3.7-.6 1.4-.8 2.2-.2.5-.3.9-.5 1.4v.1c0 .2-.1.4-.2.4v.4c-1 3-1.9 6.2-2.4 9.3-1.5.9-2.9 1.7-4.3 2.4v.1c-.1-.1-.1 0-.1 0-3.3-.5-6.4-1.9-9.4-3.1-3.4-1.3-6.9-2.7-10.4-3.8-3.4-1.2-6.9-1.9-10.6-2.1-3.2-.1-6.5-.3-9.7.3-2.1.3-3.9 1.4-5.4 2.8 0 0-.1 0-.1.1l-.4.4s0 .1-.1.1l-.1.1c-.5.5-1.1.9-1.4 1.6-.6 1.3-.5 2.8-.2 4.1.3 1.2.9 2 1.8 2.5 0 0 0 .1.1.1 0 0 .1.2.2.2 1.7 1.4 3.6 2.4 5.7 3.1 2.2.7 4.6 1.2 6.8 2 3.8 1.3 7.7 3.9 12 3.2 2 1.5 4.1 2.7 6.4 3.6 2.4 1.1 4.9 2 7 3.5 1.6 1 3.2 2 4.8 2.9.2-.1.4-.1.6-.2h.1c-1.8-1.1-3.5-2.4-5.2-3.5-4.2-2.7-9.2-3.8-13.5-6.6.3-.3.6-.6.7-1.1.6-1.1.8-2.2 1.1-3.4v-.1c.1-.5.1-1.1.2-1.5 0-.1-.1-.1-.2-.1-.1.7-.3 1.4-.5 2.1 0 .3-.1.6-.2 1-.1.5-.3 1.3-.7 1.9-.1.4-.3.8-.6 1.2h-.1c-1.1-.1-2-.2-3-.4-3-.7-5.6-2.1-8.6-3.2-1.4-.5-2.8-.8-4.1-1.3-2.9-.6-5.8-1.4-8.3-3.1-.6-.4-1.1-.9-1.3-1.7-.1 0-.1-.1-.1-.2-.3-.6-.4-1.3-.5-1.8-.3-1.7.2-3.2 1.3-4.4 2-2.8 5.9-3.4 9.1-3.6 1.7-.1 3.4 0 5 0 1.8 0 3.5.1 5.2.3 3.7.4 7.3 1.6 10.8 2.9 2.8 1.1 5.5 2.4 8.4 3.6 1.5.5 2.9 1.1 4.4 1.5 1.5.3 3 .4 4.4.4.2 0 .2-.2 0-.2-.3 0-.7 0-1.2-.1 1-.4 1.8-.9 2.8-1.4.1 0 .2-.1.2-.1h.1c1.1-.6 2.1-1.2 3.1-1.8 1.5-1 2.9-2.2 4.3-3.4-.2 0-.2-.1-.2-.2zm-54.6 4v.1c.2-.3.4-.5.7-.7-.3 0-.5.3-.7.6zm.7-.6c.2-.2.5-.4.7-.6.4-.3.9-.5 1.4-.7-.8.1-1.4.5-2.1 1.3zm4.2-1.6c-.6-.1-1.3-.1-1.8.1-.1 0-.1 0-.2.1.7-.2 1.5-.2 2.2-.1-.1-.1-.1-.1-.2-.1zm2 .7c-.5-.4-1.2-.6-1.8-.6.7.2 1.5.4 2.1.9-.1-.2-.2-.2-.3-.3zm-1.1 8.8c-.6-.1-1.1-.2-1.6-.3h-.1c-.1-.1-.2-.1-.3-.1-.2-.1-.5-.1-.7-.1-.6-.1-1.3-.1-1.8-.2-.3 0-.6-.1-.9-.2-.3-.1-.5-.2-.7-.4-.5-.4-.7-.9-.7-1.6-.1-.7 0-1.6.2-2.2 0-.4.2-.7.3-1.1-.2.3-.3.5-.4.8-.2.6-.3 1.4-.2 2.1 0 .6.1 1.3.5 1.7.2.2.3.4.5.5.2.1.5.2.7.3.7.2 1.6.2 2.4.3.1 0 .2 0 .3.1 1.2.1 2.3.5 3.5.6.3 0 .5 0 .7-.1-.5.1-1.1 0-1.7-.1zm3.2-.5v.1l.1-.1h-.1zm.2-4.9c-.1-.7-.4-1.4-.8-1.9-.2-.5-.7-.9-1.2-1.2.5.4 1.1.9 1.4 1.7.3.7.5 1.4.7 2.2 0-.2 0-.5-.1-.8zm.3 2.2c0-.4 0-.9-.2-1.4.1.7.1 1.5.1 2.2 0 .6 0 1.3-.3 1.8h.1c.1-.1.1-.3.2-.4.2-.7.1-1.4.1-2.2zm7.9 4c.1-.6.2-1.3.4-1.8.4-1.8 1.3-3.6 2.4-5.1.1-.1-.2-.3-.3-.2-1.5 1.4-2.2 3.5-2.6 5.4v.2c-.4 1.5-.6 3.3.1 4.7.1.3.3.6.5.8.1.1.2 0 .2-.1-.1-.1-.2-.2-.1-.3l-.1-.1c-.7-.9-.7-2.2-.5-3.4v-.1zm4.5-5.9c0-.1-.2 0-.1.1.2 1.6.1 3.2-.1 4.7-.1.5-.1 1-.2 1.5-.2 1.1-.3 2.1-.2 3.2 0 .2.3.2.3-.1.1-.6.2-1.3.2-2 .1-.8.2-1.7.3-2.6.1-1.7.3-3.2-.2-4.8z"/></g></g><g><path class="st104" d="M359.8 244.2c.9-1 2.1-1.9 3.5-2.2.7-.1 1.4-.2 2.1 0 .7.1 1.4.4 1.9.9 1.1 1 1.7 2.3 2.1 3.7.2.7.3 1.4.3 2.1 0 .7 0 1.5-.3 2.2-.2.4-.4.7-.8.9-.4.2-.8.3-1.2.3-.8 0-1.4-.2-2.1-.3l-2-.4-1-.2c-.3-.1-.7-.1-1-.1-.7-.1-1.5-.4-1.9-.9-.5-.6-.6-1.3-.7-2-.3-1.5.3-2.9 1.1-4zm0 0c-.8 1.1-1.3 2.5-1.1 3.9.1.7.3 1.4.7 1.9.5.5 1.1.7 1.8.7.3 0 .7 0 1 .1l1 .1 2.1.3c.7.1 1.4.3 2 .3.6 0 1.1-.3 1.3-.8.3-.5.3-1.2.3-1.9s-.1-1.3-.2-2c-.3-1.3-.8-2.6-1.7-3.6-.5-.5-1.1-.8-1.7-1-.7-.2-1.4-.2-2-.1-1.4.2-2.5 1.1-3.5 2.1z"/></g></g><path class="st104" d="M36.5 279.6c8.2-5.3 16.1-11 24-16.8 7.9-5.8 15.6-11.7 23.2-17.9 3.8-3.1 7.5-6.2 11-9.6 3.5-3.5 7.1-6.8 10.7-10.1 3.6-3.3 7.2-6.6 10.7-10 1.8-1.7 3.5-3.4 5.2-5.1l1.3-1.3 1.2-1.3c.4-.4.8-.9 1.1-1.4.4-.5.7-.9 1-1.4l-.1.2 6.4-26.9v-.1c1.1-2.3 2.8-4.1 4.7-5.7 1.8-1.6 3.8-2.9 5.8-4.3 4-2.6 8.1-5 12-7.7 2-1.3 3.8-2.8 5.8-4.2 1.9-1.4 3.9-2.7 6-3.9 2.1-1.2 4.2-2.3 6.5-3 1.1-.4 2.3-.6 3.5-.6 1.2 0 2.4.4 3.3 1.2-.9-.8-2.1-1.2-3.3-1.1-1.2 0-2.3.3-3.4.7-2.2.8-4.3 1.9-6.3 3.2-2 1.3-4 2.6-5.8 4-1.9 1.4-3.7 2.9-5.7 4.3-3.9 2.7-8 5.2-11.9 7.9-2 1.3-3.9 2.7-5.6 4.3-1.7 1.5-3.4 3.3-4.3 5.3v-.1l-6.2 27v.1l-.1.1c-.4.5-.7 1.1-1.1 1.6-.4.5-.8 1-1.2 1.4l-1.2 1.4-1.3 1.3c-1.7 1.8-3.5 3.5-5.2 5.2-3.6 3.4-7.2 6.6-10.8 9.9-3.6 3.3-7.2 6.6-10.7 10-3.5 3.5-7.3 6.6-11.1 9.6-7.7 6.1-15.5 11.9-23.5 17.6-4 2.8-8 5.6-12.1 8.3-4.2 2.7-8.3 5.4-12.5 7.9z"/><path class="st104" d="m179.4 155.4-.3.6-.4.6-.9 1.2c-.3.4-.6.8-.9 1.1-1.3 1.5-2.6 2.9-4 4.2-1.4 1.3-2.8 2.7-4.3 4-1.4 1.3-2.9 2.6-4.2 4.1l-.2.3h.4c1.2.1 2.3.2 3.5.3.6.1 1.2.2 1.7.3.6.1 1.1.3 1.6.6 1.1 1.1 2.1 2.2 2.9 3.4.9 1.2 1.6 2.6 1.9 4.1.4 1.5.3 3 0 4.4-.3 1.5-.9 2.9-1.5 4.3v.2c0 .7-.1 1.6-.1 2.4l-.2 2.4c-.2 1.6-.3 3.2-.5 4.7-1.4 2.9-3.7 5.4-6 7.8-2.3 2.4-4.8 4.6-7.3 6.7-2.6 2.1-5.2 4.1-8 6-.3.2-.7.4-1 .7-.4.2-.7.4-1.1.7-.7.6-1.3 1.2-1.9 1.8-1.1 1.2-2.2 2.5-3.3 3.8-4.2 5.2-8.1 10.6-12 16.1-3.9 5.4-7.7 10.9-11.5 16.4-3.8 5.5-7.5 11-11.2 16.6l-2.7 4.2c-.9 1.4-1.8 2.8-2.8 4.2l-1.4 2.1c-.5.7-1 1.3-1.5 2l-1.5 2c-.5.7-1 1.3-1.5 2-8.2 10.5-17.3 20.3-26.9 29.5-4.8 4.6-9.7 9.1-14.9 13.3l-1.9 1.6-2 1.5-1 .7-1 .7c-.7.4-1.4.9-2.1 1.3-2.8 1.7-5.8 3.2-9 3.9-3.1.8-6.5.7-9.7 0-3.2-.7-6.4-1.8-9.5-2.9-3.1-1.2-6.2-2.4-9.2-3.8-1.5-.7-3-1.5-4.5-2.2L3.4 333c-1.1-.6-2.2-1.2-3.2-1.8v1.1c.9.5 1.8 1.1 2.8 1.6l4.4 2.4c1.5.8 3 1.6 4.5 2.3 3.1 1.4 6.2 2.7 9.3 3.9 3.1 1.2 6.3 2.4 9.6 3.1 3.3.7 6.9.9 10.2 0 3.3-.8 6.4-2.3 9.3-4.1.7-.4 1.4-.9 2.1-1.4l1.1-.7 1-.7 2-1.5 2-1.6c5.2-4.2 10.2-8.7 15-13.4 4.8-4.6 9.5-9.4 14-14.3s8.9-10 13-15.3c.5-.7 1-1.3 1.5-2l1.5-2c.5-.7 1-1.3 1.5-2l1.4-2.1c1-1.4 1.9-2.8 2.8-4.2l2.7-4.2c3.7-5.6 7.4-11.1 11.1-16.6 3.8-5.5 7.6-11 11.4-16.4 3.9-5.4 7.8-10.9 11.9-16.1 1-1.3 2.1-2.6 3.2-3.8.6-.6 1.1-1.2 1.7-1.7.3-.2.7-.4 1-.7.4-.2.7-.5 1.1-.7 2.8-1.9 5.4-3.9 8-6.1 2.6-2.2 5-4.4 7.3-6.9s4.6-5 6.1-8.1v-.2c.2-1.6.3-3.2.5-4.8l.2-2.4c.1-.8.1-1.5.1-2.4.6-1.4 1.2-2.8 1.5-4.4.3-1.5.3-3.2-.1-4.7s-1.2-2.9-2.1-4.2c-.9-1.3-2-2.4-3.1-3.5-.6-.3-1.1-.5-1.7-.6l-1.8-.3c-1.1-.1-2.1-.2-3.2-.2 1.2-1.3 2.5-2.6 3.9-3.8 1.4-1.3 2.8-2.7 4.2-4.1 1.4-1.4 2.7-2.8 4-4.3.3-.4.6-.7.9-1.1.3-.4.6-.8.8-1.2l.4-.6.2-.8c.3-.4.4-.9.5-1.3-.1.4-.2.8-.5 1.3zM88 191.2c-2.1-.3-4.1.1-6 .6-1.9.5-3.7 1.3-5.5 2.1-1.8.8-3.5 1.8-5.2 2.7-.7.4-1.6.5-2.5.7-.9.1-1.9.2-2.8.2-3.8.2-7.7.4-11.6.7-1.9.1-3.8.3-5.8.5-1 .1-1.9.3-2.9.4-1 .2-1.9.4-2.9.5-7.6 1.6-14.9 4.7-21.7 8.2-.4.2-.8.4-1.3.5-.4.1-.9.2-1.4.2-.9.1-1.9.2-2.9.3l-5.8.3c-3.2.2-6.5.5-9.6.9v.1c3.2-.3 6.4-.5 9.7-.6l5.8-.2c1 0 1.9-.1 2.9-.2.5-.1 1-.1 1.5-.2.2 0 .5-.1.8-.2.3-.1.5-.2.7-.3 3.5-1.7 7-3.3 10.6-4.6 3.6-1.3 7.3-2.4 11-3.2.9-.2 1.9-.4 2.8-.5.9-.1 1.9-.3 2.8-.4 1.9-.2 3.8-.3 5.7-.5 3.8-.3 7.7-.4 11.6-.6 1-.1 1.9-.1 2.9-.2s2-.2 3-.8c1.7-1 3.3-1.9 5.1-2.7 1.7-.8 3.5-1.5 5.3-2 1.6-.4 3.2-.7 4.8-.6-.1 1.4-.3 2.7-.7 3.9-.4 1.5-1.2 2.8-2.2 3.9-1 1.1-2.3 2-3.7 2.7-1.4.7-2.9 1.3-4.3 1.9l-9 3.5-4.5 1.8c-.7.3-1.5.6-2.2 1-.7.3-1.5.7-2.2 1.2l-.3.3.3.3c2.5 2.2 5.1 4.2 7.7 6.2 2.6 2 5.3 4 8 5.8l-3.9-3c-1.3-1-2.6-2.1-3.9-3.1-2.4-2-4.8-4-7.2-6.1.5-.3 1.1-.6 1.7-.8.7-.3 1.5-.6 2.2-.9 1.5-.6 3-1.1 4.5-1.7l9-3.3c3-1.1 6.2-2.3 8.6-4.8 1.2-1.2 2.1-2.7 2.6-4.4.5-1.6.7-3.3.8-4.9l.1-.6H88zM9.6 249.2c2.1-.2 4.3 0 6.4.7 2.1.7 4 1.7 5.8 2.8.5.3.9.5 1.4.7.5.2.9.5 1.4.7.5.2 1 .4 1.4.6l1.5.6c2 .7 4 1.3 6.1 1.9 2 .6 4.1 1.1 6.2 1.5l1.6.3.8.2c.4.1.6.2.8.2 1 .3 2 .7 3 1.1 4 1.4 8 2.9 12 4.5-4.1-1.1-8.3-2.2-12.3-3.4-1-.3-2-.6-3.1-.9-.3-.1-.5-.2-.7-.2l-.8-.1-1.6-.3c-2.1-.4-4.2-.9-6.3-1.5-2.1-.6-4.1-1.2-6.1-2l-1.5-.6c-.5-.2-1-.4-1.5-.7-1-.5-1.9-1-2.8-1.6-1.8-1.1-3.6-2.2-5.5-3.1-1-.4-1.9-.8-3-1-1.1-.3-2.2-.4-3.2-.4z"/></svg>