<?xml version="1.0" encoding="utf-8"?>
<!-- Generator: Adobe Illustrator 22.0.0, SVG Export Plug-In . SVG Version: 6.00 Build 0)  -->
<svg version="1.1" xmlns="http://www.w3.org/2000/svg" xmlns:xlink="http://www.w3.org/1999/xlink" x="0px" y="0px"
	 viewBox="0 0 860 830" style="enable-background:new 0 0 860 830;" xml:space="preserve">
<style type="text/css">
	.st0{display:none;}
	.st1{display:inline;opacity:0.3;}
	.st2{fill:none;}
	.st3{fill:#FFE5E5;}
	.st4{display:inline;fill:url(#SVGID_1_);}
	.st5{display:inline;fill:url(#SVGID_2_);}
	.st6{display:inline;}
	.st7{fill:#1E22AA;}
	.st8{fill:#00A7FF;}
	.st9{fill:#14D3FF;}
	.st10{display:inline;fill:url(#SVGID_3_);}
	.st11{fill:url(#SVGID_4_);}
	.st12{fill:none;stroke:url(#SVGID_5_);stroke-width:2;stroke-miterlimit:10;}
</style>
<g id="Layer_2" class="st0">
	<g class="st1">
		<rect x="-3882" y="116.7" class="st2" width="1920" height="963.3"/>
		<g>
			<rect x="-3861.7" y="116.7" class="st3" width="116.6" height="963.3"/>
			<rect x="-3701.5" y="116.7" class="st3" width="116.6" height="963.3"/>
			<rect x="-3541.2" y="116.7" class="st3" width="116.6" height="963.3"/>
			<rect x="-3380.9" y="116.7" class="st3" width="116.6" height="963.3"/>
			<rect x="-3220.7" y="116.7" class="st3" width="116.6" height="963.3"/>
			<rect x="-3060.4" y="116.7" class="st3" width="116.6" height="963.3"/>
			<rect x="-2900.1" y="116.7" class="st3" width="116.6" height="963.3"/>
			<rect x="-2739.9" y="116.7" class="st3" width="116.6" height="963.3"/>
			<rect x="-2579.6" y="116.7" class="st3" width="116.6" height="963.3"/>
			<rect x="-2419.4" y="116.7" class="st3" width="116.6" height="963.3"/>
			<rect x="-2259.1" y="116.7" class="st3" width="116.6" height="963.3"/>
			<rect x="-2098.8" y="116.7" class="st3" width="116.6" height="963.3"/>
		</g>
	</g>
	<g class="st1">
		<rect x="-1941" y="116.7" class="st2" width="1920" height="963.3"/>
		<g>
			<rect x="-1920.7" y="116.7" class="st3" width="116.6" height="963.3"/>
			<rect x="-1760.5" y="116.7" class="st3" width="116.6" height="963.3"/>
			<rect x="-1600.2" y="116.7" class="st3" width="116.6" height="963.3"/>
			<rect x="-1439.9" y="116.7" class="st3" width="116.6" height="963.3"/>
			<rect x="-1279.7" y="116.7" class="st3" width="116.6" height="963.3"/>
			<rect x="-1119.4" y="116.7" class="st3" width="116.6" height="963.3"/>
			<rect x="-959.1" y="116.7" class="st3" width="116.6" height="963.3"/>
			<rect x="-798.9" y="116.7" class="st3" width="116.6" height="963.3"/>
			<rect x="-638.6" y="116.7" class="st3" width="116.6" height="963.3"/>
			<rect x="-478.4" y="116.7" class="st3" width="116.6" height="963.3"/>
			<rect x="-318.1" y="116.7" class="st3" width="116.6" height="963.3"/>
			<rect x="-157.8" y="116.7" class="st3" width="116.6" height="963.3"/>
		</g>
	</g>
</g>
<g id="Layer_4" class="st0">
	<linearGradient id="SVGID_1_" gradientUnits="userSpaceOnUse" x1="-2769.6519" y1="1258.197" x2="-3627.7375" y2="415.1127">
		<stop  offset="0.3081" style="stop-color:#14D3FF"/>
		<stop  offset="0.5494" style="stop-color:#0FC7FF"/>
		<stop  offset="0.9801" style="stop-color:#01A9FF"/>
		<stop  offset="1" style="stop-color:#00A7FF"/>
	</linearGradient>
	<path class="st4" d="M-3059.8,669.7c0,122.6-36.2,236.8-98.5,332.4c-0.7,1.2-1.3,2.4-2.1,3.5c-17.5,26.5-36.8,51.3-57.7,74.4
		h-601.2v2.9h-62.7V116.7h27.4h35.4h407c177.8,82.9,309,248.9,343.5,448.1c0.4,2.1,0.7,4.3,1.1,6.5c0.4,2.2,0.7,4.5,1.1,6.7
		c4,25.8,6.3,52.1,6.8,78.8c0,1.2-0.1,2.3-0.1,3.5C-3059.8,663.4-3059.8,666.5-3059.8,669.7z M-3132.4,175.5
		c15.4,16.7,36.3,25.1,57.3,25.1c18.8,0,37.7-6.8,52.7-20.6c18.3-16.8,26.7-40.4,24.9-63.4h-195.7
		C-3171.9,135.1-3151.6,154.7-3132.4,175.5z M-2839.9,359.6c-15.1-40.3-60-60.7-100.2-45.7c-40.3,15.1-60.7,59.9-45.7,100.2
		c30.5,81.6,46,167.6,46,255.6c0,146.6-44.4,289.9-126.2,410.3h181.1c65.7-125.8,100.8-266.8,100.8-410.3
		C-2784.1,563-2802.8,458.7-2839.9,359.6z"/>
	<linearGradient id="SVGID_2_" gradientUnits="userSpaceOnUse" x1="-828.6518" y1="1258.197" x2="-1686.7375" y2="415.1127">
		<stop  offset="0.3081" style="stop-color:#14D3FF"/>
		<stop  offset="0.5494" style="stop-color:#0FC7FF"/>
		<stop  offset="0.9801" style="stop-color:#01A9FF"/>
		<stop  offset="1" style="stop-color:#00A7FF"/>
	</linearGradient>
	<path class="st5" d="M-1118.8,669.7c0,122.6-36.2,236.8-98.5,332.4c-0.7,1.2-1.3,2.4-2.1,3.5c-17.5,26.5-36.8,51.3-57.7,74.4
		h-601.2v2.9h-62.7V116.7h27.4h35.4h407c177.8,82.9,309,248.9,343.5,448.1c0.4,2.1,0.7,4.3,1.1,6.5c0.4,2.2,0.7,4.5,1.1,6.7
		c4,25.8,6.3,52.1,6.8,78.8c0,1.2-0.1,2.3-0.1,3.5C-1118.8,663.4-1118.8,666.5-1118.8,669.7z M-1191.4,175.5
		c15.4,16.7,36.3,25.1,57.3,25.1c18.8,0,37.7-6.8,52.7-20.6c18.3-16.8,26.7-40.4,24.9-63.4h-195.7
		C-1230.9,135.1-1210.6,154.7-1191.4,175.5z M-898.9,359.6c-15.1-40.3-60-60.7-100.2-45.7c-40.3,15.1-60.7,59.9-45.7,100.2
		c30.5,81.6,46,167.6,46,255.6c0,146.6-44.4,289.9-126.2,410.3h181.1c65.7-125.8,100.8-266.8,100.8-410.3
		C-843.1,563-861.8,458.7-898.9,359.6z"/>
	<g class="st6">
		<rect x="-3736" y="1705.3" class="st7" width="34.5" height="34.5"/>
		<rect x="-3770.5" y="1705.3" width="34.5" height="34.5"/>
		<rect x="-3701.5" y="1705.3" class="st8" width="34.5" height="34.5"/>
		<rect x="-3667" y="1705.3" class="st9" width="34.5" height="34.5"/>
	</g>
	<linearGradient id="SVGID_3_" gradientUnits="userSpaceOnUse" x1="-3512.6667" y1="1777.8047" x2="-3335.7239" y2="1777.8047">
		<stop  offset="0" style="stop-color:#00A7FF"/>
		<stop  offset="1" style="stop-color:#14D3FF"/>
	</linearGradient>
	<rect x="-3512.7" y="1689.3" class="st10" width="176.9" height="176.9"/>
</g>
<g id="Layer_5">
	<linearGradient id="SVGID_4_" gradientUnits="userSpaceOnUse" x1="0" y1="395.3696" x2="793" y2="395.3696">
		<stop  offset="0" style="stop-color:#C3EAFF"/>
		<stop  offset="7.313907e-03" style="stop-color:#C4EAFF"/>
		<stop  offset="0.3145" style="stop-color:#D6F1FF"/>
		<stop  offset="0.6372" style="stop-color:#E0F5FF"/>
		<stop  offset="1" style="stop-color:#E4F6FF"/>
	</linearGradient>
	<path class="st11" d="M579.8,436.2c28.3,26.1,30.1,70.1,4.1,98.4c-50.7,55-108.7,102.6-172.5,141.3c-32.9,20-75.7,9.5-95.7-23.4
		c-20-32.9-9.5-75.7,23.4-95.7c52.6-31.9,100.5-71.2,142.3-116.6c13.7-14.9,32.5-22.5,51.3-22.5
		C549.5,417.8,566.4,423.9,579.8,436.2z M612.6,226.9c-13.5,36,4.8,76.2,40.9,89.7c36,13.5,76.2-4.8,89.7-40.9
		C776,187.6,792.8,94.8,793,0H653.7C653.4,78.1,639.6,154.4,612.6,226.9z M191.4,699.2c-6.4-37.9-42.4-63.5-80.3-57.1
		C75,648.3,37.9,651.4,1,651.4c-0.3,0-0.7,0-1,0v139.3c0.3,0,0.7,0,1,0c44.7,0,89.6-3.8,133.3-11.2
		C172.3,773.1,197.9,737.2,191.4,699.2z M0.5,404.8c-0.2,0-0.3,0-0.5,0v139.3c0.2,0,0.3,0,0.5,0c294.9,0,539.7-239.7,545.9-534.4
		c0.1-3.3-0.2-6.5-0.6-9.7H407.5c-0.3,2.2-0.4,4.5-0.5,6.8C402.5,226.3,220.1,404.8,0.5,404.8z M198.4,25.7
		c-3.7,26.7,15,51.3,41.7,55c26.7,3.8,51.3-15,55-41.7c1.8-12.8,2.6-25.9,2.7-39h-97.5C200.1,8.6,199.6,17.3,198.4,25.7z M0,292.7
		c0.3,0,0.5,0,0.8,0c77.5,0,150.7-30,206.1-84.4c8.8-8.6,13.7-20.1,13.8-32.4c0.1-12.3-4.6-23.9-13.2-32.6
		c-8.7-8.9-20.4-13.8-32.8-13.8c-12.1,0-23.6,4.7-32.2,13.2C104.3,180.1,54,200.8,0.7,200.8c-0.2,0-0.5,0-0.7,0V292.7z"/>
</g>
<g id="Layer_1">
	<g>
		<g>
			<linearGradient id="SVGID_5_" gradientUnits="userSpaceOnUse" x1="-1371.0131" y1="-1721.5477" x2="-1106.7438" y2="-1721.5477">
				<stop  offset="0" style="stop-color:#00A7FF;stop-opacity:0.3"/>
				<stop  offset="1" style="stop-color:#00A7FF;stop-opacity:0.2"/>
			</linearGradient>
			<path class="st12" d="M-1163.2-1651.9c-0.1,0.2-0.2,0.4-0.3,0.5c-16.8,25.4-45,40.6-75.5,40.6c-8.8,0-17.5-1.3-25.8-3.7
				c-0.4-0.1-0.9-0.3-1.3-0.5c-17-5.4-31.8-15.6-42.8-29.1c-0.4-0.4-0.7-0.7-1.1-1.2c-12.7-16.1-19.4-35.4-19.4-55.9
				c0-49.8,40.5-90.4,90.4-90.4c7.7,0,15.1,1,22.3,2.8c34.2,8.7,60.6,36.9,66.7,72c0.1,0.3,0.1,0.6,0.2,1c0.1,0.3,0.1,0.7,0.2,1
				c0.6,3.8,0.9,7.7,1,11.7c0,0.2,0,0.3,0,0.5c0,0.5,0,0.9,0,1.4C-1148.6-1683-1153.9-1666.1-1163.2-1651.9z M-1143-1773.6
				c4.7-4.3,5-11.6,0.7-16.3c-8.4-9.1-18-17-28.6-23.4c-5.4-3.3-12.5-1.6-15.8,3.9c-3.3,5.4-1.6,12.5,3.9,15.8
				c8.7,5.3,16.6,11.8,23.6,19.3c2.3,2.5,5.4,3.7,8.5,3.7C-1148.1-1770.6-1145.3-1771.6-1143-1773.6z M-1146.8-1613.3
				c-2.6,0-5.2-0.9-7.4-2.7c-4.9-4.1-5.6-11.3-1.5-16.2c16-19.3,24.8-43.8,24.8-68.9c0-13-2.3-25.8-6.8-37.9
				c-2.2-6,0.8-12.6,6.8-14.8c6-2.2,12.6,0.8,14.8,6.8c5.5,14.7,8.3,30.1,8.3,45.9c0,30.5-10.7,60.2-30.1,83.7
				C-1140.2-1614.7-1143.5-1613.3-1146.8-1613.3z M-1330.8-1613c-3.3,0-6.6-1.4-8.9-4.1c-19.6-23.5-30.4-53.3-30.4-84
				c0-72.3,58.8-131.2,131.2-131.2c7.4,0,14.8,0.6,22.1,1.9c6.3,1.1,10.5,7,9.4,13.3c-1.1,6.3-7,10.5-13.3,9.4
				c-6-1-12.1-1.5-18.2-1.5c-59.6,0-108.1,48.5-108.1,108.1c0,25.3,8.9,49.8,25,69.2c4.1,4.9,3.4,12.2-1.5,16.2
				C-1325.5-1613.9-1328.2-1613-1330.8-1613z"/>
		</g>
	</g>
</g>
</svg>
