<?xml version="1.0" encoding="utf-8"?>
<!-- Generator: Adobe Illustrator 22.0.0, SVG Export Plug-In . SVG Version: 6.00 Build 0)  -->
<svg version="1.1" id="Layer_1" xmlns="http://www.w3.org/2000/svg" xmlns:xlink="http://www.w3.org/1999/xlink" x="0px" y="0px"
	 viewBox="0 0 213 40" style="enable-background:new 0 0 213 40;" xml:space="preserve">
<style type="text/css">
	.st0{fill:url(#SVGID_1_);}
</style>
<linearGradient id="SVGID_1_" gradientUnits="userSpaceOnUse" x1="0.1243" y1="19.8372" x2="212.5705" y2="19.8372">
	<stop  offset="0.1784" style="stop-color:#0E285C"/>
	<stop  offset="0.3806" style="stop-color:#102C61"/>
	<stop  offset="0.6208" style="stop-color:#14376F"/>
	<stop  offset="0.8794" style="stop-color:#1C4987"/>
	<stop  offset="1" style="stop-color:#215495"/>
</linearGradient>
<path class="st0" d="M38.5,11.3c-0.5,0-1.1-0.2-1.5-0.7c-1.2-1.3-2.6-2.5-4.1-3.4c-1-0.6-1.3-1.8-0.7-2.8c0.6-1,1.8-1.3,2.8-0.7
	c1.8,1.1,3.5,2.5,5,4.1c0.8,0.8,0.7,2.1-0.1,2.9C39.4,11.1,39,11.3,38.5,11.3z M40.7,38c3.4-4.1,5.3-9.3,5.3-14.6
	c0-2.8-0.5-5.5-1.4-8c-0.4-1-1.6-1.6-2.6-1.2c-1,0.4-1.6,1.6-1.2,2.6c0.8,2.1,1.2,4.3,1.2,6.6c0,4.4-1.5,8.7-4.3,12.1
	c-0.7,0.9-0.6,2.1,0.3,2.8c0.4,0.3,0.8,0.5,1.3,0.5C39.8,38.8,40.3,38.5,40.7,38z M36.3,32.1c0.6-0.9,0.4-2.2-0.6-2.8
	c-0.9-0.6-2.2-0.4-2.8,0.6c-2.2,3.3-5.9,5.3-9.8,5.3c-1.1,0-2.3-0.2-3.4-0.5c-1.1-0.3-2.2,0.3-2.5,1.4c-0.3,1.1,0.3,2.2,1.4,2.5
	c1.5,0.4,3,0.7,4.5,0.7C28.4,39.2,33.3,36.6,36.3,32.1z M8.3,38.4c0.9-0.7,1-2,0.3-2.8c-2.8-3.4-4.4-7.7-4.4-12.1
	C4.2,13,12.6,4.5,23.1,4.5c1.1,0,2.1,0.1,3.2,0.3c1.1,0.2,2.1-0.6,2.3-1.7C28.8,2,28,1,26.9,0.8c-1.3-0.2-2.6-0.3-3.9-0.3
	C10.4,0.5,0.1,10.8,0.1,23.4C0.1,28.8,2,34,5.4,38.1c0.4,0.5,1,0.7,1.6,0.7C7.4,38.8,7.9,38.7,8.3,38.4z M13.5,33.5
	c0.9-0.7,1-2,0.3-2.8c-1.6-2.1-2.5-4.6-2.5-7.3c0-6.5,5.3-11.8,11.8-11.8c6.4,0,11.6,5.2,11.8,11.5c0,1.1,0.9,2,2.1,2
	c1.1,0,2-0.9,2-2.1c-0.2-8.5-7.3-15.5-15.8-15.5c-8.7,0-15.8,7.1-15.8,15.8c0,3.6,1.2,7,3.4,9.8c0.4,0.5,1,0.8,1.6,0.8
	C12.7,34,13.1,33.8,13.5,33.5z M31.6,24.1c0-0.2,0-0.5,0-0.7c0-0.4,0-0.8-0.1-1.2c-0.1-0.8-0.8-1.3-1.6-1.2
	c-0.8,0.1-1.3,0.8-1.2,1.6c0,0.3,0.1,0.5,0.1,0.8c0,0.2,0,0.3,0,0.5c-0.1,0.8,0.5,1.5,1.3,1.5c0,0,0.1,0,0.1,0
	C31,25.4,31.6,24.8,31.6,24.1z M23.3,31.9c2.3-0.1,4.4-1,6-2.7c0.5-0.5,0.5-1.4-0.1-1.9C29,27.1,28.7,27,28.3,27
	c-0.4,0-0.7,0.2-1,0.4c-1.1,1.2-2.5,1.8-4.1,1.9c-0.1,0-0.1,0-0.2,0c-1.5,0-2.9-0.6-4-1.6c-1.1-1.1-1.8-2.5-1.8-4.1
	c-0.1-3.2,2.5-5.9,5.7-6c0.1,0,0.1,0,0.2,0c1.5,0,3,0.6,4.1,1.7c0.3,0.2,0.6,0.4,0.9,0.4c0.4,0,0.7-0.1,1-0.4
	c0.2-0.3,0.4-0.6,0.4-0.9c0-0.4-0.1-0.7-0.4-0.9c-1.6-1.6-3.7-2.4-6-2.4c-0.1,0-0.2,0-0.2,0c-2.3,0.1-4.4,1-6,2.7
	c-1.6,1.7-2.4,3.8-2.3,6.1c0.1,2.3,1,4.4,2.7,6c1.6,1.5,3.7,2.3,5.9,2.3C23.1,31.9,23.2,31.9,23.3,31.9z M51,24.7
	c0,0.7,0.1,1.5,0.4,2.2c0.3,0.7,0.7,1.4,1.3,2c0.6,0.6,1.4,1,2.4,1.4c1,0.4,2.2,0.5,3.5,0.5c1.1,0,2.1-0.1,3.1-0.4
	c0.9-0.2,1.8-0.6,2.5-1.1c0.7-0.5,1.2-1.1,1.6-1.8c0.4-0.7,0.6-1.5,0.6-2.4c0-0.6-0.1-1.2-0.2-1.7c-0.2-0.5-0.4-0.9-0.6-1.3
	c-0.3-0.4-0.6-0.7-1-1c-0.4-0.3-0.8-0.5-1.3-0.8c-0.5-0.2-1-0.4-1.6-0.6c-0.6-0.2-1.2-0.3-1.8-0.5c-0.6-0.1-1.1-0.2-1.5-0.3
	c-0.5-0.1-0.9-0.3-1.2-0.4c-0.3-0.2-0.6-0.4-0.8-0.6c-0.2-0.2-0.3-0.5-0.3-0.8c0-0.2,0-0.4,0.1-0.7c0.1-0.2,0.2-0.4,0.4-0.6
	c0.2-0.2,0.5-0.3,0.9-0.4c0.4-0.1,0.8-0.1,1.4-0.1c0.5,0,1,0.1,1.3,0.2c0.4,0.1,0.6,0.3,0.9,0.5c0.2,0.2,0.4,0.4,0.5,0.7
	c0.1,0.3,0.1,0.5,0.1,0.8h4.3c0-0.9-0.1-1.7-0.4-2.4c-0.3-0.7-0.7-1.3-1.3-1.8c-0.6-0.5-1.3-0.9-2.1-1.2c-0.8-0.3-1.8-0.4-2.8-0.4
	c-1.3,0-2.4,0.1-3.4,0.4c-0.9,0.3-1.7,0.7-2.3,1.2c-0.6,0.5-1.1,1.1-1.4,1.9c-0.3,0.7-0.4,1.5-0.4,2.5c0,0.6,0.1,1.1,0.3,1.6
	c0.2,0.5,0.5,0.8,0.8,1.2c0.3,0.3,0.7,0.6,1.1,0.8c0.4,0.2,0.9,0.4,1.3,0.6c0.4,0.2,0.9,0.3,1.3,0.4c0.4,0.1,0.8,0.2,1.2,0.3
	c0.7,0.2,1.3,0.4,1.9,0.5c0.5,0.1,1,0.3,1.4,0.5c0.4,0.2,0.7,0.4,0.9,0.7c0.2,0.3,0.3,0.6,0.3,1.1c0,0.3-0.1,0.6-0.2,0.8
	c-0.1,0.2-0.3,0.5-0.6,0.6c-0.3,0.2-0.6,0.3-1,0.4c-0.4,0.1-0.9,0.1-1.6,0.1c-1.1,0-2-0.2-2.6-0.7c-0.6-0.4-0.9-1-0.9-1.8H51z
	 M77.4,16.5l-3.3,8.2l-0.2-0.9l-3-7.4h-4.6l5.6,13l-2.6,5.6h4.5l8.1-18.6L77.4,16.5z M105.9,22.9c0-1.1-0.1-2-0.4-2.9
	c-0.3-0.8-0.6-1.6-1.1-2.1c-0.5-0.6-1.1-1-1.9-1.4c-0.7-0.3-1.6-0.5-2.6-0.5c-0.6,0-1.1,0-1.6,0.1c-0.5,0.1-0.9,0.2-1.4,0.4
	c-0.4,0.2-0.8,0.4-1.1,0.6c-0.3,0.2-0.7,0.5-0.9,0.7c-0.5-0.6-1.1-1-1.8-1.3c-0.7-0.3-1.5-0.5-2.5-0.5c-0.9,0-1.7,0.1-2.4,0.4
	c-0.7,0.3-1.3,0.6-1.8,1l-0.2-1h-3.3v13.9h4.1v-7.3c0-0.5,0.1-1,0.2-1.5c0.1-0.4,0.3-0.8,0.6-1.1c0.3-0.3,0.6-0.5,0.9-0.7
	c0.4-0.2,0.8-0.2,1.2-0.2c0.8,0,1.3,0.3,1.7,0.8c0.4,0.5,0.6,1.4,0.6,2.6v7.4h4.2v-7.5c0-0.5,0.1-1,0.2-1.4c0.1-0.4,0.3-0.8,0.6-1
	c0.3-0.3,0.6-0.5,0.9-0.7c0.4-0.2,0.8-0.2,1.2-0.2c0.8,0,1.3,0.3,1.7,0.8c0.4,0.5,0.6,1.4,0.6,2.6v7.4h4.1V22.9z M108.8,16.1
	l-2.1,0.8V20h2.2v4.9c0,1.2,0.1,2.1,0.4,2.8c0.3,0.7,0.7,1.3,1.2,1.7c0.5,0.4,1.1,0.7,1.8,0.8c0.7,0.1,1.4,0.2,2.2,0.2h2.7l0-3.4
	H115c-0.3,0-0.5,0-0.8-0.1c-0.2-0.1-0.4-0.2-0.6-0.3c-0.2-0.2-0.3-0.4-0.4-0.7c-0.1-0.3-0.2-0.6-0.2-1.1V20h4v-3.5h-4v-3.9l-3,0
	L108.8,16.1z M118.8,26.3c0.4,0.9,0.9,1.7,1.6,2.3c0.7,0.7,1.5,1.2,2.4,1.6c0.9,0.4,2,0.6,3.1,0.6c1,0,1.9-0.1,2.7-0.4
	c0.8-0.3,1.5-0.6,2.1-1.1c0.6-0.5,1.1-1,1.6-1.6c0.4-0.6,0.7-1.2,0.9-1.8h-4.5c-0.2,0.4-0.6,0.8-1.1,1.1c-0.5,0.3-1,0.4-1.7,0.4
	c-0.4,0-0.8-0.1-1.2-0.2c-0.4-0.1-0.7-0.3-1.1-0.6c-0.3-0.2-0.6-0.5-0.9-0.9c-0.2-0.3-0.4-0.7-0.5-1.2h11.2c0-0.2,0.1-0.3,0.1-0.5
	c0-0.2,0-0.4,0-0.7c0-1-0.2-2-0.6-2.9c-0.4-0.9-0.9-1.7-1.6-2.3c-0.7-0.7-1.5-1.2-2.4-1.6c-0.9-0.4-2-0.6-3.1-0.6
	c-1.1,0-2.2,0.2-3.1,0.6c-0.9,0.4-1.8,0.9-2.4,1.6c-0.7,0.7-1.2,1.5-1.6,2.3c-0.4,0.9-0.6,1.9-0.6,2.9
	C118.2,24.4,118.4,25.4,118.8,26.3z M128.1,20c0.6,0.4,1,1,1.2,1.7h-6.8c0.3-0.7,0.7-1.3,1.3-1.7c0.6-0.4,1.3-0.7,2.2-0.7
	C126.8,19.3,127.5,19.5,128.1,20z M139.1,21.8c0.2-0.5,0.5-0.9,0.8-1.2c0.3-0.3,0.7-0.6,1.1-0.8c0.4-0.2,0.9-0.3,1.4-0.3
	c0.7,0,1.4,0.2,1.9,0.5c0.6,0.4,1,0.8,1.3,1.5l4.2,0c-0.2-0.8-0.5-1.5-0.9-2.2c-0.4-0.7-1-1.3-1.6-1.8c-0.6-0.5-1.4-0.9-2.2-1.2
	c-0.8-0.3-1.7-0.4-2.7-0.4c-1.1,0-2.2,0.2-3.1,0.6c-0.9,0.4-1.8,0.9-2.4,1.6c-0.7,0.7-1.2,1.5-1.6,2.4s-0.6,1.8-0.6,2.9
	c0,1,0.2,2,0.6,2.9c0.4,0.9,0.9,1.7,1.6,2.3c0.7,0.7,1.5,1.2,2.4,1.6c0.9,0.4,2,0.6,3.1,0.6c1,0,1.9-0.1,2.7-0.4
	c0.8-0.3,1.6-0.7,2.2-1.2c0.6-0.5,1.2-1.1,1.6-1.8c0.4-0.7,0.7-1.4,0.9-2.2h-4.2c-0.3,0.6-0.7,1.1-1.3,1.5c-0.6,0.4-1.2,0.5-1.9,0.5
	c-0.5,0-0.9-0.1-1.4-0.3c-0.4-0.2-0.8-0.4-1.1-0.7c-0.3-0.3-0.6-0.7-0.8-1.2c-0.2-0.5-0.3-1-0.3-1.6S138.9,22.3,139.1,21.8z
	 M165.8,22.9c0-1.1-0.1-2-0.4-2.9c-0.2-0.8-0.6-1.6-1.1-2.2c-0.5-0.6-1.2-1-2-1.4c-0.8-0.3-1.7-0.5-2.8-0.5c-0.8,0-1.5,0.1-2.2,0.4
	c-0.7,0.3-1.3,0.6-1.8,0.9l0-5.9h-4.1v18.9h4.1v-7.3c0-0.5,0.1-1,0.2-1.4c0.2-0.4,0.4-0.8,0.6-1.1s0.6-0.5,1-0.7
	c0.4-0.2,0.8-0.3,1.3-0.3c0.5,0,0.9,0.1,1.2,0.2c0.4,0.1,0.7,0.3,0.9,0.5c0.3,0.3,0.5,0.6,0.6,1c0.1,0.4,0.2,1,0.2,1.7v7.4h4.2V22.9
	z M175,27.6L175,27.6l-6.5-15.4h-2.2l7.8,18.2h2l7.8-18.2h-2.2L175,27.6z M182.8,26.4c0.4,0.9,0.9,1.6,1.6,2.3
	c0.7,0.7,1.4,1.2,2.3,1.5c0.9,0.4,1.9,0.6,2.9,0.6c0.8,0,1.6-0.1,2.3-0.3c0.7-0.2,1.4-0.5,1.9-0.9c0.6-0.4,1.1-0.8,1.5-1.4
	c0.4-0.5,0.8-1.1,1-1.7h-2.2c-0.2,0.4-0.5,0.7-0.8,1c-0.3,0.3-0.7,0.6-1,0.8c-0.4,0.2-0.8,0.4-1.3,0.5c-0.5,0.1-0.9,0.2-1.4,0.2
	c-0.7,0-1.3-0.1-1.9-0.3c-0.6-0.2-1.2-0.5-1.7-1c-0.5-0.4-0.9-0.9-1.2-1.5c-0.3-0.6-0.5-1.3-0.6-2H197l0-0.3h0v-0.3
	c0-1-0.2-1.9-0.6-2.8s-0.9-1.6-1.6-2.3c-0.7-0.6-1.4-1.2-2.3-1.5c-0.9-0.4-1.9-0.6-2.9-0.6c-1.1,0-2,0.2-2.9,0.6
	c-0.9,0.4-1.7,0.9-2.3,1.5c-0.7,0.7-1.2,1.4-1.6,2.3c-0.4,0.9-0.6,1.8-0.6,2.8S182.4,25.5,182.8,26.4z M191.6,18.4
	c0.6,0.2,1.1,0.6,1.6,1c0.5,0.4,0.8,0.9,1.1,1.5c0.3,0.6,0.5,1.2,0.6,1.8h-10.6c0.1-0.7,0.3-1.3,0.6-1.8c0.3-0.6,0.7-1,1.2-1.5
	c0.5-0.4,1-0.7,1.6-1c0.6-0.2,1.3-0.3,2-0.3C190.3,18.1,191,18.2,191.6,18.4z M212.6,23c0-2.2-0.5-3.8-1.5-4.9
	c-1-1.1-2.6-1.7-4.6-1.7c-0.5,0-1,0.1-1.5,0.2c-0.5,0.1-1,0.3-1.4,0.5c-0.4,0.2-0.8,0.5-1.2,0.8c-0.4,0.3-0.7,0.6-1,0.9l-0.2-2h-1.7
	v13.6h2.1v-7.3c0-0.7,0.1-1.4,0.4-2c0.2-0.6,0.6-1.1,1-1.6c0.4-0.4,0.9-0.8,1.5-1c0.6-0.2,1.2-0.4,1.8-0.4c0.7,0,1.3,0.1,1.9,0.3
	c0.5,0.2,1,0.5,1.4,0.9c0.4,0.4,0.7,0.9,0.8,1.5c0.2,0.6,0.3,1.3,0.3,2.2v7.4h2.1V23z"/>
</svg>
