<svg xmlns="http://www.w3.org/2000/svg" version="1.1" id="Layer_1" x="0" y="0" xml:space="preserve" width="213" height="40"><style type="text/css" id="style2"></style><linearGradient id="SVGID_18_" gradientUnits="userSpaceOnUse" x1="711.863" y1="573.45" x2="673.869" y2="526.441" gradientTransform="matrix(.1709 0 0 .1713 -106.132 -73.229)"><stop offset=".003" style="stop-color:#1c6292" id="stop223"/><stop offset="1" style="stop-color:#1380aa" id="stop225"/></linearGradient><g id="g913" transform="translate(.13 -15.38) scale(1.83543)" style="fill:#fff"><g transform="matrix(.1709 0 0 .1713 -106.132 -73.229)" id="g47" style="fill:#fff"><linearGradient y2="515.515" x2="1179.037" y1="573.559" x1="1179.037" gradientUnits="userSpaceOnUse" id="SVGID_1_"><stop id="stop26" style="stop-color:#c44c17" offset="0"/><stop id="stop28" style="stop-color:#e16b20" offset="1"/></linearGradient><path style="fill:#fff" id="path31" d="M1199.8 515.5h7.2l-24.8 58h-6.3l-24.8-58h7.1l20.8 49.3z"/><linearGradient y2="528.916" x2="1225.789" y1="574.796" x1="1225.789" gradientUnits="userSpaceOnUse" id="SVGID_2_"><stop id="stop33" style="stop-color:#c44c17" offset="0"/><stop id="stop35" style="stop-color:#e16b20" offset="1"/></linearGradient><path style="fill:#fff" id="path38" d="M1202.2 551.8c0-3.2.6-6.2 1.8-8.9 1.2-2.8 2.9-5.2 5-7.3 2.1-2.1 4.6-3.7 7.5-4.9 2.9-1.2 6-1.8 9.3-1.8 3.4 0 6.5.6 9.4 1.8 2.9 1.2 5.4 2.8 7.5 4.9 2.1 2.1 3.8 4.5 5 7.3 1.2 2.8 1.8 5.8 1.8 9v1l-.1 1.1h-40.6c.3 2.3.9 4.4 2 6.3 1.1 1.9 2.4 3.5 3.9 4.8 1.6 1.3 3.3 2.3 5.3 3.1 1.9.7 4 1.1 6 1.1 1.6 0 3.1-.2 4.6-.6 1.5-.4 2.8-.9 4-1.6 1.2-.7 2.4-1.6 3.4-2.6s1.8-2.1 2.5-3.4h7.2c-.8 1.9-1.9 3.7-3.3 5.4-1.4 1.7-3 3.1-4.9 4.4-1.9 1.2-3.9 2.2-6.2 2.9-2.3.7-4.7 1.1-7.3 1.1-3.4 0-6.5-.6-9.3-1.8-2.9-1.2-5.4-2.8-7.5-4.9-2.1-2.1-3.8-4.5-5-7.3-1.4-2.9-2-5.9-2-9.1zm23.6-17.5c-2.2 0-4.3.4-6.3 1.1-1.9.7-3.6 1.8-5.1 3.1-1.5 1.3-2.7 2.8-3.7 4.6-1 1.8-1.6 3.7-1.9 5.8h33.9c-.3-2.1-1-4-1.9-5.8-1-1.8-2.2-3.3-3.7-4.7-1.5-1.3-3.2-2.3-5.1-3.1-1.9-.6-4-1-6.2-1z"/><linearGradient y2="528.916" x2="1278.024" y1="573.559" x1="1278.024" gradientUnits="userSpaceOnUse" id="SVGID_3_"><stop id="stop40" style="stop-color:#c44c17" offset="0"/><stop id="stop42" style="stop-color:#e16b20" offset="1"/></linearGradient><path style="fill:#fff" id="path45" d="M1299.1 573.6h-6.6v-23.5c0-2.7-.3-5-.9-7-.6-1.9-1.5-3.5-2.7-4.8-1.2-1.3-2.7-2.2-4.4-2.8-1.7-.6-3.7-.9-5.9-.9-2.1 0-4 .4-5.8 1.1-1.8.8-3.4 1.8-4.8 3.2-1.4 1.4-2.4 3-3.2 5-.8 1.9-1.2 4-1.2 6.4v23.2h-6.6v-43.4h5.5l.6 6.4c.9-1.1 1.9-2 3.1-3 1.2-.9 2.5-1.7 3.9-2.4s2.9-1.2 4.5-1.6c1.6-.4 3.2-.6 4.9-.6 6.6 0 11.5 1.8 14.8 5.3 3.3 3.5 4.9 8.8 4.9 15.8v23.6z"/></g><g transform="matrix(.1709 0 0 .1713 -106.132 -73.229)" id="g140" style="fill:#fff"><linearGradient y2="514.064" x2="808.106" y1="575.01" x1="808.106" gradientUnits="userSpaceOnUse" id="SVGID_4_"><stop id="stop49" style="stop-color:#0e285c" offset=".178"/><stop id="stop51" style="stop-color:#102c61" offset=".381"/><stop id="stop53" style="stop-color:#14376f" offset=".621"/><stop id="stop55" style="stop-color:#1c4987" offset=".879"/><stop id="stop57" style="stop-color:#215495" offset="1"/></linearGradient><path style="fill:#fff" id="path60" d="M797 555.5c0 2.4 1 4.3 2.9 5.7 2 1.4 4.7 2.1 8.3 2.1 2 0 3.6-.1 5-.4 1.4-.3 2.5-.7 3.3-1.3.9-.5 1.5-1.2 1.9-2 .4-.8.6-1.7.6-2.7 0-1.4-.3-2.5-1-3.4-.7-.9-1.6-1.6-2.8-2.1-1.2-.6-2.7-1.1-4.5-1.5-1.8-.5-3.7-1-6-1.6-1.1-.3-2.3-.6-3.7-.9-1.4-.3-2.8-.8-4.2-1.3-1.4-.5-2.8-1.1-4.2-1.9-1.4-.7-2.6-1.6-3.6-2.7-1.1-1.1-1.9-2.3-2.6-3.7-.6-1.4-1-3.1-1-5.1 0-2.9.5-5.5 1.4-7.8.9-2.3 2.4-4.3 4.3-5.9 1.9-1.6 4.4-2.9 7.4-3.7 3-.9 6.6-1.3 10.7-1.3 3.4 0 6.4.4 9.1 1.3 2.6.9 4.9 2.1 6.7 3.7 1.8 1.6 3.2 3.5 4.1 5.8.9 2.3 1.4 4.8 1.4 7.6h-13.6c0-.9-.2-1.7-.5-2.5s-.8-1.5-1.5-2.1c-.7-.6-1.6-1.1-2.8-1.5-1.1-.4-2.5-.6-4.2-.6-1.8 0-3.3.2-4.5.5-1.2.3-2.1.7-2.8 1.3-.7.5-1.2 1.2-1.4 1.8-.3.7-.4 1.4-.4 2.1 0 1 .3 1.9 1 2.6.6.7 1.5 1.4 2.6 1.9s2.4 1 3.9 1.3c1.5.4 3.1.7 4.9 1 2 .5 3.9 1 5.8 1.5 1.8.5 3.5 1.2 5.1 1.9 1.6.7 3 1.5 4.2 2.4 1.3.9 2.3 2 3.2 3.2.9 1.2 1.6 2.7 2.1 4.2.5 1.6.7 3.4.7 5.5 0 2.9-.6 5.5-1.9 7.7-1.2 2.2-3 4.1-5.2 5.6s-4.8 2.7-7.9 3.4c-3 .8-6.3 1.2-9.9 1.2-4.4 0-8.2-.6-11.3-1.7-3.1-1.2-5.6-2.7-7.6-4.5-1.9-1.8-3.4-3.9-4.3-6.3-.9-2.3-1.3-4.7-1.3-7H797z"/><linearGradient y2="529.3" x2="857.161" y1="588.752" x1="857.161" gradientUnits="userSpaceOnUse" id="SVGID_5_"><stop id="stop62" style="stop-color:#0e285c" offset=".178"/><stop id="stop64" style="stop-color:#102c61" offset=".381"/><stop id="stop66" style="stop-color:#14376f" offset=".621"/><stop id="stop68" style="stop-color:#1c4987" offset=".879"/><stop id="stop70" style="stop-color:#215495" offset="1"/></linearGradient><path style="fill:#fff" id="path73" d="m881.9 529.3-25.8 59.5h-14.3l8.4-17.9-17.8-41.5H847l9.6 23.6.7 2.7 10.5-26.3z"/><linearGradient y2="527.891" x2="921.966" y1="573.559" x1="921.966" gradientUnits="userSpaceOnUse" id="SVGID_6_"><stop id="stop75" style="stop-color:#0e285c" offset=".178"/><stop id="stop77" style="stop-color:#102c61" offset=".381"/><stop id="stop79" style="stop-color:#14376f" offset=".621"/><stop id="stop81" style="stop-color:#1c4987" offset=".879"/><stop id="stop83" style="stop-color:#215495" offset="1"/></linearGradient><path style="fill:#fff" id="path86" d="M958.7 573.6h-13.2V550c0-3.7-.6-6.4-1.8-8.2-1.2-1.7-3-2.6-5.5-2.6-1.4 0-2.7.2-3.9.7-1.2.5-2.2 1.2-3 2.1-.8.9-1.5 2-1.9 3.3-.5 1.3-.7 2.8-.7 4.4v23.8h-13.3V550c0-3.7-.6-6.4-1.8-8.2-1.2-1.7-3-2.6-5.5-2.6-1.5 0-2.8.2-3.9.7-1.2.5-2.2 1.2-3 2.2-.8 1-1.5 2.1-1.9 3.5-.4 1.4-.7 2.9-.7 4.7v23.2h-13.2v-44.3H896l.8 3.1c1.6-1.2 3.6-2.3 5.9-3.2 2.3-.9 4.8-1.3 7.5-1.3 2.9 0 5.5.5 7.9 1.5 2.3 1 4.3 2.4 5.9 4.3.9-.8 1.9-1.5 3-2.2 1.1-.7 2.3-1.3 3.6-1.9 1.3-.5 2.8-.9 4.3-1.3 1.6-.3 3.2-.5 5-.5 3.1 0 5.8.5 8.2 1.5 2.4 1 4.3 2.4 6 4.3 1.6 1.9 2.8 4.2 3.6 6.8.8 2.7 1.2 5.7 1.2 9.1v24.2z"/><linearGradient y2="517.009" x2="978.043" y1="573.858" x1="978.043" gradientUnits="userSpaceOnUse" id="SVGID_7_"><stop id="stop88" style="stop-color:#0e285c" offset=".178"/><stop id="stop90" style="stop-color:#102c61" offset=".381"/><stop id="stop92" style="stop-color:#14376f" offset=".621"/><stop id="stop94" style="stop-color:#1c4987" offset=".879"/><stop id="stop96" style="stop-color:#215495" offset="1"/></linearGradient><path style="fill:#fff" id="path99" d="m971.8 517.1 9.5-.1v12.3h12.8v11.3h-12.8v15.5c0 1.4.2 2.5.5 3.4.3.9.8 1.6 1.3 2.1.6.5 1.2.9 2 1.1.8.2 1.6.3 2.5.3h7.4l-.1 10.8h-8.6c-2.5 0-4.8-.2-7-.7-2.2-.4-4.1-1.3-5.8-2.6-1.7-1.3-3-3-3.9-5.3-1-2.3-1.4-5.3-1.4-9v-15.7h-7v-10.1l6.7-2.6z"/><linearGradient y2="527.891" x2="1022.639" y1="574.967" x1="1022.639" gradientUnits="userSpaceOnUse" id="SVGID_8_"><stop id="stop101" style="stop-color:#0e285c" offset=".178"/><stop id="stop103" style="stop-color:#102c61" offset=".381"/><stop id="stop105" style="stop-color:#14376f" offset=".621"/><stop id="stop107" style="stop-color:#1c4987" offset=".879"/><stop id="stop109" style="stop-color:#215495" offset="1"/></linearGradient><path style="fill:#fff" id="path112" d="M998 551.5c0-3.2.6-6.3 1.8-9.2 1.2-2.9 2.9-5.4 5.1-7.5 2.2-2.1 4.8-3.8 7.8-5.1 3-1.2 6.3-1.9 10-1.9s7 .6 10.1 1.9c3 1.2 5.6 2.9 7.8 5.1 2.2 2.1 3.9 4.6 5.1 7.5 1.2 2.9 1.8 5.9 1.8 9.2 0 .9 0 1.6-.1 2.1s-.1 1-.2 1.5h-35.9c.4 1.4.9 2.6 1.7 3.8.8 1.1 1.7 2.1 2.7 2.8 1 .8 2.2 1.4 3.4 1.8 1.2.4 2.5.6 3.7.6 2.1 0 3.9-.4 5.4-1.3 1.5-.9 2.7-2 3.5-3.4h14.3c-.7 1.9-1.7 3.8-3 5.7-1.3 1.9-3 3.5-5 5s-4.2 2.6-6.8 3.5c-2.6.9-5.4 1.3-8.5 1.3-3.6 0-6.9-.6-9.9-1.9-3-1.2-5.6-2.9-7.8-5.1-2.2-2.1-3.8-4.6-5.1-7.5-1.3-2.7-1.9-5.7-1.9-8.9zm24.6-13.2c-2.8 0-5.1.7-7 2.1-1.9 1.4-3.3 3.2-4.1 5.5h21.8c-.8-2.2-2.1-4.1-3.9-5.5-1.9-1.3-4.1-2.1-6.8-2.1z"/><linearGradient y2="527.849" x2="1074.768" y1="574.967" x1="1074.768" gradientUnits="userSpaceOnUse" id="SVGID_9_"><stop id="stop114" style="stop-color:#0e285c" offset=".178"/><stop id="stop116" style="stop-color:#102c61" offset=".381"/><stop id="stop118" style="stop-color:#14376f" offset=".621"/><stop id="stop120" style="stop-color:#1c4987" offset=".879"/><stop id="stop122" style="stop-color:#215495" offset="1"/></linearGradient><path style="fill:#fff" id="path125" d="M1063.8 551.4c0 1.9.3 3.6.9 5.1.6 1.5 1.5 2.8 2.5 3.8s2.3 1.8 3.6 2.4c1.4.6 2.9.8 4.4.8 2.3 0 4.3-.6 6.1-1.7 1.8-1.1 3.2-2.7 4.1-4.7h13.5c-.6 2.5-1.6 4.9-3 7.1-1.4 2.2-3.1 4.1-5.1 5.7-2 1.6-4.4 2.8-7.1 3.7-2.7.9-5.5 1.3-8.6 1.3-3.6 0-6.9-.6-9.9-1.9-3-1.2-5.6-2.9-7.8-5.1-2.2-2.1-3.8-4.6-5.1-7.5-1.2-2.9-1.8-5.9-1.8-9.1 0-3.2.6-6.3 1.8-9.1 1.2-2.9 2.9-5.4 5-7.5 2.2-2.1 4.8-3.8 7.8-5.1 3-1.3 6.3-1.9 10-1.9 3.1 0 6 .4 8.6 1.3 2.6.9 5 2.1 7 3.7s3.7 3.5 5.1 5.6c1.4 2.2 2.4 4.5 3 7.1h-13.5c-.9-2-2.3-3.6-4.1-4.8-1.8-1.1-3.8-1.7-6.1-1.7-1.5 0-3 .3-4.4.8-1.4.6-2.6 1.4-3.7 2.4-1.1 1.1-1.9 2.3-2.5 3.8-.4 1.9-.7 3.6-.7 5.5z"/><linearGradient y2="513.424" x2="1126.855" y1="573.601" x1="1126.855" gradientUnits="userSpaceOnUse" id="SVGID_10_"><stop id="stop127" style="stop-color:#0e285c" offset=".178"/><stop id="stop129" style="stop-color:#102c61" offset=".381"/><stop id="stop131" style="stop-color:#14376f" offset=".621"/><stop id="stop133" style="stop-color:#1c4987" offset=".879"/><stop id="stop135" style="stop-color:#215495" offset="1"/></linearGradient><path style="fill:#fff" id="path138" d="M1149.7 573.6h-13.3V550c0-2.1-.2-3.9-.7-5.3-.4-1.4-1.1-2.5-1.9-3.3-.8-.8-1.8-1.4-2.9-1.7a16 16 0 0 0-3.9-.5c-1.5 0-2.8.3-4 .8-1.2.5-2.3 1.3-3.1 2.3-.9 1-1.5 2.1-2 3.5-.5 1.3-.7 2.8-.7 4.4v23.3H1104v-60.2h13.1l-.1 18.7c1.7-1.2 3.6-2.2 5.8-3 2.2-.8 4.5-1.2 6.9-1.2 3.5 0 6.6.5 9.1 1.5s4.6 2.4 6.2 4.3c1.6 1.9 2.8 4.2 3.6 6.9.8 2.7 1.2 5.8 1.2 9.2v23.9z"/></g><g transform="matrix(.1709 0 0 .1713 -106.132 -73.229)" id="g149" style="fill:#fff"><linearGradient y2="500.209" x2="749.762" y1="500.209" x1="722.332" gradientUnits="userSpaceOnUse" id="SVGID_11_"><stop id="stop142" style="stop-color:#c44c17" offset="0"/><stop id="stop144" style="stop-color:#e16b20" offset="1"/></linearGradient><path style="fill:#fff" id="path147" d="M743.3 512.6c-1.7 0-3.5-.7-4.7-2.1-3.9-4.2-8.3-7.8-13.2-10.8-3-1.8-4-5.8-2.2-8.8 1.8-3 5.8-4 8.8-2.2 5.9 3.6 11.3 8 15.9 13.1 2.4 2.6 2.2 6.7-.4 9.1-1.1 1.1-2.6 1.7-4.2 1.7z"/></g><g transform="matrix(.1709 0 0 .1713 -106.132 -73.229)" id="g158" style="fill:#fff"><linearGradient y2="500.209" x2="749.762" y1="500.209" x1="722.332" gradientUnits="userSpaceOnUse" id="SVGID_12_"><stop id="stop151" style="stop-color:#c44c17" offset="0"/><stop id="stop153" style="stop-color:#e16b20" offset="1"/></linearGradient><path style="fill:#fff" id="path156" d="M743.3 512.6c-1.7 0-3.5-.7-4.7-2.1-3.9-4.2-8.3-7.8-13.2-10.8-3-1.8-4-5.8-2.2-8.8 1.8-3 5.8-4 8.8-2.2 5.9 3.6 11.3 8 15.9 13.1 2.4 2.6 2.2 6.7-.4 9.1-1.1 1.1-2.6 1.7-4.2 1.7z"/></g><g transform="matrix(.1709 0 0 .1713 -106.132 -73.229)" id="g173" style="fill:#fff"><linearGradient y2="527.519" x2="762.672" y1="606.941" x1="743.783" gradientUnits="userSpaceOnUse" id="SVGID_13_"><stop id="stop160" style="stop-color:#0e285c" offset=".178"/><stop id="stop162" style="stop-color:#102c61" offset=".381"/><stop id="stop164" style="stop-color:#14376f" offset=".621"/><stop id="stop166" style="stop-color:#1c4987" offset=".879"/><stop id="stop168" style="stop-color:#215495" offset="1"/></linearGradient><path style="fill:#fff" id="path171" d="M745.6 600.4c-1.4 0-2.9-.5-4.1-1.5-2.7-2.3-3.1-6.3-.8-9.1 8.9-10.8 13.9-24.5 13.9-38.5 0-7.3-1.3-14.4-3.8-21.1-1.2-3.3.4-7 3.8-8.3 3.3-1.2 7 .4 8.3 3.8 3.1 8.2 4.6 16.8 4.6 25.6 0 17-6 33.6-16.8 46.7-1.4 1.7-3.2 2.4-5.1 2.4z"/></g><g transform="matrix(.1709 0 0 .1713 -106.132 -73.229)" id="g182" style="fill:#fff"><linearGradient y2="585.523" x2="737.339" y1="585.523" x1="675.114" gradientUnits="userSpaceOnUse" id="SVGID_14_"><stop id="stop175" style="stop-color:#c44c17" offset="0"/><stop id="stop177" style="stop-color:#e16b20" offset="1"/></linearGradient><path style="fill:#fff" id="path180" d="M694.1 601.9c-4.9 0-9.8-.7-14.4-2.1-3.4-1-5.3-4.6-4.3-8 1-3.4 4.6-5.4 8-4.3 3.5 1 7.1 1.6 10.7 1.6 12.7 0 24.4-6.3 31.4-16.9 2-3 6-3.8 8.9-1.8 3 2 3.8 6 1.8 8.9-9.3 14.1-25.1 22.6-42.1 22.6z"/></g><g transform="matrix(.1709 0 0 .1713 -106.132 -73.229)" id="g197" style="fill:#fff"><linearGradient y2="539.369" x2="711.879" y1="539.369" x1="620.935" gradientUnits="userSpaceOnUse" id="SVGID_15_"><stop id="stop184" style="stop-color:#215495" offset="0"/><stop id="stop186" style="stop-color:#1c4987" offset=".121"/><stop id="stop188" style="stop-color:#14376f" offset=".379"/><stop id="stop190" style="stop-color:#102c61" offset=".619"/><stop id="stop192" style="stop-color:#0e285c" offset=".822"/></linearGradient><path style="fill:#fff" id="path195" d="M642.9 600.6c-1.8 0-3.7-.8-4.9-2.3-10.9-13.1-17-29.8-17-46.9 0-40.4 32.9-73.3 73.3-73.3 4.1 0 8.3.3 12.3 1 3.5.6 5.9 3.9 5.3 7.4-.6 3.5-3.9 5.9-7.4 5.3-3.3-.6-6.8-.9-10.2-.9-33.3 0-60.4 27.1-60.4 60.4 0 14.1 5 27.8 14 38.6 2.3 2.7 1.9 6.8-.8 9.1-1.3 1.1-2.8 1.6-4.2 1.6z"/></g><g transform="matrix(.1709 0 0 .1713 -106.132 -73.229)" id="g212" style="fill:#fff"><linearGradient y2="542.998" x2="744.592" y1="542.998" x1="643.672" gradientUnits="userSpaceOnUse" id="SVGID_16_"><stop id="stop199" style="stop-color:#0e285c" offset=".178"/><stop id="stop201" style="stop-color:#102c61" offset=".381"/><stop id="stop203" style="stop-color:#14376f" offset=".621"/><stop id="stop205" style="stop-color:#1c4987" offset=".879"/><stop id="stop207" style="stop-color:#215495" offset="1"/></linearGradient><path style="fill:#fff" id="path210" d="M659.5 585.1c-1.9 0-3.8-.8-5.1-2.5-7.1-9-10.8-19.8-10.8-31.2 0-27.8 22.6-50.5 50.5-50.5 27.3 0 49.9 22.2 50.5 49.4.1 3.6-2.7 6.5-6.3 6.6-3.6.1-6.5-2.7-6.6-6.3-.4-20.3-17.3-36.8-37.6-36.8-20.7 0-37.6 16.9-37.6 37.6 0 8.5 2.8 16.6 8 23.2 2.2 2.8 1.7 6.8-1.1 9-1.1 1-2.5 1.5-3.9 1.5z"/></g><g transform="matrix(.1709 0 0 .1713 -106.132 -73.229)" id="g221" style="fill:#fff"><linearGradient y2="543.724" x2="717.006" y1="557.723" x1="717.006" gradientUnits="userSpaceOnUse" id="SVGID_17_"><stop id="stop214" style="stop-color:#e16b20" offset="0"/><stop id="stop216" style="stop-color:#c44c17" offset="1"/></linearGradient><path style="fill:#fff" id="path219" d="M717 557.7h-.4c-2.5-.2-4.3-2.4-4.1-4.8 0-.5.1-1 .1-1.5 0-.9-.1-1.7-.2-2.5-.3-2.5 1.4-4.7 3.9-5.1 2.5-.3 4.7 1.4 5.1 3.9.2 1.2.3 2.5.3 3.8 0 .7 0 1.5-.1 2.2-.2 2.2-2.2 4-4.6 4z"/></g><path style="fill:#fff;stroke-width:.17110528" id="path228" d="M12.493 25.889a4.638 4.638 0 0 1-4.649-4.522 4.644 4.644 0 0 1 1.265-3.34 4.617 4.617 0 0 1 3.247-1.457h.137a4.6 4.6 0 0 1 3.247 1.336.726.726 0 0 1-1.008 1.045 3.151 3.151 0 0 0-2.239-.925h-.085a3.207 3.207 0 0 0-3.11 3.29 3.152 3.152 0 0 0 1.008 2.243 3.159 3.159 0 0 0 2.187.874h.103c.871-.017 1.657-.394 2.256-1.028a.7.7 0 0 1 .53-.24c.187 0 .358.069.495.189a.73.73 0 0 1 .034 1.028 4.599 4.599 0 0 1-3.281 1.49c-.051.017-.086.017-.137.017z"/></g></svg>